<svg class="chemicals-svg" xmlns="http://www.w3.org/2000/svg" width="1279" height="519" viewBox="0 0 1279 519" fill="none">
    <g id="desktop">
        <g id="dinch">
            <g id="group_hover" data-chemical-target="dinch">
                <path id="hover" d="M634.156 174.465C637.869 172.321 642.443 172.321 646.156 174.465L709.483 211.026C713.195 213.17 715.483 217.131 715.483 221.419V294.542C715.483 298.829 713.195 302.79 709.483 304.934L646.156 341.495C642.443 343.639 637.869 343.639 634.156 341.495L570.83 304.934C567.117 302.79 564.83 298.829 564.83 294.542V221.419C564.83 217.131 567.117 213.17 570.83 211.026L634.156 174.465Z" fill="#CF782B"/>
                <path id="DINCH &amp; Plasticisers" d="M607.458 252.204H602.198V237.584H607.318C611.638 237.584 614.618 240.564 614.618 244.924C614.618 249.224 611.698 252.204 607.458 252.204ZM607.078 239.944H604.758V249.844H607.218C610.138 249.844 611.918 247.964 611.918 244.924C611.918 241.824 610.098 239.944 607.078 239.944ZM619.763 237.584V252.204H617.203V237.584H619.763ZM625.724 252.204H623.204V237.584H625.744L632.604 247.944V237.584H635.124V252.204H632.604L625.724 241.844V252.204ZM644.74 252.444C640.48 252.444 637.72 249.484 637.72 244.904C637.72 240.364 640.58 237.344 644.86 237.344C648.32 237.344 650.9 239.364 651.4 242.504H648.7C648.2 240.804 646.74 239.804 644.8 239.804C642.1 239.804 640.4 241.764 640.4 244.884C640.4 247.984 642.12 249.984 644.8 249.984C646.78 249.984 648.3 248.944 648.78 247.324H651.44C650.88 250.404 648.2 252.444 644.74 252.444ZM656.496 252.204H653.936V237.584H656.496V243.624H662.976V237.584H665.536V252.204H662.976V246.004H656.496V252.204ZM683.965 252.204L682.985 251.104C681.825 251.984 680.345 252.464 678.585 252.464C675.405 252.464 673.265 250.784 673.265 248.324C673.265 246.544 674.425 245.084 676.665 244.004C675.525 242.684 675.085 241.784 675.085 240.684C675.085 238.744 676.665 237.344 678.825 237.344C680.965 237.344 682.445 238.664 682.445 240.564C682.445 242.024 681.665 243.184 679.845 244.404L682.785 247.704C683.045 247.004 683.185 246.164 683.185 245.204H685.565C685.565 246.904 685.165 248.364 684.425 249.524L686.805 252.204H683.965ZM677.405 240.664C677.405 241.384 677.725 241.984 678.665 243.064C679.685 242.464 680.185 241.644 680.185 240.644C680.185 239.784 679.665 239.284 678.825 239.284C677.945 239.284 677.405 239.804 677.405 240.664ZM675.845 248.084C675.845 249.504 676.985 250.364 678.865 250.364C679.965 250.364 680.865 250.064 681.565 249.504L677.845 245.324C676.465 246.104 675.845 246.944 675.845 248.084ZM598.213 273.164H594.993V278.204H592.433V263.584H598.213C601.153 263.584 603.053 265.504 603.053 268.364C603.053 271.184 601.133 273.164 598.213 273.164ZM597.713 265.864H594.993V270.884H597.673C599.433 270.884 600.373 269.944 600.373 268.344C600.373 266.744 599.413 265.864 597.713 265.864ZM607.507 278.204H605.087V263.324H607.507V278.204ZM613.206 278.464C611.106 278.464 609.826 277.244 609.826 275.384C609.826 273.564 611.146 272.424 613.486 272.244L616.446 272.024V271.804C616.446 270.464 615.646 269.924 614.406 269.924C612.966 269.924 612.166 270.524 612.166 271.564H610.086C610.086 269.424 611.846 268.024 614.526 268.024C617.186 268.024 618.826 269.464 618.826 272.204V278.204H616.686L616.506 276.744C616.086 277.764 614.746 278.464 613.206 278.464ZM614.006 276.624C615.506 276.624 616.466 275.724 616.466 274.204V273.684L614.406 273.844C612.886 273.984 612.306 274.484 612.306 275.284C612.306 276.184 612.906 276.624 614.006 276.624ZM620.663 275.204H622.983C623.003 276.064 623.643 276.604 624.763 276.604C625.903 276.604 626.523 276.144 626.523 275.424C626.523 274.924 626.263 274.564 625.383 274.364L623.603 273.944C621.823 273.544 620.963 272.704 620.963 271.124C620.963 269.184 622.603 268.024 624.883 268.024C627.103 268.024 628.603 269.304 628.623 271.224H626.303C626.283 270.384 625.723 269.844 624.783 269.844C623.823 269.844 623.263 270.284 623.263 271.024C623.263 271.584 623.703 271.944 624.543 272.144L626.323 272.564C627.983 272.944 628.823 273.704 628.823 275.224C628.823 277.224 627.123 278.464 624.683 278.464C622.223 278.464 620.663 277.144 620.663 275.204ZM634.241 278.204H631.801V270.364H629.901V268.324H631.801V265.244H634.241V268.324H636.161V270.364H634.241V278.204ZM639.098 266.344C638.258 266.344 637.598 265.684 637.598 264.864C637.598 264.044 638.258 263.404 639.098 263.404C639.898 263.404 640.558 264.044 640.558 264.864C640.558 265.684 639.898 266.344 639.098 266.344ZM637.878 278.204V268.324H640.318V278.204H637.878ZM642.459 273.244C642.459 270.184 644.479 268.024 647.399 268.024C650.099 268.024 651.939 269.524 652.199 271.904H649.759C649.479 270.784 648.659 270.204 647.499 270.204C645.939 270.204 644.899 271.384 644.899 273.244C644.899 275.104 645.859 276.264 647.419 276.264C648.639 276.264 649.499 275.664 649.759 274.584H652.219C651.919 276.884 649.999 278.464 647.419 278.464C644.419 278.464 642.459 276.384 642.459 273.244ZM655.455 266.344C654.615 266.344 653.955 265.684 653.955 264.864C653.955 264.044 654.615 263.404 655.455 263.404C656.255 263.404 656.915 264.044 656.915 264.864C656.915 265.684 656.255 266.344 655.455 266.344ZM654.235 278.204V268.324H656.675V278.204H654.235ZM658.636 275.204H660.956C660.976 276.064 661.616 276.604 662.736 276.604C663.876 276.604 664.496 276.144 664.496 275.424C664.496 274.924 664.236 274.564 663.356 274.364L661.576 273.944C659.796 273.544 658.936 272.704 658.936 271.124C658.936 269.184 660.576 268.024 662.856 268.024C665.076 268.024 666.576 269.304 666.596 271.224H664.276C664.256 270.384 663.696 269.844 662.756 269.844C661.796 269.844 661.236 270.284 661.236 271.024C661.236 271.584 661.676 271.944 662.516 272.144L664.296 272.564C665.956 272.944 666.796 273.704 666.796 275.224C666.796 277.224 665.096 278.464 662.656 278.464C660.196 278.464 658.636 277.144 658.636 275.204ZM673.274 278.464C670.334 278.464 668.274 276.324 668.274 273.264C668.274 270.164 670.294 268.024 673.194 268.024C676.154 268.024 678.034 270.004 678.034 273.084V273.824L670.594 273.844C670.774 275.584 671.694 276.464 673.314 276.464C674.654 276.464 675.534 275.944 675.814 275.004H678.074C677.654 277.164 675.854 278.464 673.274 278.464ZM673.214 270.024C671.774 270.024 670.894 270.804 670.654 272.284H675.614C675.614 270.924 674.674 270.024 673.214 270.024ZM686.386 268.284V270.544H685.486C683.726 270.544 682.626 271.484 682.626 273.404V278.204H680.186V268.344H682.486L682.626 269.784C683.046 268.804 683.986 268.144 685.306 268.144C685.646 268.144 685.986 268.184 686.386 268.284ZM687.478 275.204H689.798C689.818 276.064 690.458 276.604 691.578 276.604C692.718 276.604 693.338 276.144 693.338 275.424C693.338 274.924 693.078 274.564 692.198 274.364L690.418 273.944C688.638 273.544 687.778 272.704 687.778 271.124C687.778 269.184 689.418 268.024 691.698 268.024C693.918 268.024 695.418 269.304 695.438 271.224H693.118C693.098 270.384 692.538 269.844 691.598 269.844C690.638 269.844 690.078 270.284 690.078 271.024C690.078 271.584 690.518 271.944 691.358 272.144L693.138 272.564C694.798 272.944 695.638 273.704 695.638 275.224C695.638 277.224 693.938 278.464 691.498 278.464C689.038 278.464 687.478 277.144 687.478 275.204Z" fill="black"/>
                <path id="Polygon 66" d="M628.079 182.987L580.916 210.321M651.931 182.987L699.636 210.635M628.621 333.818L582.271 306.956M651.389 333.818L699.636 305.857M710.896 231.581V286.27M569.114 231.037V285.454" stroke="#CF782B" stroke-width="8" stroke-linecap="round"/>
            </g>
            <path id="Polygon 67" d="M626.422 162.876L566.107 197.498M656.927 162.876L717.935 197.896M627.115 353.929L567.84 319.903M656.233 353.929L717.935 318.51M551.015 223.738V292.667" stroke="#E4E3E3" stroke-width="8" stroke-linecap="round"/>
        </g>
        <g id="metals">
            <g id="group_hover_2" data-chemical-target="metals">
                <path id="hover_2" d="M813.156 172.465C816.869 170.321 821.443 170.321 825.156 172.465L888.483 209.026C892.195 211.17 894.483 215.131 894.483 219.419V292.542C894.483 296.829 892.195 300.79 888.483 302.934L825.156 339.495C821.443 341.639 816.869 341.639 813.156 339.495L749.83 302.934C746.117 300.79 743.83 296.829 743.83 292.542V219.419C743.83 215.131 746.117 211.17 749.83 209.026L813.156 172.465Z" fill="#6E009A"/>
                <path id="Polygon 70" d="M807.066 180.977L759.903 208.311M830.919 180.977L878.624 208.625M807.608 331.809L761.258 304.946M830.377 331.809L878.624 303.847M889.883 229.571V284.261M748.102 229.027V283.444" stroke="#6E009A" stroke-width="8" stroke-linecap="round"/>
                <path id="Metals" d="M792.251 265.204H789.771V250.584H792.251L796.971 262.224L801.691 250.584H804.211V265.204H801.731V260.704C801.731 257.764 801.731 256.904 801.871 255.864L798.151 265.204H795.791L792.091 255.884C792.231 256.764 792.251 258.144 792.251 259.964V265.204ZM811.706 265.464C808.766 265.464 806.706 263.324 806.706 260.264C806.706 257.164 808.726 255.024 811.626 255.024C814.586 255.024 816.466 257.004 816.466 260.084V260.824L809.026 260.844C809.206 262.584 810.126 263.464 811.746 263.464C813.086 263.464 813.966 262.944 814.246 262.004H816.506C816.086 264.164 814.286 265.464 811.706 265.464ZM811.646 257.024C810.206 257.024 809.326 257.804 809.086 259.284H814.046C814.046 257.924 813.106 257.024 811.646 257.024ZM821.881 265.204H819.441V257.364H817.541V255.324H819.441V252.244H821.881V255.324H823.801V257.364H821.881V265.204ZM828.4 265.464C826.3 265.464 825.02 264.244 825.02 262.384C825.02 260.564 826.34 259.424 828.68 259.244L831.64 259.024V258.804C831.64 257.464 830.84 256.924 829.6 256.924C828.16 256.924 827.36 257.524 827.36 258.564H825.28C825.28 256.424 827.04 255.024 829.72 255.024C832.38 255.024 834.02 256.464 834.02 259.204V265.204H831.88L831.7 263.744C831.28 264.764 829.94 265.464 828.4 265.464ZM829.2 263.624C830.7 263.624 831.66 262.724 831.66 261.204V260.684L829.6 260.844C828.08 260.984 827.5 261.484 827.5 262.284C827.5 263.184 828.1 263.624 829.2 263.624ZM839.077 265.204H836.657V250.324H839.077V265.204ZM841.076 262.204H843.396C843.416 263.064 844.056 263.604 845.176 263.604C846.316 263.604 846.936 263.144 846.936 262.424C846.936 261.924 846.676 261.564 845.796 261.364L844.016 260.944C842.236 260.544 841.376 259.704 841.376 258.124C841.376 256.184 843.016 255.024 845.296 255.024C847.516 255.024 849.016 256.304 849.036 258.224H846.716C846.696 257.384 846.136 256.844 845.196 256.844C844.236 256.844 843.676 257.284 843.676 258.024C843.676 258.584 844.116 258.944 844.956 259.144L846.736 259.564C848.396 259.944 849.236 260.704 849.236 262.224C849.236 264.224 847.536 265.464 845.096 265.464C842.636 265.464 841.076 264.144 841.076 262.204Z" fill="black"/>
            </g>
            <path id="Polygon 71" d="M806.699 159.86L746.156 194.665M837.318 159.86L898.556 195.065M807.395 351.919L747.896 317.714M836.622 351.919L898.556 316.314M913.01 221.736V291.374M731.007 221.043V290.335" stroke="#E4E3E3" stroke-width="8" stroke-linecap="round"/>
        </g>
        <g id="mercury">
            <g id="group_hover_3" data-chemical-target="mercury">
                <path id="hover_3" d="M727.156 328.465C730.869 326.321 735.443 326.321 739.156 328.465L802.483 365.026C806.195 367.17 808.483 371.131 808.483 375.419V448.542C808.483 452.829 806.195 456.79 802.483 458.934L739.156 495.495C735.443 497.639 730.869 497.639 727.156 495.495L663.83 458.934C660.117 456.79 657.83 452.829 657.83 448.542V375.419C657.83 371.131 660.117 367.17 663.83 365.026L727.156 328.465Z" fill="#E21337"/>
                <path id="Mercury" d="M698.666 419.055H696.186V404.435H698.666L703.386 416.075L708.106 404.435H710.626V419.055H708.146V414.555C708.146 411.615 708.146 410.755 708.286 409.715L704.566 419.055H702.206L698.506 409.735C698.646 410.615 698.666 411.995 698.666 413.815V419.055ZM718.122 419.315C715.182 419.315 713.122 417.175 713.122 414.115C713.122 411.015 715.142 408.875 718.042 408.875C721.002 408.875 722.882 410.855 722.882 413.935V414.675L715.442 414.695C715.622 416.435 716.542 417.315 718.162 417.315C719.502 417.315 720.382 416.795 720.662 415.855H722.922C722.502 418.015 720.702 419.315 718.122 419.315ZM718.062 410.875C716.622 410.875 715.742 411.655 715.502 413.135H720.462C720.462 411.775 719.522 410.875 718.062 410.875ZM731.235 409.135V411.395H730.335C728.575 411.395 727.475 412.335 727.475 414.255V419.055H725.035V409.195H727.335L727.475 410.635C727.895 409.655 728.835 408.995 730.155 408.995C730.495 408.995 730.835 409.035 731.235 409.135ZM732.174 414.095C732.174 411.035 734.194 408.875 737.114 408.875C739.814 408.875 741.654 410.375 741.914 412.755H739.474C739.194 411.635 738.374 411.055 737.214 411.055C735.654 411.055 734.614 412.235 734.614 414.095C734.614 415.955 735.574 417.115 737.134 417.115C738.354 417.115 739.214 416.515 739.474 415.435H741.934C741.634 417.735 739.714 419.315 737.134 419.315C734.134 419.315 732.174 417.235 732.174 414.095ZM750.651 409.175H753.091V419.055H750.831L750.651 417.735C750.051 418.675 748.771 419.315 747.451 419.315C745.171 419.315 743.831 417.775 743.831 415.355V409.175H746.271V414.495C746.271 416.375 747.011 417.135 748.371 417.135C749.911 417.135 750.651 416.235 750.651 414.355V409.175ZM762.011 409.135V411.395H761.111C759.351 411.395 758.251 412.335 758.251 414.255V419.055H755.811V409.195H758.111L758.251 410.635C758.671 409.655 759.611 408.995 760.931 408.995C761.271 408.995 761.611 409.035 762.011 409.135ZM763.295 423.635V421.595H764.755C765.715 421.595 766.315 421.375 766.735 420.215L767.015 419.475L763.035 409.175H765.615L768.155 416.375L770.835 409.175H773.355L768.515 421.255C767.775 423.095 766.735 423.855 765.115 423.855C764.435 423.855 763.835 423.775 763.295 423.635Z" fill="black"/>
                <path id="Polygon 58" d="M720.589 336.835L673.425 364.168M744.441 336.835L792.146 364.482M721.13 487.666L674.781 460.804M743.899 487.666L792.146 459.704M803.406 385.428V440.118M661.624 384.884V439.302" stroke="#E21337" stroke-width="8" stroke-linecap="round"/>
            </g>
            <path id="Polygon 61" d="M718.798 316.723L658.59 351.346M749.248 316.723L810.148 351.744M719.49 507.776L660.32 473.751M748.556 507.776L810.148 472.358M824.522 378.276V447.549M643.524 377.586V446.515" stroke="#E4E3E3" stroke-width="8" stroke-linecap="round"/>
        </g>
        <g id="endocrine_disruptors">
            <g id="group_hover" data-chemical-target="endocrine_disruptors">
                <path id="hover_4" d="M181.156 336.465C184.869 334.321 189.443 334.321 193.156 336.465L256.483 373.026C260.195 375.17 262.483 379.131 262.483 383.419V456.542C262.483 460.829 260.195 464.79 256.483 466.934L193.156 503.495C189.443 505.639 184.869 505.639 181.156 503.495L117.83 466.934C114.117 464.79 111.83 460.829 111.83 456.542V383.419C111.83 379.131 114.117 375.17 117.83 373.026L181.156 336.465Z" fill="#1B90B1"/>
                <path id="Endocrine disruptors" d="M150.992 413.085H141.912V398.465H150.992V400.825H144.472V404.585H150.312V406.845H144.472V410.725H150.992V413.085ZM156.047 413.085H153.607V403.205H155.868L156.067 404.485C156.688 403.485 157.888 402.905 159.228 402.905C161.708 402.905 162.987 404.445 162.987 407.005V413.085H160.548V407.585C160.548 405.925 159.728 405.125 158.468 405.125C156.967 405.125 156.047 406.165 156.047 407.765V413.085ZM169.645 413.345C166.785 413.345 165.005 411.245 165.005 408.185C165.005 405.105 166.805 402.905 169.785 402.905C171.165 402.905 172.385 403.485 173.005 404.465V398.205H175.425V413.085H173.185L173.025 411.545C172.425 412.685 171.145 413.345 169.645 413.345ZM170.185 411.105C171.885 411.105 172.985 409.885 172.985 408.105C172.985 406.325 171.885 405.085 170.185 405.085C168.485 405.085 167.445 406.345 167.445 408.105C167.445 409.865 168.485 411.105 170.185 411.105ZM177.588 408.125C177.588 405.045 179.808 402.925 182.868 402.925C185.928 402.925 188.148 405.045 188.148 408.125C188.148 411.205 185.928 413.325 182.868 413.325C179.808 413.325 177.588 411.205 177.588 408.125ZM180.028 408.125C180.028 409.925 181.188 411.145 182.868 411.145C184.548 411.145 185.708 409.925 185.708 408.125C185.708 406.325 184.548 405.105 182.868 405.105C181.188 405.105 180.028 406.325 180.028 408.125ZM189.702 408.125C189.702 405.065 191.722 402.905 194.642 402.905C197.342 402.905 199.182 404.405 199.442 406.785H197.002C196.722 405.665 195.902 405.085 194.742 405.085C193.182 405.085 192.142 406.265 192.142 408.125C192.142 409.985 193.102 411.145 194.662 411.145C195.882 411.145 196.742 410.545 197.002 409.465H199.462C199.162 411.765 197.242 413.345 194.662 413.345C191.662 413.345 189.702 411.265 189.702 408.125ZM207.678 403.165V405.425H206.778C205.018 405.425 203.918 406.365 203.918 408.285V413.085H201.478V403.225H203.778L203.918 404.665C204.338 403.685 205.278 403.025 206.598 403.025C206.938 403.025 207.278 403.065 207.678 403.165ZM210.749 401.225C209.909 401.225 209.249 400.565 209.249 399.745C209.249 398.925 209.909 398.285 210.749 398.285C211.549 398.285 212.209 398.925 212.209 399.745C212.209 400.565 211.549 401.225 210.749 401.225ZM209.529 413.085V403.205H211.969V413.085H209.529ZM217.13 413.085H214.69V403.205H216.95L217.15 404.485C217.77 403.485 218.97 402.905 220.31 402.905C222.79 402.905 224.07 404.445 224.07 407.005V413.085H221.63V407.585C221.63 405.925 220.81 405.125 219.55 405.125C218.05 405.125 217.13 406.165 217.13 407.765V413.085ZM231.088 413.345C228.148 413.345 226.088 411.205 226.088 408.145C226.088 405.045 228.108 402.905 231.008 402.905C233.968 402.905 235.848 404.885 235.848 407.965V408.705L228.408 408.725C228.588 410.465 229.508 411.345 231.128 411.345C232.468 411.345 233.348 410.825 233.628 409.885H235.888C235.468 412.045 233.668 413.345 231.088 413.345ZM231.028 404.905C229.588 404.905 228.708 405.685 228.468 407.165H233.428C233.428 405.805 232.488 404.905 231.028 404.905ZM145.876 439.345C143.016 439.345 141.236 437.245 141.236 434.185C141.236 431.105 143.036 428.905 146.016 428.905C147.396 428.905 148.616 429.485 149.236 430.465V424.205H151.656V439.085H149.416L149.256 437.545C148.656 438.685 147.376 439.345 145.876 439.345ZM146.416 437.105C148.116 437.105 149.216 435.885 149.216 434.105C149.216 432.325 148.116 431.085 146.416 431.085C144.716 431.085 143.676 432.345 143.676 434.105C143.676 435.865 144.716 437.105 146.416 437.105ZM155.619 427.225C154.779 427.225 154.119 426.565 154.119 425.745C154.119 424.925 154.779 424.285 155.619 424.285C156.419 424.285 157.079 424.925 157.079 425.745C157.079 426.565 156.419 427.225 155.619 427.225ZM154.399 439.085V429.205H156.839V439.085H154.399ZM158.799 436.085H161.119C161.139 436.945 161.779 437.485 162.899 437.485C164.039 437.485 164.659 437.025 164.659 436.305C164.659 435.805 164.399 435.445 163.519 435.245L161.739 434.825C159.959 434.425 159.099 433.585 159.099 432.005C159.099 430.065 160.739 428.905 163.019 428.905C165.239 428.905 166.739 430.185 166.759 432.105H164.439C164.419 431.265 163.859 430.725 162.919 430.725C161.959 430.725 161.399 431.165 161.399 431.905C161.399 432.465 161.839 432.825 162.679 433.025L164.459 433.445C166.119 433.825 166.959 434.585 166.959 436.105C166.959 438.105 165.259 439.345 162.819 439.345C160.359 439.345 158.799 438.025 158.799 436.085ZM175.217 429.165V431.425H174.317C172.557 431.425 171.457 432.365 171.457 434.285V439.085H169.017V429.225H171.317L171.457 430.665C171.877 429.685 172.817 429.025 174.137 429.025C174.477 429.025 174.817 429.065 175.217 429.165ZM183.769 429.205H186.209V439.085H183.949L183.769 437.765C183.169 438.705 181.889 439.345 180.569 439.345C178.289 439.345 176.949 437.805 176.949 435.385V429.205H179.389V434.525C179.389 436.405 180.129 437.165 181.489 437.165C183.029 437.165 183.769 436.265 183.769 434.385V429.205ZM188.929 443.665V429.205H191.189L191.349 430.705C191.949 429.565 193.249 428.905 194.749 428.905C197.529 428.905 199.369 430.925 199.369 434.025C199.369 437.105 197.689 439.345 194.749 439.345C193.269 439.345 191.989 438.765 191.369 437.765V443.665H188.929ZM191.389 434.145C191.389 435.925 192.489 437.145 194.169 437.145C195.889 437.145 196.909 435.905 196.909 434.145C196.909 432.385 195.889 431.125 194.169 431.125C192.489 431.125 191.389 432.365 191.389 434.145ZM204.774 439.085H202.334V431.245H200.434V429.205H202.334V426.125H204.774V429.205H206.694V431.245H204.774V439.085ZM207.733 434.125C207.733 431.045 209.953 428.925 213.013 428.925C216.073 428.925 218.293 431.045 218.293 434.125C218.293 437.205 216.073 439.325 213.013 439.325C209.953 439.325 207.733 437.205 207.733 434.125ZM210.173 434.125C210.173 435.925 211.333 437.145 213.013 437.145C214.693 437.145 215.853 435.925 215.853 434.125C215.853 432.325 214.693 431.105 213.013 431.105C211.333 431.105 210.173 432.325 210.173 434.125ZM226.627 429.165V431.425H225.727C223.967 431.425 222.867 432.365 222.867 434.285V439.085H220.427V429.225H222.727L222.867 430.665C223.287 429.685 224.227 429.025 225.547 429.025C225.887 429.025 226.227 429.065 226.627 429.165ZM227.719 436.085H230.039C230.059 436.945 230.699 437.485 231.819 437.485C232.959 437.485 233.579 437.025 233.579 436.305C233.579 435.805 233.319 435.445 232.439 435.245L230.659 434.825C228.879 434.425 228.019 433.585 228.019 432.005C228.019 430.065 229.659 428.905 231.939 428.905C234.159 428.905 235.659 430.185 235.679 432.105H233.359C233.339 431.265 232.779 430.725 231.839 430.725C230.879 430.725 230.319 431.165 230.319 431.905C230.319 432.465 230.759 432.825 231.599 433.025L233.379 433.445C235.039 433.825 235.879 434.585 235.879 436.105C235.879 438.105 234.179 439.345 231.739 439.345C229.279 439.345 227.719 438.025 227.719 436.085Z" fill="black"/>
                <path id="Polygon 51" d="M174.748 344.879L128.254 372.213M198.262 344.879L245.291 372.527M175.282 495.711L129.59 468.848M197.728 495.711L245.291 467.749M256.391 393.473V448.163M116.62 392.929V447.347" stroke="#1B90B1" stroke-width="8" stroke-linecap="round"/>
            </g>
            <path id="Polygon 27" d="M173.207 321.753L112.664 356.74M203.826 321.753L265.064 357.142M173.902 514.817L114.404 480.433M203.13 514.817L265.064 479.026M279.518 383.953V453.956M97.5146 383.256V452.911" stroke="#E4E3E3" stroke-width="8" stroke-linecap="round"/>
        </g>
        <g id="microplastics">
            <g id="group_hover_4" data-chemical-target="microplastics">
                <path id="hover_5" d="M904.156 331.465C907.869 329.321 912.443 329.321 916.156 331.465L979.483 368.026C983.195 370.17 985.483 374.131 985.483 378.419V451.542C985.483 455.829 983.195 459.79 979.483 461.934L916.156 498.495C912.443 500.639 907.869 500.639 904.156 498.495L840.83 461.934C837.117 459.79 834.83 455.829 834.83 451.542V378.419C834.83 374.131 837.117 370.17 840.83 368.026L904.156 331.465Z" fill="#7DABE2"/>
                <path id="Microplastics" d="M851.695 418.024H849.215V403.404H851.695L856.415 415.044L861.135 403.404H863.655V418.024H861.175V413.524C861.175 410.584 861.175 409.724 861.315 408.684L857.595 418.024H855.235L851.535 408.704C851.675 409.584 851.695 410.964 851.695 412.784V418.024ZM867.951 406.164C867.111 406.164 866.451 405.504 866.451 404.684C866.451 403.864 867.111 403.224 867.951 403.224C868.751 403.224 869.411 403.864 869.411 404.684C869.411 405.504 868.751 406.164 867.951 406.164ZM866.731 418.024V408.144H869.171V418.024H866.731ZM871.312 413.064C871.312 410.004 873.332 407.844 876.252 407.844C878.952 407.844 880.792 409.344 881.052 411.724H878.612C878.332 410.604 877.512 410.024 876.352 410.024C874.792 410.024 873.752 411.204 873.752 413.064C873.752 414.924 874.712 416.084 876.272 416.084C877.492 416.084 878.352 415.484 878.612 414.404H881.072C880.772 416.704 878.852 418.284 876.272 418.284C873.272 418.284 871.312 416.204 871.312 413.064ZM889.288 408.104V410.364H888.388C886.628 410.364 885.528 411.304 885.528 413.224V418.024H883.088V408.164H885.388L885.528 409.604C885.948 408.624 886.888 407.964 888.208 407.964C888.548 407.964 888.888 408.004 889.288 408.104ZM890.228 413.064C890.228 409.984 892.448 407.864 895.508 407.864C898.568 407.864 900.788 409.984 900.788 413.064C900.788 416.144 898.568 418.264 895.508 418.264C892.448 418.264 890.228 416.144 890.228 413.064ZM892.668 413.064C892.668 414.864 893.828 416.084 895.508 416.084C897.188 416.084 898.348 414.864 898.348 413.064C898.348 411.264 897.188 410.044 895.508 410.044C893.828 410.044 892.668 411.264 892.668 413.064ZM902.922 422.604V408.144H905.182L905.342 409.644C905.942 408.504 907.242 407.844 908.742 407.844C911.522 407.844 913.362 409.864 913.362 412.964C913.362 416.044 911.682 418.284 908.742 418.284C907.262 418.284 905.982 417.704 905.362 416.704V422.604H902.922ZM905.382 413.084C905.382 414.864 906.482 416.084 908.162 416.084C909.882 416.084 910.902 414.844 910.902 413.084C910.902 411.324 909.882 410.064 908.162 410.064C906.482 410.064 905.382 411.304 905.382 413.084ZM917.965 418.024H915.545V403.144H917.965V418.024ZM923.664 418.284C921.564 418.284 920.284 417.064 920.284 415.204C920.284 413.384 921.604 412.244 923.944 412.064L926.904 411.844V411.624C926.904 410.284 926.104 409.744 924.864 409.744C923.424 409.744 922.624 410.344 922.624 411.384H920.544C920.544 409.244 922.304 407.844 924.984 407.844C927.644 407.844 929.284 409.284 929.284 412.024V418.024H927.144L926.964 416.564C926.544 417.584 925.204 418.284 923.664 418.284ZM924.464 416.444C925.964 416.444 926.924 415.544 926.924 414.024V413.504L924.864 413.664C923.344 413.804 922.764 414.304 922.764 415.104C922.764 416.004 923.364 416.444 924.464 416.444ZM931.121 415.024H933.441C933.461 415.884 934.101 416.424 935.221 416.424C936.361 416.424 936.981 415.964 936.981 415.244C936.981 414.744 936.721 414.384 935.841 414.184L934.061 413.764C932.281 413.364 931.421 412.524 931.421 410.944C931.421 409.004 933.061 407.844 935.341 407.844C937.561 407.844 939.061 409.124 939.081 411.044H936.761C936.741 410.204 936.181 409.664 935.241 409.664C934.281 409.664 933.721 410.104 933.721 410.844C933.721 411.404 934.161 411.764 935.001 411.964L936.781 412.384C938.441 412.764 939.281 413.524 939.281 415.044C939.281 417.044 937.581 418.284 935.141 418.284C932.681 418.284 931.121 416.964 931.121 415.024ZM944.699 418.024H942.259V410.184H940.359V408.144H942.259V405.064H944.699V408.144H946.619V410.184H944.699V418.024ZM949.556 406.164C948.716 406.164 948.056 405.504 948.056 404.684C948.056 403.864 948.716 403.224 949.556 403.224C950.356 403.224 951.016 403.864 951.016 404.684C951.016 405.504 950.356 406.164 949.556 406.164ZM948.336 418.024V408.144H950.776V418.024H948.336ZM952.917 413.064C952.917 410.004 954.937 407.844 957.857 407.844C960.557 407.844 962.397 409.344 962.657 411.724H960.217C959.937 410.604 959.117 410.024 957.957 410.024C956.397 410.024 955.357 411.204 955.357 413.064C955.357 414.924 956.317 416.084 957.877 416.084C959.097 416.084 959.957 415.484 960.217 414.404H962.677C962.377 416.704 960.457 418.284 957.877 418.284C954.877 418.284 952.917 416.204 952.917 413.064ZM963.933 415.024H966.253C966.273 415.884 966.913 416.424 968.033 416.424C969.173 416.424 969.793 415.964 969.793 415.244C969.793 414.744 969.533 414.384 968.653 414.184L966.873 413.764C965.093 413.364 964.233 412.524 964.233 410.944C964.233 409.004 965.873 407.844 968.153 407.844C970.373 407.844 971.873 409.124 971.893 411.044H969.573C969.553 410.204 968.993 409.664 968.053 409.664C967.093 409.664 966.533 410.104 966.533 410.844C966.533 411.404 966.973 411.764 967.813 411.964L969.593 412.384C971.253 412.764 972.093 413.524 972.093 415.044C972.093 417.044 970.393 418.284 967.953 418.284C965.493 418.284 963.933 416.964 963.933 415.024Z" fill="black"/>
                <path id="Polygon 54" d="M897.734 339.852L851.239 367.186M921.248 339.852L968.276 367.5M898.268 490.684L852.575 463.821M920.714 490.684L968.276 462.722M979.376 388.446V443.136M839.605 387.902V442.319" stroke="#7DABE2" stroke-width="8" stroke-linecap="round"/>
            </g>
            <path id="Polygon 26" d="M895.774 319.741L835.566 354.364M926.224 319.741L987.124 354.761M896.466 510.794L837.296 476.768M925.532 510.794L987.124 475.376M1001.5 381.293V450.567M820.5 380.604V449.533" stroke="#E4E3E3" stroke-width="8" stroke-linecap="round"/>
        </g>
        <g id="pfass">
            <g id="group_hover_5" data-chemical-target="pfass">
                <path id="hover_6" d="M997.156 176.465C1000.87 174.321 1005.44 174.321 1009.16 176.465L1072.48 213.026C1076.2 215.17 1078.48 219.131 1078.48 223.419V296.542C1078.48 300.829 1076.2 304.79 1072.48 306.934L1009.16 343.495C1005.44 345.639 1000.87 345.639 997.156 343.495L933.83 306.934C930.117 304.79 927.83 300.829 927.83 296.542V223.419C927.83 219.131 930.117 215.17 933.83 213.026L997.156 176.465Z" fill="#E45C4D"/>
                <path id="PFASs" d="M982.047 263.158H978.827V268.198H976.267V253.578H982.047C984.987 253.578 986.887 255.498 986.887 258.358C986.887 261.178 984.967 263.158 982.047 263.158ZM981.547 255.858H978.827V260.878H981.507C983.267 260.878 984.207 259.938 984.207 258.338C984.207 256.738 983.247 255.858 981.547 255.858ZM997.24 262.218H991.8V268.198H989.24V253.578H998.28V255.938H991.8V259.918H997.24V262.218ZM1001.15 268.198H998.489L1003.77 253.578H1006.39L1011.67 268.198H1008.97L1007.79 264.818H1002.33L1001.15 268.198ZM1004.75 257.938L1003.09 262.658H1007.05L1005.37 257.938C1005.25 257.558 1005.11 257.118 1005.07 256.818C1005.01 257.098 1004.89 257.538 1004.75 257.938ZM1012.86 257.658C1012.86 255.098 1014.98 253.318 1018.06 253.318C1021.02 253.318 1022.9 254.958 1022.98 257.598H1020.42C1020.36 256.338 1019.46 255.598 1018.02 255.598C1016.44 255.598 1015.42 256.358 1015.42 257.578C1015.42 258.618 1015.98 259.198 1017.2 259.478L1019.5 259.978C1022 260.518 1023.22 261.798 1023.22 263.978C1023.22 266.698 1021.1 268.458 1017.88 268.458C1014.76 268.458 1012.72 266.798 1012.66 264.178H1015.22C1015.24 265.418 1016.24 266.158 1017.88 266.158C1019.58 266.158 1020.66 265.418 1020.66 264.198C1020.66 263.218 1020.16 262.638 1018.96 262.378L1016.64 261.858C1014.16 261.318 1012.86 259.898 1012.86 257.658ZM1024.62 265.198H1026.94C1026.96 266.058 1027.6 266.598 1028.72 266.598C1029.86 266.598 1030.48 266.138 1030.48 265.418C1030.48 264.918 1030.22 264.558 1029.34 264.358L1027.56 263.938C1025.78 263.538 1024.92 262.698 1024.92 261.118C1024.92 259.178 1026.56 258.018 1028.84 258.018C1031.06 258.018 1032.56 259.298 1032.58 261.218H1030.26C1030.24 260.378 1029.68 259.838 1028.74 259.838C1027.78 259.838 1027.22 260.278 1027.22 261.018C1027.22 261.578 1027.66 261.938 1028.5 262.138L1030.28 262.558C1031.94 262.938 1032.78 263.698 1032.78 265.218C1032.78 267.218 1031.08 268.458 1028.64 268.458C1026.18 268.458 1024.62 267.138 1024.62 265.198Z" fill="black"/>
                <path id="Polygon 78" d="M991.546 185.118L944.718 212.452M1015.23 185.118L1062.6 212.766M992.084 335.949L946.063 309.087M1014.69 335.949L1062.6 307.987M1073.78 233.712V288.401M933 233.167V287.585" stroke="#E45C4D" stroke-width="8" stroke-linecap="round"/>
            </g>
            <path id="Polygon 32" d="M987.279 162.876L927.07 197.498M1017.73 162.876L1078.63 197.896M987.971 353.929L928.801 319.903M1017.04 353.929L1078.63 318.51M1093 224.428V293.701M912.005 223.738V292.667" stroke="#E4E3E3" stroke-width="8" stroke-linecap="round"/>
        </g>
        <g id="arsenic">
            <g id="group_hover_6" data-chemical-target="arsenic">
                <path id="hover_7" d="M1177.16 176.465C1180.87 174.321 1185.44 174.321 1189.16 176.465L1252.48 213.026C1256.2 215.17 1258.48 219.131 1258.48 223.419V296.542C1258.48 300.829 1256.2 304.79 1252.48 306.934L1189.16 343.495C1185.44 345.639 1180.87 345.639 1177.16 343.495L1113.83 306.934C1110.12 304.79 1107.83 300.829 1107.83 296.542V223.419C1107.83 219.131 1110.12 215.17 1113.83 213.026L1177.16 176.465Z" fill="#C064E4"/>
                <path id="Arsenic" d="M1148.98 268.333H1146.32L1151.6 253.713H1154.22L1159.5 268.333H1156.8L1155.62 264.953H1150.16L1148.98 268.333ZM1152.58 258.073L1150.92 262.793H1154.88L1153.2 258.073C1153.08 257.693 1152.94 257.253 1152.9 256.953C1152.84 257.233 1152.72 257.673 1152.58 258.073ZM1167.37 258.413V260.673H1166.47C1164.71 260.673 1163.61 261.613 1163.61 263.533V268.333H1161.17V258.473H1163.47L1163.61 259.913C1164.03 258.933 1164.97 258.273 1166.29 258.273C1166.63 258.273 1166.97 258.313 1167.37 258.413ZM1168.47 265.333H1170.79C1170.81 266.193 1171.45 266.733 1172.57 266.733C1173.71 266.733 1174.33 266.273 1174.33 265.553C1174.33 265.053 1174.07 264.693 1173.19 264.493L1171.41 264.073C1169.63 263.673 1168.77 262.833 1168.77 261.253C1168.77 259.313 1170.41 258.153 1172.69 258.153C1174.91 258.153 1176.41 259.433 1176.43 261.353H1174.11C1174.09 260.513 1173.53 259.973 1172.59 259.973C1171.63 259.973 1171.07 260.413 1171.07 261.153C1171.07 261.713 1171.51 262.073 1172.35 262.273L1174.13 262.693C1175.79 263.073 1176.63 263.833 1176.63 265.353C1176.63 267.353 1174.93 268.593 1172.49 268.593C1170.03 268.593 1168.47 267.273 1168.47 265.333ZM1183.1 268.593C1180.16 268.593 1178.1 266.453 1178.1 263.393C1178.1 260.293 1180.12 258.153 1183.02 258.153C1185.98 258.153 1187.86 260.133 1187.86 263.213V263.953L1180.42 263.973C1180.6 265.713 1181.52 266.593 1183.14 266.593C1184.48 266.593 1185.36 266.073 1185.64 265.133H1187.9C1187.48 267.293 1185.68 268.593 1183.1 268.593ZM1183.04 260.153C1181.6 260.153 1180.72 260.933 1180.48 262.413H1185.44C1185.44 261.053 1184.5 260.153 1183.04 260.153ZM1192.46 268.333H1190.02V258.453H1192.28L1192.48 259.733C1193.1 258.733 1194.3 258.153 1195.64 258.153C1198.12 258.153 1199.4 259.693 1199.4 262.253V268.333H1196.96V262.833C1196.96 261.173 1196.14 260.373 1194.88 260.373C1193.38 260.373 1192.46 261.413 1192.46 263.013V268.333ZM1203.21 256.473C1202.37 256.473 1201.71 255.813 1201.71 254.993C1201.71 254.173 1202.37 253.533 1203.21 253.533C1204.01 253.533 1204.67 254.173 1204.67 254.993C1204.67 255.813 1204.01 256.473 1203.21 256.473ZM1201.99 268.333V258.453H1204.43V268.333H1201.99ZM1206.57 263.373C1206.57 260.313 1208.59 258.153 1211.51 258.153C1214.21 258.153 1216.05 259.653 1216.31 262.033H1213.87C1213.59 260.913 1212.77 260.333 1211.61 260.333C1210.05 260.333 1209.01 261.513 1209.01 263.373C1209.01 265.233 1209.97 266.393 1211.53 266.393C1212.75 266.393 1213.61 265.793 1213.87 264.713H1216.33C1216.03 267.013 1214.11 268.593 1211.53 268.593C1208.53 268.593 1206.57 266.513 1206.57 263.373Z" fill="black"/>
                <path id="Polygon 68" d="M1171.16 185.118L1124.33 212.452M1194.85 185.118L1242.21 212.766M1171.7 335.949L1125.68 309.087M1194.31 335.949L1242.21 307.987M1253.39 233.712V288.401M1112.62 233.167V287.585" stroke="#C064E4" stroke-width="8" stroke-linecap="round"/>
            </g>
            <path id="Polygon 79" d="M1168.45 164.001L1108.24 198.623M1198.9 164.001L1259.8 199.021M1169.14 355.054L1109.97 321.028M1198.21 355.054L1259.8 319.635M1274.17 225.553V294.826M1093.18 224.863V293.792" stroke="#E4E3E3" stroke-width="8" stroke-linecap="round"/>
        </g>
        <g id="pesticides">
            <g id="group_hover_7" data-chemical-target="pesticides">
                <path id="hover_8" d="M86.1562 172.465C89.869 170.321 94.4434 170.321 98.1562 172.465L161.483 209.026C165.195 211.17 167.483 215.131 167.483 219.419V292.542C167.483 296.829 165.195 300.79 161.483 302.934L98.1562 339.495C94.4434 341.639 89.869 341.639 86.1562 339.495L22.8298 302.934C19.117 300.79 16.8298 296.829 16.8298 292.542V219.419C16.8298 215.131 19.117 211.17 22.8298 209.026L86.1562 172.465Z" fill="#5658E7"/>
                <path id="Polygon 50" d="M80.2277 180.977L33.7335 208.311M103.742 180.977L150.77 208.625M80.762 331.809L35.0696 304.946M103.208 331.809L150.77 303.847M161.87 229.571V284.261M22.0996 229.027V283.444" stroke="#5658E7" stroke-width="8" stroke-linecap="round"/>
                <path id="Pesticides" d="M54.3168 256.119H51.0968V261.159H48.5368V246.539H54.3168C57.2568 246.539 59.1568 248.459 59.1568 251.319C59.1568 254.139 57.2368 256.119 54.3168 256.119ZM53.8168 248.819H51.0968V253.839H53.7768C55.5368 253.839 56.4768 252.899 56.4768 251.299C56.4768 249.699 55.5168 248.819 53.8168 248.819ZM65.082 261.419C62.142 261.419 60.082 259.279 60.082 256.219C60.082 253.119 62.102 250.979 65.002 250.979C67.962 250.979 69.842 252.959 69.842 256.039V256.779L62.402 256.799C62.582 258.539 63.502 259.419 65.122 259.419C66.462 259.419 67.342 258.899 67.622 257.959H69.882C69.462 260.119 67.662 261.419 65.082 261.419ZM65.022 252.979C63.582 252.979 62.702 253.759 62.462 255.239H67.422C67.422 253.879 66.482 252.979 65.022 252.979ZM71.2348 258.159H73.5548C73.5748 259.019 74.2148 259.559 75.3348 259.559C76.4748 259.559 77.0948 259.099 77.0948 258.379C77.0948 257.879 76.8348 257.519 75.9548 257.319L74.1748 256.899C72.3948 256.499 71.5348 255.659 71.5348 254.079C71.5348 252.139 73.1748 250.979 75.4548 250.979C77.6748 250.979 79.1748 252.259 79.1948 254.179H76.8748C76.8548 253.339 76.2948 252.799 75.3548 252.799C74.3948 252.799 73.8348 253.239 73.8348 253.979C73.8348 254.539 74.2748 254.899 75.1148 255.099L76.8948 255.519C78.5548 255.899 79.3948 256.659 79.3948 258.179C79.3948 260.179 77.6948 261.419 75.2548 261.419C72.7948 261.419 71.2348 260.099 71.2348 258.159ZM84.8126 261.159H82.3726V253.319H80.4726V251.279H82.3726V248.199H84.8126V251.279H86.7326V253.319H84.8126V261.159ZM89.6695 249.299C88.8295 249.299 88.1695 248.639 88.1695 247.819C88.1695 246.999 88.8295 246.359 89.6695 246.359C90.4695 246.359 91.1295 246.999 91.1295 247.819C91.1295 248.639 90.4695 249.299 89.6695 249.299ZM88.4495 261.159V251.279H90.8895V261.159H88.4495ZM93.0304 256.199C93.0304 253.139 95.0504 250.979 97.9704 250.979C100.67 250.979 102.51 252.479 102.77 254.859H100.33C100.05 253.739 99.2304 253.159 98.0704 253.159C96.5104 253.159 95.4704 254.339 95.4704 256.199C95.4704 258.059 96.4304 259.219 97.9904 259.219C99.2104 259.219 100.07 258.619 100.33 257.539H102.79C102.49 259.839 100.57 261.419 97.9904 261.419C94.9904 261.419 93.0304 259.339 93.0304 256.199ZM106.026 249.299C105.186 249.299 104.526 248.639 104.526 247.819C104.526 246.999 105.186 246.359 106.026 246.359C106.826 246.359 107.486 246.999 107.486 247.819C107.486 248.639 106.826 249.299 106.026 249.299ZM104.806 261.159V251.279H107.246V261.159H104.806ZM114.027 261.419C111.167 261.419 109.387 259.319 109.387 256.259C109.387 253.179 111.187 250.979 114.167 250.979C115.547 250.979 116.767 251.559 117.387 252.539V246.279H119.807V261.159H117.567L117.407 259.619C116.807 260.759 115.527 261.419 114.027 261.419ZM114.567 259.179C116.267 259.179 117.367 257.959 117.367 256.179C117.367 254.399 116.267 253.159 114.567 253.159C112.867 253.159 111.827 254.419 111.827 256.179C111.827 257.939 112.867 259.179 114.567 259.179ZM126.97 261.419C124.03 261.419 121.97 259.279 121.97 256.219C121.97 253.119 123.99 250.979 126.89 250.979C129.85 250.979 131.73 252.959 131.73 256.039V256.779L124.29 256.799C124.47 258.539 125.39 259.419 127.01 259.419C128.35 259.419 129.23 258.899 129.51 257.959H131.77C131.35 260.119 129.55 261.419 126.97 261.419ZM126.91 252.979C125.47 252.979 124.59 253.759 124.35 255.239H129.31C129.31 253.879 128.37 252.979 126.91 252.979ZM133.123 258.159H135.443C135.463 259.019 136.103 259.559 137.223 259.559C138.363 259.559 138.983 259.099 138.983 258.379C138.983 257.879 138.723 257.519 137.843 257.319L136.063 256.899C134.283 256.499 133.423 255.659 133.423 254.079C133.423 252.139 135.063 250.979 137.343 250.979C139.563 250.979 141.063 252.259 141.083 254.179H138.763C138.743 253.339 138.183 252.799 137.243 252.799C136.283 252.799 135.723 253.239 135.723 253.979C135.723 254.539 136.163 254.899 137.003 255.099L138.783 255.519C140.443 255.899 141.283 256.659 141.283 258.179C141.283 260.179 139.583 261.419 137.143 261.419C134.683 261.419 133.123 260.099 133.123 258.159Z" fill="black"/>
            </g>
            <path id="Polygon 31" d="M79.2738 159.86L19.0655 194.483M109.724 159.86L170.624 194.881M79.9656 350.913L20.7956 316.887M109.032 350.913L170.624 315.495M184.998 221.412V290.686M4 220.723V289.652" stroke="#E4E3E3" stroke-width="8" stroke-linecap="round"/>
        </g>
        <g id="nanoplastics">
            <g id="group_hover_8" data-chemical-target="nanoplastics">
                <path id="hover_9" d="M362.156 15.4648C365.869 13.3212 370.443 13.3212 374.156 15.4648L437.483 52.0263C441.195 54.1699 443.483 58.1314 443.483 62.4186V135.542C443.483 139.829 441.195 143.79 437.483 145.934L374.156 182.495C370.443 184.639 365.869 184.639 362.156 182.495L298.83 145.934C295.117 143.79 292.83 139.829 292.83 135.542V62.4186C292.83 58.1314 295.117 54.1699 298.83 52.0263L362.156 15.4648Z" fill="#7E1A0E"/>
                <path id="Nano plastics" d="M346.701 92.3561H344.181V77.7361H346.721L353.581 88.0961V77.7361H356.101V92.3561H353.581L346.701 81.9961V92.3561ZM362.118 92.6161C360.018 92.6161 358.738 91.3961 358.738 89.5361C358.738 87.7161 360.058 86.5761 362.398 86.3961L365.358 86.1761V85.9561C365.358 84.6161 364.558 84.0761 363.318 84.0761C361.878 84.0761 361.078 84.6761 361.078 85.7161H358.998C358.998 83.5761 360.758 82.1761 363.438 82.1761C366.098 82.1761 367.738 83.6161 367.738 86.3561V92.3561H365.598L365.418 90.8961C364.998 91.9161 363.658 92.6161 362.118 92.6161ZM362.918 90.7761C364.418 90.7761 365.378 89.8761 365.378 88.3561V87.8361L363.318 87.9961C361.798 88.1361 361.218 88.6361 361.218 89.4361C361.218 90.3361 361.818 90.7761 362.918 90.7761ZM372.775 92.3561H370.335V82.4761H372.595L372.795 83.7561C373.415 82.7561 374.615 82.1761 375.955 82.1761C378.435 82.1761 379.715 83.7161 379.715 86.2761V92.3561H377.275V86.8561C377.275 85.1961 376.455 84.3961 375.195 84.3961C373.695 84.3961 372.775 85.4361 372.775 87.0361V92.3561ZM381.732 87.3961C381.732 84.3161 383.952 82.1961 387.012 82.1961C390.072 82.1961 392.292 84.3161 392.292 87.3961C392.292 90.4761 390.072 92.5961 387.012 92.5961C383.952 92.5961 381.732 90.4761 381.732 87.3961ZM384.172 87.3961C384.172 89.1961 385.332 90.4161 387.012 90.4161C388.692 90.4161 389.852 89.1961 389.852 87.3961C389.852 85.5961 388.692 84.3761 387.012 84.3761C385.332 84.3761 384.172 85.5961 384.172 87.3961ZM333.609 122.936V108.476H335.869L336.029 109.976C336.629 108.836 337.929 108.176 339.429 108.176C342.209 108.176 344.049 110.196 344.049 113.296C344.049 116.376 342.369 118.616 339.429 118.616C337.949 118.616 336.669 118.036 336.049 117.036V122.936H333.609ZM336.069 113.416C336.069 115.196 337.169 116.416 338.849 116.416C340.569 116.416 341.589 115.176 341.589 113.416C341.589 111.656 340.569 110.396 338.849 110.396C337.169 110.396 336.069 111.636 336.069 113.416ZM348.652 118.356H346.232V103.476H348.652V118.356ZM354.352 118.616C352.252 118.616 350.972 117.396 350.972 115.536C350.972 113.716 352.292 112.576 354.632 112.396L357.592 112.176V111.956C357.592 110.616 356.792 110.076 355.552 110.076C354.112 110.076 353.312 110.676 353.312 111.716H351.232C351.232 109.576 352.992 108.176 355.672 108.176C358.332 108.176 359.972 109.616 359.972 112.356V118.356H357.832L357.652 116.896C357.232 117.916 355.892 118.616 354.352 118.616ZM355.152 116.776C356.652 116.776 357.612 115.876 357.612 114.356V113.836L355.552 113.996C354.032 114.136 353.452 114.636 353.452 115.436C353.452 116.336 354.052 116.776 355.152 116.776ZM361.809 115.356H364.129C364.149 116.216 364.789 116.756 365.909 116.756C367.049 116.756 367.669 116.296 367.669 115.576C367.669 115.076 367.409 114.716 366.529 114.516L364.749 114.096C362.969 113.696 362.109 112.856 362.109 111.276C362.109 109.336 363.749 108.176 366.029 108.176C368.249 108.176 369.749 109.456 369.769 111.376H367.449C367.429 110.536 366.869 109.996 365.929 109.996C364.969 109.996 364.409 110.436 364.409 111.176C364.409 111.736 364.849 112.096 365.689 112.296L367.469 112.716C369.129 113.096 369.969 113.856 369.969 115.376C369.969 117.376 368.269 118.616 365.829 118.616C363.369 118.616 361.809 117.296 361.809 115.356ZM375.386 118.356H372.946V110.516H371.046V108.476H372.946V105.396H375.386V108.476H377.306V110.516H375.386V118.356ZM380.243 106.496C379.403 106.496 378.743 105.836 378.743 105.016C378.743 104.196 379.403 103.556 380.243 103.556C381.043 103.556 381.703 104.196 381.703 105.016C381.703 105.836 381.043 106.496 380.243 106.496ZM379.023 118.356V108.476H381.463V118.356H379.023ZM383.604 113.396C383.604 110.336 385.624 108.176 388.544 108.176C391.244 108.176 393.084 109.676 393.344 112.056H390.904C390.624 110.936 389.804 110.356 388.644 110.356C387.084 110.356 386.044 111.536 386.044 113.396C386.044 115.256 387.004 116.416 388.564 116.416C389.784 116.416 390.644 115.816 390.904 114.736H393.364C393.064 117.036 391.144 118.616 388.564 118.616C385.564 118.616 383.604 116.536 383.604 113.396ZM394.62 115.356H396.94C396.96 116.216 397.6 116.756 398.72 116.756C399.86 116.756 400.48 116.296 400.48 115.576C400.48 115.076 400.22 114.716 399.34 114.516L397.56 114.096C395.78 113.696 394.92 112.856 394.92 111.276C394.92 109.336 396.56 108.176 398.84 108.176C401.06 108.176 402.56 109.456 402.58 111.376H400.26C400.24 110.536 399.68 109.996 398.74 109.996C397.78 109.996 397.22 110.436 397.22 111.176C397.22 111.736 397.66 112.096 398.5 112.296L400.28 112.716C401.94 113.096 402.78 113.856 402.78 115.376C402.78 117.376 401.08 118.616 398.64 118.616C396.18 118.616 394.62 117.296 394.62 115.356Z" fill="black"/>
                <path id="Polygon 76" d="M357.17 24.11L310.342 51.4438M380.854 24.11L428.22 51.7578M357.708 174.941L311.687 148.079M380.316 174.941L428.22 146.98M439.4 72.7038V127.394M298.624 72.1596V126.577" stroke="#7E1A0E" stroke-width="8" stroke-linecap="round"/>
            </g>
            <path id="Polygon 77" d="M351.776 4.00067L291.567 38.8057M382.226 4.00067L443.126 39.2055M352.468 196.059L293.298 161.855M381.534 196.059L443.126 160.455M457.5 65.8767V135.515M276.502 65.1838V134.476" stroke="#E4E3E3" stroke-width="8" stroke-linecap="round"/>
        </g>
        <g id="phthalates">
            <g id="group_hover_9" data-chemical-target="phthalates">
                <path id="Polygon 72" d="M449.68 180.977L402.851 208.311M473.363 180.977L520.73 208.625M450.218 331.809L404.197 304.946M472.825 331.809L520.73 303.847M531.91 229.571V284.261M391.134 229.027V283.444" stroke="#9B9B9B" stroke-width="8" stroke-linecap="round"/>
                <path id="hover_10" d="M456.156 172.465C459.869 170.321 464.443 170.321 468.156 172.465L531.483 209.026C535.195 211.17 537.483 215.131 537.483 219.419V292.542C537.483 296.829 535.195 300.79 531.483 302.934L468.156 339.495C464.443 341.639 459.869 341.639 456.156 339.495L392.83 302.934C389.117 300.79 386.83 296.829 386.83 292.542V219.419C386.83 215.131 389.117 211.17 392.83 209.026L456.156 172.465Z" fill="#9B9B9B"/>
                <path id="Phthalates" d="M420.421 256.125H417.201V261.165H414.641V246.545H420.421C423.361 246.545 425.261 248.465 425.261 251.325C425.261 254.145 423.341 256.125 420.421 256.125ZM419.921 248.825H417.201V253.845H419.881C421.641 253.845 422.581 252.905 422.581 251.305C422.581 249.705 421.621 248.825 419.921 248.825ZM429.695 261.165H427.255V246.285H429.715V252.565C430.335 251.605 431.495 250.985 432.915 250.985C435.355 250.985 436.635 252.525 436.635 255.085V261.165H434.195V255.665C434.195 254.005 433.375 253.205 432.135 253.205C430.595 253.205 429.695 254.285 429.695 255.765V261.165ZM442.592 261.165H440.152V253.325H438.252V251.285H440.152V248.205H442.592V251.285H444.512V253.325H442.592V261.165ZM448.669 261.165H446.229V246.285H448.689V252.565C449.309 251.605 450.469 250.985 451.889 250.985C454.329 250.985 455.609 252.525 455.609 255.085V261.165H453.169V255.665C453.169 254.005 452.349 253.205 451.109 253.205C449.569 253.205 448.669 254.285 448.669 255.765V261.165ZM461.146 261.425C459.046 261.425 457.766 260.205 457.766 258.345C457.766 256.525 459.086 255.385 461.426 255.205L464.386 254.985V254.765C464.386 253.425 463.586 252.885 462.346 252.885C460.906 252.885 460.106 253.485 460.106 254.525H458.026C458.026 252.385 459.786 250.985 462.466 250.985C465.126 250.985 466.766 252.425 466.766 255.165V261.165H464.626L464.446 259.705C464.026 260.725 462.686 261.425 461.146 261.425ZM461.946 259.585C463.446 259.585 464.406 258.685 464.406 257.165V256.645L462.346 256.805C460.826 256.945 460.246 257.445 460.246 258.245C460.246 259.145 460.846 259.585 461.946 259.585ZM471.823 261.165H469.403V246.285H471.823V261.165ZM477.523 261.425C475.423 261.425 474.143 260.205 474.143 258.345C474.143 256.525 475.463 255.385 477.803 255.205L480.763 254.985V254.765C480.763 253.425 479.963 252.885 478.723 252.885C477.283 252.885 476.483 253.485 476.483 254.525H474.403C474.403 252.385 476.163 250.985 478.843 250.985C481.503 250.985 483.143 252.425 483.143 255.165V261.165H481.003L480.823 259.705C480.403 260.725 479.063 261.425 477.523 261.425ZM478.323 259.585C479.823 259.585 480.783 258.685 480.783 257.165V256.645L478.723 256.805C477.203 256.945 476.623 257.445 476.623 258.245C476.623 259.145 477.223 259.585 478.323 259.585ZM488.963 261.165H486.523V253.325H484.623V251.285H486.523V248.205H488.963V251.285H490.883V253.325H488.963V261.165ZM496.922 261.425C493.982 261.425 491.922 259.285 491.922 256.225C491.922 253.125 493.942 250.985 496.842 250.985C499.802 250.985 501.682 252.965 501.682 256.045V256.785L494.242 256.805C494.422 258.545 495.342 259.425 496.962 259.425C498.302 259.425 499.182 258.905 499.462 257.965H501.722C501.302 260.125 499.502 261.425 496.922 261.425ZM496.862 252.985C495.422 252.985 494.542 253.765 494.302 255.245H499.262C499.262 253.885 498.322 252.985 496.862 252.985ZM503.075 258.165H505.395C505.415 259.025 506.055 259.565 507.175 259.565C508.315 259.565 508.935 259.105 508.935 258.385C508.935 257.885 508.675 257.525 507.795 257.325L506.015 256.905C504.235 256.505 503.375 255.665 503.375 254.085C503.375 252.145 505.015 250.985 507.295 250.985C509.515 250.985 511.015 252.265 511.035 254.185H508.715C508.695 253.345 508.135 252.805 507.195 252.805C506.235 252.805 505.675 253.245 505.675 253.985C505.675 254.545 506.115 254.905 506.955 255.105L508.735 255.525C510.395 255.905 511.235 256.665 511.235 258.185C511.235 260.185 509.535 261.425 507.095 261.425C504.635 261.425 503.075 260.105 503.075 258.165Z" fill="black"/>
            </g>
            <path id="Polygon 73" d="M444.873 161.872L384.999 196.495M475.154 161.872L535.716 196.892M445.561 352.925L386.72 318.899M474.466 352.925L535.716 317.507M550.01 223.424V292.698M370.018 222.735V291.664" stroke="#E4E3E3" stroke-width="8" stroke-linecap="round"/>
        </g>
        <g id="bisphenols">
            <g id="group_hover_10" data-chemical-target="bisphenols">
                <path id="hover_11" d="M271.156 178.465C274.869 176.321 279.443 176.321 283.156 178.465L346.483 215.026C350.195 217.17 352.483 221.131 352.483 225.419V298.542C352.483 302.829 350.195 306.79 346.483 308.934L283.156 345.495C279.443 347.639 274.869 347.639 271.156 345.495L207.83 308.934C204.117 306.79 201.83 302.829 201.83 298.542V225.419C201.83 221.131 204.117 217.17 207.83 215.026L271.156 178.465Z" fill="#D7B040"/>
                <path id="Bisphenols" d="M228.98 272.225V257.605H234.8C237.68 257.605 239.44 259.105 239.44 261.545C239.44 263.165 238.72 264.325 237.34 264.905C238.88 265.405 239.66 266.565 239.66 268.265C239.66 270.765 237.92 272.225 234.9 272.225H228.98ZM234.58 259.865H231.54V263.845H234.64C236.04 263.845 236.82 263.105 236.82 261.805C236.82 260.545 236.02 259.865 234.58 259.865ZM234.8 266.005H231.54V269.965H234.8C236.24 269.965 237.04 269.265 237.04 267.945C237.04 266.705 236.22 266.005 234.8 266.005ZM243.067 260.365C242.227 260.365 241.567 259.705 241.567 258.885C241.567 258.065 242.227 257.425 243.067 257.425C243.867 257.425 244.527 258.065 244.527 258.885C244.527 259.705 243.867 260.365 243.067 260.365ZM241.847 272.225V262.345H244.287V272.225H241.847ZM246.248 269.225H248.568C248.588 270.085 249.228 270.625 250.348 270.625C251.488 270.625 252.108 270.165 252.108 269.445C252.108 268.945 251.848 268.585 250.968 268.385L249.188 267.965C247.408 267.565 246.548 266.725 246.548 265.145C246.548 263.205 248.188 262.045 250.468 262.045C252.688 262.045 254.188 263.325 254.208 265.245H251.888C251.868 264.405 251.308 263.865 250.368 263.865C249.408 263.865 248.848 264.305 248.848 265.045C248.848 265.605 249.288 265.965 250.128 266.165L251.908 266.585C253.568 266.965 254.408 267.725 254.408 269.245C254.408 271.245 252.708 272.485 250.268 272.485C247.808 272.485 246.248 271.165 246.248 269.225ZM256.466 276.805V262.345H258.726L258.886 263.845C259.486 262.705 260.786 262.045 262.286 262.045C265.066 262.045 266.906 264.065 266.906 267.165C266.906 270.245 265.226 272.485 262.286 272.485C260.806 272.485 259.526 271.905 258.906 270.905V276.805H256.466ZM258.926 267.285C258.926 269.065 260.026 270.285 261.706 270.285C263.426 270.285 264.446 269.045 264.446 267.285C264.446 265.525 263.426 264.265 261.706 264.265C260.026 264.265 258.926 265.505 258.926 267.285ZM271.488 272.225H269.048V257.345H271.508V263.625C272.128 262.665 273.288 262.045 274.708 262.045C277.148 262.045 278.428 263.585 278.428 266.145V272.225H275.988V266.725C275.988 265.065 275.168 264.265 273.928 264.265C272.388 264.265 271.488 265.345 271.488 266.825V272.225ZM285.446 272.485C282.506 272.485 280.446 270.345 280.446 267.285C280.446 264.185 282.466 262.045 285.366 262.045C288.326 262.045 290.206 264.025 290.206 267.105V267.845L282.766 267.865C282.946 269.605 283.866 270.485 285.486 270.485C286.826 270.485 287.706 269.965 287.986 269.025H290.246C289.826 271.185 288.026 272.485 285.446 272.485ZM285.386 264.045C283.946 264.045 283.066 264.825 282.826 266.305H287.786C287.786 264.945 286.846 264.045 285.386 264.045ZM294.799 272.225H292.359V262.345H294.619L294.819 263.625C295.439 262.625 296.639 262.045 297.979 262.045C300.459 262.045 301.739 263.585 301.739 266.145V272.225H299.299V266.725C299.299 265.065 298.479 264.265 297.219 264.265C295.719 264.265 294.799 265.305 294.799 266.905V272.225ZM303.756 267.265C303.756 264.185 305.976 262.065 309.036 262.065C312.096 262.065 314.316 264.185 314.316 267.265C314.316 270.345 312.096 272.465 309.036 272.465C305.976 272.465 303.756 270.345 303.756 267.265ZM306.196 267.265C306.196 269.065 307.356 270.285 309.036 270.285C310.716 270.285 311.876 269.065 311.876 267.265C311.876 265.465 310.716 264.245 309.036 264.245C307.356 264.245 306.196 265.465 306.196 267.265ZM318.91 272.225H316.49V257.345H318.91V272.225ZM320.91 269.225H323.23C323.25 270.085 323.89 270.625 325.01 270.625C326.15 270.625 326.77 270.165 326.77 269.445C326.77 268.945 326.51 268.585 325.63 268.385L323.85 267.965C322.07 267.565 321.21 266.725 321.21 265.145C321.21 263.205 322.85 262.045 325.13 262.045C327.35 262.045 328.85 263.325 328.87 265.245H326.55C326.53 264.405 325.97 263.865 325.03 263.865C324.07 263.865 323.51 264.305 323.51 265.045C323.51 265.605 323.95 265.965 324.79 266.165L326.57 266.585C328.23 266.965 329.07 267.725 329.07 269.245C329.07 271.245 327.37 272.485 324.93 272.485C322.47 272.485 320.91 271.165 320.91 269.225Z" fill="black"/>
                <path id="Polygon 53" d="M265.079 186.005L217.916 213.338M288.931 186.005L336.636 213.652M265.621 336.836L219.271 309.974M288.389 336.836L336.636 308.874M347.896 234.598V289.288M206.114 234.054V288.472" stroke="#D7B040" stroke-width="8" stroke-linecap="round"/>
            </g>
            <path id="Polygon 5" d="M263.288 164.887L203.08 199.692M293.739 164.887L354.638 200.092M263.98 356.946L204.81 322.741M293.047 356.946L354.638 321.341M369.012 226.763V296.402M188.015 226.071V295.362" stroke="#E4E3E3" stroke-width="8" stroke-linecap="round"/>
        </g>
    </g>
</svg>
