<svg class="chemicals-svg" xmlns="http://www.w3.org/2000/svg" width="404" height="491" viewBox="0 0 404 491" fill="none">
    <g id="mobile">
      <g id="pesticides">
        <g id="group_hover" data-chemical-target="pesticides">
          <path id="hover" d="M65.3786 15.3453C69.0914 13.2013 73.6658 13.2013 77.3786 15.3453L119.505 39.6663C123.218 41.8103 125.505 45.7723 125.505 50.0593V98.7023C125.505 102.989 123.218 106.951 119.505 109.095L77.3786 133.416C73.6658 135.56 69.0914 135.56 65.3786 133.416L23.252 109.095C19.5392 106.951 17.252 102.989 17.252 98.7023V50.0593C17.252 45.7723 19.5392 41.8103 23.252 39.6663L65.3786 15.3453Z" fill="#4446ce"/>
          <path id="Pesticides" d="M41.9093 74.8138H39.6553V78.3418H37.8633V68.1078H41.9093C43.9673 68.1078 45.2973 69.4518 45.2973 71.4538C45.2973 73.4278 43.9533 74.8138 41.9093 74.8138ZM41.5593 69.7038H39.6553V73.2178H41.5313C42.7633 73.2178 43.4213 72.5598 43.4213 71.4398C43.4213 70.3198 42.7493 69.7038 41.5593 69.7038ZM49.4449 78.5238C47.3869 78.5238 45.9449 77.0258 45.9449 74.8838C45.9449 72.7138 47.3589 71.2158 49.3889 71.2158C51.4609 71.2158 52.7769 72.6018 52.7769 74.7578V75.2758L47.5689 75.2898C47.6949 76.5078 48.3389 77.1238 49.4729 77.1238C50.4109 77.1238 51.0269 76.7598 51.2229 76.1018H52.8049C52.5109 77.6138 51.2509 78.5238 49.4449 78.5238ZM49.4029 72.6158C48.3949 72.6158 47.7789 73.1618 47.6109 74.1978H51.0829C51.0829 73.2458 50.4249 72.6158 49.4029 72.6158ZM53.7519 76.2418H55.3759C55.3899 76.8438 55.8379 77.2218 56.6219 77.2218C57.4199 77.2218 57.8539 76.8998 57.8539 76.3958C57.8539 76.0458 57.6719 75.7938 57.0559 75.6538L55.8099 75.3598C54.5639 75.0798 53.9619 74.4918 53.9619 73.3858C53.9619 72.0278 55.1099 71.2158 56.7059 71.2158C58.2599 71.2158 59.3099 72.1118 59.3239 73.4558H57.6999C57.6859 72.8678 57.2939 72.4898 56.6359 72.4898C55.9639 72.4898 55.5719 72.7978 55.5719 73.3158C55.5719 73.7078 55.8799 73.9598 56.4679 74.0998L57.7139 74.3938C58.8759 74.6598 59.4639 75.1918 59.4639 76.2558C59.4639 77.6558 58.2739 78.5238 56.5659 78.5238C54.8439 78.5238 53.7519 77.5998 53.7519 76.2418ZM63.2564 78.3418H61.5484V72.8538H60.2184V71.4258H61.5484V69.2698H63.2564V71.4258H64.6004V72.8538H63.2564V78.3418ZM66.6562 70.0398C66.0682 70.0398 65.6062 69.5778 65.6062 69.0038C65.6062 68.4298 66.0682 67.9818 66.6562 67.9818C67.2162 67.9818 67.6782 68.4298 67.6782 69.0038C67.6782 69.5778 67.2162 70.0398 66.6562 70.0398ZM65.8022 78.3418V71.4258H67.5102V78.3418H65.8022ZM69.0088 74.8698C69.0088 72.7278 70.4228 71.2158 72.4668 71.2158C74.3568 71.2158 75.6448 72.2658 75.8268 73.9318H74.1188C73.9228 73.1478 73.3488 72.7418 72.5368 72.7418C71.4448 72.7418 70.7168 73.5678 70.7168 74.8698C70.7168 76.1718 71.3888 76.9838 72.4808 76.9838C73.3348 76.9838 73.9368 76.5638 74.1188 75.8078H75.8408C75.6308 77.4178 74.2868 78.5238 72.4808 78.5238C70.3808 78.5238 69.0088 77.0678 69.0088 74.8698ZM78.1061 70.0398C77.5181 70.0398 77.0561 69.5778 77.0561 69.0038C77.0561 68.4298 77.5181 67.9818 78.1061 67.9818C78.6661 67.9818 79.1281 68.4298 79.1281 69.0038C79.1281 69.5778 78.6661 70.0398 78.1061 70.0398ZM77.2521 78.3418V71.4258H78.9601V78.3418H77.2521ZM83.7068 78.5238C81.7048 78.5238 80.4588 77.0538 80.4588 74.9118C80.4588 72.7558 81.7188 71.2158 83.8048 71.2158C84.7708 71.2158 85.6248 71.6218 86.0588 72.3078V67.9258H87.7528V78.3418H86.1848L86.0728 77.2638C85.6528 78.0618 84.7568 78.5238 83.7068 78.5238ZM84.0848 76.9558C85.2748 76.9558 86.0448 76.1018 86.0448 74.8558C86.0448 73.6098 85.2748 72.7418 84.0848 72.7418C82.8948 72.7418 82.1668 73.6238 82.1668 74.8558C82.1668 76.0878 82.8948 76.9558 84.0848 76.9558ZM92.7667 78.5238C90.7087 78.5238 89.2667 77.0258 89.2667 74.8838C89.2667 72.7138 90.6807 71.2158 92.7107 71.2158C94.7827 71.2158 96.0987 72.6018 96.0987 74.7578V75.2758L90.8907 75.2898C91.0167 76.5078 91.6607 77.1238 92.7947 77.1238C93.7327 77.1238 94.3487 76.7598 94.5447 76.1018H96.1267C95.8327 77.6138 94.5727 78.5238 92.7667 78.5238ZM92.7247 72.6158C91.7167 72.6158 91.1007 73.1618 90.9327 74.1978H94.4047C94.4047 73.2458 93.7467 72.6158 92.7247 72.6158ZM97.0737 76.2418H98.6977C98.7117 76.8438 99.1597 77.2218 99.9437 77.2218C100.742 77.2218 101.176 76.8998 101.176 76.3958C101.176 76.0458 100.994 75.7938 100.378 75.6538L99.1317 75.3598C97.8857 75.0798 97.2837 74.4918 97.2837 73.3858C97.2837 72.0278 98.4317 71.2158 100.028 71.2158C101.582 71.2158 102.632 72.1118 102.646 73.4558H101.022C101.008 72.8678 100.616 72.4898 99.9577 72.4898C99.2857 72.4898 98.8937 72.7978 98.8937 73.3158C98.8937 73.7078 99.2017 73.9598 99.7897 74.0998L101.036 74.3938C102.198 74.6598 102.786 75.1918 102.786 76.2558C102.786 77.6558 101.596 78.5238 99.8877 78.5238C98.1657 78.5238 97.0737 77.5998 97.0737 76.2418Z" fill="black"/>
          <path id="Polygon 106" d="M63.0631 19.8613L29.5873 39.5413M79.9934 19.8613L113.854 39.7673M63.4478 128.46L30.5493 109.119M79.6087 128.46L113.854 108.327M121.846 54.8483V94.2253M21.2109 54.4573V93.6373" stroke="#4446ce" stroke-width="5.76" stroke-linecap="round"/>
        </g>
        <path id="Polygon 109" d="M59.076 5.34961L15.7261 30.2786M81.0001 5.34961L124.848 30.5646M59.5741 142.908L16.9717 118.41M80.5019 142.908L124.848 117.407M135.197 49.6676V99.5446M4.87891 49.1706V98.7996" stroke="#E4E3E3" stroke-width="5.76" stroke-linecap="round"/>
      </g>
      <g id="nanoplastics">
        <g id="group_hover_2" data-chemical-target="nanoplastics">
          <path id="hover_2" d="M131.379 129.345C135.092 127.201 139.666 127.201 143.379 129.345L185.505 153.666C189.218 155.81 191.505 159.772 191.505 164.059V212.702C191.505 216.989 189.218 220.951 185.505 223.095L143.379 247.416C139.666 249.56 135.092 249.56 131.379 247.416L89.252 223.095C85.5392 220.951 83.252 216.989 83.252 212.702V164.059C83.252 159.772 85.5392 155.81 89.252 153.666L131.379 129.345Z" fill="#7E1A0E"/>
          <path xmlns="http://www.w3.org/2000/svg" id="Nano plastics" d="M101.954 186.549V196H100.511L95.8568 188.876V196H94.4138V186.549H95.8568L100.511 193.686V186.549H101.954ZM108.208 196C108.19 195.913 108.173 195.805 108.156 195.675C108.138 195.545 108.121 195.389 108.104 195.207C107.922 195.493 107.653 195.727 107.298 195.909C106.942 196.082 106.531 196.169 106.063 196.169C105.361 196.169 104.797 195.987 104.373 195.623C103.957 195.25 103.749 194.748 103.749 194.115C103.749 193.491 103.957 193.001 104.373 192.646C104.797 192.291 105.365 192.113 106.076 192.113H108.078V191.866C108.078 191.415 107.948 191.086 107.688 190.878C107.436 190.67 107.09 190.566 106.648 190.566C105.859 190.566 105.3 190.887 104.971 191.528L103.957 190.943C104.217 190.423 104.585 190.042 105.062 189.799C105.538 189.556 106.089 189.435 106.713 189.435C107.501 189.435 108.151 189.639 108.663 190.046C109.174 190.453 109.43 191.112 109.43 192.022V194.635C109.43 195.337 109.469 195.792 109.547 196H108.208ZM108.078 193.088H106.388C105.989 193.088 105.681 193.179 105.465 193.361C105.257 193.534 105.153 193.781 105.153 194.102C105.153 194.431 105.261 194.683 105.478 194.856C105.703 195.021 106.011 195.103 106.401 195.103C106.877 195.103 107.276 194.951 107.597 194.648C107.917 194.336 108.078 193.868 108.078 193.244V193.088ZM117.156 192.074V196H115.778V192.347C115.778 191.723 115.631 191.29 115.336 191.047C115.041 190.804 114.699 190.683 114.309 190.683C114.084 190.683 113.871 190.722 113.672 190.8C113.473 190.869 113.295 190.978 113.139 191.125C112.992 191.272 112.875 191.454 112.788 191.671C112.701 191.888 112.658 192.139 112.658 192.425V196H111.28V189.617H112.567L112.619 190.358C112.801 190.072 113.065 189.847 113.412 189.682C113.759 189.517 114.153 189.435 114.595 189.435C115.384 189.435 116.008 189.66 116.467 190.111C116.926 190.553 117.156 191.207 117.156 192.074ZM121.993 189.435C122.487 189.435 122.933 189.522 123.332 189.695C123.739 189.86 124.086 190.094 124.372 190.397C124.658 190.692 124.879 191.047 125.035 191.463C125.2 191.87 125.282 192.317 125.282 192.802C125.282 193.287 125.2 193.738 125.035 194.154C124.879 194.561 124.658 194.917 124.372 195.22C124.086 195.515 123.739 195.744 123.332 195.909C122.933 196.074 122.487 196.156 121.993 196.156C121.499 196.156 121.048 196.074 120.641 195.909C120.242 195.744 119.9 195.515 119.614 195.22C119.328 194.917 119.103 194.561 118.938 194.154C118.782 193.738 118.704 193.287 118.704 192.802C118.704 192.317 118.782 191.87 118.938 191.463C119.103 191.047 119.328 190.692 119.614 190.397C119.9 190.094 120.242 189.86 120.641 189.695C121.048 189.522 121.499 189.435 121.993 189.435ZM121.993 194.921C122.279 194.921 122.535 194.869 122.76 194.765C122.994 194.661 123.193 194.514 123.358 194.323C123.531 194.132 123.661 193.907 123.748 193.647C123.843 193.387 123.891 193.101 123.891 192.789C123.891 192.477 123.843 192.195 123.748 191.944C123.661 191.684 123.531 191.463 123.358 191.281C123.193 191.09 122.994 190.943 122.76 190.839C122.535 190.735 122.279 190.683 121.993 190.683C121.707 190.683 121.447 190.735 121.213 190.839C120.979 190.943 120.78 191.09 120.615 191.281C120.45 191.463 120.32 191.684 120.225 191.944C120.138 192.195 120.095 192.477 120.095 192.789C120.095 193.101 120.138 193.387 120.225 193.647C120.32 193.907 120.45 194.132 120.615 194.323C120.78 194.514 120.979 194.661 121.213 194.765C121.447 194.869 121.707 194.921 121.993 194.921ZM136.541 191.918V196H135.202V192.126C135.202 191.649 135.081 191.281 134.838 191.021C134.604 190.761 134.279 190.631 133.863 190.631C133.421 190.631 133.066 190.774 132.797 191.06C132.537 191.346 132.407 191.74 132.407 192.243V196H131.055V192.126C131.055 191.649 130.934 191.281 130.691 191.021C130.457 190.761 130.132 190.631 129.716 190.631C129.274 190.631 128.919 190.774 128.65 191.06C128.39 191.346 128.26 191.74 128.26 192.243V196H126.882V189.617H128.156L128.221 190.254C128.403 189.985 128.65 189.782 128.962 189.643C129.283 189.496 129.642 189.422 130.041 189.422C130.535 189.422 130.955 189.526 131.302 189.734C131.657 189.942 131.93 190.241 132.121 190.631C132.277 190.258 132.537 189.964 132.901 189.747C133.265 189.53 133.698 189.422 134.201 189.422C134.903 189.422 135.466 189.643 135.891 190.085C136.324 190.518 136.541 191.129 136.541 191.918ZM142.509 196C142.492 195.913 142.475 195.805 142.457 195.675C142.44 195.545 142.423 195.389 142.405 195.207C142.223 195.493 141.955 195.727 141.599 195.909C141.244 196.082 140.832 196.169 140.364 196.169C139.662 196.169 139.099 195.987 138.674 195.623C138.258 195.25 138.05 194.748 138.05 194.115C138.05 193.491 138.258 193.001 138.674 192.646C139.099 192.291 139.667 192.113 140.377 192.113H142.379V191.866C142.379 191.415 142.249 191.086 141.989 190.878C141.738 190.67 141.391 190.566 140.949 190.566C140.161 190.566 139.602 190.887 139.272 191.528L138.258 190.943C138.518 190.423 138.887 190.042 139.363 189.799C139.84 189.556 140.39 189.435 141.014 189.435C141.803 189.435 142.453 189.639 142.964 190.046C143.476 190.453 143.731 191.112 143.731 192.022V194.635C143.731 195.337 143.77 195.792 143.848 196H142.509ZM142.379 193.088H140.689C140.291 193.088 139.983 193.179 139.766 193.361C139.558 193.534 139.454 193.781 139.454 194.102C139.454 194.431 139.563 194.683 139.779 194.856C140.005 195.021 140.312 195.103 140.702 195.103C141.179 195.103 141.578 194.951 141.898 194.648C142.219 194.336 142.379 193.868 142.379 193.244V193.088ZM148.705 190.761H147.457V196H146.092V190.761H144.844V189.617H146.092V187.615H147.457V189.617H148.705V190.761ZM155.857 193.348H150.878C150.93 193.894 151.125 194.301 151.463 194.57C151.81 194.839 152.23 194.973 152.724 194.973C153.14 194.973 153.491 194.882 153.777 194.7C154.063 194.509 154.289 194.249 154.453 193.92L155.61 194.388C155.368 194.96 154.986 195.402 154.466 195.714C153.955 196.017 153.37 196.169 152.711 196.169C152.243 196.169 151.814 196.091 151.424 195.935C151.043 195.77 150.714 195.541 150.436 195.246C150.159 194.951 149.942 194.6 149.786 194.193C149.639 193.777 149.565 193.318 149.565 192.815C149.565 192.321 149.639 191.866 149.786 191.45C149.942 191.034 150.159 190.679 150.436 190.384C150.714 190.081 151.047 189.847 151.437 189.682C151.827 189.517 152.261 189.435 152.737 189.435C153.205 189.435 153.63 189.517 154.011 189.682C154.401 189.838 154.731 190.063 154.999 190.358C155.277 190.653 155.489 191.008 155.636 191.424C155.784 191.831 155.857 192.291 155.857 192.802V193.348ZM154.453 192.36C154.419 191.779 154.25 191.342 153.946 191.047C153.643 190.744 153.231 190.592 152.711 190.592C152.191 190.592 151.771 190.744 151.45 191.047C151.138 191.35 150.952 191.788 150.891 192.36H154.453ZM160.506 189.526C160.74 189.526 160.983 189.556 161.234 189.617V190.891C161 190.83 160.766 190.8 160.532 190.8C159.986 190.8 159.562 190.969 159.258 191.307C158.964 191.645 158.816 192.113 158.816 192.711V196H157.412V189.617H158.699L158.777 190.397C158.907 190.111 159.128 189.894 159.44 189.747C159.761 189.6 160.116 189.526 160.506 189.526ZM162.532 187.381C162.532 187.121 162.618 186.904 162.792 186.731C162.974 186.549 163.195 186.458 163.455 186.458C163.706 186.458 163.918 186.549 164.092 186.731C164.274 186.904 164.365 187.121 164.365 187.381C164.365 187.632 164.274 187.849 164.092 188.031C163.918 188.204 163.706 188.291 163.455 188.291C163.195 188.291 162.974 188.204 162.792 188.031C162.618 187.849 162.532 187.632 162.532 187.381ZM164.144 189.617V196H162.766V189.617H164.144ZM170.203 196C170.186 195.913 170.168 195.805 170.151 195.675C170.134 195.545 170.116 195.389 170.099 195.207C169.917 195.493 169.648 195.727 169.293 195.909C168.938 196.082 168.526 196.169 168.058 196.169C167.356 196.169 166.793 195.987 166.368 195.623C165.952 195.25 165.744 194.748 165.744 194.115C165.744 193.491 165.952 193.001 166.368 192.646C166.793 192.291 167.36 192.113 168.071 192.113H170.073V191.866C170.073 191.415 169.943 191.086 169.683 190.878C169.432 190.67 169.085 190.566 168.643 190.566C167.854 190.566 167.295 190.887 166.966 191.528L165.952 190.943C166.212 190.423 166.58 190.042 167.057 189.799C167.534 189.556 168.084 189.435 168.708 189.435C169.497 189.435 170.147 189.639 170.658 190.046C171.169 190.453 171.425 191.112 171.425 192.022V194.635C171.425 195.337 171.464 195.792 171.542 196H170.203ZM170.073 193.088H168.383C167.984 193.088 167.677 193.179 167.46 193.361C167.252 193.534 167.148 193.781 167.148 194.102C167.148 194.431 167.256 194.683 167.473 194.856C167.698 195.021 168.006 195.103 168.396 195.103C168.873 195.103 169.271 194.951 169.592 194.648C169.913 194.336 170.073 193.868 170.073 193.244V193.088ZM173.275 186.38H174.653V196H173.275V186.38ZM178.701 195.051C179.03 195.051 179.299 194.986 179.507 194.856C179.723 194.717 179.832 194.505 179.832 194.219C179.832 193.829 179.58 193.578 179.078 193.465L178.168 193.218C176.98 192.889 176.387 192.278 176.387 191.385C176.387 191.099 176.439 190.839 176.543 190.605C176.655 190.362 176.811 190.154 177.011 189.981C177.21 189.808 177.453 189.673 177.739 189.578C178.025 189.483 178.345 189.435 178.701 189.435C179.333 189.435 179.866 189.578 180.3 189.864C180.733 190.141 180.993 190.54 181.08 191.06L179.845 191.359C179.81 191.108 179.689 190.913 179.481 190.774C179.281 190.627 179.034 190.553 178.74 190.553C178.436 190.553 178.189 190.627 177.999 190.774C177.817 190.921 177.726 191.116 177.726 191.359C177.726 191.567 177.795 191.736 177.934 191.866C178.072 191.987 178.285 192.083 178.571 192.152L179.468 192.386C180.04 192.533 180.473 192.767 180.768 193.088C181.062 193.4 181.21 193.781 181.21 194.232C181.21 194.83 180.989 195.302 180.547 195.649C180.113 195.996 179.502 196.169 178.714 196.169C177.977 196.169 177.396 196.009 176.972 195.688C176.547 195.367 176.296 194.943 176.218 194.414L177.466 194.193C177.5 194.453 177.622 194.661 177.83 194.817C178.046 194.973 178.337 195.051 178.701 195.051Z" fill="black"/>          <path id="Polygon 51" d="M128.817 134.564L95.3412 154.244M145.747 134.564L179.608 154.47M129.202 243.163L96.3032 223.822M145.363 243.163L179.608 223.03M187.599 169.552V208.928M86.9648 169.16V208.34" stroke="#7E1A0E" stroke-width="5.76" stroke-linecap="round"/>
        </g>
        <path id="Polygon 27" d="M127.211 259.414L84.371 234.658M148.255 259.414L192.847 233.645M203.254 165.192V215.594M72.2109 164.691V214.842" stroke="#E4E3E3" stroke-width="5.76" stroke-linecap="round"/>
      </g>
      <g id="phthalates">
        <g id="group_hover_4" data-chemical-target="phthalates">
          <path id="hover_4" d="M328.379 14.3453C332.092 12.2013 336.666 12.2013 340.379 14.3453L382.505 38.6663C386.218 40.8103 388.505 44.7723 388.505 49.0593V97.7023C388.505 101.989 386.218 105.951 382.505 108.095L340.379 132.416C336.666 134.56 332.092 134.56 328.379 132.416L286.252 108.095C282.539 105.951 280.252 101.989 280.252 97.7023V49.0593C280.252 44.7723 282.539 40.8103 286.252 38.6663L328.379 14.3453Z" fill="#6769FF"/>
          <path id="Polygon 72" d="M325.852 19.3613L292.135 39.0413M342.904 19.3613L377.008 39.2673M326.239 127.96L293.104 108.619M342.517 127.96L377.008 107.827M385.057 54.3483V93.7253M283.699 53.9573V93.1373" stroke="#6769FF" stroke-width="5.76" stroke-linecap="round"/>
          <path id="Phthalates" d="M300.926 63.112C300.926 63.5973 300.847 64.0453 300.688 64.456C300.539 64.8573 300.32 65.2073 300.03 65.506C299.741 65.7953 299.391 66.024 298.98 66.192C298.57 66.3507 298.108 66.43 297.594 66.43H295.186V70H293.618V59.822H295.186H297.608C298.122 59.822 298.584 59.9013 298.994 60.06C299.405 60.2093 299.75 60.4287 300.03 60.718C300.32 60.998 300.539 61.3433 300.688 61.754C300.847 62.1553 300.926 62.608 300.926 63.112ZM299.288 63.084C299.288 62.5427 299.12 62.0993 298.784 61.754C298.458 61.4087 297.982 61.236 297.356 61.236H295.186V65.058H297.314C297.958 65.058 298.448 64.876 298.784 64.512C299.12 64.148 299.288 63.672 299.288 63.084ZM308.959 65.842V70H307.475V66.164C307.475 65.8093 307.433 65.5107 307.349 65.268C307.265 65.0253 307.148 64.834 306.999 64.694C306.85 64.5447 306.672 64.4373 306.467 64.372C306.271 64.3067 306.056 64.274 305.823 64.274C305.599 64.274 305.38 64.316 305.165 64.4C304.95 64.4747 304.754 64.5913 304.577 64.75C304.409 64.9087 304.274 65.1093 304.171 65.352C304.068 65.5947 304.017 65.8793 304.017 66.206V70H302.533V59.64H304.017V63.91C304.232 63.6113 304.521 63.3733 304.885 63.196C305.258 63.0187 305.669 62.93 306.117 62.93C307.013 62.93 307.708 63.1773 308.203 63.672C308.707 64.1573 308.959 64.8807 308.959 65.842ZM314.516 64.358H313.172V70H311.702V64.358H310.358V63.126H311.702V60.97H313.172V63.126H314.516V64.358ZM322.412 65.842V70H320.928V66.164C320.928 65.8093 320.886 65.5107 320.802 65.268C320.718 65.0253 320.601 64.834 320.452 64.694C320.302 64.5447 320.125 64.4373 319.92 64.372C319.724 64.3067 319.509 64.274 319.276 64.274C319.052 64.274 318.832 64.316 318.618 64.4C318.403 64.4747 318.207 64.5913 318.03 64.75C317.862 64.9087 317.726 65.1093 317.624 65.352C317.521 65.5947 317.47 65.8793 317.47 66.206V70H315.986V59.64H317.47V63.91C317.684 63.6113 317.974 63.3733 318.338 63.196C318.711 63.0187 319.122 62.93 319.57 62.93C320.466 62.93 321.161 63.1773 321.656 63.672C322.16 64.1573 322.412 64.8807 322.412 65.842ZM328.837 70C328.818 69.9067 328.8 69.79 328.781 69.65C328.762 69.51 328.744 69.342 328.725 69.146C328.529 69.454 328.24 69.706 327.857 69.902C327.474 70.0887 327.031 70.182 326.527 70.182C325.771 70.182 325.164 69.986 324.707 69.594C324.259 69.1927 324.035 68.6513 324.035 67.97C324.035 67.298 324.259 66.7707 324.707 66.388C325.164 66.0053 325.776 65.814 326.541 65.814H328.697V65.548C328.697 65.0627 328.557 64.708 328.277 64.484C328.006 64.26 327.633 64.148 327.157 64.148C326.308 64.148 325.706 64.4933 325.351 65.184L324.259 64.554C324.539 63.994 324.936 63.5833 325.449 63.322C325.962 63.0607 326.555 62.93 327.227 62.93C328.076 62.93 328.776 63.1493 329.327 63.588C329.878 64.0267 330.153 64.736 330.153 65.716V68.53C330.153 69.286 330.195 69.776 330.279 70H328.837ZM328.697 66.864H326.877C326.448 66.864 326.116 66.962 325.883 67.158C325.659 67.3447 325.547 67.6107 325.547 67.956C325.547 68.3107 325.664 68.5813 325.897 68.768C326.14 68.9453 326.471 69.034 326.891 69.034C327.404 69.034 327.834 68.8707 328.179 68.544C328.524 68.208 328.697 67.704 328.697 67.032V66.864ZM332.145 59.64H333.629V70H332.145V59.64ZM340.047 70C340.029 69.9067 340.01 69.79 339.991 69.65C339.973 69.51 339.954 69.342 339.935 69.146C339.739 69.454 339.45 69.706 339.067 69.902C338.685 70.0887 338.241 70.182 337.737 70.182C336.981 70.182 336.375 69.986 335.917 69.594C335.469 69.1927 335.245 68.6513 335.245 67.97C335.245 67.298 335.469 66.7707 335.917 66.388C336.375 66.0053 336.986 65.814 337.751 65.814H339.907V65.548C339.907 65.0627 339.767 64.708 339.487 64.484C339.217 64.26 338.843 64.148 338.367 64.148C337.518 64.148 336.916 64.4933 336.561 65.184L335.469 64.554C335.749 63.994 336.146 63.5833 336.659 63.322C337.173 63.0607 337.765 62.93 338.437 62.93C339.287 62.93 339.987 63.1493 340.537 63.588C341.088 64.0267 341.363 64.736 341.363 65.716V68.53C341.363 69.286 341.405 69.776 341.489 70H340.047ZM339.907 66.864H338.087C337.658 66.864 337.327 66.962 337.093 67.158C336.869 67.3447 336.757 67.6107 336.757 67.956C336.757 68.3107 336.874 68.5813 337.107 68.768C337.35 68.9453 337.681 69.034 338.101 69.034C338.615 69.034 339.044 68.8707 339.389 68.544C339.735 68.208 339.907 67.704 339.907 67.032V66.864ZM346.719 64.358H345.375V70H343.905V64.358H342.561V63.126H343.905V60.97H345.375V63.126H346.719V64.358ZM354.422 67.144H349.06C349.116 67.732 349.326 68.1707 349.69 68.46C350.063 68.7493 350.516 68.894 351.048 68.894C351.496 68.894 351.874 68.796 352.182 68.6C352.49 68.3947 352.732 68.1147 352.91 67.76L354.156 68.264C353.894 68.88 353.484 69.356 352.924 69.692C352.373 70.0187 351.743 70.182 351.034 70.182C350.53 70.182 350.068 70.098 349.648 69.93C349.237 69.7527 348.882 69.5053 348.584 69.188C348.285 68.8707 348.052 68.4927 347.884 68.054C347.725 67.606 347.646 67.1113 347.646 66.57C347.646 66.038 347.725 65.548 347.884 65.1C348.052 64.652 348.285 64.2693 348.584 63.952C348.882 63.6253 349.242 63.3733 349.662 63.196C350.082 63.0187 350.548 62.93 351.062 62.93C351.566 62.93 352.023 63.0187 352.434 63.196C352.854 63.364 353.208 63.6067 353.498 63.924C353.796 64.2413 354.025 64.624 354.184 65.072C354.342 65.5107 354.422 66.0053 354.422 66.556V67.144ZM352.91 66.08C352.872 65.4547 352.69 64.9833 352.364 64.666C352.037 64.3393 351.594 64.176 351.034 64.176C350.474 64.176 350.021 64.3393 349.676 64.666C349.34 64.9927 349.139 65.464 349.074 66.08H352.91ZM358.406 68.978C358.761 68.978 359.05 68.908 359.274 68.768C359.508 68.6187 359.624 68.39 359.624 68.082C359.624 67.662 359.354 67.3913 358.812 67.27L357.832 67.004C356.554 66.6493 355.914 65.9913 355.914 65.03C355.914 64.722 355.97 64.442 356.082 64.19C356.204 63.9287 356.372 63.7047 356.586 63.518C356.801 63.3313 357.062 63.1867 357.37 63.084C357.678 62.9813 358.024 62.93 358.406 62.93C359.088 62.93 359.662 63.084 360.128 63.392C360.595 63.6907 360.875 64.12 360.968 64.68L359.638 65.002C359.601 64.7313 359.47 64.5213 359.246 64.372C359.032 64.2133 358.766 64.134 358.448 64.134C358.122 64.134 357.856 64.2133 357.65 64.372C357.454 64.5307 357.356 64.7407 357.356 65.002C357.356 65.226 357.431 65.408 357.58 65.548C357.73 65.6787 357.958 65.7813 358.266 65.856L359.232 66.108C359.848 66.2667 360.315 66.5187 360.632 66.864C360.95 67.2 361.108 67.6107 361.108 68.096C361.108 68.74 360.87 69.2487 360.394 69.622C359.928 69.9953 359.27 70.182 358.42 70.182C357.627 70.182 357.002 70.0093 356.544 69.664C356.087 69.3187 355.816 68.8613 355.732 68.292L357.076 68.054C357.114 68.334 357.244 68.558 357.468 68.726C357.702 68.894 358.014 68.978 358.406 68.978ZM373.503 70L372.873 69.216C372.099 69.8413 371.114 70.1587 369.919 70.168C369.35 70.168 368.837 70.098 368.379 69.958C367.922 69.8087 367.535 69.6033 367.217 69.342C366.9 69.0713 366.657 68.7493 366.489 68.376C366.321 68.0027 366.237 67.5873 366.237 67.13C366.237 66.458 366.424 65.884 366.797 65.408C367.18 64.9227 367.768 64.456 368.561 64.008C368.356 63.7653 368.179 63.546 368.029 63.35C367.889 63.1447 367.782 62.9627 367.707 62.804C367.549 62.468 367.469 62.1367 367.469 61.81C367.469 61.474 367.53 61.1707 367.651 60.9C367.782 60.6293 367.955 60.4007 368.169 60.214C368.384 60.0273 368.641 59.8873 368.939 59.794C369.247 59.6913 369.574 59.64 369.919 59.64C370.629 59.64 371.207 59.836 371.655 60.228C372.103 60.62 372.327 61.124 372.327 61.74C372.327 62.1973 372.178 62.6267 371.879 63.028C371.59 63.4293 371.123 63.84 370.479 64.26L372.719 66.934C372.859 66.4953 372.929 66.0007 372.929 65.45C372.929 65.3567 372.929 65.282 372.929 65.226C372.929 65.1607 372.925 65.1047 372.915 65.058H374.455C374.493 66.2527 374.264 67.2933 373.769 68.18L375.281 70H373.503ZM368.925 61.95C368.925 62.146 368.986 62.3467 369.107 62.552C369.238 62.748 369.457 63.028 369.765 63.392C370.512 62.9253 370.885 62.426 370.885 61.894C370.885 61.6233 370.801 61.3993 370.633 61.222C370.465 61.0353 370.223 60.942 369.905 60.942C369.588 60.942 369.341 61.04 369.163 61.236C368.995 61.432 368.916 61.67 368.925 61.95ZM369.317 64.932C368.86 65.212 368.491 65.534 368.211 65.898C367.941 66.262 367.805 66.6587 367.805 67.088C367.805 67.62 368.001 68.0493 368.393 68.376C368.785 68.6933 369.336 68.852 370.045 68.852C370.867 68.8333 371.515 68.6 371.991 68.152L369.317 64.932ZM301.012 75.64C301.945 75.64 302.715 75.864 303.322 76.312C303.929 76.76 304.302 77.362 304.442 78.118L302.958 78.524C302.865 78.048 302.645 77.6887 302.3 77.446C301.955 77.194 301.516 77.068 300.984 77.068C300.415 77.068 299.962 77.208 299.626 77.488C299.299 77.7587 299.136 78.118 299.136 78.566C299.136 78.93 299.248 79.2287 299.472 79.462C299.705 79.686 300.032 79.8493 300.452 79.952L302.132 80.386C303 80.6007 303.639 80.946 304.05 81.422C304.461 81.898 304.666 82.486 304.666 83.186C304.666 83.6247 304.582 84.0307 304.414 84.404C304.246 84.768 304.008 85.0853 303.7 85.356C303.392 85.6173 303.014 85.8227 302.566 85.972C302.127 86.112 301.633 86.182 301.082 86.182C300.083 86.182 299.257 85.9533 298.604 85.496C297.932 85.0293 297.535 84.3993 297.414 83.606L298.898 83.214C298.963 83.69 299.192 84.0633 299.584 84.334C299.985 84.5953 300.499 84.726 301.124 84.726C301.74 84.726 302.225 84.5953 302.58 84.334C302.935 84.0727 303.112 83.7133 303.112 83.256C303.112 82.5467 302.673 82.0753 301.796 81.842L300.116 81.436C299.248 81.2307 298.609 80.8853 298.198 80.4C297.787 79.9147 297.582 79.322 297.582 78.622C297.582 78.1833 297.661 77.782 297.82 77.418C297.988 77.0447 298.221 76.7273 298.52 76.466C298.828 76.2047 299.192 76.004 299.612 75.864C300.032 75.7147 300.499 75.64 301.012 75.64ZM311.383 86C311.327 85.776 311.285 85.5007 311.257 85.174C311.061 85.5007 310.781 85.7527 310.417 85.93C310.053 86.098 309.633 86.182 309.157 86.182C308.391 86.182 307.733 85.958 307.183 85.51C306.632 85.0433 306.357 84.3013 306.357 83.284V79.112H307.855V83.032C307.855 83.7133 308.013 84.1847 308.331 84.446C308.657 84.7167 309.035 84.852 309.465 84.852C309.707 84.852 309.931 84.8147 310.137 84.74C310.351 84.656 310.538 84.5347 310.697 84.376C310.865 84.2173 310.995 84.0213 311.089 83.788C311.182 83.5547 311.229 83.284 311.229 82.976V79.126H312.727V84.74C312.727 84.9267 312.736 85.146 312.755 85.398C312.783 85.6407 312.815 85.8413 312.853 86H311.383ZM322.16 82.598C322.16 83.1393 322.076 83.634 321.908 84.082C321.75 84.5207 321.526 84.8987 321.236 85.216C320.947 85.524 320.597 85.762 320.186 85.93C319.785 86.098 319.337 86.182 318.842 86.182C318.254 86.182 317.75 86.07 317.33 85.846C316.91 85.6127 316.598 85.3187 316.392 84.964L316.308 86H314.978V75.64H316.42V80.106C316.663 79.714 316.999 79.42 317.428 79.224C317.867 79.0187 318.338 78.916 318.842 78.916C319.337 78.916 319.785 79.0047 320.186 79.182C320.597 79.35 320.947 79.5927 321.236 79.91C321.526 80.2273 321.75 80.6147 321.908 81.072C322.076 81.5293 322.16 82.038 322.16 82.598ZM320.662 82.542C320.662 81.842 320.471 81.2867 320.088 80.876C319.715 80.4653 319.216 80.26 318.59 80.26C317.965 80.26 317.461 80.4653 317.078 80.876C316.696 81.2867 316.504 81.842 316.504 82.542C316.504 83.242 316.696 83.7973 317.078 84.208C317.461 84.6187 317.965 84.824 318.59 84.824C319.216 84.824 319.715 84.6187 320.088 84.208C320.471 83.7973 320.662 83.242 320.662 82.542ZM326.111 84.978C326.466 84.978 326.755 84.908 326.979 84.768C327.213 84.6187 327.329 84.39 327.329 84.082C327.329 83.662 327.059 83.3913 326.517 83.27L325.537 83.004C324.259 82.6493 323.619 81.9913 323.619 81.03C323.619 80.722 323.675 80.442 323.787 80.19C323.909 79.9287 324.077 79.7047 324.291 79.518C324.506 79.3313 324.767 79.1867 325.075 79.084C325.383 78.9813 325.729 78.93 326.111 78.93C326.793 78.93 327.367 79.084 327.833 79.392C328.3 79.6907 328.58 80.12 328.673 80.68L327.343 81.002C327.306 80.7313 327.175 80.5213 326.951 80.372C326.737 80.2133 326.471 80.134 326.153 80.134C325.827 80.134 325.561 80.2133 325.355 80.372C325.159 80.5307 325.061 80.7407 325.061 81.002C325.061 81.226 325.136 81.408 325.285 81.548C325.435 81.6787 325.663 81.7813 325.971 81.856L326.937 82.108C327.553 82.2667 328.02 82.5187 328.337 82.864C328.655 83.2 328.813 83.6107 328.813 84.096C328.813 84.74 328.575 85.2487 328.099 85.622C327.633 85.9953 326.975 86.182 326.125 86.182C325.332 86.182 324.707 86.0093 324.249 85.664C323.792 85.3187 323.521 84.8613 323.437 84.292L324.781 84.054C324.819 84.334 324.949 84.558 325.173 84.726C325.407 84.894 325.719 84.978 326.111 84.978ZM333.926 80.358H332.582V86H331.112V80.358H329.768V79.126H331.112V76.97H332.582V79.126H333.926V80.358ZM335.228 76.718C335.228 76.438 335.321 76.2047 335.508 76.018C335.704 75.822 335.942 75.724 336.222 75.724C336.492 75.724 336.721 75.822 336.908 76.018C337.104 76.2047 337.202 76.438 337.202 76.718C337.202 76.9887 337.104 77.222 336.908 77.418C336.721 77.6047 336.492 77.698 336.222 77.698C335.942 77.698 335.704 77.6047 335.508 77.418C335.321 77.222 335.228 76.9887 335.228 76.718ZM336.964 79.126V86H335.48V79.126H336.964ZM342.621 80.358H341.277V86H339.807V80.358H338.463V79.126H339.807V76.97H341.277V79.126H342.621V80.358ZM349.143 86C349.087 85.776 349.045 85.5007 349.017 85.174C348.821 85.5007 348.541 85.7527 348.177 85.93C347.813 86.098 347.393 86.182 346.917 86.182C346.151 86.182 345.493 85.958 344.943 85.51C344.392 85.0433 344.117 84.3013 344.117 83.284V79.112H345.615V83.032C345.615 83.7133 345.773 84.1847 346.091 84.446C346.417 84.7167 346.795 84.852 347.225 84.852C347.467 84.852 347.691 84.8147 347.897 84.74C348.111 84.656 348.298 84.5347 348.457 84.376C348.625 84.2173 348.755 84.0213 348.849 83.788C348.942 83.5547 348.989 83.284 348.989 82.976V79.126H350.487V84.74C350.487 84.9267 350.496 85.146 350.515 85.398C350.543 85.6407 350.575 85.8413 350.613 86H349.143ZM356.21 80.358H354.866V86H353.396V80.358H352.052V79.126H353.396V76.97H354.866V79.126H356.21V80.358ZM363.913 83.144H358.551C358.607 83.732 358.817 84.1707 359.181 84.46C359.554 84.7493 360.007 84.894 360.539 84.894C360.987 84.894 361.365 84.796 361.673 84.6C361.981 84.3947 362.224 84.1147 362.401 83.76L363.647 84.264C363.386 84.88 362.975 85.356 362.415 85.692C361.864 86.0187 361.234 86.182 360.525 86.182C360.021 86.182 359.559 86.098 359.139 85.93C358.728 85.7527 358.374 85.5053 358.075 85.188C357.776 84.8707 357.543 84.4927 357.375 84.054C357.216 83.606 357.137 83.1113 357.137 82.57C357.137 82.038 357.216 81.548 357.375 81.1C357.543 80.652 357.776 80.2693 358.075 79.952C358.374 79.6253 358.733 79.3733 359.153 79.196C359.573 79.0187 360.04 78.93 360.553 78.93C361.057 78.93 361.514 79.0187 361.925 79.196C362.345 79.364 362.7 79.6067 362.989 79.924C363.288 80.2413 363.516 80.624 363.675 81.072C363.834 81.5107 363.913 82.0053 363.913 82.556V83.144ZM362.401 82.08C362.364 81.4547 362.182 80.9833 361.855 80.666C361.528 80.3393 361.085 80.176 360.525 80.176C359.965 80.176 359.512 80.3393 359.167 80.666C358.831 80.9927 358.63 81.464 358.565 82.08H362.401ZM367.898 84.978C368.252 84.978 368.542 84.908 368.766 84.768C368.999 84.6187 369.116 84.39 369.116 84.082C369.116 83.662 368.845 83.3913 368.304 83.27L367.324 83.004C366.045 82.6493 365.406 81.9913 365.406 81.03C365.406 80.722 365.462 80.442 365.574 80.19C365.695 79.9287 365.863 79.7047 366.078 79.518C366.292 79.3313 366.554 79.1867 366.862 79.084C367.17 78.9813 367.515 78.93 367.898 78.93C368.579 78.93 369.153 79.084 369.62 79.392C370.086 79.6907 370.366 80.12 370.46 80.68L369.13 81.002C369.092 80.7313 368.962 80.5213 368.738 80.372C368.523 80.2133 368.257 80.134 367.94 80.134C367.613 80.134 367.347 80.2133 367.142 80.372C366.946 80.5307 366.848 80.7407 366.848 81.002C366.848 81.226 366.922 81.408 367.072 81.548C367.221 81.6787 367.45 81.7813 367.758 81.856L368.724 82.108C369.34 82.2667 369.806 82.5187 370.124 82.864C370.441 83.2 370.6 83.6107 370.6 84.096C370.6 84.74 370.362 85.2487 369.886 85.622C369.419 85.9953 368.761 86.182 367.912 86.182C367.118 86.182 366.493 86.0093 366.036 85.664C365.578 85.3187 365.308 84.8613 365.224 84.292L366.568 84.054C366.605 84.334 366.736 84.558 366.96 84.726C367.193 84.894 367.506 84.978 367.898 84.978Z" fill="black"/>
        </g>
        <path id="Polygon 114" d="M255.775 30.1633L213.172 5.53535M276.703 30.1633L321.049 4.52734" stroke="#E4E3E3" stroke-width="5.76" stroke-linecap="round"/>
        <path id="Polygon 73" d="M344.86 5.0332L388.465 30.2482M323.553 142.592L281.188 118.093M344.365 142.592L388.465 117.09M398.756 49.3512V99.2282M267.129 49.5912L267.379 98.5912" stroke="#E4E3E3" stroke-width="5.76" stroke-linecap="round"/>
      </g>
      <g id="bisphenols">
        <g id="group_hover_5" data-chemical-target="bisphenols">
          <path id="hover_5" d="M196.379 14.3453C200.092 12.2013 204.666 12.2013 208.379 14.3453L250.505 38.6663C254.218 40.8103 256.505 44.7723 256.505 49.0593V97.7023C256.505 101.989 254.218 105.951 250.505 108.095L208.379 132.416C204.666 134.56 200.092 134.56 196.379 132.416L154.252 108.095C150.539 105.951 148.252 101.989 148.252 97.7023V49.0593C148.252 44.7723 150.539 40.8103 154.252 38.6663L196.379 14.3453Z" fill="#D7B040"/>
          <path id="Bisphenols" d="M167.855 78.8848V68.6507H171.929C173.945 68.6507 175.177 69.7008 175.177 71.4088C175.177 72.5428 174.673 73.3547 173.707 73.7607C174.785 74.1107 175.331 74.9227 175.331 76.1127C175.331 77.8627 174.113 78.8848 171.999 78.8848H167.855ZM171.775 70.2327H169.647V73.0188H171.817C172.797 73.0188 173.343 72.5007 173.343 71.5907C173.343 70.7087 172.783 70.2327 171.775 70.2327ZM171.929 74.5307H169.647V77.3027H171.929C172.937 77.3027 173.497 76.8127 173.497 75.8887C173.497 75.0207 172.923 74.5307 171.929 74.5307ZM177.716 70.5827C177.128 70.5827 176.666 70.1208 176.666 69.5468C176.666 68.9728 177.128 68.5247 177.716 68.5247C178.276 68.5247 178.738 68.9728 178.738 69.5468C178.738 70.1208 178.276 70.5827 177.716 70.5827ZM176.862 78.8848V71.9688H178.57V78.8848H176.862ZM179.943 76.7847H181.567C181.581 77.3867 182.029 77.7648 182.813 77.7648C183.611 77.7648 184.045 77.4428 184.045 76.9388C184.045 76.5888 183.863 76.3367 183.247 76.1967L182.001 75.9027C180.755 75.6227 180.153 75.0347 180.153 73.9287C180.153 72.5707 181.301 71.7587 182.897 71.7587C184.451 71.7587 185.501 72.6547 185.515 73.9987H183.891C183.877 73.4107 183.485 73.0327 182.827 73.0327C182.155 73.0327 181.763 73.3407 181.763 73.8587C181.763 74.2507 182.071 74.5027 182.659 74.6427L183.905 74.9368C185.067 75.2028 185.655 75.7348 185.655 76.7988C185.655 78.1988 184.465 79.0667 182.757 79.0667C181.035 79.0667 179.943 78.1427 179.943 76.7847ZM187.095 82.0907V71.9688H188.677L188.789 73.0188C189.209 72.2208 190.119 71.7587 191.169 71.7587C193.115 71.7587 194.403 73.1727 194.403 75.3427C194.403 77.4987 193.227 79.0667 191.169 79.0667C190.133 79.0667 189.237 78.6608 188.803 77.9608V82.0907H187.095ZM188.817 75.4267C188.817 76.6727 189.587 77.5267 190.763 77.5267C191.967 77.5267 192.681 76.6587 192.681 75.4267C192.681 74.1947 191.967 73.3127 190.763 73.3127C189.587 73.3127 188.817 74.1807 188.817 75.4267ZM197.611 78.8848H195.903V68.4688H197.625V72.8647C198.059 72.1927 198.871 71.7587 199.865 71.7587C201.573 71.7587 202.469 72.8368 202.469 74.6288V78.8848H200.761V75.0347C200.761 73.8727 200.187 73.3127 199.319 73.3127C198.241 73.3127 197.611 74.0688 197.611 75.1048V78.8848ZM207.381 79.0667C205.323 79.0667 203.881 77.5687 203.881 75.4267C203.881 73.2567 205.295 71.7587 207.325 71.7587C209.397 71.7587 210.713 73.1448 210.713 75.3008V75.8187L205.505 75.8327C205.631 77.0507 206.275 77.6667 207.409 77.6667C208.347 77.6667 208.963 77.3027 209.159 76.6447H210.741C210.447 78.1567 209.187 79.0667 207.381 79.0667ZM207.339 73.1588C206.331 73.1588 205.715 73.7048 205.547 74.7408H209.019C209.019 73.7888 208.361 73.1588 207.339 73.1588ZM213.928 78.8848H212.22V71.9688H213.802L213.942 72.8647C214.376 72.1647 215.216 71.7587 216.154 71.7587C217.89 71.7587 218.786 72.8368 218.786 74.6288V78.8848H217.078V75.0347C217.078 73.8727 216.504 73.3127 215.622 73.3127C214.572 73.3127 213.928 74.0408 213.928 75.1608V78.8848ZM220.199 75.4128C220.199 73.2568 221.753 71.7728 223.895 71.7728C226.037 71.7728 227.591 73.2568 227.591 75.4128C227.591 77.5688 226.037 79.0527 223.895 79.0527C221.753 79.0527 220.199 77.5688 220.199 75.4128ZM221.907 75.4128C221.907 76.6728 222.719 77.5267 223.895 77.5267C225.071 77.5267 225.883 76.6728 225.883 75.4128C225.883 74.1528 225.071 73.2988 223.895 73.2988C222.719 73.2988 221.907 74.1528 221.907 75.4128ZM230.806 78.8848H229.112V68.4688H230.806V78.8848ZM232.206 76.7847H233.83C233.844 77.3867 234.292 77.7648 235.076 77.7648C235.874 77.7648 236.308 77.4428 236.308 76.9388C236.308 76.5888 236.126 76.3367 235.51 76.1967L234.264 75.9027C233.018 75.6227 232.416 75.0347 232.416 73.9287C232.416 72.5707 233.564 71.7587 235.16 71.7587C236.714 71.7587 237.764 72.6547 237.778 73.9987H236.154C236.14 73.4107 235.748 73.0327 235.09 73.0327C234.418 73.0327 234.026 73.3407 234.026 73.8587C234.026 74.2507 234.334 74.5027 234.922 74.6427L236.168 74.9368C237.33 75.2028 237.918 75.7348 237.918 76.7988C237.918 78.1988 236.728 79.0667 235.02 79.0667C233.298 79.0667 232.206 78.1427 232.206 76.7847Z" fill="black"/>
          <path id="Polygon 115" d="M194.054 19.8613L160.097 39.5413M211.228 19.8613L245.575 39.7673M194.444 128.46L161.072 109.119M210.838 128.46L245.575 108.327M253.682 54.8483V94.2253M151.6 54.4573V93.6373" stroke="#D7B040" stroke-width="5.76" stroke-linecap="round"/>
        </g>
        <path id="Polygon 116" d="M191.817 5.2207L148.467 30.2807M192.315 143.504L149.712 118.876M213.243 143.504L257.589 117.868" stroke="#E4E3E3" stroke-width="5.76" stroke-linecap="round"/>
      </g>
      <g id="arsenic">
        <g id="group_hover_6" data-chemical-target="arsenic">
          <path id="hover_6" d="M328.379 243.346C332.092 241.202 336.666 241.202 340.379 243.346L382.505 267.667C386.218 269.811 388.505 273.773 388.505 278.06V326.703C388.505 330.99 386.218 334.952 382.505 337.096L340.379 361.417C336.666 363.561 332.092 363.561 328.379 361.417L286.252 337.096C282.539 334.952 280.252 330.99 280.252 326.703V278.06C280.252 273.773 282.539 269.811 286.252 267.667L328.379 243.346Z" fill="#C064E4"/>
          <path id="Polygon 105" d="M325.852 248.222L292.135 267.903M342.904 248.222L377.008 268.129M326.239 356.821L293.104 337.48M342.517 356.821L377.008 336.688M385.057 283.21V322.586M283.699 282.818V321.999" stroke="#C064E4" stroke-width="5.76" stroke-linecap="round"/>
          <path id="Arsenic" d="M312.118 308.342H310.256L313.952 298.108H315.786L319.482 308.342H317.592L316.766 305.976H312.944L312.118 308.342ZM314.638 301.16L313.476 304.464H316.248L315.072 301.16C314.988 300.894 314.89 300.586 314.862 300.376C314.82 300.572 314.736 300.88 314.638 301.16ZM324.994 301.398V302.98H324.364C323.132 302.98 322.362 303.638 322.362 304.982V308.342H320.654V301.44H322.264L322.362 302.448C322.656 301.762 323.314 301.3 324.238 301.3C324.476 301.3 324.714 301.328 324.994 301.398ZM325.758 306.242H327.382C327.396 306.844 327.844 307.222 328.628 307.222C329.426 307.222 329.86 306.9 329.86 306.396C329.86 306.046 329.678 305.794 329.062 305.654L327.816 305.36C326.57 305.08 325.968 304.492 325.968 303.386C325.968 302.028 327.116 301.216 328.712 301.216C330.266 301.216 331.316 302.112 331.33 303.456H329.706C329.692 302.868 329.3 302.49 328.642 302.49C327.97 302.49 327.578 302.798 327.578 303.316C327.578 303.708 327.886 303.96 328.474 304.1L329.72 304.394C330.882 304.66 331.47 305.192 331.47 306.256C331.47 307.656 330.28 308.524 328.572 308.524C326.85 308.524 325.758 307.6 325.758 306.242ZM336.004 308.524C333.946 308.524 332.504 307.026 332.504 304.884C332.504 302.714 333.918 301.216 335.948 301.216C338.02 301.216 339.336 302.602 339.336 304.758V305.276L334.128 305.29C334.254 306.508 334.898 307.124 336.032 307.124C336.97 307.124 337.586 306.76 337.782 306.102H339.364C339.07 307.614 337.81 308.524 336.004 308.524ZM335.962 302.616C334.954 302.616 334.338 303.162 334.17 304.198H337.642C337.642 303.246 336.984 302.616 335.962 302.616ZM342.551 308.342H340.843V301.426H342.425L342.565 302.322C342.999 301.622 343.839 301.216 344.777 301.216C346.513 301.216 347.409 302.294 347.409 304.086V308.342H345.701V304.492C345.701 303.33 345.127 302.77 344.245 302.77C343.195 302.77 342.551 303.498 342.551 304.618V308.342ZM350.081 300.04C349.493 300.04 349.031 299.578 349.031 299.004C349.031 298.43 349.493 297.982 350.081 297.982C350.641 297.982 351.103 298.43 351.103 299.004C351.103 299.578 350.641 300.04 350.081 300.04ZM349.227 308.342V301.426H350.935V308.342H349.227ZM352.434 304.87C352.434 302.728 353.848 301.216 355.892 301.216C357.782 301.216 359.07 302.266 359.252 303.932H357.544C357.348 303.148 356.774 302.742 355.962 302.742C354.87 302.742 354.142 303.568 354.142 304.87C354.142 306.172 354.814 306.984 355.906 306.984C356.76 306.984 357.362 306.564 357.544 305.808H359.266C359.056 307.418 357.712 308.524 355.906 308.524C353.806 308.524 352.434 307.068 352.434 304.87Z" fill="black"/>
        </g>
        <path id="Polygon 79" d="M398.879 277.881V327.881" stroke="#E4E3E3" stroke-width="5.76" stroke-linecap="round"/>
        <path id="Polygon 111" d="M323.619 232.131L280.192 257.191M345.582 232.131L389.508 257.479M324.118 370.414L281.44 345.786M345.083 370.414L389.508 344.778M269.326 276.183V326.073" stroke="#E4E3E3" stroke-width="5.76" stroke-linecap="round"/>
      </g>
      <g id="pfass">
        <g id="group_hover_7" data-chemical-target="pfass">
          <path id="hover_7" d="M263.379 129.345C267.092 127.201 271.666 127.201 275.379 129.345L317.505 153.666C321.218 155.81 323.505 159.772 323.505 164.059V212.702C323.505 216.989 321.218 220.951 317.505 223.095L275.379 247.416C271.666 249.56 267.092 249.56 263.379 247.416L221.252 223.095C217.539 220.951 215.252 216.989 215.252 212.702V164.059C215.252 159.772 217.539 155.81 221.252 153.666L263.379 129.345Z" fill="#E45C4D"/>
          <path id="PFASs" d="M254.747 191.814H252.493V195.342H250.701V185.108H254.747C256.805 185.108 258.135 186.452 258.135 188.454C258.135 190.428 256.791 191.814 254.747 191.814ZM254.397 186.704H252.493V190.218H254.369C255.601 190.218 256.259 189.56 256.259 188.44C256.259 187.32 255.587 186.704 254.397 186.704ZM265.383 191.156H261.575V195.342H259.783V185.108H266.111V186.76H261.575V189.546H265.383V191.156ZM268.119 195.342H266.257L269.953 185.108H271.787L275.483 195.342H273.593L272.767 192.976H268.945L268.119 195.342ZM270.639 188.16L269.477 191.464H272.249L271.073 188.16C270.989 187.894 270.891 187.586 270.863 187.376C270.821 187.572 270.737 187.88 270.639 188.16ZM276.318 187.964C276.318 186.172 277.802 184.926 279.958 184.926C282.03 184.926 283.346 186.074 283.402 187.922H281.61C281.568 187.04 280.938 186.522 279.93 186.522C278.824 186.522 278.11 187.054 278.11 187.908C278.11 188.636 278.502 189.042 279.356 189.238L280.966 189.588C282.716 189.966 283.57 190.862 283.57 192.388C283.57 194.292 282.086 195.524 279.832 195.524C277.648 195.524 276.22 194.362 276.178 192.528H277.97C277.984 193.396 278.684 193.914 279.832 193.914C281.022 193.914 281.778 193.396 281.778 192.542C281.778 191.856 281.428 191.45 280.588 191.268L278.964 190.904C277.228 190.526 276.318 189.532 276.318 187.964ZM284.548 193.242H286.172C286.186 193.844 286.634 194.222 287.418 194.222C288.216 194.222 288.65 193.9 288.65 193.396C288.65 193.046 288.468 192.794 287.852 192.654L286.606 192.36C285.36 192.08 284.758 191.492 284.758 190.386C284.758 189.028 285.906 188.216 287.502 188.216C289.056 188.216 290.106 189.112 290.12 190.456H288.496C288.482 189.868 288.09 189.49 287.432 189.49C286.76 189.49 286.368 189.798 286.368 190.316C286.368 190.708 286.676 190.96 287.264 191.1L288.51 191.394C289.672 191.66 290.26 192.192 290.26 193.256C290.26 194.656 289.07 195.524 287.362 195.524C285.64 195.524 284.548 194.6 284.548 193.242Z" fill="black"/>
          <path id="Polygon 78" d="M260.399 134.143L226.682 153.824M277.451 134.143L311.555 154.05M260.786 242.742L227.651 223.401M277.064 242.742L311.555 222.609M319.604 169.131V208.507M218.246 168.739V207.92" stroke="#E45C4D" stroke-width="5.76" stroke-linecap="round"/>
        </g>
        <path id="Polygon 113" d="M258.575 257.189L215.973 232.69M334.198 163.948V213.825" stroke="#E4E3E3" stroke-width="5.76" stroke-linecap="round"/>
      </g>
      <g id="metals">
        <g id="group_hover_9" data-chemical-target="metals">
          <path id="hover_9" d="M196.379 243.345C200.092 241.201 204.666 241.201 208.379 243.345L250.505 267.666C254.218 269.81 256.505 273.772 256.505 278.059V326.702C256.505 330.989 254.218 334.951 250.505 337.095L208.379 361.416C204.666 363.56 200.092 363.56 196.379 361.416L154.252 337.095C150.539 334.951 148.252 330.989 148.252 326.702V278.059C148.252 273.772 150.539 269.81 154.252 267.666L196.379 243.345Z" fill="#6E009A"/>
          <path id="Metals" d="M182.756 307.842H181.02V297.608H182.756L186.06 305.756L189.364 297.608H191.128V307.842H189.392V304.692C189.392 302.634 189.392 302.032 189.49 301.304L186.886 307.842H185.234L182.644 301.318C182.742 301.934 182.756 302.9 182.756 304.174V307.842ZM196.375 308.024C194.317 308.024 192.875 306.526 192.875 304.384C192.875 302.214 194.289 300.716 196.319 300.716C198.391 300.716 199.707 302.102 199.707 304.258V304.776L194.499 304.79C194.625 306.008 195.269 306.624 196.403 306.624C197.341 306.624 197.957 306.26 198.153 305.602H199.735C199.441 307.114 198.181 308.024 196.375 308.024ZM196.333 302.116C195.325 302.116 194.709 302.662 194.541 303.698H198.013C198.013 302.746 197.355 302.116 196.333 302.116ZM203.497 307.842H201.789V302.354H200.459V300.926H201.789V298.77H203.497V300.926H204.841V302.354H203.497V307.842ZM208.06 308.024C206.59 308.024 205.694 307.17 205.694 305.868C205.694 304.594 206.618 303.796 208.256 303.67L210.328 303.516V303.362C210.328 302.424 209.768 302.046 208.9 302.046C207.892 302.046 207.332 302.466 207.332 303.194H205.876C205.876 301.696 207.108 300.716 208.984 300.716C210.846 300.716 211.994 301.724 211.994 303.642V307.842H210.496L210.37 306.82C210.076 307.534 209.138 308.024 208.06 308.024ZM208.62 306.736C209.67 306.736 210.342 306.106 210.342 305.042V304.678L208.9 304.79C207.836 304.888 207.43 305.238 207.43 305.798C207.43 306.428 207.85 306.736 208.62 306.736ZM215.534 307.842H213.84V297.426H215.534V307.842ZM216.934 305.742H218.558C218.572 306.344 219.02 306.722 219.804 306.722C220.602 306.722 221.036 306.4 221.036 305.896C221.036 305.546 220.854 305.294 220.238 305.154L218.992 304.86C217.746 304.58 217.144 303.992 217.144 302.886C217.144 301.528 218.292 300.716 219.888 300.716C221.442 300.716 222.492 301.612 222.506 302.956H220.882C220.868 302.368 220.476 301.99 219.818 301.99C219.146 301.99 218.754 302.298 218.754 302.816C218.754 303.208 219.062 303.46 219.65 303.6L220.896 303.894C222.058 304.16 222.646 304.692 222.646 305.756C222.646 307.156 221.456 308.024 219.748 308.024C218.026 308.024 216.934 307.1 216.934 305.742Z" fill="black"/>
          <path id="Polygon 102" d="M194.054 248.221L160.097 267.902M211.228 248.221L245.575 268.128M194.444 356.82L161.072 337.479M210.838 356.82L245.575 336.687M253.682 283.209V322.585M151.6 282.817V321.998" stroke="#6E009A" stroke-width="5.76" stroke-linecap="round"/>
        </g>
        <path id="Polygon 112" d="M191.766 371.242L148.041 346.614M213.246 371.242C231.021 361.23 240.987 355.617 258.762 345.606M135.629 277.011V326.901" stroke="#E4E3E3" stroke-width="5.76" stroke-linecap="round"/>
      </g>
      <g id="mercury">
        <g id="group_hover_10" data-chemical-target="mercury">
          <path id="hover_10" d="M129.379 356.345C133.092 354.201 137.666 354.201 141.379 356.345L183.505 380.666C187.218 382.81 189.505 386.772 189.505 391.059V439.702C189.505 443.989 187.218 447.951 183.505 450.095L141.379 474.416C137.666 476.56 133.092 476.56 129.379 474.416L87.252 450.095C83.5392 447.951 81.252 443.989 81.252 439.702V391.059C81.252 386.772 83.5392 382.81 87.252 380.666L129.379 356.345Z" fill="#E21337"/>
          <path id="Mercury" d="M111.879 421.341H110.143V411.107H111.879L115.183 419.255L118.487 411.107H120.251V421.341H118.515V418.191C118.515 416.133 118.515 415.531 118.613 414.803L116.009 421.341H114.357L111.767 414.817C111.865 415.433 111.879 416.399 111.879 417.673V421.341ZM125.498 421.523C123.44 421.523 121.998 420.025 121.998 417.883C121.998 415.713 123.412 414.215 125.442 414.215C127.514 414.215 128.83 415.601 128.83 417.757V418.275L123.622 418.289C123.748 419.507 124.392 420.123 125.526 420.123C126.464 420.123 127.08 419.759 127.276 419.101H128.858C128.564 420.613 127.304 421.523 125.498 421.523ZM125.456 415.615C124.448 415.615 123.832 416.161 123.664 417.197H127.136C127.136 416.245 126.478 415.615 125.456 415.615ZM134.677 414.397V415.979H134.047C132.815 415.979 132.045 416.637 132.045 417.981V421.341H130.337V414.439H131.947L132.045 415.447C132.339 414.761 132.997 414.299 133.921 414.299C134.159 414.299 134.397 414.327 134.677 414.397ZM135.334 417.869C135.334 415.727 136.748 414.215 138.792 414.215C140.682 414.215 141.97 415.265 142.152 416.931H140.444C140.248 416.147 139.674 415.741 138.862 415.741C137.77 415.741 137.042 416.567 137.042 417.869C137.042 419.171 137.714 419.983 138.806 419.983C139.66 419.983 140.262 419.563 140.444 418.807H142.166C141.956 420.417 140.612 421.523 138.806 421.523C136.706 421.523 135.334 420.067 135.334 417.869ZM148.268 414.425H149.976V421.341H148.394L148.268 420.417C147.848 421.075 146.952 421.523 146.028 421.523C144.432 421.523 143.494 420.445 143.494 418.751V414.425H145.202V418.149C145.202 419.465 145.72 419.997 146.672 419.997C147.75 419.997 148.268 419.367 148.268 418.051V414.425ZM156.22 414.397V415.979H155.59C154.358 415.979 153.588 416.637 153.588 417.981V421.341H151.88V414.439H153.49L153.588 415.447C153.882 414.761 154.54 414.299 155.464 414.299C155.702 414.299 155.94 414.327 156.22 414.397ZM157.119 424.547V423.119H158.141C158.813 423.119 159.233 422.965 159.527 422.153L159.723 421.635L156.937 414.425H158.743L160.521 419.465L162.397 414.425H164.161L160.773 422.881C160.255 424.169 159.527 424.701 158.393 424.701C157.917 424.701 157.497 424.645 157.119 424.547Z" fill="black"/>
          <path id="Polygon 58" d="M126.624 361.38L92.6669 381.061M143.798 361.38L178.146 381.287M127.015 469.979L93.6426 450.638M143.408 469.979L178.146 449.847M186.253 396.368V435.745M84.1699 395.976V435.157" stroke="#E21337" stroke-width="5.76" stroke-linecap="round"/>
        </g>
        <path id="Polygon 61" d="M125.834 484.459L83.2316 459.961M146.762 484.459L191.108 458.958M201.457 391.218V441.096M71.1387 390.722V440.351" stroke="#E4E3E3" stroke-width="5.76" stroke-linecap="round"/>
        <path id="Polygon 110" d="M81.2891 372.689L125.714 347.188" stroke="#E4E3E3" stroke-width="5.76" stroke-linecap="round"/>
      </g>
      <g id="microplastics">
        <g id="group_hover_11" data-chemical-target="microplastics">
          <path id="hover_11" d="M263.379 357.345C267.092 355.201 271.666 355.201 275.379 357.345L317.505 381.666C321.218 383.81 323.505 387.772 323.505 392.059V440.702C323.505 444.989 321.218 448.951 317.505 451.095L275.379 475.416C271.666 477.56 267.092 477.56 263.379 475.416L221.252 451.095C217.539 448.951 215.252 444.989 215.252 440.702V392.059C215.252 387.772 217.539 383.81 221.252 381.666L263.379 357.345Z" fill="#7DABE2"/>
          <path id="Polygon 103" d="M260.169 362.548L226.693 382.229M277.099 362.548L310.959 382.455M260.553 471.147L227.655 451.806M276.714 471.147L310.959 451.015M318.951 397.536V436.913M218.316 397.144V436.325" stroke="#7DABE2" stroke-width="5.76" stroke-linecap="round"/>
          <path id="Microplastics" d="M228.355 423.342H226.619V413.108H228.355L231.659 421.256L234.963 413.108H236.727V423.342H234.991V420.192C234.991 418.134 234.991 417.532 235.089 416.804L232.485 423.342H230.833L228.243 416.818C228.341 417.434 228.355 418.4 228.355 419.674V423.342ZM239.734 415.04C239.146 415.04 238.684 414.578 238.684 414.004C238.684 413.43 239.146 412.982 239.734 412.982C240.294 412.982 240.756 413.43 240.756 414.004C240.756 414.578 240.294 415.04 239.734 415.04ZM238.88 423.342V416.426H240.588V423.342H238.88ZM242.087 419.87C242.087 417.728 243.501 416.216 245.545 416.216C247.435 416.216 248.723 417.266 248.905 418.932H247.197C247.001 418.148 246.427 417.742 245.615 417.742C244.523 417.742 243.795 418.568 243.795 419.87C243.795 421.172 244.467 421.984 245.559 421.984C246.413 421.984 247.015 421.564 247.197 420.808H248.919C248.709 422.418 247.365 423.524 245.559 423.524C243.459 423.524 242.087 422.068 242.087 419.87ZM254.67 416.398V417.98H254.04C252.808 417.98 252.038 418.638 252.038 419.982V423.342H250.33V416.44H251.94L252.038 417.448C252.332 416.762 252.99 416.3 253.914 416.3C254.152 416.3 254.39 416.328 254.67 416.398ZM255.328 419.87C255.328 417.714 256.882 416.23 259.024 416.23C261.166 416.23 262.72 417.714 262.72 419.87C262.72 422.026 261.166 423.51 259.024 423.51C256.882 423.51 255.328 422.026 255.328 419.87ZM257.036 419.87C257.036 421.13 257.848 421.984 259.024 421.984C260.2 421.984 261.012 421.13 261.012 419.87C261.012 418.61 260.2 417.756 259.024 417.756C257.848 417.756 257.036 418.61 257.036 419.87ZM264.214 426.548V416.426H265.796L265.908 417.476C266.328 416.678 267.238 416.216 268.288 416.216C270.234 416.216 271.522 417.63 271.522 419.8C271.522 421.956 270.346 423.524 268.288 423.524C267.252 423.524 266.356 423.118 265.922 422.418V426.548H264.214ZM265.936 419.884C265.936 421.13 266.706 421.984 267.882 421.984C269.086 421.984 269.8 421.116 269.8 419.884C269.8 418.652 269.086 417.77 267.882 417.77C266.706 417.77 265.936 418.638 265.936 419.884ZM274.744 423.342H273.05V412.926H274.744V423.342ZM278.734 423.524C277.264 423.524 276.368 422.67 276.368 421.368C276.368 420.094 277.292 419.296 278.93 419.17L281.002 419.016V418.862C281.002 417.924 280.442 417.546 279.574 417.546C278.566 417.546 278.006 417.966 278.006 418.694H276.55C276.55 417.196 277.782 416.216 279.658 416.216C281.52 416.216 282.668 417.224 282.668 419.142V423.342H281.17L281.044 422.32C280.75 423.034 279.812 423.524 278.734 423.524ZM279.294 422.236C280.344 422.236 281.016 421.606 281.016 420.542V420.178L279.574 420.29C278.51 420.388 278.104 420.738 278.104 421.298C278.104 421.928 278.524 422.236 279.294 422.236ZM283.953 421.242H285.577C285.591 421.844 286.039 422.222 286.823 422.222C287.621 422.222 288.055 421.9 288.055 421.396C288.055 421.046 287.873 420.794 287.257 420.654L286.011 420.36C284.765 420.08 284.163 419.492 284.163 418.386C284.163 417.028 285.311 416.216 286.907 416.216C288.461 416.216 289.511 417.112 289.525 418.456H287.901C287.887 417.868 287.495 417.49 286.837 417.49C286.165 417.49 285.773 417.798 285.773 418.316C285.773 418.708 286.081 418.96 286.669 419.1L287.915 419.394C289.077 419.66 289.665 420.192 289.665 421.256C289.665 422.656 288.475 423.524 286.767 423.524C285.045 423.524 283.953 422.6 283.953 421.242ZM293.458 423.342H291.75V417.854H290.42V416.426H291.75V414.27H293.458V416.426H294.802V417.854H293.458V423.342ZM296.858 415.04C296.27 415.04 295.808 414.578 295.808 414.004C295.808 413.43 296.27 412.982 296.858 412.982C297.418 412.982 297.88 413.43 297.88 414.004C297.88 414.578 297.418 415.04 296.858 415.04ZM296.004 423.342V416.426H297.712V423.342H296.004ZM299.21 419.87C299.21 417.728 300.624 416.216 302.668 416.216C304.558 416.216 305.846 417.266 306.028 418.932H304.32C304.124 418.148 303.55 417.742 302.738 417.742C301.646 417.742 300.918 418.568 300.918 419.87C300.918 421.172 301.59 421.984 302.682 421.984C303.536 421.984 304.138 421.564 304.32 420.808H306.042C305.832 422.418 304.488 423.524 302.682 423.524C300.582 423.524 299.21 422.068 299.21 419.87ZM306.922 421.242H308.546C308.56 421.844 309.008 422.222 309.792 422.222C310.59 422.222 311.024 421.9 311.024 421.396C311.024 421.046 310.842 420.794 310.226 420.654L308.98 420.36C307.734 420.08 307.132 419.492 307.132 418.386C307.132 417.028 308.28 416.216 309.876 416.216C311.43 416.216 312.48 417.112 312.494 418.456H310.87C310.856 417.868 310.464 417.49 309.806 417.49C309.134 417.49 308.742 417.798 308.742 418.316C308.742 418.708 309.05 418.96 309.638 419.1L310.884 419.394C312.046 419.66 312.634 420.192 312.634 421.256C312.634 422.656 311.444 423.524 309.736 423.524C308.014 423.524 306.922 422.6 306.922 421.242Z" fill="black"/>
        </g>
        <path id="Polygon 108" d="M257.255 485.631L214.652 461.132M278.182 485.631L322.529 460.13M332.878 392.39V442.267" stroke="#E4E3E3" stroke-width="5.76" stroke-linecap="round"/>
      </g>
    </g>
</svg>
