<svg class="chemicals-svg" xmlns="http://www.w3.org/2000/svg" width="400" height="600" viewBox="0 0 400 600" fill="none">
    <g id="mobile">
        <g id="pesticides">
            <g id="group_hover" data-chemical-target="pesticides">
                <path id="hover" d="M63.3799 126.345C67.0927 124.201 71.6671 124.201 75.3799 126.345L117.506 150.666C121.219 152.81 123.506 156.772 123.506 161.059V209.702C123.506 213.989 121.219 217.951 117.506 220.095L75.3799 244.416C71.6671 246.56 67.0927 246.56 63.3799 244.416L21.2533 220.095C17.5405 217.951 15.2533 213.989 15.2533 209.702V161.059C15.2533 156.772 17.5405 152.81 21.2533 150.666L63.3799 126.345Z" fill="#5658E7"/>
                <path id="Pesticides" d="M39.9116 185.813H37.6576V189.341H35.8656V179.107H39.9116C41.9696 179.107 43.2996 180.451 43.2996 182.453C43.2996 184.427 41.9556 185.813 39.9116 185.813ZM39.5616 180.703H37.6576V184.217H39.5336C40.7656 184.217 41.4236 183.559 41.4236 182.439C41.4236 181.319 40.7516 180.703 39.5616 180.703ZM47.4472 189.523C45.3892 189.523 43.9472 188.025 43.9472 185.883C43.9472 183.713 45.3612 182.215 47.3912 182.215C49.4632 182.215 50.7792 183.601 50.7792 185.757V186.275L45.5712 186.289C45.6972 187.507 46.3412 188.123 47.4752 188.123C48.4132 188.123 49.0292 187.759 49.2252 187.101H50.8072C50.5132 188.613 49.2532 189.523 47.4472 189.523ZM47.4052 183.615C46.3972 183.615 45.7812 184.161 45.6132 185.197H49.0852C49.0852 184.245 48.4272 183.615 47.4052 183.615ZM51.7542 187.241H53.3782C53.3922 187.843 53.8402 188.221 54.6242 188.221C55.4222 188.221 55.8562 187.899 55.8562 187.395C55.8562 187.045 55.6742 186.793 55.0582 186.653L53.8122 186.359C52.5662 186.079 51.9642 185.491 51.9642 184.385C51.9642 183.027 53.1122 182.215 54.7082 182.215C56.2622 182.215 57.3122 183.111 57.3262 184.455H55.7022C55.6882 183.867 55.2962 183.489 54.6382 183.489C53.9662 183.489 53.5742 183.797 53.5742 184.315C53.5742 184.707 53.8822 184.959 54.4702 185.099L55.7162 185.393C56.8782 185.659 57.4662 186.191 57.4662 187.255C57.4662 188.655 56.2762 189.523 54.5682 189.523C52.8462 189.523 51.7542 188.599 51.7542 187.241ZM61.2587 189.341H59.5507V183.853H58.2207V182.425H59.5507V180.269H61.2587V182.425H62.6027V183.853H61.2587V189.341ZM64.6585 181.039C64.0705 181.039 63.6085 180.577 63.6085 180.003C63.6085 179.429 64.0705 178.981 64.6585 178.981C65.2185 178.981 65.6805 179.429 65.6805 180.003C65.6805 180.577 65.2185 181.039 64.6585 181.039ZM63.8045 189.341V182.425H65.5125V189.341H63.8045ZM67.0111 185.869C67.0111 183.727 68.4251 182.215 70.4691 182.215C72.3591 182.215 73.6471 183.265 73.8291 184.931H72.1211C71.9251 184.147 71.3511 183.741 70.5391 183.741C69.4471 183.741 68.7191 184.567 68.7191 185.869C68.7191 187.171 69.3911 187.983 70.4831 187.983C71.3371 187.983 71.9391 187.563 72.1211 186.807H73.8431C73.6331 188.417 72.2891 189.523 70.4831 189.523C68.3831 189.523 67.0111 188.067 67.0111 185.869ZM76.1084 181.039C75.5204 181.039 75.0584 180.577 75.0584 180.003C75.0584 179.429 75.5204 178.981 76.1084 178.981C76.6684 178.981 77.1304 179.429 77.1304 180.003C77.1304 180.577 76.6684 181.039 76.1084 181.039ZM75.2544 189.341V182.425H76.9624V189.341H75.2544ZM81.7091 189.523C79.7071 189.523 78.4611 188.053 78.4611 185.911C78.4611 183.755 79.7211 182.215 81.8071 182.215C82.7731 182.215 83.6271 182.621 84.0611 183.307V178.925H85.7551V189.341H84.1871L84.0751 188.263C83.6551 189.061 82.7591 189.523 81.7091 189.523ZM82.0871 187.955C83.2771 187.955 84.0471 187.101 84.0471 185.855C84.0471 184.609 83.2771 183.741 82.0871 183.741C80.8971 183.741 80.1691 184.623 80.1691 185.855C80.1691 187.087 80.8971 187.955 82.0871 187.955ZM90.769 189.523C88.711 189.523 87.269 188.025 87.269 185.883C87.269 183.713 88.683 182.215 90.713 182.215C92.785 182.215 94.101 183.601 94.101 185.757V186.275L88.893 186.289C89.019 187.507 89.663 188.123 90.797 188.123C91.735 188.123 92.351 187.759 92.547 187.101H94.129C93.835 188.613 92.575 189.523 90.769 189.523ZM90.727 183.615C89.719 183.615 89.103 184.161 88.935 185.197H92.407C92.407 184.245 91.749 183.615 90.727 183.615ZM95.076 187.241H96.7C96.714 187.843 97.162 188.221 97.946 188.221C98.744 188.221 99.178 187.899 99.178 187.395C99.178 187.045 98.996 186.793 98.38 186.653L97.134 186.359C95.888 186.079 95.286 185.491 95.286 184.385C95.286 183.027 96.434 182.215 98.03 182.215C99.584 182.215 100.634 183.111 100.648 184.455H99.024C99.01 183.867 98.618 183.489 97.96 183.489C97.288 183.489 96.896 183.797 96.896 184.315C96.896 184.707 97.204 184.959 97.792 185.099L99.038 185.393C100.2 185.659 100.788 186.191 100.788 187.255C100.788 188.655 99.598 189.523 97.89 189.523C96.168 189.523 95.076 188.599 95.076 187.241Z" fill="black"/>
                <path id="Polygon 106" d="M61.0641 130.861L27.5883 150.541M77.9944 130.861L111.855 150.767M61.4488 239.46L28.5503 220.119M77.6097 239.46L111.855 219.327M119.847 165.848V205.225M19.2119 165.457V204.637" stroke="#5658E7" stroke-width="5.76" stroke-linecap="round"/>
            </g>
            <path id="Polygon 109" d="M57.077 116.349L13.7271 141.278M79.0011 116.349L122.849 141.564M57.5751 253.907L14.9727 229.409M78.5029 253.907L122.849 228.406M133.198 160.667V210.544M2.87988 160.17V209.799" stroke="#E4E3E3" stroke-width="5.76" stroke-linecap="round"/>
        </g>
        <g id="endocrine_disruptors">
            <g id="group_hover_2" data-chemical-target="endocrine_disruptors">
                <path id="hover_2" d="M129.38 240.345C133.093 238.201 137.667 238.201 141.38 240.345L183.506 264.666C187.219 266.81 189.506 270.772 189.506 275.059V323.702C189.506 327.989 187.219 331.951 183.506 334.095L141.38 358.416C137.667 360.56 133.093 360.56 129.38 358.416L87.2533 334.095C83.5405 331.951 81.2533 327.989 81.2533 323.702V275.059C81.2533 270.772 83.5405 266.81 87.2533 264.666L129.38 240.345Z" fill="#1B90B1"/>
                <path id="Endocrine disruptors" d="M109.466 297.341H103.11V287.107H109.466V288.759H104.902V291.391H108.99V292.973H104.902V295.689H109.466V297.341ZM113.004 297.341H111.296V290.425H112.878L113.018 291.321C113.452 290.621 114.292 290.215 115.23 290.215C116.966 290.215 117.862 291.293 117.862 293.085V297.341H116.154V293.491C116.154 292.329 115.58 291.769 114.698 291.769C113.648 291.769 113.004 292.497 113.004 293.617V297.341ZM122.523 297.523C120.521 297.523 119.275 296.053 119.275 293.911C119.275 291.755 120.535 290.215 122.621 290.215C123.587 290.215 124.441 290.621 124.875 291.307V286.925H126.569V297.341H125.001L124.889 296.263C124.469 297.061 123.573 297.523 122.523 297.523ZM122.901 295.955C124.091 295.955 124.861 295.101 124.861 293.855C124.861 292.609 124.091 291.741 122.901 291.741C121.711 291.741 120.983 292.623 120.983 293.855C120.983 295.087 121.711 295.955 122.901 295.955ZM128.083 293.869C128.083 291.713 129.637 290.229 131.779 290.229C133.921 290.229 135.475 291.713 135.475 293.869C135.475 296.025 133.921 297.509 131.779 297.509C129.637 297.509 128.083 296.025 128.083 293.869ZM129.791 293.869C129.791 295.129 130.603 295.983 131.779 295.983C132.955 295.983 133.767 295.129 133.767 293.869C133.767 292.609 132.955 291.755 131.779 291.755C130.603 291.755 129.791 292.609 129.791 293.869ZM136.562 293.869C136.562 291.727 137.976 290.215 140.02 290.215C141.91 290.215 143.198 291.265 143.38 292.931H141.672C141.476 292.147 140.902 291.741 140.09 291.741C138.998 291.741 138.27 292.567 138.27 293.869C138.27 295.171 138.942 295.983 140.034 295.983C140.888 295.983 141.49 295.563 141.672 294.807H143.394C143.184 296.417 141.84 297.523 140.034 297.523C137.934 297.523 136.562 296.067 136.562 293.869ZM149.146 290.397V291.979H148.516C147.284 291.979 146.514 292.637 146.514 293.981V297.341H144.806V290.439H146.416L146.514 291.447C146.808 290.761 147.466 290.299 148.39 290.299C148.628 290.299 148.866 290.327 149.146 290.397ZM151.296 289.039C150.708 289.039 150.246 288.577 150.246 288.003C150.246 287.429 150.708 286.981 151.296 286.981C151.856 286.981 152.318 287.429 152.318 288.003C152.318 288.577 151.856 289.039 151.296 289.039ZM150.442 297.341V290.425H152.15V297.341H150.442ZM155.762 297.341H154.054V290.425H155.636L155.776 291.321C156.21 290.621 157.05 290.215 157.988 290.215C159.724 290.215 160.62 291.293 160.62 293.085V297.341H158.912V293.491C158.912 292.329 158.338 291.769 157.456 291.769C156.406 291.769 155.762 292.497 155.762 293.617V297.341ZM165.533 297.523C163.475 297.523 162.033 296.025 162.033 293.883C162.033 291.713 163.447 290.215 165.477 290.215C167.549 290.215 168.865 291.601 168.865 293.757V294.275L163.657 294.289C163.783 295.507 164.427 296.123 165.561 296.123C166.499 296.123 167.115 295.759 167.311 295.101H168.893C168.599 296.613 167.339 297.523 165.533 297.523ZM165.491 291.615C164.483 291.615 163.867 292.161 163.699 293.197H167.171C167.171 292.245 166.513 291.615 165.491 291.615ZM105.884 315.523C103.882 315.523 102.636 314.053 102.636 311.911C102.636 309.755 103.896 308.215 105.982 308.215C106.948 308.215 107.802 308.621 108.236 309.307V304.925H109.93V315.341H108.362L108.25 314.263C107.83 315.061 106.934 315.523 105.884 315.523ZM106.262 313.955C107.452 313.955 108.222 313.101 108.222 311.855C108.222 310.609 107.452 309.741 106.262 309.741C105.072 309.741 104.344 310.623 104.344 311.855C104.344 313.087 105.072 313.955 106.262 313.955ZM112.704 307.039C112.116 307.039 111.654 306.577 111.654 306.003C111.654 305.429 112.116 304.981 112.704 304.981C113.264 304.981 113.726 305.429 113.726 306.003C113.726 306.577 113.264 307.039 112.704 307.039ZM111.85 315.341V308.425H113.558V315.341H111.85ZM114.931 313.241H116.555C116.569 313.843 117.017 314.221 117.801 314.221C118.599 314.221 119.033 313.899 119.033 313.395C119.033 313.045 118.851 312.793 118.235 312.653L116.989 312.359C115.743 312.079 115.141 311.491 115.141 310.385C115.141 309.027 116.289 308.215 117.885 308.215C119.439 308.215 120.489 309.111 120.503 310.455H118.879C118.865 309.867 118.473 309.489 117.815 309.489C117.143 309.489 116.751 309.797 116.751 310.315C116.751 310.707 117.059 310.959 117.647 311.099L118.893 311.393C120.055 311.659 120.643 312.191 120.643 313.255C120.643 314.655 119.453 315.523 117.745 315.523C116.023 315.523 114.931 314.599 114.931 313.241ZM126.423 308.397V309.979H125.793C124.561 309.979 123.791 310.637 123.791 311.981V315.341H122.083V308.439H123.693L123.791 309.447C124.085 308.761 124.743 308.299 125.667 308.299C125.905 308.299 126.143 308.327 126.423 308.397ZM132.409 308.425H134.117V315.341H132.535L132.409 314.417C131.989 315.075 131.093 315.523 130.169 315.523C128.573 315.523 127.635 314.445 127.635 312.751V308.425H129.343V312.149C129.343 313.465 129.861 313.997 130.813 313.997C131.891 313.997 132.409 313.367 132.409 312.051V308.425ZM136.021 318.547V308.425H137.603L137.715 309.475C138.135 308.677 139.045 308.215 140.095 308.215C142.041 308.215 143.329 309.629 143.329 311.799C143.329 313.955 142.153 315.523 140.095 315.523C139.059 315.523 138.163 315.117 137.729 314.417V318.547H136.021ZM137.743 311.883C137.743 313.129 138.513 313.983 139.689 313.983C140.893 313.983 141.607 313.115 141.607 311.883C141.607 310.651 140.893 309.769 139.689 309.769C138.513 309.769 137.743 310.637 137.743 311.883ZM147.113 315.341H145.405V309.853H144.075V308.425H145.405V306.269H147.113V308.425H148.457V309.853H147.113V315.341ZM149.185 311.869C149.185 309.713 150.739 308.229 152.881 308.229C155.023 308.229 156.577 309.713 156.577 311.869C156.577 314.025 155.023 315.509 152.881 315.509C150.739 315.509 149.185 314.025 149.185 311.869ZM150.893 311.869C150.893 313.129 151.705 313.983 152.881 313.983C154.057 313.983 154.869 313.129 154.869 311.869C154.869 310.609 154.057 309.755 152.881 309.755C151.705 309.755 150.893 310.609 150.893 311.869ZM162.41 308.397V309.979H161.78C160.548 309.979 159.778 310.637 159.778 311.981V315.341H158.07V308.439H159.68L159.778 309.447C160.072 308.761 160.73 308.299 161.654 308.299C161.892 308.299 162.13 308.327 162.41 308.397ZM163.174 313.241H164.798C164.812 313.843 165.26 314.221 166.044 314.221C166.842 314.221 167.276 313.899 167.276 313.395C167.276 313.045 167.094 312.793 166.478 312.653L165.232 312.359C163.986 312.079 163.384 311.491 163.384 310.385C163.384 309.027 164.532 308.215 166.128 308.215C167.682 308.215 168.732 309.111 168.746 310.455H167.122C167.108 309.867 166.716 309.489 166.058 309.489C165.386 309.489 164.994 309.797 164.994 310.315C164.994 310.707 165.302 310.959 165.89 311.099L167.136 311.393C168.298 311.659 168.886 312.191 168.886 313.255C168.886 314.655 167.696 315.523 165.988 315.523C164.266 315.523 163.174 314.599 163.174 313.241Z" fill="black"/>
                <path id="Polygon 51" d="M126.819 245.564L93.3432 265.244M143.749 245.564L177.61 265.47M127.204 354.163L94.3052 334.822M143.365 354.163L177.61 334.03M185.601 280.552V319.928M84.9668 280.16V319.34" stroke="#1B90B1" stroke-width="5.76" stroke-linecap="round"/>
            </g>
            <path id="Polygon 27" d="M125.211 370.414L82.3715 345.658M146.255 370.414L190.847 344.645M201.254 276.192V326.594M70.2114 275.691V325.842" stroke="#E4E3E3" stroke-width="5.76" stroke-linecap="round"/>
        </g>
        <g id="nanoplastics">
            <g id="group_hover_3" data-chemical-target="nanoplastics">
                <path id="hover_3" d="M259.38 12.3446C263.093 10.201 267.667 10.201 271.38 12.3446L313.506 36.6664C317.219 38.81 319.506 42.7715 319.506 47.0587V95.7023C319.506 99.9895 317.219 103.951 313.506 106.095L271.38 130.416C267.667 132.56 263.093 132.56 259.38 130.416L217.253 106.095C213.54 103.951 211.253 99.9895 211.253 95.7023V47.0587C211.253 42.7715 213.54 38.81 217.253 36.6664L259.38 12.3446Z" fill="#7E1A0E"/>
                <path id="Nano plastics" d="M223.999 75.6149H222.235V65.3809H224.013L228.815 72.6329V65.3809H230.579V75.6149H228.815L223.999 68.3629V75.6149ZM234.791 75.7969C233.321 75.7969 232.425 74.9429 232.425 73.6409C232.425 72.3669 233.349 71.5689 234.987 71.4429L237.059 71.2889V71.1349C237.059 70.1969 236.499 69.8189 235.631 69.8189C234.623 69.8189 234.063 70.2389 234.063 70.9669H232.607C232.607 69.4689 233.839 68.4889 235.715 68.4889C237.577 68.4889 238.725 69.4969 238.725 71.4149V75.6149H237.227L237.101 74.5929C236.807 75.3069 235.869 75.7969 234.791 75.7969ZM235.351 74.5089C236.401 74.5089 237.073 73.8789 237.073 72.8149V72.4509L235.631 72.5629C234.567 72.6609 234.161 73.0109 234.161 73.5709C234.161 74.2009 234.581 74.5089 235.351 74.5089ZM242.251 75.6149H240.543V68.6989H242.125L242.265 69.5949C242.699 68.8949 243.539 68.4889 244.477 68.4889C246.213 68.4889 247.109 69.5669 247.109 71.3589V75.6149H245.401V71.7649C245.401 70.6029 244.827 70.0429 243.945 70.0429C242.895 70.0429 242.251 70.7709 242.251 71.8909V75.6149ZM248.521 72.1429C248.521 69.9869 250.075 68.5029 252.217 68.5029C254.359 68.5029 255.913 69.9869 255.913 72.1429C255.913 74.2989 254.359 75.7829 252.217 75.7829C250.075 75.7829 248.521 74.2989 248.521 72.1429ZM250.229 72.1429C250.229 73.4029 251.041 74.2569 252.217 74.2569C253.393 74.2569 254.205 73.4029 254.205 72.1429C254.205 70.8829 253.393 70.0289 252.217 70.0289C251.041 70.0289 250.229 70.8829 250.229 72.1429ZM261.32 78.8209V68.6989H262.902L263.014 69.7489C263.434 68.9509 264.344 68.4889 265.394 68.4889C267.34 68.4889 268.628 69.9029 268.628 72.0729C268.628 74.2289 267.452 75.7969 265.394 75.7969C264.358 75.7969 263.462 75.3909 263.028 74.6909V78.8209H261.32ZM263.042 72.1569C263.042 73.4029 263.812 74.2569 264.988 74.2569C266.192 74.2569 266.906 73.3889 266.906 72.1569C266.906 70.9249 266.192 70.0429 264.988 70.0429C263.812 70.0429 263.042 70.9109 263.042 72.1569ZM271.85 75.6149H270.156V65.1989H271.85V75.6149ZM275.84 75.7969C274.37 75.7969 273.474 74.9429 273.474 73.6409C273.474 72.3669 274.398 71.5689 276.036 71.4429L278.108 71.2889V71.1349C278.108 70.1969 277.548 69.8189 276.68 69.8189C275.672 69.8189 275.112 70.2389 275.112 70.9669H273.656C273.656 69.4689 274.888 68.4889 276.764 68.4889C278.626 68.4889 279.774 69.4969 279.774 71.4149V75.6149H278.276L278.15 74.5929C277.856 75.3069 276.918 75.7969 275.84 75.7969ZM276.4 74.5089C277.45 74.5089 278.122 73.8789 278.122 72.8149V72.4509L276.68 72.5629C275.616 72.6609 275.21 73.0109 275.21 73.5709C275.21 74.2009 275.63 74.5089 276.4 74.5089ZM281.06 73.5149H282.684C282.698 74.1169 283.146 74.4949 283.93 74.4949C284.728 74.4949 285.162 74.1729 285.162 73.6689C285.162 73.3189 284.98 73.0669 284.364 72.9269L283.118 72.6329C281.872 72.3529 281.27 71.7649 281.27 70.6589C281.27 69.3009 282.418 68.4889 284.014 68.4889C285.568 68.4889 286.618 69.3849 286.632 70.7289H285.008C284.994 70.1409 284.602 69.7629 283.944 69.7629C283.272 69.7629 282.88 70.0709 282.88 70.5889C282.88 70.9809 283.188 71.2329 283.776 71.3729L285.022 71.6669C286.184 71.9329 286.772 72.4649 286.772 73.5289C286.772 74.9289 285.582 75.7969 283.874 75.7969C282.152 75.7969 281.06 74.8729 281.06 73.5149ZM290.564 75.6149H288.856V70.1269H287.526V68.6989H288.856V66.5429H290.564V68.6989H291.908V70.1269H290.564V75.6149ZM293.964 67.3129C293.376 67.3129 292.914 66.8509 292.914 66.2769C292.914 65.7029 293.376 65.2549 293.964 65.2549C294.524 65.2549 294.986 65.7029 294.986 66.2769C294.986 66.8509 294.524 67.3129 293.964 67.3129ZM293.11 75.6149V68.6989H294.818V75.6149H293.11ZM296.317 72.1429C296.317 70.0009 297.731 68.4889 299.775 68.4889C301.665 68.4889 302.953 69.5389 303.135 71.2049H301.427C301.231 70.4209 300.657 70.0149 299.845 70.0149C298.753 70.0149 298.025 70.8409 298.025 72.1429C298.025 73.4449 298.697 74.2569 299.789 74.2569C300.643 74.2569 301.245 73.8369 301.427 73.0809H303.149C302.939 74.6909 301.595 75.7969 299.789 75.7969C297.689 75.7969 296.317 74.3409 296.317 72.1429ZM304.028 73.5149H305.652C305.666 74.1169 306.114 74.4949 306.898 74.4949C307.696 74.4949 308.13 74.1729 308.13 73.6689C308.13 73.3189 307.948 73.0669 307.332 72.9269L306.086 72.6329C304.84 72.3529 304.238 71.7649 304.238 70.6589C304.238 69.3009 305.386 68.4889 306.982 68.4889C308.536 68.4889 309.586 69.3849 309.6 70.7289H307.976C307.962 70.1409 307.57 69.7629 306.912 69.7629C306.24 69.7629 305.848 70.0709 305.848 70.5889C305.848 70.9809 306.156 71.2329 306.744 71.3729L307.99 71.6669C309.152 71.9329 309.74 72.4649 309.74 73.5289C309.74 74.9289 308.55 75.7969 306.842 75.7969C305.12 75.7969 304.028 74.8729 304.028 73.5149Z" fill="black"/>
                <path id="Polygon 107" d="M257.163 17.3571L223.446 37.0374M274.215 17.3571L308.319 37.2635M257.55 125.956L224.415 106.615M273.827 125.956L308.319 105.823M316.368 52.3446V91.7212M215.009 51.9528V91.1335" stroke="#7E1A0E" stroke-width="5.76" stroke-linecap="round"/>
            </g>
            <path id="Polygon 114" d="M253.279 2.88049L209.929 27.9401M275.203 2.88049L319.051 28.228M253.777 141.163L211.174 116.535M274.705 141.163L319.051 115.527M329.4 47.4313V97.5708M199.082 46.9324V96.8225" stroke="#E4E3E3" stroke-width="5.76" stroke-linecap="round"/>
        </g>
        <g id="phthalates">
            <g id="group_hover_4" data-chemical-target="phthalates">
                <path id="hover_4" d="M326.38 125.345C330.093 123.201 334.667 123.201 338.38 125.345L380.506 149.666C384.219 151.81 386.506 155.772 386.506 160.059V208.702C386.506 212.989 384.219 216.951 380.506 219.095L338.38 243.416C334.667 245.56 330.093 245.56 326.38 243.416L284.253 219.095C280.54 216.951 278.253 212.989 278.253 208.702V160.059C278.253 155.772 280.54 151.81 284.253 149.666L326.38 125.345Z" fill="#9B9B9B"/>
                <path id="Polygon 72" d="M323.854 130.361L290.137 150.041M340.906 130.361L375.01 150.267M324.241 238.96L291.106 219.619M340.519 238.96L375.01 218.827M383.059 165.348V204.725M281.701 164.957V204.137" stroke="#9B9B9B" stroke-width="5.76" stroke-linecap="round"/>
                <path id="Phthalates" d="M303.546 186.813H301.292V190.341H299.5V180.107H303.546C305.604 180.107 306.934 181.451 306.934 183.453C306.934 185.427 305.59 186.813 303.546 186.813ZM303.196 181.703H301.292V185.217H303.168C304.4 185.217 305.058 184.559 305.058 183.439C305.058 182.319 304.386 181.703 303.196 181.703ZM310.037 190.341H308.329V179.925H310.051V184.321C310.485 183.649 311.297 183.215 312.291 183.215C313.999 183.215 314.895 184.293 314.895 186.085V190.341H313.187V186.491C313.187 185.329 312.613 184.769 311.745 184.769C310.667 184.769 310.037 185.525 310.037 186.561V190.341ZM319.065 190.341H317.357V184.853H316.027V183.425H317.357V181.269H319.065V183.425H320.409V184.853H319.065V190.341ZM323.319 190.341H321.611V179.925H323.333V184.321C323.767 183.649 324.579 183.215 325.573 183.215C327.281 183.215 328.177 184.293 328.177 186.085V190.341H326.469V186.491C326.469 185.329 325.895 184.769 325.027 184.769C323.949 184.769 323.319 185.525 323.319 186.561V190.341ZM332.053 190.523C330.583 190.523 329.687 189.669 329.687 188.367C329.687 187.093 330.611 186.295 332.249 186.169L334.321 186.015V185.861C334.321 184.923 333.761 184.545 332.893 184.545C331.885 184.545 331.325 184.965 331.325 185.693H329.869C329.869 184.195 331.101 183.215 332.977 183.215C334.839 183.215 335.987 184.223 335.987 186.141V190.341H334.489L334.363 189.319C334.069 190.033 333.131 190.523 332.053 190.523ZM332.613 189.235C333.663 189.235 334.335 188.605 334.335 187.541V187.177L332.893 187.289C331.829 187.387 331.423 187.737 331.423 188.297C331.423 188.927 331.843 189.235 332.613 189.235ZM339.527 190.341H337.833V179.925H339.527V190.341ZM343.517 190.523C342.047 190.523 341.151 189.669 341.151 188.367C341.151 187.093 342.075 186.295 343.713 186.169L345.785 186.015V185.861C345.785 184.923 345.225 184.545 344.357 184.545C343.349 184.545 342.789 184.965 342.789 185.693H341.333C341.333 184.195 342.565 183.215 344.441 183.215C346.303 183.215 347.451 184.223 347.451 186.141V190.341H345.953L345.827 189.319C345.533 190.033 344.595 190.523 343.517 190.523ZM344.077 189.235C345.127 189.235 345.799 188.605 345.799 187.541V187.177L344.357 187.289C343.293 187.387 342.887 187.737 342.887 188.297C342.887 188.927 343.307 189.235 344.077 189.235ZM351.525 190.341H349.817V184.853H348.487V183.425H349.817V181.269H351.525V183.425H352.869V184.853H351.525V190.341ZM357.096 190.523C355.038 190.523 353.596 189.025 353.596 186.883C353.596 184.713 355.01 183.215 357.04 183.215C359.112 183.215 360.428 184.601 360.428 186.757V187.275L355.22 187.289C355.346 188.507 355.99 189.123 357.124 189.123C358.062 189.123 358.678 188.759 358.874 188.101H360.456C360.162 189.613 358.902 190.523 357.096 190.523ZM357.054 184.615C356.046 184.615 355.43 185.161 355.262 186.197H358.734C358.734 185.245 358.076 184.615 357.054 184.615ZM361.403 188.241H363.027C363.041 188.843 363.489 189.221 364.273 189.221C365.071 189.221 365.505 188.899 365.505 188.395C365.505 188.045 365.323 187.793 364.707 187.653L363.461 187.359C362.215 187.079 361.613 186.491 361.613 185.385C361.613 184.027 362.761 183.215 364.357 183.215C365.911 183.215 366.961 184.111 366.975 185.455H365.351C365.337 184.867 364.945 184.489 364.287 184.489C363.615 184.489 363.223 184.797 363.223 185.315C363.223 185.707 363.531 185.959 364.119 186.099L365.365 186.393C366.527 186.659 367.115 187.191 367.115 188.255C367.115 189.655 365.925 190.523 364.217 190.523C362.495 190.523 361.403 189.599 361.403 188.241Z" fill="black"/>
            </g>
            <path id="Polygon 73" d="M342.861 116.033L386.466 141.248M321.554 253.592L279.189 229.093M342.366 253.592L386.466 228.09M396.757 160.351V210.228M265.13 160.591L265.38 209.591" stroke="#E4E3E3" stroke-width="5.76" stroke-linecap="round"/>
        </g>
        <g id="bisphenols">
            <g id="group_hover_5" data-chemical-target="bisphenols">
                <path id="hover_5" d="M194.38 125.345C198.093 123.201 202.667 123.201 206.38 125.345L248.506 149.666C252.219 151.81 254.506 155.772 254.506 160.059V208.702C254.506 212.989 252.219 216.951 248.506 219.095L206.38 243.416C202.667 245.56 198.093 245.56 194.38 243.416L152.253 219.095C148.54 216.951 146.253 212.989 146.253 208.702V160.059C146.253 155.772 148.54 151.81 152.253 149.666L194.38 125.345Z" fill="#D7B040"/>
                <path id="Bisphenols" d="M165.856 189.884V179.65H169.93C171.946 179.65 173.178 180.7 173.178 182.408C173.178 183.542 172.674 184.354 171.708 184.76C172.786 185.11 173.332 185.922 173.332 187.112C173.332 188.862 172.114 189.884 170 189.884H165.856ZM169.776 181.232H167.648V184.018H169.818C170.798 184.018 171.344 183.5 171.344 182.59C171.344 181.708 170.784 181.232 169.776 181.232ZM169.93 185.53H167.648V188.302H169.93C170.938 188.302 171.498 187.812 171.498 186.888C171.498 186.02 170.924 185.53 169.93 185.53ZM175.717 181.582C175.129 181.582 174.667 181.12 174.667 180.546C174.667 179.972 175.129 179.524 175.717 179.524C176.277 179.524 176.739 179.972 176.739 180.546C176.739 181.12 176.277 181.582 175.717 181.582ZM174.863 189.884V182.968H176.571V189.884H174.863ZM177.944 187.784H179.568C179.582 188.386 180.03 188.764 180.814 188.764C181.612 188.764 182.046 188.442 182.046 187.938C182.046 187.588 181.864 187.336 181.248 187.196L180.002 186.902C178.756 186.622 178.154 186.034 178.154 184.928C178.154 183.57 179.302 182.758 180.898 182.758C182.452 182.758 183.502 183.654 183.516 184.998H181.892C181.878 184.41 181.486 184.032 180.828 184.032C180.156 184.032 179.764 184.34 179.764 184.858C179.764 185.25 180.072 185.502 180.66 185.642L181.906 185.936C183.068 186.202 183.656 186.734 183.656 187.798C183.656 189.198 182.466 190.066 180.758 190.066C179.036 190.066 177.944 189.142 177.944 187.784ZM185.096 193.09V182.968H186.678L186.79 184.018C187.21 183.22 188.12 182.758 189.17 182.758C191.116 182.758 192.404 184.172 192.404 186.342C192.404 188.498 191.228 190.066 189.17 190.066C188.134 190.066 187.238 189.66 186.804 188.96V193.09H185.096ZM186.818 186.426C186.818 187.672 187.588 188.526 188.764 188.526C189.968 188.526 190.682 187.658 190.682 186.426C190.682 185.194 189.968 184.312 188.764 184.312C187.588 184.312 186.818 185.18 186.818 186.426ZM195.612 189.884H193.904V179.468H195.626V183.864C196.06 183.192 196.872 182.758 197.866 182.758C199.574 182.758 200.47 183.836 200.47 185.628V189.884H198.762V186.034C198.762 184.872 198.188 184.312 197.32 184.312C196.242 184.312 195.612 185.068 195.612 186.104V189.884ZM205.382 190.066C203.324 190.066 201.882 188.568 201.882 186.426C201.882 184.256 203.296 182.758 205.326 182.758C207.398 182.758 208.714 184.144 208.714 186.3V186.818L203.506 186.832C203.632 188.05 204.276 188.666 205.41 188.666C206.348 188.666 206.964 188.302 207.16 187.644H208.742C208.448 189.156 207.188 190.066 205.382 190.066ZM205.34 184.158C204.332 184.158 203.716 184.704 203.548 185.74H207.02C207.02 184.788 206.362 184.158 205.34 184.158ZM211.929 189.884H210.221V182.968H211.803L211.943 183.864C212.377 183.164 213.217 182.758 214.155 182.758C215.891 182.758 216.787 183.836 216.787 185.628V189.884H215.079V186.034C215.079 184.872 214.505 184.312 213.623 184.312C212.573 184.312 211.929 185.04 211.929 186.16V189.884ZM218.2 186.412C218.2 184.256 219.754 182.772 221.896 182.772C224.038 182.772 225.592 184.256 225.592 186.412C225.592 188.568 224.038 190.052 221.896 190.052C219.754 190.052 218.2 188.568 218.2 186.412ZM219.908 186.412C219.908 187.672 220.72 188.526 221.896 188.526C223.072 188.526 223.884 187.672 223.884 186.412C223.884 185.152 223.072 184.298 221.896 184.298C220.72 184.298 219.908 185.152 219.908 186.412ZM228.807 189.884H227.113V179.468H228.807V189.884ZM230.207 187.784H231.831C231.845 188.386 232.293 188.764 233.077 188.764C233.875 188.764 234.309 188.442 234.309 187.938C234.309 187.588 234.127 187.336 233.511 187.196L232.265 186.902C231.019 186.622 230.417 186.034 230.417 184.928C230.417 183.57 231.565 182.758 233.161 182.758C234.715 182.758 235.765 183.654 235.779 184.998H234.155C234.141 184.41 233.749 184.032 233.091 184.032C232.419 184.032 232.027 184.34 232.027 184.858C232.027 185.25 232.335 185.502 232.923 185.642L234.169 185.936C235.331 186.202 235.919 186.734 235.919 187.798C235.919 189.198 234.729 190.066 233.021 190.066C231.299 190.066 230.207 189.142 230.207 187.784Z" fill="black"/>
                <path id="Polygon 115" d="M192.054 130.861L158.097 150.541M209.228 130.861L243.575 150.767M192.444 239.46L159.072 220.119M208.838 239.46L243.575 219.327M251.682 165.848V205.225M149.6 165.457V204.637" stroke="#D7B040" stroke-width="5.76" stroke-linecap="round"/>
            </g>
            <path id="Polygon 116" d="M189.818 116.22L146.468 141.28M190.316 254.503L147.713 229.875M211.244 254.503L255.59 228.867" stroke="#E4E3E3" stroke-width="5.76" stroke-linecap="round"/>
        </g>
        <g id="arsenic">
            <g id="group_hover_6" data-chemical-target="arsenic">
                <path id="hover_6" d="M326.38 354.345C330.093 352.201 334.667 352.201 338.38 354.345L380.506 378.666C384.219 380.81 386.506 384.772 386.506 389.059V437.702C386.506 441.989 384.219 445.951 380.506 448.095L338.38 472.416C334.667 474.56 330.093 474.56 326.38 472.416L284.253 448.095C280.54 445.951 278.253 441.989 278.253 437.702V389.059C278.253 384.772 280.54 380.81 284.253 378.666L326.38 354.345Z" fill="#C064E4"/>
                <path id="Polygon 105" d="M323.854 359.22L290.137 378.901M340.906 359.22L375.01 379.127M324.241 467.819L291.106 448.478M340.519 467.819L375.01 447.686M383.059 394.208V433.584M281.701 393.816V432.997" stroke="#C064E4" stroke-width="5.76" stroke-linecap="round"/>
                <path id="Arsenic" d="M310.119 419.341H308.257L311.953 409.107H313.787L317.483 419.341H315.593L314.767 416.975H310.945L310.119 419.341ZM312.639 412.159L311.477 415.463H314.249L313.073 412.159C312.989 411.893 312.891 411.585 312.863 411.375C312.821 411.571 312.737 411.879 312.639 412.159ZM322.995 412.397V413.979H322.365C321.133 413.979 320.363 414.637 320.363 415.981V419.341H318.655V412.439H320.265L320.363 413.447C320.657 412.761 321.315 412.299 322.239 412.299C322.477 412.299 322.715 412.327 322.995 412.397ZM323.759 417.241H325.383C325.397 417.843 325.845 418.221 326.629 418.221C327.427 418.221 327.861 417.899 327.861 417.395C327.861 417.045 327.679 416.793 327.063 416.653L325.817 416.359C324.571 416.079 323.969 415.491 323.969 414.385C323.969 413.027 325.117 412.215 326.713 412.215C328.267 412.215 329.317 413.111 329.331 414.455H327.707C327.693 413.867 327.301 413.489 326.643 413.489C325.971 413.489 325.579 413.797 325.579 414.315C325.579 414.707 325.887 414.959 326.475 415.099L327.721 415.393C328.883 415.659 329.471 416.191 329.471 417.255C329.471 418.655 328.281 419.523 326.573 419.523C324.851 419.523 323.759 418.599 323.759 417.241ZM334.005 419.523C331.947 419.523 330.505 418.025 330.505 415.883C330.505 413.713 331.919 412.215 333.949 412.215C336.021 412.215 337.337 413.601 337.337 415.757V416.275L332.129 416.289C332.255 417.507 332.899 418.123 334.033 418.123C334.971 418.123 335.587 417.759 335.783 417.101H337.365C337.071 418.613 335.811 419.523 334.005 419.523ZM333.963 413.615C332.955 413.615 332.339 414.161 332.171 415.197H335.643C335.643 414.245 334.985 413.615 333.963 413.615ZM340.552 419.341H338.844V412.425H340.426L340.566 413.321C341 412.621 341.84 412.215 342.778 412.215C344.514 412.215 345.41 413.293 345.41 415.085V419.341H343.702V415.491C343.702 414.329 343.128 413.769 342.246 413.769C341.196 413.769 340.552 414.497 340.552 415.617V419.341ZM348.082 411.039C347.494 411.039 347.032 410.577 347.032 410.003C347.032 409.429 347.494 408.981 348.082 408.981C348.642 408.981 349.104 409.429 349.104 410.003C349.104 410.577 348.642 411.039 348.082 411.039ZM347.228 419.341V412.425H348.936V419.341H347.228ZM350.435 415.869C350.435 413.727 351.849 412.215 353.893 412.215C355.783 412.215 357.071 413.265 357.253 414.931H355.545C355.349 414.147 354.775 413.741 353.963 413.741C352.871 413.741 352.143 414.567 352.143 415.869C352.143 417.171 352.815 417.983 353.907 417.983C354.761 417.983 355.363 417.563 355.545 416.807H357.267C357.057 418.417 355.713 419.523 353.907 419.523C351.807 419.523 350.435 418.067 350.435 415.869Z" fill="black"/>
            </g>
            <path id="Polygon 79" d="M396.88 388.88V438.88" stroke="#E4E3E3" stroke-width="5.76" stroke-linecap="round"/>
            <path id="Polygon 111" d="M321.621 343.13L278.194 368.19M343.584 343.13L387.51 368.478M322.12 481.413L279.442 456.785M343.085 481.413L387.51 455.777M267.328 387.182V437.072" stroke="#E4E3E3" stroke-width="5.76" stroke-linecap="round"/>
        </g>
        <g id="pfass">
            <g id="group_hover_7" data-chemical-target="pfass">
                <path id="hover_7" d="M261.38 240.345C265.093 238.201 269.667 238.201 273.38 240.345L315.506 264.666C319.219 266.81 321.506 270.772 321.506 275.059V323.702C321.506 327.989 319.219 331.951 315.506 334.095L273.38 358.416C269.667 360.56 265.093 360.56 261.38 358.416L219.253 334.095C215.54 331.951 213.253 327.989 213.253 323.702V275.059C213.253 270.772 215.54 266.81 219.253 264.666L261.38 240.345Z" fill="#E45C4D"/>
                <path id="PFASs" d="M252.749 302.813H250.495V306.341H248.703V296.107H252.749C254.807 296.107 256.137 297.451 256.137 299.453C256.137 301.427 254.793 302.813 252.749 302.813ZM252.399 297.703H250.495V301.217H252.371C253.603 301.217 254.261 300.559 254.261 299.439C254.261 298.319 253.589 297.703 252.399 297.703ZM263.385 302.155H259.577V306.341H257.785V296.107H264.113V297.759H259.577V300.545H263.385V302.155ZM266.121 306.341H264.259L267.955 296.107H269.789L273.485 306.341H271.595L270.769 303.975H266.947L266.121 306.341ZM268.641 299.159L267.479 302.463H270.251L269.075 299.159C268.991 298.893 268.893 298.585 268.865 298.375C268.823 298.571 268.739 298.879 268.641 299.159ZM274.32 298.963C274.32 297.171 275.804 295.925 277.96 295.925C280.032 295.925 281.348 297.073 281.404 298.921H279.612C279.57 298.039 278.94 297.521 277.932 297.521C276.826 297.521 276.112 298.053 276.112 298.907C276.112 299.635 276.504 300.041 277.358 300.237L278.968 300.587C280.718 300.965 281.572 301.861 281.572 303.387C281.572 305.291 280.088 306.523 277.834 306.523C275.65 306.523 274.222 305.361 274.18 303.527H275.972C275.986 304.395 276.686 304.913 277.834 304.913C279.024 304.913 279.78 304.395 279.78 303.541C279.78 302.855 279.43 302.449 278.59 302.267L276.966 301.903C275.23 301.525 274.32 300.531 274.32 298.963ZM282.55 304.241H284.174C284.188 304.843 284.636 305.221 285.42 305.221C286.218 305.221 286.652 304.899 286.652 304.395C286.652 304.045 286.47 303.793 285.854 303.653L284.608 303.359C283.362 303.079 282.76 302.491 282.76 301.385C282.76 300.027 283.908 299.215 285.504 299.215C287.058 299.215 288.108 300.111 288.122 301.455H286.498C286.484 300.867 286.092 300.489 285.434 300.489C284.762 300.489 284.37 300.797 284.37 301.315C284.37 301.707 284.678 301.959 285.266 302.099L286.512 302.393C287.674 302.659 288.262 303.191 288.262 304.255C288.262 305.655 287.072 306.523 285.364 306.523C283.642 306.523 282.55 305.599 282.55 304.241Z" fill="black"/>
                <path id="Polygon 78" d="M258.4 245.142L224.683 264.823M275.452 245.142L309.556 265.049M258.787 353.741L225.652 334.4M275.065 353.741L309.556 333.608M317.605 280.13V319.506M216.247 279.738V318.919" stroke="#E45C4D" stroke-width="5.76" stroke-linecap="round"/>
            </g>
            <path id="Polygon 113" d="M256.575 368.189L213.973 343.69M332.198 274.948V324.825" stroke="#E4E3E3" stroke-width="5.76" stroke-linecap="round"/>
        </g>
        <g id="dinch">
            <g id="group_hover_8" data-chemical-target="dinch">
                <path id="hover_8" d="M63.3799 354.345C67.0927 352.201 71.6671 352.201 75.3799 354.345L117.506 378.666C121.219 380.81 123.506 384.772 123.506 389.059V437.702C123.506 441.989 121.219 445.951 117.506 448.095L75.3799 472.416C71.6671 474.56 67.0927 474.56 63.3799 472.416L21.2533 448.095C17.5405 445.951 15.2533 441.989 15.2533 437.702V389.059C15.2533 384.772 17.5405 380.81 21.2533 378.666L63.3799 354.345Z" fill="#CF782B"/>
                <path id="DINCH &amp; Plasticisers" d="M45.9757 410.341H42.2937V400.107H45.8777C48.9017 400.107 50.9877 402.193 50.9877 405.245C50.9877 408.255 48.9437 410.341 45.9757 410.341ZM45.7097 401.759H44.0857V408.689H45.8077C47.8517 408.689 49.0977 407.373 49.0977 405.245C49.0977 403.075 47.8237 401.759 45.7097 401.759ZM54.5889 400.107V410.341H52.7969V400.107H54.5889ZM58.7615 410.341H56.9975V400.107H58.7755L63.5775 407.359V400.107H65.3415V410.341H63.5775L58.7615 403.089V410.341ZM72.0729 410.509C69.0909 410.509 67.1589 408.437 67.1589 405.231C67.1589 402.053 69.1609 399.939 72.1569 399.939C74.5789 399.939 76.3849 401.353 76.7349 403.551H74.8449C74.4949 402.361 73.4729 401.661 72.1149 401.661C70.2249 401.661 69.0349 403.033 69.0349 405.217C69.0349 407.387 70.2389 408.787 72.1149 408.787C73.5009 408.787 74.5649 408.059 74.9009 406.925H76.7629C76.3709 409.081 74.4949 410.509 72.0729 410.509ZM80.3019 410.341H78.5099V400.107H80.3019V404.335H84.8379V400.107H86.6299V410.341H84.8379V406.001H80.3019V410.341ZM99.5301 410.341L98.8441 409.571C98.0321 410.187 96.9961 410.523 95.7641 410.523C93.5381 410.523 92.0401 409.347 92.0401 407.625C92.0401 406.379 92.8521 405.357 94.4201 404.601C93.6221 403.677 93.3141 403.047 93.3141 402.277C93.3141 400.919 94.4201 399.939 95.9321 399.939C97.4301 399.939 98.4661 400.863 98.4661 402.193C98.4661 403.215 97.9201 404.027 96.6461 404.881L98.7041 407.191C98.8861 406.701 98.9841 406.113 98.9841 405.441H100.65C100.65 406.631 100.37 407.653 99.8521 408.465L101.518 410.341H99.5301ZM94.9381 402.263C94.9381 402.767 95.1621 403.187 95.8201 403.943C96.5341 403.523 96.8841 402.949 96.8841 402.249C96.8841 401.647 96.5201 401.297 95.9321 401.297C95.3161 401.297 94.9381 401.661 94.9381 402.263ZM93.8461 407.457C93.8461 408.451 94.6441 409.053 95.9601 409.053C96.7301 409.053 97.3601 408.843 97.8501 408.451L95.2461 405.525C94.2801 406.071 93.8461 406.659 93.8461 407.457ZM39.504 424.813H37.25V428.341H35.458V418.107H39.504C41.562 418.107 42.892 419.451 42.892 421.453C42.892 423.427 41.548 424.813 39.504 424.813ZM39.154 419.703H37.25V423.217H39.126C40.358 423.217 41.016 422.559 41.016 421.439C41.016 420.319 40.344 419.703 39.154 419.703ZM46.0094 428.341H44.3154V417.925H46.0094V428.341ZM49.9991 428.523C48.5291 428.523 47.6331 427.669 47.6331 426.367C47.6331 425.093 48.5571 424.295 50.1951 424.169L52.2671 424.015V423.861C52.2671 422.923 51.7071 422.545 50.8391 422.545C49.8311 422.545 49.2711 422.965 49.2711 423.693H47.8151C47.8151 422.195 49.0471 421.215 50.9231 421.215C52.7851 421.215 53.9331 422.223 53.9331 424.141V428.341H52.4351L52.3091 427.319C52.0151 428.033 51.0771 428.523 49.9991 428.523ZM50.5591 427.235C51.6091 427.235 52.2811 426.605 52.2811 425.541V425.177L50.8391 425.289C49.7751 425.387 49.3691 425.737 49.3691 426.297C49.3691 426.927 49.7891 427.235 50.5591 427.235ZM55.219 426.241H56.843C56.857 426.843 57.305 427.221 58.089 427.221C58.887 427.221 59.321 426.899 59.321 426.395C59.321 426.045 59.139 425.793 58.523 425.653L57.277 425.359C56.031 425.079 55.429 424.491 55.429 423.385C55.429 422.027 56.577 421.215 58.173 421.215C59.727 421.215 60.777 422.111 60.791 423.455H59.167C59.153 422.867 58.761 422.489 58.103 422.489C57.431 422.489 57.039 422.797 57.039 423.315C57.039 423.707 57.347 423.959 57.935 424.099L59.181 424.393C60.343 424.659 60.931 425.191 60.931 426.255C60.931 427.655 59.741 428.523 58.033 428.523C56.311 428.523 55.219 427.599 55.219 426.241ZM64.7235 428.341H63.0155V422.853H61.6855V421.425H63.0155V419.269H64.7235V421.425H66.0675V422.853H64.7235V428.341ZM68.1233 420.039C67.5353 420.039 67.0733 419.577 67.0733 419.003C67.0733 418.429 67.5353 417.981 68.1233 417.981C68.6833 417.981 69.1453 418.429 69.1453 419.003C69.1453 419.577 68.6833 420.039 68.1233 420.039ZM67.2693 428.341V421.425H68.9773V428.341H67.2693ZM70.4759 424.869C70.4759 422.727 71.8899 421.215 73.9339 421.215C75.8239 421.215 77.1119 422.265 77.2939 423.931H75.5859C75.3899 423.147 74.8159 422.741 74.0039 422.741C72.9119 422.741 72.1839 423.567 72.1839 424.869C72.1839 426.171 72.8559 426.983 73.9479 426.983C74.8019 426.983 75.4039 426.563 75.5859 425.807H77.3079C77.0979 427.417 75.7539 428.523 73.9479 428.523C71.8479 428.523 70.4759 427.067 70.4759 424.869ZM79.5732 420.039C78.9852 420.039 78.5232 419.577 78.5232 419.003C78.5232 418.429 78.9852 417.981 79.5732 417.981C80.1332 417.981 80.5952 418.429 80.5952 419.003C80.5952 419.577 80.1332 420.039 79.5732 420.039ZM78.7192 428.341V421.425H80.4272V428.341H78.7192ZM81.7999 426.241H83.4239C83.4379 426.843 83.8859 427.221 84.6699 427.221C85.4679 427.221 85.9019 426.899 85.9019 426.395C85.9019 426.045 85.7199 425.793 85.1039 425.653L83.8579 425.359C82.6119 425.079 82.0099 424.491 82.0099 423.385C82.0099 422.027 83.1579 421.215 84.7539 421.215C86.3079 421.215 87.3579 422.111 87.3719 423.455H85.7479C85.7339 422.867 85.3419 422.489 84.6839 422.489C84.0119 422.489 83.6199 422.797 83.6199 423.315C83.6199 423.707 83.9279 423.959 84.5159 424.099L85.7619 424.393C86.9239 424.659 87.5119 425.191 87.5119 426.255C87.5119 427.655 86.3219 428.523 84.6139 428.523C82.8919 428.523 81.7999 427.599 81.7999 426.241ZM92.0463 428.523C89.9883 428.523 88.5463 427.025 88.5463 424.883C88.5463 422.713 89.9603 421.215 91.9903 421.215C94.0623 421.215 95.3783 422.601 95.3783 424.757V425.275L90.1703 425.289C90.2963 426.507 90.9403 427.123 92.0743 427.123C93.0123 427.123 93.6283 426.759 93.8243 426.101H95.4063C95.1123 427.613 93.8523 428.523 92.0463 428.523ZM92.0043 422.615C90.9963 422.615 90.3803 423.161 90.2123 424.197H93.6843C93.6843 423.245 93.0263 422.615 92.0043 422.615ZM101.225 421.397V422.979H100.595C99.3633 422.979 98.5933 423.637 98.5933 424.981V428.341H96.8853V421.439H98.4953L98.5933 422.447C98.8873 421.761 99.5453 421.299 100.469 421.299C100.707 421.299 100.945 421.327 101.225 421.397ZM101.989 426.241H103.613C103.627 426.843 104.075 427.221 104.859 427.221C105.657 427.221 106.091 426.899 106.091 426.395C106.091 426.045 105.909 425.793 105.293 425.653L104.047 425.359C102.801 425.079 102.199 424.491 102.199 423.385C102.199 422.027 103.347 421.215 104.943 421.215C106.497 421.215 107.547 422.111 107.561 423.455H105.937C105.923 422.867 105.531 422.489 104.873 422.489C104.201 422.489 103.809 422.797 103.809 423.315C103.809 423.707 104.117 423.959 104.705 424.099L105.951 424.393C107.113 424.659 107.701 425.191 107.701 426.255C107.701 427.655 106.511 428.523 104.803 428.523C103.081 428.523 101.989 427.599 101.989 426.241Z" fill="black"/>
                <path id="Polygon 104" d="M60.9427 359.22L26.9852 378.901M78.1165 359.22L112.464 379.127M61.3329 467.819L27.961 448.478M77.7263 467.819L112.464 447.686M120.571 394.208V433.584M18.4883 393.816V432.997" stroke="#CF782B" stroke-width="5.76" stroke-linecap="round"/>
            </g>
            <path id="Polygon 110" d="M57.8257 346.13L14.3987 371.059M58.3247 483.689L15.6466 459.19M79.2898 483.689L123.715 458.188M3.53223 389.952V439.581" stroke="#E4E3E3" stroke-width="5.76" stroke-linecap="round"/>
        </g>
        <g id="metals">
            <g id="group_hover_9" data-chemical-target="dinch">
                <path id="hover_9" d="M194.38 354.345C198.093 352.201 202.667 352.201 206.38 354.345L248.506 378.666C252.219 380.81 254.506 384.772 254.506 389.059V437.702C254.506 441.989 252.219 445.951 248.506 448.095L206.38 472.416C202.667 474.56 198.093 474.56 194.38 472.416L152.253 448.095C148.54 445.951 146.253 441.989 146.253 437.702V389.059C146.253 384.772 148.54 380.81 152.253 378.666L194.38 354.345Z" fill="#6E009A"/>
                <path id="Metals" d="M180.757 418.841H179.021V408.607H180.757L184.061 416.755L187.365 408.607H189.129V418.841H187.393V415.691C187.393 413.633 187.393 413.031 187.491 412.303L184.887 418.841H183.235L180.645 412.317C180.743 412.933 180.757 413.899 180.757 415.173V418.841ZM194.376 419.023C192.318 419.023 190.876 417.525 190.876 415.383C190.876 413.213 192.29 411.715 194.32 411.715C196.392 411.715 197.708 413.101 197.708 415.257V415.775L192.5 415.789C192.626 417.007 193.27 417.623 194.404 417.623C195.342 417.623 195.958 417.259 196.154 416.601H197.736C197.442 418.113 196.182 419.023 194.376 419.023ZM194.334 413.115C193.326 413.115 192.71 413.661 192.542 414.697H196.014C196.014 413.745 195.356 413.115 194.334 413.115ZM201.498 418.841H199.79V413.353H198.46V411.925H199.79V409.769H201.498V411.925H202.842V413.353H201.498V418.841ZM206.061 419.023C204.591 419.023 203.695 418.169 203.695 416.867C203.695 415.593 204.619 414.795 206.257 414.669L208.329 414.515V414.361C208.329 413.423 207.769 413.045 206.901 413.045C205.893 413.045 205.333 413.465 205.333 414.193H203.877C203.877 412.695 205.109 411.715 206.985 411.715C208.847 411.715 209.995 412.723 209.995 414.641V418.841H208.497L208.371 417.819C208.077 418.533 207.139 419.023 206.061 419.023ZM206.621 417.735C207.671 417.735 208.343 417.105 208.343 416.041V415.677L206.901 415.789C205.837 415.887 205.431 416.237 205.431 416.797C205.431 417.427 205.851 417.735 206.621 417.735ZM213.535 418.841H211.841V408.425H213.535V418.841ZM214.935 416.741H216.559C216.573 417.343 217.021 417.721 217.805 417.721C218.603 417.721 219.037 417.399 219.037 416.895C219.037 416.545 218.855 416.293 218.239 416.153L216.993 415.859C215.747 415.579 215.145 414.991 215.145 413.885C215.145 412.527 216.293 411.715 217.889 411.715C219.443 411.715 220.493 412.611 220.507 413.955H218.883C218.869 413.367 218.477 412.989 217.819 412.989C217.147 412.989 216.755 413.297 216.755 413.815C216.755 414.207 217.063 414.459 217.651 414.599L218.897 414.893C220.059 415.159 220.647 415.691 220.647 416.755C220.647 418.155 219.457 419.023 217.749 419.023C216.027 419.023 214.935 418.099 214.935 416.741Z" fill="black"/>
                <path id="Polygon 102" d="M192.054 359.22L158.097 378.901M209.228 359.22L243.575 379.127M192.444 467.819L159.072 448.478M208.838 467.819L243.575 447.686M251.682 394.208V433.584M149.6 393.816V432.997" stroke="#6E009A" stroke-width="5.76" stroke-linecap="round"/>
            </g>
            <path id="Polygon 112" d="M189.767 482.241L146.042 457.613M211.247 482.241L256.763 456.605M133.63 388.01V437.9" stroke="#E4E3E3" stroke-width="5.76" stroke-linecap="round"/>
        </g>
        <g id="mercury">
            <g id="group_hover_10" data-chemical-target="mercury">
                <path id="hover_10" d="M127.38 467.345C131.093 465.201 135.667 465.201 139.38 467.345L181.506 491.666C185.219 493.81 187.506 497.772 187.506 502.059V550.702C187.506 554.989 185.219 558.951 181.506 561.095L139.38 585.416C135.667 587.56 131.093 587.56 127.38 585.416L85.2533 561.095C81.5405 558.951 79.2533 554.989 79.2533 550.702V502.059C79.2533 497.772 81.5405 493.81 85.2533 491.666L127.38 467.345Z" fill="#E21337"/>
                <path id="Mercury" d="M109.88 532.341H108.144V522.107H109.88L113.184 530.255L116.488 522.107H118.252V532.341H116.516V529.191C116.516 527.133 116.516 526.531 116.614 525.803L114.01 532.341H112.358L109.768 525.817C109.866 526.433 109.88 527.399 109.88 528.673V532.341ZM123.499 532.523C121.441 532.523 119.999 531.025 119.999 528.883C119.999 526.713 121.413 525.215 123.443 525.215C125.515 525.215 126.831 526.601 126.831 528.757V529.275L121.623 529.289C121.749 530.507 122.393 531.123 123.527 531.123C124.465 531.123 125.081 530.759 125.277 530.101H126.859C126.565 531.613 125.305 532.523 123.499 532.523ZM123.457 526.615C122.449 526.615 121.833 527.161 121.665 528.197H125.137C125.137 527.245 124.479 526.615 123.457 526.615ZM132.678 525.397V526.979H132.048C130.816 526.979 130.046 527.637 130.046 528.981V532.341H128.338V525.439H129.948L130.046 526.447C130.34 525.761 130.998 525.299 131.922 525.299C132.16 525.299 132.398 525.327 132.678 525.397ZM133.335 528.869C133.335 526.727 134.749 525.215 136.793 525.215C138.683 525.215 139.971 526.265 140.153 527.931H138.445C138.249 527.147 137.675 526.741 136.863 526.741C135.771 526.741 135.043 527.567 135.043 528.869C135.043 530.171 135.715 530.983 136.807 530.983C137.661 530.983 138.263 530.563 138.445 529.807H140.167C139.957 531.417 138.613 532.523 136.807 532.523C134.707 532.523 133.335 531.067 133.335 528.869ZM146.269 525.425H147.977V532.341H146.395L146.269 531.417C145.849 532.075 144.953 532.523 144.029 532.523C142.433 532.523 141.495 531.445 141.495 529.751V525.425H143.203V529.149C143.203 530.465 143.721 530.997 144.673 530.997C145.751 530.997 146.269 530.367 146.269 529.051V525.425ZM154.221 525.397V526.979H153.591C152.359 526.979 151.589 527.637 151.589 528.981V532.341H149.881V525.439H151.491L151.589 526.447C151.883 525.761 152.541 525.299 153.465 525.299C153.703 525.299 153.941 525.327 154.221 525.397ZM155.12 535.547V534.119H156.142C156.814 534.119 157.234 533.965 157.528 533.153L157.724 532.635L154.938 525.425H156.744L158.522 530.465L160.398 525.425H162.162L158.774 533.881C158.256 535.169 157.528 535.701 156.394 535.701C155.918 535.701 155.498 535.645 155.12 535.547Z" fill="black"/>
                <path id="Polygon 58" d="M124.625 472.38L90.6679 492.061M141.799 472.38L176.147 492.287M125.016 580.979L91.6436 561.638M141.409 580.979L176.147 560.847M184.254 507.368V546.745M82.1709 506.976V546.157" stroke="#E21337" stroke-width="5.76" stroke-linecap="round"/>
            </g>
            <path id="Polygon 61" d="M123.835 595.458L81.2325 570.96M144.763 595.458L189.109 569.957M199.458 502.217V552.095M69.1396 501.721V551.35" stroke="#E4E3E3" stroke-width="5.76" stroke-linecap="round"/>
        </g>
        <g id="microplastics">
            <g id="group_hover_11" data-chemical-target="microplastics">
                <path id="hover_11" d="M261.38 468.345C265.093 466.201 269.667 466.201 273.38 468.345L315.506 492.666C319.219 494.81 321.506 498.772 321.506 503.059V551.702C321.506 555.989 319.219 559.951 315.506 562.095L273.38 586.416C269.667 588.56 265.093 588.56 261.38 586.416L219.253 562.095C215.54 559.951 213.253 555.989 213.253 551.702V503.059C213.253 498.772 215.54 494.81 219.253 492.666L261.38 468.345Z" fill="#7DABE2"/>
                <path id="Polygon 103" d="M258.17 473.548L224.694 493.229M275.1 473.548L308.96 493.455M258.554 582.147L225.656 562.806M274.715 582.147L308.96 562.015M316.952 508.536V547.913M216.317 508.144V547.325" stroke="#7DABE2" stroke-width="5.76" stroke-linecap="round"/>
                <path id="Microplastics" d="M226.357 534.341H224.621V524.107H226.357L229.661 532.255L232.965 524.107H234.729V534.341H232.993V531.191C232.993 529.133 232.993 528.531 233.091 527.803L230.487 534.341H228.835L226.245 527.817C226.343 528.433 226.357 529.399 226.357 530.673V534.341ZM237.736 526.039C237.148 526.039 236.686 525.577 236.686 525.003C236.686 524.429 237.148 523.981 237.736 523.981C238.296 523.981 238.758 524.429 238.758 525.003C238.758 525.577 238.296 526.039 237.736 526.039ZM236.882 534.341V527.425H238.59V534.341H236.882ZM240.089 530.869C240.089 528.727 241.503 527.215 243.547 527.215C245.437 527.215 246.725 528.265 246.907 529.931H245.199C245.003 529.147 244.429 528.741 243.617 528.741C242.525 528.741 241.797 529.567 241.797 530.869C241.797 532.171 242.469 532.983 243.561 532.983C244.415 532.983 245.017 532.563 245.199 531.807H246.921C246.711 533.417 245.367 534.523 243.561 534.523C241.461 534.523 240.089 533.067 240.089 530.869ZM252.672 527.397V528.979H252.042C250.81 528.979 250.04 529.637 250.04 530.981V534.341H248.332V527.439H249.942L250.04 528.447C250.334 527.761 250.992 527.299 251.916 527.299C252.154 527.299 252.392 527.327 252.672 527.397ZM253.33 530.869C253.33 528.713 254.884 527.229 257.026 527.229C259.168 527.229 260.722 528.713 260.722 530.869C260.722 533.025 259.168 534.509 257.026 534.509C254.884 534.509 253.33 533.025 253.33 530.869ZM255.038 530.869C255.038 532.129 255.85 532.983 257.026 532.983C258.202 532.983 259.014 532.129 259.014 530.869C259.014 529.609 258.202 528.755 257.026 528.755C255.85 528.755 255.038 529.609 255.038 530.869ZM262.216 537.547V527.425H263.798L263.91 528.475C264.33 527.677 265.24 527.215 266.29 527.215C268.236 527.215 269.524 528.629 269.524 530.799C269.524 532.955 268.348 534.523 266.29 534.523C265.254 534.523 264.358 534.117 263.924 533.417V537.547H262.216ZM263.938 530.883C263.938 532.129 264.708 532.983 265.884 532.983C267.088 532.983 267.802 532.115 267.802 530.883C267.802 529.651 267.088 528.769 265.884 528.769C264.708 528.769 263.938 529.637 263.938 530.883ZM272.746 534.341H271.052V523.925H272.746V534.341ZM276.736 534.523C275.266 534.523 274.37 533.669 274.37 532.367C274.37 531.093 275.294 530.295 276.932 530.169L279.004 530.015V529.861C279.004 528.923 278.444 528.545 277.576 528.545C276.568 528.545 276.008 528.965 276.008 529.693H274.552C274.552 528.195 275.784 527.215 277.66 527.215C279.522 527.215 280.67 528.223 280.67 530.141V534.341H279.172L279.046 533.319C278.752 534.033 277.814 534.523 276.736 534.523ZM277.296 533.235C278.346 533.235 279.018 532.605 279.018 531.541V531.177L277.576 531.289C276.512 531.387 276.106 531.737 276.106 532.297C276.106 532.927 276.526 533.235 277.296 533.235ZM281.955 532.241H283.579C283.593 532.843 284.041 533.221 284.825 533.221C285.623 533.221 286.057 532.899 286.057 532.395C286.057 532.045 285.875 531.793 285.259 531.653L284.013 531.359C282.767 531.079 282.165 530.491 282.165 529.385C282.165 528.027 283.313 527.215 284.909 527.215C286.463 527.215 287.513 528.111 287.527 529.455H285.903C285.889 528.867 285.497 528.489 284.839 528.489C284.167 528.489 283.775 528.797 283.775 529.315C283.775 529.707 284.083 529.959 284.671 530.099L285.917 530.393C287.079 530.659 287.667 531.191 287.667 532.255C287.667 533.655 286.477 534.523 284.769 534.523C283.047 534.523 281.955 533.599 281.955 532.241ZM291.46 534.341H289.752V528.853H288.422V527.425H289.752V525.269H291.46V527.425H292.804V528.853H291.46V534.341ZM294.86 526.039C294.272 526.039 293.81 525.577 293.81 525.003C293.81 524.429 294.272 523.981 294.86 523.981C295.42 523.981 295.882 524.429 295.882 525.003C295.882 525.577 295.42 526.039 294.86 526.039ZM294.006 534.341V527.425H295.714V534.341H294.006ZM297.212 530.869C297.212 528.727 298.626 527.215 300.67 527.215C302.56 527.215 303.848 528.265 304.03 529.931H302.322C302.126 529.147 301.552 528.741 300.74 528.741C299.648 528.741 298.92 529.567 298.92 530.869C298.92 532.171 299.592 532.983 300.684 532.983C301.538 532.983 302.14 532.563 302.322 531.807H304.044C303.834 533.417 302.49 534.523 300.684 534.523C298.584 534.523 297.212 533.067 297.212 530.869ZM304.924 532.241H306.548C306.562 532.843 307.01 533.221 307.794 533.221C308.592 533.221 309.026 532.899 309.026 532.395C309.026 532.045 308.844 531.793 308.228 531.653L306.982 531.359C305.736 531.079 305.134 530.491 305.134 529.385C305.134 528.027 306.282 527.215 307.878 527.215C309.432 527.215 310.482 528.111 310.496 529.455H308.872C308.858 528.867 308.466 528.489 307.808 528.489C307.136 528.489 306.744 528.797 306.744 529.315C306.744 529.707 307.052 529.959 307.64 530.099L308.886 530.393C310.048 530.659 310.636 531.191 310.636 532.255C310.636 533.655 309.446 534.523 307.738 534.523C306.016 534.523 304.924 533.599 304.924 532.241Z" fill="black"/>
            </g>
            <path id="Polygon 108" d="M255.257 596.63L212.654 572.131M276.184 596.63L320.531 571.129M330.88 503.389V553.266" stroke="#E4E3E3" stroke-width="5.76" stroke-linecap="round"/>
        </g>
    </g>
</svg>