<svg class="chemicals-svg" xmlns="http://www.w3.org/2000/svg" width="400" height="600" viewBox="0 0 400 600" fill="none">
    <g id="mobile">
        <g id="pesticides">
            <g id="group_hover" data-chemical-target="pesticides">
                <path id="hover" d="M59.8799 124.345C63.5927 122.201 68.1671 122.201 71.8799 124.345L114.439 148.916C118.152 151.06 120.439 155.022 120.439 159.309V208.452C120.439 212.739 118.152 216.701 114.439 218.845L71.8799 243.416C68.1671 245.56 63.5927 245.56 59.8799 243.416L17.3203 218.845C13.6075 216.701 11.3203 212.739 11.3203 208.452V159.309C11.3203 155.022 13.6075 151.06 17.3203 148.916L59.8799 124.345Z" fill="#5658E7"/>
                <path id="Pesticides" d="M39.9116 184.665H37.6576V188.193H35.8656V177.959H39.9116C41.9696 177.959 43.2996 179.303 43.2996 181.305C43.2996 183.279 41.9556 184.665 39.9116 184.665ZM39.5616 179.555H37.6576V183.069H39.5336C40.7656 183.069 41.4236 182.411 41.4236 181.291C41.4236 180.171 40.7516 179.555 39.5616 179.555ZM47.4472 188.375C45.3892 188.375 43.9472 186.877 43.9472 184.735C43.9472 182.565 45.3612 181.067 47.3912 181.067C49.4632 181.067 50.7792 182.453 50.7792 184.609V185.127L45.5712 185.141C45.6972 186.359 46.3412 186.975 47.4752 186.975C48.4132 186.975 49.0292 186.611 49.2252 185.953H50.8072C50.5132 187.465 49.2532 188.375 47.4472 188.375ZM47.4052 182.467C46.3972 182.467 45.7812 183.013 45.6132 184.049H49.0852C49.0852 183.097 48.4272 182.467 47.4052 182.467ZM51.7542 186.093H53.3782C53.3922 186.695 53.8402 187.073 54.6242 187.073C55.4222 187.073 55.8562 186.751 55.8562 186.247C55.8562 185.897 55.6742 185.645 55.0582 185.505L53.8122 185.211C52.5662 184.931 51.9642 184.343 51.9642 183.237C51.9642 181.879 53.1122 181.067 54.7082 181.067C56.2622 181.067 57.3122 181.963 57.3262 183.307H55.7022C55.6882 182.719 55.2962 182.341 54.6382 182.341C53.9662 182.341 53.5742 182.649 53.5742 183.167C53.5742 183.559 53.8822 183.811 54.4702 183.951L55.7162 184.245C56.8782 184.511 57.4662 185.043 57.4662 186.107C57.4662 187.507 56.2762 188.375 54.5682 188.375C52.8462 188.375 51.7542 187.451 51.7542 186.093ZM61.2587 188.193H59.5507V182.705H58.2207V181.277H59.5507V179.121H61.2587V181.277H62.6027V182.705H61.2587V188.193ZM64.6585 179.891C64.0705 179.891 63.6085 179.429 63.6085 178.855C63.6085 178.281 64.0705 177.833 64.6585 177.833C65.2185 177.833 65.6805 178.281 65.6805 178.855C65.6805 179.429 65.2185 179.891 64.6585 179.891ZM63.8045 188.193V181.277H65.5125V188.193H63.8045ZM67.0111 184.721C67.0111 182.579 68.4251 181.067 70.4691 181.067C72.3591 181.067 73.6471 182.117 73.8291 183.783H72.1211C71.9251 182.999 71.3511 182.593 70.5391 182.593C69.4471 182.593 68.7191 183.419 68.7191 184.721C68.7191 186.023 69.3911 186.835 70.4831 186.835C71.3371 186.835 71.9391 186.415 72.1211 185.659H73.8431C73.6331 187.269 72.2891 188.375 70.4831 188.375C68.3831 188.375 67.0111 186.919 67.0111 184.721ZM76.1084 179.891C75.5204 179.891 75.0584 179.429 75.0584 178.855C75.0584 178.281 75.5204 177.833 76.1084 177.833C76.6684 177.833 77.1304 178.281 77.1304 178.855C77.1304 179.429 76.6684 179.891 76.1084 179.891ZM75.2544 188.193V181.277H76.9624V188.193H75.2544ZM81.7091 188.375C79.7071 188.375 78.4611 186.905 78.4611 184.763C78.4611 182.607 79.7211 181.067 81.8071 181.067C82.7731 181.067 83.6271 181.473 84.0611 182.159V177.777H85.7551V188.193H84.1871L84.0751 187.115C83.6551 187.913 82.7591 188.375 81.7091 188.375ZM82.0871 186.807C83.2771 186.807 84.0471 185.953 84.0471 184.707C84.0471 183.461 83.2771 182.593 82.0871 182.593C80.8971 182.593 80.1691 183.475 80.1691 184.707C80.1691 185.939 80.8971 186.807 82.0871 186.807ZM90.769 188.375C88.711 188.375 87.269 186.877 87.269 184.735C87.269 182.565 88.683 181.067 90.713 181.067C92.785 181.067 94.101 182.453 94.101 184.609V185.127L88.893 185.141C89.019 186.359 89.663 186.975 90.797 186.975C91.735 186.975 92.351 186.611 92.547 185.953H94.129C93.835 187.465 92.575 188.375 90.769 188.375ZM90.727 182.467C89.719 182.467 89.103 183.013 88.935 184.049H92.407C92.407 183.097 91.749 182.467 90.727 182.467ZM95.076 186.093H96.7C96.714 186.695 97.162 187.073 97.946 187.073C98.744 187.073 99.178 186.751 99.178 186.247C99.178 185.897 98.996 185.645 98.38 185.505L97.134 185.211C95.888 184.931 95.286 184.343 95.286 183.237C95.286 181.879 96.434 181.067 98.03 181.067C99.584 181.067 100.634 181.963 100.648 183.307H99.024C99.01 182.719 98.618 182.341 97.96 182.341C97.288 182.341 96.896 182.649 96.896 183.167C96.896 183.559 97.204 183.811 97.792 183.951L99.038 184.245C100.2 184.511 100.788 185.043 100.788 186.107C100.788 187.507 99.598 188.375 97.89 188.375C96.168 188.375 95.076 187.451 95.076 186.093Z" fill="black"/>
                <path id="Polygon 106" d="M57.7643 130.302L24.2885 149.983M74.6946 130.302L108.555 150.209M58.149 238.901L25.2505 219.56M74.3099 238.901L108.555 218.768M116.547 165.29V204.666M15.9121 164.898V204.079" stroke="#5658E7" stroke-width="5.76" stroke-linecap="round"/>
            </g>
            <path id="Polygon 109" d="M57.077 115.099L13.7271 140.028M79.0011 115.099L122.849 140.314M57.5751 252.657L14.9727 228.159M78.5029 252.657L122.849 227.156M133.198 159.417V209.294M2.87988 158.92V208.549" stroke="#E4E3E3" stroke-width="5.76" stroke-linecap="round"/>
        </g>
        <g id="endocrine_disruptors">
            <g id="group_hover_2" data-chemical-target="endocrine_disruptors">
                <path id="hover_2" d="M128.88 243.345C132.593 241.201 137.167 241.201 140.88 243.345L183.439 267.916C187.152 270.06 189.439 274.022 189.439 278.309V327.452C189.439 331.739 187.152 335.701 183.439 337.845L140.88 362.416C137.167 364.56 132.593 364.56 128.88 362.416L86.3203 337.845C82.6075 335.701 80.3203 331.739 80.3203 327.452V278.309C80.3203 274.022 82.6075 270.06 86.3203 267.916L128.88 243.345Z" fill="#1B90B1"/>
                <path id="Endocrine disruptors" d="M109.466 297.099H103.11V286.865H109.466V288.517H104.902V291.149H108.99V292.731H104.902V295.447H109.466V297.099ZM113.004 297.099H111.296V290.183H112.878L113.018 291.079C113.452 290.379 114.292 289.973 115.23 289.973C116.966 289.973 117.862 291.051 117.862 292.843V297.099H116.154V293.249C116.154 292.087 115.58 291.527 114.698 291.527C113.648 291.527 113.004 292.255 113.004 293.375V297.099ZM122.523 297.281C120.521 297.281 119.275 295.811 119.275 293.669C119.275 291.513 120.535 289.973 122.621 289.973C123.587 289.973 124.441 290.379 124.875 291.065V286.683H126.569V297.099H125.001L124.889 296.021C124.469 296.819 123.573 297.281 122.523 297.281ZM122.901 295.713C124.091 295.713 124.861 294.859 124.861 293.613C124.861 292.367 124.091 291.499 122.901 291.499C121.711 291.499 120.983 292.381 120.983 293.613C120.983 294.845 121.711 295.713 122.901 295.713ZM128.083 293.627C128.083 291.471 129.637 289.987 131.779 289.987C133.921 289.987 135.475 291.471 135.475 293.627C135.475 295.783 133.921 297.267 131.779 297.267C129.637 297.267 128.083 295.783 128.083 293.627ZM129.791 293.627C129.791 294.887 130.603 295.741 131.779 295.741C132.955 295.741 133.767 294.887 133.767 293.627C133.767 292.367 132.955 291.513 131.779 291.513C130.603 291.513 129.791 292.367 129.791 293.627ZM136.562 293.627C136.562 291.485 137.976 289.973 140.02 289.973C141.91 289.973 143.198 291.023 143.38 292.689H141.672C141.476 291.905 140.902 291.499 140.09 291.499C138.998 291.499 138.27 292.325 138.27 293.627C138.27 294.929 138.942 295.741 140.034 295.741C140.888 295.741 141.49 295.321 141.672 294.565H143.394C143.184 296.175 141.84 297.281 140.034 297.281C137.934 297.281 136.562 295.825 136.562 293.627ZM149.146 290.155V291.737H148.516C147.284 291.737 146.514 292.395 146.514 293.739V297.099H144.806V290.197H146.416L146.514 291.205C146.808 290.519 147.466 290.057 148.39 290.057C148.628 290.057 148.866 290.085 149.146 290.155ZM151.296 288.797C150.708 288.797 150.246 288.335 150.246 287.761C150.246 287.187 150.708 286.739 151.296 286.739C151.856 286.739 152.318 287.187 152.318 287.761C152.318 288.335 151.856 288.797 151.296 288.797ZM150.442 297.099V290.183H152.15V297.099H150.442ZM155.762 297.099H154.054V290.183H155.636L155.776 291.079C156.21 290.379 157.05 289.973 157.988 289.973C159.724 289.973 160.62 291.051 160.62 292.843V297.099H158.912V293.249C158.912 292.087 158.338 291.527 157.456 291.527C156.406 291.527 155.762 292.255 155.762 293.375V297.099ZM165.533 297.281C163.475 297.281 162.033 295.783 162.033 293.641C162.033 291.471 163.447 289.973 165.477 289.973C167.549 289.973 168.865 291.359 168.865 293.515V294.033L163.657 294.047C163.783 295.265 164.427 295.881 165.561 295.881C166.499 295.881 167.115 295.517 167.311 294.859H168.893C168.599 296.371 167.339 297.281 165.533 297.281ZM165.491 291.373C164.483 291.373 163.867 291.919 163.699 292.955H167.171C167.171 292.003 166.513 291.373 165.491 291.373ZM105.884 315.281C103.882 315.281 102.636 313.811 102.636 311.669C102.636 309.513 103.896 307.973 105.982 307.973C106.948 307.973 107.802 308.379 108.236 309.065V304.683H109.93V315.099H108.362L108.25 314.021C107.83 314.819 106.934 315.281 105.884 315.281ZM106.262 313.713C107.452 313.713 108.222 312.859 108.222 311.613C108.222 310.367 107.452 309.499 106.262 309.499C105.072 309.499 104.344 310.381 104.344 311.613C104.344 312.845 105.072 313.713 106.262 313.713ZM112.704 306.797C112.116 306.797 111.654 306.335 111.654 305.761C111.654 305.187 112.116 304.739 112.704 304.739C113.264 304.739 113.726 305.187 113.726 305.761C113.726 306.335 113.264 306.797 112.704 306.797ZM111.85 315.099V308.183H113.558V315.099H111.85ZM114.931 312.999H116.555C116.569 313.601 117.017 313.979 117.801 313.979C118.599 313.979 119.033 313.657 119.033 313.153C119.033 312.803 118.851 312.551 118.235 312.411L116.989 312.117C115.743 311.837 115.141 311.249 115.141 310.143C115.141 308.785 116.289 307.973 117.885 307.973C119.439 307.973 120.489 308.869 120.503 310.213H118.879C118.865 309.625 118.473 309.247 117.815 309.247C117.143 309.247 116.751 309.555 116.751 310.073C116.751 310.465 117.059 310.717 117.647 310.857L118.893 311.151C120.055 311.417 120.643 311.949 120.643 313.013C120.643 314.413 119.453 315.281 117.745 315.281C116.023 315.281 114.931 314.357 114.931 312.999ZM126.423 308.155V309.737H125.793C124.561 309.737 123.791 310.395 123.791 311.739V315.099H122.083V308.197H123.693L123.791 309.205C124.085 308.519 124.743 308.057 125.667 308.057C125.905 308.057 126.143 308.085 126.423 308.155ZM132.409 308.183H134.117V315.099H132.535L132.409 314.175C131.989 314.833 131.093 315.281 130.169 315.281C128.573 315.281 127.635 314.203 127.635 312.509V308.183H129.343V311.907C129.343 313.223 129.861 313.755 130.813 313.755C131.891 313.755 132.409 313.125 132.409 311.809V308.183ZM136.021 318.305V308.183H137.603L137.715 309.233C138.135 308.435 139.045 307.973 140.095 307.973C142.041 307.973 143.329 309.387 143.329 311.557C143.329 313.713 142.153 315.281 140.095 315.281C139.059 315.281 138.163 314.875 137.729 314.175V318.305H136.021ZM137.743 311.641C137.743 312.887 138.513 313.741 139.689 313.741C140.893 313.741 141.607 312.873 141.607 311.641C141.607 310.409 140.893 309.527 139.689 309.527C138.513 309.527 137.743 310.395 137.743 311.641ZM147.113 315.099H145.405V309.611H144.075V308.183H145.405V306.027H147.113V308.183H148.457V309.611H147.113V315.099ZM149.185 311.627C149.185 309.471 150.739 307.987 152.881 307.987C155.023 307.987 156.577 309.471 156.577 311.627C156.577 313.783 155.023 315.267 152.881 315.267C150.739 315.267 149.185 313.783 149.185 311.627ZM150.893 311.627C150.893 312.887 151.705 313.741 152.881 313.741C154.057 313.741 154.869 312.887 154.869 311.627C154.869 310.367 154.057 309.513 152.881 309.513C151.705 309.513 150.893 310.367 150.893 311.627ZM162.41 308.155V309.737H161.78C160.548 309.737 159.778 310.395 159.778 311.739V315.099H158.07V308.197H159.68L159.778 309.205C160.072 308.519 160.73 308.057 161.654 308.057C161.892 308.057 162.13 308.085 162.41 308.155ZM163.174 312.999H164.798C164.812 313.601 165.26 313.979 166.044 313.979C166.842 313.979 167.276 313.657 167.276 313.153C167.276 312.803 167.094 312.551 166.478 312.411L165.232 312.117C163.986 311.837 163.384 311.249 163.384 310.143C163.384 308.785 164.532 307.973 166.128 307.973C167.682 307.973 168.732 308.869 168.746 310.213H167.122C167.108 309.625 166.716 309.247 166.058 309.247C165.386 309.247 164.994 309.555 164.994 310.073C164.994 310.465 165.302 310.717 165.89 310.857L167.136 311.151C168.298 311.417 168.886 311.949 168.886 313.013C168.886 314.413 167.696 315.281 165.988 315.281C164.266 315.281 163.174 314.357 163.174 312.999Z" fill="black"/>
                <path id="Polygon 51" d="M125.819 248.314L92.3432 267.994M142.749 248.314L176.61 268.22M126.204 356.913L93.3052 337.572M142.365 356.913L176.61 336.78M184.601 283.302V322.678M83.9668 282.91V322.09" stroke="#1B90B1" stroke-width="5.76" stroke-linecap="round"/>
            </g>
            <path id="Polygon 27" d="M124.71 231.658L81.1189 256.849M146.756 231.658L190.847 257.138M125.211 370.664L82.3715 345.908M146.255 370.664L190.847 344.894M201.254 276.442V326.844M70.2114 275.94V326.092" stroke="#E4E3E3" stroke-width="5.76" stroke-linecap="round"/>
        </g>
        <g id="nanoplastics">
            <g id="group_hover_3" data-chemical-target="nanoplastics">
                <path id="hover_3" d="M258.88 12.3446C262.593 10.201 267.167 10.201 270.88 12.3446L313.439 36.9164C317.152 39.06 319.439 43.0215 319.439 47.3087V96.4523C319.439 100.739 317.152 104.701 313.439 106.845L270.88 131.416C267.167 133.56 262.593 133.56 258.88 131.416L216.32 106.845C212.607 104.701 210.32 100.739 210.32 96.4523V47.3087C210.32 43.0215 212.607 39.06 216.32 36.9164L258.88 12.3446Z" fill="#7E1A0E"/>
                <path id="Nano plastics" d="M250.049 66.6149H248.285V56.3809H250.063L254.865 63.6329V56.3809H256.629V66.6149H254.865L250.049 59.3629V66.6149ZM260.84 66.7969C259.37 66.7969 258.474 65.9429 258.474 64.6409C258.474 63.3669 259.398 62.5689 261.036 62.4429L263.108 62.2889V62.1349C263.108 61.1969 262.548 60.8189 261.68 60.8189C260.672 60.8189 260.112 61.2389 260.112 61.9669H258.656C258.656 60.4689 259.888 59.4889 261.764 59.4889C263.626 59.4889 264.774 60.4969 264.774 62.4149V66.6149H263.276L263.15 65.5929C262.856 66.3069 261.918 66.7969 260.84 66.7969ZM261.4 65.5089C262.45 65.5089 263.122 64.8789 263.122 63.8149V63.4509L261.68 63.5629C260.616 63.6609 260.21 64.0109 260.21 64.5709C260.21 65.2009 260.63 65.5089 261.4 65.5089ZM268.3 66.6149H266.592V59.6989H268.174L268.314 60.5949C268.748 59.8949 269.588 59.4889 270.526 59.4889C272.262 59.4889 273.158 60.5669 273.158 62.3589V66.6149H271.45V62.7649C271.45 61.6029 270.876 61.0429 269.994 61.0429C268.944 61.0429 268.3 61.7709 268.3 62.8909V66.6149ZM274.57 63.1429C274.57 60.9869 276.124 59.5029 278.266 59.5029C280.408 59.5029 281.962 60.9869 281.962 63.1429C281.962 65.2989 280.408 66.7829 278.266 66.7829C276.124 66.7829 274.57 65.2989 274.57 63.1429ZM276.278 63.1429C276.278 64.4029 277.09 65.2569 278.266 65.2569C279.442 65.2569 280.254 64.4029 280.254 63.1429C280.254 61.8829 279.442 61.0289 278.266 61.0289C277.09 61.0289 276.278 61.8829 276.278 63.1429ZM240.884 87.8209V77.6989H242.466L242.578 78.7489C242.998 77.9509 243.908 77.4889 244.958 77.4889C246.904 77.4889 248.192 78.9029 248.192 81.0729C248.192 83.2289 247.016 84.7969 244.958 84.7969C243.922 84.7969 243.026 84.3909 242.592 83.6909V87.8209H240.884ZM242.606 81.1569C242.606 82.4029 243.376 83.2569 244.552 83.2569C245.756 83.2569 246.47 82.3889 246.47 81.1569C246.47 79.9249 245.756 79.0429 244.552 79.0429C243.376 79.0429 242.606 79.9109 242.606 81.1569ZM251.414 84.6149H249.72V74.1989H251.414V84.6149ZM255.404 84.7969C253.934 84.7969 253.038 83.9429 253.038 82.6409C253.038 81.3669 253.962 80.5689 255.6 80.4429L257.672 80.2889V80.1349C257.672 79.1969 257.112 78.8189 256.244 78.8189C255.236 78.8189 254.676 79.2389 254.676 79.9669H253.22C253.22 78.4689 254.452 77.4889 256.328 77.4889C258.19 77.4889 259.338 78.4969 259.338 80.4149V84.6149H257.84L257.714 83.5929C257.42 84.3069 256.482 84.7969 255.404 84.7969ZM255.964 83.5089C257.014 83.5089 257.686 82.8789 257.686 81.8149V81.4509L256.244 81.5629C255.18 81.6609 254.774 82.0109 254.774 82.5709C254.774 83.2009 255.194 83.5089 255.964 83.5089ZM260.624 82.5149H262.248C262.262 83.1169 262.71 83.4949 263.494 83.4949C264.292 83.4949 264.726 83.1729 264.726 82.6689C264.726 82.3189 264.544 82.0669 263.928 81.9269L262.682 81.6329C261.436 81.3529 260.834 80.7649 260.834 79.6589C260.834 78.3009 261.982 77.4889 263.578 77.4889C265.132 77.4889 266.182 78.3849 266.196 79.7289H264.572C264.558 79.1409 264.166 78.7629 263.508 78.7629C262.836 78.7629 262.444 79.0709 262.444 79.5889C262.444 79.9809 262.752 80.2329 263.34 80.3729L264.586 80.6669C265.748 80.9329 266.336 81.4649 266.336 82.5289C266.336 83.9289 265.146 84.7969 263.438 84.7969C261.716 84.7969 260.624 83.8729 260.624 82.5149ZM270.128 84.6149H268.42V79.1269H267.09V77.6989H268.42V75.5429H270.128V77.6989H271.472V79.1269H270.128V84.6149ZM273.528 76.3129C272.94 76.3129 272.478 75.8509 272.478 75.2769C272.478 74.7029 272.94 74.2549 273.528 74.2549C274.088 74.2549 274.55 74.7029 274.55 75.2769C274.55 75.8509 274.088 76.3129 273.528 76.3129ZM272.674 84.6149V77.6989H274.382V84.6149H272.674ZM275.881 81.1429C275.881 79.0009 277.295 77.4889 279.339 77.4889C281.229 77.4889 282.517 78.5389 282.699 80.2049H280.991C280.795 79.4209 280.221 79.0149 279.409 79.0149C278.317 79.0149 277.589 79.8409 277.589 81.1429C277.589 82.4449 278.261 83.2569 279.353 83.2569C280.207 83.2569 280.809 82.8369 280.991 82.0809H282.713C282.503 83.6909 281.159 84.7969 279.353 84.7969C277.253 84.7969 275.881 83.3409 275.881 81.1429ZM283.592 82.5149H285.216C285.23 83.1169 285.678 83.4949 286.462 83.4949C287.26 83.4949 287.694 83.1729 287.694 82.6689C287.694 82.3189 287.512 82.0669 286.896 81.9269L285.65 81.6329C284.404 81.3529 283.802 80.7649 283.802 79.6589C283.802 78.3009 284.95 77.4889 286.546 77.4889C288.1 77.4889 289.15 78.3849 289.164 79.7289H287.54C287.526 79.1409 287.134 78.7629 286.476 78.7629C285.804 78.7629 285.412 79.0709 285.412 79.5889C285.412 79.9809 285.72 80.2329 286.308 80.3729L287.554 80.6669C288.716 80.9329 289.304 81.4649 289.304 82.5289C289.304 83.9289 288.114 84.7969 286.406 84.7969C284.684 84.7969 283.592 83.8729 283.592 82.5149Z" fill="black"/>
                <path id="Polygon 107" d="M257.163 17.3571L223.446 37.0374M274.215 17.3571L308.319 37.2635M257.55 125.956L224.415 106.615M273.827 125.956L308.319 105.823M316.368 52.3446V91.7212M215.009 51.9528V91.1335" stroke="#7E1A0E" stroke-width="5.76" stroke-linecap="round"/>
            </g>
            <path id="Polygon 114" d="M253.279 2.88049L209.929 27.9401M275.203 2.88049L319.051 28.228M253.777 141.163L211.174 116.535M274.705 141.163L319.051 115.527M329.4 47.4313V97.5708M199.082 46.9324V96.8225" stroke="#E4E3E3" stroke-width="5.76" stroke-linecap="round"/>
        </g>
        <g id="phthalates">
            <g id="group_hover_4" data-chemical-target="phthalates">
                <path id="hover_4" d="M325.88 125.345C329.593 123.201 334.167 123.201 337.88 125.345L380.439 149.916C384.152 152.06 386.439 156.022 386.439 160.309V209.452C386.439 213.739 384.152 217.701 380.439 219.845L337.88 244.416C334.167 246.56 329.593 246.56 325.88 244.416L283.32 219.845C279.607 217.701 277.32 213.739 277.32 209.452V160.309C277.32 156.022 279.607 152.06 283.32 149.916L325.88 125.345Z" fill="#9B9B9B"/>
                <path id="Phthalates" d="M303.546 184.388H301.292V187.916H299.5V177.682H303.546C305.604 177.682 306.934 179.026 306.934 181.028C306.934 183.002 305.59 184.388 303.546 184.388ZM303.196 179.278H301.292V182.792H303.168C304.4 182.792 305.058 182.134 305.058 181.014C305.058 179.894 304.386 179.278 303.196 179.278ZM310.037 187.916H308.329V177.5H310.051V181.896C310.485 181.224 311.297 180.79 312.291 180.79C313.999 180.79 314.895 181.868 314.895 183.66V187.916H313.187V184.066C313.187 182.904 312.613 182.344 311.745 182.344C310.667 182.344 310.037 183.1 310.037 184.136V187.916ZM319.065 187.916H317.357V182.428H316.027V181H317.357V178.844H319.065V181H320.409V182.428H319.065V187.916ZM323.319 187.916H321.611V177.5H323.333V181.896C323.767 181.224 324.579 180.79 325.573 180.79C327.281 180.79 328.177 181.868 328.177 183.66V187.916H326.469V184.066C326.469 182.904 325.895 182.344 325.027 182.344C323.949 182.344 323.319 183.1 323.319 184.136V187.916ZM332.053 188.098C330.583 188.098 329.687 187.244 329.687 185.942C329.687 184.668 330.611 183.87 332.249 183.744L334.321 183.59V183.436C334.321 182.498 333.761 182.12 332.893 182.12C331.885 182.12 331.325 182.54 331.325 183.268H329.869C329.869 181.77 331.101 180.79 332.977 180.79C334.839 180.79 335.987 181.798 335.987 183.716V187.916H334.489L334.363 186.894C334.069 187.608 333.131 188.098 332.053 188.098ZM332.613 186.81C333.663 186.81 334.335 186.18 334.335 185.116V184.752L332.893 184.864C331.829 184.962 331.423 185.312 331.423 185.872C331.423 186.502 331.843 186.81 332.613 186.81ZM339.527 187.916H337.833V177.5H339.527V187.916ZM343.517 188.098C342.047 188.098 341.151 187.244 341.151 185.942C341.151 184.668 342.075 183.87 343.713 183.744L345.785 183.59V183.436C345.785 182.498 345.225 182.12 344.357 182.12C343.349 182.12 342.789 182.54 342.789 183.268H341.333C341.333 181.77 342.565 180.79 344.441 180.79C346.303 180.79 347.451 181.798 347.451 183.716V187.916H345.953L345.827 186.894C345.533 187.608 344.595 188.098 343.517 188.098ZM344.077 186.81C345.127 186.81 345.799 186.18 345.799 185.116V184.752L344.357 184.864C343.293 184.962 342.887 185.312 342.887 185.872C342.887 186.502 343.307 186.81 344.077 186.81ZM351.525 187.916H349.817V182.428H348.487V181H349.817V178.844H351.525V181H352.869V182.428H351.525V187.916ZM357.096 188.098C355.038 188.098 353.596 186.6 353.596 184.458C353.596 182.288 355.01 180.79 357.04 180.79C359.112 180.79 360.428 182.176 360.428 184.332V184.85L355.22 184.864C355.346 186.082 355.99 186.698 357.124 186.698C358.062 186.698 358.678 186.334 358.874 185.676H360.456C360.162 187.188 358.902 188.098 357.096 188.098ZM357.054 182.19C356.046 182.19 355.43 182.736 355.262 183.772H358.734C358.734 182.82 358.076 182.19 357.054 182.19ZM361.403 185.816H363.027C363.041 186.418 363.489 186.796 364.273 186.796C365.071 186.796 365.505 186.474 365.505 185.97C365.505 185.62 365.323 185.368 364.707 185.228L363.461 184.934C362.215 184.654 361.613 184.066 361.613 182.96C361.613 181.602 362.761 180.79 364.357 180.79C365.911 180.79 366.961 181.686 366.975 183.03H365.351C365.337 182.442 364.945 182.064 364.287 182.064C363.615 182.064 363.223 182.372 363.223 182.89C363.223 183.282 363.531 183.534 364.119 183.674L365.365 183.968C366.527 184.234 367.115 184.766 367.115 185.83C367.115 187.23 365.925 188.098 364.217 188.098C362.495 188.098 361.403 187.174 361.403 185.816Z" fill="black"/>
                <path id="Polygon 72" d="M323.77 130.302L290.053 149.983M340.822 130.302L374.926 150.209M324.157 238.901L291.022 219.56M340.434 238.901L374.926 218.768M382.975 165.29V204.666M281.616 164.898V204.079" stroke="#9B9B9B" stroke-width="5.76" stroke-linecap="round"/>
            </g>
            <path id="Polygon 73" d="M320.309 116.548L277.2 141.477M342.111 116.548L385.716 141.763M320.804 254.107L278.439 229.608M341.616 254.107L385.716 228.605M396.007 160.866V210.743M266.413 160.37V209.999" stroke="#E4E3E3" stroke-width="5.76" stroke-linecap="round"/>
        </g>
        <g id="bisphenols">
            <g id="group_hover_5" data-chemical-target="bisphenols">
                <path id="hover_5" d="M193.389 128.345C197.102 126.201 201.676 126.201 205.389 128.345L247.949 152.916C251.662 155.06 253.949 159.022 253.949 163.309V212.452C253.949 216.739 251.662 220.701 247.949 222.845L205.389 247.416C201.676 249.56 197.102 249.56 193.389 247.416L150.83 222.845C147.117 220.701 144.83 216.739 144.83 212.452V163.309C144.83 159.022 147.117 155.06 150.83 152.916L193.389 128.345Z" fill="#D7B040"/>
                <path id="Bisphenols" d="M165.365 195.884V185.65H169.439C171.455 185.65 172.687 186.7 172.687 188.408C172.687 189.542 172.183 190.354 171.217 190.76C172.295 191.11 172.841 191.922 172.841 193.112C172.841 194.862 171.623 195.884 169.509 195.884H165.365ZM169.285 187.232H167.157V190.018H169.327C170.307 190.018 170.853 189.5 170.853 188.59C170.853 187.708 170.293 187.232 169.285 187.232ZM169.439 191.53H167.157V194.302H169.439C170.447 194.302 171.007 193.812 171.007 192.888C171.007 192.02 170.433 191.53 169.439 191.53ZM175.226 187.582C174.638 187.582 174.176 187.12 174.176 186.546C174.176 185.972 174.638 185.524 175.226 185.524C175.786 185.524 176.248 185.972 176.248 186.546C176.248 187.12 175.786 187.582 175.226 187.582ZM174.372 195.884V188.968H176.08V195.884H174.372ZM177.453 193.784H179.077C179.091 194.386 179.539 194.764 180.323 194.764C181.121 194.764 181.555 194.442 181.555 193.938C181.555 193.588 181.373 193.336 180.757 193.196L179.511 192.902C178.265 192.622 177.663 192.034 177.663 190.928C177.663 189.57 178.811 188.758 180.407 188.758C181.961 188.758 183.011 189.654 183.025 190.998H181.401C181.387 190.41 180.995 190.032 180.337 190.032C179.665 190.032 179.273 190.34 179.273 190.858C179.273 191.25 179.581 191.502 180.169 191.642L181.415 191.936C182.577 192.202 183.165 192.734 183.165 193.798C183.165 195.198 181.975 196.066 180.267 196.066C178.545 196.066 177.453 195.142 177.453 193.784ZM184.606 199.09V188.968H186.188L186.3 190.018C186.72 189.22 187.63 188.758 188.68 188.758C190.626 188.758 191.914 190.172 191.914 192.342C191.914 194.498 190.738 196.066 188.68 196.066C187.644 196.066 186.748 195.66 186.314 194.96V199.09H184.606ZM186.328 192.426C186.328 193.672 187.098 194.526 188.274 194.526C189.478 194.526 190.192 193.658 190.192 192.426C190.192 191.194 189.478 190.312 188.274 190.312C187.098 190.312 186.328 191.18 186.328 192.426ZM195.122 195.884H193.414V185.468H195.136V189.864C195.57 189.192 196.382 188.758 197.376 188.758C199.084 188.758 199.98 189.836 199.98 191.628V195.884H198.272V192.034C198.272 190.872 197.698 190.312 196.83 190.312C195.752 190.312 195.122 191.068 195.122 192.104V195.884ZM204.892 196.066C202.834 196.066 201.392 194.568 201.392 192.426C201.392 190.256 202.806 188.758 204.836 188.758C206.908 188.758 208.224 190.144 208.224 192.3V192.818L203.016 192.832C203.142 194.05 203.786 194.666 204.92 194.666C205.858 194.666 206.474 194.302 206.67 193.644H208.252C207.958 195.156 206.698 196.066 204.892 196.066ZM204.85 190.158C203.842 190.158 203.226 190.704 203.058 191.74H206.53C206.53 190.788 205.872 190.158 204.85 190.158ZM211.439 195.884H209.731V188.968H211.313L211.453 189.864C211.887 189.164 212.727 188.758 213.665 188.758C215.401 188.758 216.297 189.836 216.297 191.628V195.884H214.589V192.034C214.589 190.872 214.015 190.312 213.133 190.312C212.083 190.312 211.439 191.04 211.439 192.16V195.884ZM217.709 192.412C217.709 190.256 219.263 188.772 221.405 188.772C223.547 188.772 225.101 190.256 225.101 192.412C225.101 194.568 223.547 196.052 221.405 196.052C219.263 196.052 217.709 194.568 217.709 192.412ZM219.417 192.412C219.417 193.672 220.229 194.526 221.405 194.526C222.581 194.526 223.393 193.672 223.393 192.412C223.393 191.152 222.581 190.298 221.405 190.298C220.229 190.298 219.417 191.152 219.417 192.412ZM228.317 195.884H226.623V185.468H228.317V195.884ZM229.716 193.784H231.34C231.354 194.386 231.802 194.764 232.586 194.764C233.384 194.764 233.818 194.442 233.818 193.938C233.818 193.588 233.636 193.336 233.02 193.196L231.774 192.902C230.528 192.622 229.926 192.034 229.926 190.928C229.926 189.57 231.074 188.758 232.67 188.758C234.224 188.758 235.274 189.654 235.288 190.998H233.664C233.65 190.41 233.258 190.032 232.6 190.032C231.928 190.032 231.536 190.34 231.536 190.858C231.536 191.25 231.844 191.502 232.432 191.642L233.678 191.936C234.84 192.202 235.428 192.734 235.428 193.798C235.428 195.198 234.238 196.066 232.53 196.066C230.808 196.066 229.716 195.142 229.716 193.784Z" fill="black"/>
                <path id="Polygon 115" d="M190.366 133.92L156.409 153.6M207.54 133.92L241.887 153.826M190.756 242.518L157.384 223.177M207.15 242.518L241.887 222.386M249.994 168.907V208.284M147.912 168.515V207.696" stroke="#D7B040" stroke-width="5.76" stroke-linecap="round"/>
            </g>
            <path id="Polygon 116" d="M189.568 118.72L146.218 143.78M211.492 118.72L255.34 144.068M190.066 257.003L147.463 232.375M210.994 257.003L255.34 231.367M265.689 163.271V213.411M135.371 162.772V212.662" stroke="#E4E3E3" stroke-width="5.76" stroke-linecap="round"/>
        </g>
        <g id="aresnic">
            <g id="group_hover_6" data-chemical-target="arsenic">
                <path id="hover_6" d="M323.88 352.345C327.593 350.201 332.167 350.201 335.88 352.345L378.439 376.916C382.152 379.06 384.439 383.022 384.439 387.309V436.452C384.439 440.739 382.152 444.701 378.439 446.845L335.88 471.416C332.167 473.56 327.593 473.56 323.88 471.416L281.32 446.845C277.607 444.701 275.32 440.739 275.32 436.452V387.309C275.32 383.022 277.607 379.06 281.32 376.916L323.88 352.345Z" fill="#C064E4"/>
                <path id="Arsenic" d="M304.917 417.318H303.055L306.751 407.084H308.585L312.281 417.318H310.391L309.565 414.952H305.743L304.917 417.318ZM307.437 410.136L306.275 413.44H309.047L307.871 410.136C307.787 409.87 307.689 409.562 307.661 409.352C307.619 409.548 307.535 409.856 307.437 410.136ZM317.792 410.374V411.956H317.162C315.93 411.956 315.16 412.614 315.16 413.958V417.318H313.452V410.416H315.062L315.16 411.424C315.454 410.738 316.112 410.276 317.036 410.276C317.274 410.276 317.512 410.304 317.792 410.374ZM318.556 415.218H320.18C320.194 415.82 320.642 416.198 321.426 416.198C322.224 416.198 322.658 415.876 322.658 415.372C322.658 415.022 322.476 414.77 321.86 414.63L320.614 414.336C319.368 414.056 318.766 413.468 318.766 412.362C318.766 411.004 319.914 410.192 321.51 410.192C323.064 410.192 324.114 411.088 324.128 412.432H322.504C322.49 411.844 322.098 411.466 321.44 411.466C320.768 411.466 320.376 411.774 320.376 412.292C320.376 412.684 320.684 412.936 321.272 413.076L322.518 413.37C323.68 413.636 324.268 414.168 324.268 415.232C324.268 416.632 323.078 417.5 321.37 417.5C319.648 417.5 318.556 416.576 318.556 415.218ZM328.802 417.5C326.744 417.5 325.302 416.002 325.302 413.86C325.302 411.69 326.716 410.192 328.746 410.192C330.818 410.192 332.134 411.578 332.134 413.734V414.252L326.926 414.266C327.052 415.484 327.696 416.1 328.83 416.1C329.768 416.1 330.384 415.736 330.58 415.078H332.162C331.868 416.59 330.608 417.5 328.802 417.5ZM328.76 411.592C327.752 411.592 327.136 412.138 326.968 413.174H330.44C330.44 412.222 329.782 411.592 328.76 411.592ZM335.349 417.318H333.641V410.402H335.223L335.363 411.298C335.797 410.598 336.637 410.192 337.575 410.192C339.311 410.192 340.207 411.27 340.207 413.062V417.318H338.499V413.468C338.499 412.306 337.925 411.746 337.043 411.746C335.993 411.746 335.349 412.474 335.349 413.594V417.318ZM342.88 409.016C342.292 409.016 341.83 408.554 341.83 407.98C341.83 407.406 342.292 406.958 342.88 406.958C343.44 406.958 343.902 407.406 343.902 407.98C343.902 408.554 343.44 409.016 342.88 409.016ZM342.026 417.318V410.402H343.734V417.318H342.026ZM345.232 413.846C345.232 411.704 346.646 410.192 348.69 410.192C350.58 410.192 351.868 411.242 352.05 412.908H350.342C350.146 412.124 349.572 411.718 348.76 411.718C347.668 411.718 346.94 412.544 346.94 413.846C346.94 415.148 347.612 415.96 348.704 415.96C349.558 415.96 350.16 415.54 350.342 414.784H352.064C351.854 416.394 350.51 417.5 348.704 417.5C346.604 417.5 345.232 416.044 345.232 413.846Z" fill="black"/>
                <path id="Polygon 105" d="M320.237 358.084L286.521 377.764M337.289 358.084L371.393 377.99M320.625 466.682L287.49 447.341M336.902 466.682L371.393 446.55M379.443 393.071V432.448M278.084 392.679V431.86" stroke="#C064E4" stroke-width="5.76" stroke-linecap="round"/>
            </g>
            <path id="Polygon 113" d="M320.077 344.88L276.727 369.809M342.001 344.88L385.849 370.095M320.575 482.439L277.973 457.94M341.503 482.439L385.849 456.938M396.198 389.198V439.075M265.88 388.702V438.331" stroke="#E4E3E3" stroke-width="5.76" stroke-linecap="round"/>
        </g>
        <g id="pfass">
            <g id="group_hover_7" data-chemical-target="pfass">
                <path id="hover_7" d="M261.88 241.345C265.593 239.201 270.167 239.201 273.88 241.345L316.439 265.916C320.152 268.06 322.439 272.022 322.439 276.309V325.452C322.439 329.739 320.152 333.701 316.439 335.845L273.88 360.416C270.167 362.56 265.593 362.56 261.88 360.416L219.32 335.845C215.607 333.701 213.32 329.739 213.32 325.452V276.309C213.32 272.022 215.607 268.06 219.32 265.916L261.88 241.345Z" fill="#E45C4D"/>
                <path id="PFASs" d="M252.749 303.341H250.495V306.869H248.703V296.635H252.749C254.807 296.635 256.137 297.979 256.137 299.981C256.137 301.955 254.793 303.341 252.749 303.341ZM252.399 298.231H250.495V301.745H252.371C253.603 301.745 254.261 301.087 254.261 299.967C254.261 298.847 253.589 298.231 252.399 298.231ZM263.385 302.683H259.577V306.869H257.785V296.635H264.113V298.287H259.577V301.073H263.385V302.683ZM266.121 306.869H264.259L267.955 296.635H269.789L273.485 306.869H271.595L270.769 304.503H266.947L266.121 306.869ZM268.641 299.687L267.479 302.991H270.251L269.075 299.687C268.991 299.421 268.893 299.113 268.865 298.903C268.823 299.099 268.739 299.407 268.641 299.687ZM274.32 299.491C274.32 297.699 275.804 296.453 277.96 296.453C280.032 296.453 281.348 297.601 281.404 299.449H279.612C279.57 298.567 278.94 298.049 277.932 298.049C276.826 298.049 276.112 298.581 276.112 299.435C276.112 300.163 276.504 300.569 277.358 300.765L278.968 301.115C280.718 301.493 281.572 302.389 281.572 303.915C281.572 305.819 280.088 307.051 277.834 307.051C275.65 307.051 274.222 305.889 274.18 304.055H275.972C275.986 304.923 276.686 305.441 277.834 305.441C279.024 305.441 279.78 304.923 279.78 304.069C279.78 303.383 279.43 302.977 278.59 302.795L276.966 302.431C275.23 302.053 274.32 301.059 274.32 299.491ZM282.55 304.769H284.174C284.188 305.371 284.636 305.749 285.42 305.749C286.218 305.749 286.652 305.427 286.652 304.923C286.652 304.573 286.47 304.321 285.854 304.181L284.608 303.887C283.362 303.607 282.76 303.019 282.76 301.913C282.76 300.555 283.908 299.743 285.504 299.743C287.058 299.743 288.108 300.639 288.122 301.983H286.498C286.484 301.395 286.092 301.017 285.434 301.017C284.762 301.017 284.37 301.325 284.37 301.843C284.37 302.235 284.678 302.487 285.266 302.627L286.512 302.921C287.674 303.187 288.262 303.719 288.262 304.783C288.262 306.183 287.072 307.051 285.364 307.051C283.642 307.051 282.55 306.127 282.55 304.769Z" fill="black"/>
                <path id="Polygon 78" d="M259.15 246.892L225.433 266.573M276.202 246.892L310.306 266.799M259.537 355.491L226.402 336.15M275.815 355.491L310.306 335.358M318.355 281.88V321.256M216.997 281.488V320.669" stroke="#E45C4D" stroke-width="5.76" stroke-linecap="round"/>
            </g>
            <path id="Polygon 113_2" d="M256.077 230.88L212.727 255.809M278.001 230.88L321.849 256.095M256.575 368.439L213.973 343.94M277.503 368.439L321.849 342.938M332.198 275.198V325.075M201.88 274.702V324.331" stroke="#E4E3E3" stroke-width="5.76" stroke-linecap="round"/>
        </g>
        <g id="dinch">
            <g id="group_hover_8" data-chemical-target="dinch">
                <path id="hover_8" d="M64.8799 355.345C68.5927 353.201 73.1671 353.201 76.8799 355.345L119.439 379.916C123.152 382.06 125.439 386.022 125.439 390.309V439.452C125.439 443.739 123.152 447.701 119.439 449.845L76.8799 474.416C73.1671 476.56 68.5927 476.56 64.8799 474.416L22.3203 449.845C18.6075 447.701 16.3203 443.739 16.3203 439.452V390.309C16.3203 386.022 18.6075 382.06 22.3203 379.916L64.8799 355.345Z" fill="#CF782B"/>
                <path id="DINCH &amp; Plasticisers" d="M47.893 411.095H44.211V400.861H47.795C50.819 400.861 52.905 402.947 52.905 405.999C52.905 409.009 50.861 411.095 47.893 411.095ZM47.627 402.513H46.003V409.443H47.725C49.769 409.443 51.015 408.127 51.015 405.999C51.015 403.829 49.741 402.513 47.627 402.513ZM56.5063 400.861V411.095H54.7143V400.861H56.5063ZM60.6788 411.095H58.9148V400.861H60.6928L65.4948 408.113V400.861H67.2588V411.095H65.4948L60.6788 403.843V411.095ZM73.9902 411.263C71.0082 411.263 69.0762 409.191 69.0762 405.985C69.0762 402.807 71.0782 400.693 74.0742 400.693C76.4962 400.693 78.3022 402.107 78.6522 404.305H76.7622C76.4122 403.115 75.3902 402.415 74.0322 402.415C72.1422 402.415 70.9522 403.787 70.9522 405.971C70.9522 408.141 72.1562 409.541 74.0322 409.541C75.4182 409.541 76.4822 408.813 76.8182 407.679H78.6802C78.2882 409.835 76.4122 411.263 73.9902 411.263ZM82.2193 411.095H80.4273V400.861H82.2193V405.089H86.7553V400.861H88.5473V411.095H86.7553V406.755H82.2193V411.095ZM101.447 411.095L100.761 410.325C99.9495 410.941 98.9135 411.277 97.6815 411.277C95.4555 411.277 93.9575 410.101 93.9575 408.379C93.9575 407.133 94.7695 406.111 96.3375 405.355C95.5395 404.431 95.2315 403.801 95.2315 403.031C95.2315 401.673 96.3375 400.693 97.8495 400.693C99.3475 400.693 100.383 401.617 100.383 402.947C100.383 403.969 99.8375 404.781 98.5635 405.635L100.621 407.945C100.803 407.455 100.901 406.867 100.901 406.195H102.567C102.567 407.385 102.287 408.407 101.769 409.219L103.435 411.095H101.447ZM96.8555 403.017C96.8555 403.521 97.0795 403.941 97.7375 404.697C98.4515 404.277 98.8015 403.703 98.8015 403.003C98.8015 402.401 98.4375 402.051 97.8495 402.051C97.2335 402.051 96.8555 402.415 96.8555 403.017ZM95.7635 408.211C95.7635 409.205 96.5615 409.807 97.8775 409.807C98.6475 409.807 99.2775 409.597 99.7675 409.205L97.1635 406.279C96.1975 406.825 95.7635 407.413 95.7635 408.211ZM41.4213 425.567H39.1673V429.095H37.3753V418.861H41.4213C43.4793 418.861 44.8093 420.205 44.8093 422.207C44.8093 424.181 43.4653 425.567 41.4213 425.567ZM41.0713 420.457H39.1673V423.971H41.0433C42.2753 423.971 42.9333 423.313 42.9333 422.193C42.9333 421.073 42.2613 420.457 41.0713 420.457ZM47.9267 429.095H46.2327V418.679H47.9267V429.095ZM51.9164 429.277C50.4464 429.277 49.5504 428.423 49.5504 427.121C49.5504 425.847 50.4744 425.049 52.1124 424.923L54.1844 424.769V424.615C54.1844 423.677 53.6244 423.299 52.7564 423.299C51.7484 423.299 51.1884 423.719 51.1884 424.447H49.7324C49.7324 422.949 50.9644 421.969 52.8404 421.969C54.7024 421.969 55.8504 422.977 55.8504 424.895V429.095H54.3524L54.2264 428.073C53.9324 428.787 52.9944 429.277 51.9164 429.277ZM52.4764 427.989C53.5264 427.989 54.1984 427.359 54.1984 426.295V425.931L52.7564 426.043C51.6924 426.141 51.2864 426.491 51.2864 427.051C51.2864 427.681 51.7064 427.989 52.4764 427.989ZM57.1363 426.995H58.7603C58.7743 427.597 59.2223 427.975 60.0063 427.975C60.8043 427.975 61.2383 427.653 61.2383 427.149C61.2383 426.799 61.0563 426.547 60.4403 426.407L59.1943 426.113C57.9483 425.833 57.3463 425.245 57.3463 424.139C57.3463 422.781 58.4943 421.969 60.0903 421.969C61.6443 421.969 62.6943 422.865 62.7083 424.209H61.0843C61.0703 423.621 60.6783 423.243 60.0203 423.243C59.3483 423.243 58.9563 423.551 58.9563 424.069C58.9563 424.461 59.2643 424.713 59.8523 424.853L61.0983 425.147C62.2603 425.413 62.8483 425.945 62.8483 427.009C62.8483 428.409 61.6583 429.277 59.9503 429.277C58.2283 429.277 57.1363 428.353 57.1363 426.995ZM66.6408 429.095H64.9328V423.607H63.6028V422.179H64.9328V420.023H66.6408V422.179H67.9848V423.607H66.6408V429.095ZM70.0406 420.793C69.4526 420.793 68.9906 420.331 68.9906 419.757C68.9906 419.183 69.4526 418.735 70.0406 418.735C70.6006 418.735 71.0626 419.183 71.0626 419.757C71.0626 420.331 70.6006 420.793 70.0406 420.793ZM69.1866 429.095V422.179H70.8946V429.095H69.1866ZM72.3933 425.623C72.3933 423.481 73.8073 421.969 75.8513 421.969C77.7413 421.969 79.0293 423.019 79.2113 424.685H77.5033C77.3073 423.901 76.7333 423.495 75.9213 423.495C74.8293 423.495 74.1013 424.321 74.1013 425.623C74.1013 426.925 74.7733 427.737 75.8653 427.737C76.7193 427.737 77.3213 427.317 77.5033 426.561H79.2253C79.0153 428.171 77.6713 429.277 75.8653 429.277C73.7653 429.277 72.3933 427.821 72.3933 425.623ZM81.4905 420.793C80.9025 420.793 80.4405 420.331 80.4405 419.757C80.4405 419.183 80.9025 418.735 81.4905 418.735C82.0505 418.735 82.5125 419.183 82.5125 419.757C82.5125 420.331 82.0505 420.793 81.4905 420.793ZM80.6365 429.095V422.179H82.3445V429.095H80.6365ZM83.7172 426.995H85.3412C85.3552 427.597 85.8032 427.975 86.5872 427.975C87.3852 427.975 87.8192 427.653 87.8192 427.149C87.8192 426.799 87.6372 426.547 87.0212 426.407L85.7752 426.113C84.5292 425.833 83.9272 425.245 83.9272 424.139C83.9272 422.781 85.0752 421.969 86.6712 421.969C88.2252 421.969 89.2752 422.865 89.2892 424.209H87.6652C87.6512 423.621 87.2592 423.243 86.6012 423.243C85.9292 423.243 85.5372 423.551 85.5372 424.069C85.5372 424.461 85.8452 424.713 86.4332 424.853L87.6792 425.147C88.8412 425.413 89.4292 425.945 89.4292 427.009C89.4292 428.409 88.2392 429.277 86.5312 429.277C84.8092 429.277 83.7172 428.353 83.7172 426.995ZM93.9637 429.277C91.9057 429.277 90.4637 427.779 90.4637 425.637C90.4637 423.467 91.8777 421.969 93.9077 421.969C95.9797 421.969 97.2957 423.355 97.2957 425.511V426.029L92.0877 426.043C92.2137 427.261 92.8577 427.877 93.9917 427.877C94.9297 427.877 95.5457 427.513 95.7417 426.855H97.3237C97.0297 428.367 95.7697 429.277 93.9637 429.277ZM93.9217 423.369C92.9137 423.369 92.2977 423.915 92.1297 424.951H95.6017C95.6017 423.999 94.9437 423.369 93.9217 423.369ZM103.143 422.151V423.733H102.513C101.281 423.733 100.511 424.391 100.511 425.735V429.095H98.8026V422.193H100.413L100.511 423.201C100.805 422.515 101.463 422.053 102.387 422.053C102.625 422.053 102.863 422.081 103.143 422.151ZM103.907 426.995H105.531C105.545 427.597 105.993 427.975 106.777 427.975C107.575 427.975 108.009 427.653 108.009 427.149C108.009 426.799 107.827 426.547 107.211 426.407L105.965 426.113C104.719 425.833 104.117 425.245 104.117 424.139C104.117 422.781 105.265 421.969 106.861 421.969C108.415 421.969 109.465 422.865 109.479 424.209H107.855C107.841 423.621 107.449 423.243 106.791 423.243C106.119 423.243 105.727 423.551 105.727 424.069C105.727 424.461 106.035 424.713 106.623 424.853L107.869 425.147C109.031 425.413 109.619 425.945 109.619 427.009C109.619 428.409 108.429 429.277 106.721 429.277C104.999 429.277 103.907 428.353 103.907 426.995Z" fill="black"/>
                <path id="Polygon 104" d="M62.0184 360.857L28.0609 380.537M79.1922 360.857L113.54 380.763M62.4086 469.456L29.0367 450.115M78.802 469.456L113.54 449.323M121.647 395.845V435.221M19.564 395.453V434.633" stroke="#CF782B" stroke-width="5.76" stroke-linecap="round"/>
            </g>
            <path id="Polygon 110" d="M60.8257 346.38L17.3987 371.309M82.7888 346.38L126.715 371.595M61.3247 483.939L18.6466 459.44M82.2898 483.939L126.715 458.438M6.53223 390.202V439.831" stroke="#E4E3E3" stroke-width="5.76" stroke-linecap="round"/>
        </g>
        <g id="metals">
            <g id="group_hover_9" data-chemical-target="metals">
                <path id="hover_9" d="M193.88 353.345C197.593 351.201 202.167 351.201 205.88 353.345L248.439 377.916C252.152 380.06 254.439 384.022 254.439 388.309V437.452C254.439 441.739 252.152 445.701 248.439 447.845L205.88 472.416C202.167 474.56 197.593 474.56 193.88 472.416L151.32 447.845C147.607 445.701 145.32 441.739 145.32 437.452V388.309C145.32 384.022 147.607 380.06 151.32 377.916L193.88 353.345Z" fill="#6E009A"/>
                <path id="Metals" d="M180.757 420.095H179.021V409.861H180.757L184.061 418.009L187.365 409.861H189.129V420.095H187.393V416.945C187.393 414.887 187.393 414.285 187.491 413.557L184.887 420.095H183.235L180.645 413.571C180.743 414.187 180.757 415.153 180.757 416.427V420.095ZM194.376 420.277C192.318 420.277 190.876 418.779 190.876 416.637C190.876 414.467 192.29 412.969 194.32 412.969C196.392 412.969 197.708 414.355 197.708 416.511V417.029L192.5 417.043C192.626 418.261 193.27 418.877 194.404 418.877C195.342 418.877 195.958 418.513 196.154 417.855H197.736C197.442 419.367 196.182 420.277 194.376 420.277ZM194.334 414.369C193.326 414.369 192.71 414.915 192.542 415.951H196.014C196.014 414.999 195.356 414.369 194.334 414.369ZM201.498 420.095H199.79V414.607H198.46V413.179H199.79V411.023H201.498V413.179H202.842V414.607H201.498V420.095ZM206.061 420.277C204.591 420.277 203.695 419.423 203.695 418.121C203.695 416.847 204.619 416.049 206.257 415.923L208.329 415.769V415.615C208.329 414.677 207.769 414.299 206.901 414.299C205.893 414.299 205.333 414.719 205.333 415.447H203.877C203.877 413.949 205.109 412.969 206.985 412.969C208.847 412.969 209.995 413.977 209.995 415.895V420.095H208.497L208.371 419.073C208.077 419.787 207.139 420.277 206.061 420.277ZM206.621 418.989C207.671 418.989 208.343 418.359 208.343 417.295V416.931L206.901 417.043C205.837 417.141 205.431 417.491 205.431 418.051C205.431 418.681 205.851 418.989 206.621 418.989ZM213.535 420.095H211.841V409.679H213.535V420.095ZM214.935 417.995H216.559C216.573 418.597 217.021 418.975 217.805 418.975C218.603 418.975 219.037 418.653 219.037 418.149C219.037 417.799 218.855 417.547 218.239 417.407L216.993 417.113C215.747 416.833 215.145 416.245 215.145 415.139C215.145 413.781 216.293 412.969 217.889 412.969C219.443 412.969 220.493 413.865 220.507 415.209H218.883C218.869 414.621 218.477 414.243 217.819 414.243C217.147 414.243 216.755 414.551 216.755 415.069C216.755 415.461 217.063 415.713 217.651 415.853L218.897 416.147C220.059 416.413 220.647 416.945 220.647 418.009C220.647 419.409 219.457 420.277 217.749 420.277C216.027 420.277 214.935 419.353 214.935 417.995Z" fill="black"/>
                <path id="Polygon 102" d="M190.889 359.412L156.932 379.092M208.063 359.412L242.41 379.318M191.279 468.01L157.907 448.669M207.673 468.01L242.41 447.878M250.517 394.399V433.776M148.435 394.007V433.188" stroke="#6E009A" stroke-width="5.76" stroke-linecap="round"/>
            </g>
            <path id="Polygon 112" d="M190.625 344.209L147.034 369.268M212.671 344.209L256.763 369.556M191.126 482.491L148.287 457.863M212.17 482.491L256.763 456.855M267.169 388.759V438.899M136.127 388.26V438.151" stroke="#E4E3E3" stroke-width="5.76" stroke-linecap="round"/>
        </g>
        <g id="mercury">
            <g id="group_hover_10" data-chemical-target="mercury">
                <path id="hover_10" d="M131.88 466.345C135.593 464.201 140.167 464.201 143.88 466.345L186.439 490.916C190.152 493.06 192.439 497.022 192.439 501.309V550.452C192.439 554.739 190.152 558.701 186.439 560.845L143.88 585.416C140.167 587.56 135.593 587.56 131.88 585.416L89.3203 560.845C85.6075 558.701 83.3203 554.739 83.3203 550.452V501.309C83.3203 497.022 85.6075 493.06 89.3203 490.916L131.88 466.345Z" fill="#E21337"/>
                <path id="Mercury" d="M113.549 530.588H111.813V520.354H113.549L116.853 528.502L120.157 520.354H121.921V530.588H120.185V527.438C120.185 525.38 120.185 524.778 120.283 524.05L117.679 530.588H116.027L113.437 524.064C113.535 524.68 113.549 525.646 113.549 526.92V530.588ZM127.168 530.77C125.11 530.77 123.668 529.272 123.668 527.13C123.668 524.96 125.082 523.462 127.112 523.462C129.184 523.462 130.5 524.848 130.5 527.004V527.522L125.292 527.536C125.418 528.754 126.062 529.37 127.196 529.37C128.134 529.37 128.75 529.006 128.946 528.348H130.528C130.234 529.86 128.974 530.77 127.168 530.77ZM127.126 524.862C126.118 524.862 125.502 525.408 125.334 526.444H128.806C128.806 525.492 128.148 524.862 127.126 524.862ZM136.347 523.644V525.226H135.717C134.485 525.226 133.715 525.884 133.715 527.228V530.588H132.007V523.686H133.617L133.715 524.694C134.009 524.008 134.667 523.546 135.591 523.546C135.829 523.546 136.067 523.574 136.347 523.644ZM137.004 527.116C137.004 524.974 138.418 523.462 140.462 523.462C142.352 523.462 143.64 524.512 143.822 526.178H142.114C141.918 525.394 141.344 524.988 140.532 524.988C139.44 524.988 138.712 525.814 138.712 527.116C138.712 528.418 139.384 529.23 140.476 529.23C141.33 529.23 141.932 528.81 142.114 528.054H143.836C143.626 529.664 142.282 530.77 140.476 530.77C138.376 530.77 137.004 529.314 137.004 527.116ZM149.938 523.672H151.646V530.588H150.064L149.938 529.664C149.518 530.322 148.622 530.77 147.698 530.77C146.102 530.77 145.164 529.692 145.164 527.998V523.672H146.872V527.396C146.872 528.712 147.39 529.244 148.342 529.244C149.42 529.244 149.938 528.614 149.938 527.298V523.672ZM157.89 523.644V525.226H157.26C156.028 525.226 155.258 525.884 155.258 527.228V530.588H153.55V523.686H155.16L155.258 524.694C155.552 524.008 156.21 523.546 157.134 523.546C157.372 523.546 157.61 523.574 157.89 523.644ZM158.789 533.794V532.366H159.811C160.483 532.366 160.903 532.212 161.197 531.4L161.393 530.882L158.607 523.672H160.413L162.191 528.712L164.067 523.672H165.831L162.443 532.128C161.925 533.416 161.197 533.948 160.063 533.948C159.587 533.948 159.167 533.892 158.789 533.794Z" fill="black"/>
                <path id="Polygon 58" d="M128.625 471.63L94.6679 491.311M145.799 471.63L180.147 491.537M129.016 580.229L95.6436 560.888M145.409 580.229L180.147 560.097M188.254 506.618V545.995M86.1709 506.226V545.407" stroke="#E21337" stroke-width="5.76" stroke-linecap="round"/>
            </g>
            <path id="Polygon 61" d="M127.337 457.15L83.9868 482.078M149.261 457.15L193.109 482.365M127.835 594.708L85.2325 570.21M148.763 594.708L193.109 569.207M203.458 501.467V551.345M73.1396 500.971V550.6" stroke="#E4E3E3" stroke-width="5.76" stroke-linecap="round"/>
        </g>
        <g id="microplastics">
            <g id="group_hover_11" data-chemical-target="microplastics">
                <path id="hover_11" d="M259.88 468.345C263.593 466.201 268.167 466.201 271.88 468.345L314.439 492.916C318.152 495.06 320.439 499.022 320.439 503.309V552.452C320.439 556.739 318.152 560.701 314.439 562.845L271.88 587.416C268.167 589.56 263.593 589.56 259.88 587.416L217.32 562.845C213.607 560.701 211.32 556.739 211.32 552.452V503.309C211.32 499.022 213.607 495.06 217.32 492.916L259.88 468.345Z" fill="#7DABE2"/>
                <path id="Microplastics" d="M224.191 530.244H222.455V520.01H224.191L227.495 528.158L230.799 520.01H232.563V530.244H230.827V527.094C230.827 525.036 230.827 524.434 230.925 523.706L228.321 530.244H226.669L224.079 523.72C224.177 524.336 224.191 525.302 224.191 526.576V530.244ZM235.57 521.942C234.982 521.942 234.52 521.48 234.52 520.906C234.52 520.332 234.982 519.884 235.57 519.884C236.13 519.884 236.592 520.332 236.592 520.906C236.592 521.48 236.13 521.942 235.57 521.942ZM234.716 530.244V523.328H236.424V530.244H234.716ZM237.923 526.772C237.923 524.63 239.337 523.118 241.381 523.118C243.271 523.118 244.559 524.168 244.741 525.834H243.033C242.837 525.05 242.263 524.644 241.451 524.644C240.359 524.644 239.631 525.47 239.631 526.772C239.631 528.074 240.303 528.886 241.395 528.886C242.249 528.886 242.851 528.466 243.033 527.71H244.755C244.545 529.32 243.201 530.426 241.395 530.426C239.295 530.426 237.923 528.97 237.923 526.772ZM250.506 523.3V524.882H249.876C248.644 524.882 247.874 525.54 247.874 526.884V530.244H246.166V523.342H247.776L247.874 524.35C248.168 523.664 248.826 523.202 249.75 523.202C249.988 523.202 250.226 523.23 250.506 523.3ZM251.164 526.772C251.164 524.616 252.718 523.132 254.86 523.132C257.002 523.132 258.556 524.616 258.556 526.772C258.556 528.928 257.002 530.412 254.86 530.412C252.718 530.412 251.164 528.928 251.164 526.772ZM252.872 526.772C252.872 528.032 253.684 528.886 254.86 528.886C256.036 528.886 256.848 528.032 256.848 526.772C256.848 525.512 256.036 524.658 254.86 524.658C253.684 524.658 252.872 525.512 252.872 526.772ZM260.049 533.45V523.328H261.631L261.743 524.378C262.163 523.58 263.073 523.118 264.123 523.118C266.069 523.118 267.357 524.532 267.357 526.702C267.357 528.858 266.181 530.426 264.123 530.426C263.087 530.426 262.191 530.02 261.757 529.32V533.45H260.049ZM261.771 526.786C261.771 528.032 262.541 528.886 263.717 528.886C264.921 528.886 265.635 528.018 265.635 526.786C265.635 525.554 264.921 524.672 263.717 524.672C262.541 524.672 261.771 525.54 261.771 526.786ZM270.579 530.244H268.885V519.828H270.579V530.244ZM274.569 530.426C273.099 530.426 272.203 529.572 272.203 528.27C272.203 526.996 273.127 526.198 274.765 526.072L276.837 525.918V525.764C276.837 524.826 276.277 524.448 275.409 524.448C274.401 524.448 273.841 524.868 273.841 525.596H272.385C272.385 524.098 273.617 523.118 275.493 523.118C277.355 523.118 278.503 524.126 278.503 526.044V530.244H277.005L276.879 529.222C276.585 529.936 275.647 530.426 274.569 530.426ZM275.129 529.138C276.179 529.138 276.851 528.508 276.851 527.444V527.08L275.409 527.192C274.345 527.29 273.939 527.64 273.939 528.2C273.939 528.83 274.359 529.138 275.129 529.138ZM279.789 528.144H281.413C281.427 528.746 281.875 529.124 282.659 529.124C283.457 529.124 283.891 528.802 283.891 528.298C283.891 527.948 283.709 527.696 283.093 527.556L281.847 527.262C280.601 526.982 279.999 526.394 279.999 525.288C279.999 523.93 281.147 523.118 282.743 523.118C284.297 523.118 285.347 524.014 285.361 525.358H283.737C283.723 524.77 283.331 524.392 282.673 524.392C282.001 524.392 281.609 524.7 281.609 525.218C281.609 525.61 281.917 525.862 282.505 526.002L283.751 526.296C284.913 526.562 285.501 527.094 285.501 528.158C285.501 529.558 284.311 530.426 282.603 530.426C280.881 530.426 279.789 529.502 279.789 528.144ZM289.294 530.244H287.586V524.756H286.256V523.328H287.586V521.172H289.294V523.328H290.638V524.756H289.294V530.244ZM292.693 521.942C292.105 521.942 291.643 521.48 291.643 520.906C291.643 520.332 292.105 519.884 292.693 519.884C293.253 519.884 293.715 520.332 293.715 520.906C293.715 521.48 293.253 521.942 292.693 521.942ZM291.839 530.244V523.328H293.547V530.244H291.839ZM295.046 526.772C295.046 524.63 296.46 523.118 298.504 523.118C300.394 523.118 301.682 524.168 301.864 525.834H300.156C299.96 525.05 299.386 524.644 298.574 524.644C297.482 524.644 296.754 525.47 296.754 526.772C296.754 528.074 297.426 528.886 298.518 528.886C299.372 528.886 299.974 528.466 300.156 527.71H301.878C301.668 529.32 300.324 530.426 298.518 530.426C296.418 530.426 295.046 528.97 295.046 526.772ZM302.757 528.144H304.381C304.395 528.746 304.843 529.124 305.627 529.124C306.425 529.124 306.859 528.802 306.859 528.298C306.859 527.948 306.677 527.696 306.061 527.556L304.815 527.262C303.569 526.982 302.967 526.394 302.967 525.288C302.967 523.93 304.115 523.118 305.711 523.118C307.265 523.118 308.315 524.014 308.329 525.358H306.705C306.691 524.77 306.299 524.392 305.641 524.392C304.969 524.392 304.577 524.7 304.577 525.218C304.577 525.61 304.885 525.862 305.473 526.002L306.719 526.296C307.881 526.562 308.469 527.094 308.469 528.158C308.469 529.558 307.279 530.426 305.571 530.426C303.849 530.426 302.757 529.502 302.757 528.144Z" fill="black"/>
                <path id="Polygon 103" d="M256.17 473.798L222.694 493.479M273.1 473.798L306.96 493.705M256.554 582.397L223.656 563.056M272.715 582.397L306.96 562.265M314.952 508.786V548.163M214.317 508.394V547.575" stroke="#7DABE2" stroke-width="5.76" stroke-linecap="round"/>
            </g>
            <path id="Polygon 108" d="M254.759 459.322L211.409 484.25M276.683 459.322L320.531 484.537M255.257 596.88L212.654 572.382M276.185 596.88L320.531 571.379M330.88 503.639V553.516M200.562 503.143V552.772" stroke="#E4E3E3" stroke-width="5.76" stroke-linecap="round"/>
        </g>
    </g>
</svg>