<svg class="chemicals-svg" xmlns="http://www.w3.org/2000/svg" width="1274" height="515" viewBox="0 0 1274 515" fill="none">
    <g id="desktop">
        <g id="pesticides">
            <g id="group_hover" data-chemical-target="pesticides">
                <path id="hover" d="M89.6562 174.215C93.369 172.071 97.9434 172.071 101.656 174.215L164.983 210.776C168.695 212.92 170.983 216.881 170.983 221.169V294.292C170.983 298.579 168.695 302.54 164.983 304.684L101.656 341.245C97.9434 343.389 93.369 343.389 89.6562 341.245L26.3298 304.684C22.617 302.54 20.3298 298.579 20.3298 294.292V221.169C20.3298 216.881 22.617 212.92 26.3298 210.776L89.6562 174.215Z" fill="#5658E7"/>
                <path id="Pesticides" d="M56.2447 260.711H53.0247V265.751H50.4647V251.131H56.2447C59.1847 251.131 61.0847 253.051 61.0847 255.911C61.0847 258.731 59.1647 260.711 56.2447 260.711ZM55.7447 253.411H53.0247V258.431H55.7047C57.4647 258.431 58.4047 257.491 58.4047 255.891C58.4047 254.291 57.4447 253.411 55.7447 253.411ZM67.0099 266.011C64.0699 266.011 62.0099 263.871 62.0099 260.811C62.0099 257.711 64.0299 255.571 66.9299 255.571C69.8899 255.571 71.7699 257.551 71.7699 260.631V261.371L64.3299 261.391C64.5099 263.131 65.4299 264.011 67.0499 264.011C68.3899 264.011 69.2699 263.491 69.5499 262.551H71.8099C71.3899 264.711 69.5899 266.011 67.0099 266.011ZM66.9499 257.571C65.5099 257.571 64.6299 258.351 64.3899 259.831H69.3499C69.3499 258.471 68.4099 257.571 66.9499 257.571ZM73.1627 262.751H75.4827C75.5027 263.611 76.1427 264.151 77.2627 264.151C78.4027 264.151 79.0227 263.691 79.0227 262.971C79.0227 262.471 78.7627 262.111 77.8827 261.911L76.1027 261.491C74.3227 261.091 73.4627 260.251 73.4627 258.671C73.4627 256.731 75.1027 255.571 77.3827 255.571C79.6027 255.571 81.1027 256.851 81.1227 258.771H78.8027C78.7827 257.931 78.2227 257.391 77.2827 257.391C76.3227 257.391 75.7627 257.831 75.7627 258.571C75.7627 259.131 76.2027 259.491 77.0427 259.691L78.8227 260.111C80.4827 260.491 81.3227 261.251 81.3227 262.771C81.3227 264.771 79.6227 266.011 77.1827 266.011C74.7227 266.011 73.1627 264.691 73.1627 262.751ZM86.7405 265.751H84.3005V257.911H82.4005V255.871H84.3005V252.791H86.7405V255.871H88.6605V257.911H86.7405V265.751ZM91.5974 253.891C90.7574 253.891 90.0974 253.231 90.0974 252.411C90.0974 251.591 90.7574 250.951 91.5974 250.951C92.3974 250.951 93.0574 251.591 93.0574 252.411C93.0574 253.231 92.3974 253.891 91.5974 253.891ZM90.3774 265.751V255.871H92.8174V265.751H90.3774ZM94.9583 260.791C94.9583 257.731 96.9783 255.571 99.8983 255.571C102.598 255.571 104.438 257.071 104.698 259.451H102.258C101.978 258.331 101.158 257.751 99.9983 257.751C98.4383 257.751 97.3983 258.931 97.3983 260.791C97.3983 262.651 98.3583 263.811 99.9183 263.811C101.138 263.811 101.998 263.211 102.258 262.131H104.718C104.418 264.431 102.498 266.011 99.9183 266.011C96.9183 266.011 94.9583 263.931 94.9583 260.791ZM107.954 253.891C107.114 253.891 106.454 253.231 106.454 252.411C106.454 251.591 107.114 250.951 107.954 250.951C108.754 250.951 109.414 251.591 109.414 252.411C109.414 253.231 108.754 253.891 107.954 253.891ZM106.734 265.751V255.871H109.174V265.751H106.734ZM115.955 266.011C113.095 266.011 111.315 263.911 111.315 260.851C111.315 257.771 113.115 255.571 116.095 255.571C117.475 255.571 118.695 256.151 119.315 257.131V250.871H121.735V265.751H119.495L119.335 264.211C118.735 265.351 117.455 266.011 115.955 266.011ZM116.495 263.771C118.195 263.771 119.295 262.551 119.295 260.771C119.295 258.991 118.195 257.751 116.495 257.751C114.795 257.751 113.755 259.011 113.755 260.771C113.755 262.531 114.795 263.771 116.495 263.771ZM128.898 266.011C125.958 266.011 123.898 263.871 123.898 260.811C123.898 257.711 125.918 255.571 128.818 255.571C131.778 255.571 133.658 257.551 133.658 260.631V261.371L126.218 261.391C126.398 263.131 127.318 264.011 128.938 264.011C130.278 264.011 131.158 263.491 131.438 262.551H133.698C133.278 264.711 131.478 266.011 128.898 266.011ZM128.838 257.571C127.398 257.571 126.518 258.351 126.278 259.831H131.238C131.238 258.471 130.298 257.571 128.838 257.571ZM135.051 262.751H137.371C137.391 263.611 138.031 264.151 139.151 264.151C140.291 264.151 140.911 263.691 140.911 262.971C140.911 262.471 140.651 262.111 139.771 261.911L137.991 261.491C136.211 261.091 135.351 260.251 135.351 258.671C135.351 256.731 136.991 255.571 139.271 255.571C141.491 255.571 142.991 256.851 143.011 258.771H140.691C140.671 257.931 140.111 257.391 139.171 257.391C138.211 257.391 137.651 257.831 137.651 258.571C137.651 259.131 138.091 259.491 138.931 259.691L140.711 260.111C142.371 260.491 143.211 261.251 143.211 262.771C143.211 264.771 141.511 266.011 139.071 266.011C136.611 266.011 135.051 264.691 135.051 262.751Z" fill="black"/>
                <path id="Polygon 50" d="M83.7277 182.102L37.2335 209.436M107.242 182.102L154.27 209.75M84.262 332.934L38.5696 306.071M106.708 332.934L154.27 304.972M165.37 230.696V285.386M25.5996 230.152V284.569" stroke="#5658E7" stroke-width="8" stroke-linecap="round"/>
            </g>
            <path id="Polygon 31" d="M79.2738 161.61L19.0655 196.233M109.724 161.61L170.624 196.631M79.9656 352.663L20.7956 318.637M109.032 352.663L170.624 317.245M184.998 223.162V292.436M4 222.473V291.402" stroke="#E4E3E3" stroke-width="8" stroke-linecap="round"/>
        </g>
        <g id="dinch">
            <g id="group_hover_2" data-chemical-target="dinch">
                <path id="hover_2" d="M629.656 174.215C633.369 172.071 637.943 172.071 641.656 174.215L704.983 210.776C708.695 212.92 710.983 216.881 710.983 221.169V294.292C710.983 298.579 708.695 302.54 704.983 304.684L641.656 341.245C637.943 343.389 633.369 343.389 629.656 341.245L566.33 304.684C562.617 302.54 560.33 298.579 560.33 294.292V221.169C560.33 216.881 562.617 212.92 566.33 210.776L629.656 174.215Z" fill="#CF782B"/>
                <path id="DINCH &amp; Plasticisers" d="M599.611 252.751H594.351V238.131H599.471C603.791 238.131 606.771 241.111 606.771 245.471C606.771 249.771 603.851 252.751 599.611 252.751ZM599.231 240.491H596.911V250.391H599.371C602.291 250.391 604.071 248.511 604.071 245.471C604.071 242.371 602.251 240.491 599.231 240.491ZM611.915 238.131V252.751H609.355V238.131H611.915ZM617.876 252.751H615.356V238.131H617.896L624.756 248.491V238.131H627.276V252.751H624.756L617.876 242.391V252.751ZM636.892 252.991C632.632 252.991 629.872 250.031 629.872 245.451C629.872 240.911 632.732 237.891 637.012 237.891C640.472 237.891 643.052 239.911 643.552 243.051H640.852C640.352 241.351 638.892 240.351 636.952 240.351C634.252 240.351 632.552 242.311 632.552 245.431C632.552 248.531 634.272 250.531 636.952 250.531C638.932 250.531 640.452 249.491 640.932 247.871H643.592C643.032 250.951 640.352 252.991 636.892 252.991ZM648.648 252.751H646.088V238.131H648.648V244.171H655.128V238.131H657.688V252.751H655.128V246.551H648.648V252.751ZM676.117 252.751L675.137 251.651C673.977 252.531 672.497 253.011 670.737 253.011C667.557 253.011 665.417 251.331 665.417 248.871C665.417 247.091 666.577 245.631 668.817 244.551C667.677 243.231 667.237 242.331 667.237 241.231C667.237 239.291 668.817 237.891 670.977 237.891C673.117 237.891 674.597 239.211 674.597 241.111C674.597 242.571 673.817 243.731 671.997 244.951L674.937 248.251C675.197 247.551 675.337 246.711 675.337 245.751H677.717C677.717 247.451 677.317 248.911 676.577 250.071L678.957 252.751H676.117ZM669.557 241.211C669.557 241.931 669.877 242.531 670.817 243.611C671.837 243.011 672.337 242.191 672.337 241.191C672.337 240.331 671.817 239.831 670.977 239.831C670.097 239.831 669.557 240.351 669.557 241.211ZM667.997 248.631C667.997 250.051 669.137 250.911 671.017 250.911C672.117 250.911 673.017 250.611 673.717 250.051L669.997 245.871C668.617 246.651 667.997 247.491 667.997 248.631ZM590.365 273.711H587.145V278.751H584.585V264.131H590.365C593.305 264.131 595.205 266.051 595.205 268.911C595.205 271.731 593.285 273.711 590.365 273.711ZM589.865 266.411H587.145V271.431H589.825C591.585 271.431 592.525 270.491 592.525 268.891C592.525 267.291 591.565 266.411 589.865 266.411ZM599.659 278.751H597.239V263.871H599.659V278.751ZM605.358 279.011C603.258 279.011 601.978 277.791 601.978 275.931C601.978 274.111 603.298 272.971 605.638 272.791L608.598 272.571V272.351C608.598 271.011 607.798 270.471 606.558 270.471C605.118 270.471 604.318 271.071 604.318 272.111H602.238C602.238 269.971 603.998 268.571 606.678 268.571C609.338 268.571 610.978 270.011 610.978 272.751V278.751H608.838L608.658 277.291C608.238 278.311 606.898 279.011 605.358 279.011ZM606.158 277.171C607.658 277.171 608.618 276.271 608.618 274.751V274.231L606.558 274.391C605.038 274.531 604.458 275.031 604.458 275.831C604.458 276.731 605.058 277.171 606.158 277.171ZM612.815 275.751H615.135C615.155 276.611 615.795 277.151 616.915 277.151C618.055 277.151 618.675 276.691 618.675 275.971C618.675 275.471 618.415 275.111 617.535 274.911L615.755 274.491C613.975 274.091 613.115 273.251 613.115 271.671C613.115 269.731 614.755 268.571 617.035 268.571C619.255 268.571 620.755 269.851 620.775 271.771H618.455C618.435 270.931 617.875 270.391 616.935 270.391C615.975 270.391 615.415 270.831 615.415 271.571C615.415 272.131 615.855 272.491 616.695 272.691L618.475 273.111C620.135 273.491 620.975 274.251 620.975 275.771C620.975 277.771 619.275 279.011 616.835 279.011C614.375 279.011 612.815 277.691 612.815 275.751ZM626.393 278.751H623.953V270.911H622.053V268.871H623.953V265.791H626.393V268.871H628.313V270.911H626.393V278.751ZM631.25 266.891C630.41 266.891 629.75 266.231 629.75 265.411C629.75 264.591 630.41 263.951 631.25 263.951C632.05 263.951 632.71 264.591 632.71 265.411C632.71 266.231 632.05 266.891 631.25 266.891ZM630.03 278.751V268.871H632.47V278.751H630.03ZM634.611 273.791C634.611 270.731 636.631 268.571 639.551 268.571C642.251 268.571 644.091 270.071 644.351 272.451H641.911C641.631 271.331 640.811 270.751 639.651 270.751C638.091 270.751 637.051 271.931 637.051 273.791C637.051 275.651 638.011 276.811 639.571 276.811C640.791 276.811 641.651 276.211 641.911 275.131H644.371C644.071 277.431 642.151 279.011 639.571 279.011C636.571 279.011 634.611 276.931 634.611 273.791ZM647.607 266.891C646.767 266.891 646.107 266.231 646.107 265.411C646.107 264.591 646.767 263.951 647.607 263.951C648.407 263.951 649.067 264.591 649.067 265.411C649.067 266.231 648.407 266.891 647.607 266.891ZM646.387 278.751V268.871H648.827V278.751H646.387ZM650.788 275.751H653.108C653.128 276.611 653.768 277.151 654.888 277.151C656.028 277.151 656.648 276.691 656.648 275.971C656.648 275.471 656.388 275.111 655.508 274.911L653.728 274.491C651.948 274.091 651.088 273.251 651.088 271.671C651.088 269.731 652.728 268.571 655.008 268.571C657.228 268.571 658.728 269.851 658.748 271.771H656.428C656.408 270.931 655.848 270.391 654.908 270.391C653.948 270.391 653.388 270.831 653.388 271.571C653.388 272.131 653.828 272.491 654.668 272.691L656.448 273.111C658.108 273.491 658.948 274.251 658.948 275.771C658.948 277.771 657.248 279.011 654.808 279.011C652.348 279.011 650.788 277.691 650.788 275.751ZM665.426 279.011C662.486 279.011 660.426 276.871 660.426 273.811C660.426 270.711 662.446 268.571 665.346 268.571C668.306 268.571 670.186 270.551 670.186 273.631V274.371L662.746 274.391C662.926 276.131 663.846 277.011 665.466 277.011C666.806 277.011 667.686 276.491 667.966 275.551H670.226C669.806 277.711 668.006 279.011 665.426 279.011ZM665.366 270.571C663.926 270.571 663.046 271.351 662.806 272.831H667.766C667.766 271.471 666.826 270.571 665.366 270.571ZM678.539 268.831V271.091H677.639C675.879 271.091 674.779 272.031 674.779 273.951V278.751H672.339V268.891H674.639L674.779 270.331C675.199 269.351 676.139 268.691 677.459 268.691C677.799 268.691 678.139 268.731 678.539 268.831ZM679.63 275.751H681.95C681.97 276.611 682.61 277.151 683.73 277.151C684.87 277.151 685.49 276.691 685.49 275.971C685.49 275.471 685.23 275.111 684.35 274.911L682.57 274.491C680.79 274.091 679.93 273.251 679.93 271.671C679.93 269.731 681.57 268.571 683.85 268.571C686.07 268.571 687.57 269.851 687.59 271.771H685.27C685.25 270.931 684.69 270.391 683.75 270.391C682.79 270.391 682.23 270.831 682.23 271.571C682.23 272.131 682.67 272.491 683.51 272.691L685.29 273.111C686.95 273.491 687.79 274.251 687.79 275.771C687.79 277.771 686.09 279.011 683.65 279.011C681.19 279.011 679.63 277.691 679.63 275.751Z" fill="black"/>
                <path id="Polygon 66" d="M623.579 182.737L576.416 210.071M647.432 182.737L695.137 210.385M624.121 333.568L577.771 306.706M646.89 333.568L695.137 305.607M706.396 231.331V286.02M564.615 230.787V285.204" stroke="#CF782B" stroke-width="8" stroke-linecap="round"/>
            </g>
            <path id="Polygon 67" d="M620.988 162.376L560.672 196.998M651.492 162.376L712.5 197.396M621.681 353.429L562.406 319.403M650.799 353.429L712.5 318.01" stroke="#E4E3E3" stroke-width="8" stroke-linecap="round"/>
        </g>
        <g id="metals">
            <g id="group_hover_3" data-chemical-target="metals">
                <path id="hover_3" d="M811.656 174.215C815.369 172.071 819.943 172.071 823.656 174.215L886.983 210.776C890.695 212.92 892.983 216.881 892.983 221.169V294.292C892.983 298.579 890.695 302.54 886.983 304.684L823.656 341.245C819.943 343.389 815.369 343.389 811.656 341.245L748.33 304.684C744.617 302.54 742.33 298.579 742.33 294.292V221.169C742.33 216.881 744.617 212.92 748.33 210.776L811.656 174.215Z" fill="#6E009A"/>
                <path id="Metals" d="M790.685 265.751H788.205V251.131H790.685L795.405 262.771L800.125 251.131H802.645V265.751H800.165V261.251C800.165 258.311 800.165 257.451 800.305 256.411L796.585 265.751H794.225L790.525 256.431C790.665 257.311 790.685 258.691 790.685 260.511V265.751ZM810.141 266.011C807.201 266.011 805.141 263.871 805.141 260.811C805.141 257.711 807.161 255.571 810.061 255.571C813.021 255.571 814.901 257.551 814.901 260.631V261.371L807.461 261.391C807.641 263.131 808.561 264.011 810.181 264.011C811.521 264.011 812.401 263.491 812.681 262.551H814.941C814.521 264.711 812.721 266.011 810.141 266.011ZM810.081 257.571C808.641 257.571 807.761 258.351 807.521 259.831H812.481C812.481 258.471 811.541 257.571 810.081 257.571ZM820.316 265.751H817.876V257.911H815.976V255.871H817.876V252.791H820.316V255.871H822.236V257.911H820.316V265.751ZM826.834 266.011C824.734 266.011 823.454 264.791 823.454 262.931C823.454 261.111 824.774 259.971 827.114 259.791L830.074 259.571V259.351C830.074 258.011 829.274 257.471 828.034 257.471C826.594 257.471 825.794 258.071 825.794 259.111H823.714C823.714 256.971 825.474 255.571 828.154 255.571C830.814 255.571 832.454 257.011 832.454 259.751V265.751H830.314L830.134 264.291C829.714 265.311 828.374 266.011 826.834 266.011ZM827.634 264.171C829.134 264.171 830.094 263.271 830.094 261.751V261.231L828.034 261.391C826.514 261.531 825.934 262.031 825.934 262.831C825.934 263.731 826.534 264.171 827.634 264.171ZM837.511 265.751H835.091V250.871H837.511V265.751ZM839.511 262.751H841.831C841.851 263.611 842.491 264.151 843.611 264.151C844.751 264.151 845.371 263.691 845.371 262.971C845.371 262.471 845.111 262.111 844.231 261.911L842.451 261.491C840.671 261.091 839.811 260.251 839.811 258.671C839.811 256.731 841.451 255.571 843.731 255.571C845.951 255.571 847.451 256.851 847.471 258.771H845.151C845.131 257.931 844.571 257.391 843.631 257.391C842.671 257.391 842.111 257.831 842.111 258.571C842.111 259.131 842.551 259.491 843.391 259.691L845.171 260.111C846.831 260.491 847.671 261.251 847.671 262.771C847.671 264.771 845.971 266.011 843.531 266.011C841.071 266.011 839.511 264.691 839.511 262.751Z" fill="black"/>
                <path id="Polygon 70" d="M805.566 182.727L758.403 210.061M829.419 182.727L877.124 210.375M806.108 333.559L759.758 306.696M828.877 333.559L877.124 305.597M888.383 231.321V286.011M746.602 230.777V285.194" stroke="#6E009A" stroke-width="8" stroke-linecap="round"/>
            </g>
            <path id="Polygon 71" d="M802.449 160.11L741.907 194.915M833.069 160.11L894.307 195.315M803.145 352.169L743.646 317.964M908.761 221.986V291.624M726.757 221.293V290.585" stroke="#E4E3E3" stroke-width="8" stroke-linecap="round"/>
        </g>
        <g id="mercury">
            <g id="group_hover_4" data-chemical-target="mercury">
                <path id="hover_4" d="M720.656 331.215C724.369 329.071 728.943 329.071 732.656 331.215L795.983 367.776C799.695 369.92 801.983 373.881 801.983 378.169V451.292C801.983 455.579 799.695 459.54 795.983 461.684L732.656 498.245C728.943 500.389 724.369 500.389 720.656 498.245L657.33 461.684C653.617 459.54 651.33 455.579 651.33 451.292V378.169C651.33 373.881 653.617 369.92 657.33 367.776L720.656 331.215Z" fill="#E21337"/>
                <path id="Mercury" d="M691.32 418.251H688.84V403.631H691.32L696.04 415.271L700.76 403.631H703.28V418.251H700.8V413.751C700.8 410.811 700.8 409.951 700.94 408.911L697.22 418.251H694.86L691.16 408.931C691.3 409.811 691.32 411.191 691.32 413.011V418.251ZM710.776 418.511C707.836 418.511 705.776 416.371 705.776 413.311C705.776 410.211 707.796 408.071 710.696 408.071C713.656 408.071 715.536 410.051 715.536 413.131V413.871L708.096 413.891C708.276 415.631 709.196 416.511 710.816 416.511C712.156 416.511 713.036 415.991 713.316 415.051H715.576C715.156 417.211 713.356 418.511 710.776 418.511ZM710.716 410.071C709.276 410.071 708.396 410.851 708.156 412.331H713.116C713.116 410.971 712.176 410.071 710.716 410.071ZM723.888 408.331V410.591H722.988C721.228 410.591 720.128 411.531 720.128 413.451V418.251H717.688V408.391H719.988L720.128 409.831C720.548 408.851 721.488 408.191 722.808 408.191C723.148 408.191 723.488 408.231 723.888 408.331ZM724.828 413.291C724.828 410.231 726.848 408.071 729.768 408.071C732.468 408.071 734.308 409.571 734.568 411.951H732.128C731.848 410.831 731.028 410.251 729.868 410.251C728.308 410.251 727.268 411.431 727.268 413.291C727.268 415.151 728.228 416.311 729.788 416.311C731.008 416.311 731.868 415.711 732.128 414.631H734.588C734.288 416.931 732.368 418.511 729.788 418.511C726.788 418.511 724.828 416.431 724.828 413.291ZM743.304 408.371H745.744V418.251H743.484L743.304 416.931C742.704 417.871 741.424 418.511 740.104 418.511C737.824 418.511 736.484 416.971 736.484 414.551V408.371H738.924V413.691C738.924 415.571 739.664 416.331 741.024 416.331C742.564 416.331 743.304 415.431 743.304 413.551V408.371ZM754.664 408.331V410.591H753.764C752.004 410.591 750.904 411.531 750.904 413.451V418.251H748.464V408.391H750.764L750.904 409.831C751.324 408.851 752.264 408.191 753.584 408.191C753.924 408.191 754.264 408.231 754.664 408.331ZM755.949 422.831V420.791H757.409C758.369 420.791 758.969 420.571 759.389 419.411L759.669 418.671L755.689 408.371H758.269L760.809 415.571L763.489 408.371H766.009L761.169 420.451C760.429 422.291 759.389 423.051 757.769 423.051C757.089 423.051 756.489 422.971 755.949 422.831Z" fill="black"/>
                <path id="Polygon 58" d="M714.741 338.862L667.578 366.196M738.594 338.862L786.299 366.51M715.283 489.693L668.933 462.831M738.052 489.693L786.299 461.732M797.558 387.456V442.145M655.777 386.912V441.329" stroke="#E21337" stroke-width="8" stroke-linecap="round"/>
            </g>
            <path id="Polygon 61" d="M713.643 508.804L654.473 474.778M742.709 508.804L804.301 473.385M818.675 379.303V448.577M637.677 378.614V447.543" stroke="#E4E3E3" stroke-width="8" stroke-linecap="round"/>
        </g>
        <g id="arsenic">
            <g id="group_hover_5" data-chemical-target="arsenic">
                <path id="hover_5" d="M1173.66 174.215C1177.37 172.071 1181.94 172.071 1185.66 174.215L1248.98 210.776C1252.7 212.92 1254.98 216.881 1254.98 221.169V294.292C1254.98 298.579 1252.7 302.54 1248.98 304.684L1185.66 341.245C1181.94 343.389 1177.37 343.389 1173.66 341.245L1110.33 304.684C1106.62 302.54 1104.33 298.579 1104.33 294.292V221.169C1104.33 216.881 1106.62 212.92 1110.33 210.776L1173.66 174.215Z" fill="#C064E4"/>
                <path id="Polygon 68" d="M1167.66 182.868L1120.83 210.202M1191.35 182.868L1238.71 210.516M1168.2 333.699L1122.18 306.837M1190.81 333.699L1238.71 305.737M1249.89 231.462V286.151M1109.12 230.917V285.335" stroke="#C064E4" stroke-width="8" stroke-linecap="round"/>
                <path id="Arsenic" d="M1147.57 265.751H1144.91L1150.19 251.131H1152.81L1158.09 265.751H1155.39L1154.21 262.371H1148.75L1147.57 265.751ZM1151.17 255.491L1149.51 260.211H1153.47L1151.79 255.491C1151.67 255.111 1151.53 254.671 1151.49 254.371C1151.43 254.651 1151.31 255.091 1151.17 255.491ZM1165.97 255.831V258.091H1165.07C1163.31 258.091 1162.21 259.031 1162.21 260.951V265.751H1159.77V255.891H1162.07L1162.21 257.331C1162.63 256.351 1163.57 255.691 1164.89 255.691C1165.23 255.691 1165.57 255.731 1165.97 255.831ZM1167.06 262.751H1169.38C1169.4 263.611 1170.04 264.151 1171.16 264.151C1172.3 264.151 1172.92 263.691 1172.92 262.971C1172.92 262.471 1172.66 262.111 1171.78 261.911L1170 261.491C1168.22 261.091 1167.36 260.251 1167.36 258.671C1167.36 256.731 1169 255.571 1171.28 255.571C1173.5 255.571 1175 256.851 1175.02 258.771H1172.7C1172.68 257.931 1172.12 257.391 1171.18 257.391C1170.22 257.391 1169.66 257.831 1169.66 258.571C1169.66 259.131 1170.1 259.491 1170.94 259.691L1172.72 260.111C1174.38 260.491 1175.22 261.251 1175.22 262.771C1175.22 264.771 1173.52 266.011 1171.08 266.011C1168.62 266.011 1167.06 264.691 1167.06 262.751ZM1181.7 266.011C1178.76 266.011 1176.7 263.871 1176.7 260.811C1176.7 257.711 1178.72 255.571 1181.62 255.571C1184.58 255.571 1186.46 257.551 1186.46 260.631V261.371L1179.02 261.391C1179.2 263.131 1180.12 264.011 1181.74 264.011C1183.08 264.011 1183.96 263.491 1184.24 262.551H1186.5C1186.08 264.711 1184.28 266.011 1181.7 266.011ZM1181.64 257.571C1180.2 257.571 1179.32 258.351 1179.08 259.831H1184.04C1184.04 258.471 1183.1 257.571 1181.64 257.571ZM1191.05 265.751H1188.61V255.871H1190.87L1191.07 257.151C1191.69 256.151 1192.89 255.571 1194.23 255.571C1196.71 255.571 1197.99 257.111 1197.99 259.671V265.751H1195.55V260.251C1195.55 258.591 1194.73 257.791 1193.47 257.791C1191.97 257.791 1191.05 258.831 1191.05 260.431V265.751ZM1201.81 253.891C1200.97 253.891 1200.31 253.231 1200.31 252.411C1200.31 251.591 1200.97 250.951 1201.81 250.951C1202.61 250.951 1203.27 251.591 1203.27 252.411C1203.27 253.231 1202.61 253.891 1201.81 253.891ZM1200.59 265.751V255.871H1203.03V265.751H1200.59ZM1205.17 260.791C1205.17 257.731 1207.19 255.571 1210.11 255.571C1212.81 255.571 1214.65 257.071 1214.91 259.451H1212.47C1212.19 258.331 1211.37 257.751 1210.21 257.751C1208.65 257.751 1207.61 258.931 1207.61 260.791C1207.61 262.651 1208.57 263.811 1210.13 263.811C1211.35 263.811 1212.21 263.211 1212.47 262.131H1214.93C1214.63 264.431 1212.71 266.011 1210.13 266.011C1207.13 266.011 1205.17 263.931 1205.17 260.791Z" fill="black"/>
            </g>
            <path id="Polygon 69" d="M1165.42 160.751L1105.1 195.556M1195.92 160.751L1256.93 195.956M1166.11 352.809L1106.84 318.605M1195.23 352.809L1256.93 317.205M1090.01 221.934V291.226" stroke="#E4E3E3" stroke-width="8" stroke-linecap="round"/>
            <path id="Polygon 79" d="M1269.01 221.934V291.226" stroke="#E4E3E3" stroke-width="8" stroke-linecap="round"/>
        </g>
        <g id="endocrine_disruptors">
            <g id="group_hover_6" data-chemical-target="endocrine_disruptors">
                <path id="hover_6" d="M178.656 331.215C182.369 329.071 186.943 329.071 190.656 331.215L253.983 367.776C257.695 369.92 259.983 373.881 259.983 378.169V451.292C259.983 455.579 257.695 459.54 253.983 461.684L190.656 498.245C186.943 500.389 182.369 500.389 178.656 498.245L115.33 461.684C111.617 459.54 109.33 455.579 109.33 451.292V378.169C109.33 373.881 111.617 369.92 115.33 367.776L178.656 331.215Z" fill="#1B90B1"/>
                <path id="Endocrine disruptors" d="M146.064 410.751H136.984V396.131H146.064V398.491H139.544V402.251H145.384V404.511H139.544V408.391H146.064V410.751ZM151.12 410.751H148.68V400.871H150.94L151.14 402.151C151.76 401.151 152.96 400.571 154.3 400.571C156.78 400.571 158.06 402.111 158.06 404.671V410.751H155.62V405.251C155.62 403.591 154.8 402.791 153.54 402.791C152.04 402.791 151.12 403.831 151.12 405.431V410.751ZM164.717 411.011C161.857 411.011 160.077 408.911 160.077 405.851C160.077 402.771 161.877 400.571 164.857 400.571C166.237 400.571 167.457 401.151 168.077 402.131V395.871H170.497V410.751H168.257L168.097 409.211C167.497 410.351 166.217 411.011 164.717 411.011ZM165.257 408.771C166.957 408.771 168.057 407.551 168.057 405.771C168.057 403.991 166.957 402.751 165.257 402.751C163.557 402.751 162.517 404.011 162.517 405.771C162.517 407.531 163.557 408.771 165.257 408.771ZM172.66 405.791C172.66 402.711 174.88 400.591 177.94 400.591C181 400.591 183.22 402.711 183.22 405.791C183.22 408.871 181 410.991 177.94 410.991C174.88 410.991 172.66 408.871 172.66 405.791ZM175.1 405.791C175.1 407.591 176.26 408.811 177.94 408.811C179.62 408.811 180.78 407.591 180.78 405.791C180.78 403.991 179.62 402.771 177.94 402.771C176.26 402.771 175.1 403.991 175.1 405.791ZM184.774 405.791C184.774 402.731 186.794 400.571 189.714 400.571C192.414 400.571 194.254 402.071 194.514 404.451H192.074C191.794 403.331 190.974 402.751 189.814 402.751C188.254 402.751 187.214 403.931 187.214 405.791C187.214 407.651 188.174 408.811 189.734 408.811C190.954 408.811 191.814 408.211 192.074 407.131H194.534C194.234 409.431 192.314 411.011 189.734 411.011C186.734 411.011 184.774 408.931 184.774 405.791ZM202.75 400.831V403.091H201.85C200.09 403.091 198.99 404.031 198.99 405.951V410.751H196.55V400.891H198.85L198.99 402.331C199.41 401.351 200.35 400.691 201.67 400.691C202.01 400.691 202.35 400.731 202.75 400.831ZM205.822 398.891C204.982 398.891 204.322 398.231 204.322 397.411C204.322 396.591 204.982 395.951 205.822 395.951C206.622 395.951 207.282 396.591 207.282 397.411C207.282 398.231 206.622 398.891 205.822 398.891ZM204.602 410.751V400.871H207.042V410.751H204.602ZM212.203 410.751H209.763V400.871H212.023L212.223 402.151C212.843 401.151 214.043 400.571 215.383 400.571C217.863 400.571 219.143 402.111 219.143 404.671V410.751H216.703V405.251C216.703 403.591 215.883 402.791 214.623 402.791C213.123 402.791 212.203 403.831 212.203 405.431V410.751ZM226.16 411.011C223.22 411.011 221.16 408.871 221.16 405.811C221.16 402.711 223.18 400.571 226.08 400.571C229.04 400.571 230.92 402.551 230.92 405.631V406.371L223.48 406.391C223.66 408.131 224.58 409.011 226.2 409.011C227.54 409.011 228.42 408.491 228.7 407.551H230.96C230.54 409.711 228.74 411.011 226.16 411.011ZM226.1 402.571C224.66 402.571 223.78 403.351 223.54 404.831H228.5C228.5 403.471 227.56 402.571 226.1 402.571ZM140.948 437.011C138.088 437.011 136.308 434.911 136.308 431.851C136.308 428.771 138.108 426.571 141.088 426.571C142.468 426.571 143.688 427.151 144.308 428.131V421.871H146.728V436.751H144.488L144.328 435.211C143.728 436.351 142.448 437.011 140.948 437.011ZM141.488 434.771C143.188 434.771 144.288 433.551 144.288 431.771C144.288 429.991 143.188 428.751 141.488 428.751C139.788 428.751 138.748 430.011 138.748 431.771C138.748 433.531 139.788 434.771 141.488 434.771ZM150.691 424.891C149.851 424.891 149.191 424.231 149.191 423.411C149.191 422.591 149.851 421.951 150.691 421.951C151.491 421.951 152.151 422.591 152.151 423.411C152.151 424.231 151.491 424.891 150.691 424.891ZM149.471 436.751V426.871H151.911V436.751H149.471ZM153.872 433.751H156.192C156.212 434.611 156.852 435.151 157.972 435.151C159.112 435.151 159.732 434.691 159.732 433.971C159.732 433.471 159.472 433.111 158.592 432.911L156.812 432.491C155.032 432.091 154.172 431.251 154.172 429.671C154.172 427.731 155.812 426.571 158.092 426.571C160.312 426.571 161.812 427.851 161.832 429.771H159.512C159.492 428.931 158.932 428.391 157.992 428.391C157.032 428.391 156.472 428.831 156.472 429.571C156.472 430.131 156.912 430.491 157.752 430.691L159.532 431.111C161.192 431.491 162.032 432.251 162.032 433.771C162.032 435.771 160.332 437.011 157.892 437.011C155.432 437.011 153.872 435.691 153.872 433.751ZM170.29 426.831V429.091H169.39C167.63 429.091 166.53 430.031 166.53 431.951V436.751H164.09V426.891H166.39L166.53 428.331C166.95 427.351 167.89 426.691 169.21 426.691C169.55 426.691 169.89 426.731 170.29 426.831ZM178.841 426.871H181.281V436.751H179.021L178.841 435.431C178.241 436.371 176.961 437.011 175.641 437.011C173.361 437.011 172.021 435.471 172.021 433.051V426.871H174.461V432.191C174.461 434.071 175.201 434.831 176.561 434.831C178.101 434.831 178.841 433.931 178.841 432.051V426.871ZM184.001 441.331V426.871H186.261L186.421 428.371C187.021 427.231 188.321 426.571 189.821 426.571C192.601 426.571 194.441 428.591 194.441 431.691C194.441 434.771 192.761 437.011 189.821 437.011C188.341 437.011 187.061 436.431 186.441 435.431V441.331H184.001ZM186.461 431.811C186.461 433.591 187.561 434.811 189.241 434.811C190.961 434.811 191.981 433.571 191.981 431.811C191.981 430.051 190.961 428.791 189.241 428.791C187.561 428.791 186.461 430.031 186.461 431.811ZM199.846 436.751H197.406V428.911H195.506V426.871H197.406V423.791H199.846V426.871H201.766V428.911H199.846V436.751ZM202.806 431.791C202.806 428.711 205.026 426.591 208.086 426.591C211.146 426.591 213.366 428.711 213.366 431.791C213.366 434.871 211.146 436.991 208.086 436.991C205.026 436.991 202.806 434.871 202.806 431.791ZM205.246 431.791C205.246 433.591 206.406 434.811 208.086 434.811C209.766 434.811 210.926 433.591 210.926 431.791C210.926 429.991 209.766 428.771 208.086 428.771C206.406 428.771 205.246 429.991 205.246 431.791ZM221.7 426.831V429.091H220.8C219.04 429.091 217.94 430.031 217.94 431.951V436.751H215.5V426.891H217.8L217.94 428.331C218.36 427.351 219.3 426.691 220.62 426.691C220.96 426.691 221.3 426.731 221.7 426.831ZM222.791 433.751H225.111C225.131 434.611 225.771 435.151 226.891 435.151C228.031 435.151 228.651 434.691 228.651 433.971C228.651 433.471 228.391 433.111 227.511 432.911L225.731 432.491C223.951 432.091 223.091 431.251 223.091 429.671C223.091 427.731 224.731 426.571 227.011 426.571C229.231 426.571 230.731 427.851 230.751 429.771H228.431C228.411 428.931 227.851 428.391 226.911 428.391C225.951 428.391 225.391 428.831 225.391 429.571C225.391 430.131 225.831 430.491 226.671 430.691L228.451 431.111C230.111 431.491 230.951 432.251 230.951 433.771C230.951 435.771 229.251 437.011 226.811 437.011C224.351 437.011 222.791 435.691 222.791 433.751Z" fill="black"/>
                <path id="Polygon 51" d="M172.858 340.129L126.363 367.463M196.372 340.129L243.4 367.777M173.392 490.961L127.699 464.098M195.838 490.961L243.4 462.999M254.5 388.723V443.413M114.729 388.179V442.597" stroke="#1B90B1" stroke-width="8" stroke-linecap="round"/>
            </g>
            <path id="Polygon 27" d="M170.403 510.567L110.904 476.183M199.631 510.567L261.565 474.776M276.018 379.703V449.705M94.0151 379.006V448.661" stroke="#E4E3E3" stroke-width="8" stroke-linecap="round"/>
        </g>
        <g id="microplastics">
            <g id="group_hover_7" data-chemical-target="microplastics">
                <path id="hover_7" d="M902.656 331.215C906.369 329.071 910.943 329.071 914.656 331.215L977.983 367.776C981.695 369.92 983.983 373.881 983.983 378.169V451.292C983.983 455.579 981.695 459.54 977.983 461.684L914.656 498.245C910.943 500.389 906.369 500.389 902.656 498.245L839.33 461.684C835.617 459.54 833.33 455.579 833.33 451.292V378.169C833.33 373.881 835.617 369.92 839.33 367.776L902.656 331.215Z" fill="#7DABE2"/>
                <path id="Polygon 54" d="M897.233 339.602L850.739 366.936M920.747 339.602L967.776 367.25M897.767 490.434L852.075 463.571M920.213 490.434L967.776 462.472M978.875 388.196V442.886M839.105 387.652V442.069" stroke="#7DABE2" stroke-width="8" stroke-linecap="round"/>
                <path id="Microplastics" d="M848.96 420.251H846.48V405.631H848.96L853.68 417.271L858.4 405.631H860.92V420.251H858.44V415.751C858.44 412.811 858.44 411.951 858.58 410.911L854.86 420.251H852.5L848.8 410.931C848.94 411.811 848.96 413.191 848.96 415.011V420.251ZM865.216 408.391C864.376 408.391 863.716 407.731 863.716 406.911C863.716 406.091 864.376 405.451 865.216 405.451C866.016 405.451 866.676 406.091 866.676 406.911C866.676 407.731 866.016 408.391 865.216 408.391ZM863.996 420.251V410.371H866.436V420.251H863.996ZM868.577 415.291C868.577 412.231 870.597 410.071 873.517 410.071C876.217 410.071 878.057 411.571 878.317 413.951H875.877C875.597 412.831 874.777 412.251 873.617 412.251C872.057 412.251 871.017 413.431 871.017 415.291C871.017 417.151 871.977 418.311 873.537 418.311C874.757 418.311 875.617 417.711 875.877 416.631H878.337C878.037 418.931 876.117 420.511 873.537 420.511C870.537 420.511 868.577 418.431 868.577 415.291ZM886.553 410.331V412.591H885.653C883.893 412.591 882.793 413.531 882.793 415.451V420.251H880.353V410.391H882.653L882.793 411.831C883.213 410.851 884.153 410.191 885.473 410.191C885.813 410.191 886.153 410.231 886.553 410.331ZM887.493 415.291C887.493 412.211 889.713 410.091 892.773 410.091C895.833 410.091 898.053 412.211 898.053 415.291C898.053 418.371 895.833 420.491 892.773 420.491C889.713 420.491 887.493 418.371 887.493 415.291ZM889.933 415.291C889.933 417.091 891.093 418.311 892.773 418.311C894.453 418.311 895.613 417.091 895.613 415.291C895.613 413.491 894.453 412.271 892.773 412.271C891.093 412.271 889.933 413.491 889.933 415.291ZM900.187 424.831V410.371H902.447L902.607 411.871C903.207 410.731 904.507 410.071 906.007 410.071C908.787 410.071 910.627 412.091 910.627 415.191C910.627 418.271 908.947 420.511 906.007 420.511C904.527 420.511 903.247 419.931 902.627 418.931V424.831H900.187ZM902.647 415.311C902.647 417.091 903.747 418.311 905.427 418.311C907.147 418.311 908.167 417.071 908.167 415.311C908.167 413.551 907.147 412.291 905.427 412.291C903.747 412.291 902.647 413.531 902.647 415.311ZM915.23 420.251H912.81V405.371H915.23V420.251ZM920.929 420.511C918.829 420.511 917.549 419.291 917.549 417.431C917.549 415.611 918.869 414.471 921.209 414.291L924.169 414.071V413.851C924.169 412.511 923.369 411.971 922.129 411.971C920.689 411.971 919.889 412.571 919.889 413.611H917.809C917.809 411.471 919.569 410.071 922.249 410.071C924.909 410.071 926.549 411.511 926.549 414.251V420.251H924.409L924.229 418.791C923.809 419.811 922.469 420.511 920.929 420.511ZM921.729 418.671C923.229 418.671 924.189 417.771 924.189 416.251V415.731L922.129 415.891C920.609 416.031 920.029 416.531 920.029 417.331C920.029 418.231 920.629 418.671 921.729 418.671ZM928.386 417.251H930.706C930.726 418.111 931.366 418.651 932.486 418.651C933.626 418.651 934.246 418.191 934.246 417.471C934.246 416.971 933.986 416.611 933.106 416.411L931.326 415.991C929.546 415.591 928.686 414.751 928.686 413.171C928.686 411.231 930.326 410.071 932.606 410.071C934.826 410.071 936.326 411.351 936.346 413.271H934.026C934.006 412.431 933.446 411.891 932.506 411.891C931.546 411.891 930.986 412.331 930.986 413.071C930.986 413.631 931.426 413.991 932.266 414.191L934.046 414.611C935.706 414.991 936.546 415.751 936.546 417.271C936.546 419.271 934.846 420.511 932.406 420.511C929.946 420.511 928.386 419.191 928.386 417.251ZM941.964 420.251H939.524V412.411H937.624V410.371H939.524V407.291H941.964V410.371H943.884V412.411H941.964V420.251ZM946.821 408.391C945.981 408.391 945.321 407.731 945.321 406.911C945.321 406.091 945.981 405.451 946.821 405.451C947.621 405.451 948.281 406.091 948.281 406.911C948.281 407.731 947.621 408.391 946.821 408.391ZM945.601 420.251V410.371H948.041V420.251H945.601ZM950.182 415.291C950.182 412.231 952.202 410.071 955.122 410.071C957.822 410.071 959.662 411.571 959.922 413.951H957.482C957.202 412.831 956.382 412.251 955.222 412.251C953.662 412.251 952.622 413.431 952.622 415.291C952.622 417.151 953.582 418.311 955.142 418.311C956.362 418.311 957.222 417.711 957.482 416.631H959.942C959.642 418.931 957.722 420.511 955.142 420.511C952.142 420.511 950.182 418.431 950.182 415.291ZM961.198 417.251H963.518C963.538 418.111 964.178 418.651 965.298 418.651C966.438 418.651 967.058 418.191 967.058 417.471C967.058 416.971 966.798 416.611 965.918 416.411L964.138 415.991C962.358 415.591 961.498 414.751 961.498 413.171C961.498 411.231 963.138 410.071 965.418 410.071C967.638 410.071 969.138 411.351 969.158 413.271H966.838C966.818 412.431 966.258 411.891 965.318 411.891C964.358 411.891 963.798 412.331 963.798 413.071C963.798 413.631 964.238 413.991 965.078 414.191L966.858 414.611C968.518 414.991 969.358 415.751 969.358 417.271C969.358 419.271 967.658 420.511 965.218 420.511C962.758 420.511 961.198 419.191 961.198 417.251Z" fill="black"/>
            </g>
            <path id="Polygon 26" d="M894.274 316.751L834.065 351.373M924.724 316.751L985.624 351.771M894.966 507.804L835.796 473.778M924.032 507.804L985.624 472.385M999.998 378.303V447.576" stroke="#E4E3E3" stroke-width="8" stroke-linecap="round"/>
        </g>
        <g id="pfass">
            <g id="group_hover_8" data-chemical-target="pfass">
                <path id="hover_8" d="M993.656 174.215C997.369 172.071 1001.94 172.071 1005.66 174.215L1068.98 210.776C1072.7 212.92 1074.98 216.881 1074.98 221.169V294.292C1074.98 298.579 1072.7 302.54 1068.98 304.684L1005.66 341.245C1001.94 343.389 997.369 343.389 993.656 341.245L930.33 304.684C926.617 302.54 924.33 298.579 924.33 294.292V221.169C924.33 216.881 926.617 212.92 930.33 210.776L993.656 174.215Z" fill="#E45C4D"/>
                <path id="PFASs" d="M977.873 260.711H974.653V265.751H972.093V251.131H977.873C980.813 251.131 982.713 253.051 982.713 255.911C982.713 258.731 980.793 260.711 977.873 260.711ZM977.373 253.411H974.653V258.431H977.333C979.093 258.431 980.033 257.491 980.033 255.891C980.033 254.291 979.073 253.411 977.373 253.411ZM993.067 259.771H987.627V265.751H985.067V251.131H994.107V253.491H987.627V257.471H993.067V259.771ZM996.976 265.751H994.316L999.596 251.131H1002.22L1007.5 265.751H1004.8L1003.62 262.371H998.156L996.976 265.751ZM1000.58 255.491L998.916 260.211H1002.88L1001.2 255.491C1001.08 255.111 1000.94 254.671 1000.9 254.371C1000.84 254.651 1000.72 255.091 1000.58 255.491ZM1008.69 255.211C1008.69 252.651 1010.81 250.871 1013.89 250.871C1016.85 250.871 1018.73 252.511 1018.81 255.151H1016.25C1016.19 253.891 1015.29 253.151 1013.85 253.151C1012.27 253.151 1011.25 253.911 1011.25 255.131C1011.25 256.171 1011.81 256.751 1013.03 257.031L1015.33 257.531C1017.83 258.071 1019.05 259.351 1019.05 261.531C1019.05 264.251 1016.93 266.011 1013.71 266.011C1010.59 266.011 1008.55 264.351 1008.49 261.731H1011.05C1011.07 262.971 1012.07 263.711 1013.71 263.711C1015.41 263.711 1016.49 262.971 1016.49 261.751C1016.49 260.771 1015.99 260.191 1014.79 259.931L1012.47 259.411C1009.99 258.871 1008.69 257.451 1008.69 255.211ZM1020.45 262.751H1022.77C1022.79 263.611 1023.43 264.151 1024.55 264.151C1025.69 264.151 1026.31 263.691 1026.31 262.971C1026.31 262.471 1026.05 262.111 1025.17 261.911L1023.39 261.491C1021.61 261.091 1020.75 260.251 1020.75 258.671C1020.75 256.731 1022.39 255.571 1024.67 255.571C1026.89 255.571 1028.39 256.851 1028.41 258.771H1026.09C1026.07 257.931 1025.51 257.391 1024.57 257.391C1023.61 257.391 1023.05 257.831 1023.05 258.571C1023.05 259.131 1023.49 259.491 1024.33 259.691L1026.11 260.111C1027.77 260.491 1028.61 261.251 1028.61 262.771C1028.61 264.771 1026.91 266.011 1024.47 266.011C1022.01 266.011 1020.45 264.691 1020.45 262.751Z" fill="black"/>
                <path id="Polygon 78" d="M988.046 182.868L941.218 210.202M1011.73 182.868L1059.1 210.516M988.584 333.699L942.563 306.837M1011.19 333.699L1059.1 305.737M1070.28 231.462V286.151M929.5 230.917V285.335" stroke="#E45C4D" stroke-width="8" stroke-linecap="round"/>
            </g>
            <path id="Polygon 32" d="M984.279 162.376L924.07 196.998M1014.73 162.376L1075.63 197.396M1014.04 353.429L1075.63 318.01" stroke="#E4E3E3" stroke-width="8" stroke-linecap="round"/>
        </g>
        <g id="nanoplastics">
            <g id="group_hover_9" data-chemical-target="nanoplastics">
                <path id="hover_9" d="M359.656 16.2148C363.369 14.0712 367.943 14.0712 371.656 16.2148L434.983 52.7763C438.695 54.9199 440.983 58.8814 440.983 63.1686V136.292C440.983 140.579 438.695 144.54 434.983 146.684L371.656 183.245C367.943 185.389 363.369 185.389 359.656 183.245L296.33 146.684C292.617 144.54 290.33 140.579 290.33 136.292V63.1686C290.33 58.8814 292.617 54.9199 296.33 52.7763L359.656 16.2148Z" fill="#7E1A0E"/>
                <path id="Nano plastics" d="M305.955 106.751H303.435V92.1307H305.975L312.835 102.491V92.1307H315.355V106.751H312.835L305.955 96.3907V106.751ZM321.371 107.011C319.271 107.011 317.991 105.791 317.991 103.931C317.991 102.111 319.311 100.971 321.651 100.791L324.611 100.571V100.351C324.611 99.0107 323.811 98.4707 322.571 98.4707C321.131 98.4707 320.331 99.0707 320.331 100.111H318.251C318.251 97.9707 320.011 96.5707 322.691 96.5707C325.351 96.5707 326.991 98.0107 326.991 100.751V106.751H324.851L324.671 105.291C324.251 106.311 322.911 107.011 321.371 107.011ZM322.171 105.171C323.671 105.171 324.631 104.271 324.631 102.751V102.231L322.571 102.391C321.051 102.531 320.471 103.031 320.471 103.831C320.471 104.731 321.071 105.171 322.171 105.171ZM332.028 106.751H329.588V96.8707H331.848L332.048 98.1507C332.668 97.1507 333.868 96.5707 335.208 96.5707C337.688 96.5707 338.968 98.1107 338.968 100.671V106.751H336.528V101.251C336.528 99.5907 335.708 98.7907 334.448 98.7907C332.948 98.7907 332.028 99.8307 332.028 101.431V106.751ZM340.985 101.791C340.985 98.7107 343.205 96.5907 346.265 96.5907C349.325 96.5907 351.545 98.7107 351.545 101.791C351.545 104.871 349.325 106.991 346.265 106.991C343.205 106.991 340.985 104.871 340.985 101.791ZM343.425 101.791C343.425 103.591 344.585 104.811 346.265 104.811C347.945 104.811 349.105 103.591 349.105 101.791C349.105 99.9907 347.945 98.7707 346.265 98.7707C344.585 98.7707 343.425 99.9907 343.425 101.791ZM359.27 111.331V96.8707H361.53L361.69 98.3707C362.29 97.2307 363.59 96.5707 365.09 96.5707C367.87 96.5707 369.71 98.5907 369.71 101.691C369.71 104.771 368.03 107.011 365.09 107.011C363.61 107.011 362.33 106.431 361.71 105.431V111.331H359.27ZM361.73 101.811C361.73 103.591 362.83 104.811 364.51 104.811C366.23 104.811 367.25 103.571 367.25 101.811C367.25 100.051 366.23 98.7907 364.51 98.7907C362.83 98.7907 361.73 100.031 361.73 101.811ZM374.313 106.751H371.893V91.8707H374.313V106.751ZM380.012 107.011C377.912 107.011 376.632 105.791 376.632 103.931C376.632 102.111 377.952 100.971 380.292 100.791L383.252 100.571V100.351C383.252 99.0107 382.452 98.4707 381.212 98.4707C379.772 98.4707 378.972 99.0707 378.972 100.111H376.892C376.892 97.9707 378.652 96.5707 381.332 96.5707C383.992 96.5707 385.632 98.0107 385.632 100.751V106.751H383.492L383.312 105.291C382.892 106.311 381.552 107.011 380.012 107.011ZM380.812 105.171C382.312 105.171 383.272 104.271 383.272 102.751V102.231L381.212 102.391C379.692 102.531 379.112 103.031 379.112 103.831C379.112 104.731 379.712 105.171 380.812 105.171ZM387.469 103.751H389.789C389.809 104.611 390.449 105.151 391.569 105.151C392.709 105.151 393.329 104.691 393.329 103.971C393.329 103.471 393.069 103.111 392.189 102.911L390.409 102.491C388.629 102.091 387.769 101.251 387.769 99.6707C387.769 97.7307 389.409 96.5707 391.689 96.5707C393.909 96.5707 395.409 97.8507 395.429 99.7707H393.109C393.089 98.9307 392.529 98.3907 391.589 98.3907C390.629 98.3907 390.069 98.8307 390.069 99.5707C390.069 100.131 390.509 100.491 391.349 100.691L393.129 101.111C394.789 101.491 395.629 102.251 395.629 103.771C395.629 105.771 393.929 107.011 391.489 107.011C389.029 107.011 387.469 105.691 387.469 103.751ZM401.047 106.751H398.607V98.9107H396.707V96.8707H398.607V93.7907H401.047V96.8707H402.967V98.9107H401.047V106.751ZM405.904 94.8907C405.064 94.8907 404.404 94.2307 404.404 93.4107C404.404 92.5907 405.064 91.9507 405.904 91.9507C406.704 91.9507 407.364 92.5907 407.364 93.4107C407.364 94.2307 406.704 94.8907 405.904 94.8907ZM404.684 106.751V96.8707H407.124V106.751H404.684ZM409.265 101.791C409.265 98.7307 411.285 96.5707 414.205 96.5707C416.905 96.5707 418.745 98.0707 419.005 100.451H416.565C416.285 99.3307 415.465 98.7507 414.305 98.7507C412.745 98.7507 411.705 99.9307 411.705 101.791C411.705 103.651 412.665 104.811 414.225 104.811C415.445 104.811 416.305 104.211 416.565 103.131H419.025C418.725 105.431 416.805 107.011 414.225 107.011C411.225 107.011 409.265 104.931 409.265 101.791ZM420.281 103.751H422.601C422.621 104.611 423.261 105.151 424.381 105.151C425.521 105.151 426.141 104.691 426.141 103.971C426.141 103.471 425.881 103.111 425.001 102.911L423.221 102.491C421.441 102.091 420.581 101.251 420.581 99.6707C420.581 97.7307 422.221 96.5707 424.501 96.5707C426.721 96.5707 428.221 97.8507 428.241 99.7707H425.921C425.901 98.9307 425.341 98.3907 424.401 98.3907C423.441 98.3907 422.881 98.8307 422.881 99.5707C422.881 100.131 423.321 100.491 424.161 100.691L425.941 101.111C427.601 101.491 428.441 102.251 428.441 103.771C428.441 105.771 426.741 107.011 424.301 107.011C421.841 107.011 420.281 105.691 420.281 103.751Z" fill="black"/>
                <path id="Polygon 76" d="M353.67 24.86L306.842 52.1938M377.354 24.86L424.72 52.5078M354.208 175.691L308.187 148.829M376.816 175.691L424.72 147.73M435.9 73.4538V128.144M295.124 72.9096V127.327" stroke="#7E1A0E" stroke-width="8" stroke-linecap="round"/>
            </g>
            <path id="Polygon 77" d="M349.776 4.00067L289.568 38.8057M380.226 4.00067L441.126 39.2055M350.468 196.059L291.298 161.855M379.534 196.059L441.126 160.455M455.5 65.8767V135.515M274.502 65.1838V134.476" stroke="#E4E3E3" stroke-width="8" stroke-linecap="round"/>
        </g>
        <g id="phthalates">
            <g id="group_hover_10" data-chemical-target="phthalates">
                <path id="hover_10" d="M450.656 174.215C454.369 172.071 458.943 172.071 462.656 174.215L525.983 210.776C529.695 212.92 531.983 216.881 531.983 221.169V294.292C531.983 298.579 529.695 302.54 525.983 304.684L462.656 341.245C458.943 343.389 454.369 343.389 450.656 341.245L387.33 304.684C383.617 302.54 381.33 298.579 381.33 294.292V221.169C381.33 216.881 383.617 212.92 387.33 210.776L450.656 174.215Z" fill="#9B9B9B"/>
                <path id="Polygon 72" d="M445.18 182.102L398.351 209.436M468.863 182.102L516.23 209.75M445.718 332.934L399.697 306.071M468.325 332.934L516.23 304.972M527.41 230.696V285.386M386.634 230.152V284.569" stroke="#9B9B9B" stroke-width="8" stroke-linecap="round"/>
                <path id="Phthalates" d="M415.071 260.711H411.851V265.751H409.291V251.131H415.071C418.011 251.131 419.911 253.051 419.911 255.911C419.911 258.731 417.991 260.711 415.071 260.711ZM414.571 253.411H411.851V258.431H414.531C416.291 258.431 417.231 257.491 417.231 255.891C417.231 254.291 416.271 253.411 414.571 253.411ZM424.344 265.751H421.904V250.871H424.364V257.151C424.984 256.191 426.144 255.571 427.564 255.571C430.004 255.571 431.284 257.111 431.284 259.671V265.751H428.844V260.251C428.844 258.591 428.024 257.791 426.784 257.791C425.244 257.791 424.344 258.871 424.344 260.351V265.751ZM437.242 265.751H434.802V257.911H432.902V255.871H434.802V252.791H437.242V255.871H439.162V257.911H437.242V265.751ZM443.319 265.751H440.879V250.871H443.339V257.151C443.959 256.191 445.119 255.571 446.539 255.571C448.979 255.571 450.259 257.111 450.259 259.671V265.751H447.819V260.251C447.819 258.591 446.999 257.791 445.759 257.791C444.219 257.791 443.319 258.871 443.319 260.351V265.751ZM455.796 266.011C453.696 266.011 452.416 264.791 452.416 262.931C452.416 261.111 453.736 259.971 456.076 259.791L459.036 259.571V259.351C459.036 258.011 458.236 257.471 456.996 257.471C455.556 257.471 454.756 258.071 454.756 259.111H452.676C452.676 256.971 454.436 255.571 457.116 255.571C459.776 255.571 461.416 257.011 461.416 259.751V265.751H459.276L459.096 264.291C458.676 265.311 457.336 266.011 455.796 266.011ZM456.596 264.171C458.096 264.171 459.056 263.271 459.056 261.751V261.231L456.996 261.391C455.476 261.531 454.896 262.031 454.896 262.831C454.896 263.731 455.496 264.171 456.596 264.171ZM466.473 265.751H464.053V250.871H466.473V265.751ZM472.172 266.011C470.072 266.011 468.792 264.791 468.792 262.931C468.792 261.111 470.112 259.971 472.452 259.791L475.412 259.571V259.351C475.412 258.011 474.612 257.471 473.372 257.471C471.932 257.471 471.132 258.071 471.132 259.111H469.052C469.052 256.971 470.812 255.571 473.492 255.571C476.152 255.571 477.792 257.011 477.792 259.751V265.751H475.652L475.472 264.291C475.052 265.311 473.712 266.011 472.172 266.011ZM472.972 264.171C474.472 264.171 475.432 263.271 475.432 261.751V261.231L473.372 261.391C471.852 261.531 471.272 262.031 471.272 262.831C471.272 263.731 471.872 264.171 472.972 264.171ZM483.613 265.751H481.173V257.911H479.273V255.871H481.173V252.791H483.613V255.871H485.533V257.911H483.613V265.751ZM491.572 266.011C488.632 266.011 486.572 263.871 486.572 260.811C486.572 257.711 488.592 255.571 491.492 255.571C494.452 255.571 496.332 257.551 496.332 260.631V261.371L488.892 261.391C489.072 263.131 489.992 264.011 491.612 264.011C492.952 264.011 493.832 263.491 494.112 262.551H496.372C495.952 264.711 494.152 266.011 491.572 266.011ZM491.512 257.571C490.072 257.571 489.192 258.351 488.952 259.831H493.912C493.912 258.471 492.972 257.571 491.512 257.571ZM497.725 262.751H500.045C500.065 263.611 500.705 264.151 501.825 264.151C502.965 264.151 503.585 263.691 503.585 262.971C503.585 262.471 503.325 262.111 502.445 261.911L500.665 261.491C498.885 261.091 498.025 260.251 498.025 258.671C498.025 256.731 499.665 255.571 501.945 255.571C504.165 255.571 505.665 256.851 505.685 258.771H503.365C503.345 257.931 502.785 257.391 501.845 257.391C500.885 257.391 500.325 257.831 500.325 258.571C500.325 259.131 500.765 259.491 501.605 259.691L503.385 260.111C505.045 260.491 505.885 261.251 505.885 262.771C505.885 264.771 504.185 266.011 501.745 266.011C499.285 266.011 497.725 264.691 497.725 262.751Z" fill="black"/>
            </g>
            <path id="Polygon 73" d="M470.654 161.872L531.216 196.892M441.061 352.925L382.22 318.899M469.966 352.925L531.216 317.507M545.51 223.424V292.698M365.518 222.735V291.664" stroke="#E4E3E3" stroke-width="8" stroke-linecap="round"/>
        </g>
        <g id="bisphenols">
            <g id="group_hover_11" data-chemical-target="bisphenols">
                <path id="hover_11" d="M268.17 174.215C271.883 172.071 276.458 172.071 280.17 174.215L343.497 210.776C347.21 212.92 349.497 216.881 349.497 221.169V294.292C349.497 298.579 347.21 302.54 343.497 304.684L280.17 341.245C276.458 343.389 271.883 343.389 268.17 341.245L204.844 304.684C201.131 302.54 198.844 298.579 198.844 294.292V221.169C198.844 216.881 201.131 212.92 204.844 210.776L268.17 174.215Z" fill="#D7B040"/>
                <path id="Bisphenols" d="M224.555 266.751V252.131H230.375C233.255 252.131 235.015 253.631 235.015 256.071C235.015 257.691 234.295 258.851 232.915 259.431C234.455 259.931 235.235 261.091 235.235 262.791C235.235 265.291 233.495 266.751 230.475 266.751H224.555ZM230.155 254.391H227.115V258.371H230.215C231.615 258.371 232.395 257.631 232.395 256.331C232.395 255.071 231.595 254.391 230.155 254.391ZM230.375 260.531H227.115V264.491H230.375C231.815 264.491 232.615 263.791 232.615 262.471C232.615 261.231 231.795 260.531 230.375 260.531ZM238.642 254.891C237.802 254.891 237.142 254.231 237.142 253.411C237.142 252.591 237.802 251.951 238.642 251.951C239.442 251.951 240.102 252.591 240.102 253.411C240.102 254.231 239.442 254.891 238.642 254.891ZM237.422 266.751V256.871H239.862V266.751H237.422ZM241.823 263.751H244.143C244.163 264.611 244.803 265.151 245.923 265.151C247.063 265.151 247.683 264.691 247.683 263.971C247.683 263.471 247.423 263.111 246.543 262.911L244.763 262.491C242.983 262.091 242.123 261.251 242.123 259.671C242.123 257.731 243.763 256.571 246.043 256.571C248.263 256.571 249.763 257.851 249.783 259.771H247.463C247.443 258.931 246.883 258.391 245.943 258.391C244.983 258.391 244.423 258.831 244.423 259.571C244.423 260.131 244.863 260.491 245.703 260.691L247.483 261.111C249.143 261.491 249.983 262.251 249.983 263.771C249.983 265.771 248.283 267.011 245.843 267.011C243.383 267.011 241.823 265.691 241.823 263.751ZM252.041 271.331V256.871H254.301L254.461 258.371C255.061 257.231 256.361 256.571 257.861 256.571C260.641 256.571 262.481 258.591 262.481 261.691C262.481 264.771 260.801 267.011 257.861 267.011C256.381 267.011 255.101 266.431 254.481 265.431V271.331H252.041ZM254.501 261.811C254.501 263.591 255.601 264.811 257.281 264.811C259.001 264.811 260.021 263.571 260.021 261.811C260.021 260.051 259.001 258.791 257.281 258.791C255.601 258.791 254.501 260.031 254.501 261.811ZM267.063 266.751H264.623V251.871H267.083V258.151C267.703 257.191 268.863 256.571 270.283 256.571C272.723 256.571 274.003 258.111 274.003 260.671V266.751H271.563V261.251C271.563 259.591 270.743 258.791 269.503 258.791C267.963 258.791 267.063 259.871 267.063 261.351V266.751ZM281.021 267.011C278.081 267.011 276.021 264.871 276.021 261.811C276.021 258.711 278.041 256.571 280.941 256.571C283.901 256.571 285.781 258.551 285.781 261.631V262.371L278.341 262.391C278.521 264.131 279.441 265.011 281.061 265.011C282.401 265.011 283.281 264.491 283.561 263.551H285.821C285.401 265.711 283.601 267.011 281.021 267.011ZM280.961 258.571C279.521 258.571 278.641 259.351 278.401 260.831H283.361C283.361 259.471 282.421 258.571 280.961 258.571ZM290.374 266.751H287.934V256.871H290.194L290.394 258.151C291.014 257.151 292.214 256.571 293.554 256.571C296.034 256.571 297.314 258.111 297.314 260.671V266.751H294.874V261.251C294.874 259.591 294.054 258.791 292.794 258.791C291.294 258.791 290.374 259.831 290.374 261.431V266.751ZM299.331 261.791C299.331 258.711 301.551 256.591 304.611 256.591C307.671 256.591 309.891 258.711 309.891 261.791C309.891 264.871 307.671 266.991 304.611 266.991C301.551 266.991 299.331 264.871 299.331 261.791ZM301.771 261.791C301.771 263.591 302.931 264.811 304.611 264.811C306.291 264.811 307.451 263.591 307.451 261.791C307.451 259.991 306.291 258.771 304.611 258.771C302.931 258.771 301.771 259.991 301.771 261.791ZM314.485 266.751H312.065V251.871H314.485V266.751ZM316.485 263.751H318.805C318.825 264.611 319.465 265.151 320.585 265.151C321.725 265.151 322.345 264.691 322.345 263.971C322.345 263.471 322.085 263.111 321.205 262.911L319.425 262.491C317.645 262.091 316.785 261.251 316.785 259.671C316.785 257.731 318.425 256.571 320.705 256.571C322.925 256.571 324.425 257.851 324.445 259.771H322.125C322.105 258.931 321.545 258.391 320.605 258.391C319.645 258.391 319.085 258.831 319.085 259.571C319.085 260.131 319.525 260.491 320.365 260.691L322.145 261.111C323.805 261.491 324.645 262.251 324.645 263.771C324.645 265.771 322.945 267.011 320.505 267.011C318.045 267.011 316.485 265.691 316.485 263.751Z" fill="black"/>
                <path id="Polygon 53" d="M262.579 182.102L215.416 209.436M286.431 182.102L334.136 209.75M263.121 332.934L216.771 306.071M285.889 332.934L334.136 304.972M345.396 230.696V285.386M203.614 230.152V284.569" stroke="#D7B040" stroke-width="8" stroke-linecap="round"/>
            </g>
            <path id="Polygon 5" d="M259.788 161.637L199.58 196.442M260.48 353.696L201.31 319.491M289.547 353.696L351.138 318.091" stroke="#E4E3E3" stroke-width="8" stroke-linecap="round"/>
        </g>
    </g>
</svg>
