<svg class="chemicals-svg" xmlns="http://www.w3.org/2000/svg" width="1095" height="518" viewBox="0 0 1095 518" fill="none">
    <g id="desktop">
      <g id="pesticides">
        <g id="group_hover" data-chemical-target="pesticides">
          <path id="hover" d="M90.6565 175.215C94.3693 173.071 98.9437 173.071 102.656 175.215L165.983 211.776C169.695 213.92 171.983 217.881 171.983 222.169V295.292C171.983 299.579 169.695 303.54 165.983 305.684L102.656 342.245C98.9437 344.389 94.3693 344.389 90.6565 342.245L27.3301 305.684C23.6173 303.54 21.3301 299.579 21.3301 295.292V222.169C21.3301 217.881 23.6173 213.92 27.3301 211.776L90.6565 175.215Z" fill="#4446ce"/>
          <path id="Pesticides" d="M57.2448 261.711H54.0248V266.751H51.4648V252.131H57.2448C60.1848 252.131 62.0848 254.051 62.0848 256.911C62.0848 259.731 60.1648 261.711 57.2448 261.711ZM56.7448 254.411H54.0248V259.431H56.7048C58.4648 259.431 59.4048 258.491 59.4048 256.891C59.4048 255.291 58.4448 254.411 56.7448 254.411ZM68.01 267.011C65.07 267.011 63.01 264.871 63.01 261.811C63.01 258.711 65.03 256.571 67.93 256.571C70.89 256.571 72.77 258.551 72.77 261.631V262.371L65.33 262.391C65.51 264.131 66.43 265.011 68.05 265.011C69.39 265.011 70.27 264.491 70.55 263.551H72.81C72.39 265.711 70.59 267.011 68.01 267.011ZM67.95 258.571C66.51 258.571 65.63 259.351 65.39 260.831H70.35C70.35 259.471 69.41 258.571 67.95 258.571ZM74.1628 263.751H76.4828C76.5028 264.611 77.1428 265.151 78.2628 265.151C79.4028 265.151 80.0228 264.691 80.0228 263.971C80.0228 263.471 79.7628 263.111 78.8828 262.911L77.1028 262.491C75.3228 262.091 74.4628 261.251 74.4628 259.671C74.4628 257.731 76.1028 256.571 78.3828 256.571C80.6028 256.571 82.1028 257.851 82.1228 259.771H79.8028C79.7828 258.931 79.2228 258.391 78.2828 258.391C77.3228 258.391 76.7628 258.831 76.7628 259.571C76.7628 260.131 77.2028 260.491 78.0428 260.691L79.8228 261.111C81.4828 261.491 82.3228 262.251 82.3228 263.771C82.3228 265.771 80.6228 267.011 78.1828 267.011C75.7228 267.011 74.1628 265.691 74.1628 263.751ZM87.7406 266.751H85.3006V258.911H83.4006V256.871H85.3006V253.791H87.7406V256.871H89.6606V258.911H87.7406V266.751ZM92.5975 254.891C91.7575 254.891 91.0975 254.231 91.0975 253.411C91.0975 252.591 91.7575 251.951 92.5975 251.951C93.3975 251.951 94.0575 252.591 94.0575 253.411C94.0575 254.231 93.3975 254.891 92.5975 254.891ZM91.3775 266.751V256.871H93.8175V266.751H91.3775ZM95.9584 261.791C95.9584 258.731 97.9784 256.571 100.898 256.571C103.598 256.571 105.438 258.071 105.698 260.451H103.258C102.978 259.331 102.158 258.751 100.998 258.751C99.4384 258.751 98.3984 259.931 98.3984 261.791C98.3984 263.651 99.3584 264.811 100.918 264.811C102.138 264.811 102.998 264.211 103.258 263.131H105.718C105.418 265.431 103.498 267.011 100.918 267.011C97.9184 267.011 95.9584 264.931 95.9584 261.791ZM108.954 254.891C108.114 254.891 107.454 254.231 107.454 253.411C107.454 252.591 108.114 251.951 108.954 251.951C109.754 251.951 110.414 252.591 110.414 253.411C110.414 254.231 109.754 254.891 108.954 254.891ZM107.734 266.751V256.871H110.174V266.751H107.734ZM116.955 267.011C114.095 267.011 112.315 264.911 112.315 261.851C112.315 258.771 114.115 256.571 117.095 256.571C118.475 256.571 119.695 257.151 120.315 258.131V251.871H122.735V266.751H120.495L120.335 265.211C119.735 266.351 118.455 267.011 116.955 267.011ZM117.495 264.771C119.195 264.771 120.295 263.551 120.295 261.771C120.295 259.991 119.195 258.751 117.495 258.751C115.795 258.751 114.755 260.011 114.755 261.771C114.755 263.531 115.795 264.771 117.495 264.771ZM129.898 267.011C126.958 267.011 124.898 264.871 124.898 261.811C124.898 258.711 126.918 256.571 129.818 256.571C132.778 256.571 134.658 258.551 134.658 261.631V262.371L127.218 262.391C127.398 264.131 128.318 265.011 129.938 265.011C131.278 265.011 132.158 264.491 132.438 263.551H134.698C134.278 265.711 132.478 267.011 129.898 267.011ZM129.838 258.571C128.398 258.571 127.518 259.351 127.278 260.831H132.238C132.238 259.471 131.298 258.571 129.838 258.571ZM136.051 263.751H138.371C138.391 264.611 139.031 265.151 140.151 265.151C141.291 265.151 141.911 264.691 141.911 263.971C141.911 263.471 141.651 263.111 140.771 262.911L138.991 262.491C137.211 262.091 136.351 261.251 136.351 259.671C136.351 257.731 137.991 256.571 140.271 256.571C142.491 256.571 143.991 257.851 144.011 259.771H141.691C141.671 258.931 141.111 258.391 140.171 258.391C139.211 258.391 138.651 258.831 138.651 259.571C138.651 260.131 139.091 260.491 139.931 260.691L141.711 261.111C143.371 261.491 144.211 262.251 144.211 263.771C144.211 265.771 142.511 267.011 140.071 267.011C137.611 267.011 136.051 265.691 136.051 263.751Z" fill="black"/>
          <path id="Polygon 50" d="M84.7277 183.103L38.2335 210.437M108.242 183.103L155.27 210.751M85.262 333.935L39.5696 307.072M107.708 333.935L155.27 305.973M166.37 231.697V286.387M26.5996 231.153V285.57" stroke="#4446ce" stroke-width="8" stroke-linecap="round"/>
        </g>
        <path id="Polygon 31" d="M80.2738 162.61L20.0655 197.233M110.724 162.61L171.624 197.631M80.9656 353.663L21.7956 319.637M110.032 353.663L171.624 318.245M185.998 224.162V293.436M5 223.473V292.402" stroke="#E4E3E3" stroke-width="8" stroke-linecap="round"/>
      </g>
      <g id="metals">
        <g id="group_hover_3" data-chemical-target="metals">
          <path id="hover_3" d="M631.656 177.215C635.369 175.071 639.943 175.071 643.656 177.215L706.983 213.776C710.695 215.92 712.983 219.881 712.983 224.169V297.292C712.983 301.579 710.695 305.54 706.983 307.684L643.656 344.245C639.943 346.389 635.369 346.389 631.656 344.245L568.33 307.684C564.617 305.54 562.33 301.579 562.33 297.292V224.169C562.33 219.881 564.617 215.92 568.33 213.776L631.656 177.215Z" fill="#6E009A"/>
          <path id="Metals" d="M610.685 268.751H608.205V254.131H610.685L615.405 265.771L620.125 254.131H622.645V268.751H620.165V264.251C620.165 261.311 620.165 260.451 620.305 259.411L616.585 268.751H614.225L610.525 259.431C610.665 260.311 610.685 261.691 610.685 263.511V268.751ZM630.141 269.011C627.201 269.011 625.141 266.871 625.141 263.811C625.141 260.711 627.161 258.571 630.061 258.571C633.021 258.571 634.901 260.551 634.901 263.631V264.371L627.461 264.391C627.641 266.131 628.561 267.011 630.181 267.011C631.521 267.011 632.401 266.491 632.681 265.551H634.941C634.521 267.711 632.721 269.011 630.141 269.011ZM630.081 260.571C628.641 260.571 627.761 261.351 627.521 262.831H632.481C632.481 261.471 631.541 260.571 630.081 260.571ZM640.316 268.751H637.876V260.911H635.976V258.871H637.876V255.791H640.316V258.871H642.236V260.911H640.316V268.751ZM646.834 269.011C644.734 269.011 643.454 267.791 643.454 265.931C643.454 264.111 644.774 262.971 647.114 262.791L650.074 262.571V262.351C650.074 261.011 649.274 260.471 648.034 260.471C646.594 260.471 645.794 261.071 645.794 262.111H643.714C643.714 259.971 645.474 258.571 648.154 258.571C650.814 258.571 652.454 260.011 652.454 262.751V268.751H650.314L650.134 267.291C649.714 268.311 648.374 269.011 646.834 269.011ZM647.634 267.171C649.134 267.171 650.094 266.271 650.094 264.751V264.231L648.034 264.391C646.514 264.531 645.934 265.031 645.934 265.831C645.934 266.731 646.534 267.171 647.634 267.171ZM657.511 268.751H655.091V253.871H657.511V268.751ZM659.511 265.751H661.831C661.851 266.611 662.491 267.151 663.611 267.151C664.751 267.151 665.371 266.691 665.371 265.971C665.371 265.471 665.111 265.111 664.231 264.911L662.451 264.491C660.671 264.091 659.811 263.251 659.811 261.671C659.811 259.731 661.451 258.571 663.731 258.571C665.951 258.571 667.451 259.851 667.471 261.771H665.151C665.131 260.931 664.571 260.391 663.631 260.391C662.671 260.391 662.111 260.831 662.111 261.571C662.111 262.131 662.551 262.491 663.391 262.691L665.171 263.111C666.831 263.491 667.671 264.251 667.671 265.771C667.671 267.771 665.971 269.011 663.531 269.011C661.071 269.011 659.511 267.691 659.511 265.751Z" fill="black"/>
          <path id="Polygon 70" d="M625.566 185.728L578.403 213.062M649.419 185.728L697.124 213.376M626.108 336.56L579.758 309.697M648.877 336.56L697.124 308.598M708.383 234.322V289.012M566.602 233.778V288.195" stroke="#6E009A" stroke-width="8" stroke-linecap="round"/>
        </g>
        <path id="Polygon 71" d="M622.45 163.11L561.908 197.915M653.07 163.11L714.308 198.315M623.146 355.169L563.647 320.964M728.762 224.986V294.624M546.758 224.293V293.585" stroke="#E4E3E3" stroke-width="8" stroke-linecap="round"/>
      </g>
      <g id="mercury">
        <g id="group_hover_4" data-chemical-target="mercury">
          <path id="hover_4" d="M540.656 334.215C544.369 332.071 548.943 332.071 552.656 334.215L615.983 370.776C619.695 372.92 621.983 376.881 621.983 381.169V454.292C621.983 458.579 619.695 462.54 615.983 464.684L552.656 501.245C548.943 503.389 544.369 503.389 540.656 501.245L477.33 464.684C473.617 462.54 471.33 458.579 471.33 454.292V381.169C471.33 376.881 473.617 372.92 477.33 370.776L540.656 334.215Z" fill="#E21337"/>
          <path id="Mercury" d="M511.32 421.252H508.84V406.632H511.32L516.04 418.272L520.76 406.632H523.28V421.252H520.8V416.752C520.8 413.812 520.8 412.952 520.94 411.912L517.22 421.252H514.86L511.16 411.932C511.3 412.812 511.32 414.192 511.32 416.012V421.252ZM530.776 421.512C527.836 421.512 525.776 419.372 525.776 416.312C525.776 413.212 527.796 411.072 530.696 411.072C533.656 411.072 535.536 413.052 535.536 416.132V416.872L528.096 416.892C528.276 418.632 529.196 419.512 530.816 419.512C532.156 419.512 533.036 418.992 533.316 418.052H535.576C535.156 420.212 533.356 421.512 530.776 421.512ZM530.716 413.072C529.276 413.072 528.396 413.852 528.156 415.332H533.116C533.116 413.972 532.176 413.072 530.716 413.072ZM543.888 411.332V413.592H542.988C541.228 413.592 540.128 414.532 540.128 416.452V421.252H537.688V411.392H539.988L540.128 412.832C540.548 411.852 541.488 411.192 542.808 411.192C543.148 411.192 543.488 411.232 543.888 411.332ZM544.828 416.292C544.828 413.232 546.848 411.072 549.768 411.072C552.468 411.072 554.308 412.572 554.568 414.952H552.128C551.848 413.832 551.028 413.252 549.868 413.252C548.308 413.252 547.268 414.432 547.268 416.292C547.268 418.152 548.228 419.312 549.788 419.312C551.008 419.312 551.868 418.712 552.128 417.632H554.588C554.288 419.932 552.368 421.512 549.788 421.512C546.788 421.512 544.828 419.432 544.828 416.292ZM563.304 411.372H565.744V421.252H563.484L563.304 419.932C562.704 420.872 561.424 421.512 560.104 421.512C557.824 421.512 556.484 419.972 556.484 417.552V411.372H558.924V416.692C558.924 418.572 559.664 419.332 561.024 419.332C562.564 419.332 563.304 418.432 563.304 416.552V411.372ZM574.664 411.332V413.592H573.764C572.004 413.592 570.904 414.532 570.904 416.452V421.252H568.464V411.392H570.764L570.904 412.832C571.324 411.852 572.264 411.192 573.584 411.192C573.924 411.192 574.264 411.232 574.664 411.332ZM575.949 425.832V423.792H577.409C578.369 423.792 578.969 423.572 579.389 422.412L579.669 421.672L575.689 411.372H578.269L580.809 418.572L583.489 411.372H586.009L581.169 423.452C580.429 425.292 579.389 426.052 577.769 426.052C577.089 426.052 576.489 425.972 575.949 425.832Z" fill="black"/>
          <path id="Polygon 58" d="M534.741 341.862L487.578 369.196M558.594 341.862L606.299 369.51M535.283 492.693L488.933 465.831M558.052 492.693L606.299 464.732M617.558 390.456V445.145M475.777 389.912V444.329" stroke="#E21337" stroke-width="8" stroke-linecap="round"/>
        </g>
        <path id="Polygon 61" d="M533.644 511.804L474.474 477.778M562.71 511.804L624.302 476.385M638.676 382.303V451.577M457.678 381.614V450.543" stroke="#E4E3E3" stroke-width="8" stroke-linecap="round"/>
      </g>
      <g id="arsenic">
        <g id="group_hover_5" data-chemical-target="arsenic">
          <path id="hover_5" d="M993.66 177.215C997.37 175.071 1001.94 175.071 1005.66 177.215L1068.98 213.776C1072.7 215.92 1074.98 219.881 1074.98 224.169V297.292C1074.98 301.579 1072.7 305.54 1068.98 307.684L1005.66 344.245C1001.94 346.389 997.37 346.389 993.66 344.245L930.33 307.684C926.62 305.54 924.33 301.579 924.33 297.292V224.169C924.33 219.881 926.62 215.92 930.33 213.776L993.66 177.215Z" fill="#C064E4"/>
          <path id="Polygon 68" d="M987.661 185.868L940.831 213.202M1011.35 185.868L1058.71 213.516M988.201 336.699L942.181 309.837M1010.81 336.699L1058.71 308.737M1069.89 234.462V289.151M929.121 233.917V288.335" stroke="#C064E4" stroke-width="8" stroke-linecap="round"/>
          <path id="Arsenic" d="M967.57 268.751H964.91L970.19 254.131H972.81L978.09 268.751H975.39L974.21 265.371H968.75L967.57 268.751ZM971.17 258.491L969.51 263.211H973.47L971.79 258.491C971.67 258.111 971.53 257.671 971.49 257.371C971.43 257.651 971.31 258.091 971.17 258.491ZM985.97 258.831V261.091H985.07C983.31 261.091 982.21 262.031 982.21 263.951V268.751H979.77V258.891H982.07L982.21 260.331C982.63 259.351 983.57 258.691 984.89 258.691C985.23 258.691 985.57 258.731 985.97 258.831ZM987.06 265.751H989.38C989.4 266.611 990.04 267.151 991.16 267.151C992.3 267.151 992.92 266.691 992.92 265.971C992.92 265.471 992.66 265.111 991.78 264.911L990 264.491C988.22 264.091 987.36 263.251 987.36 261.671C987.36 259.731 989 258.571 991.28 258.571C993.5 258.571 995 259.851 995.02 261.771H992.7C992.68 260.931 992.12 260.391 991.18 260.391C990.22 260.391 989.66 260.831 989.66 261.571C989.66 262.131 990.1 262.491 990.94 262.691L992.72 263.111C994.38 263.491 995.22 264.251 995.22 265.771C995.22 267.771 993.52 269.011 991.08 269.011C988.62 269.011 987.06 267.691 987.06 265.751ZM1001.7 269.011C998.76 269.011 996.7 266.871 996.7 263.811C996.7 260.711 998.72 258.571 1001.62 258.571C1004.58 258.571 1006.46 260.551 1006.46 263.631V264.371L999.02 264.391C999.2 266.131 1000.12 267.011 1001.74 267.011C1003.08 267.011 1003.96 266.491 1004.24 265.551H1006.5C1006.08 267.711 1004.28 269.011 1001.7 269.011ZM1001.64 260.571C1000.2 260.571 999.32 261.351 999.08 262.831H1004.04C1004.04 261.471 1003.1 260.571 1001.64 260.571ZM1011.05 268.751H1008.61V258.871H1010.87L1011.07 260.151C1011.69 259.151 1012.89 258.571 1014.23 258.571C1016.71 258.571 1017.99 260.111 1017.99 262.671V268.751H1015.55V263.251C1015.55 261.591 1014.73 260.791 1013.47 260.791C1011.97 260.791 1011.05 261.831 1011.05 263.431V268.751ZM1021.81 256.891C1020.97 256.891 1020.31 256.231 1020.31 255.411C1020.31 254.591 1020.97 253.951 1021.81 253.951C1022.61 253.951 1023.27 254.591 1023.27 255.411C1023.27 256.231 1022.61 256.891 1021.81 256.891ZM1020.59 268.751V258.871H1023.03V268.751H1020.59ZM1025.17 263.791C1025.17 260.731 1027.19 258.571 1030.11 258.571C1032.81 258.571 1034.65 260.071 1034.91 262.451H1032.47C1032.19 261.331 1031.37 260.751 1030.21 260.751C1028.65 260.751 1027.61 261.931 1027.61 263.791C1027.61 265.651 1028.57 266.811 1030.13 266.811C1031.35 266.811 1032.21 266.211 1032.47 265.131H1034.93C1034.63 267.431 1032.71 269.011 1030.13 269.011C1027.13 269.011 1025.17 266.931 1025.17 263.791Z" fill="black"/>
        </g>
        <path id="Polygon 69" d="M985.42 163.751L925.1 198.556M1015.92 163.751L1076.93 198.956M986.11 355.809L926.84 321.605M1015.23 355.809L1076.93 320.205M910.01 224.934V294.226" stroke="#E4E3E3" stroke-width="8" stroke-linecap="round"/>
        <path id="Polygon 79" d="M1089.01 224.934V294.226" stroke="#E4E3E3" stroke-width="8" stroke-linecap="round"/>
      </g>
      <g id="microplastics">
        <g id="group_hover_7" data-chemical-target="microplastics">
          <path id="hover_7" d="M722.656 334.215C726.369 332.071 730.943 332.071 734.656 334.215L797.983 370.776C801.695 372.92 803.983 376.881 803.983 381.169V454.292C803.983 458.579 801.695 462.54 797.983 464.684L734.656 501.245C730.943 503.389 726.369 503.389 722.656 501.245L659.33 464.684C655.617 462.54 653.33 458.579 653.33 454.292V381.169C653.33 376.881 655.617 372.92 659.33 370.776L722.656 334.215Z" fill="#7DABE2"/>
          <path id="Polygon 54" d="M717.233 342.603L670.74 369.937M740.747 342.603L787.776 370.251M717.768 493.435L672.076 466.572M740.214 493.435L787.776 465.473M798.875 391.197V445.887M659.105 390.653V445.07" stroke="#7DABE2" stroke-width="8" stroke-linecap="round"/>
          <path id="Microplastics" d="M668.961 423.251H666.48V408.631H668.961L673.68 420.271L678.401 408.631H680.92V423.251H678.44V418.751C678.44 415.811 678.441 414.951 678.581 413.911L674.86 423.251H672.5L668.8 413.931C668.94 414.811 668.961 416.191 668.961 418.011V423.251ZM685.216 411.391C684.376 411.391 683.716 410.731 683.716 409.911C683.716 409.091 684.376 408.451 685.216 408.451C686.016 408.451 686.677 409.091 686.677 409.911C686.677 410.731 686.016 411.391 685.216 411.391ZM683.996 423.251V413.371H686.436V423.251H683.996ZM688.578 418.291C688.578 415.231 690.598 413.071 693.518 413.071C696.218 413.071 698.058 414.571 698.318 416.951H695.878C695.598 415.831 694.777 415.251 693.617 415.251C692.057 415.251 691.018 416.431 691.018 418.291C691.018 420.151 691.977 421.311 693.537 421.311C694.757 421.311 695.618 420.711 695.878 419.631H698.337C698.037 421.931 696.117 423.511 693.537 423.511C690.537 423.511 688.578 421.431 688.578 418.291ZM706.553 413.331V415.591H705.654C703.894 415.591 702.794 416.531 702.794 418.451V423.251H700.354V413.391H702.654L702.794 414.831C703.214 413.851 704.154 413.191 705.474 413.191C705.814 413.191 706.153 413.231 706.553 413.331ZM707.493 418.291C707.493 415.211 709.713 413.091 712.773 413.091C715.833 413.091 718.053 415.211 718.053 418.291C718.053 421.371 715.833 423.491 712.773 423.491C709.713 423.491 707.493 421.371 707.493 418.291ZM709.933 418.291C709.933 420.091 711.093 421.311 712.773 421.311C714.453 421.311 715.613 420.091 715.613 418.291C715.613 416.491 714.453 415.271 712.773 415.271C711.093 415.271 709.933 416.491 709.933 418.291ZM720.188 427.831V413.371H722.448L722.607 414.871C723.207 413.731 724.508 413.071 726.008 413.071C728.788 413.071 730.628 415.091 730.628 418.191C730.628 421.271 728.948 423.511 726.008 423.511C724.528 423.511 723.248 422.931 722.628 421.931V427.831H720.188ZM722.647 418.311C722.647 420.091 723.747 421.311 725.427 421.311C727.147 421.311 728.167 420.071 728.167 418.311C728.167 416.551 727.147 415.291 725.427 415.291C723.747 415.291 722.647 416.531 722.647 418.311ZM735.23 423.251H732.81V408.371H735.23V423.251ZM740.93 423.511C738.83 423.511 737.549 422.291 737.549 420.431C737.549 418.611 738.869 417.471 741.209 417.291L744.169 417.071V416.851C744.169 415.511 743.37 414.971 742.13 414.971C740.69 414.971 739.889 415.571 739.889 416.611H737.81C737.81 414.471 739.57 413.071 742.25 413.071C744.91 413.071 746.549 414.511 746.549 417.251V423.251H744.409L744.229 421.791C743.809 422.811 742.47 423.511 740.93 423.511ZM741.729 421.671C743.229 421.671 744.19 420.771 744.19 419.251V418.731L742.13 418.891C740.61 419.031 740.029 419.531 740.029 420.331C740.029 421.231 740.629 421.671 741.729 421.671ZM748.386 420.251H750.706C750.726 421.111 751.367 421.651 752.487 421.651C753.627 421.651 754.246 421.191 754.246 420.471C754.246 419.971 753.987 419.611 753.107 419.411L751.326 418.991C749.546 418.591 748.686 417.751 748.686 416.171C748.686 414.231 750.327 413.071 752.607 413.071C754.827 413.071 756.326 414.351 756.346 416.271H754.026C754.006 415.431 753.446 414.891 752.506 414.891C751.546 414.891 750.987 415.331 750.987 416.071C750.987 416.631 751.426 416.991 752.266 417.191L754.047 417.611C755.707 417.991 756.547 418.751 756.547 420.271C756.547 422.271 754.846 423.511 752.406 423.511C749.946 423.511 748.386 422.191 748.386 420.251ZM761.964 423.251H759.524V415.411H757.625V413.371H759.524V410.291H761.964V413.371H763.884V415.411H761.964V423.251ZM766.821 411.391C765.981 411.391 765.321 410.731 765.321 409.911C765.321 409.091 765.981 408.451 766.821 408.451C767.621 408.451 768.281 409.091 768.281 409.911C768.281 410.731 767.621 411.391 766.821 411.391ZM765.602 423.251V413.371H768.042V423.251H765.602ZM770.182 418.291C770.182 415.231 772.202 413.071 775.122 413.071C777.822 413.071 779.662 414.571 779.922 416.951H777.482C777.202 415.831 776.382 415.251 775.222 415.251C773.662 415.251 772.622 416.431 772.622 418.291C772.622 420.151 773.583 421.311 775.143 421.311C776.363 421.311 777.222 420.711 777.482 419.631H779.943C779.643 421.931 777.723 423.511 775.143 423.511C772.143 423.511 770.182 421.431 770.182 418.291ZM781.198 420.251H783.518C783.538 421.111 784.178 421.651 785.298 421.651C786.438 421.651 787.058 421.191 787.058 420.471C787.058 419.971 786.799 419.611 785.919 419.411L784.138 418.991C782.358 418.591 781.498 417.751 781.498 416.171C781.498 414.231 783.139 413.071 785.419 413.071C787.639 413.071 789.139 414.351 789.159 416.271H786.839C786.819 415.431 786.258 414.891 785.318 414.891C784.358 414.891 783.798 415.331 783.798 416.071C783.798 416.631 784.238 416.991 785.078 417.191L786.858 417.611C788.518 417.991 789.358 418.751 789.358 420.271C789.358 422.271 787.659 423.511 785.219 423.511C782.759 423.511 781.198 422.191 781.198 420.251Z" fill="black"/>
        </g>
        <path id="Polygon 26" d="M714.273 319.751L654.064 354.373M744.723 319.751L805.623 354.771M714.965 510.804L655.795 476.778M744.031 510.804L805.623 475.385M819.997 381.303V450.576" stroke="#E4E3E3" stroke-width="8" stroke-linecap="round"/>
      </g>
      <g id="pfass">
        <g id="group_hover_8" data-chemical-target="pfass">
          <path id="hover_8" d="M813.656 177.215C817.369 175.071 821.94 175.071 825.66 177.215L888.98 213.776C892.7 215.92 894.98 219.881 894.98 224.169V297.292C894.98 301.579 892.7 305.54 888.98 307.684L825.66 344.245C821.94 346.389 817.369 346.389 813.656 344.245L750.33 307.684C746.617 305.54 744.33 301.579 744.33 297.292V224.169C744.33 219.881 746.617 215.92 750.33 213.776L813.656 177.215Z" fill="#E45C4D"/>
          <path id="PFASs" d="M797.874 263.711H794.654V268.751H792.094V254.131H797.874C800.814 254.131 802.714 256.051 802.714 258.911C802.714 261.731 800.794 263.711 797.874 263.711ZM797.374 256.411H794.654V261.431H797.334C799.094 261.431 800.034 260.491 800.034 258.891C800.034 257.291 799.074 256.411 797.374 256.411ZM813.068 262.771H807.628V268.751H805.068V254.131H814.108V256.491H807.628V260.471H813.068V262.771ZM816.977 268.751H814.317L819.597 254.131H822.221L827.501 268.751H824.801L823.621 265.371H818.157L816.977 268.751ZM820.581 258.491L818.917 263.211H822.881L821.201 258.491C821.081 258.111 820.941 257.671 820.901 257.371C820.841 257.651 820.721 258.091 820.581 258.491ZM828.691 258.211C828.691 255.651 830.811 253.871 833.891 253.871C836.851 253.871 838.731 255.511 838.811 258.151H836.251C836.191 256.891 835.291 256.151 833.851 256.151C832.271 256.151 831.251 256.911 831.251 258.131C831.251 259.171 831.811 259.751 833.031 260.031L835.331 260.531C837.831 261.071 839.051 262.351 839.051 264.531C839.051 267.251 836.931 269.011 833.711 269.011C830.591 269.011 828.551 267.351 828.491 264.731H831.051C831.071 265.971 832.071 266.711 833.711 266.711C835.411 266.711 836.491 265.971 836.491 264.751C836.491 263.771 835.991 263.191 834.791 262.931L832.471 262.411C829.991 261.871 828.691 260.451 828.691 258.211ZM840.451 265.751H842.771C842.791 266.611 843.431 267.151 844.551 267.151C845.691 267.151 846.311 266.691 846.311 265.971C846.311 265.471 846.051 265.111 845.171 264.911L843.391 264.491C841.611 264.091 840.751 263.251 840.751 261.671C840.751 259.731 842.391 258.571 844.671 258.571C846.891 258.571 848.391 259.851 848.411 261.771H846.091C846.071 260.931 845.511 260.391 844.571 260.391C843.611 260.391 843.051 260.831 843.051 261.571C843.051 262.131 843.491 262.491 844.331 262.691L846.111 263.111C847.771 263.491 848.611 264.251 848.611 265.771C848.611 267.771 846.911 269.011 844.471 269.011C842.011 269.011 840.451 267.691 840.451 265.751Z" fill="black"/>
          <path id="Polygon 78" d="M808.046 185.868L761.218 213.202M831.73 185.868L879.1 213.516M808.584 336.699L762.563 309.837M831.19 336.699L879.1 308.737M890.28 234.462V289.151M749.5 233.917V288.335" stroke="#E45C4D" stroke-width="8" stroke-linecap="round"/>
        </g>
        <path id="Polygon 32" d="M804.279 165.376L744.07 199.998M834.73 165.376L895.63 200.396M834.04 356.429L895.63 321.01" stroke="#E4E3E3" stroke-width="8" stroke-linecap="round"/>
      </g>
      <g id="nanoplastics">
        <g id="group_hover_9" data-chemical-target="nanoplastics">
          <path id="hover_9" d="M360.656 17.2151C364.369 15.0715 368.943 15.0715 372.656 17.2151L435.983 53.7766C439.695 55.9202 441.983 59.8817 441.983 64.1689V137.292C441.983 141.579 439.695 145.54 435.983 147.684L372.656 184.245C368.943 186.389 364.369 186.389 360.656 184.245L297.33 147.684C293.617 145.54 291.33 141.579 291.33 137.292V64.1689C291.33 59.8817 293.617 55.9202 297.33 53.7766L360.656 17.2151Z" fill="#7E1A0E"/>
          <path id="Nano plastics" d="M314.048 92.187V106H311.939L305.137 95.588V106H303.028V92.187H305.137L311.939 102.618V92.187H314.048ZM323.188 106C323.163 105.873 323.138 105.715 323.112 105.525C323.087 105.335 323.062 105.107 323.036 104.841C322.77 105.259 322.378 105.601 321.858 105.867C321.339 106.12 320.737 106.247 320.053 106.247C319.027 106.247 318.204 105.981 317.583 105.449C316.975 104.904 316.671 104.17 316.671 103.245C316.671 102.333 316.975 101.617 317.583 101.098C318.204 100.579 319.034 100.319 320.072 100.319H322.998V99.958C322.998 99.2993 322.808 98.818 322.428 98.514C322.061 98.21 321.554 98.058 320.908 98.058C319.756 98.058 318.939 98.5267 318.457 99.464L316.975 98.609C317.355 97.849 317.894 97.2917 318.59 96.937C319.287 96.5823 320.091 96.405 321.003 96.405C322.156 96.405 323.106 96.7027 323.853 97.298C324.601 97.8933 324.974 98.856 324.974 100.186V104.005C324.974 105.031 325.031 105.696 325.145 106H323.188ZM322.998 101.744H320.528C319.946 101.744 319.496 101.877 319.179 102.143C318.875 102.396 318.723 102.757 318.723 103.226C318.723 103.707 318.882 104.075 319.198 104.328C319.528 104.569 319.977 104.689 320.547 104.689C321.244 104.689 321.827 104.467 322.295 104.024C322.764 103.568 322.998 102.884 322.998 101.972V101.744ZM336.266 100.262V106H334.252V100.661C334.252 99.749 334.037 99.1157 333.606 98.761C333.176 98.4063 332.675 98.229 332.105 98.229C331.776 98.229 331.466 98.286 331.174 98.4C330.883 98.5013 330.623 98.6597 330.395 98.875C330.18 99.0903 330.009 99.3563 329.882 99.673C329.756 99.9897 329.692 100.357 329.692 100.775V106H327.678V96.671H329.559L329.635 97.754C329.901 97.336 330.288 97.0067 330.794 96.766C331.301 96.5253 331.877 96.405 332.523 96.405C333.676 96.405 334.588 96.7343 335.259 97.393C335.931 98.039 336.266 98.9953 336.266 100.262ZM343.336 96.405C344.058 96.405 344.71 96.5317 345.293 96.785C345.888 97.0257 346.395 97.3677 346.813 97.811C347.231 98.2417 347.554 98.761 347.782 99.369C348.022 99.9643 348.143 100.617 348.143 101.326C348.143 102.035 348.022 102.694 347.782 103.302C347.554 103.897 347.231 104.417 346.813 104.86C346.395 105.291 345.888 105.626 345.293 105.867C344.71 106.108 344.058 106.228 343.336 106.228C342.614 106.228 341.955 106.108 341.36 105.867C340.777 105.626 340.277 105.291 339.859 104.86C339.441 104.417 339.111 103.897 338.871 103.302C338.643 102.694 338.529 102.035 338.529 101.326C338.529 100.617 338.643 99.9643 338.871 99.369C339.111 98.761 339.441 98.2417 339.859 97.811C340.277 97.3677 340.777 97.0257 341.36 96.785C341.955 96.5317 342.614 96.405 343.336 96.405ZM343.336 104.423C343.754 104.423 344.127 104.347 344.457 104.195C344.799 104.043 345.09 103.828 345.331 103.549C345.584 103.27 345.774 102.941 345.901 102.561C346.04 102.181 346.11 101.763 346.11 101.307C346.11 100.851 346.04 100.439 345.901 100.072C345.774 99.692 345.584 99.369 345.331 99.103C345.09 98.8243 344.799 98.609 344.457 98.457C344.127 98.305 343.754 98.229 343.336 98.229C342.918 98.229 342.538 98.305 342.196 98.457C341.854 98.609 341.562 98.8243 341.322 99.103C341.081 99.369 340.891 99.692 340.752 100.072C340.625 100.439 340.562 100.851 340.562 101.307C340.562 101.763 340.625 102.181 340.752 102.561C340.891 102.941 341.081 103.27 341.322 103.549C341.562 103.828 341.854 104.043 342.196 104.195C342.538 104.347 342.918 104.423 343.336 104.423ZM364.598 100.034V106H362.641V100.338C362.641 99.6413 362.464 99.103 362.109 98.723C361.767 98.343 361.292 98.153 360.684 98.153C360.038 98.153 359.519 98.362 359.126 98.78C358.746 99.198 358.556 99.7743 358.556 100.509V106H356.58V100.338C356.58 99.6413 356.403 99.103 356.048 98.723C355.706 98.343 355.231 98.153 354.623 98.153C353.977 98.153 353.458 98.362 353.065 98.78C352.685 99.198 352.495 99.7743 352.495 100.509V106H350.481V96.671H352.343L352.438 97.602C352.704 97.2093 353.065 96.9117 353.521 96.709C353.99 96.4937 354.516 96.386 355.098 96.386C355.82 96.386 356.435 96.538 356.941 96.842C357.461 97.146 357.86 97.583 358.138 98.153C358.366 97.6083 358.746 97.1777 359.278 96.861C359.81 96.5443 360.444 96.386 361.178 96.386C362.204 96.386 363.028 96.709 363.648 97.355C364.282 97.9883 364.598 98.8813 364.598 100.034ZM373.322 106C373.296 105.873 373.271 105.715 373.246 105.525C373.22 105.335 373.195 105.107 373.17 104.841C372.904 105.259 372.511 105.601 371.992 105.867C371.472 106.12 370.871 106.247 370.187 106.247C369.161 106.247 368.337 105.981 367.717 105.449C367.109 104.904 366.805 104.17 366.805 103.245C366.805 102.333 367.109 101.617 367.717 101.098C368.337 100.579 369.167 100.319 370.206 100.319H373.132V99.958C373.132 99.2993 372.942 98.818 372.562 98.514C372.194 98.21 371.688 98.058 371.042 98.058C369.889 98.058 369.072 98.5267 368.591 99.464L367.109 98.609C367.489 97.849 368.027 97.2917 368.724 96.937C369.42 96.5823 370.225 96.405 371.137 96.405C372.289 96.405 373.239 96.7027 373.987 97.298C374.734 97.8933 375.108 98.856 375.108 100.186V104.005C375.108 105.031 375.165 105.696 375.279 106H373.322ZM373.132 101.744H370.662C370.079 101.744 369.629 101.877 369.313 102.143C369.009 102.396 368.857 102.757 368.857 103.226C368.857 103.707 369.015 104.075 369.332 104.328C369.661 104.569 370.111 104.689 370.681 104.689C371.377 104.689 371.96 104.467 372.429 104.024C372.897 103.568 373.132 102.884 373.132 101.972V101.744ZM382.376 98.343H380.552V106H378.557V98.343H376.733V96.671H378.557V93.745H380.552V96.671H382.376V98.343ZM392.83 102.124H385.553C385.629 102.922 385.914 103.517 386.408 103.91C386.914 104.303 387.529 104.499 388.251 104.499C388.859 104.499 389.372 104.366 389.79 104.1C390.208 103.821 390.537 103.441 390.778 102.96L392.469 103.644C392.114 104.48 391.557 105.126 390.797 105.582C390.049 106.025 389.194 106.247 388.232 106.247C387.548 106.247 386.921 106.133 386.351 105.905C385.793 105.664 385.312 105.329 384.907 104.898C384.501 104.467 384.185 103.954 383.957 103.359C383.741 102.751 383.634 102.08 383.634 101.345C383.634 100.623 383.741 99.958 383.957 99.35C384.185 98.742 384.501 98.2227 384.907 97.792C385.312 97.3487 385.8 97.0067 386.37 96.766C386.94 96.5253 387.573 96.405 388.27 96.405C388.954 96.405 389.574 96.5253 390.132 96.766C390.702 96.994 391.183 97.3233 391.576 97.754C391.981 98.1847 392.291 98.704 392.507 99.312C392.722 99.9073 392.83 100.579 392.83 101.326V102.124ZM390.778 100.68C390.727 99.8313 390.48 99.1917 390.037 98.761C389.593 98.3177 388.992 98.096 388.232 98.096C387.472 98.096 386.857 98.3177 386.389 98.761C385.933 99.2043 385.66 99.844 385.572 100.68H390.778ZM399.625 96.538C399.967 96.538 400.321 96.5823 400.689 96.671V98.533C400.347 98.4443 400.005 98.4 399.663 98.4C398.865 98.4 398.244 98.647 397.801 99.141C397.37 99.635 397.155 100.319 397.155 101.193V106H395.103V96.671H396.984L397.098 97.811C397.288 97.393 397.611 97.0763 398.067 96.861C398.535 96.6457 399.055 96.538 399.625 96.538ZM402.585 93.403C402.585 93.023 402.712 92.7063 402.965 92.453C403.231 92.187 403.554 92.054 403.934 92.054C404.301 92.054 404.612 92.187 404.865 92.453C405.131 92.7063 405.264 93.023 405.264 93.403C405.264 93.7703 405.131 94.087 404.865 94.353C404.612 94.6063 404.301 94.733 403.934 94.733C403.554 94.733 403.231 94.6063 402.965 94.353C402.712 94.087 402.585 93.7703 402.585 93.403ZM404.941 96.671V106H402.927V96.671H404.941ZM413.797 106C413.771 105.873 413.746 105.715 413.721 105.525C413.695 105.335 413.67 105.107 413.645 104.841C413.379 105.259 412.986 105.601 412.467 105.867C411.947 106.12 411.346 106.247 410.662 106.247C409.636 106.247 408.812 105.981 408.192 105.449C407.584 104.904 407.28 104.17 407.28 103.245C407.28 102.333 407.584 101.617 408.192 101.098C408.812 100.579 409.642 100.319 410.681 100.319H413.607V99.958C413.607 99.2993 413.417 98.818 413.037 98.514C412.669 98.21 412.163 98.058 411.517 98.058C410.364 98.058 409.547 98.5267 409.066 99.464L407.584 98.609C407.964 97.849 408.502 97.2917 409.199 96.937C409.895 96.5823 410.7 96.405 411.612 96.405C412.764 96.405 413.714 96.7027 414.462 97.298C415.209 97.8933 415.583 98.856 415.583 100.186V104.005C415.583 105.031 415.64 105.696 415.754 106H413.797ZM413.607 101.744H411.137C410.554 101.744 410.104 101.877 409.788 102.143C409.484 102.396 409.332 102.757 409.332 103.226C409.332 103.707 409.49 104.075 409.807 104.328C410.136 104.569 410.586 104.689 411.156 104.689C411.852 104.689 412.435 104.467 412.904 104.024C413.372 103.568 413.607 102.884 413.607 101.972V101.744ZM418.287 91.94H420.301V106H418.287V91.94ZM426.216 104.613C426.698 104.613 427.09 104.518 427.394 104.328C427.711 104.125 427.869 103.815 427.869 103.397C427.869 102.827 427.502 102.46 426.767 102.295L425.437 101.934C423.702 101.453 422.834 100.56 422.834 99.255C422.834 98.837 422.91 98.457 423.062 98.115C423.227 97.7603 423.455 97.4563 423.746 97.203C424.038 96.9497 424.392 96.7533 424.81 96.614C425.228 96.4747 425.697 96.405 426.216 96.405C427.141 96.405 427.92 96.614 428.553 97.032C429.187 97.4373 429.567 98.02 429.693 98.78L427.888 99.217C427.838 98.8497 427.66 98.5647 427.356 98.362C427.065 98.1467 426.704 98.039 426.273 98.039C425.83 98.039 425.469 98.1467 425.19 98.362C424.924 98.5773 424.791 98.8623 424.791 99.217C424.791 99.521 424.893 99.768 425.095 99.958C425.298 100.135 425.608 100.275 426.026 100.376L427.337 100.718C428.173 100.933 428.807 101.275 429.237 101.744C429.668 102.2 429.883 102.757 429.883 103.416C429.883 104.29 429.56 104.98 428.914 105.487C428.281 105.994 427.388 106.247 426.235 106.247C425.159 106.247 424.31 106.013 423.689 105.544C423.069 105.075 422.701 104.455 422.587 103.682L424.411 103.359C424.462 103.739 424.639 104.043 424.943 104.271C425.26 104.499 425.684 104.613 426.216 104.613Z" fill="black"/>
          <path id="Polygon 76" d="M354.671 25.8604L307.843 53.1942M378.355 25.8604L425.721 53.5082M355.209 176.691L309.188 149.829M377.817 176.691L425.721 148.73M436.901 74.4541V129.144M296.125 73.91V128.327" stroke="#7E1A0E" stroke-width="8" stroke-linecap="round"/>
        </g>
        <path id="Polygon 77" d="M350.776 5.00098L290.568 39.806M381.226 5.00098L442.126 40.2058M351.468 197.059L292.298 162.855M380.534 197.059L442.126 161.455M456.5 66.877V136.515M275.502 66.1841V135.476" stroke="#E4E3E3" stroke-width="8" stroke-linecap="round"/>
      </g>
      <g id="phthalates">
        <g id="group_hover_10" data-chemical-target="phthalates">
          <path id="hover_10" d="M451.656 175.215C455.369 173.071 459.943 173.071 463.656 175.215L526.983 211.776C530.695 213.92 532.983 217.881 532.983 222.169V295.292C532.983 299.579 530.695 303.54 526.983 305.684L463.656 342.245C459.943 344.389 455.369 344.389 451.656 342.245L388.33 305.684C384.617 303.54 382.33 299.579 382.33 295.292V222.169C382.33 217.881 384.617 213.92 388.33 211.776L451.656 175.215Z" fill="#6769FF"/>
          <path id="Phthalates" d="M410.252 245.16C410.252 245.853 410.139 246.493 409.912 247.08C409.699 247.653 409.385 248.153 408.972 248.58C408.559 248.993 408.059 249.32 407.472 249.56C406.885 249.787 406.225 249.9 405.492 249.9H402.052V255H399.812V240.46H402.052H405.512C406.245 240.46 406.905 240.573 407.492 240.8C408.079 241.013 408.572 241.327 408.972 241.74C409.385 242.14 409.699 242.633 409.912 243.22C410.139 243.793 410.252 244.44 410.252 245.16ZM407.912 245.12C407.912 244.347 407.672 243.713 407.192 243.22C406.725 242.727 406.045 242.48 405.152 242.48H402.052V247.94H405.092C406.012 247.94 406.712 247.68 407.192 247.16C407.672 246.64 407.912 245.96 407.912 245.12ZM421.727 249.06V255H419.607V249.52C419.607 249.013 419.547 248.587 419.427 248.24C419.307 247.893 419.141 247.62 418.927 247.42C418.714 247.207 418.461 247.053 418.167 246.96C417.887 246.867 417.581 246.82 417.247 246.82C416.927 246.82 416.614 246.88 416.307 247C416.001 247.107 415.721 247.273 415.467 247.5C415.227 247.727 415.034 248.013 414.887 248.36C414.741 248.707 414.667 249.113 414.667 249.58V255H412.547V240.2H414.667V246.3C414.974 245.873 415.387 245.533 415.907 245.28C416.441 245.027 417.027 244.9 417.667 244.9C418.947 244.9 419.941 245.253 420.647 245.96C421.367 246.653 421.727 247.687 421.727 249.06ZM429.666 246.94H427.746V255H425.646V246.94H423.726V245.18H425.646V242.1H427.746V245.18H429.666V246.94ZM440.945 249.06V255H438.825V249.52C438.825 249.013 438.765 248.587 438.645 248.24C438.525 247.893 438.359 247.62 438.145 247.42C437.932 247.207 437.679 247.053 437.385 246.96C437.105 246.867 436.799 246.82 436.465 246.82C436.145 246.82 435.832 246.88 435.525 247C435.219 247.107 434.939 247.273 434.685 247.5C434.445 247.727 434.252 248.013 434.105 248.36C433.959 248.707 433.885 249.113 433.885 249.58V255H431.765V240.2H433.885V246.3C434.192 245.873 434.605 245.533 435.125 245.28C435.659 245.027 436.245 244.9 436.885 244.9C438.165 244.9 439.159 245.253 439.865 245.96C440.585 246.653 440.945 247.687 440.945 249.06ZM450.124 255C450.097 254.867 450.071 254.7 450.044 254.5C450.017 254.3 449.991 254.06 449.964 253.78C449.684 254.22 449.271 254.58 448.724 254.86C448.177 255.127 447.544 255.26 446.824 255.26C445.744 255.26 444.877 254.98 444.224 254.42C443.584 253.847 443.264 253.073 443.264 252.1C443.264 251.14 443.584 250.387 444.224 249.84C444.877 249.293 445.751 249.02 446.844 249.02H449.924V248.64C449.924 247.947 449.724 247.44 449.324 247.12C448.937 246.8 448.404 246.64 447.724 246.64C446.511 246.64 445.651 247.133 445.144 248.12L443.584 247.22C443.984 246.42 444.551 245.833 445.284 245.46C446.017 245.087 446.864 244.9 447.824 244.9C449.037 244.9 450.037 245.213 450.824 245.84C451.611 246.467 452.004 247.48 452.004 248.88V252.9C452.004 253.98 452.064 254.68 452.184 255H450.124ZM449.924 250.52H447.324C446.711 250.52 446.237 250.66 445.904 250.94C445.584 251.207 445.424 251.587 445.424 252.08C445.424 252.587 445.591 252.973 445.924 253.24C446.271 253.493 446.744 253.62 447.344 253.62C448.077 253.62 448.691 253.387 449.184 252.92C449.677 252.44 449.924 251.72 449.924 250.76V250.52ZM454.85 240.2H456.97V255H454.85V240.2ZM466.139 255C466.112 254.867 466.086 254.7 466.059 254.5C466.032 254.3 466.006 254.06 465.979 253.78C465.699 254.22 465.286 254.58 464.739 254.86C464.192 255.127 463.559 255.26 462.839 255.26C461.759 255.26 460.892 254.98 460.239 254.42C459.599 253.847 459.279 253.073 459.279 252.1C459.279 251.14 459.599 250.387 460.239 249.84C460.892 249.293 461.766 249.02 462.859 249.02H465.939V248.64C465.939 247.947 465.739 247.44 465.339 247.12C464.952 246.8 464.419 246.64 463.739 246.64C462.526 246.64 461.666 247.133 461.159 248.12L459.599 247.22C459.999 246.42 460.566 245.833 461.299 245.46C462.032 245.087 462.879 244.9 463.839 244.9C465.052 244.9 466.052 245.213 466.839 245.84C467.626 246.467 468.019 247.48 468.019 248.88V252.9C468.019 253.98 468.079 254.68 468.199 255H466.139ZM465.939 250.52H463.339C462.726 250.52 462.252 250.66 461.919 250.94C461.599 251.207 461.439 251.587 461.439 252.08C461.439 252.587 461.606 252.973 461.939 253.24C462.286 253.493 462.759 253.62 463.359 253.62C464.092 253.62 464.706 253.387 465.199 252.92C465.692 252.44 465.939 251.72 465.939 250.76V250.52ZM475.67 246.94H473.75V255H471.65V246.94H469.73V245.18H471.65V242.1H473.75V245.18H475.67V246.94ZM486.674 250.92H479.014C479.094 251.76 479.394 252.387 479.914 252.8C480.447 253.213 481.094 253.42 481.854 253.42C482.494 253.42 483.034 253.28 483.474 253C483.914 252.707 484.261 252.307 484.514 251.8L486.294 252.52C485.921 253.4 485.334 254.08 484.534 254.56C483.747 255.027 482.847 255.26 481.834 255.26C481.114 255.26 480.454 255.14 479.854 254.9C479.267 254.647 478.761 254.293 478.334 253.84C477.907 253.387 477.574 252.847 477.334 252.22C477.107 251.58 476.994 250.873 476.994 250.1C476.994 249.34 477.107 248.64 477.334 248C477.574 247.36 477.907 246.813 478.334 246.36C478.761 245.893 479.274 245.533 479.874 245.28C480.474 245.027 481.141 244.9 481.874 244.9C482.594 244.9 483.247 245.027 483.834 245.28C484.434 245.52 484.941 245.867 485.354 246.32C485.781 246.773 486.107 247.32 486.334 247.96C486.561 248.587 486.674 249.293 486.674 250.08V250.92ZM484.514 249.4C484.461 248.507 484.201 247.833 483.734 247.38C483.267 246.913 482.634 246.68 481.834 246.68C481.034 246.68 480.387 246.913 479.894 247.38C479.414 247.847 479.127 248.52 479.034 249.4H484.514ZM492.366 253.54C492.873 253.54 493.286 253.44 493.606 253.24C493.94 253.027 494.106 252.7 494.106 252.26C494.106 251.66 493.72 251.273 492.946 251.1L491.546 250.72C489.72 250.213 488.806 249.273 488.806 247.9C488.806 247.46 488.886 247.06 489.046 246.7C489.22 246.327 489.46 246.007 489.766 245.74C490.073 245.473 490.446 245.267 490.886 245.12C491.326 244.973 491.82 244.9 492.366 244.9C493.34 244.9 494.16 245.12 494.826 245.56C495.493 245.987 495.893 246.6 496.026 247.4L494.126 247.86C494.073 247.473 493.886 247.173 493.566 246.96C493.26 246.733 492.88 246.62 492.426 246.62C491.96 246.62 491.58 246.733 491.286 246.96C491.006 247.187 490.866 247.487 490.866 247.86C490.866 248.18 490.973 248.44 491.186 248.64C491.4 248.827 491.726 248.973 492.166 249.08L493.546 249.44C494.426 249.667 495.093 250.027 495.546 250.52C496 251 496.226 251.587 496.226 252.28C496.226 253.2 495.886 253.927 495.206 254.46C494.54 254.993 493.6 255.26 492.386 255.26C491.253 255.26 490.36 255.013 489.706 254.52C489.053 254.027 488.666 253.373 488.546 252.56L490.466 252.22C490.52 252.62 490.706 252.94 491.026 253.18C491.36 253.42 491.806 253.54 492.366 253.54ZM513.933 255L513.033 253.88C511.927 254.773 510.52 255.227 508.813 255.24C508 255.24 507.267 255.14 506.613 254.94C505.96 254.727 505.407 254.433 504.953 254.06C504.5 253.673 504.153 253.213 503.913 252.68C503.673 252.147 503.553 251.553 503.553 250.9C503.553 249.94 503.82 249.12 504.353 248.44C504.9 247.747 505.74 247.08 506.873 246.44C506.58 246.093 506.327 245.78 506.113 245.5C505.913 245.207 505.76 244.947 505.653 244.72C505.427 244.24 505.313 243.767 505.313 243.3C505.313 242.82 505.4 242.387 505.573 242C505.76 241.613 506.007 241.287 506.313 241.02C506.62 240.753 506.987 240.553 507.413 240.42C507.853 240.273 508.32 240.2 508.813 240.2C509.827 240.2 510.653 240.48 511.293 241.04C511.933 241.6 512.253 242.32 512.253 243.2C512.253 243.853 512.04 244.467 511.613 245.04C511.2 245.613 510.533 246.2 509.613 246.8L512.813 250.62C513.013 249.993 513.113 249.287 513.113 248.5C513.113 248.367 513.113 248.26 513.113 248.18C513.113 248.087 513.107 248.007 513.093 247.94H515.293C515.347 249.647 515.02 251.133 514.313 252.4L516.473 255H513.933ZM507.393 243.5C507.393 243.78 507.48 244.067 507.653 244.36C507.84 244.64 508.153 245.04 508.593 245.56C509.66 244.893 510.193 244.18 510.193 243.42C510.193 243.033 510.073 242.713 509.833 242.46C509.593 242.193 509.247 242.06 508.793 242.06C508.34 242.06 507.987 242.2 507.733 242.48C507.493 242.76 507.38 243.1 507.393 243.5ZM507.953 247.76C507.3 248.16 506.773 248.62 506.373 249.14C505.987 249.66 505.793 250.227 505.793 250.84C505.793 251.6 506.073 252.213 506.633 252.68C507.193 253.133 507.98 253.36 508.993 253.36C510.167 253.333 511.093 253 511.773 252.36L507.953 247.76ZM410.652 266.2C411.986 266.2 413.086 266.52 413.952 267.16C414.819 267.8 415.352 268.66 415.552 269.74L413.432 270.32C413.299 269.64 412.986 269.127 412.492 268.78C411.999 268.42 411.372 268.24 410.612 268.24C409.799 268.24 409.152 268.44 408.672 268.84C408.206 269.227 407.972 269.74 407.972 270.38C407.972 270.9 408.132 271.327 408.452 271.66C408.786 271.98 409.252 272.213 409.852 272.36L412.252 272.98C413.492 273.287 414.406 273.78 414.992 274.46C415.579 275.14 415.872 275.98 415.872 276.98C415.872 277.607 415.752 278.187 415.512 278.72C415.272 279.24 414.932 279.693 414.492 280.08C414.052 280.453 413.512 280.747 412.872 280.96C412.246 281.16 411.539 281.26 410.752 281.26C409.326 281.26 408.146 280.933 407.212 280.28C406.252 279.613 405.686 278.713 405.512 277.58L407.632 277.02C407.726 277.7 408.052 278.233 408.612 278.62C409.186 278.993 409.919 279.18 410.812 279.18C411.692 279.18 412.386 278.993 412.892 278.62C413.399 278.247 413.652 277.733 413.652 277.08C413.652 276.067 413.026 275.393 411.772 275.06L409.372 274.48C408.132 274.187 407.219 273.693 406.632 273C406.046 272.307 405.752 271.46 405.752 270.46C405.752 269.833 405.866 269.26 406.092 268.74C406.332 268.207 406.666 267.753 407.092 267.38C407.532 267.007 408.052 266.72 408.652 266.52C409.252 266.307 409.919 266.2 410.652 266.2ZM425.468 281C425.388 280.68 425.328 280.287 425.288 279.82C425.008 280.287 424.608 280.647 424.088 280.9C423.568 281.14 422.968 281.26 422.288 281.26C421.194 281.26 420.254 280.94 419.468 280.3C418.681 279.633 418.288 278.573 418.288 277.12V271.16H420.428V276.76C420.428 277.733 420.654 278.407 421.108 278.78C421.574 279.167 422.114 279.36 422.728 279.36C423.074 279.36 423.394 279.307 423.688 279.2C423.994 279.08 424.261 278.907 424.488 278.68C424.728 278.453 424.914 278.173 425.048 277.84C425.181 277.507 425.248 277.12 425.248 276.68V271.18H427.388V279.2C427.388 279.467 427.401 279.78 427.428 280.14C427.468 280.487 427.514 280.773 427.568 281H425.468ZM440.864 276.14C440.864 276.913 440.744 277.62 440.504 278.26C440.277 278.887 439.957 279.427 439.544 279.88C439.131 280.32 438.631 280.66 438.044 280.9C437.471 281.14 436.831 281.26 436.124 281.26C435.284 281.26 434.564 281.1 433.964 280.78C433.364 280.447 432.917 280.027 432.624 279.52L432.504 281H430.604V266.2H432.664V272.58C433.011 272.02 433.491 271.6 434.104 271.32C434.731 271.027 435.404 270.88 436.124 270.88C436.831 270.88 437.471 271.007 438.044 271.26C438.631 271.5 439.131 271.847 439.544 272.3C439.957 272.753 440.277 273.307 440.504 273.96C440.744 274.613 440.864 275.34 440.864 276.14ZM438.724 276.06C438.724 275.06 438.451 274.267 437.904 273.68C437.371 273.093 436.657 272.8 435.764 272.8C434.871 272.8 434.151 273.093 433.604 273.68C433.057 274.267 432.784 275.06 432.784 276.06C432.784 277.06 433.057 277.853 433.604 278.44C434.151 279.027 434.871 279.32 435.764 279.32C436.657 279.32 437.371 279.027 437.904 278.44C438.451 277.853 438.724 277.06 438.724 276.06ZM446.509 279.54C447.015 279.54 447.429 279.44 447.749 279.24C448.082 279.027 448.249 278.7 448.249 278.26C448.249 277.66 447.862 277.273 447.089 277.1L445.689 276.72C443.862 276.213 442.949 275.273 442.949 273.9C442.949 273.46 443.029 273.06 443.189 272.7C443.362 272.327 443.602 272.007 443.909 271.74C444.215 271.473 444.589 271.267 445.029 271.12C445.469 270.973 445.962 270.9 446.509 270.9C447.482 270.9 448.302 271.12 448.969 271.56C449.635 271.987 450.035 272.6 450.169 273.4L448.269 273.86C448.215 273.473 448.029 273.173 447.709 272.96C447.402 272.733 447.022 272.62 446.569 272.62C446.102 272.62 445.722 272.733 445.429 272.96C445.149 273.187 445.009 273.487 445.009 273.86C445.009 274.18 445.115 274.44 445.329 274.64C445.542 274.827 445.869 274.973 446.309 275.08L447.689 275.44C448.569 275.667 449.235 276.027 449.689 276.52C450.142 277 450.369 277.587 450.369 278.28C450.369 279.2 450.029 279.927 449.349 280.46C448.682 280.993 447.742 281.26 446.529 281.26C445.395 281.26 444.502 281.013 443.849 280.52C443.195 280.027 442.809 279.373 442.689 278.56L444.609 278.22C444.662 278.62 444.849 278.94 445.169 279.18C445.502 279.42 445.949 279.54 446.509 279.54ZM458.973 267.74C458.973 267.34 459.106 267.007 459.373 266.74C459.639 266.46 459.973 266.32 460.373 266.32C460.759 266.32 461.086 266.46 461.353 266.74C461.633 267.007 461.773 267.34 461.773 267.74C461.773 268.127 461.633 268.46 461.353 268.74C461.086 269.007 460.759 269.14 460.373 269.14C459.973 269.14 459.639 269.007 459.373 268.74C459.106 268.46 458.973 268.127 458.973 267.74ZM461.413 281H459.293V272.94H455.673V281H453.573V272.94H451.653V271.18H453.573V268.1H455.673V271.18H461.413V281ZM469.538 272.94H467.618V281H465.518V272.94H463.598V271.18H465.518V268.1H467.618V271.18H469.538V272.94ZM478.854 281C478.774 280.68 478.714 280.287 478.674 279.82C478.394 280.287 477.994 280.647 477.474 280.9C476.954 281.14 476.354 281.26 475.674 281.26C474.581 281.26 473.641 280.94 472.854 280.3C472.068 279.633 471.674 278.573 471.674 277.12V271.16H473.814V276.76C473.814 277.733 474.041 278.407 474.494 278.78C474.961 279.167 475.501 279.36 476.114 279.36C476.461 279.36 476.781 279.307 477.074 279.2C477.381 279.08 477.648 278.907 477.874 278.68C478.114 278.453 478.301 278.173 478.434 277.84C478.568 277.507 478.634 277.12 478.634 276.68V271.18H480.774V279.2C480.774 279.467 480.788 279.78 480.814 280.14C480.854 280.487 480.901 280.773 480.954 281H478.854ZM488.951 272.94H487.031V281H484.931V272.94H483.011V271.18H484.931V268.1H487.031V271.18H488.951V272.94ZM499.955 276.92H492.295C492.375 277.76 492.675 278.387 493.195 278.8C493.728 279.213 494.375 279.42 495.135 279.42C495.775 279.42 496.315 279.28 496.755 279C497.195 278.707 497.541 278.307 497.795 277.8L499.575 278.52C499.201 279.4 498.615 280.08 497.815 280.56C497.028 281.027 496.128 281.26 495.115 281.26C494.395 281.26 493.735 281.14 493.135 280.9C492.548 280.647 492.041 280.293 491.615 279.84C491.188 279.387 490.855 278.847 490.615 278.22C490.388 277.58 490.275 276.873 490.275 276.1C490.275 275.34 490.388 274.64 490.615 274C490.855 273.36 491.188 272.813 491.615 272.36C492.041 271.893 492.555 271.533 493.155 271.28C493.755 271.027 494.421 270.9 495.155 270.9C495.875 270.9 496.528 271.027 497.115 271.28C497.715 271.52 498.221 271.867 498.635 272.32C499.061 272.773 499.388 273.32 499.615 273.96C499.841 274.587 499.955 275.293 499.955 276.08V276.92ZM497.795 275.4C497.741 274.507 497.481 273.833 497.015 273.38C496.548 272.913 495.915 272.68 495.115 272.68C494.315 272.68 493.668 272.913 493.175 273.38C492.695 273.847 492.408 274.52 492.315 275.4H497.795ZM505.647 279.54C506.154 279.54 506.567 279.44 506.887 279.24C507.22 279.027 507.387 278.7 507.387 278.26C507.387 277.66 507 277.273 506.227 277.1L504.827 276.72C503 276.213 502.087 275.273 502.087 273.9C502.087 273.46 502.167 273.06 502.327 272.7C502.5 272.327 502.74 272.007 503.047 271.74C503.354 271.473 503.727 271.267 504.167 271.12C504.607 270.973 505.1 270.9 505.647 270.9C506.62 270.9 507.44 271.12 508.107 271.56C508.774 271.987 509.174 272.6 509.307 273.4L507.407 273.86C507.354 273.473 507.167 273.173 506.847 272.96C506.54 272.733 506.16 272.62 505.707 272.62C505.24 272.62 504.86 272.733 504.567 272.96C504.287 273.187 504.147 273.487 504.147 273.86C504.147 274.18 504.254 274.44 504.467 274.64C504.68 274.827 505.007 274.973 505.447 275.08L506.827 275.44C507.707 275.667 508.374 276.027 508.827 276.52C509.28 277 509.507 277.587 509.507 278.28C509.507 279.2 509.167 279.927 508.487 280.46C507.82 280.993 506.88 281.26 505.667 281.26C504.534 281.26 503.64 281.013 502.987 280.52C502.334 280.027 501.947 279.373 501.827 278.56L503.747 278.22C503.8 278.62 503.987 278.94 504.307 279.18C504.64 279.42 505.087 279.54 505.647 279.54Z" fill="black"/>
          <path id="Polygon 72" d="M446.181 183.103L399.352 210.437M469.864 183.103L517.231 210.751M446.719 333.935L400.698 307.072M469.326 333.935L517.231 305.973M528.411 231.697V286.387M387.635 231.153V285.57" stroke="#6769FF" stroke-width="8" stroke-linecap="round"/>
        </g>
        <path id="Polygon 73" d="M471.654 162.872L532.216 197.892M442.061 353.925L383.22 319.899M470.966 353.925L532.216 318.507M546.51 224.424V293.698M366.518 223.735V292.664" stroke="#E4E3E3" stroke-width="8" stroke-linecap="round"/>
      </g>
      <g id="bisphenols">
        <g id="group_hover_11" data-chemical-target="bisphenols">
          <path id="hover_11" d="M269.17 175.215C272.883 173.071 277.458 173.071 281.17 175.215L344.497 211.776C348.21 213.92 350.497 217.881 350.497 222.169V295.292C350.497 299.579 348.21 303.54 344.497 305.684L281.17 342.245C277.458 344.389 272.883 344.389 269.17 342.245L205.844 305.684C202.131 303.54 199.844 299.579 199.844 295.292V222.169C199.844 217.881 202.131 213.92 205.844 211.776L269.17 175.215Z" fill="#D7B040"/>
          <path id="Bisphenols" d="M225.555 267.751V253.131H231.375C234.255 253.131 236.015 254.631 236.015 257.071C236.015 258.691 235.295 259.851 233.915 260.431C235.455 260.931 236.235 262.091 236.235 263.791C236.235 266.291 234.495 267.751 231.475 267.751H225.555ZM231.155 255.391H228.115V259.371H231.215C232.615 259.371 233.395 258.631 233.395 257.331C233.395 256.071 232.595 255.391 231.155 255.391ZM231.375 261.531H228.115V265.491H231.375C232.815 265.491 233.615 264.791 233.615 263.471C233.615 262.231 232.795 261.531 231.375 261.531ZM239.642 255.891C238.802 255.891 238.142 255.231 238.142 254.411C238.142 253.591 238.802 252.951 239.642 252.951C240.442 252.951 241.102 253.591 241.102 254.411C241.102 255.231 240.442 255.891 239.642 255.891ZM238.422 267.751V257.871H240.862V267.751H238.422ZM242.823 264.751H245.143C245.163 265.611 245.803 266.151 246.923 266.151C248.063 266.151 248.683 265.691 248.683 264.971C248.683 264.471 248.423 264.111 247.543 263.911L245.763 263.491C243.983 263.091 243.123 262.251 243.123 260.671C243.123 258.731 244.763 257.571 247.043 257.571C249.263 257.571 250.763 258.851 250.783 260.771H248.463C248.443 259.931 247.883 259.391 246.943 259.391C245.983 259.391 245.423 259.831 245.423 260.571C245.423 261.131 245.863 261.491 246.703 261.691L248.483 262.111C250.143 262.491 250.983 263.251 250.983 264.771C250.983 266.771 249.283 268.011 246.843 268.011C244.383 268.011 242.823 266.691 242.823 264.751ZM253.041 272.331V257.871H255.301L255.461 259.371C256.061 258.231 257.361 257.571 258.861 257.571C261.641 257.571 263.481 259.591 263.481 262.691C263.481 265.771 261.801 268.011 258.861 268.011C257.381 268.011 256.101 267.431 255.481 266.431V272.331H253.041ZM255.501 262.811C255.501 264.591 256.601 265.811 258.281 265.811C260.001 265.811 261.021 264.571 261.021 262.811C261.021 261.051 260.001 259.791 258.281 259.791C256.601 259.791 255.501 261.031 255.501 262.811ZM268.063 267.751H265.623V252.871H268.083V259.151C268.703 258.191 269.863 257.571 271.283 257.571C273.723 257.571 275.003 259.111 275.003 261.671V267.751H272.563V262.251C272.563 260.591 271.743 259.791 270.503 259.791C268.963 259.791 268.063 260.871 268.063 262.351V267.751ZM282.021 268.011C279.081 268.011 277.021 265.871 277.021 262.811C277.021 259.711 279.041 257.571 281.941 257.571C284.901 257.571 286.781 259.551 286.781 262.631V263.371L279.341 263.391C279.521 265.131 280.441 266.011 282.061 266.011C283.401 266.011 284.281 265.491 284.561 264.551H286.821C286.401 266.711 284.601 268.011 282.021 268.011ZM281.961 259.571C280.521 259.571 279.641 260.351 279.401 261.831H284.361C284.361 260.471 283.421 259.571 281.961 259.571ZM291.374 267.751H288.934V257.871H291.194L291.394 259.151C292.014 258.151 293.214 257.571 294.554 257.571C297.034 257.571 298.314 259.111 298.314 261.671V267.751H295.874V262.251C295.874 260.591 295.054 259.791 293.794 259.791C292.294 259.791 291.374 260.831 291.374 262.431V267.751ZM300.331 262.791C300.331 259.711 302.551 257.591 305.611 257.591C308.671 257.591 310.891 259.711 310.891 262.791C310.891 265.871 308.671 267.991 305.611 267.991C302.551 267.991 300.331 265.871 300.331 262.791ZM302.771 262.791C302.771 264.591 303.931 265.811 305.611 265.811C307.291 265.811 308.451 264.591 308.451 262.791C308.451 260.991 307.291 259.771 305.611 259.771C303.931 259.771 302.771 260.991 302.771 262.791ZM315.485 267.751H313.065V252.871H315.485V267.751ZM317.485 264.751H319.805C319.825 265.611 320.465 266.151 321.585 266.151C322.725 266.151 323.345 265.691 323.345 264.971C323.345 264.471 323.085 264.111 322.205 263.911L320.425 263.491C318.645 263.091 317.785 262.251 317.785 260.671C317.785 258.731 319.425 257.571 321.705 257.571C323.925 257.571 325.425 258.851 325.445 260.771H323.125C323.105 259.931 322.545 259.391 321.605 259.391C320.645 259.391 320.085 259.831 320.085 260.571C320.085 261.131 320.525 261.491 321.365 261.691L323.145 262.111C324.805 262.491 325.645 263.251 325.645 264.771C325.645 266.771 323.945 268.011 321.505 268.011C319.045 268.011 317.485 266.691 317.485 264.751Z" fill="black"/>
          <path id="Polygon 53" d="M263.578 183.103L216.415 210.437M287.43 183.103L335.135 210.751M264.12 333.935L217.77 307.072M286.888 333.935L335.135 305.973M346.395 231.697V286.387M204.613 231.153V285.57" stroke="#D7B040" stroke-width="8" stroke-linecap="round"/>
        </g>
        <path id="Polygon 5" d="M260.788 162.638L200.58 197.443M261.48 354.697L202.31 320.492M290.547 354.697L352.138 319.092" stroke="#E4E3E3" stroke-width="8" stroke-linecap="round"/>
      </g>
    </g>
</svg>
