<svg width="174" height="178" viewBox="0 0 174 178" fill="none" xmlns="http://www.w3.org/2000/svg">
<path d="M103.461 5.24121C136.566 11.5369 162.742 37.3899 169.512 70.3244" stroke="black" stroke-width="8" stroke-linecap="round"/>
<path d="M4.93628 71.0273C11.2319 37.9223 37.085 11.7466 70.0194 4.97642" stroke="black" stroke-width="8" stroke-linecap="round"/>
<path d="M169.751 107.926C163.456 141.031 137.602 167.207 104.668 173.977" stroke="black" stroke-width="8" stroke-linecap="round"/>
<path d="M70.9873 173.41C37.8822 167.115 11.7066 141.261 4.93639 108.327" stroke="black" stroke-width="8" stroke-linecap="round"/>
<path d="M134.819 57.251C147.502 75.8908 147.654 100.505 135.276 119.288" stroke="black" stroke-width="8" stroke-linecap="round"/>
<path d="M57.0862 41.7637C75.726 29.0806 100.34 28.928 119.123 41.3058" stroke="black" stroke-width="8" stroke-linecap="round"/>
<path d="M117.601 137.189C98.9615 149.873 74.3477 150.025 55.5641 137.647" stroke="black" stroke-width="8" stroke-linecap="round"/>
<path d="M39.8982 121.446C27.2151 102.807 27.0625 78.1926 39.4404 59.4091" stroke="black" stroke-width="8" stroke-linecap="round"/>
<path d="M115.935 94.9473C113.798 106.184 105.023 115.068 93.8445 117.366" stroke="black" stroke-width="8" stroke-linecap="round"/>
<path d="M93.6062 61.5059C104.843 63.6427 113.727 72.4178 116.025 83.5964" stroke="black" stroke-width="8" stroke-linecap="round"/>
<path d="M81.082 117.447C69.8455 115.31 60.9609 106.535 58.663 95.3567" stroke="black" stroke-width="8" stroke-linecap="round"/>
<path d="M58.8552 83.9248C60.9921 72.6883 69.7672 63.8037 80.9458 61.5057" stroke="black" stroke-width="8" stroke-linecap="round"/>
</svg>
