<svg width="199" height="191" viewBox="0 0 199 191" fill="none" xmlns="http://www.w3.org/2000/svg">
<path d="M47.5286 5.08691C61.2958 7.70505 72.1813 18.4564 74.9968 32.1527" stroke="black" stroke-width="8" stroke-linecap="round"/>
<path d="M6.55542 32.4443C9.17356 18.6771 19.9249 7.79157 33.6212 4.97609" stroke="black" stroke-width="8" stroke-linecap="round"/>
<path d="M75.0959 47.7891C72.4778 61.5563 61.7264 72.4418 48.0302 75.2573" stroke="black" stroke-width="8" stroke-linecap="round"/>
<path d="M34.0237 75.0225C20.2565 72.4043 9.37092 61.6529 6.55544 47.9567" stroke="black" stroke-width="8" stroke-linecap="round"/>
<path d="M163.133 5.43945C176.9 8.05759 187.785 18.809 190.601 32.5052" stroke="black" stroke-width="8" stroke-linecap="round"/>
<path d="M122.16 32.7969C124.778 19.0297 135.529 8.14411 149.225 5.32863" stroke="black" stroke-width="8" stroke-linecap="round"/>
<path d="M190.7 48.1416C188.082 61.9088 177.331 72.7944 163.635 75.6098" stroke="black" stroke-width="8" stroke-linecap="round"/>
<path d="M149.628 75.375C135.861 72.7569 124.975 62.0055 122.16 48.3092" stroke="black" stroke-width="8" stroke-linecap="round"/>
<path d="M163.133 116.523C176.9 119.142 187.786 129.893 190.601 143.589" stroke="black" stroke-width="8" stroke-linecap="round"/>
<path d="M122.16 143.881C124.778 130.114 135.529 119.228 149.226 116.413" stroke="black" stroke-width="8" stroke-linecap="round"/>
<path d="M190.701 159.226C188.083 172.993 177.331 183.878 163.635 186.694" stroke="black" stroke-width="8" stroke-linecap="round"/>
<path d="M149.628 186.458C135.861 183.84 124.975 173.088 122.16 159.392" stroke="black" stroke-width="8" stroke-linecap="round"/>
<path d="M47.6277 116.523C61.3949 119.142 72.2804 129.893 75.0959 143.589" stroke="black" stroke-width="8" stroke-linecap="round"/>
<path d="M6.65454 143.881C9.27268 130.114 20.0241 119.228 33.7203 116.413" stroke="black" stroke-width="8" stroke-linecap="round"/>
<path d="M75.1953 159.226C72.5772 172.993 61.8258 183.878 48.1295 186.694" stroke="black" stroke-width="8" stroke-linecap="round"/>
<path d="M34.1228 186.458C20.3556 183.84 9.47004 173.088 6.65456 159.392" stroke="black" stroke-width="8" stroke-linecap="round"/>
<path d="M100.56 6.2334V82.9299" stroke="black" stroke-width="8" stroke-linecap="round"/>
<path d="M100.56 109.762V186.458" stroke="black" stroke-width="8" stroke-linecap="round"/>
<path d="M81.6328 96.0117L4.93636 96.0117" stroke="black" stroke-width="8" stroke-linecap="round"/>
<path d="M194.403 96.0117L117.706 96.0117" stroke="black" stroke-width="8" stroke-linecap="round"/>
</svg>
