<svg width="24" height="23" viewBox="0 0 24 23" fill="none" xmlns="http://www.w3.org/2000/svg">
    <path d="M14.078 5.04498C13.7112 5.39821 13.1164 5.39821 12.75 5.04498C12.3831 4.69205 12.3831 4.11929 12.75 3.76639L14.0947 2.47107C16.2031 0.440631 19.6221 0.440631 21.7305 2.47107C23.8393 4.50184 23.8393 7.79392 21.7305 9.82469L16.4187 14.94C14.3103 16.9704 10.8914 16.9704 8.78292 14.94C8.41611 14.5867 8.41611 14.0143 8.78292 13.661C9.1494 13.3078 9.74417 13.3078 10.111 13.661C11.4858 14.9853 13.7155 14.9853 15.0907 13.661L20.4025 8.54577C21.7777 7.22148 21.7777 5.0743 20.4025 3.74999C19.0276 2.42569 16.798 2.42569 15.4227 3.74999L14.078 5.04498Z" fill="black" stroke="black" stroke-width="0.3"/>
    <path d="M9.85913 18.7C10.2259 18.3467 10.8204 18.3467 11.1872 18.7C11.554 19.0533 11.554 19.6256 11.1872 19.9788L9.84244 21.2739C7.73367 23.3047 4.31511 23.3047 2.20634 21.2739C0.0978872 19.2434 0.0978872 15.951 2.20634 13.9206L7.51844 8.8053C9.62689 6.77453 13.0458 6.77453 15.1542 8.8053C15.521 9.15824 15.521 9.73098 15.1542 10.0842C14.7874 10.4371 14.193 10.4371 13.8262 10.0842C12.451 8.75994 10.2213 8.75994 8.84615 10.0842L3.53437 15.1995C2.15921 16.5238 2.15921 18.671 3.53437 19.995C4.90954 21.3193 7.13924 21.3193 8.51439 19.995L9.85913 18.7Z" fill="black" stroke="black" stroke-width="0.3"/>
</svg>
