<svg width="1920" height="1080" viewBox="0 0 1920 1080" fill="none" xmlns="http://www.w3.org/2000/svg">
<g id="ASSET ANIMATION D3 Respiratory Diseases">
<g id="1_TEXT">
<path id="Damage to lungs" d="M658.88 335H653.62V320.38H658.74C663.06 320.38 666.04 323.36 666.04 327.72C666.04 332.02 663.12 335 658.88 335ZM658.5 322.74H656.18V332.64H658.64C661.56 332.64 663.34 330.76 663.34 327.72C663.34 324.62 661.52 322.74 658.5 322.74ZM671.205 335.26C669.105 335.26 667.825 334.04 667.825 332.18C667.825 330.36 669.145 329.22 671.485 329.04L674.445 328.82V328.6C674.445 327.26 673.645 326.72 672.405 326.72C670.965 326.72 670.165 327.32 670.165 328.36H668.085C668.085 326.22 669.845 324.82 672.525 324.82C675.185 324.82 676.825 326.26 676.825 329V335H674.685L674.505 333.54C674.085 334.56 672.745 335.26 671.205 335.26ZM672.005 333.42C673.505 333.42 674.465 332.52 674.465 331V330.48L672.405 330.64C670.885 330.78 670.305 331.28 670.305 332.08C670.305 332.98 670.905 333.42 672.005 333.42ZM681.862 335H679.422V325.12H681.662L681.862 326.28C682.362 325.46 683.362 324.82 684.782 324.82C686.282 324.82 687.322 325.56 687.842 326.7C688.342 325.56 689.502 324.82 691.002 324.82C693.402 324.82 694.722 326.26 694.722 328.54V335H692.302V329.18C692.302 327.76 691.542 327.02 690.382 327.02C689.202 327.02 688.302 327.78 688.302 329.4V335H685.862V329.16C685.862 327.78 685.122 327.04 683.962 327.04C682.802 327.04 681.862 327.8 681.862 329.4V335ZM700.257 335.26C698.157 335.26 696.877 334.04 696.877 332.18C696.877 330.36 698.197 329.22 700.537 329.04L703.497 328.82V328.6C703.497 327.26 702.697 326.72 701.457 326.72C700.017 326.72 699.217 327.32 699.217 328.36H697.137C697.137 326.22 698.897 324.82 701.577 324.82C704.237 324.82 705.877 326.26 705.877 329V335H703.737L703.557 333.54C703.137 334.56 701.797 335.26 700.257 335.26ZM701.057 333.42C702.557 333.42 703.517 332.52 703.517 331V330.48L701.457 330.64C699.937 330.78 699.357 331.28 699.357 332.08C699.357 332.98 699.957 333.42 701.057 333.42ZM707.914 329.84C707.914 326.96 709.794 324.8 712.614 324.8C714.094 324.8 715.254 325.42 715.834 326.48L715.974 325.12H718.234V334.5C718.234 337.8 716.254 339.86 713.054 339.86C710.214 339.86 708.274 338.24 707.974 335.6H710.414C710.574 336.88 711.554 337.64 713.054 337.64C714.734 337.64 715.814 336.58 715.814 334.94V333.3C715.194 334.22 713.974 334.8 712.554 334.8C709.754 334.8 707.914 332.7 707.914 329.84ZM710.374 329.78C710.374 331.44 711.434 332.68 713.034 332.68C714.714 332.68 715.754 331.5 715.754 329.78C715.754 328.1 714.734 326.94 713.034 326.94C711.414 326.94 710.374 328.16 710.374 329.78ZM725.379 335.26C722.439 335.26 720.379 333.12 720.379 330.06C720.379 326.96 722.399 324.82 725.299 324.82C728.259 324.82 730.139 326.8 730.139 329.88V330.62L722.699 330.64C722.879 332.38 723.799 333.26 725.419 333.26C726.759 333.26 727.639 332.74 727.919 331.8H730.179C729.759 333.96 727.959 335.26 725.379 335.26ZM725.319 326.82C723.879 326.82 722.999 327.6 722.759 329.08H727.719C727.719 327.72 726.779 326.82 725.319 326.82ZM741.243 335H738.803V327.16H736.903V325.12H738.803V322.04H741.243V325.12H743.163V327.16H741.243V335ZM744.202 330.04C744.202 326.96 746.422 324.84 749.482 324.84C752.542 324.84 754.762 326.96 754.762 330.04C754.762 333.12 752.542 335.24 749.482 335.24C746.422 335.24 744.202 333.12 744.202 330.04ZM746.642 330.04C746.642 331.84 747.802 333.06 749.482 333.06C751.162 333.06 752.322 331.84 752.322 330.04C752.322 328.24 751.162 327.02 749.482 327.02C747.802 327.02 746.642 328.24 746.642 330.04ZM764.947 335H762.527V320.12H764.947V335ZM774.406 325.12H776.846V335H774.586L774.406 333.68C773.806 334.62 772.526 335.26 771.206 335.26C768.926 335.26 767.586 333.72 767.586 331.3V325.12H770.026V330.44C770.026 332.32 770.766 333.08 772.126 333.08C773.666 333.08 774.406 332.18 774.406 330.3V325.12ZM782.006 335H779.566V325.12H781.826L782.026 326.4C782.646 325.4 783.846 324.82 785.186 324.82C787.666 324.82 788.946 326.36 788.946 328.92V335H786.506V329.5C786.506 327.84 785.686 327.04 784.426 327.04C782.926 327.04 782.006 328.08 782.006 329.68V335ZM790.984 329.84C790.984 326.96 792.864 324.8 795.684 324.8C797.164 324.8 798.324 325.42 798.904 326.48L799.044 325.12H801.304V334.5C801.304 337.8 799.324 339.86 796.124 339.86C793.284 339.86 791.344 338.24 791.044 335.6H793.484C793.644 336.88 794.624 337.64 796.124 337.64C797.804 337.64 798.884 336.58 798.884 334.94V333.3C798.264 334.22 797.044 334.8 795.624 334.8C792.824 334.8 790.984 332.7 790.984 329.84ZM793.444 329.78C793.444 331.44 794.504 332.68 796.104 332.68C797.784 332.68 798.824 331.5 798.824 329.78C798.824 328.1 797.804 326.94 796.104 326.94C794.484 326.94 793.444 328.16 793.444 329.78ZM803.269 332H805.589C805.609 332.86 806.249 333.4 807.369 333.4C808.509 333.4 809.129 332.94 809.129 332.22C809.129 331.72 808.869 331.36 807.989 331.16L806.209 330.74C804.429 330.34 803.569 329.5 803.569 327.92C803.569 325.98 805.209 324.82 807.489 324.82C809.709 324.82 811.209 326.1 811.229 328.02H808.909C808.889 327.18 808.329 326.64 807.389 326.64C806.429 326.64 805.869 327.08 805.869 327.82C805.869 328.38 806.309 328.74 807.149 328.94L808.929 329.36C810.589 329.74 811.429 330.5 811.429 332.02C811.429 334.02 809.729 335.26 807.289 335.26C804.829 335.26 803.269 333.94 803.269 332Z" fill="black"/>
<path id="Vector 2249" d="M932 330.01L822 330.01" stroke="black" stroke-width="3" stroke-linecap="round"/>
<g id="B_MERCURY">
<rect id="Rectangle 4859" x="652" y="343" width="111" height="27.5" rx="13.75" fill="#E21337"/>
<path id="text" d="M672.743 364H670.263V349.38H672.743L677.463 361.02L682.183 349.38H684.703V364H682.223V359.5C682.223 356.56 682.223 355.7 682.363 354.66L678.643 364H676.283L672.583 354.68C672.723 355.56 672.743 356.94 672.743 358.76V364ZM691.998 364.26C689.058 364.26 686.998 362.12 686.998 359.06C686.998 355.96 689.018 353.82 691.918 353.82C694.878 353.82 696.758 355.8 696.758 358.88V359.62L689.318 359.64C689.498 361.38 690.418 362.26 692.038 362.26C693.378 362.26 694.258 361.74 694.538 360.8H696.798C696.378 362.96 694.578 364.26 691.998 364.26ZM691.938 355.82C690.498 355.82 689.618 356.6 689.378 358.08H694.338C694.338 356.72 693.398 355.82 691.938 355.82ZM704.911 354.08V356.34H704.011C702.251 356.34 701.151 357.28 701.151 359.2V364H698.711V354.14H701.011L701.151 355.58C701.571 354.6 702.511 353.94 703.831 353.94C704.171 353.94 704.511 353.98 704.911 354.08ZM705.651 359.04C705.651 355.98 707.671 353.82 710.591 353.82C713.291 353.82 715.131 355.32 715.391 357.7H712.951C712.671 356.58 711.851 356 710.691 356C709.131 356 708.091 357.18 708.091 359.04C708.091 360.9 709.051 362.06 710.611 362.06C711.831 362.06 712.691 361.46 712.951 360.38H715.411C715.111 362.68 713.191 364.26 710.611 364.26C707.611 364.26 705.651 362.18 705.651 359.04ZM723.927 354.12H726.367V364H724.107L723.927 362.68C723.327 363.62 722.047 364.26 720.727 364.26C718.447 364.26 717.107 362.72 717.107 360.3V354.12H719.547V359.44C719.547 361.32 720.287 362.08 721.647 362.08C723.187 362.08 723.927 361.18 723.927 359.3V354.12ZM735.087 354.08V356.34H734.187C732.427 356.34 731.327 357.28 731.327 359.2V364H728.887V354.14H731.187L731.327 355.58C731.747 354.6 732.687 353.94 734.007 353.94C734.347 353.94 734.687 353.98 735.087 354.08ZM736.171 368.58V366.54H737.631C738.591 366.54 739.191 366.32 739.611 365.16L739.891 364.42L735.911 354.12H738.491L741.031 361.32L743.711 354.12H746.231L741.391 366.2C740.651 368.04 739.611 368.8 737.991 368.8C737.311 368.8 736.711 368.72 736.171 368.58Z" fill="white"/>
</g>
</g>
<g id="0_TEXT">
<path id="Asthma" d="M1075.88 217H1073.22L1078.5 202.38H1081.12L1086.4 217H1083.7L1082.52 213.62H1077.06L1075.88 217ZM1079.48 206.74L1077.82 211.46H1081.78L1080.1 206.74C1079.98 206.36 1079.84 205.92 1079.8 205.62C1079.74 205.9 1079.62 206.34 1079.48 206.74ZM1087.31 214H1089.63C1089.65 214.86 1090.29 215.4 1091.41 215.4C1092.55 215.4 1093.17 214.94 1093.17 214.22C1093.17 213.72 1092.91 213.36 1092.03 213.16L1090.25 212.74C1088.47 212.34 1087.61 211.5 1087.61 209.92C1087.61 207.98 1089.25 206.82 1091.53 206.82C1093.75 206.82 1095.25 208.1 1095.27 210.02H1092.95C1092.93 209.18 1092.37 208.64 1091.43 208.64C1090.47 208.64 1089.91 209.08 1089.91 209.82C1089.91 210.38 1090.35 210.74 1091.19 210.94L1092.97 211.36C1094.63 211.74 1095.47 212.5 1095.47 214.02C1095.47 216.02 1093.77 217.26 1091.33 217.26C1088.87 217.26 1087.31 215.94 1087.31 214ZM1100.89 217H1098.45V209.16H1096.55V207.12H1098.45V204.04H1100.89V207.12H1102.81V209.16H1100.89V217ZM1106.97 217H1104.53V202.12H1106.99V208.4C1107.61 207.44 1108.77 206.82 1110.19 206.82C1112.63 206.82 1113.91 208.36 1113.91 210.92V217H1111.47V211.5C1111.47 209.84 1110.65 209.04 1109.41 209.04C1107.87 209.04 1106.97 210.12 1106.97 211.6V217ZM1118.95 217H1116.51V207.12H1118.75L1118.95 208.28C1119.45 207.46 1120.45 206.82 1121.87 206.82C1123.37 206.82 1124.41 207.56 1124.93 208.7C1125.43 207.56 1126.59 206.82 1128.09 206.82C1130.49 206.82 1131.81 208.26 1131.81 210.54V217H1129.39V211.18C1129.39 209.76 1128.63 209.02 1127.47 209.02C1126.29 209.02 1125.39 209.78 1125.39 211.4V217H1122.95V211.16C1122.95 209.78 1122.21 209.04 1121.05 209.04C1119.89 209.04 1118.95 209.8 1118.95 211.4V217ZM1137.34 217.26C1135.24 217.26 1133.96 216.04 1133.96 214.18C1133.96 212.36 1135.28 211.22 1137.62 211.04L1140.58 210.82V210.6C1140.58 209.26 1139.78 208.72 1138.54 208.72C1137.1 208.72 1136.3 209.32 1136.3 210.36H1134.22C1134.22 208.22 1135.98 206.82 1138.66 206.82C1141.32 206.82 1142.96 208.26 1142.96 211V217H1140.82L1140.64 215.54C1140.22 216.56 1138.88 217.26 1137.34 217.26ZM1138.14 215.42C1139.64 215.42 1140.6 214.52 1140.6 213V212.48L1138.54 212.64C1137.02 212.78 1136.44 213.28 1136.44 214.08C1136.44 214.98 1137.04 215.42 1138.14 215.42Z" fill="black"/>
<path id="Vector 2249_2" d="M968 210L1066 210" stroke="black" stroke-width="3" stroke-linecap="round"/>
<g id="B_PHTHALATES">
<rect id="Rectangle 4863" x="1073" y="225" width="146" height="27.5" rx="13.75" fill="#9B9B9B"/>
<path id="text_2" d="M1104.89 240.96H1101.67V246H1099.11V231.38H1104.89C1107.83 231.38 1109.73 233.3 1109.73 236.16C1109.73 238.98 1107.81 240.96 1104.89 240.96ZM1104.39 233.66H1101.67V238.68H1104.35C1106.11 238.68 1107.05 237.74 1107.05 236.14C1107.05 234.54 1106.09 233.66 1104.39 233.66ZM1113.97 246H1111.53V231.12H1113.99V237.4C1114.61 236.44 1115.77 235.82 1117.19 235.82C1119.63 235.82 1120.91 237.36 1120.91 239.92V246H1118.47V240.5C1118.47 238.84 1117.65 238.04 1116.41 238.04C1114.87 238.04 1113.97 239.12 1113.97 240.6V246ZM1126.66 246H1124.22V238.16H1122.32V236.12H1124.22V233.04H1126.66V236.12H1128.58V238.16H1126.66V246ZM1132.54 246H1130.1V231.12H1132.56V237.4C1133.18 236.44 1134.34 235.82 1135.76 235.82C1138.2 235.82 1139.48 237.36 1139.48 239.92V246H1137.04V240.5C1137.04 238.84 1136.22 238.04 1134.98 238.04C1133.44 238.04 1132.54 239.12 1132.54 240.6V246ZM1144.82 246.26C1142.72 246.26 1141.44 245.04 1141.44 243.18C1141.44 241.36 1142.76 240.22 1145.1 240.04L1148.06 239.82V239.6C1148.06 238.26 1147.26 237.72 1146.02 237.72C1144.58 237.72 1143.78 238.32 1143.78 239.36H1141.7C1141.7 237.22 1143.46 235.82 1146.14 235.82C1148.8 235.82 1150.44 237.26 1150.44 240V246H1148.3L1148.12 244.54C1147.7 245.56 1146.36 246.26 1144.82 246.26ZM1145.62 244.42C1147.12 244.42 1148.08 243.52 1148.08 242V241.48L1146.02 241.64C1144.5 241.78 1143.92 242.28 1143.92 243.08C1143.92 243.98 1144.52 244.42 1145.62 244.42ZM1155.3 246H1152.88V231.12H1155.3V246ZM1160.8 246.26C1158.7 246.26 1157.42 245.04 1157.42 243.18C1157.42 241.36 1158.74 240.22 1161.08 240.04L1164.04 239.82V239.6C1164.04 238.26 1163.24 237.72 1162 237.72C1160.56 237.72 1159.76 238.32 1159.76 239.36H1157.68C1157.68 237.22 1159.44 235.82 1162.12 235.82C1164.78 235.82 1166.42 237.26 1166.42 240V246H1164.28L1164.1 244.54C1163.68 245.56 1162.34 246.26 1160.8 246.26ZM1161.6 244.42C1163.1 244.42 1164.06 243.52 1164.06 242V241.48L1162 241.64C1160.48 241.78 1159.9 242.28 1159.9 243.08C1159.9 243.98 1160.5 244.42 1161.6 244.42ZM1172.04 246H1169.6V238.16H1167.7V236.12H1169.6V233.04H1172.04V236.12H1173.96V238.16H1172.04V246ZM1179.8 246.26C1176.86 246.26 1174.8 244.12 1174.8 241.06C1174.8 237.96 1176.82 235.82 1179.72 235.82C1182.68 235.82 1184.56 237.8 1184.56 240.88V241.62L1177.12 241.64C1177.3 243.38 1178.22 244.26 1179.84 244.26C1181.18 244.26 1182.06 243.74 1182.34 242.8H1184.6C1184.18 244.96 1182.38 246.26 1179.8 246.26ZM1179.74 237.82C1178.3 237.82 1177.42 238.6 1177.18 240.08H1182.14C1182.14 238.72 1181.2 237.82 1179.74 237.82ZM1185.75 243H1188.07C1188.09 243.86 1188.73 244.4 1189.85 244.4C1190.99 244.4 1191.61 243.94 1191.61 243.22C1191.61 242.72 1191.35 242.36 1190.47 242.16L1188.69 241.74C1186.91 241.34 1186.05 240.5 1186.05 238.92C1186.05 236.98 1187.69 235.82 1189.97 235.82C1192.19 235.82 1193.69 237.1 1193.71 239.02H1191.39C1191.37 238.18 1190.81 237.64 1189.87 237.64C1188.91 237.64 1188.35 238.08 1188.35 238.82C1188.35 239.38 1188.79 239.74 1189.63 239.94L1191.41 240.36C1193.07 240.74 1193.91 241.5 1193.91 243.02C1193.91 245.02 1192.21 246.26 1189.77 246.26C1187.31 246.26 1185.75 244.94 1185.75 243Z" fill="white"/>
</g>
</g>
<g id="centroids">
<circle id="0_DOT" cx="958.555" cy="210.651" r="3.2342" fill="#FF0000"/>
<circle id="1_DOT" cx="941.305" cy="330.316" r="3.2342" fill="#FF0000"/>
</g>
</g>
</svg>
