<svg width="1920" height="1080" viewBox="0 0 1920 1080" fill="none" xmlns="http://www.w3.org/2000/svg">
<g id="ASSET ANIMATION D7 Immune System  Effects">
<g id="2_TEXT">
<path id="Immunotoxicity" d="M1070.74 217.107V231.727H1068.18V217.107H1070.74ZM1076.26 231.727H1073.82V221.847H1076.06L1076.26 223.007C1076.76 222.187 1077.76 221.547 1079.18 221.547C1080.68 221.547 1081.72 222.287 1082.24 223.427C1082.74 222.287 1083.9 221.547 1085.4 221.547C1087.8 221.547 1089.12 222.987 1089.12 225.267V231.727H1086.7V225.907C1086.7 224.487 1085.94 223.747 1084.78 223.747C1083.6 223.747 1082.7 224.507 1082.7 226.127V231.727H1080.26V225.887C1080.26 224.507 1079.52 223.767 1078.36 223.767C1077.2 223.767 1076.26 224.527 1076.26 226.127V231.727ZM1094.16 231.727H1091.72V221.847H1093.96L1094.16 223.007C1094.66 222.187 1095.66 221.547 1097.08 221.547C1098.58 221.547 1099.62 222.287 1100.14 223.427C1100.64 222.287 1101.8 221.547 1103.3 221.547C1105.7 221.547 1107.02 222.987 1107.02 225.267V231.727H1104.6V225.907C1104.6 224.487 1103.84 223.747 1102.68 223.747C1101.5 223.747 1100.6 224.507 1100.6 226.127V231.727H1098.16V225.887C1098.16 224.507 1097.42 223.767 1096.26 223.767C1095.1 223.767 1094.16 224.527 1094.16 226.127V231.727ZM1116.31 221.847H1118.75V231.727H1116.49L1116.31 230.407C1115.71 231.347 1114.43 231.987 1113.11 231.987C1110.83 231.987 1109.49 230.447 1109.49 228.027V221.847H1111.93V227.167C1111.93 229.047 1112.67 229.807 1114.03 229.807C1115.57 229.807 1116.31 228.907 1116.31 227.027V221.847ZM1123.91 231.727H1121.47V221.847H1123.73L1123.93 223.127C1124.55 222.127 1125.75 221.547 1127.09 221.547C1129.57 221.547 1130.85 223.087 1130.85 225.647V231.727H1128.41V226.227C1128.41 224.567 1127.59 223.767 1126.33 223.767C1124.83 223.767 1123.91 224.807 1123.91 226.407V231.727ZM1132.87 226.767C1132.87 223.687 1135.09 221.567 1138.15 221.567C1141.21 221.567 1143.43 223.687 1143.43 226.767C1143.43 229.847 1141.21 231.967 1138.15 231.967C1135.09 231.967 1132.87 229.847 1132.87 226.767ZM1135.31 226.767C1135.31 228.567 1136.47 229.787 1138.15 229.787C1139.83 229.787 1140.99 228.567 1140.99 226.767C1140.99 224.967 1139.83 223.747 1138.15 223.747C1136.47 223.747 1135.31 224.967 1135.31 226.767ZM1148.83 231.727H1146.39V223.887H1144.49V221.847H1146.39V218.767H1148.83V221.847H1150.75V223.887H1148.83V231.727ZM1151.79 226.767C1151.79 223.687 1154.01 221.567 1157.07 221.567C1160.13 221.567 1162.35 223.687 1162.35 226.767C1162.35 229.847 1160.13 231.967 1157.07 231.967C1154.01 231.967 1151.79 229.847 1151.79 226.767ZM1154.23 226.767C1154.23 228.567 1155.39 229.787 1157.07 229.787C1158.75 229.787 1159.91 228.567 1159.91 226.767C1159.91 224.967 1158.75 223.747 1157.07 223.747C1155.39 223.747 1154.23 224.967 1154.23 226.767ZM1165.75 231.727H1162.97L1166.37 226.887L1162.97 221.847H1165.81L1167.99 225.207L1170.09 221.847H1172.83L1169.47 226.847L1172.73 231.727H1169.93L1167.83 228.467L1165.75 231.727ZM1175.71 219.867C1174.87 219.867 1174.21 219.207 1174.21 218.387C1174.21 217.567 1174.87 216.927 1175.71 216.927C1176.51 216.927 1177.17 217.567 1177.17 218.387C1177.17 219.207 1176.51 219.867 1175.71 219.867ZM1174.49 231.727V221.847H1176.93V231.727H1174.49ZM1179.07 226.767C1179.07 223.707 1181.09 221.547 1184.01 221.547C1186.71 221.547 1188.55 223.047 1188.81 225.427H1186.37C1186.09 224.307 1185.27 223.727 1184.11 223.727C1182.55 223.727 1181.51 224.907 1181.51 226.767C1181.51 228.627 1182.47 229.787 1184.03 229.787C1185.25 229.787 1186.11 229.187 1186.37 228.107H1188.83C1188.53 230.407 1186.61 231.987 1184.03 231.987C1181.03 231.987 1179.07 229.907 1179.07 226.767ZM1192.06 219.867C1191.22 219.867 1190.56 219.207 1190.56 218.387C1190.56 217.567 1191.22 216.927 1192.06 216.927C1192.86 216.927 1193.52 217.567 1193.52 218.387C1193.52 219.207 1192.86 219.867 1192.06 219.867ZM1190.84 231.727V221.847H1193.28V231.727H1190.84ZM1199.36 231.727H1196.92V223.887H1195.02V221.847H1196.92V218.767H1199.36V221.847H1201.28V223.887H1199.36V231.727ZM1202.14 236.307V234.267H1203.6C1204.56 234.267 1205.16 234.047 1205.58 232.887L1205.86 232.147L1201.88 221.847H1204.46L1207 229.047L1209.68 221.847H1212.2L1207.36 233.927C1206.62 235.767 1205.58 236.527 1203.96 236.527C1203.28 236.527 1202.68 236.447 1202.14 236.307Z" fill="black"/>
<path id="Vector 2249" d="M961.562 224.727L1059.56 224.727" stroke="black" stroke-width="3" stroke-linecap="round"/>
<g id="B_PFASs">
<rect id="Rectangle 4860" x="1064.56" y="240.727" width="111" height="27.5" rx="13.75" fill="#E45C4D"/>
<path id="text" d="M1098.5 256.687H1095.28V261.727H1092.72V247.107H1098.5C1101.44 247.107 1103.34 249.027 1103.34 251.887C1103.34 254.707 1101.42 256.687 1098.5 256.687ZM1098 249.387H1095.28V254.407H1097.96C1099.72 254.407 1100.66 253.467 1100.66 251.867C1100.66 250.267 1099.7 249.387 1098 249.387ZM1113.49 255.747H1108.05V261.727H1105.49V247.107H1114.53V249.467H1108.05V253.447H1113.49V255.747ZM1117.2 261.727H1114.54L1119.82 247.107H1122.44L1127.72 261.727H1125.02L1123.84 258.347H1118.38L1117.2 261.727ZM1120.8 251.467L1119.14 256.187H1123.1L1121.42 251.467C1121.3 251.087 1121.16 250.647 1121.12 250.347C1121.06 250.627 1120.94 251.067 1120.8 251.467ZM1128.71 251.187C1128.71 248.627 1130.83 246.847 1133.91 246.847C1136.87 246.847 1138.75 248.487 1138.83 251.127H1136.27C1136.21 249.867 1135.31 249.127 1133.87 249.127C1132.29 249.127 1131.27 249.887 1131.27 251.107C1131.27 252.147 1131.83 252.727 1133.05 253.007L1135.35 253.507C1137.85 254.047 1139.07 255.327 1139.07 257.507C1139.07 260.227 1136.95 261.987 1133.73 261.987C1130.61 261.987 1128.57 260.327 1128.51 257.707H1131.07C1131.09 258.947 1132.09 259.687 1133.73 259.687C1135.43 259.687 1136.51 258.947 1136.51 257.727C1136.51 256.747 1136.01 256.167 1134.81 255.907L1132.49 255.387C1130.01 254.847 1128.71 253.427 1128.71 251.187ZM1140.27 258.727H1142.59C1142.61 259.587 1143.25 260.127 1144.37 260.127C1145.51 260.127 1146.13 259.667 1146.13 258.947C1146.13 258.447 1145.87 258.087 1144.99 257.887L1143.21 257.467C1141.43 257.067 1140.57 256.227 1140.57 254.647C1140.57 252.707 1142.21 251.547 1144.49 251.547C1146.71 251.547 1148.21 252.827 1148.23 254.747H1145.91C1145.89 253.907 1145.33 253.367 1144.39 253.367C1143.43 253.367 1142.87 253.807 1142.87 254.547C1142.87 255.107 1143.31 255.467 1144.15 255.667L1145.93 256.087C1147.59 256.467 1148.43 257.227 1148.43 258.747C1148.43 260.747 1146.73 261.987 1144.29 261.987C1141.83 261.987 1140.27 260.667 1140.27 258.727Z" fill="white"/>
</g>
</g>
<g id="3_TEXT">
<path id="Immunodevelopment effects" d="M585.821 232.986V247.606H583.261V232.986H585.821ZM591.341 247.606H588.901V237.726H591.141L591.341 238.886C591.841 238.066 592.841 237.426 594.261 237.426C595.761 237.426 596.801 238.166 597.321 239.306C597.821 238.166 598.981 237.426 600.481 237.426C602.881 237.426 604.201 238.866 604.201 241.146V247.606H601.781V241.786C601.781 240.366 601.021 239.626 599.861 239.626C598.681 239.626 597.781 240.386 597.781 242.006V247.606H595.341V241.766C595.341 240.386 594.601 239.646 593.441 239.646C592.281 239.646 591.341 240.406 591.341 242.006V247.606ZM609.237 247.606H606.797V237.726H609.037L609.237 238.886C609.737 238.066 610.737 237.426 612.157 237.426C613.657 237.426 614.697 238.166 615.217 239.306C615.717 238.166 616.877 237.426 618.377 237.426C620.777 237.426 622.097 238.866 622.097 241.146V247.606H619.677V241.786C619.677 240.366 618.917 239.626 617.757 239.626C616.577 239.626 615.677 240.386 615.677 242.006V247.606H613.237V241.766C613.237 240.386 612.497 239.646 611.337 239.646C610.177 239.646 609.237 240.406 609.237 242.006V247.606ZM631.392 237.726H633.832V247.606H631.572L631.392 246.286C630.792 247.226 629.512 247.866 628.192 247.866C625.912 247.866 624.572 246.326 624.572 243.906V237.726H627.012V243.046C627.012 244.926 627.752 245.686 629.112 245.686C630.652 245.686 631.392 244.786 631.392 242.906V237.726ZM638.992 247.606H636.552V237.726H638.812L639.012 239.006C639.632 238.006 640.832 237.426 642.172 237.426C644.652 237.426 645.932 238.966 645.932 241.526V247.606H643.492V242.106C643.492 240.446 642.672 239.646 641.412 239.646C639.912 239.646 638.992 240.686 638.992 242.286V247.606ZM647.95 242.646C647.95 239.566 650.17 237.446 653.23 237.446C656.29 237.446 658.51 239.566 658.51 242.646C658.51 245.726 656.29 247.846 653.23 247.846C650.17 247.846 647.95 245.726 647.95 242.646ZM650.39 242.646C650.39 244.446 651.55 245.666 653.23 245.666C654.91 245.666 656.07 244.446 656.07 242.646C656.07 240.846 654.91 239.626 653.23 239.626C651.55 239.626 650.39 240.846 650.39 242.646ZM664.704 247.866C661.844 247.866 660.064 245.766 660.064 242.706C660.064 239.626 661.864 237.426 664.844 237.426C666.224 237.426 667.444 238.006 668.064 238.986V232.726H670.484V247.606H668.244L668.084 246.066C667.484 247.206 666.204 247.866 664.704 247.866ZM665.244 245.626C666.944 245.626 668.044 244.406 668.044 242.626C668.044 240.846 666.944 239.606 665.244 239.606C663.544 239.606 662.504 240.866 662.504 242.626C662.504 244.386 663.544 245.626 665.244 245.626ZM677.646 247.866C674.706 247.866 672.646 245.726 672.646 242.666C672.646 239.566 674.666 237.426 677.566 237.426C680.526 237.426 682.406 239.406 682.406 242.486V243.226L674.966 243.246C675.146 244.986 676.066 245.866 677.686 245.866C679.026 245.866 679.906 245.346 680.186 244.406H682.446C682.026 246.566 680.226 247.866 677.646 247.866ZM677.586 239.426C676.146 239.426 675.266 240.206 675.026 241.686H679.986C679.986 240.326 679.046 239.426 677.586 239.426ZM686.93 247.606L683.01 237.726H685.61L687.33 242.266C687.75 243.446 688.09 244.466 688.21 245.006C688.35 244.386 688.71 243.346 689.13 242.266L690.93 237.726H693.45L689.33 247.606H686.93ZM698.984 247.866C696.044 247.866 693.984 245.726 693.984 242.666C693.984 239.566 696.004 237.426 698.904 237.426C701.864 237.426 703.744 239.406 703.744 242.486V243.226L696.304 243.246C696.484 244.986 697.404 245.866 699.024 245.866C700.364 245.866 701.244 245.346 701.524 244.406H703.784C703.364 246.566 701.564 247.866 698.984 247.866ZM698.924 239.426C697.484 239.426 696.604 240.206 696.364 241.686H701.324C701.324 240.326 700.384 239.426 698.924 239.426ZM708.357 247.606H705.937V232.726H708.357V247.606ZM710.536 242.646C710.536 239.566 712.756 237.446 715.816 237.446C718.876 237.446 721.096 239.566 721.096 242.646C721.096 245.726 718.876 247.846 715.816 247.846C712.756 247.846 710.536 245.726 710.536 242.646ZM712.976 242.646C712.976 244.446 714.136 245.666 715.816 245.666C717.496 245.666 718.656 244.446 718.656 242.646C718.656 240.846 717.496 239.626 715.816 239.626C714.136 239.626 712.976 240.846 712.976 242.646ZM723.23 252.186V237.726H725.49L725.65 239.226C726.25 238.086 727.55 237.426 729.05 237.426C731.83 237.426 733.67 239.446 733.67 242.546C733.67 245.626 731.99 247.866 729.05 247.866C727.57 247.866 726.29 247.286 725.67 246.286V252.186H723.23ZM725.69 242.666C725.69 244.446 726.79 245.666 728.47 245.666C730.19 245.666 731.21 244.426 731.21 242.666C731.21 240.906 730.19 239.646 728.47 239.646C726.79 239.646 725.69 240.886 725.69 242.666ZM738.253 247.606H735.813V237.726H738.053L738.253 238.886C738.753 238.066 739.753 237.426 741.173 237.426C742.673 237.426 743.713 238.166 744.233 239.306C744.733 238.166 745.893 237.426 747.393 237.426C749.793 237.426 751.113 238.866 751.113 241.146V247.606H748.693V241.786C748.693 240.366 747.933 239.626 746.773 239.626C745.593 239.626 744.693 240.386 744.693 242.006V247.606H742.253V241.766C742.253 240.386 741.513 239.646 740.353 239.646C739.193 239.646 738.253 240.406 738.253 242.006V247.606ZM758.128 247.866C755.188 247.866 753.128 245.726 753.128 242.666C753.128 239.566 755.148 237.426 758.048 237.426C761.008 237.426 762.888 239.406 762.888 242.486V243.226L755.448 243.246C755.628 244.986 756.548 245.866 758.168 245.866C759.508 245.866 760.388 245.346 760.668 244.406H762.928C762.508 246.566 760.708 247.866 758.128 247.866ZM758.068 239.426C756.628 239.426 755.748 240.206 755.508 241.686H760.468C760.468 240.326 759.528 239.426 758.068 239.426ZM767.481 247.606H765.041V237.726H767.301L767.501 239.006C768.121 238.006 769.321 237.426 770.661 237.426C773.141 237.426 774.421 238.966 774.421 241.526V247.606H771.981V242.106C771.981 240.446 771.161 239.646 769.901 239.646C768.401 239.646 767.481 240.686 767.481 242.286V247.606ZM780.379 247.606H777.939V239.766H776.039V237.726H777.939V234.646H780.379V237.726H782.299V239.766H780.379V247.606ZM794.026 247.866C791.086 247.866 789.026 245.726 789.026 242.666C789.026 239.566 791.046 237.426 793.946 237.426C796.906 237.426 798.786 239.406 798.786 242.486V243.226L791.346 243.246C791.526 244.986 792.446 245.866 794.066 245.866C795.406 245.866 796.286 245.346 796.566 244.406H798.826C798.406 246.566 796.606 247.866 794.026 247.866ZM793.966 239.426C792.526 239.426 791.646 240.206 791.406 241.686H796.366C796.366 240.326 795.426 239.426 793.966 239.426ZM799.959 237.726H801.379V236.526C801.379 233.846 802.779 232.726 804.919 232.726C805.299 232.726 805.759 232.746 806.179 232.826V234.906H805.319C804.079 234.906 803.799 235.546 803.799 236.526V237.726H807.839V236.526C807.839 233.846 809.239 232.726 811.379 232.726C811.779 232.726 812.219 232.746 812.639 232.826V234.906H811.799C810.559 234.906 810.259 235.546 810.259 236.526V237.726H812.619V239.766H810.259V247.606H807.839V239.766H803.799V247.606H801.379V239.766H799.959V237.726ZM818.508 247.866C815.568 247.866 813.508 245.726 813.508 242.666C813.508 239.566 815.528 237.426 818.428 237.426C821.388 237.426 823.268 239.406 823.268 242.486V243.226L815.828 243.246C816.008 244.986 816.928 245.866 818.548 245.866C819.888 245.866 820.768 245.346 821.048 244.406H823.308C822.888 246.566 821.088 247.866 818.508 247.866ZM818.448 239.426C817.008 239.426 816.128 240.206 815.888 241.686H820.848C820.848 240.326 819.908 239.426 818.448 239.426ZM824.841 242.646C824.841 239.586 826.861 237.426 829.781 237.426C832.481 237.426 834.321 238.926 834.581 241.306H832.141C831.861 240.186 831.041 239.606 829.881 239.606C828.321 239.606 827.281 240.786 827.281 242.646C827.281 244.506 828.241 245.666 829.801 245.666C831.021 245.666 831.881 245.066 832.141 243.986H834.601C834.301 246.286 832.381 247.866 829.801 247.866C826.801 247.866 824.841 245.786 824.841 242.646ZM839.977 247.606H837.537V239.766H835.637V237.726H837.537V234.646H839.977V237.726H841.897V239.766H839.977V247.606ZM842.854 244.606H845.174C845.194 245.466 845.834 246.006 846.954 246.006C848.094 246.006 848.714 245.546 848.714 244.826C848.714 244.326 848.454 243.966 847.574 243.766L845.794 243.346C844.014 242.946 843.154 242.106 843.154 240.526C843.154 238.586 844.794 237.426 847.074 237.426C849.294 237.426 850.794 238.706 850.814 240.626H848.494C848.474 239.786 847.914 239.246 846.974 239.246C846.014 239.246 845.454 239.686 845.454 240.426C845.454 240.986 845.894 241.346 846.734 241.546L848.514 241.966C850.174 242.346 851.014 243.106 851.014 244.626C851.014 246.626 849.314 247.866 846.874 247.866C844.414 247.866 842.854 246.546 842.854 244.606Z" fill="black"/>
<path id="Vector 2249_2" d="M949.516 242.616H861.641" stroke="black" stroke-width="3" stroke-linecap="round"/>
<g id="B_BISPHENOL">
<rect id="Rectangle 4860_2" x="581.641" y="257.606" width="146" height="28" rx="14" fill="#D7B040"/>
<path id="text_2" d="M610.636 278.606V263.986H616.456C619.336 263.986 621.096 265.486 621.096 267.926C621.096 269.546 620.376 270.706 618.996 271.286C620.536 271.786 621.316 272.946 621.316 274.646C621.316 277.146 619.576 278.606 616.556 278.606H610.636ZM616.236 266.246H613.196V270.226H616.296C617.696 270.226 618.476 269.486 618.476 268.186C618.476 266.926 617.676 266.246 616.236 266.246ZM616.456 272.386H613.196V276.346H616.456C617.896 276.346 618.696 275.646 618.696 274.326C618.696 273.086 617.876 272.386 616.456 272.386ZM624.523 266.746C623.683 266.746 623.023 266.086 623.023 265.266C623.023 264.446 623.683 263.806 624.523 263.806C625.323 263.806 625.983 264.446 625.983 265.266C625.983 266.086 625.323 266.746 624.523 266.746ZM623.303 278.606V268.726H625.743V278.606H623.303ZM627.504 275.606H629.824C629.844 276.466 630.484 277.006 631.604 277.006C632.744 277.006 633.364 276.546 633.364 275.826C633.364 275.326 633.104 274.966 632.224 274.766L630.444 274.346C628.664 273.946 627.804 273.106 627.804 271.526C627.804 269.586 629.444 268.426 631.724 268.426C633.944 268.426 635.444 269.706 635.464 271.626H633.144C633.124 270.786 632.564 270.246 631.624 270.246C630.664 270.246 630.104 270.686 630.104 271.426C630.104 271.986 630.544 272.346 631.384 272.546L633.164 272.966C634.824 273.346 635.664 274.106 635.664 275.626C635.664 277.626 633.964 278.866 631.524 278.866C629.064 278.866 627.504 277.546 627.504 275.606ZM637.522 283.186V268.726H639.782L639.942 270.226C640.542 269.086 641.842 268.426 643.342 268.426C646.122 268.426 647.962 270.446 647.962 273.546C647.962 276.626 646.282 278.866 643.342 278.866C641.862 278.866 640.582 278.286 639.962 277.286V283.186H637.522ZM639.982 273.666C639.982 275.446 641.082 276.666 642.762 276.666C644.482 276.666 645.502 275.426 645.502 273.666C645.502 271.906 644.482 270.646 642.762 270.646C641.082 270.646 639.982 271.886 639.982 273.666ZM652.345 278.606H649.905V263.726H652.365V270.006C652.985 269.046 654.145 268.426 655.565 268.426C658.005 268.426 659.285 269.966 659.285 272.526V278.606H656.845V273.106C656.845 271.446 656.025 270.646 654.785 270.646C653.245 270.646 652.345 271.726 652.345 273.206V278.606ZM666.102 278.866C663.162 278.866 661.102 276.726 661.102 273.666C661.102 270.566 663.122 268.426 666.022 268.426C668.982 268.426 670.862 270.406 670.862 273.486V274.226L663.422 274.246C663.602 275.986 664.522 276.866 666.142 276.866C667.482 276.866 668.362 276.346 668.642 275.406H670.902C670.482 277.566 668.682 278.866 666.102 278.866ZM666.042 270.426C664.602 270.426 663.722 271.206 663.482 272.686H668.442C668.442 271.326 667.502 270.426 666.042 270.426ZM675.255 278.606H672.815V268.726H675.075L675.275 270.006C675.895 269.006 677.095 268.426 678.435 268.426C680.915 268.426 682.195 269.966 682.195 272.526V278.606H679.755V273.106C679.755 271.446 678.935 270.646 677.675 270.646C676.175 270.646 675.255 271.686 675.255 273.286V278.606ZM684.012 273.646C684.012 270.566 686.232 268.446 689.292 268.446C692.352 268.446 694.572 270.566 694.572 273.646C694.572 276.726 692.352 278.846 689.292 278.846C686.232 278.846 684.012 276.726 684.012 273.646ZM686.452 273.646C686.452 275.446 687.612 276.666 689.292 276.666C690.972 276.666 692.132 275.446 692.132 273.646C692.132 271.846 690.972 270.626 689.292 270.626C687.612 270.626 686.452 271.846 686.452 273.646ZM698.966 278.606H696.546V263.726H698.966V278.606Z" fill="white"/>
</g>
</g>

<g id="centroids">
<circle id="2_DOT" cx="951.008" cy="224.665" r="3.2342" fill="#FF0000"/>
<circle id="3_DOT" cx="957.476" cy="242.993" r="3.2342" fill="#FF0000"/>
</g>
</g>
</svg>
