<svg width="1920" height="1080" viewBox="0 0 1920 1080" fill="none" xmlns="http://www.w3.org/2000/svg">
<g id="ASSET ANIMATION D2 Neurological  &#38; Neuro-developmental  Effects">
<g id="3_TEXT">
<path id="Neurodevelopment effects (BPA)" d="M536.14 200H533.62V185.38H536.16L543.02 195.74V185.38H545.54V200H543.02L536.14 189.64V200ZM553.036 200.26C550.096 200.26 548.036 198.12 548.036 195.06C548.036 191.96 550.056 189.82 552.956 189.82C555.916 189.82 557.796 191.8 557.796 194.88V195.62L550.356 195.64C550.536 197.38 551.456 198.26 553.076 198.26C554.416 198.26 555.296 197.74 555.576 196.8H557.836C557.416 198.96 555.616 200.26 553.036 200.26ZM552.976 191.82C551.536 191.82 550.656 192.6 550.416 194.08H555.376C555.376 192.72 554.436 191.82 552.976 191.82ZM566.649 190.12H569.089V200H566.829L566.649 198.68C566.049 199.62 564.769 200.26 563.449 200.26C561.169 200.26 559.829 198.72 559.829 196.3V190.12H562.269V195.44C562.269 197.32 563.009 198.08 564.369 198.08C565.909 198.08 566.649 197.18 566.649 195.3V190.12ZM578.009 190.08V192.34H577.109C575.349 192.34 574.249 193.28 574.249 195.2V200H571.809V190.14H574.109L574.249 191.58C574.669 190.6 575.609 189.94 576.929 189.94C577.269 189.94 577.609 189.98 578.009 190.08ZM578.949 195.04C578.949 191.96 581.169 189.84 584.229 189.84C587.289 189.84 589.509 191.96 589.509 195.04C589.509 198.12 587.289 200.24 584.229 200.24C581.169 200.24 578.949 198.12 578.949 195.04ZM581.389 195.04C581.389 196.84 582.549 198.06 584.229 198.06C585.909 198.06 587.069 196.84 587.069 195.04C587.069 193.24 585.909 192.02 584.229 192.02C582.549 192.02 581.389 193.24 581.389 195.04ZM595.703 200.26C592.843 200.26 591.063 198.16 591.063 195.1C591.063 192.02 592.863 189.82 595.843 189.82C597.223 189.82 598.443 190.4 599.063 191.38V185.12H601.483V200H599.243L599.083 198.46C598.483 199.6 597.203 200.26 595.703 200.26ZM596.243 198.02C597.943 198.02 599.043 196.8 599.043 195.02C599.043 193.24 597.943 192 596.243 192C594.543 192 593.503 193.26 593.503 195.02C593.503 196.78 594.543 198.02 596.243 198.02ZM608.646 200.26C605.706 200.26 603.646 198.12 603.646 195.06C603.646 191.96 605.666 189.82 608.566 189.82C611.526 189.82 613.406 191.8 613.406 194.88V195.62L605.966 195.64C606.146 197.38 607.066 198.26 608.686 198.26C610.026 198.26 610.906 197.74 611.186 196.8H613.446C613.026 198.96 611.226 200.26 608.646 200.26ZM608.586 191.82C607.146 191.82 606.266 192.6 606.026 194.08H610.986C610.986 192.72 610.046 191.82 608.586 191.82ZM617.929 200L614.009 190.12H616.609L618.329 194.66C618.749 195.84 619.089 196.86 619.209 197.4C619.349 196.78 619.709 195.74 620.129 194.66L621.929 190.12H624.449L620.329 200H617.929ZM629.983 200.26C627.043 200.26 624.983 198.12 624.983 195.06C624.983 191.96 627.003 189.82 629.903 189.82C632.863 189.82 634.743 191.8 634.743 194.88V195.62L627.303 195.64C627.483 197.38 628.403 198.26 630.023 198.26C631.363 198.26 632.243 197.74 632.523 196.8H634.783C634.363 198.96 632.563 200.26 629.983 200.26ZM629.923 191.82C628.483 191.82 627.603 192.6 627.363 194.08H632.323C632.323 192.72 631.383 191.82 629.923 191.82ZM639.356 200H636.936V185.12H639.356V200ZM641.535 195.04C641.535 191.96 643.755 189.84 646.815 189.84C649.875 189.84 652.095 191.96 652.095 195.04C652.095 198.12 649.875 200.24 646.815 200.24C643.755 200.24 641.535 198.12 641.535 195.04ZM643.975 195.04C643.975 196.84 645.135 198.06 646.815 198.06C648.495 198.06 649.655 196.84 649.655 195.04C649.655 193.24 648.495 192.02 646.815 192.02C645.135 192.02 643.975 193.24 643.975 195.04ZM654.23 204.58V190.12H656.49L656.65 191.62C657.25 190.48 658.55 189.82 660.05 189.82C662.83 189.82 664.67 191.84 664.67 194.94C664.67 198.02 662.99 200.26 660.05 200.26C658.57 200.26 657.29 199.68 656.67 198.68V204.58H654.23ZM656.69 195.06C656.69 196.84 657.79 198.06 659.47 198.06C661.19 198.06 662.21 196.82 662.21 195.06C662.21 193.3 661.19 192.04 659.47 192.04C657.79 192.04 656.69 193.28 656.69 195.06ZM669.252 200H666.812V190.12H669.052L669.252 191.28C669.752 190.46 670.752 189.82 672.172 189.82C673.672 189.82 674.712 190.56 675.232 191.7C675.732 190.56 676.892 189.82 678.392 189.82C680.792 189.82 682.112 191.26 682.112 193.54V200H679.692V194.18C679.692 192.76 678.932 192.02 677.772 192.02C676.592 192.02 675.692 192.78 675.692 194.4V200H673.252V194.16C673.252 192.78 672.512 192.04 671.352 192.04C670.192 192.04 669.252 192.8 669.252 194.4V200ZM689.128 200.26C686.188 200.26 684.128 198.12 684.128 195.06C684.128 191.96 686.148 189.82 689.048 189.82C692.008 189.82 693.888 191.8 693.888 194.88V195.62L686.448 195.64C686.628 197.38 687.548 198.26 689.168 198.26C690.508 198.26 691.388 197.74 691.668 196.8H693.928C693.508 198.96 691.708 200.26 689.128 200.26ZM689.068 191.82C687.628 191.82 686.748 192.6 686.508 194.08H691.468C691.468 192.72 690.528 191.82 689.068 191.82ZM698.48 200H696.04V190.12H698.3L698.5 191.4C699.12 190.4 700.32 189.82 701.66 189.82C704.14 189.82 705.42 191.36 705.42 193.92V200H702.98V194.5C702.98 192.84 702.16 192.04 700.9 192.04C699.4 192.04 698.48 193.08 698.48 194.68V200ZM711.378 200H708.938V192.16H707.038V190.12H708.938V187.04H711.378V190.12H713.298V192.16H711.378V200ZM725.025 200.26C722.085 200.26 720.025 198.12 720.025 195.06C720.025 191.96 722.045 189.82 724.945 189.82C727.905 189.82 729.785 191.8 729.785 194.88V195.62L722.345 195.64C722.525 197.38 723.445 198.26 725.065 198.26C726.405 198.26 727.285 197.74 727.565 196.8H729.825C729.405 198.96 727.605 200.26 725.025 200.26ZM724.965 191.82C723.525 191.82 722.645 192.6 722.405 194.08H727.365C727.365 192.72 726.425 191.82 724.965 191.82ZM730.958 190.12H732.378V188.92C732.378 186.24 733.778 185.12 735.918 185.12C736.298 185.12 736.758 185.14 737.178 185.22V187.3H736.318C735.078 187.3 734.798 187.94 734.798 188.92V190.12H738.838V188.92C738.838 186.24 740.238 185.12 742.378 185.12C742.778 185.12 743.218 185.14 743.638 185.22V187.3H742.798C741.558 187.3 741.258 187.94 741.258 188.92V190.12H743.618V192.16H741.258V200H738.838V192.16H734.798V200H732.378V192.16H730.958V190.12ZM749.507 200.26C746.567 200.26 744.507 198.12 744.507 195.06C744.507 191.96 746.527 189.82 749.427 189.82C752.387 189.82 754.267 191.8 754.267 194.88V195.62L746.827 195.64C747.007 197.38 747.927 198.26 749.547 198.26C750.887 198.26 751.767 197.74 752.047 196.8H754.307C753.887 198.96 752.087 200.26 749.507 200.26ZM749.447 191.82C748.007 191.82 747.127 192.6 746.887 194.08H751.847C751.847 192.72 750.907 191.82 749.447 191.82ZM755.84 195.04C755.84 191.98 757.86 189.82 760.78 189.82C763.48 189.82 765.32 191.32 765.58 193.7H763.14C762.86 192.58 762.04 192 760.88 192C759.32 192 758.28 193.18 758.28 195.04C758.28 196.9 759.24 198.06 760.8 198.06C762.02 198.06 762.88 197.46 763.14 196.38H765.6C765.3 198.68 763.38 200.26 760.8 200.26C757.8 200.26 755.84 198.18 755.84 195.04ZM770.976 200H768.536V192.16H766.636V190.12H768.536V187.04H770.976V190.12H772.896V192.16H770.976V200ZM773.853 197H776.173C776.193 197.86 776.833 198.4 777.953 198.4C779.093 198.4 779.713 197.94 779.713 197.22C779.713 196.72 779.453 196.36 778.573 196.16L776.793 195.74C775.013 195.34 774.153 194.5 774.153 192.92C774.153 190.98 775.793 189.82 778.073 189.82C780.293 189.82 781.793 191.1 781.813 193.02H779.493C779.473 192.18 778.913 191.64 777.973 191.64C777.013 191.64 776.453 192.08 776.453 192.82C776.453 193.38 776.893 193.74 777.733 193.94L779.513 194.36C781.173 194.74 782.013 195.5 782.013 197.02C782.013 199.02 780.313 200.26 777.873 200.26C775.413 200.26 773.853 198.94 773.853 197ZM794.562 203.82H792.622C790.622 201.54 789.302 197.96 789.302 194.12C789.302 190.62 790.422 186.94 792.622 184.44H794.562C792.902 186.7 791.762 190.24 791.762 194.12C791.762 197.66 792.742 201.34 794.562 203.82ZM796.374 200V185.38H802.194C805.074 185.38 806.834 186.88 806.834 189.32C806.834 190.94 806.114 192.1 804.734 192.68C806.274 193.18 807.054 194.34 807.054 196.04C807.054 198.54 805.314 200 802.294 200H796.374ZM801.974 187.64H798.934V191.62H802.034C803.434 191.62 804.214 190.88 804.214 189.58C804.214 188.32 803.414 187.64 801.974 187.64ZM802.194 193.78H798.934V197.74H802.194C803.634 197.74 804.434 197.04 804.434 195.72C804.434 194.48 803.614 193.78 802.194 193.78ZM815.381 194.96H812.161V200H809.601V185.38H815.381C818.321 185.38 820.221 187.3 820.221 190.16C820.221 192.98 818.301 194.96 815.381 194.96ZM814.881 187.66H812.161V192.68H814.841C816.601 192.68 817.541 191.74 817.541 190.14C817.541 188.54 816.581 187.66 814.881 187.66ZM823.053 200H820.393L825.673 185.38H828.293L833.573 200H830.873L829.693 196.62H824.233L823.053 200ZM826.653 189.74L824.993 194.46H828.953L827.273 189.74C827.153 189.36 827.013 188.92 826.973 188.62C826.913 188.9 826.793 189.34 826.653 189.74ZM835.927 203.82H833.987C835.827 201.34 836.787 197.66 836.787 194.12C836.787 190.24 835.647 186.7 833.987 184.44H835.927C838.127 186.94 839.267 190.62 839.267 194.12C839.267 197.96 837.927 201.54 835.927 203.82Z" fill="black"/>
<g id="B_BISPHENOL">
<rect id="Rectangle 4860" x="532" y="209" width="146" height="28" rx="14" fill="#D7B040"/>
<path id="text" d="M560.995 230V215.38H566.815C569.695 215.38 571.455 216.88 571.455 219.32C571.455 220.94 570.735 222.1 569.355 222.68C570.895 223.18 571.675 224.34 571.675 226.04C571.675 228.54 569.935 230 566.915 230H560.995ZM566.595 217.64H563.555V221.62H566.655C568.055 221.62 568.835 220.88 568.835 219.58C568.835 218.32 568.035 217.64 566.595 217.64ZM566.815 223.78H563.555V227.74H566.815C568.255 227.74 569.055 227.04 569.055 225.72C569.055 224.48 568.235 223.78 566.815 223.78ZM574.882 218.14C574.042 218.14 573.382 217.48 573.382 216.66C573.382 215.84 574.042 215.2 574.882 215.2C575.682 215.2 576.342 215.84 576.342 216.66C576.342 217.48 575.682 218.14 574.882 218.14ZM573.662 230V220.12H576.102V230H573.662ZM577.863 227H580.183C580.203 227.86 580.843 228.4 581.963 228.4C583.103 228.4 583.723 227.94 583.723 227.22C583.723 226.72 583.463 226.36 582.583 226.16L580.803 225.74C579.023 225.34 578.163 224.5 578.163 222.92C578.163 220.98 579.803 219.82 582.083 219.82C584.303 219.82 585.803 221.1 585.823 223.02H583.503C583.483 222.18 582.923 221.64 581.983 221.64C581.023 221.64 580.463 222.08 580.463 222.82C580.463 223.38 580.903 223.74 581.743 223.94L583.523 224.36C585.183 224.74 586.023 225.5 586.023 227.02C586.023 229.02 584.323 230.26 581.883 230.26C579.423 230.26 577.863 228.94 577.863 227ZM587.881 234.58V220.12H590.141L590.301 221.62C590.901 220.48 592.201 219.82 593.701 219.82C596.481 219.82 598.321 221.84 598.321 224.94C598.321 228.02 596.641 230.26 593.701 230.26C592.221 230.26 590.941 229.68 590.321 228.68V234.58H587.881ZM590.341 225.06C590.341 226.84 591.441 228.06 593.121 228.06C594.841 228.06 595.861 226.82 595.861 225.06C595.861 223.3 594.841 222.04 593.121 222.04C591.441 222.04 590.341 223.28 590.341 225.06ZM602.704 230H600.264V215.12H602.724V221.4C603.344 220.44 604.504 219.82 605.924 219.82C608.364 219.82 609.644 221.36 609.644 223.92V230H607.204V224.5C607.204 222.84 606.384 222.04 605.144 222.04C603.604 222.04 602.704 223.12 602.704 224.6V230ZM616.461 230.26C613.521 230.26 611.461 228.12 611.461 225.06C611.461 221.96 613.481 219.82 616.381 219.82C619.341 219.82 621.221 221.8 621.221 224.88V225.62L613.781 225.64C613.961 227.38 614.881 228.26 616.501 228.26C617.841 228.26 618.721 227.74 619.001 226.8H621.261C620.841 228.96 619.041 230.26 616.461 230.26ZM616.401 221.82C614.961 221.82 614.081 222.6 613.841 224.08H618.801C618.801 222.72 617.861 221.82 616.401 221.82ZM625.614 230H623.174V220.12H625.434L625.634 221.4C626.254 220.4 627.454 219.82 628.794 219.82C631.274 219.82 632.554 221.36 632.554 223.92V230H630.114V224.5C630.114 222.84 629.294 222.04 628.034 222.04C626.534 222.04 625.614 223.08 625.614 224.68V230ZM634.371 225.04C634.371 221.96 636.591 219.84 639.651 219.84C642.711 219.84 644.931 221.96 644.931 225.04C644.931 228.12 642.711 230.24 639.651 230.24C636.591 230.24 634.371 228.12 634.371 225.04ZM636.811 225.04C636.811 226.84 637.971 228.06 639.651 228.06C641.331 228.06 642.491 226.84 642.491 225.04C642.491 223.24 641.331 222.02 639.651 222.02C637.971 222.02 636.811 223.24 636.811 225.04ZM649.325 230H646.905V215.12H649.325V230Z" fill="white"/>
</g>
<path id="Vector 2249" d="M960 195.01L850 195.01" stroke="black" stroke-width="3" stroke-linecap="round"/>
</g>
<g id="4_TEXT">
<path id="Attention deficit disorder" d="M585.88 305H583.22L588.5 290.38H591.12L596.4 305H593.7L592.52 301.62H587.06L585.88 305ZM589.48 294.74L587.82 299.46H591.78L590.1 294.74C589.98 294.36 589.84 293.92 589.8 293.62C589.74 293.9 589.62 294.34 589.48 294.74ZM601.16 305H598.72V297.16H596.82V295.12H598.72V292.04H601.16V295.12H603.08V297.16H601.16V305ZM608.43 305H605.99V297.16H604.09V295.12H605.99V292.04H608.43V295.12H610.35V297.16H608.43V305ZM616.389 305.26C613.449 305.26 611.389 303.12 611.389 300.06C611.389 296.96 613.409 294.82 616.309 294.82C619.269 294.82 621.149 296.8 621.149 299.88V300.62L613.709 300.64C613.889 302.38 614.809 303.26 616.429 303.26C617.769 303.26 618.649 302.74 618.929 301.8H621.189C620.769 303.96 618.969 305.26 616.389 305.26ZM616.329 296.82C614.889 296.82 614.009 297.6 613.769 299.08H618.729C618.729 297.72 617.789 296.82 616.329 296.82ZM625.742 305H623.302V295.12H625.562L625.762 296.4C626.382 295.4 627.582 294.82 628.922 294.82C631.402 294.82 632.682 296.36 632.682 298.92V305H630.242V299.5C630.242 297.84 629.422 297.04 628.162 297.04C626.662 297.04 625.742 298.08 625.742 299.68V305ZM638.64 305H636.2V297.16H634.3V295.12H636.2V292.04H638.64V295.12H640.56V297.16H638.64V305ZM643.496 293.14C642.656 293.14 641.996 292.48 641.996 291.66C641.996 290.84 642.656 290.2 643.496 290.2C644.296 290.2 644.956 290.84 644.956 291.66C644.956 292.48 644.296 293.14 643.496 293.14ZM642.276 305V295.12H644.716V305H642.276ZM646.857 300.04C646.857 296.96 649.077 294.84 652.137 294.84C655.197 294.84 657.417 296.96 657.417 300.04C657.417 303.12 655.197 305.24 652.137 305.24C649.077 305.24 646.857 303.12 646.857 300.04ZM649.297 300.04C649.297 301.84 650.457 303.06 652.137 303.06C653.817 303.06 654.977 301.84 654.977 300.04C654.977 298.24 653.817 297.02 652.137 297.02C650.457 297.02 649.297 298.24 649.297 300.04ZM661.991 305H659.551V295.12H661.811L662.011 296.4C662.631 295.4 663.831 294.82 665.171 294.82C667.651 294.82 668.931 296.36 668.931 298.92V305H666.491V299.5C666.491 297.84 665.671 297.04 664.411 297.04C662.911 297.04 661.991 298.08 661.991 299.68V305ZM681.179 305.26C678.319 305.26 676.539 303.16 676.539 300.1C676.539 297.02 678.339 294.82 681.319 294.82C682.699 294.82 683.919 295.4 684.539 296.38V290.12H686.959V305H684.719L684.559 303.46C683.959 304.6 682.679 305.26 681.179 305.26ZM681.719 303.02C683.419 303.02 684.519 301.8 684.519 300.02C684.519 298.24 683.419 297 681.719 297C680.019 297 678.979 298.26 678.979 300.02C678.979 301.78 680.019 303.02 681.719 303.02ZM694.122 305.26C691.182 305.26 689.122 303.12 689.122 300.06C689.122 296.96 691.142 294.82 694.042 294.82C697.002 294.82 698.882 296.8 698.882 299.88V300.62L691.442 300.64C691.622 302.38 692.542 303.26 694.162 303.26C695.502 303.26 696.382 302.74 696.662 301.8H698.922C698.502 303.96 696.702 305.26 694.122 305.26ZM694.062 296.82C692.622 296.82 691.742 297.6 691.502 299.08H696.462C696.462 297.72 695.522 296.82 694.062 296.82ZM707.935 305V297.16H703.895V305H701.475V297.16H700.055V295.12H701.475V293.92C701.475 291.24 702.875 290.12 704.875 290.12C705.255 290.12 705.715 290.14 706.135 290.22V292.3H705.275C704.175 292.3 703.895 292.94 703.895 293.92V295.12H710.375V305H707.935ZM709.155 293.1C708.335 293.1 707.695 292.46 707.695 291.64C707.695 290.84 708.335 290.2 709.155 290.2C709.955 290.2 710.595 290.84 710.595 291.64C710.595 292.46 709.955 293.1 709.155 293.1ZM712.51 300.04C712.51 296.98 714.53 294.82 717.45 294.82C720.15 294.82 721.99 296.32 722.25 298.7H719.81C719.53 297.58 718.71 297 717.55 297C715.99 297 714.95 298.18 714.95 300.04C714.95 301.9 715.91 303.06 717.47 303.06C718.69 303.06 719.55 302.46 719.81 301.38H722.27C721.97 303.68 720.05 305.26 717.47 305.26C714.47 305.26 712.51 303.18 712.51 300.04ZM725.507 293.14C724.667 293.14 724.007 292.48 724.007 291.66C724.007 290.84 724.667 290.2 725.507 290.2C726.307 290.2 726.967 290.84 726.967 291.66C726.967 292.48 726.307 293.14 725.507 293.14ZM724.287 305V295.12H726.727V305H724.287ZM732.808 305H730.368V297.16H728.468V295.12H730.368V292.04H732.808V295.12H734.728V297.16H732.808V305ZM746.095 305.26C743.235 305.26 741.455 303.16 741.455 300.1C741.455 297.02 743.255 294.82 746.235 294.82C747.615 294.82 748.835 295.4 749.455 296.38V290.12H751.875V305H749.635L749.475 303.46C748.875 304.6 747.595 305.26 746.095 305.26ZM746.635 303.02C748.335 303.02 749.435 301.8 749.435 300.02C749.435 298.24 748.335 297 746.635 297C744.935 297 743.895 298.26 743.895 300.02C743.895 301.78 744.935 303.02 746.635 303.02ZM755.838 293.14C754.998 293.14 754.338 292.48 754.338 291.66C754.338 290.84 754.998 290.2 755.838 290.2C756.638 290.2 757.298 290.84 757.298 291.66C757.298 292.48 756.638 293.14 755.838 293.14ZM754.618 305V295.12H757.058V305H754.618ZM759.019 302H761.339C761.359 302.86 761.999 303.4 763.119 303.4C764.259 303.4 764.879 302.94 764.879 302.22C764.879 301.72 764.619 301.36 763.739 301.16L761.959 300.74C760.179 300.34 759.319 299.5 759.319 297.92C759.319 295.98 760.959 294.82 763.239 294.82C765.459 294.82 766.959 296.1 766.979 298.02H764.659C764.639 297.18 764.079 296.64 763.139 296.64C762.179 296.64 761.619 297.08 761.619 297.82C761.619 298.38 762.059 298.74 762.899 298.94L764.679 299.36C766.339 299.74 767.179 300.5 767.179 302.02C767.179 304.02 765.479 305.26 763.039 305.26C760.579 305.26 759.019 303.94 759.019 302ZM768.657 300.04C768.657 296.96 770.877 294.84 773.937 294.84C776.997 294.84 779.217 296.96 779.217 300.04C779.217 303.12 776.997 305.24 773.937 305.24C770.877 305.24 768.657 303.12 768.657 300.04ZM771.097 300.04C771.097 301.84 772.257 303.06 773.937 303.06C775.617 303.06 776.777 301.84 776.777 300.04C776.777 298.24 775.617 297.02 773.937 297.02C772.257 297.02 771.097 298.24 771.097 300.04ZM787.551 295.08V297.34H786.651C784.891 297.34 783.791 298.28 783.791 300.2V305H781.351V295.14H783.651L783.791 296.58C784.211 295.6 785.151 294.94 786.471 294.94C786.811 294.94 787.151 294.98 787.551 295.08ZM793.13 305.26C790.27 305.26 788.49 303.16 788.49 300.1C788.49 297.02 790.29 294.82 793.27 294.82C794.65 294.82 795.87 295.4 796.49 296.38V290.12H798.91V305H796.67L796.51 303.46C795.91 304.6 794.63 305.26 793.13 305.26ZM793.67 303.02C795.37 303.02 796.47 301.8 796.47 300.02C796.47 298.24 795.37 297 793.67 297C791.97 297 790.93 298.26 790.93 300.02C790.93 301.78 791.97 303.02 793.67 303.02ZM806.073 305.26C803.133 305.26 801.073 303.12 801.073 300.06C801.073 296.96 803.093 294.82 805.993 294.82C808.953 294.82 810.833 296.8 810.833 299.88V300.62L803.393 300.64C803.573 302.38 804.493 303.26 806.113 303.26C807.453 303.26 808.333 302.74 808.613 301.8H810.873C810.453 303.96 808.653 305.26 806.073 305.26ZM806.013 296.82C804.573 296.82 803.693 297.6 803.453 299.08H808.413C808.413 297.72 807.473 296.82 806.013 296.82ZM819.186 295.08V297.34H818.286C816.526 297.34 815.426 298.28 815.426 300.2V305H812.986V295.14H815.286L815.426 296.58C815.846 295.6 816.786 294.94 818.106 294.94C818.446 294.94 818.786 294.98 819.186 295.08Z" fill="black"/>
<path id="Vector 2249_2" d="M940 300.01L830 300.01" stroke="black" stroke-width="3" stroke-linecap="round"/>
<g id="B_PHTHALATES">
<rect id="Rectangle 4863" x="583" y="314" width="146" height="27.5" rx="13.75" fill="#9B9B9B"/>
<path id="text_2" d="M614.894 329.96H611.674V335H609.114V320.38H614.894C617.834 320.38 619.734 322.3 619.734 325.16C619.734 327.98 617.814 329.96 614.894 329.96ZM614.394 322.66H611.674V327.68H614.354C616.114 327.68 617.054 326.74 617.054 325.14C617.054 323.54 616.094 322.66 614.394 322.66ZM623.968 335H621.528V320.12H623.988V326.4C624.608 325.44 625.768 324.82 627.188 324.82C629.628 324.82 630.908 326.36 630.908 328.92V335H628.468V329.5C628.468 327.84 627.648 327.04 626.408 327.04C624.868 327.04 623.968 328.12 623.968 329.6V335ZM636.665 335H634.225V327.16H632.325V325.12H634.225V322.04H636.665V325.12H638.585V327.16H636.665V335ZM642.542 335H640.102V320.12H642.562V326.4C643.182 325.44 644.342 324.82 645.762 324.82C648.202 324.82 649.482 326.36 649.482 328.92V335H647.042V329.5C647.042 327.84 646.222 327.04 644.982 327.04C643.442 327.04 642.542 328.12 642.542 329.6V335ZM654.819 335.26C652.719 335.26 651.439 334.04 651.439 332.18C651.439 330.36 652.759 329.22 655.099 329.04L658.059 328.82V328.6C658.059 327.26 657.259 326.72 656.019 326.72C654.579 326.72 653.779 327.32 653.779 328.36H651.699C651.699 326.22 653.459 324.82 656.139 324.82C658.799 324.82 660.439 326.26 660.439 329V335H658.299L658.119 333.54C657.699 334.56 656.359 335.26 654.819 335.26ZM655.619 333.42C657.119 333.42 658.079 332.52 658.079 331V330.48L656.019 330.64C654.499 330.78 653.919 331.28 653.919 332.08C653.919 332.98 654.519 333.42 655.619 333.42ZM665.296 335H662.876V320.12H665.296V335ZM670.796 335.26C668.696 335.26 667.416 334.04 667.416 332.18C667.416 330.36 668.736 329.22 671.076 329.04L674.036 328.82V328.6C674.036 327.26 673.236 326.72 671.996 326.72C670.556 326.72 669.756 327.32 669.756 328.36H667.676C667.676 326.22 669.436 324.82 672.116 324.82C674.776 324.82 676.416 326.26 676.416 329V335H674.276L674.096 333.54C673.676 334.56 672.336 335.26 670.796 335.26ZM671.596 333.42C673.096 333.42 674.056 332.52 674.056 331V330.48L671.996 330.64C670.476 330.78 669.896 331.28 669.896 332.08C669.896 332.98 670.496 333.42 671.596 333.42ZM682.036 335H679.596V327.16H677.696V325.12H679.596V322.04H682.036V325.12H683.956V327.16H682.036V335ZM689.795 335.26C686.855 335.26 684.795 333.12 684.795 330.06C684.795 326.96 686.815 324.82 689.715 324.82C692.675 324.82 694.555 326.8 694.555 329.88V330.62L687.115 330.64C687.295 332.38 688.215 333.26 689.835 333.26C691.175 333.26 692.055 332.74 692.335 331.8H694.595C694.175 333.96 692.375 335.26 689.795 335.26ZM689.735 326.82C688.295 326.82 687.415 327.6 687.175 329.08H692.135C692.135 327.72 691.195 326.82 689.735 326.82ZM695.748 332H698.068C698.088 332.86 698.728 333.4 699.848 333.4C700.988 333.4 701.608 332.94 701.608 332.22C701.608 331.72 701.348 331.36 700.468 331.16L698.688 330.74C696.908 330.34 696.048 329.5 696.048 327.92C696.048 325.98 697.688 324.82 699.968 324.82C702.188 324.82 703.688 326.1 703.708 328.02H701.388C701.368 327.18 700.808 326.64 699.868 326.64C698.908 326.64 698.348 327.08 698.348 327.82C698.348 328.38 698.788 328.74 699.628 328.94L701.408 329.36C703.068 329.74 703.908 330.5 703.908 332.02C703.908 334.02 702.208 335.26 699.768 335.26C697.308 335.26 695.748 333.94 695.748 332Z" fill="white"/>
</g>
</g>
<g id="1_TEXT">
<path id="Nervous system disruption" d="M621.14 131H618.62V116.38H621.16L628.02 126.74V116.38H630.54V131H628.02L621.14 120.64V131ZM638.036 131.26C635.096 131.26 633.036 129.12 633.036 126.06C633.036 122.96 635.056 120.82 637.956 120.82C640.916 120.82 642.796 122.8 642.796 125.88V126.62L635.356 126.64C635.536 128.38 636.456 129.26 638.076 129.26C639.416 129.26 640.296 128.74 640.576 127.8H642.836C642.416 129.96 640.616 131.26 638.036 131.26ZM637.976 122.82C636.536 122.82 635.656 123.6 635.416 125.08H640.376C640.376 123.72 639.436 122.82 637.976 122.82ZM651.149 121.08V123.34H650.249C648.489 123.34 647.389 124.28 647.389 126.2V131H644.949V121.14H647.249L647.389 122.58C647.809 121.6 648.749 120.94 650.069 120.94C650.409 120.94 650.749 120.98 651.149 121.08ZM656.094 131L652.174 121.12H654.774L656.494 125.66C656.914 126.84 657.254 127.86 657.374 128.4C657.514 127.78 657.874 126.74 658.294 125.66L660.094 121.12H662.614L658.494 131H656.094ZM663.148 126.04C663.148 122.96 665.368 120.84 668.428 120.84C671.488 120.84 673.708 122.96 673.708 126.04C673.708 129.12 671.488 131.24 668.428 131.24C665.368 131.24 663.148 129.12 663.148 126.04ZM665.588 126.04C665.588 127.84 666.748 129.06 668.428 129.06C670.108 129.06 671.268 127.84 671.268 126.04C671.268 124.24 670.108 123.02 668.428 123.02C666.748 123.02 665.588 124.24 665.588 126.04ZM682.308 121.12H684.748V131H682.488L682.308 129.68C681.708 130.62 680.428 131.26 679.108 131.26C676.828 131.26 675.488 129.72 675.488 127.3V121.12H677.928V126.44C677.928 128.32 678.668 129.08 680.028 129.08C681.568 129.08 682.308 128.18 682.308 126.3V121.12ZM686.512 128H688.832C688.852 128.86 689.492 129.4 690.612 129.4C691.752 129.4 692.372 128.94 692.372 128.22C692.372 127.72 692.112 127.36 691.232 127.16L689.452 126.74C687.672 126.34 686.812 125.5 686.812 123.92C686.812 121.98 688.452 120.82 690.732 120.82C692.952 120.82 694.452 122.1 694.472 124.02H692.152C692.132 123.18 691.572 122.64 690.632 122.64C689.672 122.64 689.112 123.08 689.112 123.82C689.112 124.38 689.552 124.74 690.392 124.94L692.172 125.36C693.832 125.74 694.672 126.5 694.672 128.02C694.672 130.02 692.972 131.26 690.532 131.26C688.072 131.26 686.512 129.94 686.512 128ZM701.561 128H703.881C703.901 128.86 704.541 129.4 705.661 129.4C706.801 129.4 707.421 128.94 707.421 128.22C707.421 127.72 707.161 127.36 706.281 127.16L704.501 126.74C702.721 126.34 701.861 125.5 701.861 123.92C701.861 121.98 703.501 120.82 705.781 120.82C708.001 120.82 709.501 122.1 709.521 124.02H707.201C707.181 123.18 706.621 122.64 705.681 122.64C704.721 122.64 704.161 123.08 704.161 123.82C704.161 124.38 704.601 124.74 705.441 124.94L707.221 125.36C708.881 125.74 709.721 126.5 709.721 128.02C709.721 130.02 708.021 131.26 705.581 131.26C703.121 131.26 701.561 129.94 701.561 128ZM710.723 135.58V133.54H712.183C713.143 133.54 713.743 133.32 714.163 132.16L714.443 131.42L710.463 121.12H713.043L715.583 128.32L718.263 121.12H720.783L715.943 133.2C715.203 135.04 714.163 135.8 712.543 135.8C711.863 135.8 711.263 135.72 710.723 135.58ZM721.395 128H723.715C723.735 128.86 724.375 129.4 725.495 129.4C726.635 129.4 727.255 128.94 727.255 128.22C727.255 127.72 726.995 127.36 726.115 127.16L724.335 126.74C722.555 126.34 721.695 125.5 721.695 123.92C721.695 121.98 723.335 120.82 725.615 120.82C727.835 120.82 729.335 122.1 729.355 124.02H727.035C727.015 123.18 726.455 122.64 725.515 122.64C724.555 122.64 723.995 123.08 723.995 123.82C723.995 124.38 724.435 124.74 725.275 124.94L727.055 125.36C728.715 125.74 729.555 126.5 729.555 128.02C729.555 130.02 727.855 131.26 725.415 131.26C722.955 131.26 721.395 129.94 721.395 128ZM734.972 131H732.532V123.16H730.632V121.12H732.532V118.04H734.972V121.12H736.892V123.16H734.972V131ZM742.932 131.26C739.992 131.26 737.932 129.12 737.932 126.06C737.932 122.96 739.952 120.82 742.852 120.82C745.812 120.82 747.692 122.8 747.692 125.88V126.62L740.252 126.64C740.432 128.38 741.352 129.26 742.972 129.26C744.312 129.26 745.192 128.74 745.472 127.8H747.732C747.312 129.96 745.512 131.26 742.932 131.26ZM742.872 122.82C741.432 122.82 740.552 123.6 740.312 125.08H745.272C745.272 123.72 744.332 122.82 742.872 122.82ZM752.284 131H749.844V121.12H752.084L752.284 122.28C752.784 121.46 753.784 120.82 755.204 120.82C756.704 120.82 757.744 121.56 758.264 122.7C758.764 121.56 759.924 120.82 761.424 120.82C763.824 120.82 765.144 122.26 765.144 124.54V131H762.724V125.18C762.724 123.76 761.964 123.02 760.804 123.02C759.624 123.02 758.724 123.78 758.724 125.4V131H756.284V125.16C756.284 123.78 755.544 123.04 754.384 123.04C753.224 123.04 752.284 123.8 752.284 125.4V131ZM777.39 131.26C774.53 131.26 772.75 129.16 772.75 126.1C772.75 123.02 774.55 120.82 777.53 120.82C778.91 120.82 780.13 121.4 780.75 122.38V116.12H783.17V131H780.93L780.77 129.46C780.17 130.6 778.89 131.26 777.39 131.26ZM777.93 129.02C779.63 129.02 780.73 127.8 780.73 126.02C780.73 124.24 779.63 123 777.93 123C776.23 123 775.19 124.26 775.19 126.02C775.19 127.78 776.23 129.02 777.93 129.02ZM787.133 119.14C786.293 119.14 785.633 118.48 785.633 117.66C785.633 116.84 786.293 116.2 787.133 116.2C787.933 116.2 788.593 116.84 788.593 117.66C788.593 118.48 787.933 119.14 787.133 119.14ZM785.913 131V121.12H788.353V131H785.913ZM790.314 128H792.634C792.654 128.86 793.294 129.4 794.414 129.4C795.554 129.4 796.174 128.94 796.174 128.22C796.174 127.72 795.914 127.36 795.034 127.16L793.254 126.74C791.474 126.34 790.614 125.5 790.614 123.92C790.614 121.98 792.254 120.82 794.534 120.82C796.754 120.82 798.254 122.1 798.274 124.02H795.954C795.934 123.18 795.374 122.64 794.434 122.64C793.474 122.64 792.914 123.08 792.914 123.82C792.914 124.38 793.354 124.74 794.194 124.94L795.974 125.36C797.634 125.74 798.474 126.5 798.474 128.02C798.474 130.02 796.774 131.26 794.334 131.26C791.874 131.26 790.314 129.94 790.314 128ZM806.732 121.08V123.34H805.832C804.072 123.34 802.972 124.28 802.972 126.2V131H800.532V121.14H802.832L802.972 122.58C803.392 121.6 804.332 120.94 805.652 120.94C805.992 120.94 806.332 120.98 806.732 121.08ZM815.283 121.12H817.723V131H815.463L815.283 129.68C814.683 130.62 813.403 131.26 812.083 131.26C809.803 131.26 808.463 129.72 808.463 127.3V121.12H810.903V126.44C810.903 128.32 811.643 129.08 813.003 129.08C814.543 129.08 815.283 128.18 815.283 126.3V121.12ZM820.444 135.58V121.12H822.704L822.864 122.62C823.464 121.48 824.764 120.82 826.264 120.82C829.044 120.82 830.884 122.84 830.884 125.94C830.884 129.02 829.204 131.26 826.264 131.26C824.784 131.26 823.504 130.68 822.884 129.68V135.58H820.444ZM822.904 126.06C822.904 127.84 824.004 129.06 825.684 129.06C827.404 129.06 828.424 127.82 828.424 126.06C828.424 124.3 827.404 123.04 825.684 123.04C824.004 123.04 822.904 124.28 822.904 126.06ZM836.289 131H833.849V123.16H831.949V121.12H833.849V118.04H836.289V121.12H838.209V123.16H836.289V131ZM841.146 119.14C840.306 119.14 839.646 118.48 839.646 117.66C839.646 116.84 840.306 116.2 841.146 116.2C841.946 116.2 842.606 116.84 842.606 117.66C842.606 118.48 841.946 119.14 841.146 119.14ZM839.926 131V121.12H842.366V131H839.926ZM844.507 126.04C844.507 122.96 846.727 120.84 849.787 120.84C852.847 120.84 855.067 122.96 855.067 126.04C855.067 129.12 852.847 131.24 849.787 131.24C846.727 131.24 844.507 129.12 844.507 126.04ZM846.947 126.04C846.947 127.84 848.107 129.06 849.787 129.06C851.467 129.06 852.627 127.84 852.627 126.04C852.627 124.24 851.467 123.02 849.787 123.02C848.107 123.02 846.947 124.24 846.947 126.04ZM859.641 131H857.201V121.12H859.461L859.661 122.4C860.281 121.4 861.481 120.82 862.821 120.82C865.301 120.82 866.581 122.36 866.581 124.92V131H864.141V125.5C864.141 123.84 863.321 123.04 862.061 123.04C860.561 123.04 859.641 124.08 859.641 125.68V131Z" fill="black"/>
<path id="Vector 2249_3" d="M950 126L877 126" stroke="black" stroke-width="3" stroke-linecap="round"/>
<g id="B_PESTICIDES">
<rect id="Rectangle 4863_2" x="617" y="140" width="133" height="27.5" rx="13.75" fill="#5658E7"/>
<path id="text_3" d="M644.318 155.96H641.098V161H638.538V146.38H644.318C647.258 146.38 649.158 148.3 649.158 151.16C649.158 153.98 647.238 155.96 644.318 155.96ZM643.818 148.66H641.098V153.68H643.778C645.538 153.68 646.478 152.74 646.478 151.14C646.478 149.54 645.518 148.66 643.818 148.66ZM654.883 161.26C651.943 161.26 649.883 159.12 649.883 156.06C649.883 152.96 651.903 150.82 654.803 150.82C657.763 150.82 659.643 152.8 659.643 155.88V156.62L652.203 156.64C652.383 158.38 653.303 159.26 654.923 159.26C656.263 159.26 657.143 158.74 657.423 157.8H659.683C659.263 159.96 657.463 161.26 654.883 161.26ZM654.823 152.82C653.383 152.82 652.503 153.6 652.263 155.08H657.223C657.223 153.72 656.283 152.82 654.823 152.82ZM660.836 158H663.156C663.176 158.86 663.816 159.4 664.936 159.4C666.076 159.4 666.696 158.94 666.696 158.22C666.696 157.72 666.436 157.36 665.556 157.16L663.776 156.74C661.996 156.34 661.136 155.5 661.136 153.92C661.136 151.98 662.776 150.82 665.056 150.82C667.276 150.82 668.776 152.1 668.796 154.02H666.476C666.456 153.18 665.896 152.64 664.956 152.64C663.996 152.64 663.436 153.08 663.436 153.82C663.436 154.38 663.876 154.74 664.716 154.94L666.496 155.36C668.156 155.74 668.996 156.5 668.996 158.02C668.996 160.02 667.296 161.26 664.856 161.26C662.396 161.26 660.836 159.94 660.836 158ZM674.214 161H671.774V153.16H669.874V151.12H671.774V148.04H674.214V151.12H676.134V153.16H674.214V161ZM678.871 149.14C678.031 149.14 677.371 148.48 677.371 147.66C677.371 146.84 678.031 146.2 678.871 146.2C679.671 146.2 680.331 146.84 680.331 147.66C680.331 148.48 679.671 149.14 678.871 149.14ZM677.651 161V151.12H680.091V161H677.651ZM682.032 156.04C682.032 152.98 684.052 150.82 686.972 150.82C689.672 150.82 691.512 152.32 691.772 154.7H689.332C689.052 153.58 688.232 153 687.072 153C685.512 153 684.472 154.18 684.472 156.04C684.472 157.9 685.432 159.06 686.992 159.06C688.212 159.06 689.072 158.46 689.332 157.38H691.792C691.492 159.68 689.572 161.26 686.992 161.26C683.992 161.26 682.032 159.18 682.032 156.04ZM694.828 149.14C693.988 149.14 693.328 148.48 693.328 147.66C693.328 146.84 693.988 146.2 694.828 146.2C695.628 146.2 696.288 146.84 696.288 147.66C696.288 148.48 695.628 149.14 694.828 149.14ZM693.608 161V151.12H696.048V161H693.608ZM702.629 161.26C699.769 161.26 697.989 159.16 697.989 156.1C697.989 153.02 699.789 150.82 702.769 150.82C704.149 150.82 705.369 151.4 705.989 152.38V146.12H708.409V161H706.169L706.009 159.46C705.409 160.6 704.129 161.26 702.629 161.26ZM703.169 159.02C704.869 159.02 705.969 157.8 705.969 156.02C705.969 154.24 704.869 153 703.169 153C701.469 153 700.429 154.26 700.429 156.02C700.429 157.78 701.469 159.02 703.169 159.02ZM715.371 161.26C712.431 161.26 710.371 159.12 710.371 156.06C710.371 152.96 712.391 150.82 715.291 150.82C718.251 150.82 720.131 152.8 720.131 155.88V156.62L712.691 156.64C712.871 158.38 713.791 159.26 715.411 159.26C716.751 159.26 717.631 158.74 717.911 157.8H720.171C719.751 159.96 717.951 161.26 715.371 161.26ZM715.311 152.82C713.871 152.82 712.991 153.6 712.751 155.08H717.711C717.711 153.72 716.771 152.82 715.311 152.82ZM721.324 158H723.644C723.664 158.86 724.304 159.4 725.424 159.4C726.564 159.4 727.184 158.94 727.184 158.22C727.184 157.72 726.924 157.36 726.044 157.16L724.264 156.74C722.484 156.34 721.624 155.5 721.624 153.92C721.624 151.98 723.264 150.82 725.544 150.82C727.764 150.82 729.264 152.1 729.284 154.02H726.964C726.944 153.18 726.384 152.64 725.444 152.64C724.484 152.64 723.924 153.08 723.924 153.82C723.924 154.38 724.364 154.74 725.204 154.94L726.984 155.36C728.644 155.74 729.484 156.5 729.484 158.02C729.484 160.02 727.784 161.26 725.344 161.26C722.884 161.26 721.324 159.94 721.324 158Z" fill="white"/>
</g>
</g>
<g id="2_TEXT">
<path id="Hyperactivity disorder" d="M1115.18 345H1112.62V330.38H1115.18V336.42H1121.66V330.38H1124.22V345H1121.66V338.8H1115.18V345ZM1126.44 349.58V347.54H1127.9C1128.86 347.54 1129.46 347.32 1129.88 346.16L1130.16 345.42L1126.18 335.12H1128.76L1131.3 342.32L1133.98 335.12H1136.5L1131.66 347.2C1130.92 349.04 1129.88 349.8 1128.26 349.8C1127.58 349.8 1126.98 349.72 1126.44 349.58ZM1138.09 349.58V335.12H1140.35L1140.51 336.62C1141.11 335.48 1142.41 334.82 1143.91 334.82C1146.69 334.82 1148.53 336.84 1148.53 339.94C1148.53 343.02 1146.85 345.26 1143.91 345.26C1142.43 345.26 1141.15 344.68 1140.53 343.68V349.58H1138.09ZM1140.55 340.06C1140.55 341.84 1141.65 343.06 1143.33 343.06C1145.05 343.06 1146.07 341.82 1146.07 340.06C1146.07 338.3 1145.05 337.04 1143.33 337.04C1141.65 337.04 1140.55 338.28 1140.55 340.06ZM1155.09 345.26C1152.15 345.26 1150.09 343.12 1150.09 340.06C1150.09 336.96 1152.11 334.82 1155.01 334.82C1157.97 334.82 1159.85 336.8 1159.85 339.88V340.62L1152.41 340.64C1152.59 342.38 1153.51 343.26 1155.13 343.26C1156.47 343.26 1157.35 342.74 1157.63 341.8H1159.89C1159.47 343.96 1157.67 345.26 1155.09 345.26ZM1155.03 336.82C1153.59 336.82 1152.71 337.6 1152.47 339.08H1157.43C1157.43 337.72 1156.49 336.82 1155.03 336.82ZM1168.21 335.08V337.34H1167.31C1165.55 337.34 1164.45 338.28 1164.45 340.2V345H1162.01V335.14H1164.31L1164.45 336.58C1164.87 335.6 1165.81 334.94 1167.13 334.94C1167.47 334.94 1167.81 334.98 1168.21 335.08ZM1172.61 345.26C1170.51 345.26 1169.23 344.04 1169.23 342.18C1169.23 340.36 1170.55 339.22 1172.89 339.04L1175.85 338.82V338.6C1175.85 337.26 1175.05 336.72 1173.81 336.72C1172.37 336.72 1171.57 337.32 1171.57 338.36H1169.49C1169.49 336.22 1171.25 334.82 1173.93 334.82C1176.59 334.82 1178.23 336.26 1178.23 339V345H1176.09L1175.91 343.54C1175.49 344.56 1174.15 345.26 1172.61 345.26ZM1173.41 343.42C1174.91 343.42 1175.87 342.52 1175.87 341V340.48L1173.81 340.64C1172.29 340.78 1171.71 341.28 1171.71 342.08C1171.71 342.98 1172.31 343.42 1173.41 343.42ZM1180.24 340.04C1180.24 336.98 1182.26 334.82 1185.18 334.82C1187.88 334.82 1189.72 336.32 1189.98 338.7H1187.54C1187.26 337.58 1186.44 337 1185.28 337C1183.72 337 1182.68 338.18 1182.68 340.04C1182.68 341.9 1183.64 343.06 1185.2 343.06C1186.42 343.06 1187.28 342.46 1187.54 341.38H1190C1189.7 343.68 1187.78 345.26 1185.2 345.26C1182.2 345.26 1180.24 343.18 1180.24 340.04ZM1195.38 345H1192.94V337.16H1191.04V335.12H1192.94V332.04H1195.38V335.12H1197.3V337.16H1195.38V345ZM1200.24 333.14C1199.4 333.14 1198.74 332.48 1198.74 331.66C1198.74 330.84 1199.4 330.2 1200.24 330.2C1201.04 330.2 1201.7 330.84 1201.7 331.66C1201.7 332.48 1201.04 333.14 1200.24 333.14ZM1199.02 345V335.12H1201.46V345H1199.02ZM1206.98 345L1203.06 335.12H1205.66L1207.38 339.66C1207.8 340.84 1208.14 341.86 1208.26 342.4C1208.4 341.78 1208.76 340.74 1209.18 339.66L1210.98 335.12H1213.5L1209.38 345H1206.98ZM1216.32 333.14C1215.48 333.14 1214.82 332.48 1214.82 331.66C1214.82 330.84 1215.48 330.2 1216.32 330.2C1217.12 330.2 1217.78 330.84 1217.78 331.66C1217.78 332.48 1217.12 333.14 1216.32 333.14ZM1215.1 345V335.12H1217.54V345H1215.1ZM1223.62 345H1221.18V337.16H1219.28V335.12H1221.18V332.04H1223.62V335.12H1225.54V337.16H1223.62V345ZM1226.4 349.58V347.54H1227.86C1228.82 347.54 1229.42 347.32 1229.84 346.16L1230.12 345.42L1226.14 335.12H1228.72L1231.26 342.32L1233.94 335.12H1236.46L1231.62 347.2C1230.88 349.04 1229.84 349.8 1228.22 349.8C1227.54 349.8 1226.94 349.72 1226.4 349.58ZM1247.69 345.26C1244.83 345.26 1243.05 343.16 1243.05 340.1C1243.05 337.02 1244.85 334.82 1247.83 334.82C1249.21 334.82 1250.43 335.4 1251.05 336.38V330.12H1253.47V345H1251.23L1251.07 343.46C1250.47 344.6 1249.19 345.26 1247.69 345.26ZM1248.23 343.02C1249.93 343.02 1251.03 341.8 1251.03 340.02C1251.03 338.24 1249.93 337 1248.23 337C1246.53 337 1245.49 338.26 1245.49 340.02C1245.49 341.78 1246.53 343.02 1248.23 343.02ZM1257.44 333.14C1256.6 333.14 1255.94 332.48 1255.94 331.66C1255.94 330.84 1256.6 330.2 1257.44 330.2C1258.24 330.2 1258.9 330.84 1258.9 331.66C1258.9 332.48 1258.24 333.14 1257.44 333.14ZM1256.22 345V335.12H1258.66V345H1256.22ZM1260.62 342H1262.94C1262.96 342.86 1263.6 343.4 1264.72 343.4C1265.86 343.4 1266.48 342.94 1266.48 342.22C1266.48 341.72 1266.22 341.36 1265.34 341.16L1263.56 340.74C1261.78 340.34 1260.92 339.5 1260.92 337.92C1260.92 335.98 1262.56 334.82 1264.84 334.82C1267.06 334.82 1268.56 336.1 1268.58 338.02H1266.26C1266.24 337.18 1265.68 336.64 1264.74 336.64C1263.78 336.64 1263.22 337.08 1263.22 337.82C1263.22 338.38 1263.66 338.74 1264.5 338.94L1266.28 339.36C1267.94 339.74 1268.78 340.5 1268.78 342.02C1268.78 344.02 1267.08 345.26 1264.64 345.26C1262.18 345.26 1260.62 343.94 1260.62 342ZM1270.26 340.04C1270.26 336.96 1272.48 334.84 1275.54 334.84C1278.6 334.84 1280.82 336.96 1280.82 340.04C1280.82 343.12 1278.6 345.24 1275.54 345.24C1272.48 345.24 1270.26 343.12 1270.26 340.04ZM1272.7 340.04C1272.7 341.84 1273.86 343.06 1275.54 343.06C1277.22 343.06 1278.38 341.84 1278.38 340.04C1278.38 338.24 1277.22 337.02 1275.54 337.02C1273.86 337.02 1272.7 338.24 1272.7 340.04ZM1289.15 335.08V337.34H1288.25C1286.49 337.34 1285.39 338.28 1285.39 340.2V345H1282.95V335.14H1285.25L1285.39 336.58C1285.81 335.6 1286.75 334.94 1288.07 334.94C1288.41 334.94 1288.75 334.98 1289.15 335.08ZM1294.73 345.26C1291.87 345.26 1290.09 343.16 1290.09 340.1C1290.09 337.02 1291.89 334.82 1294.87 334.82C1296.25 334.82 1297.47 335.4 1298.09 336.38V330.12H1300.51V345H1298.27L1298.11 343.46C1297.51 344.6 1296.23 345.26 1294.73 345.26ZM1295.27 343.02C1296.97 343.02 1298.07 341.8 1298.07 340.02C1298.07 338.24 1296.97 337 1295.27 337C1293.57 337 1292.53 338.26 1292.53 340.02C1292.53 341.78 1293.57 343.02 1295.27 343.02ZM1307.67 345.26C1304.73 345.26 1302.67 343.12 1302.67 340.06C1302.67 336.96 1304.69 334.82 1307.59 334.82C1310.55 334.82 1312.43 336.8 1312.43 339.88V340.62L1304.99 340.64C1305.17 342.38 1306.09 343.26 1307.71 343.26C1309.05 343.26 1309.93 342.74 1310.21 341.8H1312.47C1312.05 343.96 1310.25 345.26 1307.67 345.26ZM1307.61 336.82C1306.17 336.82 1305.29 337.6 1305.05 339.08H1310.01C1310.01 337.72 1309.07 336.82 1307.61 336.82ZM1320.78 335.08V337.34H1319.88C1318.12 337.34 1317.02 338.28 1317.02 340.2V345H1314.58V335.14H1316.88L1317.02 336.58C1317.44 335.6 1318.38 334.94 1319.7 334.94C1320.04 334.94 1320.38 334.98 1320.78 335.08Z" fill="black"/>
<path id="Vector 2249_4" d="M1006 338L1104 338" stroke="black" stroke-width="3" stroke-linecap="round"/>
<g id="B_PHTHALATES_2">
<rect id="Rectangle 4863_3" x="1113" y="354" width="146" height="27.5" rx="13.75" fill="#9B9B9B"/>
<path id="text_4" d="M1144.89 369.96H1141.67V375H1139.11V360.38H1144.89C1147.83 360.38 1149.73 362.3 1149.73 365.16C1149.73 367.98 1147.81 369.96 1144.89 369.96ZM1144.39 362.66H1141.67V367.68H1144.35C1146.11 367.68 1147.05 366.74 1147.05 365.14C1147.05 363.54 1146.09 362.66 1144.39 362.66ZM1153.97 375H1151.53V360.12H1153.99V366.4C1154.61 365.44 1155.77 364.82 1157.19 364.82C1159.63 364.82 1160.91 366.36 1160.91 368.92V375H1158.47V369.5C1158.47 367.84 1157.65 367.04 1156.41 367.04C1154.87 367.04 1153.97 368.12 1153.97 369.6V375ZM1166.66 375H1164.22V367.16H1162.32V365.12H1164.22V362.04H1166.66V365.12H1168.58V367.16H1166.66V375ZM1172.54 375H1170.1V360.12H1172.56V366.4C1173.18 365.44 1174.34 364.82 1175.76 364.82C1178.2 364.82 1179.48 366.36 1179.48 368.92V375H1177.04V369.5C1177.04 367.84 1176.22 367.04 1174.98 367.04C1173.44 367.04 1172.54 368.12 1172.54 369.6V375ZM1184.82 375.26C1182.72 375.26 1181.44 374.04 1181.44 372.18C1181.44 370.36 1182.76 369.22 1185.1 369.04L1188.06 368.82V368.6C1188.06 367.26 1187.26 366.72 1186.02 366.72C1184.58 366.72 1183.78 367.32 1183.78 368.36H1181.7C1181.7 366.22 1183.46 364.82 1186.14 364.82C1188.8 364.82 1190.44 366.26 1190.44 369V375H1188.3L1188.12 373.54C1187.7 374.56 1186.36 375.26 1184.82 375.26ZM1185.62 373.42C1187.12 373.42 1188.08 372.52 1188.08 371V370.48L1186.02 370.64C1184.5 370.78 1183.92 371.28 1183.92 372.08C1183.92 372.98 1184.52 373.42 1185.62 373.42ZM1195.3 375H1192.88V360.12H1195.3V375ZM1200.8 375.26C1198.7 375.26 1197.42 374.04 1197.42 372.18C1197.42 370.36 1198.74 369.22 1201.08 369.04L1204.04 368.82V368.6C1204.04 367.26 1203.24 366.72 1202 366.72C1200.56 366.72 1199.76 367.32 1199.76 368.36H1197.68C1197.68 366.22 1199.44 364.82 1202.12 364.82C1204.78 364.82 1206.42 366.26 1206.42 369V375H1204.28L1204.1 373.54C1203.68 374.56 1202.34 375.26 1200.8 375.26ZM1201.6 373.42C1203.1 373.42 1204.06 372.52 1204.06 371V370.48L1202 370.64C1200.48 370.78 1199.9 371.28 1199.9 372.08C1199.9 372.98 1200.5 373.42 1201.6 373.42ZM1212.04 375H1209.6V367.16H1207.7V365.12H1209.6V362.04H1212.04V365.12H1213.96V367.16H1212.04V375ZM1219.8 375.26C1216.86 375.26 1214.8 373.12 1214.8 370.06C1214.8 366.96 1216.82 364.82 1219.72 364.82C1222.68 364.82 1224.56 366.8 1224.56 369.88V370.62L1217.12 370.64C1217.3 372.38 1218.22 373.26 1219.84 373.26C1221.18 373.26 1222.06 372.74 1222.34 371.8H1224.6C1224.18 373.96 1222.38 375.26 1219.8 375.26ZM1219.74 366.82C1218.3 366.82 1217.42 367.6 1217.18 369.08H1222.14C1222.14 367.72 1221.2 366.82 1219.74 366.82ZM1225.75 372H1228.07C1228.09 372.86 1228.73 373.4 1229.85 373.4C1230.99 373.4 1231.61 372.94 1231.61 372.22C1231.61 371.72 1231.35 371.36 1230.47 371.16L1228.69 370.74C1226.91 370.34 1226.05 369.5 1226.05 367.92C1226.05 365.98 1227.69 364.82 1229.97 364.82C1232.19 364.82 1233.69 366.1 1233.71 368.02H1231.39C1231.37 367.18 1230.81 366.64 1229.87 366.64C1228.91 366.64 1228.35 367.08 1228.35 367.82C1228.35 368.38 1228.79 368.74 1229.63 368.94L1231.41 369.36C1233.07 369.74 1233.91 370.5 1233.91 372.02C1233.91 374.02 1232.21 375.26 1229.77 375.26C1227.31 375.26 1225.75 373.94 1225.75 372Z" fill="white"/>
</g>
</g>
<g id="0_TEXT">
<g id="B_MERCURY">
<rect id="Rectangle 4859" x="1061" y="227" width="111" height="27.5" rx="13.75" fill="#E21337"/>
<path id="text_5" d="M1081.74 248H1079.26V233.38H1081.74L1086.46 245.02L1091.18 233.38H1093.7V248H1091.22V243.5C1091.22 240.56 1091.22 239.7 1091.36 238.66L1087.64 248H1085.28L1081.58 238.68C1081.72 239.56 1081.74 240.94 1081.74 242.76V248ZM1101 248.26C1098.06 248.26 1096 246.12 1096 243.06C1096 239.96 1098.02 237.82 1100.92 237.82C1103.88 237.82 1105.76 239.8 1105.76 242.88V243.62L1098.32 243.64C1098.5 245.38 1099.42 246.26 1101.04 246.26C1102.38 246.26 1103.26 245.74 1103.54 244.8H1105.8C1105.38 246.96 1103.58 248.26 1101 248.26ZM1100.94 239.82C1099.5 239.82 1098.62 240.6 1098.38 242.08H1103.34C1103.34 240.72 1102.4 239.82 1100.94 239.82ZM1113.91 238.08V240.34H1113.01C1111.25 240.34 1110.15 241.28 1110.15 243.2V248H1107.71V238.14H1110.01L1110.15 239.58C1110.57 238.6 1111.51 237.94 1112.83 237.94C1113.17 237.94 1113.51 237.98 1113.91 238.08ZM1114.65 243.04C1114.65 239.98 1116.67 237.82 1119.59 237.82C1122.29 237.82 1124.13 239.32 1124.39 241.7H1121.95C1121.67 240.58 1120.85 240 1119.69 240C1118.13 240 1117.09 241.18 1117.09 243.04C1117.09 244.9 1118.05 246.06 1119.61 246.06C1120.83 246.06 1121.69 245.46 1121.95 244.38H1124.41C1124.11 246.68 1122.19 248.26 1119.61 248.26C1116.61 248.26 1114.65 246.18 1114.65 243.04ZM1132.93 238.12H1135.37V248H1133.11L1132.93 246.68C1132.33 247.62 1131.05 248.26 1129.73 248.26C1127.45 248.26 1126.11 246.72 1126.11 244.3V238.12H1128.55V243.44C1128.55 245.32 1129.29 246.08 1130.65 246.08C1132.19 246.08 1132.93 245.18 1132.93 243.3V238.12ZM1144.09 238.08V240.34H1143.19C1141.43 240.34 1140.33 241.28 1140.33 243.2V248H1137.89V238.14H1140.19L1140.33 239.58C1140.75 238.6 1141.69 237.94 1143.01 237.94C1143.35 237.94 1143.69 237.98 1144.09 238.08ZM1145.17 252.58V250.54H1146.63C1147.59 250.54 1148.19 250.32 1148.61 249.16L1148.89 248.42L1144.91 238.12H1147.49L1150.03 245.32L1152.71 238.12H1155.23L1150.39 250.2C1149.65 252.04 1148.61 252.8 1146.99 252.8C1146.31 252.8 1145.71 252.72 1145.17 252.58Z" fill="white"/>
</g>
<path id="Damage to the brain and the central peripheral nervous system causing behavioral changes, tremors, insomnia, memory loss" d="M1067.88 112H1062.62V97.38H1067.74C1072.06 97.38 1075.04 100.36 1075.04 104.72C1075.04 109.02 1072.12 112 1067.88 112ZM1067.5 99.74H1065.18V109.64H1067.64C1070.56 109.64 1072.34 107.76 1072.34 104.72C1072.34 101.62 1070.52 99.74 1067.5 99.74ZM1080.2 112.26C1078.1 112.26 1076.82 111.04 1076.82 109.18C1076.82 107.36 1078.14 106.22 1080.48 106.04L1083.44 105.82V105.6C1083.44 104.26 1082.64 103.72 1081.4 103.72C1079.96 103.72 1079.16 104.32 1079.16 105.36H1077.08C1077.08 103.22 1078.84 101.82 1081.52 101.82C1084.18 101.82 1085.82 103.26 1085.82 106V112H1083.68L1083.5 110.54C1083.08 111.56 1081.74 112.26 1080.2 112.26ZM1081 110.42C1082.5 110.42 1083.46 109.52 1083.46 108V107.48L1081.4 107.64C1079.88 107.78 1079.3 108.28 1079.3 109.08C1079.3 109.98 1079.9 110.42 1081 110.42ZM1090.86 112H1088.42V102.12H1090.66L1090.86 103.28C1091.36 102.46 1092.36 101.82 1093.78 101.82C1095.28 101.82 1096.32 102.56 1096.84 103.7C1097.34 102.56 1098.5 101.82 1100 101.82C1102.4 101.82 1103.72 103.26 1103.72 105.54V112H1101.3V106.18C1101.3 104.76 1100.54 104.02 1099.38 104.02C1098.2 104.02 1097.3 104.78 1097.3 106.4V112H1094.86V106.16C1094.86 104.78 1094.12 104.04 1092.96 104.04C1091.8 104.04 1090.86 104.8 1090.86 106.4V112ZM1109.26 112.26C1107.16 112.26 1105.88 111.04 1105.88 109.18C1105.88 107.36 1107.2 106.22 1109.54 106.04L1112.5 105.82V105.6C1112.5 104.26 1111.7 103.72 1110.46 103.72C1109.02 103.72 1108.22 104.32 1108.22 105.36H1106.14C1106.14 103.22 1107.9 101.82 1110.58 101.82C1113.24 101.82 1114.88 103.26 1114.88 106V112H1112.74L1112.56 110.54C1112.14 111.56 1110.8 112.26 1109.26 112.26ZM1110.06 110.42C1111.56 110.42 1112.52 109.52 1112.52 108V107.48L1110.46 107.64C1108.94 107.78 1108.36 108.28 1108.36 109.08C1108.36 109.98 1108.96 110.42 1110.06 110.42ZM1116.91 106.84C1116.91 103.96 1118.79 101.8 1121.61 101.8C1123.09 101.8 1124.25 102.42 1124.83 103.48L1124.97 102.12H1127.23V111.5C1127.23 114.8 1125.25 116.86 1122.05 116.86C1119.21 116.86 1117.27 115.24 1116.97 112.6H1119.41C1119.57 113.88 1120.55 114.64 1122.05 114.64C1123.73 114.64 1124.81 113.58 1124.81 111.94V110.3C1124.19 111.22 1122.97 111.8 1121.55 111.8C1118.75 111.8 1116.91 109.7 1116.91 106.84ZM1119.37 106.78C1119.37 108.44 1120.43 109.68 1122.03 109.68C1123.71 109.68 1124.75 108.5 1124.75 106.78C1124.75 105.1 1123.73 103.94 1122.03 103.94C1120.41 103.94 1119.37 105.16 1119.37 106.78ZM1134.38 112.26C1131.44 112.26 1129.38 110.12 1129.38 107.06C1129.38 103.96 1131.4 101.82 1134.3 101.82C1137.26 101.82 1139.14 103.8 1139.14 106.88V107.62L1131.7 107.64C1131.88 109.38 1132.8 110.26 1134.42 110.26C1135.76 110.26 1136.64 109.74 1136.92 108.8H1139.18C1138.76 110.96 1136.96 112.26 1134.38 112.26ZM1134.32 103.82C1132.88 103.82 1132 104.6 1131.76 106.08H1136.72C1136.72 104.72 1135.78 103.82 1134.32 103.82ZM1150.24 112H1147.8V104.16H1145.9V102.12H1147.8V99.04H1150.24V102.12H1152.16V104.16H1150.24V112ZM1153.2 107.04C1153.2 103.96 1155.42 101.84 1158.48 101.84C1161.54 101.84 1163.76 103.96 1163.76 107.04C1163.76 110.12 1161.54 112.24 1158.48 112.24C1155.42 112.24 1153.2 110.12 1153.2 107.04ZM1155.64 107.04C1155.64 108.84 1156.8 110.06 1158.48 110.06C1160.16 110.06 1161.32 108.84 1161.32 107.04C1161.32 105.24 1160.16 104.02 1158.48 104.02C1156.8 104.02 1155.64 105.24 1155.64 107.04ZM1174.85 112H1172.41V104.16H1170.51V102.12H1172.41V99.04H1174.85V102.12H1176.77V104.16H1174.85V112ZM1180.92 112H1178.48V97.12H1180.94V103.4C1181.56 102.44 1182.72 101.82 1184.14 101.82C1186.58 101.82 1187.86 103.36 1187.86 105.92V112H1185.42V106.5C1185.42 104.84 1184.6 104.04 1183.36 104.04C1181.82 104.04 1180.92 105.12 1180.92 106.6V112ZM1194.88 112.26C1191.94 112.26 1189.88 110.12 1189.88 107.06C1189.88 103.96 1191.9 101.82 1194.8 101.82C1197.76 101.82 1199.64 103.8 1199.64 106.88V107.62L1192.2 107.64C1192.38 109.38 1193.3 110.26 1194.92 110.26C1196.26 110.26 1197.14 109.74 1197.42 108.8H1199.68C1199.26 110.96 1197.46 112.26 1194.88 112.26ZM1194.82 103.82C1193.38 103.82 1192.5 104.6 1192.26 106.08H1197.22C1197.22 104.72 1196.28 103.82 1194.82 103.82ZM1209.64 112H1207.38V97.12H1209.82V103.56C1210.46 102.46 1211.78 101.8 1213.28 101.8C1216.1 101.8 1217.82 104 1217.82 107.12C1217.82 110.16 1215.96 112.26 1213.12 112.26C1211.64 112.26 1210.38 111.6 1209.8 110.46L1209.64 112ZM1209.84 107.02C1209.84 108.8 1210.94 110.02 1212.62 110.02C1214.34 110.02 1215.36 108.78 1215.36 107.02C1215.36 105.26 1214.34 104 1212.62 104C1210.94 104 1209.84 105.24 1209.84 107.02ZM1226.17 102.08V104.34H1225.27C1223.51 104.34 1222.41 105.28 1222.41 107.2V112H1219.97V102.14H1222.27L1222.41 103.58C1222.83 102.6 1223.77 101.94 1225.09 101.94C1225.43 101.94 1225.77 101.98 1226.17 102.08ZM1230.57 112.26C1228.47 112.26 1227.19 111.04 1227.19 109.18C1227.19 107.36 1228.51 106.22 1230.85 106.04L1233.81 105.82V105.6C1233.81 104.26 1233.01 103.72 1231.77 103.72C1230.33 103.72 1229.53 104.32 1229.53 105.36H1227.45C1227.45 103.22 1229.21 101.82 1231.89 101.82C1234.55 101.82 1236.19 103.26 1236.19 106V112H1234.05L1233.87 110.54C1233.45 111.56 1232.11 112.26 1230.57 112.26ZM1231.37 110.42C1232.87 110.42 1233.83 109.52 1233.83 108V107.48L1231.77 107.64C1230.25 107.78 1229.67 108.28 1229.67 109.08C1229.67 109.98 1230.27 110.42 1231.37 110.42ZM1240 100.14C1239.16 100.14 1238.5 99.48 1238.5 98.66C1238.5 97.84 1239.16 97.2 1240 97.2C1240.8 97.2 1241.46 97.84 1241.46 98.66C1241.46 99.48 1240.8 100.14 1240 100.14ZM1238.78 112V102.12H1241.22V112H1238.78ZM1246.39 112H1243.95V102.12H1246.21L1246.41 103.4C1247.03 102.4 1248.23 101.82 1249.57 101.82C1252.05 101.82 1253.33 103.36 1253.33 105.92V112H1250.89V106.5C1250.89 104.84 1250.07 104.04 1248.81 104.04C1247.31 104.04 1246.39 105.08 1246.39 106.68V112ZM1264.45 112.26C1262.35 112.26 1261.07 111.04 1261.07 109.18C1261.07 107.36 1262.39 106.22 1264.73 106.04L1267.69 105.82V105.6C1267.69 104.26 1266.89 103.72 1265.65 103.72C1264.21 103.72 1263.41 104.32 1263.41 105.36H1261.33C1261.33 103.22 1263.09 101.82 1265.77 101.82C1268.43 101.82 1270.07 103.26 1270.07 106V112H1267.93L1267.75 110.54C1267.33 111.56 1265.99 112.26 1264.45 112.26ZM1265.25 110.42C1266.75 110.42 1267.71 109.52 1267.71 108V107.48L1265.65 107.64C1264.13 107.78 1263.55 108.28 1263.55 109.08C1263.55 109.98 1264.15 110.42 1265.25 110.42ZM1275.11 112H1272.67V102.12H1274.93L1275.13 103.4C1275.75 102.4 1276.95 101.82 1278.29 101.82C1280.77 101.82 1282.05 103.36 1282.05 105.92V112H1279.61V106.5C1279.61 104.84 1278.79 104.04 1277.53 104.04C1276.03 104.04 1275.11 105.08 1275.11 106.68V112ZM1288.71 112.26C1285.85 112.26 1284.07 110.16 1284.07 107.1C1284.07 104.02 1285.87 101.82 1288.85 101.82C1290.23 101.82 1291.45 102.4 1292.07 103.38V97.12H1294.49V112H1292.25L1292.09 110.46C1291.49 111.6 1290.21 112.26 1288.71 112.26ZM1289.25 110.02C1290.95 110.02 1292.05 108.8 1292.05 107.02C1292.05 105.24 1290.95 104 1289.25 104C1287.55 104 1286.51 105.26 1286.51 107.02C1286.51 108.78 1287.55 110.02 1289.25 110.02ZM1306.18 112H1303.74V104.16H1301.84V102.12H1303.74V99.04H1306.18V102.12H1308.1V104.16H1306.18V112ZM1312.26 112H1309.82V97.12H1312.28V103.4C1312.9 102.44 1314.06 101.82 1315.48 101.82C1317.92 101.82 1319.2 103.36 1319.2 105.92V112H1316.76V106.5C1316.76 104.84 1315.94 104.04 1314.7 104.04C1313.16 104.04 1312.26 105.12 1312.26 106.6V112ZM1326.22 112.26C1323.28 112.26 1321.22 110.12 1321.22 107.06C1321.22 103.96 1323.24 101.82 1326.14 101.82C1329.1 101.82 1330.98 103.8 1330.98 106.88V107.62L1323.54 107.64C1323.72 109.38 1324.64 110.26 1326.26 110.26C1327.6 110.26 1328.48 109.74 1328.76 108.8H1331.02C1330.6 110.96 1328.8 112.26 1326.22 112.26ZM1326.16 103.82C1324.72 103.82 1323.84 104.6 1323.6 106.08H1328.56C1328.56 104.72 1327.62 103.82 1326.16 103.82ZM1061.68 133.04C1061.68 129.98 1063.7 127.82 1066.62 127.82C1069.32 127.82 1071.16 129.32 1071.42 131.7H1068.98C1068.7 130.58 1067.88 130 1066.72 130C1065.16 130 1064.12 131.18 1064.12 133.04C1064.12 134.9 1065.08 136.06 1066.64 136.06C1067.86 136.06 1068.72 135.46 1068.98 134.38H1071.44C1071.14 136.68 1069.22 138.26 1066.64 138.26C1063.64 138.26 1061.68 136.18 1061.68 133.04ZM1077.88 138.26C1074.94 138.26 1072.88 136.12 1072.88 133.06C1072.88 129.96 1074.9 127.82 1077.8 127.82C1080.76 127.82 1082.64 129.8 1082.64 132.88V133.62L1075.2 133.64C1075.38 135.38 1076.3 136.26 1077.92 136.26C1079.26 136.26 1080.14 135.74 1080.42 134.8H1082.68C1082.26 136.96 1080.46 138.26 1077.88 138.26ZM1077.82 129.82C1076.38 129.82 1075.5 130.6 1075.26 132.08H1080.22C1080.22 130.72 1079.28 129.82 1077.82 129.82ZM1087.23 138H1084.79V128.12H1087.05L1087.25 129.4C1087.87 128.4 1089.07 127.82 1090.41 127.82C1092.89 127.82 1094.17 129.36 1094.17 131.92V138H1091.73V132.5C1091.73 130.84 1090.91 130.04 1089.65 130.04C1088.15 130.04 1087.23 131.08 1087.23 132.68V138ZM1100.13 138H1097.69V130.16H1095.79V128.12H1097.69V125.04H1100.13V128.12H1102.05V130.16H1100.13V138ZM1109.96 128.08V130.34H1109.06C1107.3 130.34 1106.2 131.28 1106.2 133.2V138H1103.76V128.14H1106.06L1106.2 129.58C1106.62 128.6 1107.56 127.94 1108.88 127.94C1109.22 127.94 1109.56 127.98 1109.96 128.08ZM1114.36 138.26C1112.26 138.26 1110.98 137.04 1110.98 135.18C1110.98 133.36 1112.3 132.22 1114.64 132.04L1117.6 131.82V131.6C1117.6 130.26 1116.8 129.72 1115.56 129.72C1114.12 129.72 1113.32 130.32 1113.32 131.36H1111.24C1111.24 129.22 1113 127.82 1115.68 127.82C1118.34 127.82 1119.98 129.26 1119.98 132V138H1117.84L1117.66 136.54C1117.24 137.56 1115.9 138.26 1114.36 138.26ZM1115.16 136.42C1116.66 136.42 1117.62 135.52 1117.62 134V133.48L1115.56 133.64C1114.04 133.78 1113.46 134.28 1113.46 135.08C1113.46 135.98 1114.06 136.42 1115.16 136.42ZM1125.04 138H1122.62V123.12H1125.04V138ZM1133.39 142.58V128.12H1135.65L1135.81 129.62C1136.41 128.48 1137.71 127.82 1139.21 127.82C1141.99 127.82 1143.83 129.84 1143.83 132.94C1143.83 136.02 1142.15 138.26 1139.21 138.26C1137.73 138.26 1136.45 137.68 1135.83 136.68V142.58H1133.39ZM1135.85 133.06C1135.85 134.84 1136.95 136.06 1138.63 136.06C1140.35 136.06 1141.37 134.82 1141.37 133.06C1141.37 131.3 1140.35 130.04 1138.63 130.04C1136.95 130.04 1135.85 131.28 1135.85 133.06ZM1150.39 138.26C1147.45 138.26 1145.39 136.12 1145.39 133.06C1145.39 129.96 1147.41 127.82 1150.31 127.82C1153.27 127.82 1155.15 129.8 1155.15 132.88V133.62L1147.71 133.64C1147.89 135.38 1148.81 136.26 1150.43 136.26C1151.77 136.26 1152.65 135.74 1152.93 134.8H1155.19C1154.77 136.96 1152.97 138.26 1150.39 138.26ZM1150.33 129.82C1148.89 129.82 1148.01 130.6 1147.77 132.08H1152.73C1152.73 130.72 1151.79 129.82 1150.33 129.82ZM1163.51 128.08V130.34H1162.61C1160.85 130.34 1159.75 131.28 1159.75 133.2V138H1157.31V128.14H1159.61L1159.75 129.58C1160.17 128.6 1161.11 127.94 1162.43 127.94C1162.77 127.94 1163.11 127.98 1163.51 128.08ZM1166.58 126.14C1165.74 126.14 1165.08 125.48 1165.08 124.66C1165.08 123.84 1165.74 123.2 1166.58 123.2C1167.38 123.2 1168.04 123.84 1168.04 124.66C1168.04 125.48 1167.38 126.14 1166.58 126.14ZM1165.36 138V128.12H1167.8V138H1165.36ZM1170.52 142.58V128.12H1172.78L1172.94 129.62C1173.54 128.48 1174.84 127.82 1176.34 127.82C1179.12 127.82 1180.96 129.84 1180.96 132.94C1180.96 136.02 1179.28 138.26 1176.34 138.26C1174.86 138.26 1173.58 137.68 1172.96 136.68V142.58H1170.52ZM1172.98 133.06C1172.98 134.84 1174.08 136.06 1175.76 136.06C1177.48 136.06 1178.5 134.82 1178.5 133.06C1178.5 131.3 1177.48 130.04 1175.76 130.04C1174.08 130.04 1172.98 131.28 1172.98 133.06ZM1185.54 138H1183.1V123.12H1185.56V129.4C1186.18 128.44 1187.34 127.82 1188.76 127.82C1191.2 127.82 1192.48 129.36 1192.48 131.92V138H1190.04V132.5C1190.04 130.84 1189.22 130.04 1187.98 130.04C1186.44 130.04 1185.54 131.12 1185.54 132.6V138ZM1199.5 138.26C1196.56 138.26 1194.5 136.12 1194.5 133.06C1194.5 129.96 1196.52 127.82 1199.42 127.82C1202.38 127.82 1204.26 129.8 1204.26 132.88V133.62L1196.82 133.64C1197 135.38 1197.92 136.26 1199.54 136.26C1200.88 136.26 1201.76 135.74 1202.04 134.8H1204.3C1203.88 136.96 1202.08 138.26 1199.5 138.26ZM1199.44 129.82C1198 129.82 1197.12 130.6 1196.88 132.08H1201.84C1201.84 130.72 1200.9 129.82 1199.44 129.82ZM1212.61 128.08V130.34H1211.71C1209.95 130.34 1208.85 131.28 1208.85 133.2V138H1206.41V128.14H1208.71L1208.85 129.58C1209.27 128.6 1210.21 127.94 1211.53 127.94C1211.87 127.94 1212.21 127.98 1212.61 128.08ZM1217.01 138.26C1214.91 138.26 1213.63 137.04 1213.63 135.18C1213.63 133.36 1214.95 132.22 1217.29 132.04L1220.25 131.82V131.6C1220.25 130.26 1219.45 129.72 1218.21 129.72C1216.77 129.72 1215.97 130.32 1215.97 131.36H1213.89C1213.89 129.22 1215.65 127.82 1218.33 127.82C1220.99 127.82 1222.63 129.26 1222.63 132V138H1220.49L1220.31 136.54C1219.89 137.56 1218.55 138.26 1217.01 138.26ZM1217.81 136.42C1219.31 136.42 1220.27 135.52 1220.27 134V133.48L1218.21 133.64C1216.69 133.78 1216.11 134.28 1216.11 135.08C1216.11 135.98 1216.71 136.42 1217.81 136.42ZM1227.69 138H1225.27V123.12H1227.69V138ZM1238.48 138H1236.04V128.12H1238.3L1238.5 129.4C1239.12 128.4 1240.32 127.82 1241.66 127.82C1244.14 127.82 1245.42 129.36 1245.42 131.92V138H1242.98V132.5C1242.98 130.84 1242.16 130.04 1240.9 130.04C1239.4 130.04 1238.48 131.08 1238.48 132.68V138ZM1252.44 138.26C1249.5 138.26 1247.44 136.12 1247.44 133.06C1247.44 129.96 1249.46 127.82 1252.36 127.82C1255.32 127.82 1257.2 129.8 1257.2 132.88V133.62L1249.76 133.64C1249.94 135.38 1250.86 136.26 1252.48 136.26C1253.82 136.26 1254.7 135.74 1254.98 134.8H1257.24C1256.82 136.96 1255.02 138.26 1252.44 138.26ZM1252.38 129.82C1250.94 129.82 1250.06 130.6 1249.82 132.08H1254.78C1254.78 130.72 1253.84 129.82 1252.38 129.82ZM1265.55 128.08V130.34H1264.65C1262.89 130.34 1261.79 131.28 1261.79 133.2V138H1259.35V128.14H1261.65L1261.79 129.58C1262.21 128.6 1263.15 127.94 1264.47 127.94C1264.81 127.94 1265.15 127.98 1265.55 128.08ZM1270.5 138L1266.58 128.12H1269.18L1270.9 132.66C1271.32 133.84 1271.66 134.86 1271.78 135.4C1271.92 134.78 1272.28 133.74 1272.7 132.66L1274.5 128.12H1277.02L1272.9 138H1270.5ZM1277.55 133.04C1277.55 129.96 1279.77 127.84 1282.83 127.84C1285.89 127.84 1288.11 129.96 1288.11 133.04C1288.11 136.12 1285.89 138.24 1282.83 138.24C1279.77 138.24 1277.55 136.12 1277.55 133.04ZM1279.99 133.04C1279.99 134.84 1281.15 136.06 1282.83 136.06C1284.51 136.06 1285.67 134.84 1285.67 133.04C1285.67 131.24 1284.51 130.02 1282.83 130.02C1281.15 130.02 1279.99 131.24 1279.99 133.04ZM1296.71 128.12H1299.15V138H1296.89L1296.71 136.68C1296.11 137.62 1294.83 138.26 1293.51 138.26C1291.23 138.26 1289.89 136.72 1289.89 134.3V128.12H1292.33V133.44C1292.33 135.32 1293.07 136.08 1294.43 136.08C1295.97 136.08 1296.71 135.18 1296.71 133.3V128.12ZM1300.91 135H1303.23C1303.25 135.86 1303.89 136.4 1305.01 136.4C1306.15 136.4 1306.77 135.94 1306.77 135.22C1306.77 134.72 1306.51 134.36 1305.63 134.16L1303.85 133.74C1302.07 133.34 1301.21 132.5 1301.21 130.92C1301.21 128.98 1302.85 127.82 1305.13 127.82C1307.35 127.82 1308.85 129.1 1308.87 131.02H1306.55C1306.53 130.18 1305.97 129.64 1305.03 129.64C1304.07 129.64 1303.51 130.08 1303.51 130.82C1303.51 131.38 1303.95 131.74 1304.79 131.94L1306.57 132.36C1308.23 132.74 1309.07 133.5 1309.07 135.02C1309.07 137.02 1307.37 138.26 1304.93 138.26C1302.47 138.26 1300.91 136.94 1300.91 135ZM1061.5 161H1063.82C1063.84 161.86 1064.48 162.4 1065.6 162.4C1066.74 162.4 1067.36 161.94 1067.36 161.22C1067.36 160.72 1067.1 160.36 1066.22 160.16L1064.44 159.74C1062.66 159.34 1061.8 158.5 1061.8 156.92C1061.8 154.98 1063.44 153.82 1065.72 153.82C1067.94 153.82 1069.44 155.1 1069.46 157.02H1067.14C1067.12 156.18 1066.56 155.64 1065.62 155.64C1064.66 155.64 1064.1 156.08 1064.1 156.82C1064.1 157.38 1064.54 157.74 1065.38 157.94L1067.16 158.36C1068.82 158.74 1069.66 159.5 1069.66 161.02C1069.66 163.02 1067.96 164.26 1065.52 164.26C1063.06 164.26 1061.5 162.94 1061.5 161ZM1070.66 168.58V166.54H1072.12C1073.08 166.54 1073.68 166.32 1074.1 165.16L1074.38 164.42L1070.4 154.12H1072.98L1075.52 161.32L1078.2 154.12H1080.72L1075.88 166.2C1075.14 168.04 1074.1 168.8 1072.48 168.8C1071.8 168.8 1071.2 168.72 1070.66 168.58ZM1081.33 161H1083.65C1083.67 161.86 1084.31 162.4 1085.43 162.4C1086.57 162.4 1087.19 161.94 1087.19 161.22C1087.19 160.72 1086.93 160.36 1086.05 160.16L1084.27 159.74C1082.49 159.34 1081.63 158.5 1081.63 156.92C1081.63 154.98 1083.27 153.82 1085.55 153.82C1087.77 153.82 1089.27 155.1 1089.29 157.02H1086.97C1086.95 156.18 1086.39 155.64 1085.45 155.64C1084.49 155.64 1083.93 156.08 1083.93 156.82C1083.93 157.38 1084.37 157.74 1085.21 157.94L1086.99 158.36C1088.65 158.74 1089.49 159.5 1089.49 161.02C1089.49 163.02 1087.79 164.26 1085.35 164.26C1082.89 164.26 1081.33 162.94 1081.33 161ZM1094.91 164H1092.47V156.16H1090.57V154.12H1092.47V151.04H1094.91V154.12H1096.83V156.16H1094.91V164ZM1102.87 164.26C1099.93 164.26 1097.87 162.12 1097.87 159.06C1097.87 155.96 1099.89 153.82 1102.79 153.82C1105.75 153.82 1107.63 155.8 1107.63 158.88V159.62L1100.19 159.64C1100.37 161.38 1101.29 162.26 1102.91 162.26C1104.25 162.26 1105.13 161.74 1105.41 160.8H1107.67C1107.25 162.96 1105.45 164.26 1102.87 164.26ZM1102.81 155.82C1101.37 155.82 1100.49 156.6 1100.25 158.08H1105.21C1105.21 156.72 1104.27 155.82 1102.81 155.82ZM1112.22 164H1109.78V154.12H1112.02L1112.22 155.28C1112.72 154.46 1113.72 153.82 1115.14 153.82C1116.64 153.82 1117.68 154.56 1118.2 155.7C1118.7 154.56 1119.86 153.82 1121.36 153.82C1123.76 153.82 1125.08 155.26 1125.08 157.54V164H1122.66V158.18C1122.66 156.76 1121.9 156.02 1120.74 156.02C1119.56 156.02 1118.66 156.78 1118.66 158.4V164H1116.22V158.16C1116.22 156.78 1115.48 156.04 1114.32 156.04C1113.16 156.04 1112.22 156.8 1112.22 158.4V164ZM1132.69 159.04C1132.69 155.98 1134.71 153.82 1137.63 153.82C1140.33 153.82 1142.17 155.32 1142.43 157.7H1139.99C1139.71 156.58 1138.89 156 1137.73 156C1136.17 156 1135.13 157.18 1135.13 159.04C1135.13 160.9 1136.09 162.06 1137.65 162.06C1138.87 162.06 1139.73 161.46 1139.99 160.38H1142.45C1142.15 162.68 1140.23 164.26 1137.65 164.26C1134.65 164.26 1132.69 162.18 1132.69 159.04ZM1147.41 164.26C1145.31 164.26 1144.03 163.04 1144.03 161.18C1144.03 159.36 1145.35 158.22 1147.69 158.04L1150.65 157.82V157.6C1150.65 156.26 1149.85 155.72 1148.61 155.72C1147.17 155.72 1146.37 156.32 1146.37 157.36H1144.29C1144.29 155.22 1146.05 153.82 1148.73 153.82C1151.39 153.82 1153.03 155.26 1153.03 158V164H1150.89L1150.71 162.54C1150.29 163.56 1148.95 164.26 1147.41 164.26ZM1148.21 162.42C1149.71 162.42 1150.67 161.52 1150.67 160V159.48L1148.61 159.64C1147.09 159.78 1146.51 160.28 1146.51 161.08C1146.51 161.98 1147.11 162.42 1148.21 162.42ZM1162.32 154.12H1164.76V164H1162.5L1162.32 162.68C1161.72 163.62 1160.44 164.26 1159.12 164.26C1156.84 164.26 1155.5 162.72 1155.5 160.3V154.12H1157.94V159.44C1157.94 161.32 1158.68 162.08 1160.04 162.08C1161.58 162.08 1162.32 161.18 1162.32 159.3V154.12ZM1166.53 161H1168.85C1168.87 161.86 1169.51 162.4 1170.63 162.4C1171.77 162.4 1172.39 161.94 1172.39 161.22C1172.39 160.72 1172.13 160.36 1171.25 160.16L1169.47 159.74C1167.69 159.34 1166.83 158.5 1166.83 156.92C1166.83 154.98 1168.47 153.82 1170.75 153.82C1172.97 153.82 1174.47 155.1 1174.49 157.02H1172.17C1172.15 156.18 1171.59 155.64 1170.65 155.64C1169.69 155.64 1169.13 156.08 1169.13 156.82C1169.13 157.38 1169.57 157.74 1170.41 157.94L1172.19 158.36C1173.85 158.74 1174.69 159.5 1174.69 161.02C1174.69 163.02 1172.99 164.26 1170.55 164.26C1168.09 164.26 1166.53 162.94 1166.53 161ZM1177.97 152.14C1177.13 152.14 1176.47 151.48 1176.47 150.66C1176.47 149.84 1177.13 149.2 1177.97 149.2C1178.77 149.2 1179.43 149.84 1179.43 150.66C1179.43 151.48 1178.77 152.14 1177.97 152.14ZM1176.75 164V154.12H1179.19V164H1176.75ZM1184.35 164H1181.91V154.12H1184.17L1184.37 155.4C1184.99 154.4 1186.19 153.82 1187.53 153.82C1190.01 153.82 1191.29 155.36 1191.29 157.92V164H1188.85V158.5C1188.85 156.84 1188.03 156.04 1186.77 156.04C1185.27 156.04 1184.35 157.08 1184.35 158.68V164ZM1193.32 158.84C1193.32 155.96 1195.2 153.8 1198.02 153.8C1199.5 153.8 1200.66 154.42 1201.24 155.48L1201.38 154.12H1203.64V163.5C1203.64 166.8 1201.66 168.86 1198.46 168.86C1195.62 168.86 1193.68 167.24 1193.38 164.6H1195.82C1195.98 165.88 1196.96 166.64 1198.46 166.64C1200.14 166.64 1201.22 165.58 1201.22 163.94V162.3C1200.6 163.22 1199.38 163.8 1197.96 163.8C1195.16 163.8 1193.32 161.7 1193.32 158.84ZM1195.78 158.78C1195.78 160.44 1196.84 161.68 1198.44 161.68C1200.12 161.68 1201.16 160.5 1201.16 158.78C1201.16 157.1 1200.14 155.94 1198.44 155.94C1196.82 155.94 1195.78 157.16 1195.78 158.78ZM1214.22 164H1211.96V149.12H1214.4V155.56C1215.04 154.46 1216.36 153.8 1217.86 153.8C1220.68 153.8 1222.4 156 1222.4 159.12C1222.4 162.16 1220.54 164.26 1217.7 164.26C1216.22 164.26 1214.96 163.6 1214.38 162.46L1214.22 164ZM1214.42 159.02C1214.42 160.8 1215.52 162.02 1217.2 162.02C1218.92 162.02 1219.94 160.78 1219.94 159.02C1219.94 157.26 1218.92 156 1217.2 156C1215.52 156 1214.42 157.24 1214.42 159.02ZM1228.96 164.26C1226.02 164.26 1223.96 162.12 1223.96 159.06C1223.96 155.96 1225.98 153.82 1228.88 153.82C1231.84 153.82 1233.72 155.8 1233.72 158.88V159.62L1226.28 159.64C1226.46 161.38 1227.38 162.26 1229 162.26C1230.34 162.26 1231.22 161.74 1231.5 160.8H1233.76C1233.34 162.96 1231.54 164.26 1228.96 164.26ZM1228.9 155.82C1227.46 155.82 1226.58 156.6 1226.34 158.08H1231.3C1231.3 156.72 1230.36 155.82 1228.9 155.82ZM1238.31 164H1235.87V149.12H1238.33V155.4C1238.95 154.44 1240.11 153.82 1241.53 153.82C1243.97 153.82 1245.25 155.36 1245.25 157.92V164H1242.81V158.5C1242.81 156.84 1241.99 156.04 1240.75 156.04C1239.21 156.04 1238.31 157.12 1238.31 158.6V164ZM1250.79 164.26C1248.69 164.26 1247.41 163.04 1247.41 161.18C1247.41 159.36 1248.73 158.22 1251.07 158.04L1254.03 157.82V157.6C1254.03 156.26 1253.23 155.72 1251.99 155.72C1250.55 155.72 1249.75 156.32 1249.75 157.36H1247.67C1247.67 155.22 1249.43 153.82 1252.11 153.82C1254.77 153.82 1256.41 155.26 1256.41 158V164H1254.27L1254.09 162.54C1253.67 163.56 1252.33 164.26 1250.79 164.26ZM1251.59 162.42C1253.09 162.42 1254.05 161.52 1254.05 160V159.48L1251.99 159.64C1250.47 159.78 1249.89 160.28 1249.89 161.08C1249.89 161.98 1250.49 162.42 1251.59 162.42ZM1261.42 164L1257.5 154.12H1260.1L1261.82 158.66C1262.24 159.84 1262.58 160.86 1262.7 161.4C1262.84 160.78 1263.2 159.74 1263.62 158.66L1265.42 154.12H1267.94L1263.82 164H1261.42ZM1270.76 152.14C1269.92 152.14 1269.26 151.48 1269.26 150.66C1269.26 149.84 1269.92 149.2 1270.76 149.2C1271.56 149.2 1272.22 149.84 1272.22 150.66C1272.22 151.48 1271.56 152.14 1270.76 152.14ZM1269.54 164V154.12H1271.98V164H1269.54ZM1274.12 159.04C1274.12 155.96 1276.34 153.84 1279.4 153.84C1282.46 153.84 1284.68 155.96 1284.68 159.04C1284.68 162.12 1282.46 164.24 1279.4 164.24C1276.34 164.24 1274.12 162.12 1274.12 159.04ZM1276.56 159.04C1276.56 160.84 1277.72 162.06 1279.4 162.06C1281.08 162.06 1282.24 160.84 1282.24 159.04C1282.24 157.24 1281.08 156.02 1279.4 156.02C1277.72 156.02 1276.56 157.24 1276.56 159.04ZM1293.02 154.08V156.34H1292.12C1290.36 156.34 1289.26 157.28 1289.26 159.2V164H1286.82V154.14H1289.12L1289.26 155.58C1289.68 154.6 1290.62 153.94 1291.94 153.94C1292.28 153.94 1292.62 153.98 1293.02 154.08ZM1297.42 164.26C1295.32 164.26 1294.04 163.04 1294.04 161.18C1294.04 159.36 1295.36 158.22 1297.7 158.04L1300.66 157.82V157.6C1300.66 156.26 1299.86 155.72 1298.62 155.72C1297.18 155.72 1296.38 156.32 1296.38 157.36H1294.3C1294.3 155.22 1296.06 153.82 1298.74 153.82C1301.4 153.82 1303.04 155.26 1303.04 158V164H1300.9L1300.72 162.54C1300.3 163.56 1298.96 164.26 1297.42 164.26ZM1298.22 162.42C1299.72 162.42 1300.68 161.52 1300.68 160V159.48L1298.62 159.64C1297.1 159.78 1296.52 160.28 1296.52 161.08C1296.52 161.98 1297.12 162.42 1298.22 162.42ZM1308.09 164H1305.67V149.12H1308.09V164ZM1061.68 185.04C1061.68 181.98 1063.7 179.82 1066.62 179.82C1069.32 179.82 1071.16 181.32 1071.42 183.7H1068.98C1068.7 182.58 1067.88 182 1066.72 182C1065.16 182 1064.12 183.18 1064.12 185.04C1064.12 186.9 1065.08 188.06 1066.64 188.06C1067.86 188.06 1068.72 187.46 1068.98 186.38H1071.44C1071.14 188.68 1069.22 190.26 1066.64 190.26C1063.64 190.26 1061.68 188.18 1061.68 185.04ZM1075.9 190H1073.46V175.12H1075.92V181.4C1076.54 180.44 1077.7 179.82 1079.12 179.82C1081.56 179.82 1082.84 181.36 1082.84 183.92V190H1080.4V184.5C1080.4 182.84 1079.58 182.04 1078.34 182.04C1076.8 182.04 1075.9 183.12 1075.9 184.6V190ZM1088.37 190.26C1086.27 190.26 1084.99 189.04 1084.99 187.18C1084.99 185.36 1086.31 184.22 1088.65 184.04L1091.61 183.82V183.6C1091.61 182.26 1090.81 181.72 1089.57 181.72C1088.13 181.72 1087.33 182.32 1087.33 183.36H1085.25C1085.25 181.22 1087.01 179.82 1089.69 179.82C1092.35 179.82 1093.99 181.26 1093.99 184V190H1091.85L1091.67 188.54C1091.25 189.56 1089.91 190.26 1088.37 190.26ZM1089.17 188.42C1090.67 188.42 1091.63 187.52 1091.63 186V185.48L1089.57 185.64C1088.05 185.78 1087.47 186.28 1087.47 187.08C1087.47 187.98 1088.07 188.42 1089.17 188.42ZM1099.03 190H1096.59V180.12H1098.85L1099.05 181.4C1099.67 180.4 1100.87 179.82 1102.21 179.82C1104.69 179.82 1105.97 181.36 1105.97 183.92V190H1103.53V184.5C1103.53 182.84 1102.71 182.04 1101.45 182.04C1099.95 182.04 1099.03 183.08 1099.03 184.68V190ZM1108.01 184.84C1108.01 181.96 1109.89 179.8 1112.71 179.8C1114.19 179.8 1115.35 180.42 1115.93 181.48L1116.07 180.12H1118.33V189.5C1118.33 192.8 1116.35 194.86 1113.15 194.86C1110.31 194.86 1108.37 193.24 1108.07 190.6H1110.51C1110.67 191.88 1111.65 192.64 1113.15 192.64C1114.83 192.64 1115.91 191.58 1115.91 189.94V188.3C1115.29 189.22 1114.07 189.8 1112.65 189.8C1109.85 189.8 1108.01 187.7 1108.01 184.84ZM1110.47 184.78C1110.47 186.44 1111.53 187.68 1113.13 187.68C1114.81 187.68 1115.85 186.5 1115.85 184.78C1115.85 183.1 1114.83 181.94 1113.13 181.94C1111.51 181.94 1110.47 183.16 1110.47 184.78ZM1125.47 190.26C1122.53 190.26 1120.47 188.12 1120.47 185.06C1120.47 181.96 1122.49 179.82 1125.39 179.82C1128.35 179.82 1130.23 181.8 1130.23 184.88V185.62L1122.79 185.64C1122.97 187.38 1123.89 188.26 1125.51 188.26C1126.85 188.26 1127.73 187.74 1128.01 186.8H1130.27C1129.85 188.96 1128.05 190.26 1125.47 190.26ZM1125.41 181.82C1123.97 181.82 1123.09 182.6 1122.85 184.08H1127.81C1127.81 182.72 1126.87 181.82 1125.41 181.82ZM1131.63 187H1133.95C1133.97 187.86 1134.61 188.4 1135.73 188.4C1136.87 188.4 1137.49 187.94 1137.49 187.22C1137.49 186.72 1137.23 186.36 1136.35 186.16L1134.57 185.74C1132.79 185.34 1131.93 184.5 1131.93 182.92C1131.93 180.98 1133.57 179.82 1135.85 179.82C1138.07 179.82 1139.57 181.1 1139.59 183.02H1137.27C1137.25 182.18 1136.69 181.64 1135.75 181.64C1134.79 181.64 1134.23 182.08 1134.23 182.82C1134.23 183.38 1134.67 183.74 1135.51 183.94L1137.29 184.36C1138.95 184.74 1139.79 185.5 1139.79 187.02C1139.79 189.02 1138.09 190.26 1135.65 190.26C1133.19 190.26 1131.63 188.94 1131.63 187ZM1145.05 189.12C1145.05 190.78 1143.85 192.1 1142.23 192.3V191.32C1143.13 191.16 1143.81 190.62 1143.81 189.92C1143.65 190 1143.47 190.04 1143.23 190.04C1142.45 190.04 1141.81 189.46 1141.81 188.66C1141.81 187.7 1142.43 187.06 1143.33 187.06C1144.33 187.06 1145.05 187.88 1145.05 189.12ZM1156.76 190H1154.32V182.16H1152.42V180.12H1154.32V177.04H1156.76V180.12H1158.68V182.16H1156.76V190ZM1166.59 180.08V182.34H1165.69C1163.93 182.34 1162.83 183.28 1162.83 185.2V190H1160.39V180.14H1162.69L1162.83 181.58C1163.25 180.6 1164.19 179.94 1165.51 179.94C1165.85 179.94 1166.19 179.98 1166.59 180.08ZM1172.53 190.26C1169.59 190.26 1167.53 188.12 1167.53 185.06C1167.53 181.96 1169.55 179.82 1172.45 179.82C1175.41 179.82 1177.29 181.8 1177.29 184.88V185.62L1169.85 185.64C1170.03 187.38 1170.95 188.26 1172.57 188.26C1173.91 188.26 1174.79 187.74 1175.07 186.8H1177.33C1176.91 188.96 1175.11 190.26 1172.53 190.26ZM1172.47 181.82C1171.03 181.82 1170.15 182.6 1169.91 184.08H1174.87C1174.87 182.72 1173.93 181.82 1172.47 181.82ZM1181.89 190H1179.45V180.12H1181.69L1181.89 181.28C1182.39 180.46 1183.39 179.82 1184.81 179.82C1186.31 179.82 1187.35 180.56 1187.87 181.7C1188.37 180.56 1189.53 179.82 1191.03 179.82C1193.43 179.82 1194.75 181.26 1194.75 183.54V190H1192.33V184.18C1192.33 182.76 1191.57 182.02 1190.41 182.02C1189.23 182.02 1188.33 182.78 1188.33 184.4V190H1185.89V184.16C1185.89 182.78 1185.15 182.04 1183.99 182.04C1182.83 182.04 1181.89 182.8 1181.89 184.4V190ZM1196.76 185.04C1196.76 181.96 1198.98 179.84 1202.04 179.84C1205.1 179.84 1207.32 181.96 1207.32 185.04C1207.32 188.12 1205.1 190.24 1202.04 190.24C1198.98 190.24 1196.76 188.12 1196.76 185.04ZM1199.2 185.04C1199.2 186.84 1200.36 188.06 1202.04 188.06C1203.72 188.06 1204.88 186.84 1204.88 185.04C1204.88 183.24 1203.72 182.02 1202.04 182.02C1200.36 182.02 1199.2 183.24 1199.2 185.04ZM1215.65 180.08V182.34H1214.75C1212.99 182.34 1211.89 183.28 1211.89 185.2V190H1209.45V180.14H1211.75L1211.89 181.58C1212.31 180.6 1213.25 179.94 1214.57 179.94C1214.91 179.94 1215.25 179.98 1215.65 180.08ZM1216.75 187H1219.07C1219.09 187.86 1219.73 188.4 1220.85 188.4C1221.99 188.4 1222.61 187.94 1222.61 187.22C1222.61 186.72 1222.35 186.36 1221.47 186.16L1219.69 185.74C1217.91 185.34 1217.05 184.5 1217.05 182.92C1217.05 180.98 1218.69 179.82 1220.97 179.82C1223.19 179.82 1224.69 181.1 1224.71 183.02H1222.39C1222.37 182.18 1221.81 181.64 1220.87 181.64C1219.91 181.64 1219.35 182.08 1219.35 182.82C1219.35 183.38 1219.79 183.74 1220.63 183.94L1222.41 184.36C1224.07 184.74 1224.91 185.5 1224.91 187.02C1224.91 189.02 1223.21 190.26 1220.77 190.26C1218.31 190.26 1216.75 188.94 1216.75 187ZM1230.17 189.12C1230.17 190.78 1228.97 192.1 1227.35 192.3V191.32C1228.25 191.16 1228.93 190.62 1228.93 189.92C1228.77 190 1228.59 190.04 1228.35 190.04C1227.57 190.04 1226.93 189.46 1226.93 188.66C1226.93 187.7 1227.55 187.06 1228.45 187.06C1229.45 187.06 1230.17 187.88 1230.17 189.12ZM1239.74 178.14C1238.9 178.14 1238.24 177.48 1238.24 176.66C1238.24 175.84 1238.9 175.2 1239.74 175.2C1240.54 175.2 1241.2 175.84 1241.2 176.66C1241.2 177.48 1240.54 178.14 1239.74 178.14ZM1238.52 190V180.12H1240.96V190H1238.52ZM1246.12 190H1243.68V180.12H1245.94L1246.14 181.4C1246.76 180.4 1247.96 179.82 1249.3 179.82C1251.78 179.82 1253.06 181.36 1253.06 183.92V190H1250.62V184.5C1250.62 182.84 1249.8 182.04 1248.54 182.04C1247.04 182.04 1246.12 183.08 1246.12 184.68V190ZM1254.78 187H1257.1C1257.12 187.86 1257.76 188.4 1258.88 188.4C1260.02 188.4 1260.64 187.94 1260.64 187.22C1260.64 186.72 1260.38 186.36 1259.5 186.16L1257.72 185.74C1255.94 185.34 1255.08 184.5 1255.08 182.92C1255.08 180.98 1256.72 179.82 1259 179.82C1261.22 179.82 1262.72 181.1 1262.74 183.02H1260.42C1260.4 182.18 1259.84 181.64 1258.9 181.64C1257.94 181.64 1257.38 182.08 1257.38 182.82C1257.38 183.38 1257.82 183.74 1258.66 183.94L1260.44 184.36C1262.1 184.74 1262.94 185.5 1262.94 187.02C1262.94 189.02 1261.24 190.26 1258.8 190.26C1256.34 190.26 1254.78 188.94 1254.78 187ZM1264.42 185.04C1264.42 181.96 1266.64 179.84 1269.7 179.84C1272.76 179.84 1274.98 181.96 1274.98 185.04C1274.98 188.12 1272.76 190.24 1269.7 190.24C1266.64 190.24 1264.42 188.12 1264.42 185.04ZM1266.86 185.04C1266.86 186.84 1268.02 188.06 1269.7 188.06C1271.38 188.06 1272.54 186.84 1272.54 185.04C1272.54 183.24 1271.38 182.02 1269.7 182.02C1268.02 182.02 1266.86 183.24 1266.86 185.04ZM1279.55 190H1277.11V180.12H1279.35L1279.55 181.28C1280.05 180.46 1281.05 179.82 1282.47 179.82C1283.97 179.82 1285.01 180.56 1285.53 181.7C1286.03 180.56 1287.19 179.82 1288.69 179.82C1291.09 179.82 1292.41 181.26 1292.41 183.54V190H1289.99V184.18C1289.99 182.76 1289.23 182.02 1288.07 182.02C1286.89 182.02 1285.99 182.78 1285.99 184.4V190H1283.55V184.16C1283.55 182.78 1282.81 182.04 1281.65 182.04C1280.49 182.04 1279.55 182.8 1279.55 184.4V190ZM1297.44 190H1295V180.12H1297.26L1297.46 181.4C1298.08 180.4 1299.28 179.82 1300.62 179.82C1303.1 179.82 1304.38 181.36 1304.38 183.92V190H1301.94V184.5C1301.94 182.84 1301.12 182.04 1299.86 182.04C1298.36 182.04 1297.44 183.08 1297.44 184.68V190ZM1308.2 178.14C1307.36 178.14 1306.7 177.48 1306.7 176.66C1306.7 175.84 1307.36 175.2 1308.2 175.2C1309 175.2 1309.66 175.84 1309.66 176.66C1309.66 177.48 1309 178.14 1308.2 178.14ZM1306.98 190V180.12H1309.42V190H1306.98ZM1315.08 190.26C1312.98 190.26 1311.7 189.04 1311.7 187.18C1311.7 185.36 1313.02 184.22 1315.36 184.04L1318.32 183.82V183.6C1318.32 182.26 1317.52 181.72 1316.28 181.72C1314.84 181.72 1314.04 182.32 1314.04 183.36H1311.96C1311.96 181.22 1313.72 179.82 1316.4 179.82C1319.06 179.82 1320.7 181.26 1320.7 184V190H1318.56L1318.38 188.54C1317.96 189.56 1316.62 190.26 1315.08 190.26ZM1315.88 188.42C1317.38 188.42 1318.34 187.52 1318.34 186V185.48L1316.28 185.64C1314.76 185.78 1314.18 186.28 1314.18 187.08C1314.18 187.98 1314.78 188.42 1315.88 188.42ZM1326.56 189.12C1326.56 190.78 1325.36 192.1 1323.74 192.3V191.32C1324.64 191.16 1325.32 190.62 1325.32 189.92C1325.16 190 1324.98 190.04 1324.74 190.04C1323.96 190.04 1323.32 189.46 1323.32 188.66C1323.32 187.7 1323.94 187.06 1324.84 187.06C1325.84 187.06 1326.56 187.88 1326.56 189.12ZM1064.7 216H1062.26V206.12H1064.5L1064.7 207.28C1065.2 206.46 1066.2 205.82 1067.62 205.82C1069.12 205.82 1070.16 206.56 1070.68 207.7C1071.18 206.56 1072.34 205.82 1073.84 205.82C1076.24 205.82 1077.56 207.26 1077.56 209.54V216H1075.14V210.18C1075.14 208.76 1074.38 208.02 1073.22 208.02C1072.04 208.02 1071.14 208.78 1071.14 210.4V216H1068.7V210.16C1068.7 208.78 1067.96 208.04 1066.8 208.04C1065.64 208.04 1064.7 208.8 1064.7 210.4V216ZM1084.58 216.26C1081.64 216.26 1079.58 214.12 1079.58 211.06C1079.58 207.96 1081.6 205.82 1084.5 205.82C1087.46 205.82 1089.34 207.8 1089.34 210.88V211.62L1081.9 211.64C1082.08 213.38 1083 214.26 1084.62 214.26C1085.96 214.26 1086.84 213.74 1087.12 212.8H1089.38C1088.96 214.96 1087.16 216.26 1084.58 216.26ZM1084.52 207.82C1083.08 207.82 1082.2 208.6 1081.96 210.08H1086.92C1086.92 208.72 1085.98 207.82 1084.52 207.82ZM1093.93 216H1091.49V206.12H1093.73L1093.93 207.28C1094.43 206.46 1095.43 205.82 1096.85 205.82C1098.35 205.82 1099.39 206.56 1099.91 207.7C1100.41 206.56 1101.57 205.82 1103.07 205.82C1105.47 205.82 1106.79 207.26 1106.79 209.54V216H1104.37V210.18C1104.37 208.76 1103.61 208.02 1102.45 208.02C1101.27 208.02 1100.37 208.78 1100.37 210.4V216H1097.93V210.16C1097.93 208.78 1097.19 208.04 1096.03 208.04C1094.87 208.04 1093.93 208.8 1093.93 210.4V216ZM1108.8 211.04C1108.8 207.96 1111.02 205.84 1114.08 205.84C1117.14 205.84 1119.36 207.96 1119.36 211.04C1119.36 214.12 1117.14 216.24 1114.08 216.24C1111.02 216.24 1108.8 214.12 1108.8 211.04ZM1111.24 211.04C1111.24 212.84 1112.4 214.06 1114.08 214.06C1115.76 214.06 1116.92 212.84 1116.92 211.04C1116.92 209.24 1115.76 208.02 1114.08 208.02C1112.4 208.02 1111.24 209.24 1111.24 211.04ZM1127.7 206.08V208.34H1126.8C1125.04 208.34 1123.94 209.28 1123.94 211.2V216H1121.5V206.14H1123.8L1123.94 207.58C1124.36 206.6 1125.3 205.94 1126.62 205.94C1126.96 205.94 1127.3 205.98 1127.7 206.08ZM1128.98 220.58V218.54H1130.44C1131.4 218.54 1132 218.32 1132.42 217.16L1132.7 216.42L1128.72 206.12H1131.3L1133.84 213.32L1136.52 206.12H1139.04L1134.2 218.2C1133.46 220.04 1132.42 220.8 1130.8 220.8C1130.12 220.8 1129.52 220.72 1128.98 220.58ZM1148.68 216H1146.26V201.12H1148.68V216ZM1150.86 211.04C1150.86 207.96 1153.08 205.84 1156.14 205.84C1159.2 205.84 1161.42 207.96 1161.42 211.04C1161.42 214.12 1159.2 216.24 1156.14 216.24C1153.08 216.24 1150.86 214.12 1150.86 211.04ZM1153.3 211.04C1153.3 212.84 1154.46 214.06 1156.14 214.06C1157.82 214.06 1158.98 212.84 1158.98 211.04C1158.98 209.24 1157.82 208.02 1156.14 208.02C1154.46 208.02 1153.3 209.24 1153.3 211.04ZM1162.79 213H1165.11C1165.13 213.86 1165.77 214.4 1166.89 214.4C1168.03 214.4 1168.65 213.94 1168.65 213.22C1168.65 212.72 1168.39 212.36 1167.51 212.16L1165.73 211.74C1163.95 211.34 1163.09 210.5 1163.09 208.92C1163.09 206.98 1164.73 205.82 1167.01 205.82C1169.23 205.82 1170.73 207.1 1170.75 209.02H1168.43C1168.41 208.18 1167.85 207.64 1166.91 207.64C1165.95 207.64 1165.39 208.08 1165.39 208.82C1165.39 209.38 1165.83 209.74 1166.67 209.94L1168.45 210.36C1170.11 210.74 1170.95 211.5 1170.95 213.02C1170.95 215.02 1169.25 216.26 1166.81 216.26C1164.35 216.26 1162.79 214.94 1162.79 213ZM1172.25 213H1174.57C1174.59 213.86 1175.23 214.4 1176.35 214.4C1177.49 214.4 1178.11 213.94 1178.11 213.22C1178.11 212.72 1177.85 212.36 1176.97 212.16L1175.19 211.74C1173.41 211.34 1172.55 210.5 1172.55 208.92C1172.55 206.98 1174.19 205.82 1176.47 205.82C1178.69 205.82 1180.19 207.1 1180.21 209.02H1177.89C1177.87 208.18 1177.31 207.64 1176.37 207.64C1175.41 207.64 1174.85 208.08 1174.85 208.82C1174.85 209.38 1175.29 209.74 1176.13 209.94L1177.91 210.36C1179.57 210.74 1180.41 211.5 1180.41 213.02C1180.41 215.02 1178.71 216.26 1176.27 216.26C1173.81 216.26 1172.25 214.94 1172.25 213Z" fill="black"/>
<path id="Vector 2249_5" d="M973 143L1051 143" stroke="black" stroke-width="3" stroke-linecap="round"/>
</g>
<g id="centroids">
<circle id="0_DOT" cx="965.023" cy="142.732" r="3.2342" fill="#FF0000"/>
<circle id="1_DOT" cx="956.398" cy="125.483" r="3.2342" fill="#FF0000"/>
<circle id="2_DOT" cx="997.359" cy="337.862" r="3.2342" fill="#FF0000"/>
<circle id="3_DOT" cx="969.336" cy="195.558" r="3.2342" fill="#FF0000"/>
<circle id="4_DOT" cx="948.851" cy="300.13" r="3.2342" fill="#FF0000"/>
</g>
</g>
</svg>
