<svg width="1920" height="1080" viewBox="0 0 1920 1080" fill="none" xmlns="http://www.w3.org/2000/svg">
<g id="ASSET ANIMATION D9 Cancer">
<g id="1_TEXT">
<path id="Cancer" d="M695.394 317.377C691.134 317.377 688.374 314.417 688.374 309.837C688.374 305.297 691.234 302.277 695.514 302.277C698.974 302.277 701.554 304.297 702.054 307.437H699.354C698.854 305.737 697.394 304.737 695.454 304.737C692.754 304.737 691.054 306.697 691.054 309.817C691.054 312.917 692.774 314.917 695.454 314.917C697.434 314.917 698.954 313.877 699.434 312.257H702.094C701.534 315.337 698.854 317.377 695.394 317.377ZM706.974 317.397C704.874 317.397 703.594 316.177 703.594 314.317C703.594 312.497 704.914 311.357 707.254 311.177L710.214 310.957V310.737C710.214 309.397 709.414 308.857 708.174 308.857C706.734 308.857 705.934 309.457 705.934 310.497H703.854C703.854 308.357 705.614 306.957 708.294 306.957C710.954 306.957 712.594 308.397 712.594 311.137V317.137H710.454L710.274 315.677C709.854 316.697 708.514 317.397 706.974 317.397ZM707.774 315.557C709.274 315.557 710.234 314.657 710.234 313.137V312.617L708.174 312.777C706.654 312.917 706.074 313.417 706.074 314.217C706.074 315.117 706.674 315.557 707.774 315.557ZM717.631 317.137H715.191V307.257H717.451L717.651 308.537C718.271 307.537 719.471 306.957 720.811 306.957C723.291 306.957 724.571 308.497 724.571 311.057V317.137H722.131V311.637C722.131 309.977 721.311 309.177 720.051 309.177C718.551 309.177 717.631 310.217 717.631 311.817V317.137ZM726.589 312.177C726.589 309.117 728.609 306.957 731.529 306.957C734.229 306.957 736.069 308.457 736.329 310.837H733.889C733.609 309.717 732.789 309.137 731.629 309.137C730.069 309.137 729.029 310.317 729.029 312.177C729.029 314.037 729.989 315.197 731.549 315.197C732.769 315.197 733.629 314.597 733.889 313.517H736.349C736.049 315.817 734.129 317.397 731.549 317.397C728.549 317.397 726.589 315.317 726.589 312.177ZM742.785 317.397C739.845 317.397 737.785 315.257 737.785 312.197C737.785 309.097 739.805 306.957 742.705 306.957C745.665 306.957 747.545 308.937 747.545 312.017V312.757L740.105 312.777C740.285 314.517 741.205 315.397 742.825 315.397C744.165 315.397 745.045 314.877 745.325 313.937H747.585C747.165 316.097 745.365 317.397 742.785 317.397ZM742.725 308.957C741.285 308.957 740.405 309.737 740.165 311.217H745.125C745.125 309.857 744.185 308.957 742.725 308.957ZM755.898 307.217V309.477H754.998C753.238 309.477 752.138 310.417 752.138 312.337V317.137H749.698V307.277H751.998L752.138 308.717C752.558 307.737 753.498 307.077 754.818 307.077C755.158 307.077 755.498 307.117 755.898 307.217Z" fill="black"/>
<path id="Vector 2249" d="M950.469 312.137H763.594" stroke="black" stroke-width="3" stroke-linecap="round"/>
<g id="B_ARSENIC">
<rect id="Rectangle 4863" x="687.594" y="359.137" width="122" height="27.5" rx="13.75" fill="#C064E4"/>
<path id="text" d="M716.679 380.137H714.019L719.299 365.517H721.919L727.199 380.137H724.499L723.319 376.757H717.859L716.679 380.137ZM720.279 369.877L718.619 374.597H722.579L720.899 369.877C720.779 369.497 720.639 369.057 720.599 368.757C720.539 369.037 720.419 369.477 720.279 369.877ZM734.872 370.217V372.477H733.972C732.212 372.477 731.112 373.417 731.112 375.337V380.137H728.672V370.277H730.972L731.112 371.717C731.532 370.737 732.472 370.077 733.792 370.077C734.132 370.077 734.472 370.117 734.872 370.217ZM735.764 377.137H738.084C738.104 377.997 738.744 378.537 739.864 378.537C741.004 378.537 741.624 378.077 741.624 377.357C741.624 376.857 741.364 376.497 740.484 376.297L738.704 375.877C736.924 375.477 736.064 374.637 736.064 373.057C736.064 371.117 737.704 369.957 739.984 369.957C742.204 369.957 743.704 371.237 743.724 373.157H741.404C741.384 372.317 740.824 371.777 739.884 371.777C738.924 371.777 738.364 372.217 738.364 372.957C738.364 373.517 738.804 373.877 739.644 374.077L741.424 374.497C743.084 374.877 743.924 375.637 743.924 377.157C743.924 379.157 742.224 380.397 739.784 380.397C737.324 380.397 735.764 379.077 735.764 377.137ZM750.201 380.397C747.261 380.397 745.201 378.257 745.201 375.197C745.201 372.097 747.221 369.957 750.121 369.957C753.081 369.957 754.961 371.937 754.961 375.017V375.757L747.521 375.777C747.701 377.517 748.621 378.397 750.241 378.397C751.581 378.397 752.461 377.877 752.741 376.937H755.001C754.581 379.097 752.781 380.397 750.201 380.397ZM750.141 371.957C748.701 371.957 747.821 372.737 747.581 374.217H752.541C752.541 372.857 751.601 371.957 750.141 371.957ZM759.354 380.137H756.914V370.257H759.174L759.374 371.537C759.994 370.537 761.194 369.957 762.534 369.957C765.014 369.957 766.294 371.497 766.294 374.057V380.137H763.854V374.637C763.854 372.977 763.034 372.177 761.774 372.177C760.274 372.177 759.354 373.217 759.354 374.817V380.137ZM769.912 368.277C769.072 368.277 768.412 367.617 768.412 366.797C768.412 365.977 769.072 365.337 769.912 365.337C770.712 365.337 771.372 365.977 771.372 366.797C771.372 367.617 770.712 368.277 769.912 368.277ZM768.692 380.137V370.257H771.132V380.137H768.692ZM773.073 375.177C773.073 372.117 775.093 369.957 778.013 369.957C780.713 369.957 782.553 371.457 782.813 373.837H780.373C780.093 372.717 779.273 372.137 778.113 372.137C776.553 372.137 775.513 373.317 775.513 375.177C775.513 377.037 776.473 378.197 778.033 378.197C779.253 378.197 780.113 377.597 780.373 376.517H782.833C782.533 378.817 780.613 380.397 778.033 380.397C775.033 380.397 773.073 378.317 773.073 375.177Z" fill="white"/>
</g>
<g id="B_PESTICIDES">
<rect id="Rectangle 4863_2" x="688" y="326" width="133" height="27.5" rx="13.75" fill="#5658E7"/>
<path id="text_2" d="M715.318 341.96H712.098V347H709.538V332.38H715.318C718.258 332.38 720.158 334.3 720.158 337.16C720.158 339.98 718.238 341.96 715.318 341.96ZM714.818 334.66H712.098V339.68H714.778C716.538 339.68 717.478 338.74 717.478 337.14C717.478 335.54 716.518 334.66 714.818 334.66ZM725.883 347.26C722.943 347.26 720.883 345.12 720.883 342.06C720.883 338.96 722.903 336.82 725.803 336.82C728.763 336.82 730.643 338.8 730.643 341.88V342.62L723.203 342.64C723.383 344.38 724.303 345.26 725.923 345.26C727.263 345.26 728.143 344.74 728.423 343.8H730.683C730.263 345.96 728.463 347.26 725.883 347.26ZM725.823 338.82C724.383 338.82 723.503 339.6 723.263 341.08H728.223C728.223 339.72 727.283 338.82 725.823 338.82ZM731.836 344H734.156C734.176 344.86 734.816 345.4 735.936 345.4C737.076 345.4 737.696 344.94 737.696 344.22C737.696 343.72 737.436 343.36 736.556 343.16L734.776 342.74C732.996 342.34 732.136 341.5 732.136 339.92C732.136 337.98 733.776 336.82 736.056 336.82C738.276 336.82 739.776 338.1 739.796 340.02H737.476C737.456 339.18 736.896 338.64 735.956 338.64C734.996 338.64 734.436 339.08 734.436 339.82C734.436 340.38 734.876 340.74 735.716 340.94L737.496 341.36C739.156 341.74 739.996 342.5 739.996 344.02C739.996 346.02 738.296 347.26 735.856 347.26C733.396 347.26 731.836 345.94 731.836 344ZM745.214 347H742.774V339.16H740.874V337.12H742.774V334.04H745.214V337.12H747.134V339.16H745.214V347ZM749.871 335.14C749.031 335.14 748.371 334.48 748.371 333.66C748.371 332.84 749.031 332.2 749.871 332.2C750.671 332.2 751.331 332.84 751.331 333.66C751.331 334.48 750.671 335.14 749.871 335.14ZM748.651 347V337.12H751.091V347H748.651ZM753.032 342.04C753.032 338.98 755.052 336.82 757.972 336.82C760.672 336.82 762.512 338.32 762.772 340.7H760.332C760.052 339.58 759.232 339 758.072 339C756.512 339 755.472 340.18 755.472 342.04C755.472 343.9 756.432 345.06 757.992 345.06C759.212 345.06 760.072 344.46 760.332 343.38H762.792C762.492 345.68 760.572 347.26 757.992 347.26C754.992 347.26 753.032 345.18 753.032 342.04ZM765.828 335.14C764.988 335.14 764.328 334.48 764.328 333.66C764.328 332.84 764.988 332.2 765.828 332.2C766.628 332.2 767.288 332.84 767.288 333.66C767.288 334.48 766.628 335.14 765.828 335.14ZM764.608 347V337.12H767.048V347H764.608ZM773.629 347.26C770.769 347.26 768.989 345.16 768.989 342.1C768.989 339.02 770.789 336.82 773.769 336.82C775.149 336.82 776.369 337.4 776.989 338.38V332.12H779.409V347H777.169L777.009 345.46C776.409 346.6 775.129 347.26 773.629 347.26ZM774.169 345.02C775.869 345.02 776.969 343.8 776.969 342.02C776.969 340.24 775.869 339 774.169 339C772.469 339 771.429 340.26 771.429 342.02C771.429 343.78 772.469 345.02 774.169 345.02ZM786.371 347.26C783.431 347.26 781.371 345.12 781.371 342.06C781.371 338.96 783.391 336.82 786.291 336.82C789.251 336.82 791.131 338.8 791.131 341.88V342.62L783.691 342.64C783.871 344.38 784.791 345.26 786.411 345.26C787.751 345.26 788.631 344.74 788.911 343.8H791.171C790.751 345.96 788.951 347.26 786.371 347.26ZM786.311 338.82C784.871 338.82 783.991 339.6 783.751 341.08H788.711C788.711 339.72 787.771 338.82 786.311 338.82ZM792.324 344H794.644C794.664 344.86 795.304 345.4 796.424 345.4C797.564 345.4 798.184 344.94 798.184 344.22C798.184 343.72 797.924 343.36 797.044 343.16L795.264 342.74C793.484 342.34 792.624 341.5 792.624 339.92C792.624 337.98 794.264 336.82 796.544 336.82C798.764 336.82 800.264 338.1 800.284 340.02H797.964C797.944 339.18 797.384 338.64 796.444 338.64C795.484 338.64 794.924 339.08 794.924 339.82C794.924 340.38 795.364 340.74 796.204 340.94L797.984 341.36C799.644 341.74 800.484 342.5 800.484 344.02C800.484 346.02 798.784 347.26 796.344 347.26C793.884 347.26 792.324 345.94 792.324 344Z" fill="white"/>
</g>
</g>
<g id="2_TEXT">
<path id="Kidney testicular cancer" d="M1160 414.03V421.71L1165.92 414.03H1168.94L1164.1 420.27L1169 428.65H1166.04L1162.42 422.43L1160 425.53V428.65H1157.44V414.03H1160ZM1171.98 416.79C1171.14 416.79 1170.48 416.13 1170.48 415.31C1170.48 414.49 1171.14 413.85 1171.98 413.85C1172.78 413.85 1173.44 414.49 1173.44 415.31C1173.44 416.13 1172.78 416.79 1171.98 416.79ZM1170.76 428.65V418.77H1173.2V428.65H1170.76ZM1179.98 428.91C1177.12 428.91 1175.34 426.81 1175.34 423.75C1175.34 420.67 1177.14 418.47 1180.12 418.47C1181.5 418.47 1182.72 419.05 1183.34 420.03V413.77H1185.76V428.65H1183.52L1183.36 427.11C1182.76 428.25 1181.48 428.91 1179.98 428.91ZM1180.52 426.67C1182.22 426.67 1183.32 425.45 1183.32 423.67C1183.32 421.89 1182.22 420.65 1180.52 420.65C1178.82 420.65 1177.78 421.91 1177.78 423.67C1177.78 425.43 1178.82 426.67 1180.52 426.67ZM1190.94 428.65H1188.5V418.77H1190.76L1190.96 420.05C1191.58 419.05 1192.78 418.47 1194.12 418.47C1196.6 418.47 1197.88 420.01 1197.88 422.57V428.65H1195.44V423.15C1195.44 421.49 1194.62 420.69 1193.36 420.69C1191.86 420.69 1190.94 421.73 1190.94 423.33V428.65ZM1204.9 428.91C1201.96 428.91 1199.9 426.77 1199.9 423.71C1199.9 420.61 1201.92 418.47 1204.82 418.47C1207.78 418.47 1209.66 420.45 1209.66 423.53V424.27L1202.22 424.29C1202.4 426.03 1203.32 426.91 1204.94 426.91C1206.28 426.91 1207.16 426.39 1207.44 425.45H1209.7C1209.28 427.61 1207.48 428.91 1204.9 428.91ZM1204.84 420.47C1203.4 420.47 1202.52 421.25 1202.28 422.73H1207.24C1207.24 421.37 1206.3 420.47 1204.84 420.47ZM1210.62 433.23V431.19H1212.08C1213.04 431.19 1213.64 430.97 1214.06 429.81L1214.34 429.07L1210.36 418.77H1212.94L1215.48 425.97L1218.16 418.77H1220.68L1215.84 430.85C1215.1 432.69 1214.06 433.45 1212.44 433.45C1211.76 433.45 1211.16 433.37 1210.62 433.23ZM1231.22 428.65H1228.78V420.81H1226.88V418.77H1228.78V415.69H1231.22V418.77H1233.14V420.81H1231.22V428.65ZM1239.17 428.91C1236.23 428.91 1234.17 426.77 1234.17 423.71C1234.17 420.61 1236.19 418.47 1239.09 418.47C1242.05 418.47 1243.93 420.45 1243.93 423.53V424.27L1236.49 424.29C1236.67 426.03 1237.59 426.91 1239.21 426.91C1240.55 426.91 1241.43 426.39 1241.71 425.45H1243.97C1243.55 427.61 1241.75 428.91 1239.17 428.91ZM1239.11 420.47C1237.67 420.47 1236.79 421.25 1236.55 422.73H1241.51C1241.51 421.37 1240.57 420.47 1239.11 420.47ZM1245.33 425.65H1247.65C1247.67 426.51 1248.31 427.05 1249.43 427.05C1250.57 427.05 1251.19 426.59 1251.19 425.87C1251.19 425.37 1250.93 425.01 1250.05 424.81L1248.27 424.39C1246.49 423.99 1245.63 423.15 1245.63 421.57C1245.63 419.63 1247.27 418.47 1249.55 418.47C1251.77 418.47 1253.27 419.75 1253.29 421.67H1250.97C1250.95 420.83 1250.39 420.29 1249.45 420.29C1248.49 420.29 1247.93 420.73 1247.93 421.47C1247.93 422.03 1248.37 422.39 1249.21 422.59L1250.99 423.01C1252.65 423.39 1253.49 424.15 1253.49 425.67C1253.49 427.67 1251.79 428.91 1249.35 428.91C1246.89 428.91 1245.33 427.59 1245.33 425.65ZM1258.91 428.65H1256.47V420.81H1254.57V418.77H1256.47V415.69H1258.91V418.77H1260.83V420.81H1258.91V428.65ZM1263.76 416.79C1262.92 416.79 1262.26 416.13 1262.26 415.31C1262.26 414.49 1262.92 413.85 1263.76 413.85C1264.56 413.85 1265.22 414.49 1265.22 415.31C1265.22 416.13 1264.56 416.79 1263.76 416.79ZM1262.54 428.65V418.77H1264.98V428.65H1262.54ZM1267.12 423.69C1267.12 420.63 1269.14 418.47 1272.06 418.47C1274.76 418.47 1276.6 419.97 1276.86 422.35H1274.42C1274.14 421.23 1273.32 420.65 1272.16 420.65C1270.6 420.65 1269.56 421.83 1269.56 423.69C1269.56 425.55 1270.52 426.71 1272.08 426.71C1273.3 426.71 1274.16 426.11 1274.42 425.03H1276.88C1276.58 427.33 1274.66 428.91 1272.08 428.91C1269.08 428.91 1267.12 426.83 1267.12 423.69ZM1285.6 418.77H1288.04V428.65H1285.78L1285.6 427.33C1285 428.27 1283.72 428.91 1282.4 428.91C1280.12 428.91 1278.78 427.37 1278.78 424.95V418.77H1281.22V424.09C1281.22 425.97 1281.96 426.73 1283.32 426.73C1284.86 426.73 1285.6 425.83 1285.6 423.95V418.77ZM1293.22 428.65H1290.8V413.77H1293.22V428.65ZM1298.92 428.91C1296.82 428.91 1295.54 427.69 1295.54 425.83C1295.54 424.01 1296.86 422.87 1299.2 422.69L1302.16 422.47V422.25C1302.16 420.91 1301.36 420.37 1300.12 420.37C1298.68 420.37 1297.88 420.97 1297.88 422.01H1295.8C1295.8 419.87 1297.56 418.47 1300.24 418.47C1302.9 418.47 1304.54 419.91 1304.54 422.65V428.65H1302.4L1302.22 427.19C1301.8 428.21 1300.46 428.91 1298.92 428.91ZM1299.72 427.07C1301.22 427.07 1302.18 426.17 1302.18 424.65V424.13L1300.12 424.29C1298.6 424.43 1298.02 424.93 1298.02 425.73C1298.02 426.63 1298.62 427.07 1299.72 427.07ZM1313.34 418.73V420.99H1312.44C1310.68 420.99 1309.58 421.93 1309.58 423.85V428.65H1307.14V418.79H1309.44L1309.58 420.23C1310 419.25 1310.94 418.59 1312.26 418.59C1312.6 418.59 1312.94 418.63 1313.34 418.73ZM1320.2 423.69C1320.2 420.63 1322.22 418.47 1325.14 418.47C1327.84 418.47 1329.68 419.97 1329.94 422.35H1327.5C1327.22 421.23 1326.4 420.65 1325.24 420.65C1323.68 420.65 1322.64 421.83 1322.64 423.69C1322.64 425.55 1323.6 426.71 1325.16 426.71C1326.38 426.71 1327.24 426.11 1327.5 425.03H1329.96C1329.66 427.33 1327.74 428.91 1325.16 428.91C1322.16 428.91 1320.2 426.83 1320.2 423.69ZM1334.91 428.91C1332.81 428.91 1331.53 427.69 1331.53 425.83C1331.53 424.01 1332.85 422.87 1335.19 422.69L1338.15 422.47V422.25C1338.15 420.91 1337.35 420.37 1336.11 420.37C1334.67 420.37 1333.87 420.97 1333.87 422.01H1331.79C1331.79 419.87 1333.55 418.47 1336.23 418.47C1338.89 418.47 1340.53 419.91 1340.53 422.65V428.65H1338.39L1338.21 427.19C1337.79 428.21 1336.45 428.91 1334.91 428.91ZM1335.71 427.07C1337.21 427.07 1338.17 426.17 1338.17 424.65V424.13L1336.11 424.29C1334.59 424.43 1334.01 424.93 1334.01 425.73C1334.01 426.63 1334.61 427.07 1335.71 427.07ZM1345.57 428.65H1343.13V418.77H1345.39L1345.59 420.05C1346.21 419.05 1347.41 418.47 1348.75 418.47C1351.23 418.47 1352.51 420.01 1352.51 422.57V428.65H1350.07V423.15C1350.07 421.49 1349.25 420.69 1347.99 420.69C1346.49 420.69 1345.57 421.73 1345.57 423.33V428.65ZM1354.53 423.69C1354.53 420.63 1356.55 418.47 1359.47 418.47C1362.17 418.47 1364.01 419.97 1364.27 422.35H1361.83C1361.55 421.23 1360.73 420.65 1359.57 420.65C1358.01 420.65 1356.97 421.83 1356.97 423.69C1356.97 425.55 1357.93 426.71 1359.49 426.71C1360.71 426.71 1361.57 426.11 1361.83 425.03H1364.29C1363.99 427.33 1362.07 428.91 1359.49 428.91C1356.49 428.91 1354.53 426.83 1354.53 423.69ZM1370.72 428.91C1367.78 428.91 1365.72 426.77 1365.72 423.71C1365.72 420.61 1367.74 418.47 1370.64 418.47C1373.6 418.47 1375.48 420.45 1375.48 423.53V424.27L1368.04 424.29C1368.22 426.03 1369.14 426.91 1370.76 426.91C1372.1 426.91 1372.98 426.39 1373.26 425.45H1375.52C1375.1 427.61 1373.3 428.91 1370.72 428.91ZM1370.66 420.47C1369.22 420.47 1368.34 421.25 1368.1 422.73H1373.06C1373.06 421.37 1372.12 420.47 1370.66 420.47ZM1383.84 418.73V420.99H1382.94C1381.18 420.99 1380.08 421.93 1380.08 423.85V428.65H1377.64V418.79H1379.94L1380.08 420.23C1380.5 419.25 1381.44 418.59 1382.76 418.59C1383.1 418.59 1383.44 418.63 1383.84 418.73Z" fill="black"/>

<g id="B_PFASs">
<rect id="Rectangle 4860" x="1153.82" y="437.65" width="111" height="27.5" rx="13.75" fill="#E45C4D"/>
<path id="text_3" d="M1187.76 453.61H1184.54V458.65H1181.98V444.03H1187.76C1190.7 444.03 1192.6 445.95 1192.6 448.81C1192.6 451.63 1190.68 453.61 1187.76 453.61ZM1187.26 446.31H1184.54V451.33H1187.22C1188.98 451.33 1189.92 450.39 1189.92 448.79C1189.92 447.19 1188.96 446.31 1187.26 446.31ZM1202.75 452.67H1197.31V458.65H1194.75V444.03H1203.79V446.39H1197.31V450.37H1202.75V452.67ZM1206.46 458.65H1203.8L1209.08 444.03H1211.7L1216.98 458.65H1214.28L1213.1 455.27H1207.64L1206.46 458.65ZM1210.06 448.39L1208.4 453.11H1212.36L1210.68 448.39C1210.56 448.01 1210.42 447.57 1210.38 447.27C1210.32 447.55 1210.2 447.99 1210.06 448.39ZM1217.97 448.11C1217.97 445.55 1220.09 443.77 1223.17 443.77C1226.13 443.77 1228.01 445.41 1228.09 448.05H1225.53C1225.47 446.79 1224.57 446.05 1223.13 446.05C1221.55 446.05 1220.53 446.81 1220.53 448.03C1220.53 449.07 1221.09 449.65 1222.31 449.93L1224.61 450.43C1227.11 450.97 1228.33 452.25 1228.33 454.43C1228.33 457.15 1226.21 458.91 1222.99 458.91C1219.87 458.91 1217.83 457.25 1217.77 454.63H1220.33C1220.35 455.87 1221.35 456.61 1222.99 456.61C1224.69 456.61 1225.77 455.87 1225.77 454.65C1225.77 453.67 1225.27 453.09 1224.07 452.83L1221.75 452.31C1219.27 451.77 1217.97 450.35 1217.97 448.11ZM1229.53 455.65H1231.85C1231.87 456.51 1232.51 457.05 1233.63 457.05C1234.77 457.05 1235.39 456.59 1235.39 455.87C1235.39 455.37 1235.13 455.01 1234.25 454.81L1232.47 454.39C1230.69 453.99 1229.83 453.15 1229.83 451.57C1229.83 449.63 1231.47 448.47 1233.75 448.47C1235.97 448.47 1237.47 449.75 1237.49 451.67H1235.17C1235.15 450.83 1234.59 450.29 1233.65 450.29C1232.69 450.29 1232.13 450.73 1232.13 451.47C1232.13 452.03 1232.57 452.39 1233.41 452.59L1235.19 453.01C1236.85 453.39 1237.69 454.15 1237.69 455.67C1237.69 457.67 1235.99 458.91 1233.55 458.91C1231.09 458.91 1229.53 457.59 1229.53 455.65Z" fill="white"/>
</g>

<path id="Vector 2249_2" d="M958.602 421.65L1150.19 421.65" stroke="black" stroke-width="3" stroke-linecap="round"/>
</g>
<g id="0_TEXT">
<path id="Hormone related cancer risk (BPA)" d="M1061.59 217.249H1059.03V202.629H1061.59V208.669H1068.07V202.629H1070.63V217.249H1068.07V211.049H1061.59V217.249ZM1073.13 212.289C1073.13 209.209 1075.35 207.089 1078.41 207.089C1081.47 207.089 1083.69 209.209 1083.69 212.289C1083.69 215.369 1081.47 217.489 1078.41 217.489C1075.35 217.489 1073.13 215.369 1073.13 212.289ZM1075.57 212.289C1075.57 214.089 1076.73 215.309 1078.41 215.309C1080.09 215.309 1081.25 214.089 1081.25 212.289C1081.25 210.489 1080.09 209.269 1078.41 209.269C1076.73 209.269 1075.57 210.489 1075.57 212.289ZM1092.02 207.329V209.589H1091.12C1089.36 209.589 1088.26 210.529 1088.26 212.449V217.249H1085.82V207.389H1088.12L1088.26 208.829C1088.68 207.849 1089.62 207.189 1090.94 207.189C1091.28 207.189 1091.62 207.229 1092.02 207.329ZM1096.32 217.249H1093.88V207.369H1096.12L1096.32 208.529C1096.82 207.709 1097.82 207.069 1099.24 207.069C1100.74 207.069 1101.78 207.809 1102.3 208.949C1102.8 207.809 1103.96 207.069 1105.46 207.069C1107.86 207.069 1109.18 208.509 1109.18 210.789V217.249H1106.76V211.429C1106.76 210.009 1106 209.269 1104.84 209.269C1103.66 209.269 1102.76 210.029 1102.76 211.649V217.249H1100.32V211.409C1100.32 210.029 1099.58 209.289 1098.42 209.289C1097.26 209.289 1096.32 210.049 1096.32 211.649V217.249ZM1111.19 212.289C1111.19 209.209 1113.41 207.089 1116.47 207.089C1119.53 207.089 1121.75 209.209 1121.75 212.289C1121.75 215.369 1119.53 217.489 1116.47 217.489C1113.41 217.489 1111.19 215.369 1111.19 212.289ZM1113.63 212.289C1113.63 214.089 1114.79 215.309 1116.47 215.309C1118.15 215.309 1119.31 214.089 1119.31 212.289C1119.31 210.489 1118.15 209.269 1116.47 209.269C1114.79 209.269 1113.63 210.489 1113.63 212.289ZM1126.33 217.249H1123.89V207.369H1126.15L1126.35 208.649C1126.97 207.649 1128.17 207.069 1129.51 207.069C1131.99 207.069 1133.27 208.609 1133.27 211.169V217.249H1130.83V211.749C1130.83 210.089 1130.01 209.289 1128.75 209.289C1127.25 209.289 1126.33 210.329 1126.33 211.929V217.249ZM1140.28 217.509C1137.34 217.509 1135.28 215.369 1135.28 212.309C1135.28 209.209 1137.3 207.069 1140.2 207.069C1143.16 207.069 1145.04 209.049 1145.04 212.129V212.869L1137.6 212.889C1137.78 214.629 1138.7 215.509 1140.32 215.509C1141.66 215.509 1142.54 214.989 1142.82 214.049H1145.08C1144.66 216.209 1142.86 217.509 1140.28 217.509ZM1140.22 209.069C1138.78 209.069 1137.9 209.849 1137.66 211.329H1142.62C1142.62 209.969 1141.68 209.069 1140.22 209.069ZM1158.99 207.329V209.589H1158.09C1156.33 209.589 1155.23 210.529 1155.23 212.449V217.249H1152.79V207.389H1155.09L1155.23 208.829C1155.65 207.849 1156.59 207.189 1157.91 207.189C1158.25 207.189 1158.59 207.229 1158.99 207.329ZM1164.93 217.509C1161.99 217.509 1159.93 215.369 1159.93 212.309C1159.93 209.209 1161.95 207.069 1164.85 207.069C1167.81 207.069 1169.69 209.049 1169.69 212.129V212.869L1162.25 212.889C1162.43 214.629 1163.35 215.509 1164.97 215.509C1166.31 215.509 1167.19 214.989 1167.47 214.049H1169.73C1169.31 216.209 1167.51 217.509 1164.93 217.509ZM1164.87 209.069C1163.43 209.069 1162.55 209.849 1162.31 211.329H1167.27C1167.27 209.969 1166.33 209.069 1164.87 209.069ZM1174.3 217.249H1171.88V202.369H1174.3V217.249ZM1180 217.509C1177.9 217.509 1176.62 216.289 1176.62 214.429C1176.62 212.609 1177.94 211.469 1180.28 211.289L1183.24 211.069V210.849C1183.24 209.509 1182.44 208.969 1181.2 208.969C1179.76 208.969 1178.96 209.569 1178.96 210.609H1176.88C1176.88 208.469 1178.64 207.069 1181.32 207.069C1183.98 207.069 1185.62 208.509 1185.62 211.249V217.249H1183.48L1183.3 215.789C1182.88 216.809 1181.54 217.509 1180 217.509ZM1180.8 215.669C1182.3 215.669 1183.26 214.769 1183.26 213.249V212.729L1181.2 212.889C1179.68 213.029 1179.1 213.529 1179.1 214.329C1179.1 215.229 1179.7 215.669 1180.8 215.669ZM1191.44 217.249H1189V209.409H1187.1V207.369H1189V204.289H1191.44V207.369H1193.36V209.409H1191.44V217.249ZM1199.4 217.509C1196.46 217.509 1194.4 215.369 1194.4 212.309C1194.4 209.209 1196.42 207.069 1199.32 207.069C1202.28 207.069 1204.16 209.049 1204.16 212.129V212.869L1196.72 212.889C1196.9 214.629 1197.82 215.509 1199.44 215.509C1200.78 215.509 1201.66 214.989 1201.94 214.049H1204.2C1203.78 216.209 1201.98 217.509 1199.4 217.509ZM1199.34 209.069C1197.9 209.069 1197.02 209.849 1196.78 211.329H1201.74C1201.74 209.969 1200.8 209.069 1199.34 209.069ZM1210.37 217.509C1207.51 217.509 1205.73 215.409 1205.73 212.349C1205.73 209.269 1207.53 207.069 1210.51 207.069C1211.89 207.069 1213.11 207.649 1213.73 208.629V202.369H1216.15V217.249H1213.91L1213.75 215.709C1213.15 216.849 1211.87 217.509 1210.37 217.509ZM1210.91 215.269C1212.61 215.269 1213.71 214.049 1213.71 212.269C1213.71 210.489 1212.61 209.249 1210.91 209.249C1209.21 209.249 1208.17 210.509 1208.17 212.269C1208.17 214.029 1209.21 215.269 1210.91 215.269ZM1223.9 212.289C1223.9 209.229 1225.92 207.069 1228.84 207.069C1231.54 207.069 1233.38 208.569 1233.64 210.949H1231.2C1230.92 209.829 1230.1 209.249 1228.94 209.249C1227.38 209.249 1226.34 210.429 1226.34 212.289C1226.34 214.149 1227.3 215.309 1228.86 215.309C1230.08 215.309 1230.94 214.709 1231.2 213.629H1233.66C1233.36 215.929 1231.44 217.509 1228.86 217.509C1225.86 217.509 1223.9 215.429 1223.9 212.289ZM1238.62 217.509C1236.52 217.509 1235.24 216.289 1235.24 214.429C1235.24 212.609 1236.56 211.469 1238.9 211.289L1241.86 211.069V210.849C1241.86 209.509 1241.06 208.969 1239.82 208.969C1238.38 208.969 1237.58 209.569 1237.58 210.609H1235.5C1235.5 208.469 1237.26 207.069 1239.94 207.069C1242.6 207.069 1244.24 208.509 1244.24 211.249V217.249H1242.1L1241.92 215.789C1241.5 216.809 1240.16 217.509 1238.62 217.509ZM1239.42 215.669C1240.92 215.669 1241.88 214.769 1241.88 213.249V212.729L1239.82 212.889C1238.3 213.029 1237.72 213.529 1237.72 214.329C1237.72 215.229 1238.32 215.669 1239.42 215.669ZM1249.28 217.249H1246.84V207.369H1249.1L1249.3 208.649C1249.92 207.649 1251.12 207.069 1252.46 207.069C1254.94 207.069 1256.22 208.609 1256.22 211.169V217.249H1253.78V211.749C1253.78 210.089 1252.96 209.289 1251.7 209.289C1250.2 209.289 1249.28 210.329 1249.28 211.929V217.249ZM1258.23 212.289C1258.23 209.229 1260.25 207.069 1263.17 207.069C1265.87 207.069 1267.71 208.569 1267.97 210.949H1265.53C1265.25 209.829 1264.43 209.249 1263.27 209.249C1261.71 209.249 1260.67 210.429 1260.67 212.289C1260.67 214.149 1261.63 215.309 1263.19 215.309C1264.41 215.309 1265.27 214.709 1265.53 213.629H1267.99C1267.69 215.929 1265.77 217.509 1263.19 217.509C1260.19 217.509 1258.23 215.429 1258.23 212.289ZM1274.43 217.509C1271.49 217.509 1269.43 215.369 1269.43 212.309C1269.43 209.209 1271.45 207.069 1274.35 207.069C1277.31 207.069 1279.19 209.049 1279.19 212.129V212.869L1271.75 212.889C1271.93 214.629 1272.85 215.509 1274.47 215.509C1275.81 215.509 1276.69 214.989 1276.97 214.049H1279.23C1278.81 216.209 1277.01 217.509 1274.43 217.509ZM1274.37 209.069C1272.93 209.069 1272.05 209.849 1271.81 211.329H1276.77C1276.77 209.969 1275.83 209.069 1274.37 209.069ZM1287.54 207.329V209.589H1286.64C1284.88 209.589 1283.78 210.529 1283.78 212.449V217.249H1281.34V207.389H1283.64L1283.78 208.829C1284.2 207.849 1285.14 207.189 1286.46 207.189C1286.8 207.189 1287.14 207.229 1287.54 207.329ZM1301.19 207.329V209.589H1300.29C1298.53 209.589 1297.43 210.529 1297.43 212.449V217.249H1294.99V207.389H1297.29L1297.43 208.829C1297.85 207.849 1298.79 207.189 1300.11 207.189C1300.45 207.189 1300.79 207.229 1301.19 207.329ZM1304.26 205.389C1303.42 205.389 1302.76 204.729 1302.76 203.909C1302.76 203.089 1303.42 202.449 1304.26 202.449C1305.06 202.449 1305.72 203.089 1305.72 203.909C1305.72 204.729 1305.06 205.389 1304.26 205.389ZM1303.04 217.249V207.369H1305.48V217.249H1303.04ZM1307.44 214.249H1309.76C1309.78 215.109 1310.42 215.649 1311.54 215.649C1312.68 215.649 1313.3 215.189 1313.3 214.469C1313.3 213.969 1313.04 213.609 1312.16 213.409L1310.38 212.989C1308.6 212.589 1307.74 211.749 1307.74 210.169C1307.74 208.229 1309.38 207.069 1311.66 207.069C1313.88 207.069 1315.38 208.349 1315.4 210.269H1313.08C1313.06 209.429 1312.5 208.889 1311.56 208.889C1310.6 208.889 1310.04 209.329 1310.04 210.069C1310.04 210.629 1310.48 210.989 1311.32 211.189L1313.1 211.609C1314.76 211.989 1315.6 212.749 1315.6 214.269C1315.6 216.269 1313.9 217.509 1311.46 217.509C1309 217.509 1307.44 216.189 1307.44 214.249ZM1320.12 217.249H1317.7V202.369H1320.12V211.509L1323.96 207.369H1327.02L1323.26 211.289L1326.94 217.249H1324.14L1321.56 213.089L1320.12 214.589V217.249ZM1339.11 221.069H1337.17C1335.17 218.789 1333.85 215.209 1333.85 211.369C1333.85 207.869 1334.97 204.189 1337.17 201.689H1339.11C1337.45 203.949 1336.31 207.489 1336.31 211.369C1336.31 214.909 1337.29 218.589 1339.11 221.069ZM1340.92 217.249V202.629H1346.74C1349.62 202.629 1351.38 204.129 1351.38 206.569C1351.38 208.189 1350.66 209.349 1349.28 209.929C1350.82 210.429 1351.6 211.589 1351.6 213.289C1351.6 215.789 1349.86 217.249 1346.84 217.249H1340.92ZM1346.52 204.889H1343.48V208.869H1346.58C1347.98 208.869 1348.76 208.129 1348.76 206.829C1348.76 205.569 1347.96 204.889 1346.52 204.889ZM1346.74 211.029H1343.48V214.989H1346.74C1348.18 214.989 1348.98 214.289 1348.98 212.969C1348.98 211.729 1348.16 211.029 1346.74 211.029ZM1359.93 212.209H1356.71V217.249H1354.15V202.629H1359.93C1362.87 202.629 1364.77 204.549 1364.77 207.409C1364.77 210.229 1362.85 212.209 1359.93 212.209ZM1359.43 204.909H1356.71V209.929H1359.39C1361.15 209.929 1362.09 208.989 1362.09 207.389C1362.09 205.789 1361.13 204.909 1359.43 204.909ZM1367.6 217.249H1364.94L1370.22 202.629H1372.84L1378.12 217.249H1375.42L1374.24 213.869H1368.78L1367.6 217.249ZM1371.2 206.989L1369.54 211.709H1373.5L1371.82 206.989C1371.7 206.609 1371.56 206.169 1371.52 205.869C1371.46 206.149 1371.34 206.589 1371.2 206.989ZM1380.47 221.069H1378.53C1380.37 218.589 1381.33 214.909 1381.33 211.369C1381.33 207.489 1380.19 203.949 1378.53 201.689H1380.47C1382.67 204.189 1383.81 207.869 1383.81 211.369C1383.81 215.209 1382.47 218.789 1380.47 221.069Z" fill="black"/>
<path id="Vector 2249_3" d="M969.172 210.249L1050.41 210.249" stroke="black" stroke-width="3" stroke-linecap="round"/>
<g id="B_BISPHENOL">
<rect id="Rectangle 4860_2" x="1057.41" y="226.249" width="146" height="28" rx="14" fill="#D7B040"/>
<path id="text_4" d="M1086.4 247.249V232.629H1092.22C1095.1 232.629 1096.86 234.129 1096.86 236.569C1096.86 238.189 1096.14 239.349 1094.76 239.929C1096.3 240.429 1097.08 241.589 1097.08 243.289C1097.08 245.789 1095.34 247.249 1092.32 247.249H1086.4ZM1092 234.889H1088.96V238.869H1092.06C1093.46 238.869 1094.24 238.129 1094.24 236.829C1094.24 235.569 1093.44 234.889 1092 234.889ZM1092.22 241.029H1088.96V244.989H1092.22C1093.66 244.989 1094.46 244.289 1094.46 242.969C1094.46 241.729 1093.64 241.029 1092.22 241.029ZM1100.29 235.389C1099.45 235.389 1098.79 234.729 1098.79 233.909C1098.79 233.089 1099.45 232.449 1100.29 232.449C1101.09 232.449 1101.75 233.089 1101.75 233.909C1101.75 234.729 1101.09 235.389 1100.29 235.389ZM1099.07 247.249V237.369H1101.51V247.249H1099.07ZM1103.27 244.249H1105.59C1105.61 245.109 1106.25 245.649 1107.37 245.649C1108.51 245.649 1109.13 245.189 1109.13 244.469C1109.13 243.969 1108.87 243.609 1107.99 243.409L1106.21 242.989C1104.43 242.589 1103.57 241.749 1103.57 240.169C1103.57 238.229 1105.21 237.069 1107.49 237.069C1109.71 237.069 1111.21 238.349 1111.23 240.269H1108.91C1108.89 239.429 1108.33 238.889 1107.39 238.889C1106.43 238.889 1105.87 239.329 1105.87 240.069C1105.87 240.629 1106.31 240.989 1107.15 241.189L1108.93 241.609C1110.59 241.989 1111.43 242.749 1111.43 244.269C1111.43 246.269 1109.73 247.509 1107.29 247.509C1104.83 247.509 1103.27 246.189 1103.27 244.249ZM1113.29 251.829V237.369H1115.55L1115.71 238.869C1116.31 237.729 1117.61 237.069 1119.11 237.069C1121.89 237.069 1123.73 239.089 1123.73 242.189C1123.73 245.269 1122.05 247.509 1119.11 247.509C1117.63 247.509 1116.35 246.929 1115.73 245.929V251.829H1113.29ZM1115.75 242.309C1115.75 244.089 1116.85 245.309 1118.53 245.309C1120.25 245.309 1121.27 244.069 1121.27 242.309C1121.27 240.549 1120.25 239.289 1118.53 239.289C1116.85 239.289 1115.75 240.529 1115.75 242.309ZM1128.11 247.249H1125.67V232.369H1128.13V238.649C1128.75 237.689 1129.91 237.069 1131.33 237.069C1133.77 237.069 1135.05 238.609 1135.05 241.169V247.249H1132.61V241.749C1132.61 240.089 1131.79 239.289 1130.55 239.289C1129.01 239.289 1128.11 240.369 1128.11 241.849V247.249ZM1141.87 247.509C1138.93 247.509 1136.87 245.369 1136.87 242.309C1136.87 239.209 1138.89 237.069 1141.79 237.069C1144.75 237.069 1146.63 239.049 1146.63 242.129V242.869L1139.19 242.889C1139.37 244.629 1140.29 245.509 1141.91 245.509C1143.25 245.509 1144.13 244.989 1144.41 244.049H1146.67C1146.25 246.209 1144.45 247.509 1141.87 247.509ZM1141.81 239.069C1140.37 239.069 1139.49 239.849 1139.25 241.329H1144.21C1144.21 239.969 1143.27 239.069 1141.81 239.069ZM1151.02 247.249H1148.58V237.369H1150.84L1151.04 238.649C1151.66 237.649 1152.86 237.069 1154.2 237.069C1156.68 237.069 1157.96 238.609 1157.96 241.169V247.249H1155.52V241.749C1155.52 240.089 1154.7 239.289 1153.44 239.289C1151.94 239.289 1151.02 240.329 1151.02 241.929V247.249ZM1159.78 242.289C1159.78 239.209 1162 237.089 1165.06 237.089C1168.12 237.089 1170.34 239.209 1170.34 242.289C1170.34 245.369 1168.12 247.489 1165.06 247.489C1162 247.489 1159.78 245.369 1159.78 242.289ZM1162.22 242.289C1162.22 244.089 1163.38 245.309 1165.06 245.309C1166.74 245.309 1167.9 244.089 1167.9 242.289C1167.9 240.489 1166.74 239.269 1165.06 239.269C1163.38 239.269 1162.22 240.489 1162.22 242.289ZM1174.73 247.249H1172.31V232.369H1174.73V247.249Z" fill="white"/>
</g>
</g>
<g id="centroids">
<circle id="0_DOT" cx="958.555" cy="210.651" r="3.2342" fill="#FF0000"/>
<circle id="1_DOT" cx="960.711" cy="311.989" r="3.2342" fill="#FF0000"/>
<circle id="2_DOT" cx="947.773" cy="421.951" r="3.2342" fill="#FF0000"/>
</g>
</g>
</svg>
