<svg width="1920" height="1080" viewBox="0 0 1920 1080" fill="none" xmlns="http://www.w3.org/2000/svg">
<g id="ASSET ANIMATION D5 Endocrine Distruption">
<g id="1_TEXT">
<path id="Hormonal Changes" d="M650.453 248.087H647.893V233.467H650.453V239.507H656.933V233.467H659.493V248.087H656.933V241.887H650.453V248.087ZM661.997 243.127C661.997 240.047 664.217 237.927 667.277 237.927C670.337 237.927 672.557 240.047 672.557 243.127C672.557 246.207 670.337 248.327 667.277 248.327C664.217 248.327 661.997 246.207 661.997 243.127ZM664.437 243.127C664.437 244.927 665.597 246.147 667.277 246.147C668.957 246.147 670.117 244.927 670.117 243.127C670.117 241.327 668.957 240.107 667.277 240.107C665.597 240.107 664.437 241.327 664.437 243.127ZM680.891 238.167V240.427H679.991C678.231 240.427 677.131 241.367 677.131 243.287V248.087H674.691V238.227H676.991L677.131 239.667C677.551 238.687 678.491 238.027 679.811 238.027C680.151 238.027 680.491 238.067 680.891 238.167ZM685.183 248.087H682.743V238.207H684.983L685.183 239.367C685.683 238.547 686.683 237.907 688.103 237.907C689.603 237.907 690.643 238.647 691.163 239.787C691.663 238.647 692.823 237.907 694.323 237.907C696.723 237.907 698.043 239.347 698.043 241.627V248.087H695.623V242.267C695.623 240.847 694.863 240.107 693.703 240.107C692.523 240.107 691.623 240.867 691.623 242.487V248.087H689.183V242.247C689.183 240.867 688.443 240.127 687.283 240.127C686.123 240.127 685.183 240.887 685.183 242.487V248.087ZM700.058 243.127C700.058 240.047 702.278 237.927 705.338 237.927C708.398 237.927 710.618 240.047 710.618 243.127C710.618 246.207 708.398 248.327 705.338 248.327C702.278 248.327 700.058 246.207 700.058 243.127ZM702.498 243.127C702.498 244.927 703.658 246.147 705.338 246.147C707.018 246.147 708.178 244.927 708.178 243.127C708.178 241.327 707.018 240.107 705.338 240.107C703.658 240.107 702.498 241.327 702.498 243.127ZM715.192 248.087H712.752V238.207H715.012L715.212 239.487C715.832 238.487 717.032 237.907 718.372 237.907C720.852 237.907 722.132 239.447 722.132 242.007V248.087H719.692V242.587C719.692 240.927 718.872 240.127 717.612 240.127C716.112 240.127 715.192 241.167 715.192 242.767V248.087ZM727.67 248.347C725.57 248.347 724.29 247.127 724.29 245.267C724.29 243.447 725.61 242.307 727.95 242.127L730.91 241.907V241.687C730.91 240.347 730.11 239.807 728.87 239.807C727.43 239.807 726.63 240.407 726.63 241.447H724.55C724.55 239.307 726.31 237.907 728.99 237.907C731.65 237.907 733.29 239.347 733.29 242.087V248.087H731.15L730.97 246.627C730.55 247.647 729.21 248.347 727.67 248.347ZM728.47 246.507C729.97 246.507 730.93 245.607 730.93 244.087V243.567L728.87 243.727C727.35 243.867 726.77 244.367 726.77 245.167C726.77 246.067 727.37 246.507 728.47 246.507ZM738.347 248.087H735.927V233.207H738.347V248.087ZM753.237 248.327C748.977 248.327 746.217 245.367 746.217 240.787C746.217 236.247 749.077 233.227 753.357 233.227C756.817 233.227 759.397 235.247 759.897 238.387H757.197C756.697 236.687 755.237 235.687 753.297 235.687C750.597 235.687 748.897 237.647 748.897 240.767C748.897 243.867 750.617 245.867 753.297 245.867C755.277 245.867 756.797 244.827 757.277 243.207H759.937C759.377 246.287 756.697 248.327 753.237 248.327ZM764.415 248.087H761.975V233.207H764.435V239.487C765.055 238.527 766.215 237.907 767.635 237.907C770.075 237.907 771.355 239.447 771.355 242.007V248.087H768.915V242.587C768.915 240.927 768.095 240.127 766.855 240.127C765.315 240.127 764.415 241.207 764.415 242.687V248.087ZM776.892 248.347C774.792 248.347 773.512 247.127 773.512 245.267C773.512 243.447 774.832 242.307 777.172 242.127L780.132 241.907V241.687C780.132 240.347 779.332 239.807 778.092 239.807C776.652 239.807 775.852 240.407 775.852 241.447H773.772C773.772 239.307 775.532 237.907 778.212 237.907C780.872 237.907 782.512 239.347 782.512 242.087V248.087H780.372L780.192 246.627C779.772 247.647 778.432 248.347 776.892 248.347ZM777.692 246.507C779.192 246.507 780.152 245.607 780.152 244.087V243.567L778.092 243.727C776.572 243.867 775.992 244.367 775.992 245.167C775.992 246.067 776.592 246.507 777.692 246.507ZM787.549 248.087H785.109V238.207H787.369L787.569 239.487C788.189 238.487 789.389 237.907 790.729 237.907C793.209 237.907 794.489 239.447 794.489 242.007V248.087H792.049V242.587C792.049 240.927 791.229 240.127 789.969 240.127C788.469 240.127 787.549 241.167 787.549 242.767V248.087ZM796.527 242.927C796.527 240.047 798.407 237.887 801.227 237.887C802.707 237.887 803.867 238.507 804.447 239.567L804.587 238.207H806.847V247.587C806.847 250.887 804.867 252.947 801.667 252.947C798.827 252.947 796.887 251.327 796.587 248.687H799.027C799.187 249.967 800.167 250.727 801.667 250.727C803.347 250.727 804.427 249.667 804.427 248.027V246.387C803.807 247.307 802.587 247.887 801.167 247.887C798.367 247.887 796.527 245.787 796.527 242.927ZM798.987 242.867C798.987 244.527 800.047 245.767 801.647 245.767C803.327 245.767 804.367 244.587 804.367 242.867C804.367 241.187 803.347 240.027 801.647 240.027C800.027 240.027 798.987 241.247 798.987 242.867ZM813.992 248.347C811.052 248.347 808.992 246.207 808.992 243.147C808.992 240.047 811.012 237.907 813.912 237.907C816.872 237.907 818.752 239.887 818.752 242.967V243.707L811.312 243.727C811.492 245.467 812.412 246.347 814.032 246.347C815.372 246.347 816.252 245.827 816.532 244.887H818.792C818.372 247.047 816.572 248.347 813.992 248.347ZM813.932 239.907C812.492 239.907 811.612 240.687 811.372 242.167H816.332C816.332 240.807 815.392 239.907 813.932 239.907ZM820.145 245.087H822.465C822.485 245.947 823.125 246.487 824.245 246.487C825.385 246.487 826.005 246.027 826.005 245.307C826.005 244.807 825.745 244.447 824.865 244.247L823.085 243.827C821.305 243.427 820.445 242.587 820.445 241.007C820.445 239.067 822.085 237.907 824.365 237.907C826.585 237.907 828.085 239.187 828.105 241.107H825.785C825.765 240.267 825.205 239.727 824.265 239.727C823.305 239.727 822.745 240.167 822.745 240.907C822.745 241.467 823.185 241.827 824.025 242.027L825.805 242.447C827.465 242.827 828.305 243.587 828.305 245.107C828.305 247.107 826.605 248.347 824.165 248.347C821.705 248.347 820.145 247.027 820.145 245.087Z" fill="black"/>
<path id="Vector 2249" d="M948.273 243.097L838.273 243.097" stroke="black" stroke-width="3" stroke-linecap="round"/>
<svg id="B_PHTHALATES" x="649" y="257" xmlns="http://www.w3.org/2000/svg" width="278" height="29" viewBox="0 0 278 29" fill="none">
    <rect width="278" height="27.5" rx="13.75" fill="#6769FF"/>
    <path d="M38.5001 11.16C38.5001 11.8533 38.3867 12.4933 38.1601 13.08C37.9467 13.6533 37.6334 14.1533 37.2201 14.58C36.8067 14.9933 36.3067 15.32 35.7201 15.56C35.1334 15.7867 34.4734 15.9 33.7401 15.9H30.3001V21H28.0601V6.46H30.3001H33.7601C34.4934 6.46 35.1534 6.57333 35.7401 6.8C36.3267 7.01333 36.8201 7.32667 37.2201 7.74C37.6334 8.14 37.9467 8.63333 38.1601 9.22C38.3867 9.79333 38.5001 10.44 38.5001 11.16ZM36.1601 11.12C36.1601 10.3467 35.9201 9.71333 35.4401 9.22C34.9734 8.72667 34.2934 8.48 33.4001 8.48H30.3001V13.94H33.3401C34.2601 13.94 34.9601 13.68 35.4401 13.16C35.9201 12.64 36.1601 11.96 36.1601 11.12ZM49.7754 15.06V21H47.6554V15.52C47.6554 15.0133 47.5954 14.5867 47.4754 14.24C47.3554 13.8933 47.1887 13.62 46.9754 13.42C46.7621 13.2067 46.5087 13.0533 46.2154 12.96C45.9354 12.8667 45.6287 12.82 45.2954 12.82C44.9754 12.82 44.6621 12.88 44.3554 13C44.0487 13.1067 43.7687 13.2733 43.5154 13.5C43.2754 13.7267 43.0821 14.0133 42.9354 14.36C42.7887 14.7067 42.7154 15.1133 42.7154 15.58V21H40.5954V6.2H42.7154V12.3C43.0221 11.8733 43.4354 11.5333 43.9554 11.28C44.4887 11.0267 45.0754 10.9 45.7154 10.9C46.9954 10.9 47.9887 11.2533 48.6954 11.96C49.4154 12.6533 49.7754 13.6867 49.7754 15.06ZM57.5141 12.94H55.5941V21H53.4941V12.94H51.5741V11.18H53.4941V8.1H55.5941V11.18H57.5141V12.94ZM68.5934 15.06V21H66.4734V15.52C66.4734 15.0133 66.4134 14.5867 66.2934 14.24C66.1734 13.8933 66.0067 13.62 65.7934 13.42C65.58 13.2067 65.3267 13.0533 65.0334 12.96C64.7534 12.8667 64.4467 12.82 64.1134 12.82C63.7934 12.82 63.48 12.88 63.1734 13C62.8667 13.1067 62.5867 13.2733 62.3334 13.5C62.0934 13.7267 61.9 14.0133 61.7534 14.36C61.6067 14.7067 61.5334 15.1133 61.5334 15.58V21H59.4134V6.2H61.5334V12.3C61.84 11.8733 62.2534 11.5333 62.7734 11.28C63.3067 11.0267 63.8934 10.9 64.5334 10.9C65.8134 10.9 66.8067 11.2533 67.5134 11.96C68.2334 12.6533 68.5934 13.6867 68.5934 15.06ZM77.5721 21C77.5454 20.8667 77.5188 20.7 77.4921 20.5C77.4654 20.3 77.4388 20.06 77.4121 19.78C77.1321 20.22 76.7188 20.58 76.1721 20.86C75.6254 21.1267 74.9921 21.26 74.2721 21.26C73.1921 21.26 72.3254 20.98 71.6721 20.42C71.0321 19.8467 70.7121 19.0733 70.7121 18.1C70.7121 17.14 71.0321 16.3867 71.6721 15.84C72.3254 15.2933 73.1988 15.02 74.2921 15.02H77.3721V14.64C77.3721 13.9467 77.1721 13.44 76.7721 13.12C76.3854 12.8 75.8521 12.64 75.1721 12.64C73.9588 12.64 73.0988 13.1333 72.5921 14.12L71.0321 13.22C71.4321 12.42 71.9988 11.8333 72.7321 11.46C73.4654 11.0867 74.3121 10.9 75.2721 10.9C76.4854 10.9 77.4854 11.2133 78.2721 11.84C79.0588 12.4667 79.4521 13.48 79.4521 14.88V18.9C79.4521 19.98 79.5121 20.68 79.6321 21H77.5721ZM77.3721 16.52H74.7721C74.1588 16.52 73.6854 16.66 73.3521 16.94C73.0321 17.2067 72.8721 17.5867 72.8721 18.08C72.8721 18.5867 73.0388 18.9733 73.3721 19.24C73.7188 19.4933 74.1921 19.62 74.7921 19.62C75.5254 19.62 76.1388 19.3867 76.6321 18.92C77.1254 18.44 77.3721 17.72 77.3721 16.76V16.52ZM82.0985 6.2H84.2185V21H82.0985V6.2ZM93.187 21C93.1603 20.8667 93.1336 20.7 93.107 20.5C93.0803 20.3 93.0536 20.06 93.027 19.78C92.747 20.22 92.3336 20.58 91.787 20.86C91.2403 21.1267 90.607 21.26 89.887 21.26C88.807 21.26 87.9403 20.98 87.287 20.42C86.647 19.8467 86.327 19.0733 86.327 18.1C86.327 17.14 86.647 16.3867 87.287 15.84C87.9403 15.2933 88.8136 15.02 89.907 15.02H92.987V14.64C92.987 13.9467 92.787 13.44 92.387 13.12C92.0003 12.8 91.467 12.64 90.787 12.64C89.5736 12.64 88.7136 13.1333 88.207 14.12L86.647 13.22C87.047 12.42 87.6136 11.8333 88.347 11.46C89.0803 11.0867 89.927 10.9 90.887 10.9C92.1003 10.9 93.1003 11.2133 93.887 11.84C94.6736 12.4667 95.067 13.48 95.067 14.88V18.9C95.067 19.98 95.127 20.68 95.247 21H93.187ZM92.987 16.52H90.387C89.7736 16.52 89.3003 16.66 88.967 16.94C88.647 17.2067 88.487 17.5867 88.487 18.08C88.487 18.5867 88.6536 18.9733 88.987 19.24C89.3336 19.4933 89.807 19.62 90.407 19.62C91.1403 19.62 91.7536 19.3867 92.247 18.92C92.7403 18.44 92.987 17.72 92.987 16.76V16.52ZM102.518 12.94H100.598V21H98.4981V12.94H96.5781V11.18H98.4981V8.1H100.598V11.18H102.518V12.94ZM113.322 16.92H105.662C105.742 17.76 106.042 18.3867 106.562 18.8C107.095 19.2133 107.742 19.42 108.502 19.42C109.142 19.42 109.682 19.28 110.122 19C110.562 18.7067 110.909 18.3067 111.162 17.8L112.942 18.52C112.569 19.4 111.982 20.08 111.182 20.56C110.395 21.0267 109.495 21.26 108.482 21.26C107.762 21.26 107.102 21.14 106.502 20.9C105.915 20.6467 105.409 20.2933 104.982 19.84C104.555 19.3867 104.222 18.8467 103.982 18.22C103.755 17.58 103.642 16.8733 103.642 16.1C103.642 15.34 103.755 14.64 103.982 14C104.222 13.36 104.555 12.8133 104.982 12.36C105.409 11.8933 105.922 11.5333 106.522 11.28C107.122 11.0267 107.789 10.9 108.522 10.9C109.242 10.9 109.895 11.0267 110.482 11.28C111.082 11.52 111.589 11.8667 112.002 12.32C112.429 12.7733 112.755 13.32 112.982 13.96C113.209 14.5867 113.322 15.2933 113.322 16.08V16.92ZM111.162 15.4C111.109 14.5067 110.849 13.8333 110.382 13.38C109.915 12.9133 109.282 12.68 108.482 12.68C107.682 12.68 107.035 12.9133 106.542 13.38C106.062 13.8467 105.775 14.52 105.682 15.4H111.162ZM118.814 19.54C119.321 19.54 119.734 19.44 120.054 19.24C120.388 19.0267 120.554 18.7 120.554 18.26C120.554 17.66 120.168 17.2733 119.394 17.1L117.994 16.72C116.168 16.2133 115.254 15.2733 115.254 13.9C115.254 13.46 115.334 13.06 115.494 12.7C115.668 12.3267 115.908 12.0067 116.214 11.74C116.521 11.4733 116.894 11.2667 117.334 11.12C117.774 10.9733 118.268 10.9 118.814 10.9C119.788 10.9 120.608 11.12 121.274 11.56C121.941 11.9867 122.341 12.6 122.474 13.4L120.574 13.86C120.521 13.4733 120.334 13.1733 120.014 12.96C119.708 12.7333 119.328 12.62 118.874 12.62C118.408 12.62 118.028 12.7333 117.734 12.96C117.454 13.1867 117.314 13.4867 117.314 13.86C117.314 14.18 117.421 14.44 117.634 14.64C117.848 14.8267 118.174 14.9733 118.614 15.08L119.994 15.44C120.874 15.6667 121.541 16.0267 121.994 16.52C122.448 17 122.674 17.5867 122.674 18.28C122.674 19.2 122.334 19.9267 121.654 20.46C120.988 20.9933 120.048 21.26 118.834 21.26C117.701 21.26 116.808 21.0133 116.154 20.52C115.501 20.0267 115.114 19.3733 114.994 18.56L116.914 18.22C116.968 18.62 117.154 18.94 117.474 19.18C117.808 19.42 118.254 19.54 118.814 19.54ZM139.981 21L139.081 19.88C137.975 20.7733 136.568 21.2267 134.861 21.24C134.048 21.24 133.315 21.14 132.661 20.94C132.008 20.7267 131.455 20.4333 131.001 20.06C130.548 19.6733 130.201 19.2133 129.961 18.68C129.721 18.1467 129.601 17.5533 129.601 16.9C129.601 15.94 129.868 15.12 130.401 14.44C130.948 13.7467 131.788 13.08 132.921 12.44C132.628 12.0933 132.375 11.78 132.161 11.5C131.961 11.2067 131.808 10.9467 131.701 10.72C131.475 10.24 131.361 9.76667 131.361 9.3C131.361 8.82 131.448 8.38667 131.621 8C131.808 7.61333 132.055 7.28667 132.361 7.02C132.668 6.75333 133.035 6.55333 133.461 6.42C133.901 6.27333 134.368 6.2 134.861 6.2C135.875 6.2 136.701 6.48 137.341 7.04C137.981 7.6 138.301 8.32 138.301 9.2C138.301 9.85333 138.088 10.4667 137.661 11.04C137.248 11.6133 136.581 12.2 135.661 12.8L138.861 16.62C139.061 15.9933 139.161 15.2867 139.161 14.5C139.161 14.3667 139.161 14.26 139.161 14.18C139.161 14.0867 139.155 14.0067 139.141 13.94H141.341C141.395 15.6467 141.068 17.1333 140.361 18.4L142.521 21H139.981ZM133.441 9.5C133.441 9.78 133.528 10.0667 133.701 10.36C133.888 10.64 134.201 11.04 134.641 11.56C135.708 10.8933 136.241 10.18 136.241 9.42C136.241 9.03333 136.121 8.71333 135.881 8.46C135.641 8.19333 135.295 8.06 134.841 8.06C134.388 8.06 134.035 8.2 133.781 8.48C133.541 8.76 133.428 9.1 133.441 9.5ZM134.001 13.76C133.348 14.16 132.821 14.62 132.421 15.14C132.035 15.66 131.841 16.2267 131.841 16.84C131.841 17.6 132.121 18.2133 132.681 18.68C133.241 19.1333 134.028 19.36 135.041 19.36C136.215 19.3333 137.141 19 137.821 18.36L134.001 13.76ZM153.844 6.2C155.178 6.2 156.278 6.52 157.144 7.16C158.011 7.8 158.544 8.66 158.744 9.74L156.624 10.32C156.491 9.64 156.178 9.12667 155.684 8.78C155.191 8.42 154.564 8.24 153.804 8.24C152.991 8.24 152.344 8.44 151.864 8.84C151.398 9.22667 151.164 9.74 151.164 10.38C151.164 10.9 151.324 11.3267 151.644 11.66C151.978 11.98 152.444 12.2133 153.044 12.36L155.444 12.98C156.684 13.2867 157.598 13.78 158.184 14.46C158.771 15.14 159.064 15.98 159.064 16.98C159.064 17.6067 158.944 18.1867 158.704 18.72C158.464 19.24 158.124 19.6933 157.684 20.08C157.244 20.4533 156.704 20.7467 156.064 20.96C155.438 21.16 154.731 21.26 153.944 21.26C152.518 21.26 151.338 20.9333 150.404 20.28C149.444 19.6133 148.878 18.7133 148.704 17.58L150.824 17.02C150.918 17.7 151.244 18.2333 151.804 18.62C152.378 18.9933 153.111 19.18 154.004 19.18C154.884 19.18 155.578 18.9933 156.084 18.62C156.591 18.2467 156.844 17.7333 156.844 17.08C156.844 16.0667 156.218 15.3933 154.964 15.06L152.564 14.48C151.324 14.1867 150.411 13.6933 149.824 13C149.238 12.3067 148.944 11.46 148.944 10.46C148.944 9.83333 149.058 9.26 149.284 8.74C149.524 8.20667 149.858 7.75333 150.284 7.38C150.724 7.00667 151.244 6.72 151.844 6.52C152.444 6.30667 153.111 6.2 153.844 6.2ZM168.46 21C168.38 20.68 168.32 20.2867 168.28 19.82C168 20.2867 167.6 20.6467 167.08 20.9C166.56 21.14 165.96 21.26 165.28 21.26C164.187 21.26 163.247 20.94 162.46 20.3C161.673 19.6333 161.28 18.5733 161.28 17.12V11.16H163.42V16.76C163.42 17.7333 163.647 18.4067 164.1 18.78C164.567 19.1667 165.107 19.36 165.72 19.36C166.067 19.36 166.387 19.3067 166.68 19.2C166.987 19.08 167.253 18.9067 167.48 18.68C167.72 18.4533 167.907 18.1733 168.04 17.84C168.173 17.5067 168.24 17.12 168.24 16.68V11.18H170.38V19.2C170.38 19.4667 170.393 19.78 170.42 20.14C170.46 20.4867 170.507 20.7733 170.56 21H168.46ZM183.656 16.14C183.656 16.9133 183.536 17.62 183.296 18.26C183.07 18.8867 182.75 19.4267 182.336 19.88C181.923 20.32 181.423 20.66 180.836 20.9C180.263 21.14 179.623 21.26 178.916 21.26C178.076 21.26 177.356 21.1 176.756 20.78C176.156 20.4467 175.71 20.0267 175.416 19.52L175.296 21H173.396V6.2H175.456V12.58C175.803 12.02 176.283 11.6 176.896 11.32C177.523 11.0267 178.196 10.88 178.916 10.88C179.623 10.88 180.263 11.0067 180.836 11.26C181.423 11.5 181.923 11.8467 182.336 12.3C182.75 12.7533 183.07 13.3067 183.296 13.96C183.536 14.6133 183.656 15.34 183.656 16.14ZM181.516 16.06C181.516 15.06 181.243 14.2667 180.696 13.68C180.163 13.0933 179.45 12.8 178.556 12.8C177.663 12.8 176.943 13.0933 176.396 13.68C175.85 14.2667 175.576 15.06 175.576 16.06C175.576 17.06 175.85 17.8533 176.396 18.44C176.943 19.0267 177.663 19.32 178.556 19.32C179.45 19.32 180.163 19.0267 180.696 18.44C181.243 17.8533 181.516 17.06 181.516 16.06ZM189.101 19.54C189.608 19.54 190.021 19.44 190.341 19.24C190.674 19.0267 190.841 18.7 190.841 18.26C190.841 17.66 190.454 17.2733 189.681 17.1L188.281 16.72C186.454 16.2133 185.541 15.2733 185.541 13.9C185.541 13.46 185.621 13.06 185.781 12.7C185.954 12.3267 186.194 12.0067 186.501 11.74C186.808 11.4733 187.181 11.2667 187.621 11.12C188.061 10.9733 188.554 10.9 189.101 10.9C190.074 10.9 190.894 11.12 191.561 11.56C192.228 11.9867 192.628 12.6 192.761 13.4L190.861 13.86C190.808 13.4733 190.621 13.1733 190.301 12.96C189.994 12.7333 189.614 12.62 189.161 12.62C188.694 12.62 188.314 12.7333 188.021 12.96C187.741 13.1867 187.601 13.4867 187.601 13.86C187.601 14.18 187.708 14.44 187.921 14.64C188.134 14.8267 188.461 14.9733 188.901 15.08L190.281 15.44C191.161 15.6667 191.828 16.0267 192.281 16.52C192.734 17 192.961 17.5867 192.961 18.28C192.961 19.2 192.621 19.9267 191.941 20.46C191.274 20.9933 190.334 21.26 189.121 21.26C187.988 21.26 187.094 21.0133 186.441 20.52C185.788 20.0267 185.401 19.3733 185.281 18.56L187.201 18.22C187.254 18.62 187.441 18.94 187.761 19.18C188.094 19.42 188.541 19.54 189.101 19.54ZM201.365 7.74C201.365 7.34 201.498 7.00667 201.765 6.74C202.032 6.46 202.365 6.32 202.765 6.32C203.152 6.32 203.478 6.46 203.745 6.74C204.025 7.00667 204.165 7.34 204.165 7.74C204.165 8.12667 204.025 8.46 203.745 8.74C203.478 9.00667 203.152 9.14 202.765 9.14C202.365 9.14 202.032 9.00667 201.765 8.74C201.498 8.46 201.365 8.12667 201.365 7.74ZM203.805 21H201.685V12.94H198.065V21H195.965V12.94H194.045V11.18H195.965V8.1H198.065V11.18H203.805V21ZM211.73 12.94H209.81V21H207.71V12.94H205.79V11.18H207.71V8.1H209.81V11.18H211.73V12.94ZM220.847 21C220.767 20.68 220.707 20.2867 220.667 19.82C220.387 20.2867 219.987 20.6467 219.467 20.9C218.947 21.14 218.347 21.26 217.667 21.26C216.573 21.26 215.633 20.94 214.847 20.3C214.06 19.6333 213.667 18.5733 213.667 17.12V11.16H215.807V16.76C215.807 17.7333 216.033 18.4067 216.487 18.78C216.953 19.1667 217.493 19.36 218.107 19.36C218.453 19.36 218.773 19.3067 219.067 19.2C219.373 19.08 219.64 18.9067 219.867 18.68C220.107 18.4533 220.293 18.1733 220.427 17.84C220.56 17.5067 220.627 17.12 220.627 16.68V11.18H222.767V19.2C222.767 19.4667 222.78 19.78 222.807 20.14C222.847 20.4867 222.893 20.7733 222.947 21H220.847ZM230.743 12.94H228.823V21H226.723V12.94H224.803V11.18H226.723V8.1H228.823V11.18H230.743V12.94ZM241.547 16.92H233.887C233.967 17.76 234.267 18.3867 234.787 18.8C235.32 19.2133 235.967 19.42 236.727 19.42C237.367 19.42 237.907 19.28 238.347 19C238.787 18.7067 239.134 18.3067 239.387 17.8L241.167 18.52C240.794 19.4 240.207 20.08 239.407 20.56C238.62 21.0267 237.72 21.26 236.707 21.26C235.987 21.26 235.327 21.14 234.727 20.9C234.14 20.6467 233.634 20.2933 233.207 19.84C232.78 19.3867 232.447 18.8467 232.207 18.22C231.98 17.58 231.867 16.8733 231.867 16.1C231.867 15.34 231.98 14.64 232.207 14C232.447 13.36 232.78 12.8133 233.207 12.36C233.634 11.8933 234.147 11.5333 234.747 11.28C235.347 11.0267 236.014 10.9 236.747 10.9C237.467 10.9 238.12 11.0267 238.707 11.28C239.307 11.52 239.814 11.8667 240.227 12.32C240.654 12.7733 240.98 13.32 241.207 13.96C241.434 14.5867 241.547 15.2933 241.547 16.08V16.92ZM239.387 15.4C239.334 14.5067 239.074 13.8333 238.607 13.38C238.14 12.9133 237.507 12.68 236.707 12.68C235.907 12.68 235.26 12.9133 234.767 13.38C234.287 13.8467 234 14.52 233.907 15.4H239.387ZM247.039 19.54C247.546 19.54 247.959 19.44 248.279 19.24C248.613 19.0267 248.779 18.7 248.779 18.26C248.779 17.66 248.393 17.2733 247.619 17.1L246.219 16.72C244.393 16.2133 243.479 15.2733 243.479 13.9C243.479 13.46 243.559 13.06 243.719 12.7C243.893 12.3267 244.133 12.0067 244.439 11.74C244.746 11.4733 245.119 11.2667 245.559 11.12C245.999 10.9733 246.493 10.9 247.039 10.9C248.013 10.9 248.833 11.12 249.499 11.56C250.166 11.9867 250.566 12.6 250.699 13.4L248.799 13.86C248.746 13.4733 248.559 13.1733 248.239 12.96C247.933 12.7333 247.553 12.62 247.099 12.62C246.633 12.62 246.253 12.7333 245.959 12.96C245.679 13.1867 245.539 13.4867 245.539 13.86C245.539 14.18 245.646 14.44 245.859 14.64C246.073 14.8267 246.399 14.9733 246.839 15.08L248.219 15.44C249.099 15.6667 249.766 16.0267 250.219 16.52C250.673 17 250.899 17.5867 250.899 18.28C250.899 19.2 250.559 19.9267 249.879 20.46C249.213 20.9933 248.273 21.26 247.059 21.26C245.926 21.26 245.033 21.0133 244.379 20.52C243.726 20.0267 243.339 19.3733 243.219 18.56L245.139 18.22C245.193 18.62 245.379 18.94 245.699 19.18C246.033 19.42 246.479 19.54 247.039 19.54Z" fill="white"/>
</svg>
</g>
<g id="2_TEXT">
<path id="Hormonal system disrupted" d="M1209.56 566.102H1207V551.482H1209.56V557.522H1216.04V551.482H1218.6V566.102H1216.04V559.902H1209.56V566.102ZM1221.1 561.142C1221.1 558.062 1223.32 555.942 1226.38 555.942C1229.44 555.942 1231.66 558.062 1231.66 561.142C1231.66 564.222 1229.44 566.342 1226.38 566.342C1223.32 566.342 1221.1 564.222 1221.1 561.142ZM1223.54 561.142C1223.54 562.942 1224.7 564.162 1226.38 564.162C1228.06 564.162 1229.22 562.942 1229.22 561.142C1229.22 559.342 1228.06 558.122 1226.38 558.122C1224.7 558.122 1223.54 559.342 1223.54 561.142ZM1239.99 556.182V558.442H1239.09C1237.33 558.442 1236.23 559.382 1236.23 561.302V566.102H1233.79V556.242H1236.09L1236.23 557.682C1236.65 556.702 1237.59 556.042 1238.91 556.042C1239.25 556.042 1239.59 556.082 1239.99 556.182ZM1244.28 566.102H1241.84V556.222H1244.08L1244.28 557.382C1244.78 556.562 1245.78 555.922 1247.2 555.922C1248.7 555.922 1249.74 556.662 1250.26 557.802C1250.76 556.662 1251.92 555.922 1253.42 555.922C1255.82 555.922 1257.14 557.362 1257.14 559.642V566.102H1254.72V560.282C1254.72 558.862 1253.96 558.122 1252.8 558.122C1251.62 558.122 1250.72 558.882 1250.72 560.502V566.102H1248.28V560.262C1248.28 558.882 1247.54 558.142 1246.38 558.142C1245.22 558.142 1244.28 558.902 1244.28 560.502V566.102ZM1259.16 561.142C1259.16 558.062 1261.38 555.942 1264.44 555.942C1267.5 555.942 1269.72 558.062 1269.72 561.142C1269.72 564.222 1267.5 566.342 1264.44 566.342C1261.38 566.342 1259.16 564.222 1259.16 561.142ZM1261.6 561.142C1261.6 562.942 1262.76 564.162 1264.44 564.162C1266.12 564.162 1267.28 562.942 1267.28 561.142C1267.28 559.342 1266.12 558.122 1264.44 558.122C1262.76 558.122 1261.6 559.342 1261.6 561.142ZM1274.29 566.102H1271.85V556.222H1274.11L1274.31 557.502C1274.93 556.502 1276.13 555.922 1277.47 555.922C1279.95 555.922 1281.23 557.462 1281.23 560.022V566.102H1278.79V560.602C1278.79 558.942 1277.97 558.142 1276.71 558.142C1275.21 558.142 1274.29 559.182 1274.29 560.782V566.102ZM1286.77 566.362C1284.67 566.362 1283.39 565.142 1283.39 563.282C1283.39 561.462 1284.71 560.322 1287.05 560.142L1290.01 559.922V559.702C1290.01 558.362 1289.21 557.822 1287.97 557.822C1286.53 557.822 1285.73 558.422 1285.73 559.462H1283.65C1283.65 557.322 1285.41 555.922 1288.09 555.922C1290.75 555.922 1292.39 557.362 1292.39 560.102V566.102H1290.25L1290.07 564.642C1289.65 565.662 1288.31 566.362 1286.77 566.362ZM1287.57 564.522C1289.07 564.522 1290.03 563.622 1290.03 562.102V561.582L1287.97 561.742C1286.45 561.882 1285.87 562.382 1285.87 563.182C1285.87 564.082 1286.47 564.522 1287.57 564.522ZM1297.45 566.102H1295.03V551.222H1297.45V566.102ZM1305.04 563.102H1307.36C1307.38 563.962 1308.02 564.502 1309.14 564.502C1310.28 564.502 1310.9 564.042 1310.9 563.322C1310.9 562.822 1310.64 562.462 1309.76 562.262L1307.98 561.842C1306.2 561.442 1305.34 560.602 1305.34 559.022C1305.34 557.082 1306.98 555.922 1309.26 555.922C1311.48 555.922 1312.98 557.202 1313 559.122H1310.68C1310.66 558.282 1310.1 557.742 1309.16 557.742C1308.2 557.742 1307.64 558.182 1307.64 558.922C1307.64 559.482 1308.08 559.842 1308.92 560.042L1310.7 560.462C1312.36 560.842 1313.2 561.602 1313.2 563.122C1313.2 565.122 1311.5 566.362 1309.06 566.362C1306.6 566.362 1305.04 565.042 1305.04 563.102ZM1314.2 570.682V568.642H1315.66C1316.62 568.642 1317.22 568.422 1317.64 567.262L1317.92 566.522L1313.94 556.222H1316.52L1319.06 563.422L1321.74 556.222H1324.26L1319.42 568.302C1318.68 570.142 1317.64 570.902 1316.02 570.902C1315.34 570.902 1314.74 570.822 1314.2 570.682ZM1324.87 563.102H1327.19C1327.21 563.962 1327.85 564.502 1328.97 564.502C1330.11 564.502 1330.73 564.042 1330.73 563.322C1330.73 562.822 1330.47 562.462 1329.59 562.262L1327.81 561.842C1326.03 561.442 1325.17 560.602 1325.17 559.022C1325.17 557.082 1326.81 555.922 1329.09 555.922C1331.31 555.922 1332.81 557.202 1332.83 559.122H1330.51C1330.49 558.282 1329.93 557.742 1328.99 557.742C1328.03 557.742 1327.47 558.182 1327.47 558.922C1327.47 559.482 1327.91 559.842 1328.75 560.042L1330.53 560.462C1332.19 560.842 1333.03 561.602 1333.03 563.122C1333.03 565.122 1331.33 566.362 1328.89 566.362C1326.43 566.362 1324.87 565.042 1324.87 563.102ZM1338.45 566.102H1336.01V558.262H1334.11V556.222H1336.01V553.142H1338.45V556.222H1340.37V558.262H1338.45V566.102ZM1346.41 566.362C1343.47 566.362 1341.41 564.222 1341.41 561.162C1341.41 558.062 1343.43 555.922 1346.33 555.922C1349.29 555.922 1351.17 557.902 1351.17 560.982V561.722L1343.73 561.742C1343.91 563.482 1344.83 564.362 1346.45 564.362C1347.79 564.362 1348.67 563.842 1348.95 562.902H1351.21C1350.79 565.062 1348.99 566.362 1346.41 566.362ZM1346.35 557.922C1344.91 557.922 1344.03 558.702 1343.79 560.182H1348.75C1348.75 558.822 1347.81 557.922 1346.35 557.922ZM1355.76 566.102H1353.32V556.222H1355.56L1355.76 557.382C1356.26 556.562 1357.26 555.922 1358.68 555.922C1360.18 555.922 1361.22 556.662 1361.74 557.802C1362.24 556.662 1363.4 555.922 1364.9 555.922C1367.3 555.922 1368.62 557.362 1368.62 559.642V566.102H1366.2V560.282C1366.2 558.862 1365.44 558.122 1364.28 558.122C1363.1 558.122 1362.2 558.882 1362.2 560.502V566.102H1359.76V560.262C1359.76 558.882 1359.02 558.142 1357.86 558.142C1356.7 558.142 1355.76 558.902 1355.76 560.502V566.102ZM1380.87 566.362C1378.01 566.362 1376.23 564.262 1376.23 561.202C1376.23 558.122 1378.03 555.922 1381.01 555.922C1382.39 555.922 1383.61 556.502 1384.23 557.482V551.222H1386.65V566.102H1384.41L1384.25 564.562C1383.65 565.702 1382.37 566.362 1380.87 566.362ZM1381.41 564.122C1383.11 564.122 1384.21 562.902 1384.21 561.122C1384.21 559.342 1383.11 558.102 1381.41 558.102C1379.71 558.102 1378.67 559.362 1378.67 561.122C1378.67 562.882 1379.71 564.122 1381.41 564.122ZM1390.61 554.242C1389.77 554.242 1389.11 553.582 1389.11 552.762C1389.11 551.942 1389.77 551.302 1390.61 551.302C1391.41 551.302 1392.07 551.942 1392.07 552.762C1392.07 553.582 1391.41 554.242 1390.61 554.242ZM1389.39 566.102V556.222H1391.83V566.102H1389.39ZM1393.79 563.102H1396.11C1396.13 563.962 1396.77 564.502 1397.89 564.502C1399.03 564.502 1399.65 564.042 1399.65 563.322C1399.65 562.822 1399.39 562.462 1398.51 562.262L1396.73 561.842C1394.95 561.442 1394.09 560.602 1394.09 559.022C1394.09 557.082 1395.73 555.922 1398.01 555.922C1400.23 555.922 1401.73 557.202 1401.75 559.122H1399.43C1399.41 558.282 1398.85 557.742 1397.91 557.742C1396.95 557.742 1396.39 558.182 1396.39 558.922C1396.39 559.482 1396.83 559.842 1397.67 560.042L1399.45 560.462C1401.11 560.842 1401.95 561.602 1401.95 563.122C1401.95 565.122 1400.25 566.362 1397.81 566.362C1395.35 566.362 1393.79 565.042 1393.79 563.102ZM1410.21 556.182V558.442H1409.31C1407.55 558.442 1406.45 559.382 1406.45 561.302V566.102H1404.01V556.242H1406.31L1406.45 557.682C1406.87 556.702 1407.81 556.042 1409.13 556.042C1409.47 556.042 1409.81 556.082 1410.21 556.182ZM1418.76 556.222H1421.2V566.102H1418.94L1418.76 564.782C1418.16 565.722 1416.88 566.362 1415.56 566.362C1413.28 566.362 1411.94 564.822 1411.94 562.402V556.222H1414.38V561.542C1414.38 563.422 1415.12 564.182 1416.48 564.182C1418.02 564.182 1418.76 563.282 1418.76 561.402V556.222ZM1423.92 570.682V556.222H1426.18L1426.34 557.722C1426.94 556.582 1428.24 555.922 1429.74 555.922C1432.52 555.922 1434.36 557.942 1434.36 561.042C1434.36 564.122 1432.68 566.362 1429.74 566.362C1428.26 566.362 1426.98 565.782 1426.36 564.782V570.682H1423.92ZM1426.38 561.162C1426.38 562.942 1427.48 564.162 1429.16 564.162C1430.88 564.162 1431.9 562.922 1431.9 561.162C1431.9 559.402 1430.88 558.142 1429.16 558.142C1427.48 558.142 1426.38 559.382 1426.38 561.162ZM1439.77 566.102H1437.33V558.262H1435.43V556.222H1437.33V553.142H1439.77V556.222H1441.69V558.262H1439.77V566.102ZM1447.73 566.362C1444.79 566.362 1442.73 564.222 1442.73 561.162C1442.73 558.062 1444.75 555.922 1447.65 555.922C1450.61 555.922 1452.49 557.902 1452.49 560.982V561.722L1445.05 561.742C1445.23 563.482 1446.15 564.362 1447.77 564.362C1449.11 564.362 1449.99 563.842 1450.27 562.902H1452.53C1452.11 565.062 1450.31 566.362 1447.73 566.362ZM1447.67 557.922C1446.23 557.922 1445.35 558.702 1445.11 560.182H1450.07C1450.07 558.822 1449.13 557.922 1447.67 557.922ZM1458.7 566.362C1455.84 566.362 1454.06 564.262 1454.06 561.202C1454.06 558.122 1455.86 555.922 1458.84 555.922C1460.22 555.922 1461.44 556.502 1462.06 557.482V551.222H1464.48V566.102H1462.24L1462.08 564.562C1461.48 565.702 1460.2 566.362 1458.7 566.362ZM1459.24 564.122C1460.94 564.122 1462.04 562.902 1462.04 561.122C1462.04 559.342 1460.94 558.102 1459.24 558.102C1457.54 558.102 1456.5 559.362 1456.5 561.122C1456.5 562.882 1457.54 564.122 1459.24 564.122Z" fill="black"/>
<path id="Vector 2249_2" d="M966.133 559.102L1198.38 559.102" stroke="black" stroke-width="3" stroke-linecap="round"/>
<g id="B_PESTICIDES">
<rect id="Rectangle 4863_2" x="1208" y="576" width="133" height="27.5" rx="13.75" fill="#4446ce"/>
<path id="text_2" d="M1235.32 591.96H1232.1V597H1229.54V582.38H1235.32C1238.26 582.38 1240.16 584.3 1240.16 587.16C1240.16 589.98 1238.24 591.96 1235.32 591.96ZM1234.82 584.66H1232.1V589.68H1234.78C1236.54 589.68 1237.48 588.74 1237.48 587.14C1237.48 585.54 1236.52 584.66 1234.82 584.66ZM1245.88 597.26C1242.94 597.26 1240.88 595.12 1240.88 592.06C1240.88 588.96 1242.9 586.82 1245.8 586.82C1248.76 586.82 1250.64 588.8 1250.64 591.88V592.62L1243.2 592.64C1243.38 594.38 1244.3 595.26 1245.92 595.26C1247.26 595.26 1248.14 594.74 1248.42 593.8H1250.68C1250.26 595.96 1248.46 597.26 1245.88 597.26ZM1245.82 588.82C1244.38 588.82 1243.5 589.6 1243.26 591.08H1248.22C1248.22 589.72 1247.28 588.82 1245.82 588.82ZM1251.84 594H1254.16C1254.18 594.86 1254.82 595.4 1255.94 595.4C1257.08 595.4 1257.7 594.94 1257.7 594.22C1257.7 593.72 1257.44 593.36 1256.56 593.16L1254.78 592.74C1253 592.34 1252.14 591.5 1252.14 589.92C1252.14 587.98 1253.78 586.82 1256.06 586.82C1258.28 586.82 1259.78 588.1 1259.8 590.02H1257.48C1257.46 589.18 1256.9 588.64 1255.96 588.64C1255 588.64 1254.44 589.08 1254.44 589.82C1254.44 590.38 1254.88 590.74 1255.72 590.94L1257.5 591.36C1259.16 591.74 1260 592.5 1260 594.02C1260 596.02 1258.3 597.26 1255.86 597.26C1253.4 597.26 1251.84 595.94 1251.84 594ZM1265.21 597H1262.77V589.16H1260.87V587.12H1262.77V584.04H1265.21V587.12H1267.13V589.16H1265.21V597ZM1269.87 585.14C1269.03 585.14 1268.37 584.48 1268.37 583.66C1268.37 582.84 1269.03 582.2 1269.87 582.2C1270.67 582.2 1271.33 582.84 1271.33 583.66C1271.33 584.48 1270.67 585.14 1269.87 585.14ZM1268.65 597V587.12H1271.09V597H1268.65ZM1273.03 592.04C1273.03 588.98 1275.05 586.82 1277.97 586.82C1280.67 586.82 1282.51 588.32 1282.77 590.7H1280.33C1280.05 589.58 1279.23 589 1278.07 589C1276.51 589 1275.47 590.18 1275.47 592.04C1275.47 593.9 1276.43 595.06 1277.99 595.06C1279.21 595.06 1280.07 594.46 1280.33 593.38H1282.79C1282.49 595.68 1280.57 597.26 1277.99 597.26C1274.99 597.26 1273.03 595.18 1273.03 592.04ZM1285.83 585.14C1284.99 585.14 1284.33 584.48 1284.33 583.66C1284.33 582.84 1284.99 582.2 1285.83 582.2C1286.63 582.2 1287.29 582.84 1287.29 583.66C1287.29 584.48 1286.63 585.14 1285.83 585.14ZM1284.61 597V587.12H1287.05V597H1284.61ZM1293.63 597.26C1290.77 597.26 1288.99 595.16 1288.99 592.1C1288.99 589.02 1290.79 586.82 1293.77 586.82C1295.15 586.82 1296.37 587.4 1296.99 588.38V582.12H1299.41V597H1297.17L1297.01 595.46C1296.41 596.6 1295.13 597.26 1293.63 597.26ZM1294.17 595.02C1295.87 595.02 1296.97 593.8 1296.97 592.02C1296.97 590.24 1295.87 589 1294.17 589C1292.47 589 1291.43 590.26 1291.43 592.02C1291.43 593.78 1292.47 595.02 1294.17 595.02ZM1306.37 597.26C1303.43 597.26 1301.37 595.12 1301.37 592.06C1301.37 588.96 1303.39 586.82 1306.29 586.82C1309.25 586.82 1311.13 588.8 1311.13 591.88V592.62L1303.69 592.64C1303.87 594.38 1304.79 595.26 1306.41 595.26C1307.75 595.26 1308.63 594.74 1308.91 593.8H1311.17C1310.75 595.96 1308.95 597.26 1306.37 597.26ZM1306.31 588.82C1304.87 588.82 1303.99 589.6 1303.75 591.08H1308.71C1308.71 589.72 1307.77 588.82 1306.31 588.82ZM1312.32 594H1314.64C1314.66 594.86 1315.3 595.4 1316.42 595.4C1317.56 595.4 1318.18 594.94 1318.18 594.22C1318.18 593.72 1317.92 593.36 1317.04 593.16L1315.26 592.74C1313.48 592.34 1312.62 591.5 1312.62 589.92C1312.62 587.98 1314.26 586.82 1316.54 586.82C1318.76 586.82 1320.26 588.1 1320.28 590.02H1317.96C1317.94 589.18 1317.38 588.64 1316.44 588.64C1315.48 588.64 1314.92 589.08 1314.92 589.82C1314.92 590.38 1315.36 590.74 1316.2 590.94L1317.98 591.36C1319.64 591.74 1320.48 592.5 1320.48 594.02C1320.48 596.02 1318.78 597.26 1316.34 597.26C1313.88 597.26 1312.32 595.94 1312.32 594Z" fill="white"/>
</g>
</g>
<g id="0_TEXT">
<path id="Thyroid disease" d="M1060.35 218.922V216.562H1071.47V218.922H1067.19V231.182H1064.63V218.922H1060.35ZM1075.7 231.182H1073.26V216.302H1075.72V222.582C1076.34 221.622 1077.5 221.002 1078.92 221.002C1081.36 221.002 1082.64 222.542 1082.64 225.102V231.182H1080.2V225.682C1080.2 224.022 1079.38 223.222 1078.14 223.222C1076.6 223.222 1075.7 224.302 1075.7 225.782V231.182ZM1084.19 235.762V233.722H1085.65C1086.61 233.722 1087.21 233.502 1087.63 232.342L1087.91 231.602L1083.93 221.302H1086.51L1089.05 228.502L1091.73 221.302H1094.25L1089.41 233.382C1088.67 235.222 1087.63 235.982 1086.01 235.982C1085.33 235.982 1084.73 235.902 1084.19 235.762ZM1102.03 221.262V223.522H1101.13C1099.37 223.522 1098.27 224.462 1098.27 226.382V231.182H1095.83V221.322H1098.13L1098.27 222.762C1098.69 221.782 1099.63 221.122 1100.95 221.122C1101.29 221.122 1101.63 221.162 1102.03 221.262ZM1102.97 226.222C1102.97 223.142 1105.19 221.022 1108.25 221.022C1111.31 221.022 1113.53 223.142 1113.53 226.222C1113.53 229.302 1111.31 231.422 1108.25 231.422C1105.19 231.422 1102.97 229.302 1102.97 226.222ZM1105.41 226.222C1105.41 228.022 1106.57 229.242 1108.25 229.242C1109.93 229.242 1111.09 228.022 1111.09 226.222C1111.09 224.422 1109.93 223.202 1108.25 223.202C1106.57 223.202 1105.41 224.422 1105.41 226.222ZM1116.89 219.322C1116.05 219.322 1115.39 218.662 1115.39 217.842C1115.39 217.022 1116.05 216.382 1116.89 216.382C1117.69 216.382 1118.35 217.022 1118.35 217.842C1118.35 218.662 1117.69 219.322 1116.89 219.322ZM1115.67 231.182V221.302H1118.11V231.182H1115.67ZM1124.89 231.442C1122.03 231.442 1120.25 229.342 1120.25 226.282C1120.25 223.202 1122.05 221.002 1125.03 221.002C1126.41 221.002 1127.63 221.582 1128.25 222.562V216.302H1130.67V231.182H1128.43L1128.27 229.642C1127.67 230.782 1126.39 231.442 1124.89 231.442ZM1125.43 229.202C1127.13 229.202 1128.23 227.982 1128.23 226.202C1128.23 224.422 1127.13 223.182 1125.43 223.182C1123.73 223.182 1122.69 224.442 1122.69 226.202C1122.69 227.962 1123.73 229.202 1125.43 229.202ZM1143.06 231.442C1140.2 231.442 1138.42 229.342 1138.42 226.282C1138.42 223.202 1140.22 221.002 1143.2 221.002C1144.58 221.002 1145.8 221.582 1146.42 222.562V216.302H1148.84V231.182H1146.6L1146.44 229.642C1145.84 230.782 1144.56 231.442 1143.06 231.442ZM1143.6 229.202C1145.3 229.202 1146.4 227.982 1146.4 226.202C1146.4 224.422 1145.3 223.182 1143.6 223.182C1141.9 223.182 1140.86 224.442 1140.86 226.202C1140.86 227.962 1141.9 229.202 1143.6 229.202ZM1152.8 219.322C1151.96 219.322 1151.3 218.662 1151.3 217.842C1151.3 217.022 1151.96 216.382 1152.8 216.382C1153.6 216.382 1154.26 217.022 1154.26 217.842C1154.26 218.662 1153.6 219.322 1152.8 219.322ZM1151.58 231.182V221.302H1154.02V231.182H1151.58ZM1155.98 228.182H1158.3C1158.32 229.042 1158.96 229.582 1160.08 229.582C1161.22 229.582 1161.84 229.122 1161.84 228.402C1161.84 227.902 1161.58 227.542 1160.7 227.342L1158.92 226.922C1157.14 226.522 1156.28 225.682 1156.28 224.102C1156.28 222.162 1157.92 221.002 1160.2 221.002C1162.42 221.002 1163.92 222.282 1163.94 224.202H1161.62C1161.6 223.362 1161.04 222.822 1160.1 222.822C1159.14 222.822 1158.58 223.262 1158.58 224.002C1158.58 224.562 1159.02 224.922 1159.86 225.122L1161.64 225.542C1163.3 225.922 1164.14 226.682 1164.14 228.202C1164.14 230.202 1162.44 231.442 1160 231.442C1157.54 231.442 1155.98 230.122 1155.98 228.182ZM1170.62 231.442C1167.68 231.442 1165.62 229.302 1165.62 226.242C1165.62 223.142 1167.64 221.002 1170.54 221.002C1173.5 221.002 1175.38 222.982 1175.38 226.062V226.802L1167.94 226.822C1168.12 228.562 1169.04 229.442 1170.66 229.442C1172 229.442 1172.88 228.922 1173.16 227.982H1175.42C1175 230.142 1173.2 231.442 1170.62 231.442ZM1170.56 223.002C1169.12 223.002 1168.24 223.782 1168 225.262H1172.96C1172.96 223.902 1172.02 223.002 1170.56 223.002ZM1180.38 231.442C1178.28 231.442 1177 230.222 1177 228.362C1177 226.542 1178.32 225.402 1180.66 225.222L1183.62 225.002V224.782C1183.62 223.442 1182.82 222.902 1181.58 222.902C1180.14 222.902 1179.34 223.502 1179.34 224.542H1177.26C1177.26 222.402 1179.02 221.002 1181.7 221.002C1184.36 221.002 1186 222.442 1186 225.182V231.182H1183.86L1183.68 229.722C1183.26 230.742 1181.92 231.442 1180.38 231.442ZM1181.18 229.602C1182.68 229.602 1183.64 228.702 1183.64 227.182V226.662L1181.58 226.822C1180.06 226.962 1179.48 227.462 1179.48 228.262C1179.48 229.162 1180.08 229.602 1181.18 229.602ZM1187.83 228.182H1190.15C1190.17 229.042 1190.81 229.582 1191.93 229.582C1193.07 229.582 1193.69 229.122 1193.69 228.402C1193.69 227.902 1193.43 227.542 1192.55 227.342L1190.77 226.922C1188.99 226.522 1188.13 225.682 1188.13 224.102C1188.13 222.162 1189.77 221.002 1192.05 221.002C1194.27 221.002 1195.77 222.282 1195.79 224.202H1193.47C1193.45 223.362 1192.89 222.822 1191.95 222.822C1190.99 222.822 1190.43 223.262 1190.43 224.002C1190.43 224.562 1190.87 224.922 1191.71 225.122L1193.49 225.542C1195.15 225.922 1195.99 226.682 1195.99 228.202C1195.99 230.202 1194.29 231.442 1191.85 231.442C1189.39 231.442 1187.83 230.122 1187.83 228.182ZM1202.47 231.442C1199.53 231.442 1197.47 229.302 1197.47 226.242C1197.47 223.142 1199.49 221.002 1202.39 221.002C1205.35 221.002 1207.23 222.982 1207.23 226.062V226.802L1199.79 226.822C1199.97 228.562 1200.89 229.442 1202.51 229.442C1203.85 229.442 1204.73 228.922 1205.01 227.982H1207.27C1206.85 230.142 1205.05 231.442 1202.47 231.442ZM1202.41 223.002C1200.97 223.002 1200.09 223.782 1199.85 225.262H1204.81C1204.81 223.902 1203.87 223.002 1202.41 223.002Z" fill="black"/>
<path id="Vector 2249_3" d="M961.008 224.182L1053.01 224.182" stroke="black" stroke-width="3" stroke-linecap="round"/>
<g id="B_PFASs">
<rect id="Rectangle 4860" x="1060.01" y="239.182" width="111" height="27.5" rx="13.75" fill="#E45C4D"/>
<path id="text_3" d="M1093.94 255.142H1090.72V260.182H1088.16V245.562H1093.94C1096.88 245.562 1098.78 247.482 1098.78 250.342C1098.78 253.162 1096.86 255.142 1093.94 255.142ZM1093.44 247.842H1090.72V252.862H1093.4C1095.16 252.862 1096.1 251.922 1096.1 250.322C1096.1 248.722 1095.14 247.842 1093.44 247.842ZM1108.94 254.202H1103.5V260.182H1100.94V245.562H1109.98V247.922H1103.5V251.902H1108.94V254.202ZM1112.65 260.182H1109.99L1115.27 245.562H1117.89L1123.17 260.182H1120.47L1119.29 256.802H1113.83L1112.65 260.182ZM1116.25 249.922L1114.59 254.642H1118.55L1116.87 249.922C1116.75 249.542 1116.61 249.102 1116.57 248.802C1116.51 249.082 1116.39 249.522 1116.25 249.922ZM1124.16 249.642C1124.16 247.082 1126.28 245.302 1129.36 245.302C1132.32 245.302 1134.2 246.942 1134.28 249.582H1131.72C1131.66 248.322 1130.76 247.582 1129.32 247.582C1127.74 247.582 1126.72 248.342 1126.72 249.562C1126.72 250.602 1127.28 251.182 1128.5 251.462L1130.8 251.962C1133.3 252.502 1134.52 253.782 1134.52 255.962C1134.52 258.682 1132.4 260.442 1129.18 260.442C1126.06 260.442 1124.02 258.782 1123.96 256.162H1126.52C1126.54 257.402 1127.54 258.142 1129.18 258.142C1130.88 258.142 1131.96 257.402 1131.96 256.182C1131.96 255.202 1131.46 254.622 1130.26 254.362L1127.94 253.842C1125.46 253.302 1124.16 251.882 1124.16 249.642ZM1135.71 257.182H1138.03C1138.05 258.042 1138.69 258.582 1139.81 258.582C1140.95 258.582 1141.57 258.122 1141.57 257.402C1141.57 256.902 1141.31 256.542 1140.43 256.342L1138.65 255.922C1136.87 255.522 1136.01 254.682 1136.01 253.102C1136.01 251.162 1137.65 250.002 1139.93 250.002C1142.15 250.002 1143.65 251.282 1143.67 253.202H1141.35C1141.33 252.362 1140.77 251.822 1139.83 251.822C1138.87 251.822 1138.31 252.262 1138.31 253.002C1138.31 253.562 1138.75 253.922 1139.59 254.122L1141.37 254.542C1143.03 254.922 1143.87 255.682 1143.87 257.202C1143.87 259.202 1142.17 260.442 1139.73 260.442C1137.27 260.442 1135.71 259.122 1135.71 257.182Z" fill="white"/>
</g>
</g>
<g id="centroids">
<circle id="0_DOT" cx="951.008" cy="224.665" r="3.2342" fill="#FF0000"/>
<circle id="1_DOT" cx="957.476" cy="242.993" r="3.2342" fill="#FF0000"/>
<circle id="2_DOT" cx="957.476" cy="559.944" r="3.2342" fill="#FF0000"/>
</g>
</g>
</svg>
