<svg width="1920" height="1080" viewBox="0 0 1920 1080" fill="none" xmlns="http://www.w3.org/2000/svg">
<g id="ASSET ANIMATION D3 Respiratory Diseases">
<g id="1_TEXT">
<path id="Damage to lungs" d="M658.88 335H653.62V320.38H658.74C663.06 320.38 666.04 323.36 666.04 327.72C666.04 332.02 663.12 335 658.88 335ZM658.5 322.74H656.18V332.64H658.64C661.56 332.64 663.34 330.76 663.34 327.72C663.34 324.62 661.52 322.74 658.5 322.74ZM671.205 335.26C669.105 335.26 667.825 334.04 667.825 332.18C667.825 330.36 669.145 329.22 671.485 329.04L674.445 328.82V328.6C674.445 327.26 673.645 326.72 672.405 326.72C670.965 326.72 670.165 327.32 670.165 328.36H668.085C668.085 326.22 669.845 324.82 672.525 324.82C675.185 324.82 676.825 326.26 676.825 329V335H674.685L674.505 333.54C674.085 334.56 672.745 335.26 671.205 335.26ZM672.005 333.42C673.505 333.42 674.465 332.52 674.465 331V330.48L672.405 330.64C670.885 330.78 670.305 331.28 670.305 332.08C670.305 332.98 670.905 333.42 672.005 333.42ZM681.862 335H679.422V325.12H681.662L681.862 326.28C682.362 325.46 683.362 324.82 684.782 324.82C686.282 324.82 687.322 325.56 687.842 326.7C688.342 325.56 689.502 324.82 691.002 324.82C693.402 324.82 694.722 326.26 694.722 328.54V335H692.302V329.18C692.302 327.76 691.542 327.02 690.382 327.02C689.202 327.02 688.302 327.78 688.302 329.4V335H685.862V329.16C685.862 327.78 685.122 327.04 683.962 327.04C682.802 327.04 681.862 327.8 681.862 329.4V335ZM700.257 335.26C698.157 335.26 696.877 334.04 696.877 332.18C696.877 330.36 698.197 329.22 700.537 329.04L703.497 328.82V328.6C703.497 327.26 702.697 326.72 701.457 326.72C700.017 326.72 699.217 327.32 699.217 328.36H697.137C697.137 326.22 698.897 324.82 701.577 324.82C704.237 324.82 705.877 326.26 705.877 329V335H703.737L703.557 333.54C703.137 334.56 701.797 335.26 700.257 335.26ZM701.057 333.42C702.557 333.42 703.517 332.52 703.517 331V330.48L701.457 330.64C699.937 330.78 699.357 331.28 699.357 332.08C699.357 332.98 699.957 333.42 701.057 333.42ZM707.914 329.84C707.914 326.96 709.794 324.8 712.614 324.8C714.094 324.8 715.254 325.42 715.834 326.48L715.974 325.12H718.234V334.5C718.234 337.8 716.254 339.86 713.054 339.86C710.214 339.86 708.274 338.24 707.974 335.6H710.414C710.574 336.88 711.554 337.64 713.054 337.64C714.734 337.64 715.814 336.58 715.814 334.94V333.3C715.194 334.22 713.974 334.8 712.554 334.8C709.754 334.8 707.914 332.7 707.914 329.84ZM710.374 329.78C710.374 331.44 711.434 332.68 713.034 332.68C714.714 332.68 715.754 331.5 715.754 329.78C715.754 328.1 714.734 326.94 713.034 326.94C711.414 326.94 710.374 328.16 710.374 329.78ZM725.379 335.26C722.439 335.26 720.379 333.12 720.379 330.06C720.379 326.96 722.399 324.82 725.299 324.82C728.259 324.82 730.139 326.8 730.139 329.88V330.62L722.699 330.64C722.879 332.38 723.799 333.26 725.419 333.26C726.759 333.26 727.639 332.74 727.919 331.8H730.179C729.759 333.96 727.959 335.26 725.379 335.26ZM725.319 326.82C723.879 326.82 722.999 327.6 722.759 329.08H727.719C727.719 327.72 726.779 326.82 725.319 326.82ZM741.243 335H738.803V327.16H736.903V325.12H738.803V322.04H741.243V325.12H743.163V327.16H741.243V335ZM744.202 330.04C744.202 326.96 746.422 324.84 749.482 324.84C752.542 324.84 754.762 326.96 754.762 330.04C754.762 333.12 752.542 335.24 749.482 335.24C746.422 335.24 744.202 333.12 744.202 330.04ZM746.642 330.04C746.642 331.84 747.802 333.06 749.482 333.06C751.162 333.06 752.322 331.84 752.322 330.04C752.322 328.24 751.162 327.02 749.482 327.02C747.802 327.02 746.642 328.24 746.642 330.04ZM764.947 335H762.527V320.12H764.947V335ZM774.406 325.12H776.846V335H774.586L774.406 333.68C773.806 334.62 772.526 335.26 771.206 335.26C768.926 335.26 767.586 333.72 767.586 331.3V325.12H770.026V330.44C770.026 332.32 770.766 333.08 772.126 333.08C773.666 333.08 774.406 332.18 774.406 330.3V325.12ZM782.006 335H779.566V325.12H781.826L782.026 326.4C782.646 325.4 783.846 324.82 785.186 324.82C787.666 324.82 788.946 326.36 788.946 328.92V335H786.506V329.5C786.506 327.84 785.686 327.04 784.426 327.04C782.926 327.04 782.006 328.08 782.006 329.68V335ZM790.984 329.84C790.984 326.96 792.864 324.8 795.684 324.8C797.164 324.8 798.324 325.42 798.904 326.48L799.044 325.12H801.304V334.5C801.304 337.8 799.324 339.86 796.124 339.86C793.284 339.86 791.344 338.24 791.044 335.6H793.484C793.644 336.88 794.624 337.64 796.124 337.64C797.804 337.64 798.884 336.58 798.884 334.94V333.3C798.264 334.22 797.044 334.8 795.624 334.8C792.824 334.8 790.984 332.7 790.984 329.84ZM793.444 329.78C793.444 331.44 794.504 332.68 796.104 332.68C797.784 332.68 798.824 331.5 798.824 329.78C798.824 328.1 797.804 326.94 796.104 326.94C794.484 326.94 793.444 328.16 793.444 329.78ZM803.269 332H805.589C805.609 332.86 806.249 333.4 807.369 333.4C808.509 333.4 809.129 332.94 809.129 332.22C809.129 331.72 808.869 331.36 807.989 331.16L806.209 330.74C804.429 330.34 803.569 329.5 803.569 327.92C803.569 325.98 805.209 324.82 807.489 324.82C809.709 324.82 811.209 326.1 811.229 328.02H808.909C808.889 327.18 808.329 326.64 807.389 326.64C806.429 326.64 805.869 327.08 805.869 327.82C805.869 328.38 806.309 328.74 807.149 328.94L808.929 329.36C810.589 329.74 811.429 330.5 811.429 332.02C811.429 334.02 809.729 335.26 807.289 335.26C804.829 335.26 803.269 333.94 803.269 332Z" fill="black"/>
<path id="Vector 2249" d="M932 330.01L822 330.01" stroke="black" stroke-width="3" stroke-linecap="round"/>
<g id="B_MERCURY">
<rect id="Rectangle 4859" x="652" y="343" width="111" height="27.5" rx="13.75" fill="#E21337"/>
<path id="text" d="M672.743 364H670.263V349.38H672.743L677.463 361.02L682.183 349.38H684.703V364H682.223V359.5C682.223 356.56 682.223 355.7 682.363 354.66L678.643 364H676.283L672.583 354.68C672.723 355.56 672.743 356.94 672.743 358.76V364ZM691.998 364.26C689.058 364.26 686.998 362.12 686.998 359.06C686.998 355.96 689.018 353.82 691.918 353.82C694.878 353.82 696.758 355.8 696.758 358.88V359.62L689.318 359.64C689.498 361.38 690.418 362.26 692.038 362.26C693.378 362.26 694.258 361.74 694.538 360.8H696.798C696.378 362.96 694.578 364.26 691.998 364.26ZM691.938 355.82C690.498 355.82 689.618 356.6 689.378 358.08H694.338C694.338 356.72 693.398 355.82 691.938 355.82ZM704.911 354.08V356.34H704.011C702.251 356.34 701.151 357.28 701.151 359.2V364H698.711V354.14H701.011L701.151 355.58C701.571 354.6 702.511 353.94 703.831 353.94C704.171 353.94 704.511 353.98 704.911 354.08ZM705.651 359.04C705.651 355.98 707.671 353.82 710.591 353.82C713.291 353.82 715.131 355.32 715.391 357.7H712.951C712.671 356.58 711.851 356 710.691 356C709.131 356 708.091 357.18 708.091 359.04C708.091 360.9 709.051 362.06 710.611 362.06C711.831 362.06 712.691 361.46 712.951 360.38H715.411C715.111 362.68 713.191 364.26 710.611 364.26C707.611 364.26 705.651 362.18 705.651 359.04ZM723.927 354.12H726.367V364H724.107L723.927 362.68C723.327 363.62 722.047 364.26 720.727 364.26C718.447 364.26 717.107 362.72 717.107 360.3V354.12H719.547V359.44C719.547 361.32 720.287 362.08 721.647 362.08C723.187 362.08 723.927 361.18 723.927 359.3V354.12ZM735.087 354.08V356.34H734.187C732.427 356.34 731.327 357.28 731.327 359.2V364H728.887V354.14H731.187L731.327 355.58C731.747 354.6 732.687 353.94 734.007 353.94C734.347 353.94 734.687 353.98 735.087 354.08ZM736.171 368.58V366.54H737.631C738.591 366.54 739.191 366.32 739.611 365.16L739.891 364.42L735.911 354.12H738.491L741.031 361.32L743.711 354.12H746.231L741.391 366.2C740.651 368.04 739.611 368.8 737.991 368.8C737.311 368.8 736.711 368.72 736.171 368.58Z" fill="white"/>
</g>
</g>
<g id="0_TEXT">
<path id="Asthma" d="M1075.88 217H1073.22L1078.5 202.38H1081.12L1086.4 217H1083.7L1082.52 213.62H1077.06L1075.88 217ZM1079.48 206.74L1077.82 211.46H1081.78L1080.1 206.74C1079.98 206.36 1079.84 205.92 1079.8 205.62C1079.74 205.9 1079.62 206.34 1079.48 206.74ZM1087.31 214H1089.63C1089.65 214.86 1090.29 215.4 1091.41 215.4C1092.55 215.4 1093.17 214.94 1093.17 214.22C1093.17 213.72 1092.91 213.36 1092.03 213.16L1090.25 212.74C1088.47 212.34 1087.61 211.5 1087.61 209.92C1087.61 207.98 1089.25 206.82 1091.53 206.82C1093.75 206.82 1095.25 208.1 1095.27 210.02H1092.95C1092.93 209.18 1092.37 208.64 1091.43 208.64C1090.47 208.64 1089.91 209.08 1089.91 209.82C1089.91 210.38 1090.35 210.74 1091.19 210.94L1092.97 211.36C1094.63 211.74 1095.47 212.5 1095.47 214.02C1095.47 216.02 1093.77 217.26 1091.33 217.26C1088.87 217.26 1087.31 215.94 1087.31 214ZM1100.89 217H1098.45V209.16H1096.55V207.12H1098.45V204.04H1100.89V207.12H1102.81V209.16H1100.89V217ZM1106.97 217H1104.53V202.12H1106.99V208.4C1107.61 207.44 1108.77 206.82 1110.19 206.82C1112.63 206.82 1113.91 208.36 1113.91 210.92V217H1111.47V211.5C1111.47 209.84 1110.65 209.04 1109.41 209.04C1107.87 209.04 1106.97 210.12 1106.97 211.6V217ZM1118.95 217H1116.51V207.12H1118.75L1118.95 208.28C1119.45 207.46 1120.45 206.82 1121.87 206.82C1123.37 206.82 1124.41 207.56 1124.93 208.7C1125.43 207.56 1126.59 206.82 1128.09 206.82C1130.49 206.82 1131.81 208.26 1131.81 210.54V217H1129.39V211.18C1129.39 209.76 1128.63 209.02 1127.47 209.02C1126.29 209.02 1125.39 209.78 1125.39 211.4V217H1122.95V211.16C1122.95 209.78 1122.21 209.04 1121.05 209.04C1119.89 209.04 1118.95 209.8 1118.95 211.4V217ZM1137.34 217.26C1135.24 217.26 1133.96 216.04 1133.96 214.18C1133.96 212.36 1135.28 211.22 1137.62 211.04L1140.58 210.82V210.6C1140.58 209.26 1139.78 208.72 1138.54 208.72C1137.1 208.72 1136.3 209.32 1136.3 210.36H1134.22C1134.22 208.22 1135.98 206.82 1138.66 206.82C1141.32 206.82 1142.96 208.26 1142.96 211V217H1140.82L1140.64 215.54C1140.22 216.56 1138.88 217.26 1137.34 217.26ZM1138.14 215.42C1139.64 215.42 1140.6 214.52 1140.6 213V212.48L1138.54 212.64C1137.02 212.78 1136.44 213.28 1136.44 214.08C1136.44 214.98 1137.04 215.42 1138.14 215.42Z" fill="black"/>
<path id="Vector 2249_2" d="M968 210L1066 210" stroke="black" stroke-width="3" stroke-linecap="round"/>
<svg id="B_PHTHALATES" x="1073" y="225" xmlns="http://www.w3.org/2000/svg" width="278" height="29" viewBox="0 0 278 29" fill="none">
<rect width="278" height="27.5" rx="13.75" fill="#6769FF"/>
<path d="M38.5001 11.16C38.5001 11.8533 38.3867 12.4933 38.1601 13.08C37.9467 13.6533 37.6334 14.1533 37.2201 14.58C36.8067 14.9933 36.3067 15.32 35.7201 15.56C35.1334 15.7867 34.4734 15.9 33.7401 15.9H30.3001V21H28.0601V6.46H30.3001H33.7601C34.4934 6.46 35.1534 6.57333 35.7401 6.8C36.3267 7.01333 36.8201 7.32667 37.2201 7.74C37.6334 8.14 37.9467 8.63333 38.1601 9.22C38.3867 9.79333 38.5001 10.44 38.5001 11.16ZM36.1601 11.12C36.1601 10.3467 35.9201 9.71333 35.4401 9.22C34.9734 8.72667 34.2934 8.48 33.4001 8.48H30.3001V13.94H33.3401C34.2601 13.94 34.9601 13.68 35.4401 13.16C35.9201 12.64 36.1601 11.96 36.1601 11.12ZM49.7754 15.06V21H47.6554V15.52C47.6554 15.0133 47.5954 14.5867 47.4754 14.24C47.3554 13.8933 47.1887 13.62 46.9754 13.42C46.7621 13.2067 46.5087 13.0533 46.2154 12.96C45.9354 12.8667 45.6287 12.82 45.2954 12.82C44.9754 12.82 44.6621 12.88 44.3554 13C44.0487 13.1067 43.7687 13.2733 43.5154 13.5C43.2754 13.7267 43.0821 14.0133 42.9354 14.36C42.7887 14.7067 42.7154 15.1133 42.7154 15.58V21H40.5954V6.2H42.7154V12.3C43.0221 11.8733 43.4354 11.5333 43.9554 11.28C44.4887 11.0267 45.0754 10.9 45.7154 10.9C46.9954 10.9 47.9887 11.2533 48.6954 11.96C49.4154 12.6533 49.7754 13.6867 49.7754 15.06ZM57.5141 12.94H55.5941V21H53.4941V12.94H51.5741V11.18H53.4941V8.1H55.5941V11.18H57.5141V12.94ZM68.5934 15.06V21H66.4734V15.52C66.4734 15.0133 66.4134 14.5867 66.2934 14.24C66.1734 13.8933 66.0067 13.62 65.7934 13.42C65.58 13.2067 65.3267 13.0533 65.0334 12.96C64.7534 12.8667 64.4467 12.82 64.1134 12.82C63.7934 12.82 63.48 12.88 63.1734 13C62.8667 13.1067 62.5867 13.2733 62.3334 13.5C62.0934 13.7267 61.9 14.0133 61.7534 14.36C61.6067 14.7067 61.5334 15.1133 61.5334 15.58V21H59.4134V6.2H61.5334V12.3C61.84 11.8733 62.2534 11.5333 62.7734 11.28C63.3067 11.0267 63.8934 10.9 64.5334 10.9C65.8134 10.9 66.8067 11.2533 67.5134 11.96C68.2334 12.6533 68.5934 13.6867 68.5934 15.06ZM77.5721 21C77.5454 20.8667 77.5188 20.7 77.4921 20.5C77.4654 20.3 77.4388 20.06 77.4121 19.78C77.1321 20.22 76.7188 20.58 76.1721 20.86C75.6254 21.1267 74.9921 21.26 74.2721 21.26C73.1921 21.26 72.3254 20.98 71.6721 20.42C71.0321 19.8467 70.7121 19.0733 70.7121 18.1C70.7121 17.14 71.0321 16.3867 71.6721 15.84C72.3254 15.2933 73.1988 15.02 74.2921 15.02H77.3721V14.64C77.3721 13.9467 77.1721 13.44 76.7721 13.12C76.3854 12.8 75.8521 12.64 75.1721 12.64C73.9588 12.64 73.0988 13.1333 72.5921 14.12L71.0321 13.22C71.4321 12.42 71.9988 11.8333 72.7321 11.46C73.4654 11.0867 74.3121 10.9 75.2721 10.9C76.4854 10.9 77.4854 11.2133 78.2721 11.84C79.0588 12.4667 79.4521 13.48 79.4521 14.88V18.9C79.4521 19.98 79.5121 20.68 79.6321 21H77.5721ZM77.3721 16.52H74.7721C74.1588 16.52 73.6854 16.66 73.3521 16.94C73.0321 17.2067 72.8721 17.5867 72.8721 18.08C72.8721 18.5867 73.0388 18.9733 73.3721 19.24C73.7188 19.4933 74.1921 19.62 74.7921 19.62C75.5254 19.62 76.1388 19.3867 76.6321 18.92C77.1254 18.44 77.3721 17.72 77.3721 16.76V16.52ZM82.0985 6.2H84.2185V21H82.0985V6.2ZM93.187 21C93.1603 20.8667 93.1336 20.7 93.107 20.5C93.0803 20.3 93.0536 20.06 93.027 19.78C92.747 20.22 92.3336 20.58 91.787 20.86C91.2403 21.1267 90.607 21.26 89.887 21.26C88.807 21.26 87.9403 20.98 87.287 20.42C86.647 19.8467 86.327 19.0733 86.327 18.1C86.327 17.14 86.647 16.3867 87.287 15.84C87.9403 15.2933 88.8136 15.02 89.907 15.02H92.987V14.64C92.987 13.9467 92.787 13.44 92.387 13.12C92.0003 12.8 91.467 12.64 90.787 12.64C89.5736 12.64 88.7136 13.1333 88.207 14.12L86.647 13.22C87.047 12.42 87.6136 11.8333 88.347 11.46C89.0803 11.0867 89.927 10.9 90.887 10.9C92.1003 10.9 93.1003 11.2133 93.887 11.84C94.6736 12.4667 95.067 13.48 95.067 14.88V18.9C95.067 19.98 95.127 20.68 95.247 21H93.187ZM92.987 16.52H90.387C89.7736 16.52 89.3003 16.66 88.967 16.94C88.647 17.2067 88.487 17.5867 88.487 18.08C88.487 18.5867 88.6536 18.9733 88.987 19.24C89.3336 19.4933 89.807 19.62 90.407 19.62C91.1403 19.62 91.7536 19.3867 92.247 18.92C92.7403 18.44 92.987 17.72 92.987 16.76V16.52ZM102.518 12.94H100.598V21H98.4981V12.94H96.5781V11.18H98.4981V8.1H100.598V11.18H102.518V12.94ZM113.322 16.92H105.662C105.742 17.76 106.042 18.3867 106.562 18.8C107.095 19.2133 107.742 19.42 108.502 19.42C109.142 19.42 109.682 19.28 110.122 19C110.562 18.7067 110.909 18.3067 111.162 17.8L112.942 18.52C112.569 19.4 111.982 20.08 111.182 20.56C110.395 21.0267 109.495 21.26 108.482 21.26C107.762 21.26 107.102 21.14 106.502 20.9C105.915 20.6467 105.409 20.2933 104.982 19.84C104.555 19.3867 104.222 18.8467 103.982 18.22C103.755 17.58 103.642 16.8733 103.642 16.1C103.642 15.34 103.755 14.64 103.982 14C104.222 13.36 104.555 12.8133 104.982 12.36C105.409 11.8933 105.922 11.5333 106.522 11.28C107.122 11.0267 107.789 10.9 108.522 10.9C109.242 10.9 109.895 11.0267 110.482 11.28C111.082 11.52 111.589 11.8667 112.002 12.32C112.429 12.7733 112.755 13.32 112.982 13.96C113.209 14.5867 113.322 15.2933 113.322 16.08V16.92ZM111.162 15.4C111.109 14.5067 110.849 13.8333 110.382 13.38C109.915 12.9133 109.282 12.68 108.482 12.68C107.682 12.68 107.035 12.9133 106.542 13.38C106.062 13.8467 105.775 14.52 105.682 15.4H111.162ZM118.814 19.54C119.321 19.54 119.734 19.44 120.054 19.24C120.388 19.0267 120.554 18.7 120.554 18.26C120.554 17.66 120.168 17.2733 119.394 17.1L117.994 16.72C116.168 16.2133 115.254 15.2733 115.254 13.9C115.254 13.46 115.334 13.06 115.494 12.7C115.668 12.3267 115.908 12.0067 116.214 11.74C116.521 11.4733 116.894 11.2667 117.334 11.12C117.774 10.9733 118.268 10.9 118.814 10.9C119.788 10.9 120.608 11.12 121.274 11.56C121.941 11.9867 122.341 12.6 122.474 13.4L120.574 13.86C120.521 13.4733 120.334 13.1733 120.014 12.96C119.708 12.7333 119.328 12.62 118.874 12.62C118.408 12.62 118.028 12.7333 117.734 12.96C117.454 13.1867 117.314 13.4867 117.314 13.86C117.314 14.18 117.421 14.44 117.634 14.64C117.848 14.8267 118.174 14.9733 118.614 15.08L119.994 15.44C120.874 15.6667 121.541 16.0267 121.994 16.52C122.448 17 122.674 17.5867 122.674 18.28C122.674 19.2 122.334 19.9267 121.654 20.46C120.988 20.9933 120.048 21.26 118.834 21.26C117.701 21.26 116.808 21.0133 116.154 20.52C115.501 20.0267 115.114 19.3733 114.994 18.56L116.914 18.22C116.968 18.62 117.154 18.94 117.474 19.18C117.808 19.42 118.254 19.54 118.814 19.54ZM139.981 21L139.081 19.88C137.975 20.7733 136.568 21.2267 134.861 21.24C134.048 21.24 133.315 21.14 132.661 20.94C132.008 20.7267 131.455 20.4333 131.001 20.06C130.548 19.6733 130.201 19.2133 129.961 18.68C129.721 18.1467 129.601 17.5533 129.601 16.9C129.601 15.94 129.868 15.12 130.401 14.44C130.948 13.7467 131.788 13.08 132.921 12.44C132.628 12.0933 132.375 11.78 132.161 11.5C131.961 11.2067 131.808 10.9467 131.701 10.72C131.475 10.24 131.361 9.76667 131.361 9.3C131.361 8.82 131.448 8.38667 131.621 8C131.808 7.61333 132.055 7.28667 132.361 7.02C132.668 6.75333 133.035 6.55333 133.461 6.42C133.901 6.27333 134.368 6.2 134.861 6.2C135.875 6.2 136.701 6.48 137.341 7.04C137.981 7.6 138.301 8.32 138.301 9.2C138.301 9.85333 138.088 10.4667 137.661 11.04C137.248 11.6133 136.581 12.2 135.661 12.8L138.861 16.62C139.061 15.9933 139.161 15.2867 139.161 14.5C139.161 14.3667 139.161 14.26 139.161 14.18C139.161 14.0867 139.155 14.0067 139.141 13.94H141.341C141.395 15.6467 141.068 17.1333 140.361 18.4L142.521 21H139.981ZM133.441 9.5C133.441 9.78 133.528 10.0667 133.701 10.36C133.888 10.64 134.201 11.04 134.641 11.56C135.708 10.8933 136.241 10.18 136.241 9.42C136.241 9.03333 136.121 8.71333 135.881 8.46C135.641 8.19333 135.295 8.06 134.841 8.06C134.388 8.06 134.035 8.2 133.781 8.48C133.541 8.76 133.428 9.1 133.441 9.5ZM134.001 13.76C133.348 14.16 132.821 14.62 132.421 15.14C132.035 15.66 131.841 16.2267 131.841 16.84C131.841 17.6 132.121 18.2133 132.681 18.68C133.241 19.1333 134.028 19.36 135.041 19.36C136.215 19.3333 137.141 19 137.821 18.36L134.001 13.76ZM153.844 6.2C155.178 6.2 156.278 6.52 157.144 7.16C158.011 7.8 158.544 8.66 158.744 9.74L156.624 10.32C156.491 9.64 156.178 9.12667 155.684 8.78C155.191 8.42 154.564 8.24 153.804 8.24C152.991 8.24 152.344 8.44 151.864 8.84C151.398 9.22667 151.164 9.74 151.164 10.38C151.164 10.9 151.324 11.3267 151.644 11.66C151.978 11.98 152.444 12.2133 153.044 12.36L155.444 12.98C156.684 13.2867 157.598 13.78 158.184 14.46C158.771 15.14 159.064 15.98 159.064 16.98C159.064 17.6067 158.944 18.1867 158.704 18.72C158.464 19.24 158.124 19.6933 157.684 20.08C157.244 20.4533 156.704 20.7467 156.064 20.96C155.438 21.16 154.731 21.26 153.944 21.26C152.518 21.26 151.338 20.9333 150.404 20.28C149.444 19.6133 148.878 18.7133 148.704 17.58L150.824 17.02C150.918 17.7 151.244 18.2333 151.804 18.62C152.378 18.9933 153.111 19.18 154.004 19.18C154.884 19.18 155.578 18.9933 156.084 18.62C156.591 18.2467 156.844 17.7333 156.844 17.08C156.844 16.0667 156.218 15.3933 154.964 15.06L152.564 14.48C151.324 14.1867 150.411 13.6933 149.824 13C149.238 12.3067 148.944 11.46 148.944 10.46C148.944 9.83333 149.058 9.26 149.284 8.74C149.524 8.20667 149.858 7.75333 150.284 7.38C150.724 7.00667 151.244 6.72 151.844 6.52C152.444 6.30667 153.111 6.2 153.844 6.2ZM168.46 21C168.38 20.68 168.32 20.2867 168.28 19.82C168 20.2867 167.6 20.6467 167.08 20.9C166.56 21.14 165.96 21.26 165.28 21.26C164.187 21.26 163.247 20.94 162.46 20.3C161.673 19.6333 161.28 18.5733 161.28 17.12V11.16H163.42V16.76C163.42 17.7333 163.647 18.4067 164.1 18.78C164.567 19.1667 165.107 19.36 165.72 19.36C166.067 19.36 166.387 19.3067 166.68 19.2C166.987 19.08 167.253 18.9067 167.48 18.68C167.72 18.4533 167.907 18.1733 168.04 17.84C168.173 17.5067 168.24 17.12 168.24 16.68V11.18H170.38V19.2C170.38 19.4667 170.393 19.78 170.42 20.14C170.46 20.4867 170.507 20.7733 170.56 21H168.46ZM183.656 16.14C183.656 16.9133 183.536 17.62 183.296 18.26C183.07 18.8867 182.75 19.4267 182.336 19.88C181.923 20.32 181.423 20.66 180.836 20.9C180.263 21.14 179.623 21.26 178.916 21.26C178.076 21.26 177.356 21.1 176.756 20.78C176.156 20.4467 175.71 20.0267 175.416 19.52L175.296 21H173.396V6.2H175.456V12.58C175.803 12.02 176.283 11.6 176.896 11.32C177.523 11.0267 178.196 10.88 178.916 10.88C179.623 10.88 180.263 11.0067 180.836 11.26C181.423 11.5 181.923 11.8467 182.336 12.3C182.75 12.7533 183.07 13.3067 183.296 13.96C183.536 14.6133 183.656 15.34 183.656 16.14ZM181.516 16.06C181.516 15.06 181.243 14.2667 180.696 13.68C180.163 13.0933 179.45 12.8 178.556 12.8C177.663 12.8 176.943 13.0933 176.396 13.68C175.85 14.2667 175.576 15.06 175.576 16.06C175.576 17.06 175.85 17.8533 176.396 18.44C176.943 19.0267 177.663 19.32 178.556 19.32C179.45 19.32 180.163 19.0267 180.696 18.44C181.243 17.8533 181.516 17.06 181.516 16.06ZM189.101 19.54C189.608 19.54 190.021 19.44 190.341 19.24C190.674 19.0267 190.841 18.7 190.841 18.26C190.841 17.66 190.454 17.2733 189.681 17.1L188.281 16.72C186.454 16.2133 185.541 15.2733 185.541 13.9C185.541 13.46 185.621 13.06 185.781 12.7C185.954 12.3267 186.194 12.0067 186.501 11.74C186.808 11.4733 187.181 11.2667 187.621 11.12C188.061 10.9733 188.554 10.9 189.101 10.9C190.074 10.9 190.894 11.12 191.561 11.56C192.228 11.9867 192.628 12.6 192.761 13.4L190.861 13.86C190.808 13.4733 190.621 13.1733 190.301 12.96C189.994 12.7333 189.614 12.62 189.161 12.62C188.694 12.62 188.314 12.7333 188.021 12.96C187.741 13.1867 187.601 13.4867 187.601 13.86C187.601 14.18 187.708 14.44 187.921 14.64C188.134 14.8267 188.461 14.9733 188.901 15.08L190.281 15.44C191.161 15.6667 191.828 16.0267 192.281 16.52C192.734 17 192.961 17.5867 192.961 18.28C192.961 19.2 192.621 19.9267 191.941 20.46C191.274 20.9933 190.334 21.26 189.121 21.26C187.988 21.26 187.094 21.0133 186.441 20.52C185.788 20.0267 185.401 19.3733 185.281 18.56L187.201 18.22C187.254 18.62 187.441 18.94 187.761 19.18C188.094 19.42 188.541 19.54 189.101 19.54ZM201.365 7.74C201.365 7.34 201.498 7.00667 201.765 6.74C202.032 6.46 202.365 6.32 202.765 6.32C203.152 6.32 203.478 6.46 203.745 6.74C204.025 7.00667 204.165 7.34 204.165 7.74C204.165 8.12667 204.025 8.46 203.745 8.74C203.478 9.00667 203.152 9.14 202.765 9.14C202.365 9.14 202.032 9.00667 201.765 8.74C201.498 8.46 201.365 8.12667 201.365 7.74ZM203.805 21H201.685V12.94H198.065V21H195.965V12.94H194.045V11.18H195.965V8.1H198.065V11.18H203.805V21ZM211.73 12.94H209.81V21H207.71V12.94H205.79V11.18H207.71V8.1H209.81V11.18H211.73V12.94ZM220.847 21C220.767 20.68 220.707 20.2867 220.667 19.82C220.387 20.2867 219.987 20.6467 219.467 20.9C218.947 21.14 218.347 21.26 217.667 21.26C216.573 21.26 215.633 20.94 214.847 20.3C214.06 19.6333 213.667 18.5733 213.667 17.12V11.16H215.807V16.76C215.807 17.7333 216.033 18.4067 216.487 18.78C216.953 19.1667 217.493 19.36 218.107 19.36C218.453 19.36 218.773 19.3067 219.067 19.2C219.373 19.08 219.64 18.9067 219.867 18.68C220.107 18.4533 220.293 18.1733 220.427 17.84C220.56 17.5067 220.627 17.12 220.627 16.68V11.18H222.767V19.2C222.767 19.4667 222.78 19.78 222.807 20.14C222.847 20.4867 222.893 20.7733 222.947 21H220.847ZM230.743 12.94H228.823V21H226.723V12.94H224.803V11.18H226.723V8.1H228.823V11.18H230.743V12.94ZM241.547 16.92H233.887C233.967 17.76 234.267 18.3867 234.787 18.8C235.32 19.2133 235.967 19.42 236.727 19.42C237.367 19.42 237.907 19.28 238.347 19C238.787 18.7067 239.134 18.3067 239.387 17.8L241.167 18.52C240.794 19.4 240.207 20.08 239.407 20.56C238.62 21.0267 237.72 21.26 236.707 21.26C235.987 21.26 235.327 21.14 234.727 20.9C234.14 20.6467 233.634 20.2933 233.207 19.84C232.78 19.3867 232.447 18.8467 232.207 18.22C231.98 17.58 231.867 16.8733 231.867 16.1C231.867 15.34 231.98 14.64 232.207 14C232.447 13.36 232.78 12.8133 233.207 12.36C233.634 11.8933 234.147 11.5333 234.747 11.28C235.347 11.0267 236.014 10.9 236.747 10.9C237.467 10.9 238.12 11.0267 238.707 11.28C239.307 11.52 239.814 11.8667 240.227 12.32C240.654 12.7733 240.98 13.32 241.207 13.96C241.434 14.5867 241.547 15.2933 241.547 16.08V16.92ZM239.387 15.4C239.334 14.5067 239.074 13.8333 238.607 13.38C238.14 12.9133 237.507 12.68 236.707 12.68C235.907 12.68 235.26 12.9133 234.767 13.38C234.287 13.8467 234 14.52 233.907 15.4H239.387ZM247.039 19.54C247.546 19.54 247.959 19.44 248.279 19.24C248.613 19.0267 248.779 18.7 248.779 18.26C248.779 17.66 248.393 17.2733 247.619 17.1L246.219 16.72C244.393 16.2133 243.479 15.2733 243.479 13.9C243.479 13.46 243.559 13.06 243.719 12.7C243.893 12.3267 244.133 12.0067 244.439 11.74C244.746 11.4733 245.119 11.2667 245.559 11.12C245.999 10.9733 246.493 10.9 247.039 10.9C248.013 10.9 248.833 11.12 249.499 11.56C250.166 11.9867 250.566 12.6 250.699 13.4L248.799 13.86C248.746 13.4733 248.559 13.1733 248.239 12.96C247.933 12.7333 247.553 12.62 247.099 12.62C246.633 12.62 246.253 12.7333 245.959 12.96C245.679 13.1867 245.539 13.4867 245.539 13.86C245.539 14.18 245.646 14.44 245.859 14.64C246.073 14.8267 246.399 14.9733 246.839 15.08L248.219 15.44C249.099 15.6667 249.766 16.0267 250.219 16.52C250.673 17 250.899 17.5867 250.899 18.28C250.899 19.2 250.559 19.9267 249.879 20.46C249.213 20.9933 248.273 21.26 247.059 21.26C245.926 21.26 245.033 21.0133 244.379 20.52C243.726 20.0267 243.339 19.3733 243.219 18.56L245.139 18.22C245.193 18.62 245.379 18.94 245.699 19.18C246.033 19.42 246.479 19.54 247.039 19.54Z" fill="white"/>
</svg>
</g>
<g id="centroids">
<circle id="0_DOT" cx="958.555" cy="210.651" r="3.2342" fill="#FF0000"/>
<circle id="1_DOT" cx="941.305" cy="330.316" r="3.2342" fill="#FF0000"/>
</g>
</g>
</svg>
