<svg width="1920" height="1080" viewBox="0 0 1920 1080" fill="none" xmlns="http://www.w3.org/2000/svg">
<g id="Group 1345">
<circle id="Ellipse 4589" cx="1005.98" cy="711.952" r="3.2342" fill="black"/>
<circle id="Ellipse 4590" cx="1024.31" cy="710.874" r="3.2342" fill="black"/>
<circle id="Ellipse 4591" cx="1013.53" cy="723.81" r="3.2342" fill="black"/>
<circle id="Ellipse 4592" cx="1027.55" cy="730.279" r="3.2342" fill="black"/>
<circle id="Ellipse 4593" cx="997.359" cy="725.967" r="3.2342" fill="black"/>
<circle id="Ellipse 4594" cx="985.5" cy="713.03" r="3.2342" fill="black"/>
<circle id="Ellipse 4595" cx="996.281" cy="700.093" r="3.2342" fill="black"/>
<circle id="Ellipse 4596" cx="1011.37" cy="696.859" r="3.2342" fill="black"/>
<circle id="Ellipse 4597" cx="1025.39" cy="692.546" r="3.2342" fill="black"/>
<circle id="Ellipse 4598" cx="982.265" cy="696.859" r="3.2342" fill="black"/>
<circle id="Ellipse 4654" cx="980.109" cy="681.766" r="3.2342" fill="black"/>
<circle id="Ellipse 4655" cx="996.281" cy="682.844" r="3.2342" fill="black"/>
<circle id="Ellipse 4656" cx="1011.37" cy="680.688" r="3.2342" fill="black"/>
<circle id="Ellipse 4657" cx="1026.47" cy="675.297" r="3.2342" fill="black"/>
<circle id="Ellipse 4658" cx="1027.55" cy="659.126" r="3.2342" fill="black"/>
<circle id="Ellipse 4659" cx="1010.3" cy="664.517" r="3.2342" fill="black"/>
<circle id="Ellipse 4660" cx="991.969" cy="666.673" r="3.2342" fill="black"/>
<circle id="Ellipse 4661" cx="975.797" cy="667.751" r="3.2342" fill="black"/>
<circle id="Ellipse 4662" cx="975.797" cy="653.736" r="3.2342" fill="black"/>
<circle id="Ellipse 4663" cx="995.203" cy="651.58" r="3.2342" fill="black"/>
<circle id="Ellipse 4664" cx="1013.53" cy="648.346" r="3.2342" fill="black"/>
<circle id="Ellipse 4665" cx="1031.86" cy="644.034" r="3.2342" fill="black"/>
<circle id="Ellipse 4666" cx="1018.92" cy="633.253" r="3.2342" fill="black"/>
<circle id="Ellipse 4667" cx="1001.67" cy="634.331" r="3.2342" fill="black"/>
<circle id="Ellipse 4668" cx="985.5" cy="638.643" r="3.2342" fill="black"/>
<circle id="Ellipse 4669" cx="970.414" cy="640.799" r="3.2342" fill="black"/>
<circle id="Ellipse 4670" cx="1035.09" cy="627.862" r="3.2342" fill="black"/>
<circle id="Ellipse 4671" cx="1036.17" cy="611.691" r="3.2342" fill="black"/>
<circle id="Ellipse 4672" cx="1020" cy="619.238" r="3.2342" fill="black"/>
<circle id="Ellipse 4673" cx="1002.75" cy="617.082" r="3.2342" fill="black"/>
<circle id="Ellipse 4674" cx="987.656" cy="623.55" r="3.2342" fill="black"/>
<circle id="Ellipse 4675" cx="970.414" cy="624.628" r="3.2342" fill="black"/>
<circle id="Ellipse 4676" cx="986.578" cy="608.457" r="3.2342" fill="black"/>
<circle id="Ellipse 4677" cx="1002.75" cy="600.911" r="3.2342" fill="black"/>
<circle id="Ellipse 4678" cx="1020" cy="604.145" r="3.2342" fill="black"/>
<circle id="Ellipse 4772" cx="1012.45" cy="587.974" r="3.2342" fill="black"/>
<circle id="Ellipse 4773" cx="1009.22" cy="570.725" r="3.2342" fill="black"/>
<circle id="Ellipse 4774" cx="997.359" cy="583.662" r="3.2342" fill="black"/>
<circle id="Ellipse 4775" cx="991.969" cy="568.569" r="3.2342" fill="black"/>
<circle id="Ellipse 4777" cx="986.578" cy="553.476" r="3.2342" fill="black"/>
<circle id="Ellipse 4778" cx="997.359" cy="541.617" r="3.2342" fill="black"/>
<circle id="Ellipse 4779" cx="1005.98" cy="529.758" r="3.2342" fill="black"/>
<circle id="Ellipse 4780" cx="999.515" cy="513.587" r="3.2342" fill="black"/>
<circle id="Ellipse 4781" cx="993.047" cy="498.494" r="3.2342" fill="black"/>
<circle id="Ellipse 4782" cx="993.047" cy="483.401" r="3.2342" fill="black"/>
<circle id="Ellipse 4783" cx="989.812" cy="466.152" r="3.2342" fill="black"/>
<circle id="Ellipse 4784" cx="990.89" cy="448.903" r="3.2342" fill="black"/>
<circle id="Ellipse 4785" cx="990.89" cy="430.576" r="3.2342" fill="black"/>
<circle id="Ellipse 4786" cx="977.953" cy="419.795" r="3.2342" fill="black"/>
<circle id="Ellipse 4787" cx="983.344" cy="404.703" r="3.2342" fill="black"/>
<circle id="Ellipse 4788" cx="989.812" cy="385.297" r="3.2342" fill="black"/>
<circle id="Ellipse 4789" cx="988.734" cy="365.892" r="3.2342" fill="black"/>
<circle id="Ellipse 4790" cx="1000.59" cy="352.955" r="3.2342" fill="black"/>
<circle id="Ellipse 4791" cx="1014.61" cy="340.019" r="3.2342" fill="black"/>
<circle id="Ellipse 4792" cx="1030.78" cy="338.94" r="3.2342" fill="black"/>
<circle id="Ellipse 4793" cx="1045.87" cy="333.55" r="3.2342" fill="black"/>
<circle id="Ellipse 4794" cx="1057.73" cy="320.613" r="3.2342" fill="black"/>
<circle id="Ellipse 4795" cx="1038.33" cy="320.613" r="3.2342" fill="black"/>
<circle id="Ellipse 4796" cx="1049.11" cy="308.755" r="3.2342" fill="black"/>
<circle id="Ellipse 4799" cx="1067.44" cy="304.442" r="3.2342" fill="black"/>
<circle id="Ellipse 4800" cx="1072.83" cy="317.379" r="3.2342" fill="black"/>
<circle id="Ellipse 4801" cx="1067.44" cy="289.349" r="3.2342" fill="black"/>
<circle id="Ellipse 4802" cx="1053.42" cy="293.662" r="3.2342" fill="black"/>
<circle id="Ellipse 4803" cx="1037.25" cy="294.74" r="3.2342" fill="black"/>
<circle id="Ellipse 4804" cx="1046.95" cy="280.725" r="3.2342" fill="black"/>
<circle id="Ellipse 4806" cx="1039.41" cy="268.866" r="3.2342" fill="black"/>
<circle id="Ellipse 4807" cx="1053.42" cy="261.32" r="3.2342" fill="black"/>
<circle id="Ellipse 4808" cx="1039.41" cy="253.773" r="3.2342" fill="black"/>
<circle id="Ellipse 4809" cx="1025.39" cy="264.554" r="3.2342" fill="black"/>
<circle id="Ellipse 4810" cx="1023.23" cy="250.539" r="3.2342" fill="black"/>
<circle id="Ellipse 4811" cx="1029.7" cy="280.725" r="3.2342" fill="black"/>
<circle id="Ellipse 4812" cx="1015.69" cy="275.335" r="3.2342" fill="black"/>
<circle id="Ellipse 4813" cx="1009.22" cy="260.242" r="3.2342" fill="black"/>
<circle id="Ellipse 4814" cx="1008.14" cy="245.149" r="3.2342" fill="black"/>
<circle id="Ellipse 4822" cx="994.125" cy="239.759" r="3.2342" fill="black"/>
<circle id="Ellipse 4823" cx="991.969" cy="254.851" r="3.2342" fill="black"/>
<circle id="Ellipse 4824" cx="976.875" cy="246.227" r="3.2342" fill="black"/>
<circle id="Ellipse 4825" cx="983.344" cy="227.9" r="3.2342" fill="black"/>
<circle id="Ellipse 4826" cx="973.648" cy="216.041" r="3.2342" fill="black"/>
<circle id="Ellipse 4837" cx="958.555" cy="210.651" r="3.2342" fill="black"/>
<circle id="Ellipse 4838" cx="969.336" cy="195.557" r="3.2342" fill="black"/>
<circle id="Ellipse 4839" cx="988.734" cy="192.324" r="3.2342" fill="black"/>
<circle id="Ellipse 4840" cx="1000.59" cy="178.308" r="3.2342" fill="black"/>
<circle id="Ellipse 4841" cx="998.437" cy="164.294" r="3.2342" fill="black"/>
<circle id="Ellipse 4842" cx="981.187" cy="161.059" r="3.2342" fill="black"/>
<circle id="Ellipse 4844" cx="996.281" cy="147.045" r="3.2342" fill="black"/>
<circle id="Ellipse 4845" cx="994.125" cy="130.874" r="3.2342" fill="black"/>
<circle id="Ellipse 4846" cx="980.109" cy="144.889" r="3.2342" fill="black"/>
<circle id="Ellipse 4847" cx="974.726" cy="127.639" r="3.2342" fill="black"/>
<circle id="Ellipse 4848" cx="986.578" cy="116.859" r="3.2342" fill="black"/>
<circle id="Ellipse 4849" cx="971.492" cy="110.39" r="3.2342" fill="black"/>
<circle id="Ellipse 4850" cx="954.242" cy="108.234" r="3.2342" fill="black"/>
<circle id="Ellipse 4851" cx="939.148" cy="112.547" r="3.2342" fill="black"/>
<circle id="Ellipse 4853" cx="926.211" cy="123.327" r="3.2342" fill="black"/>
<circle id="Ellipse 4854" cx="940.226" cy="131.951" r="3.2342" fill="black"/>
<circle id="Ellipse 4855" cx="965.023" cy="142.732" r="3.2342" fill="black"/>
<circle id="Ellipse 4856" cx="951.008" cy="145.967" r="3.2342" fill="black"/>
<circle id="Ellipse 4857" cx="934.836" cy="151.357" r="3.2342" fill="black"/>
<circle id="Ellipse 4858" cx="921.898" cy="139.498" r="3.2342" fill="black"/>
<circle id="Ellipse 4859" cx="919.742" cy="159.981" r="3.2342" fill="black"/>
<circle id="Ellipse 4860" cx="932.68" cy="167.528" r="3.2342" fill="black"/>
<circle id="Ellipse 4861" cx="948.851" cy="165.372" r="3.2342" fill="black"/>
<circle id="Ellipse 4862" cx="965.023" cy="161.059" r="3.2342" fill="black"/>
<circle id="Ellipse 4863" cx="970.414" cy="178.308" r="3.2342" fill="black"/>
<circle id="Ellipse 4864" cx="956.398" cy="180.465" r="3.2342" fill="black"/>
<circle id="Ellipse 4865" cx="939.148" cy="181.543" r="3.2342" fill="black"/>
<circle id="Ellipse 4866" cx="918.664" cy="178.308" r="3.2342" fill="black"/>
<circle id="Ellipse 4867" cx="929.445" cy="194.479" r="3.2342" fill="black"/>
<circle id="Ellipse 4868" cx="949.93" cy="196.636" r="3.2342" fill="black"/>
<circle id="Ellipse 4869" cx="936.992" cy="209.573" r="3.2342" fill="black"/>
<circle id="Ellipse 4870" cx="951.008" cy="224.665" r="3.2342" fill="black"/>
<circle id="Ellipse 4871" cx="934.836" cy="224.665" r="3.2342" fill="black"/>
<circle id="Ellipse 4872" cx="925.133" cy="238.68" r="3.2342" fill="black"/>
<circle id="Ellipse 4874" cx="911.117" cy="245.149" r="3.2342" fill="black"/>
<circle id="Ellipse 4875" cx="927.289" cy="253.773" r="3.2342" fill="black"/>
<circle id="Ellipse 4876" cx="944.539" cy="255.929" r="3.2342" fill="black"/>
<circle id="Ellipse 4877" cx="949.93" cy="271.022" r="3.2342" fill="black"/>
<circle id="Ellipse 4878" cx="933.758" cy="269.944" r="3.2342" fill="black"/>
<circle id="Ellipse 4879" cx="918.664" cy="267.788" r="3.2342" fill="black"/>
<circle id="Ellipse 4880" cx="906.805" cy="260.242" r="3.2342" fill="black"/>
<circle id="Ellipse 4881" cx="894.945" cy="249.461" r="3.2342" fill="black"/>
<circle id="Ellipse 4882" cx="891.711" cy="267.788" r="3.2342" fill="black"/>
<circle id="Ellipse 4883" cx="905.726" cy="278.569" r="3.2342" fill="black"/>
<circle id="Ellipse 4884" cx="922.976" cy="283.959" r="3.2342" fill="black"/>
<circle id="Ellipse 4885" cx="939.148" cy="286.115" r="3.2342" fill="black"/>
<circle id="Ellipse 4886" cx="956.398" cy="286.115" r="3.2342" fill="black"/>
<circle id="Ellipse 4887" cx="967.18" cy="297.974" r="3.2342" fill="black"/>
<circle id="Ellipse 4888" cx="977.953" cy="309.833" r="3.2342" fill="black"/>
<circle id="Ellipse 4889" cx="948.851" cy="300.13" r="3.2342" fill="black"/>
<circle id="Ellipse 4890" cx="931.601" cy="301.208" r="3.2342" fill="black"/>
<circle id="Ellipse 4891" cx="915.43" cy="294.74" r="3.2342" fill="black"/>
<circle id="Ellipse 4892" cx="899.258" cy="293.662" r="3.2342" fill="black"/>
<circle id="Ellipse 4893" cx="887.398" cy="282.881" r="3.2342" fill="black"/>
<circle id="Ellipse 4894" cx="875.539" cy="271.022" r="3.2342" fill="black"/>
<circle id="Ellipse 4895" cx="879.851" cy="253.773" r="3.2342" fill="black"/>
<circle id="Ellipse 4896" cx="864.758" cy="258.086" r="3.2342" fill="black"/>
<circle id="Ellipse 4897" cx="858.289" cy="272.1" r="3.2342" fill="black"/>
<circle id="Ellipse 4898" cx="871.226" cy="286.115" r="3.2342" fill="black"/>
<circle id="Ellipse 4899" cx="866.914" cy="300.13" r="3.2342" fill="black"/>
<circle id="Ellipse 4900" cx="853.976" cy="286.115" r="3.2342" fill="black"/>
<circle id="Ellipse 4901" cx="849.664" cy="300.13" r="3.2342" fill="black"/>
<circle id="Ellipse 4902" cx="884.164" cy="300.13" r="3.2342" fill="black"/>
<circle id="Ellipse 4903" cx="902.492" cy="307.677" r="3.2342" fill="black"/>
<circle id="Ellipse 4904" cx="917.586" cy="310.911" r="3.2342" fill="black"/>
<circle id="Ellipse 4905" cx="929.445" cy="319.535" r="3.2342" fill="black"/>
<circle id="Ellipse 4906" cx="908.961" cy="324.926" r="3.2342" fill="black"/>
<circle id="Ellipse 4915" cx="924.055" cy="333.55" r="3.2342" fill="black"/>
<circle id="Ellipse 4916" cx="911.117" cy="342.175" r="3.2342" fill="black"/>
<circle id="Ellipse 4917" cx="898.18" cy="347.565" r="3.2342" fill="black"/>
<circle id="Ellipse 4918" cx="883.086" cy="345.409" r="3.2342" fill="black"/>
<circle id="Ellipse 4919" cx="866.914" cy="345.409" r="3.2342" fill="black"/>
<circle id="Ellipse 4920" cx="851.82" cy="345.409" r="3.2342" fill="black"/>
<circle id="Ellipse 4921" cx="838.883" cy="342.175" r="3.2342" fill="black"/>
<circle id="Ellipse 4922" cx="837.805" cy="357.268" r="3.2342" fill="black"/>
<circle id="Ellipse 4923" cx="855.055" cy="361.58" r="3.2342" fill="black"/>
<circle id="Ellipse 4924" cx="873.383" cy="359.424" r="3.2342" fill="black"/>
<circle id="Ellipse 4925" cx="892.789" cy="360.502" r="3.2342" fill="black"/>
<circle id="Ellipse 4926" cx="907.883" cy="361.58" r="3.2342" fill="black"/>
<circle id="Ellipse 4927" cx="922.976" cy="354.034" r="3.2342" fill="black"/>
<circle id="Ellipse 4928" cx="935.914" cy="344.331" r="3.2342" fill="black"/>
<circle id="Ellipse 4929" cx="941.305" cy="330.316" r="3.2342" fill="black"/>
<circle id="Ellipse 4930" cx="944.539" cy="314.145" r="3.2342" fill="black"/>
<circle id="Ellipse 4931" cx="960.711" cy="311.989" r="3.2342" fill="black"/>
<circle id="Ellipse 4932" cx="971.492" cy="323.847" r="3.2342" fill="black"/>
<circle id="Ellipse 4933" cx="956.398" cy="329.238" r="3.2342" fill="black"/>
<circle id="Ellipse 4934" cx="968.258" cy="343.253" r="3.2342" fill="black"/>
<circle id="Ellipse 4935" cx="981.187" cy="335.706" r="3.2342" fill="black"/>
<circle id="Ellipse 4936" cx="953.164" cy="345.409" r="3.2342" fill="black"/>
<circle id="Ellipse 4937" cx="971.492" cy="359.424" r="3.2342" fill="black"/>
<circle id="Ellipse 4942" cx="976.875" cy="375.595" r="3.2342" fill="black"/>
<circle id="Ellipse 4943" cx="962.867" cy="377.751" r="3.2342" fill="black"/>
<circle id="Ellipse 4944" cx="947.773" cy="375.595" r="3.2342" fill="black"/>
<circle id="Ellipse 4945" cx="933.758" cy="372.361" r="3.2342" fill="black"/>
<circle id="Ellipse 4946" cx="919.742" cy="370.204" r="3.2342" fill="black"/>
<circle id="Ellipse 4947" cx="908.961" cy="380.985" r="3.2342" fill="black"/>
<circle id="Ellipse 4948" cx="924.055" cy="386.376" r="3.2342" fill="black"/>
<circle id="Ellipse 4949" cx="939.148" cy="389.61" r="3.2342" fill="black"/>
<circle id="Ellipse 4950" cx="955.32" cy="393.922" r="3.2342" fill="black"/>
<circle id="Ellipse 4951" cx="972.57" cy="392.844" r="3.2342" fill="black"/>
<circle id="Ellipse 4952" cx="963.945" cy="410.093" r="3.2342" fill="black"/>
<circle id="Ellipse 4953" cx="945.617" cy="405.781" r="3.2342" fill="black"/>
<circle id="Ellipse 4954" cx="928.367" cy="402.546" r="3.2342" fill="black"/>
<circle id="Ellipse 4955" cx="913.273" cy="398.234" r="3.2342" fill="black"/>
<circle id="Ellipse 4956" cx="916.508" cy="416.561" r="3.2342" fill="black"/>
<circle id="Ellipse 4957" cx="931.601" cy="417.639" r="3.2342" fill="black"/>
<circle id="Ellipse 4958" cx="947.773" cy="421.952" r="3.2342" fill="black"/>
<circle id="Ellipse 4959" cx="961.789" cy="429.498" r="3.2342" fill="black"/>
<circle id="Ellipse 4960" cx="975.797" cy="438.123" r="3.2342" fill="black"/>
<circle id="Ellipse 4961" cx="976.875" cy="454.294" r="3.2342" fill="black"/>
<circle id="Ellipse 4962" cx="959.633" cy="449.982" r="3.2342" fill="black"/>
<circle id="Ellipse 4963" cx="946.695" cy="441.357" r="3.2342" fill="black"/>
<circle id="Ellipse 4964" cx="932.68" cy="433.81" r="3.2342" fill="black"/>
<circle id="Ellipse 4965" cx="916.508" cy="434.888" r="3.2342" fill="black"/>
<circle id="Ellipse 4966" cx="928.367" cy="448.903" r="3.2342" fill="black"/>
<circle id="Ellipse 4967" cx="942.383" cy="457.528" r="3.2342" fill="black"/>
<circle id="Ellipse 4968" cx="954.242" cy="467.231" r="3.2342" fill="black"/>
<circle id="Ellipse 4969" cx="969.336" cy="468.308" r="3.2342" fill="black"/>
<circle id="Ellipse 4970" cx="975.797" cy="482.324" r="3.2342" fill="black"/>
<circle id="Ellipse 4971" cx="957.476" cy="484.48" r="3.2342" fill="black"/>
<circle id="Ellipse 4972" cx="940.226" cy="479.089" r="3.2342" fill="black"/>
<circle id="Ellipse 4973" cx="926.211" cy="467.231" r="3.2342" fill="black"/>
<circle id="Ellipse 4974" cx="912.195" cy="455.372" r="3.2342" fill="black"/>
<circle id="Ellipse 4975" cx="910.039" cy="473.699" r="3.2342" fill="black"/>
<circle id="Ellipse 5128" cx="894.945" cy="467.231" r="3.2342" fill="black"/>
<circle id="Ellipse 5129" cx="896.023" cy="452.138" r="3.2342" fill="black"/>
<circle id="Ellipse 5130" cx="900.336" cy="439.201" r="3.2342" fill="black"/>
<circle id="Ellipse 5131" cx="901.414" cy="424.108" r="3.2342" fill="black"/>
<circle id="Ellipse 5132" cx="901.414" cy="407.937" r="3.2342" fill="black"/>
<circle id="Ellipse 5133" cx="898.18" cy="391.766" r="3.2342" fill="black"/>
<circle id="Ellipse 5134" cx="896.023" cy="374.517" r="3.2342" fill="black"/>
<circle id="Ellipse 5135" cx="867.992" cy="373.439" r="3.2342" fill="black"/>
<circle id="Ellipse 5136" cx="848.586" cy="378.829" r="3.2342" fill="black"/>
<circle id="Ellipse 5137" cx="833.492" cy="370.204" r="3.2342" fill="black"/>
<circle id="Ellipse 5138" cx="830.258" cy="385.297" r="3.2342" fill="black"/>
<circle id="Ellipse 5139" cx="842.117" cy="397.156" r="3.2342" fill="black"/>
<circle id="Ellipse 5140" cx="857.211" cy="402.546" r="3.2342" fill="black"/>
<circle id="Ellipse 5141" cx="862.601" cy="388.532" r="3.2342" fill="black"/>
<circle id="Ellipse 5142" cx="824.875" cy="399.312" r="3.2342" fill="black"/>
<circle id="Ellipse 5143" cx="834.57" cy="415.483" r="3.2342" fill="black"/>
<circle id="Ellipse 5144" cx="850.742" cy="416.561" r="3.2342" fill="black"/>
<circle id="Ellipse 5145" cx="844.273" cy="432.732" r="3.2342" fill="black"/>
<circle id="Ellipse 5146" cx="825.953" cy="431.654" r="3.2342" fill="black"/>
<circle id="Ellipse 5147" cx="817.328" cy="413.327" r="3.2342" fill="black"/>
<circle id="Ellipse 5148" cx="809.781" cy="426.264" r="3.2342" fill="black"/>
<circle id="Ellipse 5149" cx="802.234" cy="439.201" r="3.2342" fill="black"/>
<circle id="Ellipse 5150" cx="817.328" cy="447.825" r="3.2342" fill="black"/>
<circle id="Ellipse 5151" cx="836.726" cy="448.903" r="3.2342" fill="black"/>
<circle id="Ellipse 5152" cx="827.031" cy="465.074" r="3.2342" fill="black"/>
<circle id="Ellipse 5153" cx="809.781" cy="466.152" r="3.2342" fill="black"/>
<circle id="Ellipse 5154" cx="797.922" cy="453.216" r="3.2342" fill="black"/>
<circle id="Ellipse 5155" cx="791.453" cy="469.387" r="3.2342" fill="black"/>
<circle id="Ellipse 5156" cx="799" cy="481.245" r="3.2342" fill="black"/>
<circle id="Ellipse 5158" cx="786.062" cy="490.948" r="3.2342" fill="black"/>
<circle id="Ellipse 5159" cx="806.547" cy="495.26" r="3.2342" fill="black"/>
<circle id="Ellipse 5160" cx="797.922" cy="510.353" r="3.2342" fill="black"/>
<circle id="Ellipse 5161" cx="780.672" cy="507.119" r="3.2342" fill="black"/>
<circle id="Ellipse 5162" cx="767.734" cy="517.9" r="3.2342" fill="black"/>
<circle id="Ellipse 5163" cx="751.562" cy="521.134" r="3.2342" fill="black"/>
<circle id="Ellipse 5164" cx="735.39" cy="529.758" r="3.2342" fill="black"/>
<circle id="Ellipse 5165" cx="789.297" cy="524.368" r="3.2342" fill="black"/>
<circle id="Ellipse 5166" cx="770.969" cy="531.914" r="3.2342" fill="black"/>
<circle id="Ellipse 5168" cx="752.64" cy="538.383" r="3.2342" fill="black"/>
<circle id="Ellipse 5169" cx="769.89" cy="547.007" r="3.2342" fill="black"/>
<circle id="Ellipse 5170" cx="781.75" cy="556.71" r="3.2342" fill="black"/>
<circle id="Ellipse 5171" cx="770.969" cy="568.569" r="3.2342" fill="black"/>
<circle id="Ellipse 5172" cx="759.109" cy="555.632" r="3.2342" fill="black"/>
<circle id="Ellipse 5173" cx="742.937" cy="552.398" r="3.2342" fill="black"/>
<circle id="Ellipse 5174" cx="733.234" cy="565.335" r="3.2342" fill="black"/>
<circle id="Ellipse 5175" cx="733.234" cy="579.349" r="3.2342" fill="black"/>
<circle id="Ellipse 5176" cx="750.484" cy="569.647" r="3.2342" fill="black"/>
<circle id="Ellipse 5177" cx="747.25" cy="584.74" r="3.2342" fill="black"/>
<circle id="Ellipse 5178" cx="763.422" cy="582.584" r="3.2342" fill="black"/>
<circle id="Ellipse 5167" cx="787.14" cy="540.539" r="3.2342" fill="black"/>
<circle id="Ellipse 5157" cx="817.328" cy="481.245" r="3.2342" fill="black"/>
<circle id="Ellipse 4976" cx="924.055" cy="485.558" r="3.2342" fill="black"/>
<circle id="Ellipse 4977" cx="906.805" cy="492.026" r="3.2342" fill="black"/>
<circle id="Ellipse 4978" cx="939.148" cy="497.416" r="3.2342" fill="black"/>
<circle id="Ellipse 4979" cx="956.398" cy="500.65" r="3.2342" fill="black"/>
<circle id="Ellipse 4980" cx="920.82" cy="503.885" r="3.2342" fill="black"/>
<circle id="Ellipse 4981" cx="931.601" cy="515.743" r="3.2342" fill="black"/>
<circle id="Ellipse 5004" cx="917.586" cy="524.368" r="3.2342" fill="black"/>
<circle id="Ellipse 5005" cx="903.57" cy="510.353" r="3.2342" fill="black"/>
<circle id="Ellipse 5006" cx="889.555" cy="497.416" r="3.2342" fill="black"/>
<circle id="Ellipse 5007" cx="891.711" cy="481.245" r="3.2342" fill="black"/>
<circle id="Ellipse 5008" cx="886.32" cy="512.509" r="3.2342" fill="black"/>
<circle id="Ellipse 5009" cx="900.336" cy="528.68" r="3.2342" fill="black"/>
<circle id="Ellipse 5010" cx="883.086" cy="528.68" r="3.2342" fill="black"/>
<circle id="Ellipse 5011" cx="884.164" cy="542.695" r="3.2342" fill="black"/>
<circle id="Ellipse 5013" cx="878.773" cy="556.71" r="3.2342" fill="black"/>
<circle id="Ellipse 5014" cx="894.945" cy="559.944" r="3.2342" fill="black"/>
<circle id="Ellipse 5015" cx="913.273" cy="563.179" r="3.2342" fill="black"/>
<circle id="Ellipse 5016" cx="913.273" cy="585.818" r="3.2342" fill="black"/>
<circle id="Ellipse 5017" cx="899.258" cy="575.037" r="3.2342" fill="black"/>
<circle id="Ellipse 5018" cx="880.93" cy="572.881" r="3.2342" fill="black"/>
<circle id="Ellipse 5019" cx="877.695" cy="587.974" r="3.2342" fill="black"/>
<circle id="Ellipse 5020" cx="893.867" cy="590.13" r="3.2342" fill="black"/>
<circle id="Ellipse 5021" cx="932.68" cy="592.286" r="3.2342" fill="black"/>
<circle id="Ellipse 5022" cx="917.586" cy="603.067" r="3.2342" fill="black"/>
<circle id="Ellipse 5023" cx="900.336" cy="604.145" r="3.2342" fill="black"/>
<circle id="Ellipse 5024" cx="879.851" cy="603.067" r="3.2342" fill="black"/>
<circle id="Ellipse 5025" cx="884.164" cy="617.082" r="3.2342" fill="black"/>
<circle id="Ellipse 5026" cx="904.648" cy="618.16" r="3.2342" fill="black"/>
<circle id="Ellipse 5027" cx="920.82" cy="620.316" r="3.2342" fill="black"/>
<circle id="Ellipse 5028" cx="934.836" cy="610.613" r="3.2342" fill="black"/>
<circle id="Ellipse 5029" cx="948.851" cy="603.067" r="3.2342" fill="black"/>
<circle id="Ellipse 5030" cx="969.336" cy="609.535" r="3.2342" fill="black"/>
<circle id="Ellipse 5031" cx="947.773" cy="621.394" r="3.2342" fill="black"/>
<circle id="Ellipse 5032" cx="933.758" cy="630.019" r="3.2342" fill="black"/>
<circle id="Ellipse 5033" cx="947.773" cy="640.799" r="3.2342" fill="black"/>
<circle id="Ellipse 5034" cx="931.601" cy="646.19" r="3.2342" fill="black"/>
<circle id="Ellipse 5035" cx="915.43" cy="635.409" r="3.2342" fill="black"/>
<circle id="Ellipse 5036" cx="898.18" cy="632.175" r="3.2342" fill="black"/>
<circle id="Ellipse 5037" cx="902.492" cy="648.346" r="3.2342" fill="black"/>
<circle id="Ellipse 5038" cx="916.508" cy="651.58" r="3.2342" fill="black"/>
<circle id="Ellipse 5039" cx="944.539" cy="658.048" r="3.2342" fill="black"/>
<circle id="Ellipse 5040" cx="928.367" cy="662.361" r="3.2342" fill="black"/>
<circle id="Ellipse 5041" cx="940.226" cy="675.297" r="3.2342" fill="black"/>
<circle id="Ellipse 5042" cx="922.976" cy="675.297" r="3.2342" fill="black"/>
<circle id="Ellipse 5043" cx="907.883" cy="665.595" r="3.2342" fill="black"/>
<circle id="Ellipse 5044" cx="889.555" cy="660.204" r="3.2342" fill="black"/>
<circle id="Ellipse 5045" cx="886.32" cy="645.112" r="3.2342" fill="black"/>
<circle id="Ellipse 5046" cx="882.008" cy="630.019" r="3.2342" fill="black"/>
<circle id="Ellipse 5047" cx="891.711" cy="674.219" r="3.2342" fill="black"/>
<circle id="Ellipse 5048" cx="906.805" cy="680.688" r="3.2342" fill="black"/>
<circle id="Ellipse 5049" cx="919.742" cy="688.234" r="3.2342" fill="black"/>
<circle id="Ellipse 5050" cx="935.914" cy="690.39" r="3.2342" fill="black"/>
<circle id="Ellipse 5051" cx="934.836" cy="707.639" r="3.2342" fill="black"/>
<circle id="Ellipse 5052" cx="924.055" cy="700.093" r="3.2342" fill="black"/>
<circle id="Ellipse 5053" cx="915.43" cy="710.874" r="3.2342" fill="black"/>
<circle id="Ellipse 5054" cx="906.805" cy="696.859" r="3.2342" fill="black"/>
<circle id="Ellipse 5055" cx="892.789" cy="688.234" r="3.2342" fill="black"/>
<circle id="Ellipse 5056" cx="892.789" cy="702.249" r="3.2342" fill="black"/>
<circle id="Ellipse 5057" cx="902.492" cy="714.108" r="3.2342" fill="black"/>
<circle id="Ellipse 5058" cx="890.633" cy="716.264" r="3.2342" fill="black"/>
<circle id="Ellipse 5059" cx="926.211" cy="719.498" r="3.2342" fill="black"/>
<circle id="Ellipse 5060" cx="938.07" cy="724.888" r="3.2342" fill="black"/>
<circle id="Ellipse 5061" cx="926.211" cy="734.591" r="3.2342" fill="black"/>
<circle id="Ellipse 5062" cx="914.351" cy="725.967" r="3.2342" fill="black"/>
<circle id="Ellipse 5063" cx="901.414" cy="730.279" r="3.2342" fill="black"/>
<circle id="Ellipse 5064" cx="888.476" cy="728.123" r="3.2342" fill="black"/>
<circle id="Ellipse 5065" cx="888.476" cy="741.059" r="3.2342" fill="black"/>
<circle id="Ellipse 5066" cx="901.414" cy="745.372" r="3.2342" fill="black"/>
<circle id="Ellipse 5067" cx="914.351" cy="739.981" r="3.2342" fill="black"/>
<circle id="Ellipse 5068" cx="927.289" cy="748.606" r="3.2342" fill="black"/>
<circle id="Ellipse 5069" cx="939.148" cy="742.138" r="3.2342" fill="black"/>
<circle id="Ellipse 5070" cx="939.148" cy="757.231" r="3.2342" fill="black"/>
<circle id="Ellipse 5071" cx="927.289" cy="763.699" r="3.2342" fill="black"/>
<circle id="Ellipse 5072" cx="915.43" cy="755.074" r="3.2342" fill="black"/>
<circle id="Ellipse 5073" cx="901.414" cy="759.387" r="3.2342" fill="black"/>
<circle id="Ellipse 5074" cx="889.555" cy="753.996" r="3.2342" fill="black"/>
<circle id="Ellipse 5075" cx="889.555" cy="768.011" r="3.2342" fill="black"/>
<circle id="Ellipse 5076" cx="902.492" cy="773.401" r="3.2342" fill="black"/>
<circle id="Ellipse 5077" cx="915.43" cy="768.011" r="3.2342" fill="black"/>
<circle id="Ellipse 5078" cx="927.289" cy="779.87" r="3.2342" fill="black"/>
<circle id="Ellipse 5079" cx="938.07" cy="774.48" r="3.2342" fill="black"/>
<circle id="Ellipse 5080" cx="913.273" cy="783.104" r="3.2342" fill="black"/>
<circle id="Ellipse 5081" cx="902.492" cy="787.416" r="3.2342" fill="black"/>
<circle id="Ellipse 5082" cx="890.633" cy="782.026" r="3.2342" fill="black"/>
<circle id="Ellipse 5083" cx="892.789" cy="797.119" r="3.2342" fill="black"/>
<circle id="Ellipse 5084" cx="907.883" cy="800.353" r="3.2342" fill="black"/>
<circle id="Ellipse 5085" cx="921.898" cy="792.807" r="3.2342" fill="black"/>
<circle id="Ellipse 5086" cx="936.992" cy="791.729" r="3.2342" fill="black"/>
<circle id="Ellipse 5087" cx="935.914" cy="808.978" r="3.2342" fill="black"/>
<circle id="Ellipse 5088" cx="921.898" cy="805.743" r="3.2342" fill="black"/>
<circle id="Ellipse 5089" cx="908.961" cy="814.368" r="3.2342" fill="black"/>
<circle id="Ellipse 5090" cx="896.023" cy="810.056" r="3.2342" fill="black"/>
<circle id="Ellipse 5091" cx="924.055" cy="820.836" r="3.2342" fill="black"/>
<circle id="Ellipse 5092" cx="936.992" cy="826.227" r="3.2342" fill="black"/>
<circle id="Ellipse 5093" cx="912.195" cy="829.461" r="3.2342" fill="black"/>
<circle id="Ellipse 5094" cx="898.18" cy="825.149" r="3.2342" fill="black"/>
<circle id="Ellipse 5095" cx="925.133" cy="835.93" r="3.2342" fill="black"/>
<circle id="Ellipse 5096" cx="936.992" cy="843.476" r="3.2342" fill="black"/>
<circle id="Ellipse 5097" cx="926.211" cy="853.179" r="3.2342" fill="black"/>
<circle id="Ellipse 5098" cx="914.351" cy="846.71" r="3.2342" fill="black"/>
<circle id="Ellipse 5099" cx="900.336" cy="840.242" r="3.2342" fill="black"/>
<circle id="Ellipse 5100" cx="938.07" cy="861.803" r="3.2342" fill="black"/>
<circle id="Ellipse 5101" cx="939.148" cy="881.208" r="3.2342" fill="black"/>
<circle id="Ellipse 5102" cx="927.289" cy="872.584" r="3.2342" fill="black"/>
<circle id="Ellipse 5103" cx="916.508" cy="863.959" r="3.2342" fill="black"/>
<circle id="Ellipse 5104" cx="902.492" cy="856.413" r="3.2342" fill="black"/>
<circle id="Ellipse 5105" cx="904.648" cy="873.662" r="3.2342" fill="black"/>
<circle id="Ellipse 5106" cx="917.586" cy="882.286" r="3.2342" fill="black"/>
<circle id="Ellipse 5107" cx="928.367" cy="890.911" r="3.2342" fill="black"/>
<circle id="Ellipse 5108" cx="941.305" cy="899.535" r="3.2342" fill="black"/>
<circle id="Ellipse 5109" cx="943.461" cy="916.784" r="3.2342" fill="black"/>
<circle id="Ellipse 5110" cx="929.445" cy="910.316" r="3.2342" fill="black"/>
<circle id="Ellipse 5111" cx="916.508" cy="900.613" r="3.2342" fill="black"/>
<circle id="Ellipse 5112" cx="905.726" cy="891.989" r="3.2342" fill="black"/>
<circle id="Ellipse 5113" cx="904.648" cy="909.238" r="3.2342" fill="black"/>
<circle id="Ellipse 5114" cx="917.586" cy="918.94" r="3.2342" fill="black"/>
<circle id="Ellipse 5115" cx="934.836" cy="928.643" r="3.2342" fill="black"/>
<circle id="Ellipse 5116" cx="927.289" cy="943.736" r="3.2342" fill="black"/>
<circle id="Ellipse 5117" cx="916.508" cy="932.955" r="3.2342" fill="black"/>
<circle id="Ellipse 5118" cx="900.336" cy="925.409" r="3.2342" fill="black"/>
<circle id="Ellipse 5119" cx="890.633" cy="938.346" r="3.2342" fill="black"/>
<circle id="Ellipse 5122" cx="880.93" cy="951.283" r="3.2342" fill="black"/>
<circle id="Ellipse 5123" cx="896.023" cy="954.517" r="3.2342" fill="black"/>
<circle id="Ellipse 5124" cx="910.039" cy="965.297" r="3.2342" fill="black"/>
<circle id="Ellipse 5125" cx="896.023" cy="970.688" r="3.2342" fill="black"/>
<circle id="Ellipse 5126" cx="882.008" cy="970.688" r="3.2342" fill="black"/>
<circle id="Ellipse 5127" cx="870.148" cy="963.141" r="3.2342" fill="black"/>
<circle id="Ellipse 5120" cx="907.883" cy="945.892" r="3.2342" fill="black"/>
<circle id="Ellipse 5121" cx="921.898" cy="957.751" r="3.2342" fill="black"/>
<circle id="Ellipse 5012" cx="902.492" cy="547.007" r="3.2342" fill="black"/>
<circle id="Ellipse 4982" cx="946.695" cy="516.822" r="3.2342" fill="black"/>
<circle id="Ellipse 4983" cx="962.867" cy="514.665" r="3.2342" fill="black"/>
<circle id="Ellipse 4984" cx="980.109" cy="512.509" r="3.2342" fill="black"/>
<circle id="Ellipse 4985" cx="973.648" cy="497.416" r="3.2342" fill="black"/>
<circle id="Ellipse 4986" cx="988.734" cy="526.524" r="3.2342" fill="black"/>
<circle id="Ellipse 4987" cx="970.414" cy="528.68" r="3.2342" fill="black"/>
<circle id="Ellipse 4988" cx="953.164" cy="531.914" r="3.2342" fill="black"/>
<circle id="Ellipse 4989" cx="980.109" cy="540.539" r="3.2342" fill="black"/>
<circle id="Ellipse 4990" cx="965.023" cy="545.929" r="3.2342" fill="black"/>
<circle id="Ellipse 4991" cx="945.617" cy="548.086" r="3.2342" fill="black"/>
<circle id="Ellipse 4993" cx="957.476" cy="559.944" r="3.2342" fill="black"/>
<circle id="Ellipse 4994" cx="973.648" cy="563.179" r="3.2342" fill="black"/>
<circle id="Ellipse 4995" cx="980.109" cy="579.349" r="3.2342" fill="black"/>
<circle id="Ellipse 4996" cx="963.945" cy="576.115" r="3.2342" fill="black"/>
<circle id="Ellipse 4997" cx="968.258" cy="593.364" r="3.2342" fill="black"/>
<circle id="Ellipse 4998" cx="985.5" cy="594.442" r="3.2342" fill="black"/>
<circle id="Ellipse 4999" cx="947.773" cy="584.74" r="3.2342" fill="black"/>
<circle id="Ellipse 5000" cx="944.539" cy="567.491" r="3.2342" fill="black"/>
<circle id="Ellipse 5001" cx="928.367" cy="575.037" r="3.2342" fill="black"/>
<circle id="Ellipse 5002" cx="929.445" cy="555.632" r="3.2342" fill="black"/>
<circle id="Ellipse 5003" cx="918.664" cy="542.695" r="3.2342" fill="black"/>
<circle id="Ellipse 4992" cx="933.758" cy="534.071" r="3.2342" fill="black"/>
<circle id="Ellipse 4938" cx="984.422" cy="349.721" r="3.2342" fill="black"/>
<circle id="Ellipse 4941" cx="997.359" cy="337.862" r="3.2342" fill="black"/>
<circle id="Ellipse 4939" cx="957.476" cy="361.58" r="3.2342" fill="black"/>
<circle id="Ellipse 4940" cx="941.305" cy="358.346" r="3.2342" fill="black"/>
<circle id="Ellipse 4907" cx="890.633" cy="317.379" r="3.2342" fill="black"/>
<circle id="Ellipse 4908" cx="874.461" cy="315.223" r="3.2342" fill="black"/>
<circle id="Ellipse 4909" cx="859.367" cy="315.223" r="3.2342" fill="black"/>
<circle id="Ellipse 4910" cx="845.351" cy="314.145" r="3.2342" fill="black"/>
<circle id="Ellipse 4911" cx="843.195" cy="328.16" r="3.2342" fill="black"/>
<circle id="Ellipse 4912" cx="860.445" cy="330.316" r="3.2342" fill="black"/>
<circle id="Ellipse 4913" cx="877.695" cy="330.316" r="3.2342" fill="black"/>
<circle id="Ellipse 4914" cx="894.945" cy="332.472" r="3.2342" fill="black"/>
<circle id="Ellipse 4873" cx="941.305" cy="240.836" r="3.2342" fill="black"/>
<circle id="Ellipse 4852" cx="956.398" cy="125.483" r="3.2342" fill="black"/>
<circle id="Ellipse 4843" cx="985.5" cy="177.23" r="3.2342" fill="black"/>
<circle id="Ellipse 4827" cx="984.422" cy="207.416" r="3.2342" fill="black"/>
<circle id="Ellipse 4828" cx="967.18" cy="230.056" r="3.2342" fill="black"/>
<circle id="Ellipse 4829" cx="980.109" cy="265.632" r="3.2342" fill="black"/>
<circle id="Ellipse 4830" cx="997.359" cy="268.866" r="3.2342" fill="black"/>
<circle id="Ellipse 4831" cx="988.734" cy="281.803" r="3.2342" fill="black"/>
<circle id="Ellipse 4832" cx="974.726" cy="283.959" r="3.2342" fill="black"/>
<circle id="Ellipse 4833" cx="985.5" cy="296.896" r="3.2342" fill="black"/>
<circle id="Ellipse 4834" cx="965.023" cy="273.179" r="3.2342" fill="black"/>
<circle id="Ellipse 4835" cx="962.867" cy="258.086" r="3.2342" fill="black"/>
<circle id="Ellipse 4836" cx="957.476" cy="242.993" r="3.2342" fill="black"/>
<circle id="Ellipse 4815" cx="1018.92" cy="293.662" r="3.2342" fill="black"/>
<circle id="Ellipse 4817" cx="1001.67" cy="296.896" r="3.2342" fill="black"/>
<circle id="Ellipse 4820" cx="1005.98" cy="323.847" r="3.2342" fill="black"/>
<circle id="Ellipse 4821" cx="988.734" cy="322.77" r="3.2342" fill="black"/>
<circle id="Ellipse 4819" cx="996.281" cy="309.833" r="3.2342" fill="black"/>
<circle id="Ellipse 4818" cx="1004.91" cy="282.881" r="3.2342" fill="black"/>
<circle id="Ellipse 4816" cx="1013.53" cy="308.755" r="3.2342" fill="black"/>
<circle id="Ellipse 4805" cx="1060.97" cy="275.335" r="3.2342" fill="black"/>
<circle id="Ellipse 4797" cx="1029.7" cy="307.677" r="3.2342" fill="black"/>
<circle id="Ellipse 4798" cx="1022.16" cy="323.847" r="3.2342" fill="black"/>
<circle id="Ellipse 4776" cx="1003.83" cy="556.71" r="3.2342" fill="black"/>
<circle id="Ellipse 4679" cx="1040.48" cy="596.598" r="3.2342" fill="black"/>
<circle id="Ellipse 4680" cx="1040.48" cy="579.349" r="3.2342" fill="black"/>
<circle id="Ellipse 4681" cx="1027.55" cy="590.13" r="3.2342" fill="black"/>
<circle id="Ellipse 4682" cx="1025.39" cy="573.959" r="3.2342" fill="black"/>
<circle id="Ellipse 4683" cx="1038.33" cy="562.1" r="3.2342" fill="black"/>
<circle id="Ellipse 4684" cx="1036.17" cy="545.929" r="3.2342" fill="black"/>
<circle id="Ellipse 4685" cx="1022.16" cy="557.788" r="3.2342" fill="black"/>
<circle id="Ellipse 4686" cx="1014.61" cy="544.851" r="3.2342" fill="black"/>
<circle id="Ellipse 4687" cx="1022.16" cy="532.992" r="3.2342" fill="black"/>
<circle id="Ellipse 4688" cx="1035.09" cy="527.602" r="3.2342" fill="black"/>
<circle id="Ellipse 4689" cx="1031.86" cy="511.431" r="3.2342" fill="black"/>
<circle id="Ellipse 4690" cx="1028.62" cy="495.26" r="3.2342" fill="black"/>
<circle id="Ellipse 4693" cx="1025.39" cy="479.089" r="3.2342" fill="black"/>
<circle id="Ellipse 4694" cx="1022.16" cy="461.84" r="3.2342" fill="black"/>
<circle id="Ellipse 4695" cx="1007.06" cy="472.621" r="3.2342" fill="black"/>
<circle id="Ellipse 4696" cx="1009.22" cy="488.792" r="3.2342" fill="black"/>
<circle id="Ellipse 4697" cx="1020" cy="444.591" r="3.2342" fill="black"/>
<circle id="Ellipse 4698" cx="1004.91" cy="456.45" r="3.2342" fill="black"/>
<circle id="Ellipse 4699" cx="1004.91" cy="438.123" r="3.2342" fill="black"/>
<circle id="Ellipse 4700" cx="1015.69" cy="426.264" r="3.2342" fill="black"/>
<circle id="Ellipse 4701" cx="998.437" cy="416.561" r="3.2342" fill="black"/>
<circle id="Ellipse 4702" cx="1014.61" cy="409.015" r="3.2342" fill="black"/>
<circle id="Ellipse 4703" cx="1020" cy="392.844" r="3.2342" fill="black"/>
<circle id="Ellipse 4704" cx="1022.16" cy="374.517" r="3.2342" fill="black"/>
<circle id="Ellipse 4705" cx="1005.98" cy="384.219" r="3.2342" fill="black"/>
<circle id="Ellipse 4707" cx="1004.91" cy="370.204" r="3.2342" fill="black"/>
<circle id="Ellipse 4708" cx="1015.69" cy="357.268" r="3.2342" fill="black"/>
<circle id="Ellipse 4709" cx="1029.7" cy="356.19" r="3.2342" fill="black"/>
<circle id="Ellipse 4710" cx="1044.8" cy="348.643" r="3.2342" fill="black"/>
<circle id="Ellipse 4711" cx="1060.97" cy="337.862" r="3.2342" fill="black"/>
<circle id="Ellipse 4712" cx="1076.06" cy="331.394" r="3.2342" fill="black"/>
<circle id="Ellipse 4713" cx="1077.14" cy="345.409" r="3.2342" fill="black"/>
<circle id="Ellipse 4714" cx="1058.81" cy="352.955" r="3.2342" fill="black"/>
<circle id="Ellipse 4715" cx="1045.87" cy="364.814" r="3.2342" fill="black"/>
<circle id="Ellipse 4716" cx="1058.81" cy="371.283" r="3.2342" fill="black"/>
<circle id="Ellipse 4717" cx="1070.67" cy="361.58" r="3.2342" fill="black"/>
<circle id="Ellipse 4718" cx="1082.53" cy="358.346" r="3.2342" fill="black"/>
<circle id="Ellipse 4719" cx="1084.69" cy="372.361" r="3.2342" fill="black"/>
<circle id="Ellipse 4720" cx="1072.83" cy="377.751" r="3.2342" fill="black"/>
<circle id="Ellipse 4721" cx="1064.2" cy="388.532" r="3.2342" fill="black"/>
<circle id="Ellipse 4722" cx="1050.19" cy="383.141" r="3.2342" fill="black"/>
<circle id="Ellipse 4723" cx="1057.73" cy="400.39" r="3.2342" fill="black"/>
<circle id="Ellipse 4724" cx="1079.3" cy="393.922" r="3.2342" fill="black"/>
<circle id="Ellipse 4725" cx="1089" cy="385.297" r="3.2342" fill="black"/>
<circle id="Ellipse 4726" cx="1094.39" cy="398.234" r="3.2342" fill="black"/>
<circle id="Ellipse 4727" cx="1101.94" cy="411.171" r="3.2342" fill="black"/>
<circle id="Ellipse 4728" cx="1085.77" cy="407.937" r="3.2342" fill="black"/>
<circle id="Ellipse 4729" cx="1070.67" cy="405.781" r="3.2342" fill="black"/>
<circle id="Ellipse 4730" cx="1064.2" cy="417.639" r="3.2342" fill="black"/>
<circle id="Ellipse 4731" cx="1078.22" cy="420.874" r="3.2342" fill="black"/>
<circle id="Ellipse 4732" cx="1093.31" cy="423.03" r="3.2342" fill="black"/>
<circle id="Ellipse 4733" cx="1108.41" cy="424.108" r="3.2342" fill="black"/>
<circle id="Ellipse 4734" cx="1115.95" cy="437.044" r="3.2342" fill="black"/>
<circle id="Ellipse 4735" cx="1100.86" cy="435.967" r="3.2342" fill="black"/>
<circle id="Ellipse 4736" cx="1085.77" cy="435.967" r="3.2342" fill="black"/>
<circle id="Ellipse 4737" cx="1071.75" cy="433.81" r="3.2342" fill="black"/>
<circle id="Ellipse 4738" cx="1079.3" cy="449.982" r="3.2342" fill="black"/>
<circle id="Ellipse 4739" cx="1093.31" cy="449.982" r="3.2342" fill="black"/>
<circle id="Ellipse 4740" cx="1107.33" cy="449.982" r="3.2342" fill="black"/>
<circle id="Ellipse 4741" cx="1121.34" cy="449.982" r="3.2342" fill="black"/>
<circle id="Ellipse 4742" cx="1123.49" cy="463.996" r="3.2342" fill="black"/>
<circle id="Ellipse 4743" cx="1106.25" cy="463.996" r="3.2342" fill="black"/>
<circle id="Ellipse 4744" cx="1089" cy="465.074" r="3.2342" fill="black"/>
<circle id="Ellipse 4745" cx="1096.55" cy="476.933" r="3.2342" fill="black"/>
<circle id="Ellipse 4746" cx="1112.72" cy="478.011" r="3.2342" fill="black"/>
<circle id="Ellipse 4747" cx="1128.88" cy="476.933" r="3.2342" fill="black"/>
<circle id="Ellipse 4748" cx="1134.27" cy="490.948" r="3.2342" fill="black"/>
<circle id="Ellipse 4749" cx="1120.27" cy="492.026" r="3.2342" fill="black"/>
<circle id="Ellipse 4750" cx="1105.17" cy="490.948" r="3.2342" fill="black"/>
<circle id="Ellipse 4751" cx="1115.95" cy="504.963" r="3.2342" fill="black"/>
<circle id="Ellipse 4752" cx="1135.35" cy="503.885" r="3.2342" fill="black"/>
<circle id="Ellipse 4753" cx="1141.82" cy="516.822" r="3.2342" fill="black"/>
<circle id="Ellipse 4754" cx="1123.49" cy="517.9" r="3.2342" fill="black"/>
<circle id="Ellipse 4755" cx="1156.91" cy="520.056" r="3.2342" fill="black"/>
<circle id="Ellipse 4756" cx="1172.01" cy="522.212" r="3.2342" fill="black"/>
<circle id="Ellipse 4757" cx="1183.87" cy="530.836" r="3.2342" fill="black"/>
<circle id="Ellipse 4758" cx="1163.38" cy="535.149" r="3.2342" fill="black"/>
<circle id="Ellipse 4759" cx="1145.05" cy="532.992" r="3.2342" fill="black"/>
<circle id="Ellipse 4760" cx="1127.8" cy="531.914" r="3.2342" fill="black"/>
<circle id="Ellipse 4761" cx="1132.12" cy="545.929" r="3.2342" fill="black"/>
<circle id="Ellipse 4762" cx="1150.45" cy="547.007" r="3.2342" fill="black"/>
<circle id="Ellipse 4763" cx="1170.93" cy="549.164" r="3.2342" fill="black"/>
<circle id="Ellipse 4764" cx="1180.63" cy="561.022" r="3.2342" fill="black"/>
<circle id="Ellipse 4765" cx="1186.02" cy="575.037" r="3.2342" fill="black"/>
<circle id="Ellipse 4766" cx="1168.77" cy="570.725" r="3.2342" fill="black"/>
<circle id="Ellipse 4767" cx="1157.99" cy="561.022" r="3.2342" fill="black"/>
<circle id="Ellipse 4768" cx="1138.59" cy="558.866" r="3.2342" fill="black"/>
<circle id="Ellipse 4769" cx="1146.13" cy="571.803" r="3.2342" fill="black"/>
<circle id="Ellipse 4770" cx="1156.91" cy="582.584" r="3.2342" fill="black"/>
<circle id="Ellipse 4771" cx="1174.16" cy="584.74" r="3.2342" fill="black"/>
<circle id="Ellipse 4706" cx="999.515" cy="399.312" r="3.2342" fill="black"/>
<circle id="Ellipse 4691" cx="1013.53" cy="503.885" r="3.2342" fill="black"/>
<circle id="Ellipse 4692" cx="1016.77" cy="517.9" r="3.2342" fill="black"/>
<circle id="Ellipse 4599" cx="981.187" cy="730.279" r="3.2342" fill="black"/>
<circle id="Ellipse 4600" cx="995.203" cy="741.059" r="3.2342" fill="black"/>
<circle id="Ellipse 4601" cx="1012.45" cy="741.059" r="3.2342" fill="black"/>
<circle id="Ellipse 4602" cx="1027.55" cy="747.528" r="3.2342" fill="black"/>
<circle id="Ellipse 4603" cx="1017.84" cy="759.387" r="3.2342" fill="black"/>
<circle id="Ellipse 4604" cx="1028.62" cy="770.167" r="3.2342" fill="black"/>
<circle id="Ellipse 4605" cx="1004.91" cy="758.308" r="3.2342" fill="black"/>
<circle id="Ellipse 4606" cx="990.89" cy="757.231" r="3.2342" fill="black"/>
<circle id="Ellipse 4607" cx="979.031" cy="746.45" r="3.2342" fill="black"/>
<circle id="Ellipse 4608" cx="980.109" cy="764.777" r="3.2342" fill="black"/>
<circle id="Ellipse 4609" cx="996.281" cy="775.558" r="3.2342" fill="black"/>
<circle id="Ellipse 4610" cx="1012.45" cy="775.558" r="3.2342" fill="black"/>
<circle id="Ellipse 4611" cx="982.265" cy="780.948" r="3.2342" fill="black"/>
<circle id="Ellipse 4612" cx="985.5" cy="794.963" r="3.2342" fill="black"/>
<circle id="Ellipse 4613" cx="1004.91" cy="792.807" r="3.2342" fill="black"/>
<circle id="Ellipse 4615" cx="995.203" cy="811.134" r="3.2342" fill="black"/>
<circle id="Ellipse 4616" cx="1009.22" cy="812.212" r="3.2342" fill="black"/>
<circle id="Ellipse 4617" cx="1023.23" cy="804.665" r="3.2342" fill="black"/>
<circle id="Ellipse 4618" cx="981.187" cy="810.056" r="3.2342" fill="black"/>
<circle id="Ellipse 4619" cx="984.422" cy="826.227" r="3.2342" fill="black"/>
<circle id="Ellipse 4620" cx="1000.59" cy="830.539" r="3.2342" fill="black"/>
<circle id="Ellipse 4621" cx="1018.92" cy="825.149" r="3.2342" fill="black"/>
<circle id="Ellipse 4622" cx="1014.61" cy="843.476" r="3.2342" fill="black"/>
<circle id="Ellipse 4623" cx="998.437" cy="849.944" r="3.2342" fill="black"/>
<circle id="Ellipse 4624" cx="983.344" cy="842.398" r="3.2342" fill="black"/>
<circle id="Ellipse 4625" cx="983.344" cy="858.569" r="3.2342" fill="black"/>
<circle id="Ellipse 4626" cx="996.281" cy="871.506" r="3.2342" fill="black"/>
<circle id="Ellipse 4627" cx="1011.37" cy="861.803" r="3.2342" fill="black"/>
<circle id="Ellipse 4628" cx="1010.3" cy="879.052" r="3.2342" fill="black"/>
<circle id="Ellipse 4629" cx="981.187" cy="873.662" r="3.2342" fill="black"/>
<circle id="Ellipse 4630" cx="979.031" cy="888.755" r="3.2342" fill="black"/>
<circle id="Ellipse 4631" cx="993.047" cy="890.911" r="3.2342" fill="black"/>
<circle id="Ellipse 4632" cx="1009.22" cy="894.145" r="3.2342" fill="black"/>
<circle id="Ellipse 4633" cx="1012.45" cy="911.394" r="3.2342" fill="black"/>
<circle id="Ellipse 4634" cx="997.359" cy="906.004" r="3.2342" fill="black"/>
<circle id="Ellipse 4635" cx="977.953" cy="903.847" r="3.2342" fill="black"/>
<circle id="Ellipse 4636" cx="975.797" cy="920.019" r="3.2342" fill="black"/>
<circle id="Ellipse 4637" cx="989.812" cy="917.862" r="3.2342" fill="black"/>
<circle id="Ellipse 4638" cx="1003.83" cy="924.331" r="3.2342" fill="black"/>
<circle id="Ellipse 4639" cx="1018.92" cy="925.409" r="3.2342" fill="black"/>
<circle id="Ellipse 4640" cx="1027.55" cy="938.346" r="3.2342" fill="black"/>
<circle id="Ellipse 4641" cx="1013.53" cy="939.424" r="3.2342" fill="black"/>
<circle id="Ellipse 4642" cx="998.437" cy="937.268" r="3.2342" fill="black"/>
<circle id="Ellipse 4643" cx="984.422" cy="932.955" r="3.2342" fill="black"/>
<circle id="Ellipse 4644" cx="989.812" cy="948.048" r="3.2342" fill="black"/>
<circle id="Ellipse 4645" cx="1007.06" cy="951.283" r="3.2342" fill="black"/>
<circle id="Ellipse 4646" cx="1022.16" cy="955.595" r="3.2342" fill="black"/>
<circle id="Ellipse 4647" cx="1035.09" cy="950.204" r="3.2342" fill="black"/>
<circle id="Ellipse 4648" cx="1044.8" cy="956.673" r="3.2342" fill="black"/>
<circle id="Ellipse 4649" cx="1046.95" cy="968.532" r="3.2342" fill="black"/>
<circle id="Ellipse 4650" cx="1035.09" cy="969.61" r="3.2342" fill="black"/>
<circle id="Ellipse 4651" cx="1022.16" cy="971.766" r="3.2342" fill="black"/>
<circle id="Ellipse 4652" cx="1009.22" cy="967.453" r="3.2342" fill="black"/>
<circle id="Ellipse 4653" cx="996.281" cy="962.063" r="3.2342" fill="black"/>
<circle id="Ellipse 4614" cx="1024.31" cy="787.416" r="3.2342" fill="black"/>
</g>
</svg>