<svg width="1920" height="1080" viewBox="0 0 1920 1080" fill="none" xmlns="http://www.w3.org/2000/svg">
<g id="ASSET ANIMATION D1 Metabolic Disorders ">
    <g id="3_TEXT">
        <path id="Obesity and metabolic disease" d="M578.96 434.68C578.96 439.12 576.04 442.24 571.84 442.24C567.66 442.24 564.78 439.14 564.78 434.68C564.78 430.24 567.68 427.12 571.86 427.12C576.04 427.12 578.96 430.22 578.96 434.68ZM576.26 434.68C576.26 431.56 574.54 429.58 571.86 429.58C569.18 429.58 567.46 431.56 567.46 434.68C567.46 437.8 569.18 439.78 571.86 439.78C574.54 439.78 576.26 437.76 576.26 434.68ZM583.443 442H581.183V427.12H583.623V433.56C584.263 432.46 585.583 431.8 587.083 431.8C589.903 431.8 591.623 434 591.623 437.12C591.623 440.16 589.763 442.26 586.923 442.26C585.443 442.26 584.183 441.6 583.603 440.46L583.443 442ZM583.643 437.02C583.643 438.8 584.743 440.02 586.423 440.02C588.143 440.02 589.163 438.78 589.163 437.02C589.163 435.26 588.143 434 586.423 434C584.743 434 583.643 435.24 583.643 437.02ZM598.185 442.26C595.245 442.26 593.185 440.12 593.185 437.06C593.185 433.96 595.205 431.82 598.105 431.82C601.065 431.82 602.945 433.8 602.945 436.88V437.62L595.505 437.64C595.685 439.38 596.605 440.26 598.225 440.26C599.565 440.26 600.445 439.74 600.725 438.8H602.985C602.565 440.96 600.765 442.26 598.185 442.26ZM598.125 433.82C596.685 433.82 595.805 434.6 595.565 436.08H600.525C600.525 434.72 599.585 433.82 598.125 433.82ZM604.338 439H606.658C606.678 439.86 607.318 440.4 608.438 440.4C609.578 440.4 610.198 439.94 610.198 439.22C610.198 438.72 609.938 438.36 609.058 438.16L607.278 437.74C605.498 437.34 604.638 436.5 604.638 434.92C604.638 432.98 606.278 431.82 608.558 431.82C610.778 431.82 612.278 433.1 612.298 435.02H609.978C609.958 434.18 609.398 433.64 608.458 433.64C607.498 433.64 606.938 434.08 606.938 434.82C606.938 435.38 607.378 435.74 608.218 435.94L609.998 436.36C611.658 436.74 612.498 437.5 612.498 439.02C612.498 441.02 610.798 442.26 608.358 442.26C605.898 442.26 604.338 440.94 604.338 439ZM615.776 430.14C614.936 430.14 614.276 429.48 614.276 428.66C614.276 427.84 614.936 427.2 615.776 427.2C616.576 427.2 617.236 427.84 617.236 428.66C617.236 429.48 616.576 430.14 615.776 430.14ZM614.556 442V432.12H616.996V442H614.556ZM623.077 442H620.637V434.16H618.737V432.12H620.637V429.04H623.077V432.12H624.997V434.16H623.077V442ZM625.854 446.58V444.54H627.314C628.274 444.54 628.874 444.32 629.294 443.16L629.574 442.42L625.594 432.12H628.174L630.714 439.32L633.394 432.12H635.914L631.074 444.2C630.334 446.04 629.294 446.8 627.674 446.8C626.994 446.8 626.394 446.72 625.854 446.58ZM646.03 442.26C643.93 442.26 642.65 441.04 642.65 439.18C642.65 437.36 643.97 436.22 646.31 436.04L649.27 435.82V435.6C649.27 434.26 648.47 433.72 647.23 433.72C645.79 433.72 644.99 434.32 644.99 435.36H642.91C642.91 433.22 644.67 431.82 647.35 431.82C650.01 431.82 651.65 433.26 651.65 436V442H649.51L649.33 440.54C648.91 441.56 647.57 442.26 646.03 442.26ZM646.83 440.42C648.33 440.42 649.29 439.52 649.29 438V437.48L647.23 437.64C645.71 437.78 645.13 438.28 645.13 439.08C645.13 439.98 645.73 440.42 646.83 440.42ZM656.688 442H654.248V432.12H656.508L656.708 433.4C657.328 432.4 658.528 431.82 659.868 431.82C662.348 431.82 663.628 433.36 663.628 435.92V442H661.188V436.5C661.188 434.84 660.368 434.04 659.108 434.04C657.608 434.04 656.688 435.08 656.688 436.68V442ZM670.285 442.26C667.425 442.26 665.645 440.16 665.645 437.1C665.645 434.02 667.445 431.82 670.425 431.82C671.805 431.82 673.025 432.4 673.645 433.38V427.12H676.065V442H673.825L673.665 440.46C673.065 441.6 671.785 442.26 670.285 442.26ZM670.825 440.02C672.525 440.02 673.625 438.8 673.625 437.02C673.625 435.24 672.525 434 670.825 434C669.125 434 668.085 435.26 668.085 437.02C668.085 438.78 669.125 440.02 670.825 440.02ZM567.7 468H565.26V458.12H567.5L567.7 459.28C568.2 458.46 569.2 457.82 570.62 457.82C572.12 457.82 573.16 458.56 573.68 459.7C574.18 458.56 575.34 457.82 576.84 457.82C579.24 457.82 580.56 459.26 580.56 461.54V468H578.14V462.18C578.14 460.76 577.38 460.02 576.22 460.02C575.04 460.02 574.14 460.78 574.14 462.4V468H571.7V462.16C571.7 460.78 570.96 460.04 569.8 460.04C568.64 460.04 567.7 460.8 567.7 462.4V468ZM587.575 468.26C584.635 468.26 582.575 466.12 582.575 463.06C582.575 459.96 584.595 457.82 587.495 457.82C590.455 457.82 592.335 459.8 592.335 462.88V463.62L584.895 463.64C585.075 465.38 585.995 466.26 587.615 466.26C588.955 466.26 589.835 465.74 590.115 464.8H592.375C591.955 466.96 590.155 468.26 587.575 468.26ZM587.515 459.82C586.075 459.82 585.195 460.6 584.955 462.08H589.915C589.915 460.72 588.975 459.82 587.515 459.82ZM597.75 468H595.31V460.16H593.41V458.12H595.31V455.04H597.75V458.12H599.67V460.16H597.75V468ZM604.269 468.26C602.169 468.26 600.889 467.04 600.889 465.18C600.889 463.36 602.209 462.22 604.549 462.04L607.509 461.82V461.6C607.509 460.26 606.709 459.72 605.469 459.72C604.029 459.72 603.229 460.32 603.229 461.36H601.149C601.149 459.22 602.909 457.82 605.589 457.82C608.249 457.82 609.889 459.26 609.889 462V468H607.749L607.569 466.54C607.149 467.56 605.809 468.26 604.269 468.26ZM605.069 466.42C606.569 466.42 607.529 465.52 607.529 464V463.48L605.469 463.64C603.949 463.78 603.369 464.28 603.369 465.08C603.369 465.98 603.969 466.42 605.069 466.42ZM614.746 468H612.486V453.12H614.926V459.56C615.566 458.46 616.886 457.8 618.386 457.8C621.206 457.8 622.926 460 622.926 463.12C622.926 466.16 621.066 468.26 618.226 468.26C616.746 468.26 615.486 467.6 614.906 466.46L614.746 468ZM614.946 463.02C614.946 464.8 616.046 466.02 617.726 466.02C619.446 466.02 620.466 464.78 620.466 463.02C620.466 461.26 619.446 460 617.726 460C616.046 460 614.946 461.24 614.946 463.02ZM624.489 463.04C624.489 459.96 626.709 457.84 629.769 457.84C632.829 457.84 635.049 459.96 635.049 463.04C635.049 466.12 632.829 468.24 629.769 468.24C626.709 468.24 624.489 466.12 624.489 463.04ZM626.929 463.04C626.929 464.84 628.089 466.06 629.769 466.06C631.449 466.06 632.609 464.84 632.609 463.04C632.609 461.24 631.449 460.02 629.769 460.02C628.089 460.02 626.929 461.24 626.929 463.04ZM639.643 468H637.223V453.12H639.643V468ZM643.622 456.14C642.782 456.14 642.122 455.48 642.122 454.66C642.122 453.84 642.782 453.2 643.622 453.2C644.422 453.2 645.082 453.84 645.082 454.66C645.082 455.48 644.422 456.14 643.622 456.14ZM642.402 468V458.12H644.842V468H642.402ZM646.983 463.04C646.983 459.98 649.003 457.82 651.923 457.82C654.623 457.82 656.463 459.32 656.723 461.7H654.283C654.003 460.58 653.183 460 652.023 460C650.463 460 649.423 461.18 649.423 463.04C649.423 464.9 650.383 466.06 651.943 466.06C653.163 466.06 654.023 465.46 654.283 464.38H656.743C656.443 466.68 654.523 468.26 651.943 468.26C648.943 468.26 646.983 466.18 646.983 463.04ZM668.41 468.26C665.55 468.26 663.77 466.16 663.77 463.1C663.77 460.02 665.57 457.82 668.55 457.82C669.93 457.82 671.15 458.4 671.77 459.38V453.12H674.19V468H671.95L671.79 466.46C671.19 467.6 669.91 468.26 668.41 468.26ZM668.95 466.02C670.65 466.02 671.75 464.8 671.75 463.02C671.75 461.24 670.65 460 668.95 460C667.25 460 666.21 461.26 666.21 463.02C666.21 464.78 667.25 466.02 668.95 466.02ZM678.153 456.14C677.313 456.14 676.653 455.48 676.653 454.66C676.653 453.84 677.313 453.2 678.153 453.2C678.953 453.2 679.613 453.84 679.613 454.66C679.613 455.48 678.953 456.14 678.153 456.14ZM676.933 468V458.12H679.373V468H676.933ZM681.334 465H683.654C683.674 465.86 684.314 466.4 685.434 466.4C686.574 466.4 687.194 465.94 687.194 465.22C687.194 464.72 686.934 464.36 686.054 464.16L684.274 463.74C682.494 463.34 681.634 462.5 681.634 460.92C681.634 458.98 683.274 457.82 685.554 457.82C687.774 457.82 689.274 459.1 689.294 461.02H686.974C686.954 460.18 686.394 459.64 685.454 459.64C684.494 459.64 683.934 460.08 683.934 460.82C683.934 461.38 684.374 461.74 685.214 461.94L686.994 462.36C688.654 462.74 689.494 463.5 689.494 465.02C689.494 467.02 687.794 468.26 685.354 468.26C682.894 468.26 681.334 466.94 681.334 465ZM695.971 468.26C693.031 468.26 690.971 466.12 690.971 463.06C690.971 459.96 692.991 457.82 695.891 457.82C698.851 457.82 700.731 459.8 700.731 462.88V463.62L693.291 463.64C693.471 465.38 694.391 466.26 696.011 466.26C697.351 466.26 698.231 465.74 698.511 464.8H700.771C700.351 466.96 698.551 468.26 695.971 468.26ZM695.911 459.82C694.471 459.82 693.591 460.6 693.351 462.08H698.311C698.311 460.72 697.371 459.82 695.911 459.82ZM705.727 468.26C703.627 468.26 702.347 467.04 702.347 465.18C702.347 463.36 703.667 462.22 706.007 462.04L708.967 461.82V461.6C708.967 460.26 708.167 459.72 706.927 459.72C705.487 459.72 704.687 460.32 704.687 461.36H702.607C702.607 459.22 704.367 457.82 707.047 457.82C709.707 457.82 711.347 459.26 711.347 462V468H709.207L709.027 466.54C708.607 467.56 707.267 468.26 705.727 468.26ZM706.527 466.42C708.027 466.42 708.987 465.52 708.987 464V463.48L706.927 463.64C705.407 463.78 704.827 464.28 704.827 465.08C704.827 465.98 705.427 466.42 706.527 466.42ZM713.184 465H715.504C715.524 465.86 716.164 466.4 717.284 466.4C718.424 466.4 719.044 465.94 719.044 465.22C719.044 464.72 718.784 464.36 717.904 464.16L716.124 463.74C714.344 463.34 713.484 462.5 713.484 460.92C713.484 458.98 715.124 457.82 717.404 457.82C719.624 457.82 721.124 459.1 721.144 461.02H718.824C718.804 460.18 718.244 459.64 717.304 459.64C716.344 459.64 715.784 460.08 715.784 460.82C715.784 461.38 716.224 461.74 717.064 461.94L718.844 462.36C720.504 462.74 721.344 463.5 721.344 465.02C721.344 467.02 719.644 468.26 717.204 468.26C714.744 468.26 713.184 466.94 713.184 465ZM727.821 468.26C724.881 468.26 722.821 466.12 722.821 463.06C722.821 459.96 724.841 457.82 727.741 457.82C730.701 457.82 732.581 459.8 732.581 462.88V463.62L725.141 463.64C725.321 465.38 726.241 466.26 727.861 466.26C729.201 466.26 730.081 465.74 730.361 464.8H732.621C732.201 466.96 730.401 468.26 727.821 468.26ZM727.761 459.82C726.321 459.82 725.441 460.6 725.201 462.08H730.161C730.161 460.72 729.221 459.82 727.761 459.82Z" fill="black"/>
        <g id="B_BISPHENOL">
            <rect id="Rectangle 4860" x="564" y="509.75" width="146" height="28" rx="14" fill="#D7B040"/>
            <path id="text" d="M592.995 530.75V516.13H598.815C601.695 516.13 603.455 517.63 603.455 520.07C603.455 521.69 602.735 522.85 601.355 523.43C602.895 523.93 603.675 525.09 603.675 526.79C603.675 529.29 601.935 530.75 598.915 530.75H592.995ZM598.595 518.39H595.555V522.37H598.655C600.055 522.37 600.835 521.63 600.835 520.33C600.835 519.07 600.035 518.39 598.595 518.39ZM598.815 524.53H595.555V528.49H598.815C600.255 528.49 601.055 527.79 601.055 526.47C601.055 525.23 600.235 524.53 598.815 524.53ZM606.882 518.89C606.042 518.89 605.382 518.23 605.382 517.41C605.382 516.59 606.042 515.95 606.882 515.95C607.682 515.95 608.342 516.59 608.342 517.41C608.342 518.23 607.682 518.89 606.882 518.89ZM605.662 530.75V520.87H608.102V530.75H605.662ZM609.863 527.75H612.183C612.203 528.61 612.843 529.15 613.963 529.15C615.103 529.15 615.723 528.69 615.723 527.97C615.723 527.47 615.463 527.11 614.583 526.91L612.803 526.49C611.023 526.09 610.163 525.25 610.163 523.67C610.163 521.73 611.803 520.57 614.083 520.57C616.303 520.57 617.803 521.85 617.823 523.77H615.503C615.483 522.93 614.923 522.39 613.983 522.39C613.023 522.39 612.463 522.83 612.463 523.57C612.463 524.13 612.903 524.49 613.743 524.69L615.523 525.11C617.183 525.49 618.023 526.25 618.023 527.77C618.023 529.77 616.323 531.01 613.883 531.01C611.423 531.01 609.863 529.69 609.863 527.75ZM619.881 535.33V520.87H622.141L622.301 522.37C622.901 521.23 624.201 520.57 625.701 520.57C628.481 520.57 630.321 522.59 630.321 525.69C630.321 528.77 628.641 531.01 625.701 531.01C624.221 531.01 622.941 530.43 622.321 529.43V535.33H619.881ZM622.341 525.81C622.341 527.59 623.441 528.81 625.121 528.81C626.841 528.81 627.861 527.57 627.861 525.81C627.861 524.05 626.841 522.79 625.121 522.79C623.441 522.79 622.341 524.03 622.341 525.81ZM634.704 530.75H632.264V515.87H634.724V522.15C635.344 521.19 636.504 520.57 637.924 520.57C640.364 520.57 641.644 522.11 641.644 524.67V530.75H639.204V525.25C639.204 523.59 638.384 522.79 637.144 522.79C635.604 522.79 634.704 523.87 634.704 525.35V530.75ZM648.461 531.01C645.521 531.01 643.461 528.87 643.461 525.81C643.461 522.71 645.481 520.57 648.381 520.57C651.341 520.57 653.221 522.55 653.221 525.63V526.37L645.781 526.39C645.961 528.13 646.881 529.01 648.501 529.01C649.841 529.01 650.721 528.49 651.001 527.55H653.261C652.841 529.71 651.041 531.01 648.461 531.01ZM648.401 522.57C646.961 522.57 646.081 523.35 645.841 524.83H650.801C650.801 523.47 649.861 522.57 648.401 522.57ZM657.614 530.75H655.174V520.87H657.434L657.634 522.15C658.254 521.15 659.454 520.57 660.794 520.57C663.274 520.57 664.554 522.11 664.554 524.67V530.75H662.114V525.25C662.114 523.59 661.294 522.79 660.034 522.79C658.534 522.79 657.614 523.83 657.614 525.43V530.75ZM666.371 525.79C666.371 522.71 668.591 520.59 671.651 520.59C674.711 520.59 676.931 522.71 676.931 525.79C676.931 528.87 674.711 530.99 671.651 530.99C668.591 530.99 666.371 528.87 666.371 525.79ZM668.811 525.79C668.811 527.59 669.971 528.81 671.651 528.81C673.331 528.81 674.491 527.59 674.491 525.79C674.491 523.99 673.331 522.77 671.651 522.77C669.971 522.77 668.811 523.99 668.811 525.79ZM681.325 530.75H678.905V515.87H681.325V530.75Z" fill="white"/>
        </g>
        <svg id="B_PHTHALATES" x="564" y="478" xmlns="http://www.w3.org/2000/svg" width="278" height="29" viewBox="0 0 278 29" fill="none">
            <rect width="278" height="27.5" rx="13.75" fill="#6769FF"/>
            <path d="M38.5001 11.16C38.5001 11.8533 38.3867 12.4933 38.1601 13.08C37.9467 13.6533 37.6334 14.1533 37.2201 14.58C36.8067 14.9933 36.3067 15.32 35.7201 15.56C35.1334 15.7867 34.4734 15.9 33.7401 15.9H30.3001V21H28.0601V6.46H30.3001H33.7601C34.4934 6.46 35.1534 6.57333 35.7401 6.8C36.3267 7.01333 36.8201 7.32667 37.2201 7.74C37.6334 8.14 37.9467 8.63333 38.1601 9.22C38.3867 9.79333 38.5001 10.44 38.5001 11.16ZM36.1601 11.12C36.1601 10.3467 35.9201 9.71333 35.4401 9.22C34.9734 8.72667 34.2934 8.48 33.4001 8.48H30.3001V13.94H33.3401C34.2601 13.94 34.9601 13.68 35.4401 13.16C35.9201 12.64 36.1601 11.96 36.1601 11.12ZM49.7754 15.06V21H47.6554V15.52C47.6554 15.0133 47.5954 14.5867 47.4754 14.24C47.3554 13.8933 47.1887 13.62 46.9754 13.42C46.7621 13.2067 46.5087 13.0533 46.2154 12.96C45.9354 12.8667 45.6287 12.82 45.2954 12.82C44.9754 12.82 44.6621 12.88 44.3554 13C44.0487 13.1067 43.7687 13.2733 43.5154 13.5C43.2754 13.7267 43.0821 14.0133 42.9354 14.36C42.7887 14.7067 42.7154 15.1133 42.7154 15.58V21H40.5954V6.2H42.7154V12.3C43.0221 11.8733 43.4354 11.5333 43.9554 11.28C44.4887 11.0267 45.0754 10.9 45.7154 10.9C46.9954 10.9 47.9887 11.2533 48.6954 11.96C49.4154 12.6533 49.7754 13.6867 49.7754 15.06ZM57.5141 12.94H55.5941V21H53.4941V12.94H51.5741V11.18H53.4941V8.1H55.5941V11.18H57.5141V12.94ZM68.5934 15.06V21H66.4734V15.52C66.4734 15.0133 66.4134 14.5867 66.2934 14.24C66.1734 13.8933 66.0067 13.62 65.7934 13.42C65.58 13.2067 65.3267 13.0533 65.0334 12.96C64.7534 12.8667 64.4467 12.82 64.1134 12.82C63.7934 12.82 63.48 12.88 63.1734 13C62.8667 13.1067 62.5867 13.2733 62.3334 13.5C62.0934 13.7267 61.9 14.0133 61.7534 14.36C61.6067 14.7067 61.5334 15.1133 61.5334 15.58V21H59.4134V6.2H61.5334V12.3C61.84 11.8733 62.2534 11.5333 62.7734 11.28C63.3067 11.0267 63.8934 10.9 64.5334 10.9C65.8134 10.9 66.8067 11.2533 67.5134 11.96C68.2334 12.6533 68.5934 13.6867 68.5934 15.06ZM77.5721 21C77.5454 20.8667 77.5188 20.7 77.4921 20.5C77.4654 20.3 77.4388 20.06 77.4121 19.78C77.1321 20.22 76.7188 20.58 76.1721 20.86C75.6254 21.1267 74.9921 21.26 74.2721 21.26C73.1921 21.26 72.3254 20.98 71.6721 20.42C71.0321 19.8467 70.7121 19.0733 70.7121 18.1C70.7121 17.14 71.0321 16.3867 71.6721 15.84C72.3254 15.2933 73.1988 15.02 74.2921 15.02H77.3721V14.64C77.3721 13.9467 77.1721 13.44 76.7721 13.12C76.3854 12.8 75.8521 12.64 75.1721 12.64C73.9588 12.64 73.0988 13.1333 72.5921 14.12L71.0321 13.22C71.4321 12.42 71.9988 11.8333 72.7321 11.46C73.4654 11.0867 74.3121 10.9 75.2721 10.9C76.4854 10.9 77.4854 11.2133 78.2721 11.84C79.0588 12.4667 79.4521 13.48 79.4521 14.88V18.9C79.4521 19.98 79.5121 20.68 79.6321 21H77.5721ZM77.3721 16.52H74.7721C74.1588 16.52 73.6854 16.66 73.3521 16.94C73.0321 17.2067 72.8721 17.5867 72.8721 18.08C72.8721 18.5867 73.0388 18.9733 73.3721 19.24C73.7188 19.4933 74.1921 19.62 74.7921 19.62C75.5254 19.62 76.1388 19.3867 76.6321 18.92C77.1254 18.44 77.3721 17.72 77.3721 16.76V16.52ZM82.0985 6.2H84.2185V21H82.0985V6.2ZM93.187 21C93.1603 20.8667 93.1336 20.7 93.107 20.5C93.0803 20.3 93.0536 20.06 93.027 19.78C92.747 20.22 92.3336 20.58 91.787 20.86C91.2403 21.1267 90.607 21.26 89.887 21.26C88.807 21.26 87.9403 20.98 87.287 20.42C86.647 19.8467 86.327 19.0733 86.327 18.1C86.327 17.14 86.647 16.3867 87.287 15.84C87.9403 15.2933 88.8136 15.02 89.907 15.02H92.987V14.64C92.987 13.9467 92.787 13.44 92.387 13.12C92.0003 12.8 91.467 12.64 90.787 12.64C89.5736 12.64 88.7136 13.1333 88.207 14.12L86.647 13.22C87.047 12.42 87.6136 11.8333 88.347 11.46C89.0803 11.0867 89.927 10.9 90.887 10.9C92.1003 10.9 93.1003 11.2133 93.887 11.84C94.6736 12.4667 95.067 13.48 95.067 14.88V18.9C95.067 19.98 95.127 20.68 95.247 21H93.187ZM92.987 16.52H90.387C89.7736 16.52 89.3003 16.66 88.967 16.94C88.647 17.2067 88.487 17.5867 88.487 18.08C88.487 18.5867 88.6536 18.9733 88.987 19.24C89.3336 19.4933 89.807 19.62 90.407 19.62C91.1403 19.62 91.7536 19.3867 92.247 18.92C92.7403 18.44 92.987 17.72 92.987 16.76V16.52ZM102.518 12.94H100.598V21H98.4981V12.94H96.5781V11.18H98.4981V8.1H100.598V11.18H102.518V12.94ZM113.322 16.92H105.662C105.742 17.76 106.042 18.3867 106.562 18.8C107.095 19.2133 107.742 19.42 108.502 19.42C109.142 19.42 109.682 19.28 110.122 19C110.562 18.7067 110.909 18.3067 111.162 17.8L112.942 18.52C112.569 19.4 111.982 20.08 111.182 20.56C110.395 21.0267 109.495 21.26 108.482 21.26C107.762 21.26 107.102 21.14 106.502 20.9C105.915 20.6467 105.409 20.2933 104.982 19.84C104.555 19.3867 104.222 18.8467 103.982 18.22C103.755 17.58 103.642 16.8733 103.642 16.1C103.642 15.34 103.755 14.64 103.982 14C104.222 13.36 104.555 12.8133 104.982 12.36C105.409 11.8933 105.922 11.5333 106.522 11.28C107.122 11.0267 107.789 10.9 108.522 10.9C109.242 10.9 109.895 11.0267 110.482 11.28C111.082 11.52 111.589 11.8667 112.002 12.32C112.429 12.7733 112.755 13.32 112.982 13.96C113.209 14.5867 113.322 15.2933 113.322 16.08V16.92ZM111.162 15.4C111.109 14.5067 110.849 13.8333 110.382 13.38C109.915 12.9133 109.282 12.68 108.482 12.68C107.682 12.68 107.035 12.9133 106.542 13.38C106.062 13.8467 105.775 14.52 105.682 15.4H111.162ZM118.814 19.54C119.321 19.54 119.734 19.44 120.054 19.24C120.388 19.0267 120.554 18.7 120.554 18.26C120.554 17.66 120.168 17.2733 119.394 17.1L117.994 16.72C116.168 16.2133 115.254 15.2733 115.254 13.9C115.254 13.46 115.334 13.06 115.494 12.7C115.668 12.3267 115.908 12.0067 116.214 11.74C116.521 11.4733 116.894 11.2667 117.334 11.12C117.774 10.9733 118.268 10.9 118.814 10.9C119.788 10.9 120.608 11.12 121.274 11.56C121.941 11.9867 122.341 12.6 122.474 13.4L120.574 13.86C120.521 13.4733 120.334 13.1733 120.014 12.96C119.708 12.7333 119.328 12.62 118.874 12.62C118.408 12.62 118.028 12.7333 117.734 12.96C117.454 13.1867 117.314 13.4867 117.314 13.86C117.314 14.18 117.421 14.44 117.634 14.64C117.848 14.8267 118.174 14.9733 118.614 15.08L119.994 15.44C120.874 15.6667 121.541 16.0267 121.994 16.52C122.448 17 122.674 17.5867 122.674 18.28C122.674 19.2 122.334 19.9267 121.654 20.46C120.988 20.9933 120.048 21.26 118.834 21.26C117.701 21.26 116.808 21.0133 116.154 20.52C115.501 20.0267 115.114 19.3733 114.994 18.56L116.914 18.22C116.968 18.62 117.154 18.94 117.474 19.18C117.808 19.42 118.254 19.54 118.814 19.54ZM139.981 21L139.081 19.88C137.975 20.7733 136.568 21.2267 134.861 21.24C134.048 21.24 133.315 21.14 132.661 20.94C132.008 20.7267 131.455 20.4333 131.001 20.06C130.548 19.6733 130.201 19.2133 129.961 18.68C129.721 18.1467 129.601 17.5533 129.601 16.9C129.601 15.94 129.868 15.12 130.401 14.44C130.948 13.7467 131.788 13.08 132.921 12.44C132.628 12.0933 132.375 11.78 132.161 11.5C131.961 11.2067 131.808 10.9467 131.701 10.72C131.475 10.24 131.361 9.76667 131.361 9.3C131.361 8.82 131.448 8.38667 131.621 8C131.808 7.61333 132.055 7.28667 132.361 7.02C132.668 6.75333 133.035 6.55333 133.461 6.42C133.901 6.27333 134.368 6.2 134.861 6.2C135.875 6.2 136.701 6.48 137.341 7.04C137.981 7.6 138.301 8.32 138.301 9.2C138.301 9.85333 138.088 10.4667 137.661 11.04C137.248 11.6133 136.581 12.2 135.661 12.8L138.861 16.62C139.061 15.9933 139.161 15.2867 139.161 14.5C139.161 14.3667 139.161 14.26 139.161 14.18C139.161 14.0867 139.155 14.0067 139.141 13.94H141.341C141.395 15.6467 141.068 17.1333 140.361 18.4L142.521 21H139.981ZM133.441 9.5C133.441 9.78 133.528 10.0667 133.701 10.36C133.888 10.64 134.201 11.04 134.641 11.56C135.708 10.8933 136.241 10.18 136.241 9.42C136.241 9.03333 136.121 8.71333 135.881 8.46C135.641 8.19333 135.295 8.06 134.841 8.06C134.388 8.06 134.035 8.2 133.781 8.48C133.541 8.76 133.428 9.1 133.441 9.5ZM134.001 13.76C133.348 14.16 132.821 14.62 132.421 15.14C132.035 15.66 131.841 16.2267 131.841 16.84C131.841 17.6 132.121 18.2133 132.681 18.68C133.241 19.1333 134.028 19.36 135.041 19.36C136.215 19.3333 137.141 19 137.821 18.36L134.001 13.76ZM153.844 6.2C155.178 6.2 156.278 6.52 157.144 7.16C158.011 7.8 158.544 8.66 158.744 9.74L156.624 10.32C156.491 9.64 156.178 9.12667 155.684 8.78C155.191 8.42 154.564 8.24 153.804 8.24C152.991 8.24 152.344 8.44 151.864 8.84C151.398 9.22667 151.164 9.74 151.164 10.38C151.164 10.9 151.324 11.3267 151.644 11.66C151.978 11.98 152.444 12.2133 153.044 12.36L155.444 12.98C156.684 13.2867 157.598 13.78 158.184 14.46C158.771 15.14 159.064 15.98 159.064 16.98C159.064 17.6067 158.944 18.1867 158.704 18.72C158.464 19.24 158.124 19.6933 157.684 20.08C157.244 20.4533 156.704 20.7467 156.064 20.96C155.438 21.16 154.731 21.26 153.944 21.26C152.518 21.26 151.338 20.9333 150.404 20.28C149.444 19.6133 148.878 18.7133 148.704 17.58L150.824 17.02C150.918 17.7 151.244 18.2333 151.804 18.62C152.378 18.9933 153.111 19.18 154.004 19.18C154.884 19.18 155.578 18.9933 156.084 18.62C156.591 18.2467 156.844 17.7333 156.844 17.08C156.844 16.0667 156.218 15.3933 154.964 15.06L152.564 14.48C151.324 14.1867 150.411 13.6933 149.824 13C149.238 12.3067 148.944 11.46 148.944 10.46C148.944 9.83333 149.058 9.26 149.284 8.74C149.524 8.20667 149.858 7.75333 150.284 7.38C150.724 7.00667 151.244 6.72 151.844 6.52C152.444 6.30667 153.111 6.2 153.844 6.2ZM168.46 21C168.38 20.68 168.32 20.2867 168.28 19.82C168 20.2867 167.6 20.6467 167.08 20.9C166.56 21.14 165.96 21.26 165.28 21.26C164.187 21.26 163.247 20.94 162.46 20.3C161.673 19.6333 161.28 18.5733 161.28 17.12V11.16H163.42V16.76C163.42 17.7333 163.647 18.4067 164.1 18.78C164.567 19.1667 165.107 19.36 165.72 19.36C166.067 19.36 166.387 19.3067 166.68 19.2C166.987 19.08 167.253 18.9067 167.48 18.68C167.72 18.4533 167.907 18.1733 168.04 17.84C168.173 17.5067 168.24 17.12 168.24 16.68V11.18H170.38V19.2C170.38 19.4667 170.393 19.78 170.42 20.14C170.46 20.4867 170.507 20.7733 170.56 21H168.46ZM183.656 16.14C183.656 16.9133 183.536 17.62 183.296 18.26C183.07 18.8867 182.75 19.4267 182.336 19.88C181.923 20.32 181.423 20.66 180.836 20.9C180.263 21.14 179.623 21.26 178.916 21.26C178.076 21.26 177.356 21.1 176.756 20.78C176.156 20.4467 175.71 20.0267 175.416 19.52L175.296 21H173.396V6.2H175.456V12.58C175.803 12.02 176.283 11.6 176.896 11.32C177.523 11.0267 178.196 10.88 178.916 10.88C179.623 10.88 180.263 11.0067 180.836 11.26C181.423 11.5 181.923 11.8467 182.336 12.3C182.75 12.7533 183.07 13.3067 183.296 13.96C183.536 14.6133 183.656 15.34 183.656 16.14ZM181.516 16.06C181.516 15.06 181.243 14.2667 180.696 13.68C180.163 13.0933 179.45 12.8 178.556 12.8C177.663 12.8 176.943 13.0933 176.396 13.68C175.85 14.2667 175.576 15.06 175.576 16.06C175.576 17.06 175.85 17.8533 176.396 18.44C176.943 19.0267 177.663 19.32 178.556 19.32C179.45 19.32 180.163 19.0267 180.696 18.44C181.243 17.8533 181.516 17.06 181.516 16.06ZM189.101 19.54C189.608 19.54 190.021 19.44 190.341 19.24C190.674 19.0267 190.841 18.7 190.841 18.26C190.841 17.66 190.454 17.2733 189.681 17.1L188.281 16.72C186.454 16.2133 185.541 15.2733 185.541 13.9C185.541 13.46 185.621 13.06 185.781 12.7C185.954 12.3267 186.194 12.0067 186.501 11.74C186.808 11.4733 187.181 11.2667 187.621 11.12C188.061 10.9733 188.554 10.9 189.101 10.9C190.074 10.9 190.894 11.12 191.561 11.56C192.228 11.9867 192.628 12.6 192.761 13.4L190.861 13.86C190.808 13.4733 190.621 13.1733 190.301 12.96C189.994 12.7333 189.614 12.62 189.161 12.62C188.694 12.62 188.314 12.7333 188.021 12.96C187.741 13.1867 187.601 13.4867 187.601 13.86C187.601 14.18 187.708 14.44 187.921 14.64C188.134 14.8267 188.461 14.9733 188.901 15.08L190.281 15.44C191.161 15.6667 191.828 16.0267 192.281 16.52C192.734 17 192.961 17.5867 192.961 18.28C192.961 19.2 192.621 19.9267 191.941 20.46C191.274 20.9933 190.334 21.26 189.121 21.26C187.988 21.26 187.094 21.0133 186.441 20.52C185.788 20.0267 185.401 19.3733 185.281 18.56L187.201 18.22C187.254 18.62 187.441 18.94 187.761 19.18C188.094 19.42 188.541 19.54 189.101 19.54ZM201.365 7.74C201.365 7.34 201.498 7.00667 201.765 6.74C202.032 6.46 202.365 6.32 202.765 6.32C203.152 6.32 203.478 6.46 203.745 6.74C204.025 7.00667 204.165 7.34 204.165 7.74C204.165 8.12667 204.025 8.46 203.745 8.74C203.478 9.00667 203.152 9.14 202.765 9.14C202.365 9.14 202.032 9.00667 201.765 8.74C201.498 8.46 201.365 8.12667 201.365 7.74ZM203.805 21H201.685V12.94H198.065V21H195.965V12.94H194.045V11.18H195.965V8.1H198.065V11.18H203.805V21ZM211.73 12.94H209.81V21H207.71V12.94H205.79V11.18H207.71V8.1H209.81V11.18H211.73V12.94ZM220.847 21C220.767 20.68 220.707 20.2867 220.667 19.82C220.387 20.2867 219.987 20.6467 219.467 20.9C218.947 21.14 218.347 21.26 217.667 21.26C216.573 21.26 215.633 20.94 214.847 20.3C214.06 19.6333 213.667 18.5733 213.667 17.12V11.16H215.807V16.76C215.807 17.7333 216.033 18.4067 216.487 18.78C216.953 19.1667 217.493 19.36 218.107 19.36C218.453 19.36 218.773 19.3067 219.067 19.2C219.373 19.08 219.64 18.9067 219.867 18.68C220.107 18.4533 220.293 18.1733 220.427 17.84C220.56 17.5067 220.627 17.12 220.627 16.68V11.18H222.767V19.2C222.767 19.4667 222.78 19.78 222.807 20.14C222.847 20.4867 222.893 20.7733 222.947 21H220.847ZM230.743 12.94H228.823V21H226.723V12.94H224.803V11.18H226.723V8.1H228.823V11.18H230.743V12.94ZM241.547 16.92H233.887C233.967 17.76 234.267 18.3867 234.787 18.8C235.32 19.2133 235.967 19.42 236.727 19.42C237.367 19.42 237.907 19.28 238.347 19C238.787 18.7067 239.134 18.3067 239.387 17.8L241.167 18.52C240.794 19.4 240.207 20.08 239.407 20.56C238.62 21.0267 237.72 21.26 236.707 21.26C235.987 21.26 235.327 21.14 234.727 20.9C234.14 20.6467 233.634 20.2933 233.207 19.84C232.78 19.3867 232.447 18.8467 232.207 18.22C231.98 17.58 231.867 16.8733 231.867 16.1C231.867 15.34 231.98 14.64 232.207 14C232.447 13.36 232.78 12.8133 233.207 12.36C233.634 11.8933 234.147 11.5333 234.747 11.28C235.347 11.0267 236.014 10.9 236.747 10.9C237.467 10.9 238.12 11.0267 238.707 11.28C239.307 11.52 239.814 11.8667 240.227 12.32C240.654 12.7733 240.98 13.32 241.207 13.96C241.434 14.5867 241.547 15.2933 241.547 16.08V16.92ZM239.387 15.4C239.334 14.5067 239.074 13.8333 238.607 13.38C238.14 12.9133 237.507 12.68 236.707 12.68C235.907 12.68 235.26 12.9133 234.767 13.38C234.287 13.8467 234 14.52 233.907 15.4H239.387ZM247.039 19.54C247.546 19.54 247.959 19.44 248.279 19.24C248.613 19.0267 248.779 18.7 248.779 18.26C248.779 17.66 248.393 17.2733 247.619 17.1L246.219 16.72C244.393 16.2133 243.479 15.2733 243.479 13.9C243.479 13.46 243.559 13.06 243.719 12.7C243.893 12.3267 244.133 12.0067 244.439 11.74C244.746 11.4733 245.119 11.2667 245.559 11.12C245.999 10.9733 246.493 10.9 247.039 10.9C248.013 10.9 248.833 11.12 249.499 11.56C250.166 11.9867 250.566 12.6 250.699 13.4L248.799 13.86C248.746 13.4733 248.559 13.1733 248.239 12.96C247.933 12.7333 247.553 12.62 247.099 12.62C246.633 12.62 246.253 12.7333 245.959 12.96C245.679 13.1867 245.539 13.4867 245.539 13.86C245.539 14.18 245.646 14.44 245.859 14.64C246.073 14.8267 246.399 14.9733 246.839 15.08L248.219 15.44C249.099 15.6667 249.766 16.0267 250.219 16.52C250.673 17 250.899 17.5867 250.899 18.28C250.899 19.2 250.559 19.9267 249.879 20.46C249.213 20.9933 248.273 21.26 247.059 21.26C245.926 21.26 245.033 21.0133 244.379 20.52C243.726 20.0267 243.339 19.3733 243.219 18.56L245.139 18.22C245.193 18.62 245.379 18.94 245.699 19.18C246.033 19.42 246.479 19.54 247.039 19.54Z" fill="white"/>
        </svg>
        <path id="Vector 2249" d="M952 450H740" stroke="black" stroke-width="3" stroke-linecap="round"/>
    </g>
    <g id="1_TEXT">
        <path id="Insulin resistance" d="M652.18 276.38V291H649.62V276.38H652.18ZM657.701 291H655.261V281.12H657.521L657.721 282.4C658.341 281.4 659.541 280.82 660.881 280.82C663.361 280.82 664.641 282.36 664.641 284.92V291H662.201V285.5C662.201 283.84 661.381 283.04 660.121 283.04C658.621 283.04 657.701 284.08 657.701 285.68V291ZM666.361 288H668.681C668.701 288.86 669.341 289.4 670.461 289.4C671.601 289.4 672.221 288.94 672.221 288.22C672.221 287.72 671.961 287.36 671.081 287.16L669.301 286.74C667.521 286.34 666.661 285.5 666.661 283.92C666.661 281.98 668.301 280.82 670.581 280.82C672.801 280.82 674.301 282.1 674.321 284.02H672.001C671.981 283.18 671.421 282.64 670.481 282.64C669.521 282.64 668.961 283.08 668.961 283.82C668.961 284.38 669.401 284.74 670.241 284.94L672.021 285.36C673.681 285.74 674.521 286.5 674.521 288.02C674.521 290.02 672.821 291.26 670.381 291.26C667.921 291.26 666.361 289.94 666.361 288ZM683.279 281.12H685.719V291H683.459L683.279 289.68C682.679 290.62 681.399 291.26 680.079 291.26C677.799 291.26 676.459 289.72 676.459 287.3V281.12H678.899V286.44C678.899 288.32 679.639 289.08 680.999 289.08C682.539 289.08 683.279 288.18 683.279 286.3V281.12ZM690.899 291H688.479V276.12H690.899V291ZM694.878 279.14C694.038 279.14 693.378 278.48 693.378 277.66C693.378 276.84 694.038 276.2 694.878 276.2C695.678 276.2 696.338 276.84 696.338 277.66C696.338 278.48 695.678 279.14 694.878 279.14ZM693.658 291V281.12H696.098V291H693.658ZM701.259 291H698.819V281.12H701.079L701.279 282.4C701.899 281.4 703.099 280.82 704.439 280.82C706.919 280.82 708.199 282.36 708.199 284.92V291H705.759V285.5C705.759 283.84 704.939 283.04 703.679 283.04C702.179 283.04 701.259 284.08 701.259 285.68V291ZM722.587 281.08V283.34H721.687C719.927 283.34 718.827 284.28 718.827 286.2V291H716.387V281.14H718.687L718.827 282.58C719.247 281.6 720.187 280.94 721.507 280.94C721.847 280.94 722.187 280.98 722.587 281.08ZM728.527 291.26C725.587 291.26 723.527 289.12 723.527 286.06C723.527 282.96 725.547 280.82 728.447 280.82C731.407 280.82 733.287 282.8 733.287 285.88V286.62L725.847 286.64C726.027 288.38 726.947 289.26 728.567 289.26C729.907 289.26 730.787 288.74 731.067 287.8H733.327C732.907 289.96 731.107 291.26 728.527 291.26ZM728.467 282.82C727.027 282.82 726.147 283.6 725.907 285.08H730.867C730.867 283.72 729.927 282.82 728.467 282.82ZM734.68 288H737C737.02 288.86 737.66 289.4 738.78 289.4C739.92 289.4 740.54 288.94 740.54 288.22C740.54 287.72 740.28 287.36 739.4 287.16L737.62 286.74C735.84 286.34 734.98 285.5 734.98 283.92C734.98 281.98 736.62 280.82 738.9 280.82C741.12 280.82 742.62 282.1 742.64 284.02H740.32C740.3 283.18 739.74 282.64 738.8 282.64C737.84 282.64 737.28 283.08 737.28 283.82C737.28 284.38 737.72 284.74 738.56 284.94L740.34 285.36C742 285.74 742.84 286.5 742.84 288.02C742.84 290.02 741.14 291.26 738.7 291.26C736.24 291.26 734.68 289.94 734.68 288ZM746.117 279.14C745.277 279.14 744.617 278.48 744.617 277.66C744.617 276.84 745.277 276.2 746.117 276.2C746.917 276.2 747.577 276.84 747.577 277.66C747.577 278.48 746.917 279.14 746.117 279.14ZM744.897 291V281.12H747.337V291H744.897ZM749.298 288H751.618C751.638 288.86 752.278 289.4 753.398 289.4C754.538 289.4 755.158 288.94 755.158 288.22C755.158 287.72 754.898 287.36 754.018 287.16L752.238 286.74C750.458 286.34 749.598 285.5 749.598 283.92C749.598 281.98 751.238 280.82 753.518 280.82C755.738 280.82 757.238 282.1 757.258 284.02H754.938C754.918 283.18 754.358 282.64 753.418 282.64C752.458 282.64 751.898 283.08 751.898 283.82C751.898 284.38 752.338 284.74 753.178 284.94L754.958 285.36C756.618 285.74 757.458 286.5 757.458 288.02C757.458 290.02 755.758 291.26 753.318 291.26C750.858 291.26 749.298 289.94 749.298 288ZM762.876 291H760.436V283.16H758.536V281.12H760.436V278.04H762.876V281.12H764.796V283.16H762.876V291ZM769.395 291.26C767.295 291.26 766.015 290.04 766.015 288.18C766.015 286.36 767.335 285.22 769.675 285.04L772.635 284.82V284.6C772.635 283.26 771.835 282.72 770.595 282.72C769.155 282.72 768.355 283.32 768.355 284.36H766.275C766.275 282.22 768.035 280.82 770.715 280.82C773.375 280.82 775.015 282.26 775.015 285V291H772.875L772.695 289.54C772.275 290.56 770.935 291.26 769.395 291.26ZM770.195 289.42C771.695 289.42 772.655 288.52 772.655 287V286.48L770.595 286.64C769.075 286.78 768.495 287.28 768.495 288.08C768.495 288.98 769.095 289.42 770.195 289.42ZM780.052 291H777.612V281.12H779.872L780.072 282.4C780.692 281.4 781.892 280.82 783.232 280.82C785.712 280.82 786.992 282.36 786.992 284.92V291H784.552V285.5C784.552 283.84 783.732 283.04 782.472 283.04C780.972 283.04 780.052 284.08 780.052 285.68V291ZM789.009 286.04C789.009 282.98 791.029 280.82 793.949 280.82C796.649 280.82 798.489 282.32 798.749 284.7H796.309C796.029 283.58 795.209 283 794.049 283C792.489 283 791.449 284.18 791.449 286.04C791.449 287.9 792.409 289.06 793.969 289.06C795.189 289.06 796.049 288.46 796.309 287.38H798.769C798.469 289.68 796.549 291.26 793.969 291.26C790.969 291.26 789.009 289.18 789.009 286.04ZM805.205 291.26C802.265 291.26 800.205 289.12 800.205 286.06C800.205 282.96 802.225 280.82 805.125 280.82C808.085 280.82 809.965 282.8 809.965 285.88V286.62L802.525 286.64C802.705 288.38 803.625 289.26 805.245 289.26C806.585 289.26 807.465 288.74 807.745 287.8H810.005C809.585 289.96 807.785 291.26 805.205 291.26ZM805.145 282.82C803.705 282.82 802.825 283.6 802.585 285.08H807.545C807.545 283.72 806.605 282.82 805.145 282.82Z" fill="black"/>
        <path id="Vector 2249_2" d="M930 286.01L820 286.01" stroke="black" stroke-width="3" stroke-linecap="round"/>
        <svg id="B_PHTHALATES_2" x="648" y="300" xmlns="http://www.w3.org/2000/svg" width="278" height="29" viewBox="0 0 278 29" fill="none">
            <rect width="278" height="27.5" rx="13.75" fill="#6769FF"/>
            <path d="M38.5001 11.16C38.5001 11.8533 38.3867 12.4933 38.1601 13.08C37.9467 13.6533 37.6334 14.1533 37.2201 14.58C36.8067 14.9933 36.3067 15.32 35.7201 15.56C35.1334 15.7867 34.4734 15.9 33.7401 15.9H30.3001V21H28.0601V6.46H30.3001H33.7601C34.4934 6.46 35.1534 6.57333 35.7401 6.8C36.3267 7.01333 36.8201 7.32667 37.2201 7.74C37.6334 8.14 37.9467 8.63333 38.1601 9.22C38.3867 9.79333 38.5001 10.44 38.5001 11.16ZM36.1601 11.12C36.1601 10.3467 35.9201 9.71333 35.4401 9.22C34.9734 8.72667 34.2934 8.48 33.4001 8.48H30.3001V13.94H33.3401C34.2601 13.94 34.9601 13.68 35.4401 13.16C35.9201 12.64 36.1601 11.96 36.1601 11.12ZM49.7754 15.06V21H47.6554V15.52C47.6554 15.0133 47.5954 14.5867 47.4754 14.24C47.3554 13.8933 47.1887 13.62 46.9754 13.42C46.7621 13.2067 46.5087 13.0533 46.2154 12.96C45.9354 12.8667 45.6287 12.82 45.2954 12.82C44.9754 12.82 44.6621 12.88 44.3554 13C44.0487 13.1067 43.7687 13.2733 43.5154 13.5C43.2754 13.7267 43.0821 14.0133 42.9354 14.36C42.7887 14.7067 42.7154 15.1133 42.7154 15.58V21H40.5954V6.2H42.7154V12.3C43.0221 11.8733 43.4354 11.5333 43.9554 11.28C44.4887 11.0267 45.0754 10.9 45.7154 10.9C46.9954 10.9 47.9887 11.2533 48.6954 11.96C49.4154 12.6533 49.7754 13.6867 49.7754 15.06ZM57.5141 12.94H55.5941V21H53.4941V12.94H51.5741V11.18H53.4941V8.1H55.5941V11.18H57.5141V12.94ZM68.5934 15.06V21H66.4734V15.52C66.4734 15.0133 66.4134 14.5867 66.2934 14.24C66.1734 13.8933 66.0067 13.62 65.7934 13.42C65.58 13.2067 65.3267 13.0533 65.0334 12.96C64.7534 12.8667 64.4467 12.82 64.1134 12.82C63.7934 12.82 63.48 12.88 63.1734 13C62.8667 13.1067 62.5867 13.2733 62.3334 13.5C62.0934 13.7267 61.9 14.0133 61.7534 14.36C61.6067 14.7067 61.5334 15.1133 61.5334 15.58V21H59.4134V6.2H61.5334V12.3C61.84 11.8733 62.2534 11.5333 62.7734 11.28C63.3067 11.0267 63.8934 10.9 64.5334 10.9C65.8134 10.9 66.8067 11.2533 67.5134 11.96C68.2334 12.6533 68.5934 13.6867 68.5934 15.06ZM77.5721 21C77.5454 20.8667 77.5188 20.7 77.4921 20.5C77.4654 20.3 77.4388 20.06 77.4121 19.78C77.1321 20.22 76.7188 20.58 76.1721 20.86C75.6254 21.1267 74.9921 21.26 74.2721 21.26C73.1921 21.26 72.3254 20.98 71.6721 20.42C71.0321 19.8467 70.7121 19.0733 70.7121 18.1C70.7121 17.14 71.0321 16.3867 71.6721 15.84C72.3254 15.2933 73.1988 15.02 74.2921 15.02H77.3721V14.64C77.3721 13.9467 77.1721 13.44 76.7721 13.12C76.3854 12.8 75.8521 12.64 75.1721 12.64C73.9588 12.64 73.0988 13.1333 72.5921 14.12L71.0321 13.22C71.4321 12.42 71.9988 11.8333 72.7321 11.46C73.4654 11.0867 74.3121 10.9 75.2721 10.9C76.4854 10.9 77.4854 11.2133 78.2721 11.84C79.0588 12.4667 79.4521 13.48 79.4521 14.88V18.9C79.4521 19.98 79.5121 20.68 79.6321 21H77.5721ZM77.3721 16.52H74.7721C74.1588 16.52 73.6854 16.66 73.3521 16.94C73.0321 17.2067 72.8721 17.5867 72.8721 18.08C72.8721 18.5867 73.0388 18.9733 73.3721 19.24C73.7188 19.4933 74.1921 19.62 74.7921 19.62C75.5254 19.62 76.1388 19.3867 76.6321 18.92C77.1254 18.44 77.3721 17.72 77.3721 16.76V16.52ZM82.0985 6.2H84.2185V21H82.0985V6.2ZM93.187 21C93.1603 20.8667 93.1336 20.7 93.107 20.5C93.0803 20.3 93.0536 20.06 93.027 19.78C92.747 20.22 92.3336 20.58 91.787 20.86C91.2403 21.1267 90.607 21.26 89.887 21.26C88.807 21.26 87.9403 20.98 87.287 20.42C86.647 19.8467 86.327 19.0733 86.327 18.1C86.327 17.14 86.647 16.3867 87.287 15.84C87.9403 15.2933 88.8136 15.02 89.907 15.02H92.987V14.64C92.987 13.9467 92.787 13.44 92.387 13.12C92.0003 12.8 91.467 12.64 90.787 12.64C89.5736 12.64 88.7136 13.1333 88.207 14.12L86.647 13.22C87.047 12.42 87.6136 11.8333 88.347 11.46C89.0803 11.0867 89.927 10.9 90.887 10.9C92.1003 10.9 93.1003 11.2133 93.887 11.84C94.6736 12.4667 95.067 13.48 95.067 14.88V18.9C95.067 19.98 95.127 20.68 95.247 21H93.187ZM92.987 16.52H90.387C89.7736 16.52 89.3003 16.66 88.967 16.94C88.647 17.2067 88.487 17.5867 88.487 18.08C88.487 18.5867 88.6536 18.9733 88.987 19.24C89.3336 19.4933 89.807 19.62 90.407 19.62C91.1403 19.62 91.7536 19.3867 92.247 18.92C92.7403 18.44 92.987 17.72 92.987 16.76V16.52ZM102.518 12.94H100.598V21H98.4981V12.94H96.5781V11.18H98.4981V8.1H100.598V11.18H102.518V12.94ZM113.322 16.92H105.662C105.742 17.76 106.042 18.3867 106.562 18.8C107.095 19.2133 107.742 19.42 108.502 19.42C109.142 19.42 109.682 19.28 110.122 19C110.562 18.7067 110.909 18.3067 111.162 17.8L112.942 18.52C112.569 19.4 111.982 20.08 111.182 20.56C110.395 21.0267 109.495 21.26 108.482 21.26C107.762 21.26 107.102 21.14 106.502 20.9C105.915 20.6467 105.409 20.2933 104.982 19.84C104.555 19.3867 104.222 18.8467 103.982 18.22C103.755 17.58 103.642 16.8733 103.642 16.1C103.642 15.34 103.755 14.64 103.982 14C104.222 13.36 104.555 12.8133 104.982 12.36C105.409 11.8933 105.922 11.5333 106.522 11.28C107.122 11.0267 107.789 10.9 108.522 10.9C109.242 10.9 109.895 11.0267 110.482 11.28C111.082 11.52 111.589 11.8667 112.002 12.32C112.429 12.7733 112.755 13.32 112.982 13.96C113.209 14.5867 113.322 15.2933 113.322 16.08V16.92ZM111.162 15.4C111.109 14.5067 110.849 13.8333 110.382 13.38C109.915 12.9133 109.282 12.68 108.482 12.68C107.682 12.68 107.035 12.9133 106.542 13.38C106.062 13.8467 105.775 14.52 105.682 15.4H111.162ZM118.814 19.54C119.321 19.54 119.734 19.44 120.054 19.24C120.388 19.0267 120.554 18.7 120.554 18.26C120.554 17.66 120.168 17.2733 119.394 17.1L117.994 16.72C116.168 16.2133 115.254 15.2733 115.254 13.9C115.254 13.46 115.334 13.06 115.494 12.7C115.668 12.3267 115.908 12.0067 116.214 11.74C116.521 11.4733 116.894 11.2667 117.334 11.12C117.774 10.9733 118.268 10.9 118.814 10.9C119.788 10.9 120.608 11.12 121.274 11.56C121.941 11.9867 122.341 12.6 122.474 13.4L120.574 13.86C120.521 13.4733 120.334 13.1733 120.014 12.96C119.708 12.7333 119.328 12.62 118.874 12.62C118.408 12.62 118.028 12.7333 117.734 12.96C117.454 13.1867 117.314 13.4867 117.314 13.86C117.314 14.18 117.421 14.44 117.634 14.64C117.848 14.8267 118.174 14.9733 118.614 15.08L119.994 15.44C120.874 15.6667 121.541 16.0267 121.994 16.52C122.448 17 122.674 17.5867 122.674 18.28C122.674 19.2 122.334 19.9267 121.654 20.46C120.988 20.9933 120.048 21.26 118.834 21.26C117.701 21.26 116.808 21.0133 116.154 20.52C115.501 20.0267 115.114 19.3733 114.994 18.56L116.914 18.22C116.968 18.62 117.154 18.94 117.474 19.18C117.808 19.42 118.254 19.54 118.814 19.54ZM139.981 21L139.081 19.88C137.975 20.7733 136.568 21.2267 134.861 21.24C134.048 21.24 133.315 21.14 132.661 20.94C132.008 20.7267 131.455 20.4333 131.001 20.06C130.548 19.6733 130.201 19.2133 129.961 18.68C129.721 18.1467 129.601 17.5533 129.601 16.9C129.601 15.94 129.868 15.12 130.401 14.44C130.948 13.7467 131.788 13.08 132.921 12.44C132.628 12.0933 132.375 11.78 132.161 11.5C131.961 11.2067 131.808 10.9467 131.701 10.72C131.475 10.24 131.361 9.76667 131.361 9.3C131.361 8.82 131.448 8.38667 131.621 8C131.808 7.61333 132.055 7.28667 132.361 7.02C132.668 6.75333 133.035 6.55333 133.461 6.42C133.901 6.27333 134.368 6.2 134.861 6.2C135.875 6.2 136.701 6.48 137.341 7.04C137.981 7.6 138.301 8.32 138.301 9.2C138.301 9.85333 138.088 10.4667 137.661 11.04C137.248 11.6133 136.581 12.2 135.661 12.8L138.861 16.62C139.061 15.9933 139.161 15.2867 139.161 14.5C139.161 14.3667 139.161 14.26 139.161 14.18C139.161 14.0867 139.155 14.0067 139.141 13.94H141.341C141.395 15.6467 141.068 17.1333 140.361 18.4L142.521 21H139.981ZM133.441 9.5C133.441 9.78 133.528 10.0667 133.701 10.36C133.888 10.64 134.201 11.04 134.641 11.56C135.708 10.8933 136.241 10.18 136.241 9.42C136.241 9.03333 136.121 8.71333 135.881 8.46C135.641 8.19333 135.295 8.06 134.841 8.06C134.388 8.06 134.035 8.2 133.781 8.48C133.541 8.76 133.428 9.1 133.441 9.5ZM134.001 13.76C133.348 14.16 132.821 14.62 132.421 15.14C132.035 15.66 131.841 16.2267 131.841 16.84C131.841 17.6 132.121 18.2133 132.681 18.68C133.241 19.1333 134.028 19.36 135.041 19.36C136.215 19.3333 137.141 19 137.821 18.36L134.001 13.76ZM153.844 6.2C155.178 6.2 156.278 6.52 157.144 7.16C158.011 7.8 158.544 8.66 158.744 9.74L156.624 10.32C156.491 9.64 156.178 9.12667 155.684 8.78C155.191 8.42 154.564 8.24 153.804 8.24C152.991 8.24 152.344 8.44 151.864 8.84C151.398 9.22667 151.164 9.74 151.164 10.38C151.164 10.9 151.324 11.3267 151.644 11.66C151.978 11.98 152.444 12.2133 153.044 12.36L155.444 12.98C156.684 13.2867 157.598 13.78 158.184 14.46C158.771 15.14 159.064 15.98 159.064 16.98C159.064 17.6067 158.944 18.1867 158.704 18.72C158.464 19.24 158.124 19.6933 157.684 20.08C157.244 20.4533 156.704 20.7467 156.064 20.96C155.438 21.16 154.731 21.26 153.944 21.26C152.518 21.26 151.338 20.9333 150.404 20.28C149.444 19.6133 148.878 18.7133 148.704 17.58L150.824 17.02C150.918 17.7 151.244 18.2333 151.804 18.62C152.378 18.9933 153.111 19.18 154.004 19.18C154.884 19.18 155.578 18.9933 156.084 18.62C156.591 18.2467 156.844 17.7333 156.844 17.08C156.844 16.0667 156.218 15.3933 154.964 15.06L152.564 14.48C151.324 14.1867 150.411 13.6933 149.824 13C149.238 12.3067 148.944 11.46 148.944 10.46C148.944 9.83333 149.058 9.26 149.284 8.74C149.524 8.20667 149.858 7.75333 150.284 7.38C150.724 7.00667 151.244 6.72 151.844 6.52C152.444 6.30667 153.111 6.2 153.844 6.2ZM168.46 21C168.38 20.68 168.32 20.2867 168.28 19.82C168 20.2867 167.6 20.6467 167.08 20.9C166.56 21.14 165.96 21.26 165.28 21.26C164.187 21.26 163.247 20.94 162.46 20.3C161.673 19.6333 161.28 18.5733 161.28 17.12V11.16H163.42V16.76C163.42 17.7333 163.647 18.4067 164.1 18.78C164.567 19.1667 165.107 19.36 165.72 19.36C166.067 19.36 166.387 19.3067 166.68 19.2C166.987 19.08 167.253 18.9067 167.48 18.68C167.72 18.4533 167.907 18.1733 168.04 17.84C168.173 17.5067 168.24 17.12 168.24 16.68V11.18H170.38V19.2C170.38 19.4667 170.393 19.78 170.42 20.14C170.46 20.4867 170.507 20.7733 170.56 21H168.46ZM183.656 16.14C183.656 16.9133 183.536 17.62 183.296 18.26C183.07 18.8867 182.75 19.4267 182.336 19.88C181.923 20.32 181.423 20.66 180.836 20.9C180.263 21.14 179.623 21.26 178.916 21.26C178.076 21.26 177.356 21.1 176.756 20.78C176.156 20.4467 175.71 20.0267 175.416 19.52L175.296 21H173.396V6.2H175.456V12.58C175.803 12.02 176.283 11.6 176.896 11.32C177.523 11.0267 178.196 10.88 178.916 10.88C179.623 10.88 180.263 11.0067 180.836 11.26C181.423 11.5 181.923 11.8467 182.336 12.3C182.75 12.7533 183.07 13.3067 183.296 13.96C183.536 14.6133 183.656 15.34 183.656 16.14ZM181.516 16.06C181.516 15.06 181.243 14.2667 180.696 13.68C180.163 13.0933 179.45 12.8 178.556 12.8C177.663 12.8 176.943 13.0933 176.396 13.68C175.85 14.2667 175.576 15.06 175.576 16.06C175.576 17.06 175.85 17.8533 176.396 18.44C176.943 19.0267 177.663 19.32 178.556 19.32C179.45 19.32 180.163 19.0267 180.696 18.44C181.243 17.8533 181.516 17.06 181.516 16.06ZM189.101 19.54C189.608 19.54 190.021 19.44 190.341 19.24C190.674 19.0267 190.841 18.7 190.841 18.26C190.841 17.66 190.454 17.2733 189.681 17.1L188.281 16.72C186.454 16.2133 185.541 15.2733 185.541 13.9C185.541 13.46 185.621 13.06 185.781 12.7C185.954 12.3267 186.194 12.0067 186.501 11.74C186.808 11.4733 187.181 11.2667 187.621 11.12C188.061 10.9733 188.554 10.9 189.101 10.9C190.074 10.9 190.894 11.12 191.561 11.56C192.228 11.9867 192.628 12.6 192.761 13.4L190.861 13.86C190.808 13.4733 190.621 13.1733 190.301 12.96C189.994 12.7333 189.614 12.62 189.161 12.62C188.694 12.62 188.314 12.7333 188.021 12.96C187.741 13.1867 187.601 13.4867 187.601 13.86C187.601 14.18 187.708 14.44 187.921 14.64C188.134 14.8267 188.461 14.9733 188.901 15.08L190.281 15.44C191.161 15.6667 191.828 16.0267 192.281 16.52C192.734 17 192.961 17.5867 192.961 18.28C192.961 19.2 192.621 19.9267 191.941 20.46C191.274 20.9933 190.334 21.26 189.121 21.26C187.988 21.26 187.094 21.0133 186.441 20.52C185.788 20.0267 185.401 19.3733 185.281 18.56L187.201 18.22C187.254 18.62 187.441 18.94 187.761 19.18C188.094 19.42 188.541 19.54 189.101 19.54ZM201.365 7.74C201.365 7.34 201.498 7.00667 201.765 6.74C202.032 6.46 202.365 6.32 202.765 6.32C203.152 6.32 203.478 6.46 203.745 6.74C204.025 7.00667 204.165 7.34 204.165 7.74C204.165 8.12667 204.025 8.46 203.745 8.74C203.478 9.00667 203.152 9.14 202.765 9.14C202.365 9.14 202.032 9.00667 201.765 8.74C201.498 8.46 201.365 8.12667 201.365 7.74ZM203.805 21H201.685V12.94H198.065V21H195.965V12.94H194.045V11.18H195.965V8.1H198.065V11.18H203.805V21ZM211.73 12.94H209.81V21H207.71V12.94H205.79V11.18H207.71V8.1H209.81V11.18H211.73V12.94ZM220.847 21C220.767 20.68 220.707 20.2867 220.667 19.82C220.387 20.2867 219.987 20.6467 219.467 20.9C218.947 21.14 218.347 21.26 217.667 21.26C216.573 21.26 215.633 20.94 214.847 20.3C214.06 19.6333 213.667 18.5733 213.667 17.12V11.16H215.807V16.76C215.807 17.7333 216.033 18.4067 216.487 18.78C216.953 19.1667 217.493 19.36 218.107 19.36C218.453 19.36 218.773 19.3067 219.067 19.2C219.373 19.08 219.64 18.9067 219.867 18.68C220.107 18.4533 220.293 18.1733 220.427 17.84C220.56 17.5067 220.627 17.12 220.627 16.68V11.18H222.767V19.2C222.767 19.4667 222.78 19.78 222.807 20.14C222.847 20.4867 222.893 20.7733 222.947 21H220.847ZM230.743 12.94H228.823V21H226.723V12.94H224.803V11.18H226.723V8.1H228.823V11.18H230.743V12.94ZM241.547 16.92H233.887C233.967 17.76 234.267 18.3867 234.787 18.8C235.32 19.2133 235.967 19.42 236.727 19.42C237.367 19.42 237.907 19.28 238.347 19C238.787 18.7067 239.134 18.3067 239.387 17.8L241.167 18.52C240.794 19.4 240.207 20.08 239.407 20.56C238.62 21.0267 237.72 21.26 236.707 21.26C235.987 21.26 235.327 21.14 234.727 20.9C234.14 20.6467 233.634 20.2933 233.207 19.84C232.78 19.3867 232.447 18.8467 232.207 18.22C231.98 17.58 231.867 16.8733 231.867 16.1C231.867 15.34 231.98 14.64 232.207 14C232.447 13.36 232.78 12.8133 233.207 12.36C233.634 11.8933 234.147 11.5333 234.747 11.28C235.347 11.0267 236.014 10.9 236.747 10.9C237.467 10.9 238.12 11.0267 238.707 11.28C239.307 11.52 239.814 11.8667 240.227 12.32C240.654 12.7733 240.98 13.32 241.207 13.96C241.434 14.5867 241.547 15.2933 241.547 16.08V16.92ZM239.387 15.4C239.334 14.5067 239.074 13.8333 238.607 13.38C238.14 12.9133 237.507 12.68 236.707 12.68C235.907 12.68 235.26 12.9133 234.767 13.38C234.287 13.8467 234 14.52 233.907 15.4H239.387ZM247.039 19.54C247.546 19.54 247.959 19.44 248.279 19.24C248.613 19.0267 248.779 18.7 248.779 18.26C248.779 17.66 248.393 17.2733 247.619 17.1L246.219 16.72C244.393 16.2133 243.479 15.2733 243.479 13.9C243.479 13.46 243.559 13.06 243.719 12.7C243.893 12.3267 244.133 12.0067 244.439 11.74C244.746 11.4733 245.119 11.2667 245.559 11.12C245.999 10.9733 246.493 10.9 247.039 10.9C248.013 10.9 248.833 11.12 249.499 11.56C250.166 11.9867 250.566 12.6 250.699 13.4L248.799 13.86C248.746 13.4733 248.559 13.1733 248.239 12.96C247.933 12.7333 247.553 12.62 247.099 12.62C246.633 12.62 246.253 12.7333 245.959 12.96C245.679 13.1867 245.539 13.4867 245.539 13.86C245.539 14.18 245.646 14.44 245.859 14.64C246.073 14.8267 246.399 14.9733 246.839 15.08L248.219 15.44C249.099 15.6667 249.766 16.0267 250.219 16.52C250.673 17 250.899 17.5867 250.899 18.28C250.899 19.2 250.559 19.9267 249.879 20.46C249.213 20.9933 248.273 21.26 247.059 21.26C245.926 21.26 245.033 21.0133 244.379 20.52C243.726 20.0267 243.339 19.3733 243.219 18.56L245.139 18.22C245.193 18.62 245.379 18.94 245.699 19.18C246.033 19.42 246.479 19.54 247.039 19.54Z" fill="white"/>
        </svg>
    </g>
    <g id="2_TEXT">
        <path id="Increased cholesterol level" d="M1115.18 330.38V345H1112.62V330.38H1115.18ZM1120.7 345H1118.26V335.12H1120.52L1120.72 336.4C1121.34 335.4 1122.54 334.82 1123.88 334.82C1126.36 334.82 1127.64 336.36 1127.64 338.92V345H1125.2V339.5C1125.2 337.84 1124.38 337.04 1123.12 337.04C1121.62 337.04 1120.7 338.08 1120.7 339.68V345ZM1129.66 340.04C1129.66 336.98 1131.68 334.82 1134.6 334.82C1137.3 334.82 1139.14 336.32 1139.4 338.7H1136.96C1136.68 337.58 1135.86 337 1134.7 337C1133.14 337 1132.1 338.18 1132.1 340.04C1132.1 341.9 1133.06 343.06 1134.62 343.06C1135.84 343.06 1136.7 342.46 1136.96 341.38H1139.42C1139.12 343.68 1137.2 345.26 1134.62 345.26C1131.62 345.26 1129.66 343.18 1129.66 340.04ZM1147.63 335.08V337.34H1146.73C1144.97 337.34 1143.87 338.28 1143.87 340.2V345H1141.43V335.14H1143.73L1143.87 336.58C1144.29 335.6 1145.23 334.94 1146.55 334.94C1146.89 334.94 1147.23 334.98 1147.63 335.08ZM1153.57 345.26C1150.63 345.26 1148.57 343.12 1148.57 340.06C1148.57 336.96 1150.59 334.82 1153.49 334.82C1156.45 334.82 1158.33 336.8 1158.33 339.88V340.62L1150.89 340.64C1151.07 342.38 1151.99 343.26 1153.61 343.26C1154.95 343.26 1155.83 342.74 1156.11 341.8H1158.37C1157.95 343.96 1156.15 345.26 1153.57 345.26ZM1153.51 336.82C1152.07 336.82 1151.19 337.6 1150.95 339.08H1155.91C1155.91 337.72 1154.97 336.82 1153.51 336.82ZM1163.33 345.26C1161.23 345.26 1159.95 344.04 1159.95 342.18C1159.95 340.36 1161.27 339.22 1163.61 339.04L1166.57 338.82V338.6C1166.57 337.26 1165.77 336.72 1164.53 336.72C1163.09 336.72 1162.29 337.32 1162.29 338.36H1160.21C1160.21 336.22 1161.97 334.82 1164.65 334.82C1167.31 334.82 1168.95 336.26 1168.95 339V345H1166.81L1166.63 343.54C1166.21 344.56 1164.87 345.26 1163.33 345.26ZM1164.13 343.42C1165.63 343.42 1166.59 342.52 1166.59 341V340.48L1164.53 340.64C1163.01 340.78 1162.43 341.28 1162.43 342.08C1162.43 342.98 1163.03 343.42 1164.13 343.42ZM1170.79 342H1173.11C1173.13 342.86 1173.77 343.4 1174.89 343.4C1176.03 343.4 1176.65 342.94 1176.65 342.22C1176.65 341.72 1176.39 341.36 1175.51 341.16L1173.73 340.74C1171.95 340.34 1171.09 339.5 1171.09 337.92C1171.09 335.98 1172.73 334.82 1175.01 334.82C1177.23 334.82 1178.73 336.1 1178.75 338.02H1176.43C1176.41 337.18 1175.85 336.64 1174.91 336.64C1173.95 336.64 1173.39 337.08 1173.39 337.82C1173.39 338.38 1173.83 338.74 1174.67 338.94L1176.45 339.36C1178.11 339.74 1178.95 340.5 1178.95 342.02C1178.95 344.02 1177.25 345.26 1174.81 345.26C1172.35 345.26 1170.79 343.94 1170.79 342ZM1185.42 345.26C1182.48 345.26 1180.42 343.12 1180.42 340.06C1180.42 336.96 1182.44 334.82 1185.34 334.82C1188.3 334.82 1190.18 336.8 1190.18 339.88V340.62L1182.74 340.64C1182.92 342.38 1183.84 343.26 1185.46 343.26C1186.8 343.26 1187.68 342.74 1187.96 341.8H1190.22C1189.8 343.96 1188 345.26 1185.42 345.26ZM1185.36 336.82C1183.92 336.82 1183.04 337.6 1182.8 339.08H1187.76C1187.76 337.72 1186.82 336.82 1185.36 336.82ZM1196.4 345.26C1193.54 345.26 1191.76 343.16 1191.76 340.1C1191.76 337.02 1193.56 334.82 1196.54 334.82C1197.92 334.82 1199.14 335.4 1199.76 336.38V330.12H1202.18V345H1199.94L1199.78 343.46C1199.18 344.6 1197.9 345.26 1196.4 345.26ZM1196.94 343.02C1198.64 343.02 1199.74 341.8 1199.74 340.02C1199.74 338.24 1198.64 337 1196.94 337C1195.24 337 1194.2 338.26 1194.2 340.02C1194.2 341.78 1195.24 343.02 1196.94 343.02ZM1209.93 340.04C1209.93 336.98 1211.95 334.82 1214.87 334.82C1217.57 334.82 1219.41 336.32 1219.67 338.7H1217.23C1216.95 337.58 1216.13 337 1214.97 337C1213.41 337 1212.37 338.18 1212.37 340.04C1212.37 341.9 1213.33 343.06 1214.89 343.06C1216.11 343.06 1216.97 342.46 1217.23 341.38H1219.69C1219.39 343.68 1217.47 345.26 1214.89 345.26C1211.89 345.26 1209.93 343.18 1209.93 340.04ZM1224.15 345H1221.71V330.12H1224.17V336.4C1224.79 335.44 1225.95 334.82 1227.37 334.82C1229.81 334.82 1231.09 336.36 1231.09 338.92V345H1228.65V339.5C1228.65 337.84 1227.83 337.04 1226.59 337.04C1225.05 337.04 1224.15 338.12 1224.15 339.6V345ZM1233.1 340.04C1233.1 336.96 1235.32 334.84 1238.38 334.84C1241.44 334.84 1243.66 336.96 1243.66 340.04C1243.66 343.12 1241.44 345.24 1238.38 345.24C1235.32 345.24 1233.1 343.12 1233.1 340.04ZM1235.54 340.04C1235.54 341.84 1236.7 343.06 1238.38 343.06C1240.06 343.06 1241.22 341.84 1241.22 340.04C1241.22 338.24 1240.06 337.02 1238.38 337.02C1236.7 337.02 1235.54 338.24 1235.54 340.04ZM1248.26 345H1245.84V330.12H1248.26V345ZM1255.44 345.26C1252.5 345.26 1250.44 343.12 1250.44 340.06C1250.44 336.96 1252.46 334.82 1255.36 334.82C1258.32 334.82 1260.2 336.8 1260.2 339.88V340.62L1252.76 340.64C1252.94 342.38 1253.86 343.26 1255.48 343.26C1256.82 343.26 1257.7 342.74 1257.98 341.8H1260.24C1259.82 343.96 1258.02 345.26 1255.44 345.26ZM1255.38 336.82C1253.94 336.82 1253.06 337.6 1252.82 339.08H1257.78C1257.78 337.72 1256.84 336.82 1255.38 336.82ZM1261.59 342H1263.91C1263.93 342.86 1264.57 343.4 1265.69 343.4C1266.83 343.4 1267.45 342.94 1267.45 342.22C1267.45 341.72 1267.19 341.36 1266.31 341.16L1264.53 340.74C1262.75 340.34 1261.89 339.5 1261.89 337.92C1261.89 335.98 1263.53 334.82 1265.81 334.82C1268.03 334.82 1269.53 336.1 1269.55 338.02H1267.23C1267.21 337.18 1266.65 336.64 1265.71 336.64C1264.75 336.64 1264.19 337.08 1264.19 337.82C1264.19 338.38 1264.63 338.74 1265.47 338.94L1267.25 339.36C1268.91 339.74 1269.75 340.5 1269.75 342.02C1269.75 344.02 1268.05 345.26 1265.61 345.26C1263.15 345.26 1261.59 343.94 1261.59 342ZM1275.17 345H1272.73V337.16H1270.83V335.12H1272.73V332.04H1275.17V335.12H1277.09V337.16H1275.17V345ZM1283.13 345.26C1280.19 345.26 1278.13 343.12 1278.13 340.06C1278.13 336.96 1280.15 334.82 1283.05 334.82C1286.01 334.82 1287.89 336.8 1287.89 339.88V340.62L1280.45 340.64C1280.63 342.38 1281.55 343.26 1283.17 343.26C1284.51 343.26 1285.39 342.74 1285.67 341.8H1287.93C1287.51 343.96 1285.71 345.26 1283.13 345.26ZM1283.07 336.82C1281.63 336.82 1280.75 337.6 1280.51 339.08H1285.47C1285.47 337.72 1284.53 336.82 1283.07 336.82ZM1296.24 335.08V337.34H1295.34C1293.58 337.34 1292.48 338.28 1292.48 340.2V345H1290.04V335.14H1292.34L1292.48 336.58C1292.9 335.6 1293.84 334.94 1295.16 334.94C1295.5 334.94 1295.84 334.98 1296.24 335.08ZM1297.18 340.04C1297.18 336.96 1299.4 334.84 1302.46 334.84C1305.52 334.84 1307.74 336.96 1307.74 340.04C1307.74 343.12 1305.52 345.24 1302.46 345.24C1299.4 345.24 1297.18 343.12 1297.18 340.04ZM1299.62 340.04C1299.62 341.84 1300.78 343.06 1302.46 343.06C1304.14 343.06 1305.3 341.84 1305.3 340.04C1305.3 338.24 1304.14 337.02 1302.46 337.02C1300.78 337.02 1299.62 338.24 1299.62 340.04ZM1312.33 345H1309.91V330.12H1312.33V345ZM1323.14 345H1320.72V330.12H1323.14V345ZM1330.32 345.26C1327.38 345.26 1325.32 343.12 1325.32 340.06C1325.32 336.96 1327.34 334.82 1330.24 334.82C1333.2 334.82 1335.08 336.8 1335.08 339.88V340.62L1327.64 340.64C1327.82 342.38 1328.74 343.26 1330.36 343.26C1331.7 343.26 1332.58 342.74 1332.86 341.8H1335.12C1334.7 343.96 1332.9 345.26 1330.32 345.26ZM1330.26 336.82C1328.82 336.82 1327.94 337.6 1327.7 339.08H1332.66C1332.66 337.72 1331.72 336.82 1330.26 336.82ZM1339.61 345L1335.69 335.12H1338.29L1340.01 339.66C1340.43 340.84 1340.77 341.86 1340.89 342.4C1341.03 341.78 1341.39 340.74 1341.81 339.66L1343.61 335.12H1346.13L1342.01 345H1339.61ZM1351.66 345.26C1348.72 345.26 1346.66 343.12 1346.66 340.06C1346.66 336.96 1348.68 334.82 1351.58 334.82C1354.54 334.82 1356.42 336.8 1356.42 339.88V340.62L1348.98 340.64C1349.16 342.38 1350.08 343.26 1351.7 343.26C1353.04 343.26 1353.92 342.74 1354.2 341.8H1356.46C1356.04 343.96 1354.24 345.26 1351.66 345.26ZM1351.6 336.82C1350.16 336.82 1349.28 337.6 1349.04 339.08H1354C1354 337.72 1353.06 336.82 1351.6 336.82ZM1361.03 345H1358.61V330.12H1361.03V345Z" fill="black"/>
        <g id="B_PFASs">
            <rect id="Rectangle 4860_2" x="1109" y="354" width="111" height="27.5" rx="13.75" fill="#E45C4D"/>
            <path id="text_4" d="M1142.94 369.96H1139.72V375H1137.16V360.38H1142.94C1145.88 360.38 1147.78 362.3 1147.78 365.16C1147.78 367.98 1145.86 369.96 1142.94 369.96ZM1142.44 362.66H1139.72V367.68H1142.4C1144.16 367.68 1145.1 366.74 1145.1 365.14C1145.1 363.54 1144.14 362.66 1142.44 362.66ZM1157.93 369.02H1152.49V375H1149.93V360.38H1158.97V362.74H1152.49V366.72H1157.93V369.02ZM1161.64 375H1158.98L1164.26 360.38H1166.88L1172.16 375H1169.46L1168.28 371.62H1162.82L1161.64 375ZM1165.24 364.74L1163.58 369.46H1167.54L1165.86 364.74C1165.74 364.36 1165.6 363.92 1165.56 363.62C1165.5 363.9 1165.38 364.34 1165.24 364.74ZM1173.15 364.46C1173.15 361.9 1175.27 360.12 1178.35 360.12C1181.31 360.12 1183.19 361.76 1183.27 364.4H1180.71C1180.65 363.14 1179.75 362.4 1178.31 362.4C1176.73 362.4 1175.71 363.16 1175.71 364.38C1175.71 365.42 1176.27 366 1177.49 366.28L1179.79 366.78C1182.29 367.32 1183.51 368.6 1183.51 370.78C1183.51 373.5 1181.39 375.26 1178.17 375.26C1175.05 375.26 1173.01 373.6 1172.95 370.98H1175.51C1175.53 372.22 1176.53 372.96 1178.17 372.96C1179.87 372.96 1180.95 372.22 1180.95 371C1180.95 370.02 1180.45 369.44 1179.25 369.18L1176.93 368.66C1174.45 368.12 1173.15 366.7 1173.15 364.46ZM1184.71 372H1187.03C1187.05 372.86 1187.69 373.4 1188.81 373.4C1189.95 373.4 1190.57 372.94 1190.57 372.22C1190.57 371.72 1190.31 371.36 1189.43 371.16L1187.65 370.74C1185.87 370.34 1185.01 369.5 1185.01 367.92C1185.01 365.98 1186.65 364.82 1188.93 364.82C1191.15 364.82 1192.65 366.1 1192.67 368.02H1190.35C1190.33 367.18 1189.77 366.64 1188.83 366.64C1187.87 366.64 1187.31 367.08 1187.31 367.82C1187.31 368.38 1187.75 368.74 1188.59 368.94L1190.37 369.36C1192.03 369.74 1192.87 370.5 1192.87 372.02C1192.87 374.02 1191.17 375.26 1188.73 375.26C1186.27 375.26 1184.71 373.94 1184.71 372Z" fill="white"/>
        </g>
        <path id="Vector 2249_3" d="M1006 338L1104 338" stroke="black" stroke-width="3" stroke-linecap="round"/>
    </g>
    <g id="0_TEXT">
        <path id="Metabolic disorder" d="M1077.1 217H1074.62V202.38H1077.1L1081.82 214.02L1086.54 202.38H1089.06V217H1086.58V212.5C1086.58 209.56 1086.58 208.7 1086.72 207.66L1083 217H1080.64L1076.94 207.68C1077.08 208.56 1077.1 209.94 1077.1 211.76V217ZM1096.56 217.26C1093.62 217.26 1091.56 215.12 1091.56 212.06C1091.56 208.96 1093.58 206.82 1096.48 206.82C1099.44 206.82 1101.32 208.8 1101.32 211.88V212.62L1093.88 212.64C1094.06 214.38 1094.98 215.26 1096.6 215.26C1097.94 215.26 1098.82 214.74 1099.1 213.8H1101.36C1100.94 215.96 1099.14 217.26 1096.56 217.26ZM1096.5 208.82C1095.06 208.82 1094.18 209.6 1093.94 211.08H1098.9C1098.9 209.72 1097.96 208.82 1096.5 208.82ZM1106.73 217H1104.29V209.16H1102.39V207.12H1104.29V204.04H1106.73V207.12H1108.65V209.16H1106.73V217ZM1113.25 217.26C1111.15 217.26 1109.87 216.04 1109.87 214.18C1109.87 212.36 1111.19 211.22 1113.53 211.04L1116.49 210.82V210.6C1116.49 209.26 1115.69 208.72 1114.45 208.72C1113.01 208.72 1112.21 209.32 1112.21 210.36H1110.13C1110.13 208.22 1111.89 206.82 1114.57 206.82C1117.23 206.82 1118.87 208.26 1118.87 211V217H1116.73L1116.55 215.54C1116.13 216.56 1114.79 217.26 1113.25 217.26ZM1114.05 215.42C1115.55 215.42 1116.51 214.52 1116.51 213V212.48L1114.45 212.64C1112.93 212.78 1112.35 213.28 1112.35 214.08C1112.35 214.98 1112.95 215.42 1114.05 215.42ZM1123.73 217H1121.47V202.12H1123.91V208.56C1124.55 207.46 1125.87 206.8 1127.37 206.8C1130.19 206.8 1131.91 209 1131.91 212.12C1131.91 215.16 1130.05 217.26 1127.21 217.26C1125.73 217.26 1124.47 216.6 1123.89 215.46L1123.73 217ZM1123.93 212.02C1123.93 213.8 1125.03 215.02 1126.71 215.02C1128.43 215.02 1129.45 213.78 1129.45 212.02C1129.45 210.26 1128.43 209 1126.71 209C1125.03 209 1123.93 210.24 1123.93 212.02ZM1133.47 212.04C1133.47 208.96 1135.69 206.84 1138.75 206.84C1141.81 206.84 1144.03 208.96 1144.03 212.04C1144.03 215.12 1141.81 217.24 1138.75 217.24C1135.69 217.24 1133.47 215.12 1133.47 212.04ZM1135.91 212.04C1135.91 213.84 1137.07 215.06 1138.75 215.06C1140.43 215.06 1141.59 213.84 1141.59 212.04C1141.59 210.24 1140.43 209.02 1138.75 209.02C1137.07 209.02 1135.91 210.24 1135.91 212.04ZM1148.62 217H1146.2V202.12H1148.62V217ZM1152.6 205.14C1151.76 205.14 1151.1 204.48 1151.1 203.66C1151.1 202.84 1151.76 202.2 1152.6 202.2C1153.4 202.2 1154.06 202.84 1154.06 203.66C1154.06 204.48 1153.4 205.14 1152.6 205.14ZM1151.38 217V207.12H1153.82V217H1151.38ZM1155.96 212.04C1155.96 208.98 1157.98 206.82 1160.9 206.82C1163.6 206.82 1165.44 208.32 1165.7 210.7H1163.26C1162.98 209.58 1162.16 209 1161 209C1159.44 209 1158.4 210.18 1158.4 212.04C1158.4 213.9 1159.36 215.06 1160.92 215.06C1162.14 215.06 1163 214.46 1163.26 213.38H1165.72C1165.42 215.68 1163.5 217.26 1160.92 217.26C1157.92 217.26 1155.96 215.18 1155.96 212.04ZM1177.39 217.26C1174.53 217.26 1172.75 215.16 1172.75 212.1C1172.75 209.02 1174.55 206.82 1177.53 206.82C1178.91 206.82 1180.13 207.4 1180.75 208.38V202.12H1183.17V217H1180.93L1180.77 215.46C1180.17 216.6 1178.89 217.26 1177.39 217.26ZM1177.93 215.02C1179.63 215.02 1180.73 213.8 1180.73 212.02C1180.73 210.24 1179.63 209 1177.93 209C1176.23 209 1175.19 210.26 1175.19 212.02C1175.19 213.78 1176.23 215.02 1177.93 215.02ZM1187.13 205.14C1186.29 205.14 1185.63 204.48 1185.63 203.66C1185.63 202.84 1186.29 202.2 1187.13 202.2C1187.93 202.2 1188.59 202.84 1188.59 203.66C1188.59 204.48 1187.93 205.14 1187.13 205.14ZM1185.91 217V207.12H1188.35V217H1185.91ZM1190.31 214H1192.63C1192.65 214.86 1193.29 215.4 1194.41 215.4C1195.55 215.4 1196.17 214.94 1196.17 214.22C1196.17 213.72 1195.91 213.36 1195.03 213.16L1193.25 212.74C1191.47 212.34 1190.61 211.5 1190.61 209.92C1190.61 207.98 1192.25 206.82 1194.53 206.82C1196.75 206.82 1198.25 208.1 1198.27 210.02H1195.95C1195.93 209.18 1195.37 208.64 1194.43 208.64C1193.47 208.64 1192.91 209.08 1192.91 209.82C1192.91 210.38 1193.35 210.74 1194.19 210.94L1195.97 211.36C1197.63 211.74 1198.47 212.5 1198.47 214.02C1198.47 216.02 1196.77 217.26 1194.33 217.26C1191.87 217.26 1190.31 215.94 1190.31 214ZM1199.95 212.04C1199.95 208.96 1202.17 206.84 1205.23 206.84C1208.29 206.84 1210.51 208.96 1210.51 212.04C1210.51 215.12 1208.29 217.24 1205.23 217.24C1202.17 217.24 1199.95 215.12 1199.95 212.04ZM1202.39 212.04C1202.39 213.84 1203.55 215.06 1205.23 215.06C1206.91 215.06 1208.07 213.84 1208.07 212.04C1208.07 210.24 1206.91 209.02 1205.23 209.02C1203.55 209.02 1202.39 210.24 1202.39 212.04ZM1218.85 207.08V209.34H1217.95C1216.19 209.34 1215.09 210.28 1215.09 212.2V217H1212.65V207.14H1214.95L1215.09 208.58C1215.51 207.6 1216.45 206.94 1217.77 206.94C1218.11 206.94 1218.45 206.98 1218.85 207.08ZM1224.43 217.26C1221.57 217.26 1219.79 215.16 1219.79 212.1C1219.79 209.02 1221.59 206.82 1224.57 206.82C1225.95 206.82 1227.17 207.4 1227.79 208.38V202.12H1230.21V217H1227.97L1227.81 215.46C1227.21 216.6 1225.93 217.26 1224.43 217.26ZM1224.97 215.02C1226.67 215.02 1227.77 213.8 1227.77 212.02C1227.77 210.24 1226.67 209 1224.97 209C1223.27 209 1222.23 210.26 1222.23 212.02C1222.23 213.78 1223.27 215.02 1224.97 215.02ZM1237.37 217.26C1234.43 217.26 1232.37 215.12 1232.37 212.06C1232.37 208.96 1234.39 206.82 1237.29 206.82C1240.25 206.82 1242.13 208.8 1242.13 211.88V212.62L1234.69 212.64C1234.87 214.38 1235.79 215.26 1237.41 215.26C1238.75 215.26 1239.63 214.74 1239.91 213.8H1242.17C1241.75 215.96 1239.95 217.26 1237.37 217.26ZM1237.31 208.82C1235.87 208.82 1234.99 209.6 1234.75 211.08H1239.71C1239.71 209.72 1238.77 208.82 1237.31 208.82ZM1250.48 207.08V209.34H1249.58C1247.82 209.34 1246.72 210.28 1246.72 212.2V217H1244.28V207.14H1246.58L1246.72 208.58C1247.14 207.6 1248.08 206.94 1249.4 206.94C1249.74 206.94 1250.08 206.98 1250.48 207.08Z" fill="black"/>
        <g id="B_ARSENIC">
            <rect id="Rectangle 4859" x="1073" y="226" width="111" height="27.5" rx="13.75" fill="#C064E4"/>
            <path id="text_5" d="M1096.59 247H1093.93L1099.21 232.38H1101.83L1107.11 247H1104.41L1103.23 243.62H1097.77L1096.59 247ZM1100.19 236.74L1098.53 241.46H1102.49L1100.81 236.74C1100.69 236.36 1100.55 235.92 1100.51 235.62C1100.45 235.9 1100.33 236.34 1100.19 236.74ZM1114.78 237.08V239.34H1113.88C1112.12 239.34 1111.02 240.28 1111.02 242.2V247H1108.58V237.14H1110.88L1111.02 238.58C1111.44 237.6 1112.38 236.94 1113.7 236.94C1114.04 236.94 1114.38 236.98 1114.78 237.08ZM1115.67 244H1117.99C1118.01 244.86 1118.65 245.4 1119.77 245.4C1120.91 245.4 1121.53 244.94 1121.53 244.22C1121.53 243.72 1121.27 243.36 1120.39 243.16L1118.61 242.74C1116.83 242.34 1115.97 241.5 1115.97 239.92C1115.97 237.98 1117.61 236.82 1119.89 236.82C1122.11 236.82 1123.61 238.1 1123.63 240.02H1121.31C1121.29 239.18 1120.73 238.64 1119.79 238.64C1118.83 238.64 1118.27 239.08 1118.27 239.82C1118.27 240.38 1118.71 240.74 1119.55 240.94L1121.33 241.36C1122.99 241.74 1123.83 242.5 1123.83 244.02C1123.83 246.02 1122.13 247.26 1119.69 247.26C1117.23 247.26 1115.67 245.94 1115.67 244ZM1130.11 247.26C1127.17 247.26 1125.11 245.12 1125.11 242.06C1125.11 238.96 1127.13 236.82 1130.03 236.82C1132.99 236.82 1134.87 238.8 1134.87 241.88V242.62L1127.43 242.64C1127.61 244.38 1128.53 245.26 1130.15 245.26C1131.49 245.26 1132.37 244.74 1132.65 243.8H1134.91C1134.49 245.96 1132.69 247.26 1130.11 247.26ZM1130.05 238.82C1128.61 238.82 1127.73 239.6 1127.49 241.08H1132.45C1132.45 239.72 1131.51 238.82 1130.05 238.82ZM1139.26 247H1136.82V237.12H1139.08L1139.28 238.4C1139.9 237.4 1141.1 236.82 1142.44 236.82C1144.92 236.82 1146.2 238.36 1146.2 240.92V247H1143.76V241.5C1143.76 239.84 1142.94 239.04 1141.68 239.04C1140.18 239.04 1139.26 240.08 1139.26 241.68V247ZM1149.82 235.14C1148.98 235.14 1148.32 234.48 1148.32 233.66C1148.32 232.84 1148.98 232.2 1149.82 232.2C1150.62 232.2 1151.28 232.84 1151.28 233.66C1151.28 234.48 1150.62 235.14 1149.82 235.14ZM1148.6 247V237.12H1151.04V247H1148.6ZM1152.98 242.04C1152.98 238.98 1155 236.82 1157.92 236.82C1160.62 236.82 1162.46 238.32 1162.72 240.7H1160.28C1160 239.58 1159.18 239 1158.02 239C1156.46 239 1155.42 240.18 1155.42 242.04C1155.42 243.9 1156.38 245.06 1157.94 245.06C1159.16 245.06 1160.02 244.46 1160.28 243.38H1162.74C1162.44 245.68 1160.52 247.26 1157.94 247.26C1154.94 247.26 1152.98 245.18 1152.98 242.04Z" fill="white"/>
        </g>
        <path id="Vector 2249_4" d="M968 210L1066 210" stroke="black" stroke-width="3" stroke-linecap="round"/>
    </g>
    <g id="centroids">
        <circle id="0_DOT" cx="958.555" cy="210.65" r="3.2342" fill="#FF0000"/>
        <circle id="1_DOT" cx="939.148" cy="286.115" r="3.2342" fill="#FF0000"/>
        <circle id="2_DOT" cx="997.359" cy="337.862" r="3.2342" fill="#FF0000"/>
        <circle id="3_DOT" cx="959.633" cy="449.982" r="3.2342" fill="#FF0000"/>
    </g>
</g>
</svg>
