<svg width="1920" height="1080" viewBox="0 0 1920 1080" fill="none" xmlns="http://www.w3.org/2000/svg">
<g id="ASSET ANIMATION D4 Skin Effects">
<g id="0_TEXT">
<path id="Skin disorders" d="M674.78 277.46C674.78 274.9 676.9 273.12 679.98 273.12C682.94 273.12 684.82 274.76 684.9 277.4H682.34C682.28 276.14 681.38 275.4 679.94 275.4C678.36 275.4 677.34 276.16 677.34 277.38C677.34 278.42 677.9 279 679.12 279.28L681.42 279.78C683.92 280.32 685.14 281.6 685.14 283.78C685.14 286.5 683.02 288.26 679.8 288.26C676.68 288.26 674.64 286.6 674.58 283.98H677.14C677.16 285.22 678.16 285.96 679.8 285.96C681.5 285.96 682.58 285.22 682.58 284C682.58 283.02 682.08 282.44 680.88 282.18L678.56 281.66C676.08 281.12 674.78 279.7 674.78 277.46ZM689.756 288H687.336V273.12H689.756V282.26L693.596 278.12H696.656L692.896 282.04L696.576 288H693.776L691.196 283.84L689.756 285.34V288ZM699.478 276.14C698.638 276.14 697.978 275.48 697.978 274.66C697.978 273.84 698.638 273.2 699.478 273.2C700.278 273.2 700.938 273.84 700.938 274.66C700.938 275.48 700.278 276.14 699.478 276.14ZM698.258 288V278.12H700.698V288H698.258ZM705.859 288H703.419V278.12H705.679L705.879 279.4C706.499 278.4 707.699 277.82 709.039 277.82C711.519 277.82 712.799 279.36 712.799 281.92V288H710.359V282.5C710.359 280.84 709.539 280.04 708.279 280.04C706.779 280.04 705.859 281.08 705.859 282.68V288ZM725.047 288.26C722.187 288.26 720.407 286.16 720.407 283.1C720.407 280.02 722.207 277.82 725.187 277.82C726.567 277.82 727.787 278.4 728.407 279.38V273.12H730.827V288H728.587L728.427 286.46C727.827 287.6 726.547 288.26 725.047 288.26ZM725.587 286.02C727.287 286.02 728.387 284.8 728.387 283.02C728.387 281.24 727.287 280 725.587 280C723.887 280 722.847 281.26 722.847 283.02C722.847 284.78 723.887 286.02 725.587 286.02ZM734.789 276.14C733.949 276.14 733.289 275.48 733.289 274.66C733.289 273.84 733.949 273.2 734.789 273.2C735.589 273.2 736.249 273.84 736.249 274.66C736.249 275.48 735.589 276.14 734.789 276.14ZM733.569 288V278.12H736.009V288H733.569ZM737.97 285H740.29C740.31 285.86 740.95 286.4 742.07 286.4C743.21 286.4 743.83 285.94 743.83 285.22C743.83 284.72 743.57 284.36 742.69 284.16L740.91 283.74C739.13 283.34 738.27 282.5 738.27 280.92C738.27 278.98 739.91 277.82 742.19 277.82C744.41 277.82 745.91 279.1 745.93 281.02H743.61C743.59 280.18 743.03 279.64 742.09 279.64C741.13 279.64 740.57 280.08 740.57 280.82C740.57 281.38 741.01 281.74 741.85 281.94L743.63 282.36C745.29 282.74 746.13 283.5 746.13 285.02C746.13 287.02 744.43 288.26 741.99 288.26C739.53 288.26 737.97 286.94 737.97 285ZM747.608 283.04C747.608 279.96 749.828 277.84 752.888 277.84C755.948 277.84 758.168 279.96 758.168 283.04C758.168 286.12 755.948 288.24 752.888 288.24C749.828 288.24 747.608 286.12 747.608 283.04ZM750.048 283.04C750.048 284.84 751.208 286.06 752.888 286.06C754.568 286.06 755.728 284.84 755.728 283.04C755.728 281.24 754.568 280.02 752.888 280.02C751.208 280.02 750.048 281.24 750.048 283.04ZM766.502 278.08V280.34H765.602C763.842 280.34 762.742 281.28 762.742 283.2V288H760.302V278.14H762.602L762.742 279.58C763.162 278.6 764.102 277.94 765.422 277.94C765.762 277.94 766.102 277.98 766.502 278.08ZM772.082 288.26C769.222 288.26 767.442 286.16 767.442 283.1C767.442 280.02 769.242 277.82 772.222 277.82C773.602 277.82 774.822 278.4 775.442 279.38V273.12H777.862V288H775.622L775.462 286.46C774.862 287.6 773.582 288.26 772.082 288.26ZM772.622 286.02C774.322 286.02 775.422 284.8 775.422 283.02C775.422 281.24 774.322 280 772.622 280C770.922 280 769.882 281.26 769.882 283.02C769.882 284.78 770.922 286.02 772.622 286.02ZM785.025 288.26C782.085 288.26 780.025 286.12 780.025 283.06C780.025 279.96 782.045 277.82 784.945 277.82C787.905 277.82 789.785 279.8 789.785 282.88V283.62L782.345 283.64C782.525 285.38 783.445 286.26 785.065 286.26C786.405 286.26 787.285 285.74 787.565 284.8H789.825C789.405 286.96 787.605 288.26 785.025 288.26ZM784.965 279.82C783.525 279.82 782.645 280.6 782.405 282.08H787.365C787.365 280.72 786.425 279.82 784.965 279.82ZM798.137 278.08V280.34H797.237C795.477 280.34 794.377 281.28 794.377 283.2V288H791.937V278.14H794.237L794.377 279.58C794.797 278.6 795.737 277.94 797.057 277.94C797.397 277.94 797.737 277.98 798.137 278.08ZM799.229 285H801.549C801.569 285.86 802.209 286.4 803.329 286.4C804.469 286.4 805.089 285.94 805.089 285.22C805.089 284.72 804.829 284.36 803.949 284.16L802.169 283.74C800.389 283.34 799.529 282.5 799.529 280.92C799.529 278.98 801.169 277.82 803.449 277.82C805.669 277.82 807.169 279.1 807.189 281.02H804.869C804.849 280.18 804.289 279.64 803.349 279.64C802.389 279.64 801.829 280.08 801.829 280.82C801.829 281.38 802.269 281.74 803.109 281.94L804.889 282.36C806.549 282.74 807.389 283.5 807.389 285.02C807.389 287.02 805.689 288.26 803.249 288.26C800.789 288.26 799.229 286.94 799.229 285Z" fill="black"/>
<path id="Vector 2249" d="M878 283H816" stroke="black" stroke-width="3" stroke-linecap="round"/>
<g id="B_ARSENIC">
<rect id="Rectangle 4863" x="674" y="297" width="122" height="27.5" rx="13.75" fill="#C064E4"/>
<path id="text" d="M703.085 318H700.425L705.705 303.38H708.325L713.605 318H710.905L709.725 314.62H704.265L703.085 318ZM706.685 307.74L705.025 312.46H708.985L707.305 307.74C707.185 307.36 707.045 306.92 707.005 306.62C706.945 306.9 706.825 307.34 706.685 307.74ZM721.278 308.08V310.34H720.378C718.618 310.34 717.518 311.28 717.518 313.2V318H715.078V308.14H717.378L717.518 309.58C717.938 308.6 718.878 307.94 720.198 307.94C720.538 307.94 720.878 307.98 721.278 308.08ZM722.17 315H724.49C724.51 315.86 725.15 316.4 726.27 316.4C727.41 316.4 728.03 315.94 728.03 315.22C728.03 314.72 727.77 314.36 726.89 314.16L725.11 313.74C723.33 313.34 722.47 312.5 722.47 310.92C722.47 308.98 724.11 307.82 726.39 307.82C728.61 307.82 730.11 309.1 730.13 311.02H727.81C727.79 310.18 727.23 309.64 726.29 309.64C725.33 309.64 724.77 310.08 724.77 310.82C724.77 311.38 725.21 311.74 726.05 311.94L727.83 312.36C729.49 312.74 730.33 313.5 730.33 315.02C730.33 317.02 728.63 318.26 726.19 318.26C723.73 318.26 722.17 316.94 722.17 315ZM736.608 318.26C733.668 318.26 731.608 316.12 731.608 313.06C731.608 309.96 733.628 307.82 736.528 307.82C739.488 307.82 741.368 309.8 741.368 312.88V313.62L733.928 313.64C734.108 315.38 735.028 316.26 736.648 316.26C737.988 316.26 738.868 315.74 739.148 314.8H741.408C740.988 316.96 739.188 318.26 736.608 318.26ZM736.548 309.82C735.108 309.82 734.228 310.6 733.988 312.08H738.948C738.948 310.72 738.008 309.82 736.548 309.82ZM745.761 318H743.321V308.12H745.581L745.781 309.4C746.401 308.4 747.601 307.82 748.941 307.82C751.421 307.82 752.701 309.36 752.701 311.92V318H750.261V312.5C750.261 310.84 749.441 310.04 748.181 310.04C746.681 310.04 745.761 311.08 745.761 312.68V318ZM756.318 306.14C755.478 306.14 754.818 305.48 754.818 304.66C754.818 303.84 755.478 303.2 756.318 303.2C757.118 303.2 757.778 303.84 757.778 304.66C757.778 305.48 757.118 306.14 756.318 306.14ZM755.098 318V308.12H757.538V318H755.098ZM759.479 313.04C759.479 309.98 761.499 307.82 764.419 307.82C767.119 307.82 768.959 309.32 769.219 311.7H766.779C766.499 310.58 765.679 310 764.519 310C762.959 310 761.919 311.18 761.919 313.04C761.919 314.9 762.879 316.06 764.439 316.06C765.659 316.06 766.519 315.46 766.779 314.38H769.239C768.939 316.68 767.019 318.26 764.439 318.26C761.439 318.26 759.479 316.18 759.479 313.04Z" fill="white"/>
</g>
</g>
<g id="1_TEXT">
<path id="Skin irritation and sensitization" d="M1096.05 614.383C1096.05 611.823 1098.17 610.043 1101.25 610.043C1104.21 610.043 1106.09 611.683 1106.17 614.323H1103.61C1103.55 613.063 1102.65 612.323 1101.21 612.323C1099.63 612.323 1098.61 613.083 1098.61 614.303C1098.61 615.343 1099.17 615.923 1100.39 616.203L1102.69 616.703C1105.19 617.243 1106.41 618.523 1106.41 620.703C1106.41 623.423 1104.29 625.183 1101.07 625.183C1097.95 625.183 1095.91 623.523 1095.85 620.903H1098.41C1098.43 622.143 1099.43 622.883 1101.07 622.883C1102.77 622.883 1103.85 622.143 1103.85 620.923C1103.85 619.943 1103.35 619.363 1102.15 619.103L1099.83 618.583C1097.35 618.043 1096.05 616.623 1096.05 614.383ZM1111.03 624.923H1108.61V610.043H1111.03V619.183L1114.87 615.043H1117.93L1114.17 618.963L1117.85 624.923H1115.05L1112.47 620.763L1111.03 622.263V624.923ZM1120.75 613.063C1119.91 613.063 1119.25 612.403 1119.25 611.583C1119.25 610.763 1119.91 610.123 1120.75 610.123C1121.55 610.123 1122.21 610.763 1122.21 611.583C1122.21 612.403 1121.55 613.063 1120.75 613.063ZM1119.53 624.923V615.043H1121.97V624.923H1119.53ZM1127.13 624.923H1124.69V615.043H1126.95L1127.15 616.323C1127.77 615.323 1128.97 614.743 1130.31 614.743C1132.79 614.743 1134.07 616.283 1134.07 618.843V624.923H1131.63V619.423C1131.63 617.763 1130.81 616.963 1129.55 616.963C1128.05 616.963 1127.13 618.003 1127.13 619.603V624.923ZM1143.48 613.063C1142.64 613.063 1141.98 612.403 1141.98 611.583C1141.98 610.763 1142.64 610.123 1143.48 610.123C1144.28 610.123 1144.94 610.763 1144.94 611.583C1144.94 612.403 1144.28 613.063 1143.48 613.063ZM1142.26 624.923V615.043H1144.7V624.923H1142.26ZM1153.62 615.003V617.263H1152.72C1150.96 617.263 1149.86 618.203 1149.86 620.123V624.923H1147.42V615.063H1149.72L1149.86 616.503C1150.28 615.523 1151.22 614.863 1152.54 614.863C1152.88 614.863 1153.22 614.903 1153.62 615.003ZM1161.67 615.003V617.263H1160.77C1159.01 617.263 1157.91 618.203 1157.91 620.123V624.923H1155.47V615.063H1157.77L1157.91 616.503C1158.33 615.523 1159.27 614.863 1160.59 614.863C1160.93 614.863 1161.27 614.903 1161.67 615.003ZM1164.74 613.063C1163.9 613.063 1163.24 612.403 1163.24 611.583C1163.24 610.763 1163.9 610.123 1164.74 610.123C1165.54 610.123 1166.2 610.763 1166.2 611.583C1166.2 612.403 1165.54 613.063 1164.74 613.063ZM1163.52 624.923V615.043H1165.96V624.923H1163.52ZM1172.05 624.923H1169.61V617.083H1167.71V615.043H1169.61V611.963H1172.05V615.043H1173.97V617.083H1172.05V624.923ZM1178.56 625.183C1176.46 625.183 1175.18 623.963 1175.18 622.103C1175.18 620.283 1176.5 619.143 1178.84 618.963L1181.8 618.743V618.523C1181.8 617.183 1181 616.643 1179.76 616.643C1178.32 616.643 1177.52 617.243 1177.52 618.283H1175.44C1175.44 616.143 1177.2 614.743 1179.88 614.743C1182.54 614.743 1184.18 616.183 1184.18 618.923V624.923H1182.04L1181.86 623.463C1181.44 624.483 1180.1 625.183 1178.56 625.183ZM1179.36 623.343C1180.86 623.343 1181.82 622.443 1181.82 620.923V620.403L1179.76 620.563C1178.24 620.703 1177.66 621.203 1177.66 622.003C1177.66 622.903 1178.26 623.343 1179.36 623.343ZM1190 624.923H1187.56V617.083H1185.66V615.043H1187.56V611.963H1190V615.043H1191.92V617.083H1190V624.923ZM1194.86 613.063C1194.02 613.063 1193.36 612.403 1193.36 611.583C1193.36 610.763 1194.02 610.123 1194.86 610.123C1195.66 610.123 1196.32 610.763 1196.32 611.583C1196.32 612.403 1195.66 613.063 1194.86 613.063ZM1193.64 624.923V615.043H1196.08V624.923H1193.64ZM1198.22 619.963C1198.22 616.883 1200.44 614.763 1203.5 614.763C1206.56 614.763 1208.78 616.883 1208.78 619.963C1208.78 623.043 1206.56 625.163 1203.5 625.163C1200.44 625.163 1198.22 623.043 1198.22 619.963ZM1200.66 619.963C1200.66 621.763 1201.82 622.983 1203.5 622.983C1205.18 622.983 1206.34 621.763 1206.34 619.963C1206.34 618.163 1205.18 616.943 1203.5 616.943C1201.82 616.943 1200.66 618.163 1200.66 619.963ZM1213.36 624.923H1210.92V615.043H1213.18L1213.38 616.323C1214 615.323 1215.2 614.743 1216.54 614.743C1219.02 614.743 1220.3 616.283 1220.3 618.843V624.923H1217.86V619.423C1217.86 617.763 1217.04 616.963 1215.78 616.963C1214.28 616.963 1213.36 618.003 1213.36 619.603V624.923ZM1231.42 625.183C1229.32 625.183 1228.04 623.963 1228.04 622.103C1228.04 620.283 1229.36 619.143 1231.7 618.963L1234.66 618.743V618.523C1234.66 617.183 1233.86 616.643 1232.62 616.643C1231.18 616.643 1230.38 617.243 1230.38 618.283H1228.3C1228.3 616.143 1230.06 614.743 1232.74 614.743C1235.4 614.743 1237.04 616.183 1237.04 618.923V624.923H1234.9L1234.72 623.463C1234.3 624.483 1232.96 625.183 1231.42 625.183ZM1232.22 623.343C1233.72 623.343 1234.68 622.443 1234.68 620.923V620.403L1232.62 620.563C1231.1 620.703 1230.52 621.203 1230.52 622.003C1230.52 622.903 1231.12 623.343 1232.22 623.343ZM1242.08 624.923H1239.64V615.043H1241.9L1242.1 616.323C1242.72 615.323 1243.92 614.743 1245.26 614.743C1247.74 614.743 1249.02 616.283 1249.02 618.843V624.923H1246.58V619.423C1246.58 617.763 1245.76 616.963 1244.5 616.963C1243 616.963 1242.08 618.003 1242.08 619.603V624.923ZM1255.68 625.183C1252.82 625.183 1251.04 623.083 1251.04 620.023C1251.04 616.943 1252.84 614.743 1255.82 614.743C1257.2 614.743 1258.42 615.323 1259.04 616.303V610.043H1261.46V624.923H1259.22L1259.06 623.383C1258.46 624.523 1257.18 625.183 1255.68 625.183ZM1256.22 622.943C1257.92 622.943 1259.02 621.723 1259.02 619.943C1259.02 618.163 1257.92 616.923 1256.22 616.923C1254.52 616.923 1253.48 618.183 1253.48 619.943C1253.48 621.703 1254.52 622.943 1256.22 622.943ZM1269.03 621.923H1271.35C1271.37 622.783 1272.01 623.323 1273.13 623.323C1274.27 623.323 1274.89 622.863 1274.89 622.143C1274.89 621.643 1274.63 621.283 1273.75 621.083L1271.97 620.663C1270.19 620.263 1269.33 619.423 1269.33 617.843C1269.33 615.903 1270.97 614.743 1273.25 614.743C1275.47 614.743 1276.97 616.023 1276.99 617.943H1274.67C1274.65 617.103 1274.09 616.563 1273.15 616.563C1272.19 616.563 1271.63 617.003 1271.63 617.743C1271.63 618.303 1272.07 618.663 1272.91 618.863L1274.69 619.283C1276.35 619.663 1277.19 620.423 1277.19 621.943C1277.19 623.943 1275.49 625.183 1273.05 625.183C1270.59 625.183 1269.03 623.863 1269.03 621.923ZM1283.67 625.183C1280.73 625.183 1278.67 623.043 1278.67 619.983C1278.67 616.883 1280.69 614.743 1283.59 614.743C1286.55 614.743 1288.43 616.723 1288.43 619.803V620.543L1280.99 620.563C1281.17 622.303 1282.09 623.183 1283.71 623.183C1285.05 623.183 1285.93 622.663 1286.21 621.723H1288.47C1288.05 623.883 1286.25 625.183 1283.67 625.183ZM1283.61 616.743C1282.17 616.743 1281.29 617.523 1281.05 619.003H1286.01C1286.01 617.643 1285.07 616.743 1283.61 616.743ZM1293.02 624.923H1290.58V615.043H1292.84L1293.04 616.323C1293.66 615.323 1294.86 614.743 1296.2 614.743C1298.68 614.743 1299.96 616.283 1299.96 618.843V624.923H1297.52V619.423C1297.52 617.763 1296.7 616.963 1295.44 616.963C1293.94 616.963 1293.02 618.003 1293.02 619.603V624.923ZM1301.68 621.923H1304C1304.02 622.783 1304.66 623.323 1305.78 623.323C1306.92 623.323 1307.54 622.863 1307.54 622.143C1307.54 621.643 1307.28 621.283 1306.4 621.083L1304.62 620.663C1302.84 620.263 1301.98 619.423 1301.98 617.843C1301.98 615.903 1303.62 614.743 1305.9 614.743C1308.12 614.743 1309.62 616.023 1309.64 617.943H1307.32C1307.3 617.103 1306.74 616.563 1305.8 616.563C1304.84 616.563 1304.28 617.003 1304.28 617.743C1304.28 618.303 1304.72 618.663 1305.56 618.863L1307.34 619.283C1309 619.663 1309.84 620.423 1309.84 621.943C1309.84 623.943 1308.14 625.183 1305.7 625.183C1303.24 625.183 1301.68 623.863 1301.68 621.923ZM1313.12 613.063C1312.28 613.063 1311.62 612.403 1311.62 611.583C1311.62 610.763 1312.28 610.123 1313.12 610.123C1313.92 610.123 1314.58 610.763 1314.58 611.583C1314.58 612.403 1313.92 613.063 1313.12 613.063ZM1311.9 624.923V615.043H1314.34V624.923H1311.9ZM1320.42 624.923H1317.98V617.083H1316.08V615.043H1317.98V611.963H1320.42V615.043H1322.34V617.083H1320.42V624.923ZM1325.28 613.063C1324.44 613.063 1323.78 612.403 1323.78 611.583C1323.78 610.763 1324.44 610.123 1325.28 610.123C1326.08 610.123 1326.74 610.763 1326.74 611.583C1326.74 612.403 1326.08 613.063 1325.28 613.063ZM1324.06 624.923V615.043H1326.5V624.923H1324.06ZM1336.68 624.923H1328.7V622.923L1333.62 617.083H1328.7V615.043H1336.68V617.063L1331.68 622.883H1336.68V624.923ZM1341.81 625.183C1339.71 625.183 1338.43 623.963 1338.43 622.103C1338.43 620.283 1339.75 619.143 1342.09 618.963L1345.05 618.743V618.523C1345.05 617.183 1344.25 616.643 1343.01 616.643C1341.57 616.643 1340.77 617.243 1340.77 618.283H1338.69C1338.69 616.143 1340.45 614.743 1343.13 614.743C1345.79 614.743 1347.43 616.183 1347.43 618.923V624.923H1345.29L1345.11 623.463C1344.69 624.483 1343.35 625.183 1341.81 625.183ZM1342.61 623.343C1344.11 623.343 1345.07 622.443 1345.07 620.923V620.403L1343.01 620.563C1341.49 620.703 1340.91 621.203 1340.91 622.003C1340.91 622.903 1341.51 623.343 1342.61 623.343ZM1353.25 624.923H1350.81V617.083H1348.91V615.043H1350.81V611.963H1353.25V615.043H1355.17V617.083H1353.25V624.923ZM1358.11 613.063C1357.27 613.063 1356.61 612.403 1356.61 611.583C1356.61 610.763 1357.27 610.123 1358.11 610.123C1358.91 610.123 1359.57 610.763 1359.57 611.583C1359.57 612.403 1358.91 613.063 1358.11 613.063ZM1356.89 624.923V615.043H1359.33V624.923H1356.89ZM1361.47 619.963C1361.47 616.883 1363.69 614.763 1366.75 614.763C1369.81 614.763 1372.03 616.883 1372.03 619.963C1372.03 623.043 1369.81 625.163 1366.75 625.163C1363.69 625.163 1361.47 623.043 1361.47 619.963ZM1363.91 619.963C1363.91 621.763 1365.07 622.983 1366.75 622.983C1368.43 622.983 1369.59 621.763 1369.59 619.963C1369.59 618.163 1368.43 616.943 1366.75 616.943C1365.07 616.943 1363.91 618.163 1363.91 619.963ZM1376.6 624.923H1374.16V615.043H1376.42L1376.62 616.323C1377.24 615.323 1378.44 614.743 1379.78 614.743C1382.26 614.743 1383.54 616.283 1383.54 618.843V624.923H1381.1V619.423C1381.1 617.763 1380.28 616.963 1379.02 616.963C1377.52 616.963 1376.6 618.003 1376.6 619.603V624.923Z" fill="black"/>
<path id="Vector 2250" d="M1029.27 617.923L1088.27 617.923" stroke="black" stroke-width="3" stroke-linecap="round"/>
<g id="B_PESTICIDES">
<rect id="Rectangle 4864" x="1096" y="634" width="133" height="27.5" rx="13.75" fill="#5658E7"/>
<path id="text" d="M1123.32 649.96H1120.1V655H1117.54V640.38H1123.32C1126.26 640.38 1128.16 642.3 1128.16 645.16C1128.16 647.98 1126.24 649.96 1123.32 649.96ZM1122.82 642.66H1120.1V647.68H1122.78C1124.54 647.68 1125.48 646.74 1125.48 645.14C1125.48 643.54 1124.52 642.66 1122.82 642.66ZM1133.88 655.26C1130.94 655.26 1128.88 653.12 1128.88 650.06C1128.88 646.96 1130.9 644.82 1133.8 644.82C1136.76 644.82 1138.64 646.8 1138.64 649.88V650.62L1131.2 650.64C1131.38 652.38 1132.3 653.26 1133.92 653.26C1135.26 653.26 1136.14 652.74 1136.42 651.8H1138.68C1138.26 653.96 1136.46 655.26 1133.88 655.26ZM1133.82 646.82C1132.38 646.82 1131.5 647.6 1131.26 649.08H1136.22C1136.22 647.72 1135.28 646.82 1133.82 646.82ZM1139.84 652H1142.16C1142.18 652.86 1142.82 653.4 1143.94 653.4C1145.08 653.4 1145.7 652.94 1145.7 652.22C1145.7 651.72 1145.44 651.36 1144.56 651.16L1142.78 650.74C1141 650.34 1140.14 649.5 1140.14 647.92C1140.14 645.98 1141.78 644.82 1144.06 644.82C1146.28 644.82 1147.78 646.1 1147.8 648.02H1145.48C1145.46 647.18 1144.9 646.64 1143.96 646.64C1143 646.64 1142.44 647.08 1142.44 647.82C1142.44 648.38 1142.88 648.74 1143.72 648.94L1145.5 649.36C1147.16 649.74 1148 650.5 1148 652.02C1148 654.02 1146.3 655.26 1143.86 655.26C1141.4 655.26 1139.84 653.94 1139.84 652ZM1153.21 655H1150.77V647.16H1148.87V645.12H1150.77V642.04H1153.21V645.12H1155.13V647.16H1153.21V655ZM1157.87 643.14C1157.03 643.14 1156.37 642.48 1156.37 641.66C1156.37 640.84 1157.03 640.2 1157.87 640.2C1158.67 640.2 1159.33 640.84 1159.33 641.66C1159.33 642.48 1158.67 643.14 1157.87 643.14ZM1156.65 655V645.12H1159.09V655H1156.65ZM1161.03 650.04C1161.03 646.98 1163.05 644.82 1165.97 644.82C1168.67 644.82 1170.51 646.32 1170.77 648.7H1168.33C1168.05 647.58 1167.23 647 1166.07 647C1164.51 647 1163.47 648.18 1163.47 650.04C1163.47 651.9 1164.43 653.06 1165.99 653.06C1167.21 653.06 1168.07 652.46 1168.33 651.38H1170.79C1170.49 653.68 1168.57 655.26 1165.99 655.26C1162.99 655.26 1161.03 653.18 1161.03 650.04ZM1173.83 643.14C1172.99 643.14 1172.33 642.48 1172.33 641.66C1172.33 640.84 1172.99 640.2 1173.83 640.2C1174.63 640.2 1175.29 640.84 1175.29 641.66C1175.29 642.48 1174.63 643.14 1173.83 643.14ZM1172.61 655V645.12H1175.05V655H1172.61ZM1181.63 655.26C1178.77 655.26 1176.99 653.16 1176.99 650.1C1176.99 647.02 1178.79 644.82 1181.77 644.82C1183.15 644.82 1184.37 645.4 1184.99 646.38V640.12H1187.41V655H1185.17L1185.01 653.46C1184.41 654.6 1183.13 655.26 1181.63 655.26ZM1182.17 653.02C1183.87 653.02 1184.97 651.8 1184.97 650.02C1184.97 648.24 1183.87 647 1182.17 647C1180.47 647 1179.43 648.26 1179.43 650.02C1179.43 651.78 1180.47 653.02 1182.17 653.02ZM1194.37 655.26C1191.43 655.26 1189.37 653.12 1189.37 650.06C1189.37 646.96 1191.39 644.82 1194.29 644.82C1197.25 644.82 1199.13 646.8 1199.13 649.88V650.62L1191.69 650.64C1191.87 652.38 1192.79 653.26 1194.41 653.26C1195.75 653.26 1196.63 652.74 1196.91 651.8H1199.17C1198.75 653.96 1196.95 655.26 1194.37 655.26ZM1194.31 646.82C1192.87 646.82 1191.99 647.6 1191.75 649.08H1196.71C1196.71 647.72 1195.77 646.82 1194.31 646.82ZM1200.32 652H1202.64C1202.66 652.86 1203.3 653.4 1204.42 653.4C1205.56 653.4 1206.18 652.94 1206.18 652.22C1206.18 651.72 1205.92 651.36 1205.04 651.16L1203.26 650.74C1201.48 650.34 1200.62 649.5 1200.62 647.92C1200.62 645.98 1202.26 644.82 1204.54 644.82C1206.76 644.82 1208.26 646.1 1208.28 648.02H1205.96C1205.94 647.18 1205.38 646.64 1204.44 646.64C1203.48 646.64 1202.92 647.08 1202.92 647.82C1202.92 648.38 1203.36 648.74 1204.2 648.94L1205.98 649.36C1207.64 649.74 1208.48 650.5 1208.48 652.02C1208.48 654.02 1206.78 655.26 1204.34 655.26C1201.88 655.26 1200.32 653.94 1200.32 652Z" fill="white"/>
</g>
</g>
<g id="centroids">
<circle id="0_DOT" cx="887.398" cy="282.881" r="3.2342" fill="#FF0000"/>
<circle id="1_DOT" cx="1020" cy="619.238" r="3.2342" fill="#FF0000"/>
</g>
</g>
</svg>
