<svg width="1920" height="1080" viewBox="0 0 1920 1080" fill="none" xmlns="http://www.w3.org/2000/svg">
<g id="ASSET ANIMATION D8 Liver and Kidney Toxicity">
<g id="0_TEXT">
<path id="Kidney damage" d="M645.352 412.48V420.16L651.272 412.48H654.292L649.452 418.72L654.352 427.1H651.392L647.772 420.88L645.352 423.98V427.1H642.792V412.48H645.352ZM657.328 415.24C656.488 415.24 655.828 414.58 655.828 413.76C655.828 412.94 656.488 412.3 657.328 412.3C658.128 412.3 658.788 412.94 658.788 413.76C658.788 414.58 658.128 415.24 657.328 415.24ZM656.108 427.1V417.22H658.548V427.1H656.108ZM665.329 427.36C662.469 427.36 660.689 425.26 660.689 422.2C660.689 419.12 662.489 416.92 665.469 416.92C666.849 416.92 668.069 417.5 668.689 418.48V412.22H671.109V427.1H668.869L668.709 425.56C668.109 426.7 666.829 427.36 665.329 427.36ZM665.869 425.12C667.569 425.12 668.669 423.9 668.669 422.12C668.669 420.34 667.569 419.1 665.869 419.1C664.169 419.1 663.129 420.36 663.129 422.12C663.129 423.88 664.169 425.12 665.869 425.12ZM676.292 427.1H673.852V417.22H676.112L676.312 418.5C676.932 417.5 678.132 416.92 679.472 416.92C681.952 416.92 683.232 418.46 683.232 421.02V427.1H680.792V421.6C680.792 419.94 679.972 419.14 678.712 419.14C677.212 419.14 676.292 420.18 676.292 421.78V427.1ZM690.25 427.36C687.31 427.36 685.25 425.22 685.25 422.16C685.25 419.06 687.27 416.92 690.17 416.92C693.13 416.92 695.01 418.9 695.01 421.98V422.72L687.57 422.74C687.75 424.48 688.67 425.36 690.29 425.36C691.63 425.36 692.51 424.84 692.79 423.9H695.05C694.63 426.06 692.83 427.36 690.25 427.36ZM690.19 418.92C688.75 418.92 687.87 419.7 687.63 421.18H692.59C692.59 419.82 691.65 418.92 690.19 418.92ZM695.97 431.68V429.64H697.43C698.39 429.64 698.99 429.42 699.41 428.26L699.69 427.52L695.71 417.22H698.29L700.83 424.42L703.51 417.22H706.03L701.19 429.3C700.45 431.14 699.41 431.9 697.79 431.9C697.11 431.9 696.51 431.82 695.97 431.68ZM717.267 427.36C714.407 427.36 712.627 425.26 712.627 422.2C712.627 419.12 714.427 416.92 717.407 416.92C718.787 416.92 720.007 417.5 720.627 418.48V412.22H723.047V427.1H720.807L720.647 425.56C720.047 426.7 718.767 427.36 717.267 427.36ZM717.807 425.12C719.507 425.12 720.607 423.9 720.607 422.12C720.607 420.34 719.507 419.1 717.807 419.1C716.107 419.1 715.067 420.36 715.067 422.12C715.067 423.88 716.107 425.12 717.807 425.12ZM728.73 427.36C726.63 427.36 725.35 426.14 725.35 424.28C725.35 422.46 726.67 421.32 729.01 421.14L731.97 420.92V420.7C731.97 419.36 731.17 418.82 729.93 418.82C728.49 418.82 727.69 419.42 727.69 420.46H725.61C725.61 418.32 727.37 416.92 730.05 416.92C732.71 416.92 734.35 418.36 734.35 421.1V427.1H732.21L732.03 425.64C731.61 426.66 730.27 427.36 728.73 427.36ZM729.53 425.52C731.03 425.52 731.99 424.62 731.99 423.1V422.58L729.93 422.74C728.41 422.88 727.83 423.38 727.83 424.18C727.83 425.08 728.43 425.52 729.53 425.52ZM739.387 427.1H736.947V417.22H739.187L739.387 418.38C739.887 417.56 740.887 416.92 742.307 416.92C743.807 416.92 744.847 417.66 745.367 418.8C745.867 417.66 747.027 416.92 748.527 416.92C750.927 416.92 752.247 418.36 752.247 420.64V427.1H749.827V421.28C749.827 419.86 749.067 419.12 747.907 419.12C746.727 419.12 745.827 419.88 745.827 421.5V427.1H743.387V421.26C743.387 419.88 742.647 419.14 741.487 419.14C740.327 419.14 739.387 419.9 739.387 421.5V427.1ZM757.782 427.36C755.682 427.36 754.402 426.14 754.402 424.28C754.402 422.46 755.722 421.32 758.062 421.14L761.022 420.92V420.7C761.022 419.36 760.222 418.82 758.982 418.82C757.542 418.82 756.742 419.42 756.742 420.46H754.662C754.662 418.32 756.422 416.92 759.102 416.92C761.762 416.92 763.402 418.36 763.402 421.1V427.1H761.262L761.082 425.64C760.662 426.66 759.322 427.36 757.782 427.36ZM758.582 425.52C760.082 425.52 761.042 424.62 761.042 423.1V422.58L758.982 422.74C757.462 422.88 756.882 423.38 756.882 424.18C756.882 425.08 757.482 425.52 758.582 425.52ZM765.439 421.94C765.439 419.06 767.319 416.9 770.139 416.9C771.619 416.9 772.779 417.52 773.359 418.58L773.499 417.22H775.759V426.6C775.759 429.9 773.779 431.96 770.579 431.96C767.739 431.96 765.799 430.34 765.499 427.7H767.939C768.099 428.98 769.079 429.74 770.579 429.74C772.259 429.74 773.339 428.68 773.339 427.04V425.4C772.719 426.32 771.499 426.9 770.079 426.9C767.279 426.9 765.439 424.8 765.439 421.94ZM767.899 421.88C767.899 423.54 768.959 424.78 770.559 424.78C772.239 424.78 773.279 423.6 773.279 421.88C773.279 420.2 772.259 419.04 770.559 419.04C768.939 419.04 767.899 420.26 767.899 421.88ZM782.904 427.36C779.964 427.36 777.904 425.22 777.904 422.16C777.904 419.06 779.924 416.92 782.824 416.92C785.784 416.92 787.664 418.9 787.664 421.98V422.72L780.224 422.74C780.404 424.48 781.324 425.36 782.944 425.36C784.284 425.36 785.164 424.84 785.444 423.9H787.704C787.284 426.06 785.484 427.36 782.904 427.36ZM782.844 418.92C781.404 418.92 780.524 419.7 780.284 421.18H785.244C785.244 419.82 784.304 418.92 782.844 418.92Z" fill="black"/>
<path id="Vector 2249" d="M938.57 422.11H795.172" stroke="black" stroke-width="3" stroke-linecap="round"/>
<g id="B_MERCURY">
<rect id="Rectangle 4859" x="641.172" y="437.1" width="111" height="27.5" rx="13.75" fill="#E21337"/>
<path id="text" d="M661.914 458.1H659.434V443.48H661.914L666.634 455.12L671.354 443.48H673.874V458.1H671.394V453.6C671.394 450.66 671.394 449.8 671.534 448.76L667.814 458.1H665.454L661.754 448.78C661.894 449.66 661.914 451.04 661.914 452.86V458.1ZM681.17 458.36C678.23 458.36 676.17 456.22 676.17 453.16C676.17 450.06 678.19 447.92 681.09 447.92C684.05 447.92 685.93 449.9 685.93 452.98V453.72L678.49 453.74C678.67 455.48 679.59 456.36 681.21 456.36C682.55 456.36 683.43 455.84 683.71 454.9H685.97C685.55 457.06 683.75 458.36 681.17 458.36ZM681.11 449.92C679.67 449.92 678.79 450.7 678.55 452.18H683.51C683.51 450.82 682.57 449.92 681.11 449.92ZM694.083 448.18V450.44H693.183C691.423 450.44 690.323 451.38 690.323 453.3V458.1H687.883V448.24H690.183L690.323 449.68C690.743 448.7 691.683 448.04 693.003 448.04C693.343 448.04 693.683 448.08 694.083 448.18ZM694.823 453.14C694.823 450.08 696.843 447.92 699.763 447.92C702.463 447.92 704.303 449.42 704.563 451.8H702.123C701.843 450.68 701.023 450.1 699.863 450.1C698.303 450.1 697.263 451.28 697.263 453.14C697.263 455 698.223 456.16 699.783 456.16C701.003 456.16 701.863 455.56 702.123 454.48H704.583C704.283 456.78 702.363 458.36 699.783 458.36C696.783 458.36 694.823 456.28 694.823 453.14ZM713.099 448.22H715.539V458.1H713.279L713.099 456.78C712.499 457.72 711.219 458.36 709.899 458.36C707.619 458.36 706.279 456.82 706.279 454.4V448.22H708.719V453.54C708.719 455.42 709.459 456.18 710.819 456.18C712.359 456.18 713.099 455.28 713.099 453.4V448.22ZM724.259 448.18V450.44H723.359C721.599 450.44 720.499 451.38 720.499 453.3V458.1H718.059V448.24H720.359L720.499 449.68C720.919 448.7 721.859 448.04 723.179 448.04C723.519 448.04 723.859 448.08 724.259 448.18ZM725.343 462.68V460.64H726.803C727.763 460.64 728.363 460.42 728.783 459.26L729.063 458.52L725.083 448.22H727.663L730.203 455.42L732.883 448.22H735.403L730.563 460.3C729.823 462.14 728.783 462.9 727.163 462.9C726.483 462.9 725.883 462.82 725.343 462.68Z" fill="white"/>
</g>
</g>
<g id="1_TEXT">
<path id="Liver damage" d="M1126.18 364.38V376.64H1132.3V379H1123.62V364.38H1126.18ZM1135.44 367.14C1134.6 367.14 1133.94 366.48 1133.94 365.66C1133.94 364.84 1134.6 364.2 1135.44 364.2C1136.24 364.2 1136.9 364.84 1136.9 365.66C1136.9 366.48 1136.24 367.14 1135.44 367.14ZM1134.22 379V369.12H1136.66V379H1134.22ZM1142.18 379L1138.26 369.12H1140.86L1142.58 373.66C1143 374.84 1143.34 375.86 1143.46 376.4C1143.6 375.78 1143.96 374.74 1144.38 373.66L1146.18 369.12H1148.7L1144.58 379H1142.18ZM1154.24 379.26C1151.3 379.26 1149.24 377.12 1149.24 374.06C1149.24 370.96 1151.26 368.82 1154.16 368.82C1157.12 368.82 1159 370.8 1159 373.88V374.62L1151.56 374.64C1151.74 376.38 1152.66 377.26 1154.28 377.26C1155.62 377.26 1156.5 376.74 1156.78 375.8H1159.04C1158.62 377.96 1156.82 379.26 1154.24 379.26ZM1154.18 370.82C1152.74 370.82 1151.86 371.6 1151.62 373.08H1156.58C1156.58 371.72 1155.64 370.82 1154.18 370.82ZM1167.35 369.08V371.34H1166.45C1164.69 371.34 1163.59 372.28 1163.59 374.2V379H1161.15V369.14H1163.45L1163.59 370.58C1164.01 369.6 1164.95 368.94 1166.27 368.94C1166.61 368.94 1166.95 368.98 1167.35 369.08ZM1178.85 379.26C1175.99 379.26 1174.21 377.16 1174.21 374.1C1174.21 371.02 1176.01 368.82 1178.99 368.82C1180.37 368.82 1181.59 369.4 1182.21 370.38V364.12H1184.63V379H1182.39L1182.23 377.46C1181.63 378.6 1180.35 379.26 1178.85 379.26ZM1179.39 377.02C1181.09 377.02 1182.19 375.8 1182.19 374.02C1182.19 372.24 1181.09 371 1179.39 371C1177.69 371 1176.65 372.26 1176.65 374.02C1176.65 375.78 1177.69 377.02 1179.39 377.02ZM1190.31 379.26C1188.21 379.26 1186.93 378.04 1186.93 376.18C1186.93 374.36 1188.25 373.22 1190.59 373.04L1193.55 372.82V372.6C1193.55 371.26 1192.75 370.72 1191.51 370.72C1190.07 370.72 1189.27 371.32 1189.27 372.36H1187.19C1187.19 370.22 1188.95 368.82 1191.63 368.82C1194.29 368.82 1195.93 370.26 1195.93 373V379H1193.79L1193.61 377.54C1193.19 378.56 1191.85 379.26 1190.31 379.26ZM1191.11 377.42C1192.61 377.42 1193.57 376.52 1193.57 375V374.48L1191.51 374.64C1189.99 374.78 1189.41 375.28 1189.41 376.08C1189.41 376.98 1190.01 377.42 1191.11 377.42ZM1200.97 379H1198.53V369.12H1200.77L1200.97 370.28C1201.47 369.46 1202.47 368.82 1203.89 368.82C1205.39 368.82 1206.43 369.56 1206.95 370.7C1207.45 369.56 1208.61 368.82 1210.11 368.82C1212.51 368.82 1213.83 370.26 1213.83 372.54V379H1211.41V373.18C1211.41 371.76 1210.65 371.02 1209.49 371.02C1208.31 371.02 1207.41 371.78 1207.41 373.4V379H1204.97V373.16C1204.97 371.78 1204.23 371.04 1203.07 371.04C1201.91 371.04 1200.97 371.8 1200.97 373.4V379ZM1219.37 379.26C1217.27 379.26 1215.99 378.04 1215.99 376.18C1215.99 374.36 1217.31 373.22 1219.65 373.04L1222.61 372.82V372.6C1222.61 371.26 1221.81 370.72 1220.57 370.72C1219.13 370.72 1218.33 371.32 1218.33 372.36H1216.25C1216.25 370.22 1218.01 368.82 1220.69 368.82C1223.35 368.82 1224.99 370.26 1224.99 373V379H1222.85L1222.67 377.54C1222.25 378.56 1220.91 379.26 1219.37 379.26ZM1220.17 377.42C1221.67 377.42 1222.63 376.52 1222.63 375V374.48L1220.57 374.64C1219.05 374.78 1218.47 375.28 1218.47 376.08C1218.47 376.98 1219.07 377.42 1220.17 377.42ZM1227.02 373.84C1227.02 370.96 1228.9 368.8 1231.72 368.8C1233.2 368.8 1234.36 369.42 1234.94 370.48L1235.08 369.12H1237.34V378.5C1237.34 381.8 1235.36 383.86 1232.16 383.86C1229.32 383.86 1227.38 382.24 1227.08 379.6H1229.52C1229.68 380.88 1230.66 381.64 1232.16 381.64C1233.84 381.64 1234.92 380.58 1234.92 378.94V377.3C1234.3 378.22 1233.08 378.8 1231.66 378.8C1228.86 378.8 1227.02 376.7 1227.02 373.84ZM1229.48 373.78C1229.48 375.44 1230.54 376.68 1232.14 376.68C1233.82 376.68 1234.86 375.5 1234.86 373.78C1234.86 372.1 1233.84 370.94 1232.14 370.94C1230.52 370.94 1229.48 372.16 1229.48 373.78ZM1244.49 379.26C1241.55 379.26 1239.49 377.12 1239.49 374.06C1239.49 370.96 1241.51 368.82 1244.41 368.82C1247.37 368.82 1249.25 370.8 1249.25 373.88V374.62L1241.81 374.64C1241.99 376.38 1242.91 377.26 1244.53 377.26C1245.87 377.26 1246.75 376.74 1247.03 375.8H1249.29C1248.87 377.96 1247.07 379.26 1244.49 379.26ZM1244.43 370.82C1242.99 370.82 1242.11 371.6 1241.87 373.08H1246.83C1246.83 371.72 1245.89 370.82 1244.43 370.82Z" fill="black"/>
<g id="B_PFASs">
<rect id="Rectangle 4860" x="1120" y="388" width="111" height="27.5" rx="13.75" fill="#E45C4D"/>
<path id="text_2" d="M1153.94 403.96H1150.72V409H1148.16V394.38H1153.94C1156.88 394.38 1158.78 396.3 1158.78 399.16C1158.78 401.98 1156.86 403.96 1153.94 403.96ZM1153.44 396.66H1150.72V401.68H1153.4C1155.16 401.68 1156.1 400.74 1156.1 399.14C1156.1 397.54 1155.14 396.66 1153.44 396.66ZM1168.93 403.02H1163.49V409H1160.93V394.38H1169.97V396.74H1163.49V400.72H1168.93V403.02ZM1172.64 409H1169.98L1175.26 394.38H1177.88L1183.16 409H1180.46L1179.28 405.62H1173.82L1172.64 409ZM1176.24 398.74L1174.58 403.46H1178.54L1176.86 398.74C1176.74 398.36 1176.6 397.92 1176.56 397.62C1176.5 397.9 1176.38 398.34 1176.24 398.74ZM1184.15 398.46C1184.15 395.9 1186.27 394.12 1189.35 394.12C1192.31 394.12 1194.19 395.76 1194.27 398.4H1191.71C1191.65 397.14 1190.75 396.4 1189.31 396.4C1187.73 396.4 1186.71 397.16 1186.71 398.38C1186.71 399.42 1187.27 400 1188.49 400.28L1190.79 400.78C1193.29 401.32 1194.51 402.6 1194.51 404.78C1194.51 407.5 1192.39 409.26 1189.17 409.26C1186.05 409.26 1184.01 407.6 1183.95 404.98H1186.51C1186.53 406.22 1187.53 406.96 1189.17 406.96C1190.87 406.96 1191.95 406.22 1191.95 405C1191.95 404.02 1191.45 403.44 1190.25 403.18L1187.93 402.66C1185.45 402.12 1184.15 400.7 1184.15 398.46ZM1195.71 406H1198.03C1198.05 406.86 1198.69 407.4 1199.81 407.4C1200.95 407.4 1201.57 406.94 1201.57 406.22C1201.57 405.72 1201.31 405.36 1200.43 405.16L1198.65 404.74C1196.87 404.34 1196.01 403.5 1196.01 401.92C1196.01 399.98 1197.65 398.82 1199.93 398.82C1202.15 398.82 1203.65 400.1 1203.67 402.02H1201.35C1201.33 401.18 1200.77 400.64 1199.83 400.64C1198.87 400.64 1198.31 401.08 1198.31 401.82C1198.31 402.38 1198.75 402.74 1199.59 402.94L1201.37 403.36C1203.03 403.74 1203.87 404.5 1203.87 406.02C1203.87 408.02 1202.17 409.26 1199.73 409.26C1197.27 409.26 1195.71 407.94 1195.71 406Z" fill="white"/>
</g>
<path id="Vector 2249_2" d="M943 372L1115 372" stroke="black" stroke-width="3" stroke-linecap="round"/>
</g>
<g id="centroids">
<circle id="1_DOT" cx="933.758" cy="372.361" r="3.2342" fill="#FF0000"/>
<circle id="0_DOT" cx="947.773" cy="421.951" r="3.2342" fill="#FF0000"/>
</g>
</g>
</svg>
