<svg width="1920" height="1080" viewBox="0 0 1920 1080" fill="none" xmlns="http://www.w3.org/2000/svg">
<g id="PHTHALATES">
<g id="3_TEXT">
<path id="Insulin resistance" d="M652.181 276.38V291H649.621V276.38H652.181ZM657.702 291H655.262V281.12H657.522L657.722 282.4C658.342 281.4 659.542 280.82 660.882 280.82C663.362 280.82 664.642 282.36 664.642 284.92V291H662.202V285.5C662.202 283.84 661.382 283.04 660.122 283.04C658.622 283.04 657.702 284.08 657.702 285.68V291ZM666.362 288H668.682C668.702 288.86 669.342 289.4 670.462 289.4C671.602 289.4 672.222 288.94 672.222 288.22C672.222 287.72 671.962 287.36 671.082 287.16L669.302 286.74C667.522 286.34 666.662 285.5 666.662 283.92C666.662 281.98 668.302 280.82 670.582 280.82C672.802 280.82 674.302 282.1 674.322 284.02H672.002C671.982 283.18 671.422 282.64 670.482 282.64C669.522 282.64 668.962 283.08 668.962 283.82C668.962 284.38 669.402 284.74 670.242 284.94L672.022 285.36C673.682 285.74 674.522 286.5 674.522 288.02C674.522 290.02 672.822 291.26 670.382 291.26C667.922 291.26 666.362 289.94 666.362 288ZM683.28 281.12H685.72V291H683.46L683.28 289.68C682.68 290.62 681.4 291.26 680.08 291.26C677.8 291.26 676.46 289.72 676.46 287.3V281.12H678.9V286.44C678.9 288.32 679.64 289.08 681 289.08C682.54 289.08 683.28 288.18 683.28 286.3V281.12ZM690.9 291H688.48V276.12H690.9V291ZM694.879 279.14C694.039 279.14 693.379 278.48 693.379 277.66C693.379 276.84 694.039 276.2 694.879 276.2C695.679 276.2 696.339 276.84 696.339 277.66C696.339 278.48 695.679 279.14 694.879 279.14ZM693.659 291V281.12H696.099V291H693.659ZM701.26 291H698.82V281.12H701.08L701.28 282.4C701.9 281.4 703.1 280.82 704.44 280.82C706.92 280.82 708.2 282.36 708.2 284.92V291H705.76V285.5C705.76 283.84 704.94 283.04 703.68 283.04C702.18 283.04 701.26 284.08 701.26 285.68V291ZM722.588 281.08V283.34H721.688C719.928 283.34 718.828 284.28 718.828 286.2V291H716.388V281.14H718.688L718.828 282.58C719.248 281.6 720.188 280.94 721.508 280.94C721.848 280.94 722.188 280.98 722.588 281.08ZM728.528 291.26C725.588 291.26 723.528 289.12 723.528 286.06C723.528 282.96 725.548 280.82 728.448 280.82C731.408 280.82 733.288 282.8 733.288 285.88V286.62L725.848 286.64C726.028 288.38 726.948 289.26 728.568 289.26C729.908 289.26 730.788 288.74 731.068 287.8H733.328C732.908 289.96 731.108 291.26 728.528 291.26ZM728.468 282.82C727.028 282.82 726.148 283.6 725.908 285.08H730.868C730.868 283.72 729.928 282.82 728.468 282.82ZM734.681 288H737.001C737.021 288.86 737.661 289.4 738.781 289.4C739.921 289.4 740.541 288.94 740.541 288.22C740.541 287.72 740.281 287.36 739.401 287.16L737.621 286.74C735.841 286.34 734.981 285.5 734.981 283.92C734.981 281.98 736.621 280.82 738.901 280.82C741.121 280.82 742.621 282.1 742.641 284.02H740.321C740.301 283.18 739.741 282.64 738.801 282.64C737.841 282.64 737.281 283.08 737.281 283.82C737.281 284.38 737.721 284.74 738.561 284.94L740.341 285.36C742.001 285.74 742.841 286.5 742.841 288.02C742.841 290.02 741.141 291.26 738.701 291.26C736.241 291.26 734.681 289.94 734.681 288ZM746.118 279.14C745.278 279.14 744.618 278.48 744.618 277.66C744.618 276.84 745.278 276.2 746.118 276.2C746.918 276.2 747.578 276.84 747.578 277.66C747.578 278.48 746.918 279.14 746.118 279.14ZM744.898 291V281.12H747.338V291H744.898ZM749.299 288H751.619C751.639 288.86 752.279 289.4 753.399 289.4C754.539 289.4 755.159 288.94 755.159 288.22C755.159 287.72 754.899 287.36 754.019 287.16L752.239 286.74C750.459 286.34 749.599 285.5 749.599 283.92C749.599 281.98 751.239 280.82 753.519 280.82C755.739 280.82 757.239 282.1 757.259 284.02H754.939C754.919 283.18 754.359 282.64 753.419 282.64C752.459 282.64 751.899 283.08 751.899 283.82C751.899 284.38 752.339 284.74 753.179 284.94L754.959 285.36C756.619 285.74 757.459 286.5 757.459 288.02C757.459 290.02 755.759 291.26 753.319 291.26C750.859 291.26 749.299 289.94 749.299 288ZM762.877 291H760.437V283.16H758.537V281.12H760.437V278.04H762.877V281.12H764.797V283.16H762.877V291ZM769.396 291.26C767.296 291.26 766.016 290.04 766.016 288.18C766.016 286.36 767.336 285.22 769.676 285.04L772.636 284.82V284.6C772.636 283.26 771.836 282.72 770.596 282.72C769.156 282.72 768.356 283.32 768.356 284.36H766.276C766.276 282.22 768.036 280.82 770.716 280.82C773.376 280.82 775.016 282.26 775.016 285V291H772.876L772.696 289.54C772.276 290.56 770.936 291.26 769.396 291.26ZM770.196 289.42C771.696 289.42 772.656 288.52 772.656 287V286.48L770.596 286.64C769.076 286.78 768.496 287.28 768.496 288.08C768.496 288.98 769.096 289.42 770.196 289.42ZM780.053 291H777.613V281.12H779.873L780.073 282.4C780.693 281.4 781.893 280.82 783.233 280.82C785.713 280.82 786.993 282.36 786.993 284.92V291H784.553V285.5C784.553 283.84 783.733 283.04 782.473 283.04C780.973 283.04 780.053 284.08 780.053 285.68V291ZM789.01 286.04C789.01 282.98 791.03 280.82 793.95 280.82C796.65 280.82 798.49 282.32 798.75 284.7H796.31C796.03 283.58 795.21 283 794.05 283C792.49 283 791.45 284.18 791.45 286.04C791.45 287.9 792.41 289.06 793.97 289.06C795.19 289.06 796.05 288.46 796.31 287.38H798.77C798.47 289.68 796.55 291.26 793.97 291.26C790.97 291.26 789.01 289.18 789.01 286.04ZM805.206 291.26C802.266 291.26 800.206 289.12 800.206 286.06C800.206 282.96 802.226 280.82 805.126 280.82C808.086 280.82 809.966 282.8 809.966 285.88V286.62L802.526 286.64C802.706 288.38 803.626 289.26 805.246 289.26C806.586 289.26 807.466 288.74 807.746 287.8H810.006C809.586 289.96 807.786 291.26 805.206 291.26ZM805.146 282.82C803.706 282.82 802.826 283.6 802.586 285.08H807.546C807.546 283.72 806.606 282.82 805.146 282.82Z" fill="black"/>
<path id="Vector 2249_2" d="M930 286.01H820" stroke="black" stroke-width="3" stroke-linecap="round"/>
<g id="B_PHTHALATES_2">
<path id="Rectangle 4863_2" d="M780.25 300H661.75C654.156 300 648 306.156 648 313.75C648 321.344 654.156 327.5 661.75 327.5H780.25C787.844 327.5 794 321.344 794 313.75C794 306.156 787.844 300 780.25 300Z" fill="#9B9B9B"/>
<path id="text_3" d="M679.893 315.96H676.673V321H674.113V306.38H679.893C682.833 306.38 684.733 308.3 684.733 311.16C684.733 313.98 682.813 315.96 679.893 315.96ZM679.393 308.66H676.673V313.68H679.353C681.113 313.68 682.053 312.74 682.053 311.14C682.053 309.54 681.093 308.66 679.393 308.66ZM688.967 321H686.527V306.12H688.987V312.4C689.607 311.44 690.767 310.82 692.187 310.82C694.627 310.82 695.907 312.36 695.907 314.92V321H693.467V315.5C693.467 313.84 692.647 313.04 691.407 313.04C689.867 313.04 688.967 314.12 688.967 315.6V321ZM701.664 321H699.224V313.16H697.324V311.12H699.224V308.04H701.664V311.12H703.584V313.16H701.664V321ZM707.541 321H705.101V306.12H707.561V312.4C708.181 311.44 709.341 310.82 710.761 310.82C713.201 310.82 714.481 312.36 714.481 314.92V321H712.041V315.5C712.041 313.84 711.221 313.04 709.981 313.04C708.441 313.04 707.541 314.12 707.541 315.6V321ZM719.818 321.26C717.718 321.26 716.438 320.04 716.438 318.18C716.438 316.36 717.758 315.22 720.098 315.04L723.058 314.82V314.6C723.058 313.26 722.258 312.72 721.018 312.72C719.578 312.72 718.778 313.32 718.778 314.36H716.698C716.698 312.22 718.458 310.82 721.138 310.82C723.798 310.82 725.438 312.26 725.438 315V321H723.298L723.118 319.54C722.698 320.56 721.358 321.26 719.818 321.26ZM720.618 319.42C722.118 319.42 723.078 318.52 723.078 317V316.48L721.018 316.64C719.498 316.78 718.918 317.28 718.918 318.08C718.918 318.98 719.518 319.42 720.618 319.42ZM730.295 321H727.875V306.12H730.295V321ZM735.795 321.26C733.695 321.26 732.415 320.04 732.415 318.18C732.415 316.36 733.735 315.22 736.075 315.04L739.035 314.82V314.6C739.035 313.26 738.235 312.72 736.995 312.72C735.555 312.72 734.755 313.32 734.755 314.36H732.675C732.675 312.22 734.435 310.82 737.115 310.82C739.775 310.82 741.415 312.26 741.415 315V321H739.275L739.095 319.54C738.675 320.56 737.335 321.26 735.795 321.26ZM736.595 319.42C738.095 319.42 739.055 318.52 739.055 317V316.48L736.995 316.64C735.475 316.78 734.895 317.28 734.895 318.08C734.895 318.98 735.495 319.42 736.595 319.42ZM747.035 321H744.595V313.16H742.695V311.12H744.595V308.04H747.035V311.12H748.955V313.16H747.035V321ZM754.794 321.26C751.854 321.26 749.794 319.12 749.794 316.06C749.794 312.96 751.814 310.82 754.714 310.82C757.674 310.82 759.554 312.8 759.554 315.88V316.62L752.114 316.64C752.294 318.38 753.214 319.26 754.834 319.26C756.174 319.26 757.054 318.74 757.334 317.8H759.594C759.174 319.96 757.374 321.26 754.794 321.26ZM754.734 312.82C753.294 312.82 752.414 313.6 752.174 315.08H757.134C757.134 313.72 756.194 312.82 754.734 312.82ZM760.747 318H763.067C763.087 318.86 763.727 319.4 764.847 319.4C765.987 319.4 766.607 318.94 766.607 318.22C766.607 317.72 766.347 317.36 765.467 317.16L763.687 316.74C761.907 316.34 761.047 315.5 761.047 313.92C761.047 311.98 762.687 310.82 764.967 310.82C767.187 310.82 768.687 312.1 768.707 314.02H766.387C766.367 313.18 765.807 312.64 764.867 312.64C763.907 312.64 763.347 313.08 763.347 313.82C763.347 314.38 763.787 314.74 764.627 314.94L766.407 315.36C768.067 315.74 768.907 316.5 768.907 318.02C768.907 320.02 767.207 321.26 764.767 321.26C762.307 321.26 760.747 319.94 760.747 318Z" fill="white"/>
</g>
</g>
<g id="5_TEXT">
<path id="Obesity and metabolic disease" d="M578.961 434.68C578.961 439.12 576.041 442.24 571.841 442.24C567.661 442.24 564.781 439.14 564.781 434.68C564.781 430.24 567.681 427.12 571.861 427.12C576.041 427.12 578.961 430.22 578.961 434.68ZM576.261 434.68C576.261 431.56 574.541 429.58 571.861 429.58C569.181 429.58 567.461 431.56 567.461 434.68C567.461 437.8 569.181 439.78 571.861 439.78C574.541 439.78 576.261 437.76 576.261 434.68ZM583.444 442H581.184V427.12H583.624V433.56C584.264 432.46 585.584 431.8 587.084 431.8C589.904 431.8 591.624 434 591.624 437.12C591.624 440.16 589.764 442.26 586.924 442.26C585.444 442.26 584.184 441.6 583.604 440.46L583.444 442ZM583.644 437.02C583.644 438.8 584.744 440.02 586.424 440.02C588.144 440.02 589.164 438.78 589.164 437.02C589.164 435.26 588.144 434 586.424 434C584.744 434 583.644 435.24 583.644 437.02ZM598.186 442.26C595.246 442.26 593.186 440.12 593.186 437.06C593.186 433.96 595.206 431.82 598.106 431.82C601.066 431.82 602.946 433.8 602.946 436.88V437.62L595.506 437.64C595.686 439.38 596.606 440.26 598.226 440.26C599.566 440.26 600.446 439.74 600.726 438.8H602.986C602.566 440.96 600.766 442.26 598.186 442.26ZM598.126 433.82C596.686 433.82 595.806 434.6 595.566 436.08H600.526C600.526 434.72 599.586 433.82 598.126 433.82ZM604.339 439H606.659C606.679 439.86 607.319 440.4 608.439 440.4C609.579 440.4 610.199 439.94 610.199 439.22C610.199 438.72 609.939 438.36 609.059 438.16L607.279 437.74C605.499 437.34 604.639 436.5 604.639 434.92C604.639 432.98 606.279 431.82 608.559 431.82C610.779 431.82 612.279 433.1 612.299 435.02H609.979C609.959 434.18 609.399 433.64 608.459 433.64C607.499 433.64 606.939 434.08 606.939 434.82C606.939 435.38 607.379 435.74 608.219 435.94L609.999 436.36C611.659 436.74 612.499 437.5 612.499 439.02C612.499 441.02 610.799 442.26 608.359 442.26C605.899 442.26 604.339 440.94 604.339 439ZM615.777 430.14C614.937 430.14 614.277 429.48 614.277 428.66C614.277 427.84 614.937 427.2 615.777 427.2C616.577 427.2 617.237 427.84 617.237 428.66C617.237 429.48 616.577 430.14 615.777 430.14ZM614.557 442V432.12H616.997V442H614.557ZM623.078 442H620.638V434.16H618.738V432.12H620.638V429.04H623.078V432.12H624.998V434.16H623.078V442ZM625.855 446.58V444.54H627.315C628.275 444.54 628.875 444.32 629.295 443.16L629.575 442.42L625.595 432.12H628.175L630.715 439.32L633.395 432.12H635.915L631.075 444.2C630.335 446.04 629.295 446.8 627.675 446.8C626.995 446.8 626.395 446.72 625.855 446.58ZM646.031 442.26C643.931 442.26 642.651 441.04 642.651 439.18C642.651 437.36 643.971 436.22 646.311 436.04L649.271 435.82V435.6C649.271 434.26 648.471 433.72 647.231 433.72C645.791 433.72 644.991 434.32 644.991 435.36H642.911C642.911 433.22 644.671 431.82 647.351 431.82C650.011 431.82 651.651 433.26 651.651 436V442H649.511L649.331 440.54C648.911 441.56 647.571 442.26 646.031 442.26ZM646.831 440.42C648.331 440.42 649.291 439.52 649.291 438V437.48L647.231 437.64C645.711 437.78 645.131 438.28 645.131 439.08C645.131 439.98 645.731 440.42 646.831 440.42ZM656.689 442H654.249V432.12H656.509L656.709 433.4C657.329 432.4 658.529 431.82 659.869 431.82C662.349 431.82 663.629 433.36 663.629 435.92V442H661.189V436.5C661.189 434.84 660.369 434.04 659.109 434.04C657.609 434.04 656.689 435.08 656.689 436.68V442ZM670.286 442.26C667.426 442.26 665.646 440.16 665.646 437.1C665.646 434.02 667.446 431.82 670.426 431.82C671.806 431.82 673.026 432.4 673.646 433.38V427.12H676.066V442H673.826L673.666 440.46C673.066 441.6 671.786 442.26 670.286 442.26ZM670.826 440.02C672.526 440.02 673.626 438.8 673.626 437.02C673.626 435.24 672.526 434 670.826 434C669.126 434 668.086 435.26 668.086 437.02C668.086 438.78 669.126 440.02 670.826 440.02ZM567.701 468H565.261V458.12H567.501L567.701 459.28C568.201 458.46 569.201 457.82 570.621 457.82C572.121 457.82 573.161 458.56 573.681 459.7C574.181 458.56 575.341 457.82 576.841 457.82C579.241 457.82 580.561 459.26 580.561 461.54V468H578.141V462.18C578.141 460.76 577.381 460.02 576.221 460.02C575.041 460.02 574.141 460.78 574.141 462.4V468H571.701V462.16C571.701 460.78 570.961 460.04 569.801 460.04C568.641 460.04 567.701 460.8 567.701 462.4V468ZM587.576 468.26C584.636 468.26 582.576 466.12 582.576 463.06C582.576 459.96 584.596 457.82 587.496 457.82C590.456 457.82 592.336 459.8 592.336 462.88V463.62L584.896 463.64C585.076 465.38 585.996 466.26 587.616 466.26C588.956 466.26 589.836 465.74 590.116 464.8H592.376C591.956 466.96 590.156 468.26 587.576 468.26ZM587.516 459.82C586.076 459.82 585.196 460.6 584.956 462.08H589.916C589.916 460.72 588.976 459.82 587.516 459.82ZM597.751 468H595.311V460.16H593.411V458.12H595.311V455.04H597.751V458.12H599.671V460.16H597.751V468ZM604.27 468.26C602.17 468.26 600.89 467.04 600.89 465.18C600.89 463.36 602.21 462.22 604.55 462.04L607.51 461.82V461.6C607.51 460.26 606.71 459.72 605.47 459.72C604.03 459.72 603.23 460.32 603.23 461.36H601.15C601.15 459.22 602.91 457.82 605.59 457.82C608.25 457.82 609.89 459.26 609.89 462V468H607.75L607.57 466.54C607.15 467.56 605.81 468.26 604.27 468.26ZM605.07 466.42C606.57 466.42 607.53 465.52 607.53 464V463.48L605.47 463.64C603.95 463.78 603.37 464.28 603.37 465.08C603.37 465.98 603.97 466.42 605.07 466.42ZM614.747 468H612.487V453.12H614.927V459.56C615.567 458.46 616.887 457.8 618.387 457.8C621.207 457.8 622.927 460 622.927 463.12C622.927 466.16 621.067 468.26 618.227 468.26C616.747 468.26 615.487 467.6 614.907 466.46L614.747 468ZM614.947 463.02C614.947 464.8 616.047 466.02 617.727 466.02C619.447 466.02 620.467 464.78 620.467 463.02C620.467 461.26 619.447 460 617.727 460C616.047 460 614.947 461.24 614.947 463.02ZM624.49 463.04C624.49 459.96 626.71 457.84 629.77 457.84C632.83 457.84 635.05 459.96 635.05 463.04C635.05 466.12 632.83 468.24 629.77 468.24C626.71 468.24 624.49 466.12 624.49 463.04ZM626.93 463.04C626.93 464.84 628.09 466.06 629.77 466.06C631.45 466.06 632.61 464.84 632.61 463.04C632.61 461.24 631.45 460.02 629.77 460.02C628.09 460.02 626.93 461.24 626.93 463.04ZM639.644 468H637.224V453.12H639.644V468ZM643.623 456.14C642.783 456.14 642.123 455.48 642.123 454.66C642.123 453.84 642.783 453.2 643.623 453.2C644.423 453.2 645.083 453.84 645.083 454.66C645.083 455.48 644.423 456.14 643.623 456.14ZM642.403 468V458.12H644.843V468H642.403ZM646.984 463.04C646.984 459.98 649.004 457.82 651.924 457.82C654.624 457.82 656.464 459.32 656.724 461.7H654.284C654.004 460.58 653.184 460 652.024 460C650.464 460 649.424 461.18 649.424 463.04C649.424 464.9 650.384 466.06 651.944 466.06C653.164 466.06 654.024 465.46 654.284 464.38H656.744C656.444 466.68 654.524 468.26 651.944 468.26C648.944 468.26 646.984 466.18 646.984 463.04ZM668.411 468.26C665.551 468.26 663.771 466.16 663.771 463.1C663.771 460.02 665.571 457.82 668.551 457.82C669.931 457.82 671.151 458.4 671.771 459.38V453.12H674.191V468H671.951L671.791 466.46C671.191 467.6 669.911 468.26 668.411 468.26ZM668.951 466.02C670.651 466.02 671.751 464.8 671.751 463.02C671.751 461.24 670.651 460 668.951 460C667.251 460 666.211 461.26 666.211 463.02C666.211 464.78 667.251 466.02 668.951 466.02ZM678.154 456.14C677.314 456.14 676.654 455.48 676.654 454.66C676.654 453.84 677.314 453.2 678.154 453.2C678.954 453.2 679.614 453.84 679.614 454.66C679.614 455.48 678.954 456.14 678.154 456.14ZM676.934 468V458.12H679.374V468H676.934ZM681.335 465H683.655C683.675 465.86 684.315 466.4 685.435 466.4C686.575 466.4 687.195 465.94 687.195 465.22C687.195 464.72 686.935 464.36 686.055 464.16L684.275 463.74C682.495 463.34 681.635 462.5 681.635 460.92C681.635 458.98 683.275 457.82 685.555 457.82C687.775 457.82 689.275 459.1 689.295 461.02H686.975C686.955 460.18 686.395 459.64 685.455 459.64C684.495 459.64 683.935 460.08 683.935 460.82C683.935 461.38 684.375 461.74 685.215 461.94L686.995 462.36C688.655 462.74 689.495 463.5 689.495 465.02C689.495 467.02 687.795 468.26 685.355 468.26C682.895 468.26 681.335 466.94 681.335 465ZM695.972 468.26C693.032 468.26 690.972 466.12 690.972 463.06C690.972 459.96 692.992 457.82 695.892 457.82C698.852 457.82 700.732 459.8 700.732 462.88V463.62L693.292 463.64C693.472 465.38 694.392 466.26 696.012 466.26C697.352 466.26 698.232 465.74 698.512 464.8H700.772C700.352 466.96 698.552 468.26 695.972 468.26ZM695.912 459.82C694.472 459.82 693.592 460.6 693.352 462.08H698.312C698.312 460.72 697.372 459.82 695.912 459.82ZM705.728 468.26C703.628 468.26 702.348 467.04 702.348 465.18C702.348 463.36 703.668 462.22 706.008 462.04L708.968 461.82V461.6C708.968 460.26 708.168 459.72 706.928 459.72C705.488 459.72 704.688 460.32 704.688 461.36H702.608C702.608 459.22 704.368 457.82 707.048 457.82C709.708 457.82 711.348 459.26 711.348 462V468H709.208L709.028 466.54C708.608 467.56 707.268 468.26 705.728 468.26ZM706.528 466.42C708.028 466.42 708.988 465.52 708.988 464V463.48L706.928 463.64C705.408 463.78 704.828 464.28 704.828 465.08C704.828 465.98 705.428 466.42 706.528 466.42ZM713.185 465H715.505C715.525 465.86 716.165 466.4 717.285 466.4C718.425 466.4 719.045 465.94 719.045 465.22C719.045 464.72 718.785 464.36 717.905 464.16L716.125 463.74C714.345 463.34 713.485 462.5 713.485 460.92C713.485 458.98 715.125 457.82 717.405 457.82C719.625 457.82 721.125 459.1 721.145 461.02H718.825C718.805 460.18 718.245 459.64 717.305 459.64C716.345 459.64 715.785 460.08 715.785 460.82C715.785 461.38 716.225 461.74 717.065 461.94L718.845 462.36C720.505 462.74 721.345 463.5 721.345 465.02C721.345 467.02 719.645 468.26 717.205 468.26C714.745 468.26 713.185 466.94 713.185 465ZM727.822 468.26C724.882 468.26 722.822 466.12 722.822 463.06C722.822 459.96 724.842 457.82 727.742 457.82C730.702 457.82 732.582 459.8 732.582 462.88V463.62L725.142 463.64C725.322 465.38 726.242 466.26 727.862 466.26C729.202 466.26 730.082 465.74 730.362 464.8H732.622C732.202 466.96 730.402 468.26 727.822 468.26ZM727.762 459.82C726.322 459.82 725.442 460.6 725.202 462.08H730.162C730.162 460.72 729.222 459.82 727.762 459.82Z" fill="black"/>
<g id="B_PHTHALATES">
<path id="Rectangle 4863" d="M696.25 478H577.75C570.156 478 564 484.156 564 491.75C564 499.344 570.156 505.5 577.75 505.5H696.25C703.844 505.5 710 499.344 710 491.75C710 484.156 703.844 478 696.25 478Z" fill="#9B9B9B"/>
<path id="text_2" d="M595.893 493.96H592.673V499H590.113V484.38H595.893C598.833 484.38 600.733 486.3 600.733 489.16C600.733 491.98 598.813 493.96 595.893 493.96ZM595.393 486.66H592.673V491.68H595.353C597.113 491.68 598.053 490.74 598.053 489.14C598.053 487.54 597.093 486.66 595.393 486.66ZM604.967 499H602.527V484.12H604.987V490.4C605.607 489.44 606.767 488.82 608.187 488.82C610.627 488.82 611.907 490.36 611.907 492.92V499H609.467V493.5C609.467 491.84 608.647 491.04 607.407 491.04C605.867 491.04 604.967 492.12 604.967 493.6V499ZM617.664 499H615.224V491.16H613.324V489.12H615.224V486.04H617.664V489.12H619.584V491.16H617.664V499ZM623.541 499H621.101V484.12H623.561V490.4C624.181 489.44 625.341 488.82 626.761 488.82C629.201 488.82 630.481 490.36 630.481 492.92V499H628.041V493.5C628.041 491.84 627.221 491.04 625.981 491.04C624.441 491.04 623.541 492.12 623.541 493.6V499ZM635.818 499.26C633.718 499.26 632.438 498.04 632.438 496.18C632.438 494.36 633.758 493.22 636.098 493.04L639.058 492.82V492.6C639.058 491.26 638.258 490.72 637.018 490.72C635.578 490.72 634.778 491.32 634.778 492.36H632.698C632.698 490.22 634.458 488.82 637.138 488.82C639.798 488.82 641.438 490.26 641.438 493V499H639.298L639.118 497.54C638.698 498.56 637.358 499.26 635.818 499.26ZM636.618 497.42C638.118 497.42 639.078 496.52 639.078 495V494.48L637.018 494.64C635.498 494.78 634.918 495.28 634.918 496.08C634.918 496.98 635.518 497.42 636.618 497.42ZM646.295 499H643.875V484.12H646.295V499ZM651.795 499.26C649.695 499.26 648.415 498.04 648.415 496.18C648.415 494.36 649.735 493.22 652.075 493.04L655.035 492.82V492.6C655.035 491.26 654.235 490.72 652.995 490.72C651.555 490.72 650.755 491.32 650.755 492.36H648.675C648.675 490.22 650.435 488.82 653.115 488.82C655.775 488.82 657.415 490.26 657.415 493V499H655.275L655.095 497.54C654.675 498.56 653.335 499.26 651.795 499.26ZM652.595 497.42C654.095 497.42 655.055 496.52 655.055 495V494.48L652.995 494.64C651.475 494.78 650.895 495.28 650.895 496.08C650.895 496.98 651.495 497.42 652.595 497.42ZM663.035 499H660.595V491.16H658.695V489.12H660.595V486.04H663.035V489.12H664.955V491.16H663.035V499ZM670.794 499.26C667.854 499.26 665.794 497.12 665.794 494.06C665.794 490.96 667.814 488.82 670.714 488.82C673.674 488.82 675.554 490.8 675.554 493.88V494.62L668.114 494.64C668.294 496.38 669.214 497.26 670.834 497.26C672.174 497.26 673.054 496.74 673.334 495.8H675.594C675.174 497.96 673.374 499.26 670.794 499.26ZM670.734 490.82C669.294 490.82 668.414 491.6 668.174 493.08H673.134C673.134 491.72 672.194 490.82 670.734 490.82ZM676.747 496H679.067C679.087 496.86 679.727 497.4 680.847 497.4C681.987 497.4 682.607 496.94 682.607 496.22C682.607 495.72 682.347 495.36 681.467 495.16L679.687 494.74C677.907 494.34 677.047 493.5 677.047 491.92C677.047 489.98 678.687 488.82 680.967 488.82C683.187 488.82 684.687 490.1 684.707 492.02H682.387C682.367 491.18 681.807 490.64 680.867 490.64C679.907 490.64 679.347 491.08 679.347 491.82C679.347 492.38 679.787 492.74 680.627 492.94L682.407 493.36C684.067 493.74 684.907 494.5 684.907 496.02C684.907 498.02 683.207 499.26 680.767 499.26C678.307 499.26 676.747 497.94 676.747 496Z" fill="white"/>
</g>
<path id="Vector 2249" d="M952 450H740" stroke="black" stroke-width="3" stroke-linecap="round"/>
</g>
<g id="2_TEXT">
<path id="Hormonal Changes" d="M643.56 229.88H641V215.26H643.56V221.3H650.04V215.26H652.6V229.88H650.04V223.68H643.56V229.88ZM655.104 224.92C655.104 221.84 657.324 219.72 660.384 219.72C663.444 219.72 665.664 221.84 665.664 224.92C665.664 228 663.444 230.12 660.384 230.12C657.324 230.12 655.104 228 655.104 224.92ZM657.544 224.92C657.544 226.72 658.704 227.94 660.384 227.94C662.064 227.94 663.224 226.72 663.224 224.92C663.224 223.12 662.064 221.9 660.384 221.9C658.704 221.9 657.544 223.12 657.544 224.92ZM673.998 219.96V222.22H673.098C671.338 222.22 670.238 223.16 670.238 225.08V229.88H667.798V220.02H670.098L670.238 221.46C670.658 220.48 671.598 219.82 672.918 219.82C673.258 219.82 673.598 219.86 673.998 219.96ZM678.29 229.88H675.85V220H678.09L678.29 221.16C678.79 220.34 679.79 219.7 681.21 219.7C682.71 219.7 683.75 220.44 684.27 221.58C684.77 220.44 685.93 219.7 687.43 219.7C689.83 219.7 691.15 221.14 691.15 223.42V229.88H688.73V224.06C688.73 222.64 687.97 221.9 686.81 221.9C685.63 221.9 684.73 222.66 684.73 224.28V229.88H682.29V224.04C682.29 222.66 681.55 221.92 680.39 221.92C679.23 221.92 678.29 222.68 678.29 224.28V229.88ZM693.165 224.92C693.165 221.84 695.385 219.72 698.445 219.72C701.505 219.72 703.725 221.84 703.725 224.92C703.725 228 701.505 230.12 698.445 230.12C695.385 230.12 693.165 228 693.165 224.92ZM695.605 224.92C695.605 226.72 696.765 227.94 698.445 227.94C700.125 227.94 701.285 226.72 701.285 224.92C701.285 223.12 700.125 221.9 698.445 221.9C696.765 221.9 695.605 223.12 695.605 224.92ZM708.299 229.88H705.859V220H708.119L708.319 221.28C708.939 220.28 710.139 219.7 711.479 219.7C713.959 219.7 715.239 221.24 715.239 223.8V229.88H712.799V224.38C712.799 222.72 711.979 221.92 710.719 221.92C709.219 221.92 708.299 222.96 708.299 224.56V229.88ZM720.777 230.14C718.677 230.14 717.397 228.92 717.397 227.06C717.397 225.24 718.717 224.1 721.057 223.92L724.017 223.7V223.48C724.017 222.14 723.217 221.6 721.977 221.6C720.537 221.6 719.737 222.2 719.737 223.24H717.657C717.657 221.1 719.417 219.7 722.097 219.7C724.757 219.7 726.397 221.14 726.397 223.88V229.88H724.257L724.077 228.42C723.657 229.44 722.317 230.14 720.777 230.14ZM721.577 228.3C723.077 228.3 724.037 227.4 724.037 225.88V225.36L721.977 225.52C720.457 225.66 719.877 226.16 719.877 226.96C719.877 227.86 720.477 228.3 721.577 228.3ZM731.454 229.88H729.034V215H731.454V229.88ZM746.344 230.12C742.084 230.12 739.324 227.16 739.324 222.58C739.324 218.04 742.184 215.02 746.464 215.02C749.924 215.02 752.504 217.04 753.004 220.18H750.304C749.804 218.48 748.344 217.48 746.404 217.48C743.704 217.48 742.004 219.44 742.004 222.56C742.004 225.66 743.724 227.66 746.404 227.66C748.384 227.66 749.904 226.62 750.384 225H753.044C752.484 228.08 749.804 230.12 746.344 230.12ZM757.522 229.88H755.082V215H757.542V221.28C758.162 220.32 759.322 219.7 760.742 219.7C763.182 219.7 764.462 221.24 764.462 223.8V229.88H762.022V224.38C762.022 222.72 761.202 221.92 759.962 221.92C758.422 221.92 757.522 223 757.522 224.48V229.88ZM769.999 230.14C767.899 230.14 766.619 228.92 766.619 227.06C766.619 225.24 767.939 224.1 770.279 223.92L773.239 223.7V223.48C773.239 222.14 772.439 221.6 771.199 221.6C769.759 221.6 768.959 222.2 768.959 223.24H766.879C766.879 221.1 768.639 219.7 771.319 219.7C773.979 219.7 775.619 221.14 775.619 223.88V229.88H773.479L773.299 228.42C772.879 229.44 771.539 230.14 769.999 230.14ZM770.799 228.3C772.299 228.3 773.259 227.4 773.259 225.88V225.36L771.199 225.52C769.679 225.66 769.099 226.16 769.099 226.96C769.099 227.86 769.699 228.3 770.799 228.3ZM780.656 229.88H778.216V220H780.476L780.676 221.28C781.296 220.28 782.496 219.7 783.836 219.7C786.316 219.7 787.596 221.24 787.596 223.8V229.88H785.156V224.38C785.156 222.72 784.336 221.92 783.076 221.92C781.576 221.92 780.656 222.96 780.656 224.56V229.88ZM789.634 224.72C789.634 221.84 791.514 219.68 794.334 219.68C795.814 219.68 796.974 220.3 797.554 221.36L797.694 220H799.954V229.38C799.954 232.68 797.974 234.74 794.774 234.74C791.934 234.74 789.994 233.12 789.694 230.48H792.134C792.294 231.76 793.274 232.52 794.774 232.52C796.454 232.52 797.534 231.46 797.534 229.82V228.18C796.914 229.1 795.694 229.68 794.274 229.68C791.474 229.68 789.634 227.58 789.634 224.72ZM792.094 224.66C792.094 226.32 793.154 227.56 794.754 227.56C796.434 227.56 797.474 226.38 797.474 224.66C797.474 222.98 796.454 221.82 794.754 221.82C793.134 221.82 792.094 223.04 792.094 224.66ZM807.099 230.14C804.159 230.14 802.099 228 802.099 224.94C802.099 221.84 804.119 219.7 807.019 219.7C809.979 219.7 811.859 221.68 811.859 224.76V225.5L804.419 225.52C804.599 227.26 805.519 228.14 807.139 228.14C808.479 228.14 809.359 227.62 809.639 226.68H811.899C811.479 228.84 809.679 230.14 807.099 230.14ZM807.039 221.7C805.599 221.7 804.719 222.48 804.479 223.96H809.439C809.439 222.6 808.499 221.7 807.039 221.7ZM813.252 226.88H815.572C815.592 227.74 816.232 228.28 817.352 228.28C818.492 228.28 819.112 227.82 819.112 227.1C819.112 226.6 818.852 226.24 817.972 226.04L816.192 225.62C814.412 225.22 813.552 224.38 813.552 222.8C813.552 220.86 815.192 219.7 817.472 219.7C819.692 219.7 821.192 220.98 821.212 222.9H818.892C818.872 222.06 818.312 221.52 817.372 221.52C816.412 221.52 815.852 221.96 815.852 222.7C815.852 223.26 816.292 223.62 817.132 223.82L818.912 224.24C820.572 224.62 821.412 225.38 821.412 226.9C821.412 228.9 819.712 230.14 817.272 230.14C814.812 230.14 813.252 228.82 813.252 226.88Z" fill="black"/>
<path id="Vector 2249_3" d="M941.379 224.89H831.379" stroke="black" stroke-width="3" stroke-linecap="round"/>
<g id="B_PHTHALATES_3">
<path id="Rectangle 4863_3" d="M774.355 238.793H655.855C648.262 238.793 642.105 244.949 642.105 252.543C642.105 260.137 648.262 266.293 655.855 266.293H774.355C781.949 266.293 788.105 260.137 788.105 252.543C788.105 244.949 781.949 238.793 774.355 238.793Z" fill="#9B9B9B"/>
<path id="text" d="M673.999 254.753H670.779V259.793H668.219V245.173H673.999C676.939 245.173 678.839 247.093 678.839 249.953C678.839 252.773 676.919 254.753 673.999 254.753ZM673.499 247.453H670.779V252.473H673.459C675.219 252.473 676.159 251.533 676.159 249.933C676.159 248.333 675.199 247.453 673.499 247.453ZM683.073 259.793H680.633V244.913H683.093V251.193C683.713 250.233 684.873 249.613 686.293 249.613C688.733 249.613 690.013 251.153 690.013 253.713V259.793H687.573V254.293C687.573 252.633 686.753 251.833 685.513 251.833C683.973 251.833 683.073 252.913 683.073 254.393V259.793ZM695.77 259.793H693.33V251.953H691.43V249.913H693.33V246.833H695.77V249.913H697.69V251.953H695.77V259.793ZM701.647 259.793H699.207V244.913H701.667V251.193C702.287 250.233 703.447 249.613 704.867 249.613C707.307 249.613 708.587 251.153 708.587 253.713V259.793H706.147V254.293C706.147 252.633 705.327 251.833 704.087 251.833C702.547 251.833 701.647 252.913 701.647 254.393V259.793ZM713.924 260.053C711.824 260.053 710.544 258.833 710.544 256.973C710.544 255.153 711.864 254.013 714.204 253.833L717.164 253.613V253.393C717.164 252.053 716.364 251.513 715.124 251.513C713.684 251.513 712.884 252.113 712.884 253.153H710.804C710.804 251.013 712.564 249.613 715.244 249.613C717.904 249.613 719.544 251.053 719.544 253.793V259.793H717.404L717.224 258.333C716.804 259.353 715.464 260.053 713.924 260.053ZM714.724 258.213C716.224 258.213 717.184 257.313 717.184 255.793V255.273L715.124 255.433C713.604 255.573 713.024 256.073 713.024 256.873C713.024 257.773 713.624 258.213 714.724 258.213ZM724.401 259.793H721.981V244.913H724.401V259.793ZM729.901 260.053C727.801 260.053 726.521 258.833 726.521 256.973C726.521 255.153 727.841 254.013 730.181 253.833L733.141 253.613V253.393C733.141 252.053 732.341 251.513 731.101 251.513C729.661 251.513 728.861 252.113 728.861 253.153H726.781C726.781 251.013 728.541 249.613 731.221 249.613C733.881 249.613 735.521 251.053 735.521 253.793V259.793H733.381L733.201 258.333C732.781 259.353 731.441 260.053 729.901 260.053ZM730.701 258.213C732.201 258.213 733.161 257.313 733.161 255.793V255.273L731.101 255.433C729.581 255.573 729.001 256.073 729.001 256.873C729.001 257.773 729.601 258.213 730.701 258.213ZM741.141 259.793H738.701V251.953H736.801V249.913H738.701V246.833H741.141V249.913H743.061V251.953H741.141V259.793ZM748.9 260.053C745.96 260.053 743.9 257.913 743.9 254.853C743.9 251.753 745.92 249.613 748.82 249.613C751.78 249.613 753.66 251.593 753.66 254.673V255.413L746.22 255.433C746.4 257.173 747.32 258.053 748.94 258.053C750.28 258.053 751.16 257.533 751.44 256.593H753.7C753.28 258.753 751.48 260.053 748.9 260.053ZM748.84 251.613C747.4 251.613 746.52 252.393 746.28 253.873H751.24C751.24 252.513 750.3 251.613 748.84 251.613ZM754.853 256.793H757.173C757.193 257.653 757.833 258.193 758.953 258.193C760.093 258.193 760.713 257.733 760.713 257.013C760.713 256.513 760.453 256.153 759.573 255.953L757.793 255.533C756.013 255.133 755.153 254.293 755.153 252.713C755.153 250.773 756.793 249.613 759.073 249.613C761.293 249.613 762.793 250.893 762.813 252.813H760.493C760.473 251.973 759.913 251.433 758.973 251.433C758.013 251.433 757.453 251.873 757.453 252.613C757.453 253.173 757.893 253.533 758.733 253.733L760.513 254.153C762.173 254.533 763.013 255.293 763.013 256.813C763.013 258.813 761.313 260.053 758.873 260.053C756.413 260.053 754.853 258.733 754.853 256.793Z" fill="white"/>
</g>
</g>
<g id="1_TEXT">
<path id="Asthma" d="M1075.88 217H1073.22L1078.5 202.38H1081.12L1086.4 217H1083.7L1082.52 213.62H1077.06L1075.88 217ZM1079.48 206.74L1077.82 211.46H1081.78L1080.1 206.74C1079.98 206.36 1079.84 205.92 1079.8 205.62C1079.74 205.9 1079.62 206.34 1079.48 206.74ZM1087.31 214H1089.63C1089.65 214.86 1090.29 215.4 1091.41 215.4C1092.55 215.4 1093.17 214.94 1093.17 214.22C1093.17 213.72 1092.91 213.36 1092.03 213.16L1090.25 212.74C1088.47 212.34 1087.61 211.5 1087.61 209.92C1087.61 207.98 1089.25 206.82 1091.53 206.82C1093.75 206.82 1095.25 208.1 1095.27 210.02H1092.95C1092.93 209.18 1092.37 208.64 1091.43 208.64C1090.47 208.64 1089.91 209.08 1089.91 209.82C1089.91 210.38 1090.35 210.74 1091.19 210.94L1092.97 211.36C1094.63 211.74 1095.47 212.5 1095.47 214.02C1095.47 216.02 1093.77 217.26 1091.33 217.26C1088.87 217.26 1087.31 215.94 1087.31 214ZM1100.89 217H1098.45V209.16H1096.55V207.12H1098.45V204.04H1100.89V207.12H1102.81V209.16H1100.89V217ZM1106.97 217H1104.53V202.12H1106.99V208.4C1107.61 207.44 1108.77 206.82 1110.19 206.82C1112.63 206.82 1113.91 208.36 1113.91 210.92V217H1111.47V211.5C1111.47 209.84 1110.65 209.04 1109.41 209.04C1107.87 209.04 1106.97 210.12 1106.97 211.6V217ZM1118.95 217H1116.51V207.12H1118.75L1118.95 208.28C1119.45 207.46 1120.45 206.82 1121.87 206.82C1123.37 206.82 1124.41 207.56 1124.93 208.7C1125.43 207.56 1126.59 206.82 1128.09 206.82C1130.49 206.82 1131.81 208.26 1131.81 210.54V217H1129.39V211.18C1129.39 209.76 1128.63 209.02 1127.47 209.02C1126.29 209.02 1125.39 209.78 1125.39 211.4V217H1122.95V211.16C1122.95 209.78 1122.21 209.04 1121.05 209.04C1119.89 209.04 1118.95 209.8 1118.95 211.4V217ZM1137.34 217.26C1135.24 217.26 1133.96 216.04 1133.96 214.18C1133.96 212.36 1135.28 211.22 1137.62 211.04L1140.58 210.82V210.6C1140.58 209.26 1139.78 208.72 1138.54 208.72C1137.1 208.72 1136.3 209.32 1136.3 210.36H1134.22C1134.22 208.22 1135.98 206.82 1138.66 206.82C1141.32 206.82 1142.96 208.26 1142.96 211V217H1140.82L1140.64 215.54C1140.22 216.56 1138.88 217.26 1137.34 217.26ZM1138.14 215.42C1139.64 215.42 1140.6 214.52 1140.6 213V212.48L1138.54 212.64C1137.02 212.78 1136.44 213.28 1136.44 214.08C1136.44 214.98 1137.04 215.42 1138.14 215.42Z" fill="black"/>
<path id="Vector 2249_2_2" d="M968 210H1066" stroke="black" stroke-width="3" stroke-linecap="round"/>
<g id="B_PHTHALATES_4">
<path id="Rectangle 4863_4" d="M1205.25 225H1086.75C1079.16 225 1073 231.156 1073 238.75C1073 246.344 1079.16 252.5 1086.75 252.5H1205.25C1212.84 252.5 1219 246.344 1219 238.75C1219 231.156 1212.84 225 1205.25 225Z" fill="#9B9B9B"/>
<path id="text_2_2" d="M1104.89 240.96H1101.67V246H1099.11V231.38H1104.89C1107.83 231.38 1109.73 233.3 1109.73 236.16C1109.73 238.98 1107.81 240.96 1104.89 240.96ZM1104.39 233.66H1101.67V238.68H1104.35C1106.11 238.68 1107.05 237.74 1107.05 236.14C1107.05 234.54 1106.09 233.66 1104.39 233.66ZM1113.97 246H1111.53V231.12H1113.99V237.4C1114.61 236.44 1115.77 235.82 1117.19 235.82C1119.63 235.82 1120.91 237.36 1120.91 239.92V246H1118.47V240.5C1118.47 238.84 1117.65 238.04 1116.41 238.04C1114.87 238.04 1113.97 239.12 1113.97 240.6V246ZM1126.66 246H1124.22V238.16H1122.32V236.12H1124.22V233.04H1126.66V236.12H1128.58V238.16H1126.66V246ZM1132.54 246H1130.1V231.12H1132.56V237.4C1133.18 236.44 1134.34 235.82 1135.76 235.82C1138.2 235.82 1139.48 237.36 1139.48 239.92V246H1137.04V240.5C1137.04 238.84 1136.22 238.04 1134.98 238.04C1133.44 238.04 1132.54 239.12 1132.54 240.6V246ZM1144.82 246.26C1142.72 246.26 1141.44 245.04 1141.44 243.18C1141.44 241.36 1142.76 240.22 1145.1 240.04L1148.06 239.82V239.6C1148.06 238.26 1147.26 237.72 1146.02 237.72C1144.58 237.72 1143.78 238.32 1143.78 239.36H1141.7C1141.7 237.22 1143.46 235.82 1146.14 235.82C1148.8 235.82 1150.44 237.26 1150.44 240V246H1148.3L1148.12 244.54C1147.7 245.56 1146.36 246.26 1144.82 246.26ZM1145.62 244.42C1147.12 244.42 1148.08 243.52 1148.08 242V241.48L1146.02 241.64C1144.5 241.78 1143.92 242.28 1143.92 243.08C1143.92 243.98 1144.52 244.42 1145.62 244.42ZM1155.3 246H1152.88V231.12H1155.3V246ZM1160.8 246.26C1158.7 246.26 1157.42 245.04 1157.42 243.18C1157.42 241.36 1158.74 240.22 1161.08 240.04L1164.04 239.82V239.6C1164.04 238.26 1163.24 237.72 1162 237.72C1160.56 237.72 1159.76 238.32 1159.76 239.36H1157.68C1157.68 237.22 1159.44 235.82 1162.12 235.82C1164.78 235.82 1166.42 237.26 1166.42 240V246H1164.28L1164.1 244.54C1163.68 245.56 1162.34 246.26 1160.8 246.26ZM1161.6 244.42C1163.1 244.42 1164.06 243.52 1164.06 242V241.48L1162 241.64C1160.48 241.78 1159.9 242.28 1159.9 243.08C1159.9 243.98 1160.5 244.42 1161.6 244.42ZM1172.04 246H1169.6V238.16H1167.7V236.12H1169.6V233.04H1172.04V236.12H1173.96V238.16H1172.04V246ZM1179.8 246.26C1176.86 246.26 1174.8 244.12 1174.8 241.06C1174.8 237.96 1176.82 235.82 1179.72 235.82C1182.68 235.82 1184.56 237.8 1184.56 240.88V241.62L1177.12 241.64C1177.3 243.38 1178.22 244.26 1179.84 244.26C1181.18 244.26 1182.06 243.74 1182.34 242.8H1184.6C1184.18 244.96 1182.38 246.26 1179.8 246.26ZM1179.74 237.82C1178.3 237.82 1177.42 238.6 1177.18 240.08H1182.14C1182.14 238.72 1181.2 237.82 1179.74 237.82ZM1185.75 243H1188.07C1188.09 243.86 1188.73 244.4 1189.85 244.4C1190.99 244.4 1191.61 243.94 1191.61 243.22C1191.61 242.72 1191.35 242.36 1190.47 242.16L1188.69 241.74C1186.91 241.34 1186.05 240.5 1186.05 238.92C1186.05 236.98 1187.69 235.82 1189.97 235.82C1192.19 235.82 1193.69 237.1 1193.71 239.02H1191.39C1191.37 238.18 1190.81 237.64 1189.87 237.64C1188.91 237.64 1188.35 238.08 1188.35 238.82C1188.35 239.38 1188.79 239.74 1189.63 239.94L1191.41 240.36C1193.07 240.74 1193.91 241.5 1193.91 243.02C1193.91 245.02 1192.21 246.26 1189.77 246.26C1187.31 246.26 1185.75 244.94 1185.75 243Z" fill="white"/>
</g>
</g>
<g id="0_TEXT">
<path id="Attention deficit disorder" d="M592.879 130.88H590.219L595.499 116.26H598.119L603.399 130.88H600.699L599.519 127.5H594.059L592.879 130.88ZM596.479 120.62L594.819 125.34H598.779L597.099 120.62C596.979 120.24 596.839 119.8 596.799 119.5C596.739 119.78 596.619 120.22 596.479 120.62ZM608.159 130.88H605.719V123.04H603.819V121H605.719V117.92H608.159V121H610.079V123.04H608.159V130.88ZM615.429 130.88H612.989V123.04H611.089V121H612.989V117.92H615.429V121H617.349V123.04H615.429V130.88ZM623.388 131.14C620.448 131.14 618.388 129 618.388 125.94C618.388 122.84 620.408 120.7 623.308 120.7C626.268 120.7 628.148 122.68 628.148 125.76V126.5L620.708 126.52C620.888 128.26 621.808 129.14 623.428 129.14C624.768 129.14 625.648 128.62 625.928 127.68H628.188C627.768 129.84 625.968 131.14 623.388 131.14ZM623.328 122.7C621.888 122.7 621.008 123.48 620.768 124.96H625.728C625.728 123.6 624.788 122.7 623.328 122.7ZM632.741 130.88H630.301V121H632.561L632.761 122.28C633.381 121.28 634.581 120.7 635.921 120.7C638.401 120.7 639.681 122.24 639.681 124.8V130.88H637.241V125.38C637.241 123.72 636.421 122.92 635.161 122.92C633.661 122.92 632.741 123.96 632.741 125.56V130.88ZM645.639 130.88H643.199V123.04H641.299V121H643.199V117.92H645.639V121H647.559V123.04H645.639V130.88ZM650.495 119.02C649.655 119.02 648.995 118.36 648.995 117.54C648.995 116.72 649.655 116.08 650.495 116.08C651.295 116.08 651.955 116.72 651.955 117.54C651.955 118.36 651.295 119.02 650.495 119.02ZM649.275 130.88V121H651.715V130.88H649.275ZM653.856 125.92C653.856 122.84 656.076 120.72 659.136 120.72C662.196 120.72 664.416 122.84 664.416 125.92C664.416 129 662.196 131.12 659.136 131.12C656.076 131.12 653.856 129 653.856 125.92ZM656.296 125.92C656.296 127.72 657.456 128.94 659.136 128.94C660.816 128.94 661.976 127.72 661.976 125.92C661.976 124.12 660.816 122.9 659.136 122.9C657.456 122.9 656.296 124.12 656.296 125.92ZM668.99 130.88H666.55V121H668.81L669.01 122.28C669.63 121.28 670.83 120.7 672.17 120.7C674.65 120.7 675.93 122.24 675.93 124.8V130.88H673.49V125.38C673.49 123.72 672.67 122.92 671.41 122.92C669.91 122.92 668.99 123.96 668.99 125.56V130.88ZM688.178 131.14C685.318 131.14 683.538 129.04 683.538 125.98C683.538 122.9 685.338 120.7 688.318 120.7C689.698 120.7 690.918 121.28 691.538 122.26V116H693.958V130.88H691.718L691.558 129.34C690.958 130.48 689.678 131.14 688.178 131.14ZM688.718 128.9C690.418 128.9 691.518 127.68 691.518 125.9C691.518 124.12 690.418 122.88 688.718 122.88C687.018 122.88 685.978 124.14 685.978 125.9C685.978 127.66 687.018 128.9 688.718 128.9ZM701.121 131.14C698.181 131.14 696.121 129 696.121 125.94C696.121 122.84 698.141 120.7 701.041 120.7C704.001 120.7 705.881 122.68 705.881 125.76V126.5L698.441 126.52C698.621 128.26 699.541 129.14 701.161 129.14C702.501 129.14 703.381 128.62 703.661 127.68H705.921C705.501 129.84 703.701 131.14 701.121 131.14ZM701.061 122.7C699.621 122.7 698.741 123.48 698.501 124.96H703.461C703.461 123.6 702.521 122.7 701.061 122.7ZM714.934 130.88V123.04H710.894V130.88H708.474V123.04H707.054V121H708.474V119.8C708.474 117.12 709.874 116 711.874 116C712.254 116 712.714 116.02 713.134 116.1V118.18H712.274C711.174 118.18 710.894 118.82 710.894 119.8V121H717.374V130.88H714.934ZM716.154 118.98C715.334 118.98 714.694 118.34 714.694 117.52C714.694 116.72 715.334 116.08 716.154 116.08C716.954 116.08 717.594 116.72 717.594 117.52C717.594 118.34 716.954 118.98 716.154 118.98ZM719.509 125.92C719.509 122.86 721.529 120.7 724.449 120.7C727.149 120.7 728.989 122.2 729.249 124.58H726.809C726.529 123.46 725.709 122.88 724.549 122.88C722.989 122.88 721.949 124.06 721.949 125.92C721.949 127.78 722.909 128.94 724.469 128.94C725.689 128.94 726.549 128.34 726.809 127.26H729.269C728.969 129.56 727.049 131.14 724.469 131.14C721.469 131.14 719.509 129.06 719.509 125.92ZM732.506 119.02C731.666 119.02 731.006 118.36 731.006 117.54C731.006 116.72 731.666 116.08 732.506 116.08C733.306 116.08 733.966 116.72 733.966 117.54C733.966 118.36 733.306 119.02 732.506 119.02ZM731.286 130.88V121H733.726V130.88H731.286ZM739.807 130.88H737.367V123.04H735.467V121H737.367V117.92H739.807V121H741.727V123.04H739.807V130.88ZM753.094 131.14C750.234 131.14 748.454 129.04 748.454 125.98C748.454 122.9 750.254 120.7 753.234 120.7C754.614 120.7 755.834 121.28 756.454 122.26V116H758.874V130.88H756.634L756.474 129.34C755.874 130.48 754.594 131.14 753.094 131.14ZM753.634 128.9C755.334 128.9 756.434 127.68 756.434 125.9C756.434 124.12 755.334 122.88 753.634 122.88C751.934 122.88 750.894 124.14 750.894 125.9C750.894 127.66 751.934 128.9 753.634 128.9ZM762.837 119.02C761.997 119.02 761.337 118.36 761.337 117.54C761.337 116.72 761.997 116.08 762.837 116.08C763.637 116.08 764.297 116.72 764.297 117.54C764.297 118.36 763.637 119.02 762.837 119.02ZM761.617 130.88V121H764.057V130.88H761.617ZM766.018 127.88H768.338C768.358 128.74 768.998 129.28 770.118 129.28C771.258 129.28 771.878 128.82 771.878 128.1C771.878 127.6 771.618 127.24 770.738 127.04L768.958 126.62C767.178 126.22 766.318 125.38 766.318 123.8C766.318 121.86 767.958 120.7 770.238 120.7C772.458 120.7 773.958 121.98 773.978 123.9H771.658C771.638 123.06 771.078 122.52 770.138 122.52C769.178 122.52 768.618 122.96 768.618 123.7C768.618 124.26 769.058 124.62 769.898 124.82L771.678 125.24C773.338 125.62 774.178 126.38 774.178 127.9C774.178 129.9 772.478 131.14 770.038 131.14C767.578 131.14 766.018 129.82 766.018 127.88ZM775.656 125.92C775.656 122.84 777.876 120.72 780.936 120.72C783.996 120.72 786.216 122.84 786.216 125.92C786.216 129 783.996 131.12 780.936 131.12C777.876 131.12 775.656 129 775.656 125.92ZM778.096 125.92C778.096 127.72 779.256 128.94 780.936 128.94C782.616 128.94 783.776 127.72 783.776 125.92C783.776 124.12 782.616 122.9 780.936 122.9C779.256 122.9 778.096 124.12 778.096 125.92ZM794.55 120.96V123.22H793.65C791.89 123.22 790.79 124.16 790.79 126.08V130.88H788.35V121.02H790.65L790.79 122.46C791.21 121.48 792.15 120.82 793.47 120.82C793.81 120.82 794.15 120.86 794.55 120.96ZM800.129 131.14C797.269 131.14 795.489 129.04 795.489 125.98C795.489 122.9 797.289 120.7 800.269 120.7C801.649 120.7 802.869 121.28 803.489 122.26V116H805.909V130.88H803.669L803.509 129.34C802.909 130.48 801.629 131.14 800.129 131.14ZM800.669 128.9C802.369 128.9 803.469 127.68 803.469 125.9C803.469 124.12 802.369 122.88 800.669 122.88C798.969 122.88 797.929 124.14 797.929 125.9C797.929 127.66 798.969 128.9 800.669 128.9ZM813.072 131.14C810.132 131.14 808.072 129 808.072 125.94C808.072 122.84 810.092 120.7 812.992 120.7C815.952 120.7 817.832 122.68 817.832 125.76V126.5L810.392 126.52C810.572 128.26 811.492 129.14 813.112 129.14C814.452 129.14 815.332 128.62 815.612 127.68H817.872C817.452 129.84 815.652 131.14 813.072 131.14ZM813.012 122.7C811.572 122.7 810.692 123.48 810.452 124.96H815.412C815.412 123.6 814.472 122.7 813.012 122.7ZM826.185 120.96V123.22H825.285C823.525 123.22 822.425 124.16 822.425 126.08V130.88H819.985V121.02H822.285L822.425 122.46C822.845 121.48 823.785 120.82 825.105 120.82C825.445 120.82 825.785 120.86 826.185 120.96Z" fill="black"/>
<path id="Vector 2249_2_3" d="M947 125.89H837" stroke="black" stroke-width="3" stroke-linecap="round"/>
<g id="B_PHTHALATES_5">
<path id="Rectangle 4863_5" d="M722.25 139.88H603.75C596.156 139.88 590 146.036 590 153.63C590 161.224 596.156 167.38 603.75 167.38H722.25C729.844 167.38 736 161.224 736 153.63C736 146.036 729.844 139.88 722.25 139.88Z" fill="#9B9B9B"/>
<path id="text_2_3" d="M621.893 155.84H618.673V160.88H616.113V146.26H621.893C624.833 146.26 626.733 148.18 626.733 151.04C626.733 153.86 624.813 155.84 621.893 155.84ZM621.393 148.54H618.673V153.56H621.353C623.113 153.56 624.053 152.62 624.053 151.02C624.053 149.42 623.093 148.54 621.393 148.54ZM630.967 160.88H628.527V146H630.987V152.28C631.607 151.32 632.767 150.7 634.187 150.7C636.627 150.7 637.907 152.24 637.907 154.8V160.88H635.467V155.38C635.467 153.72 634.647 152.92 633.407 152.92C631.867 152.92 630.967 154 630.967 155.48V160.88ZM643.664 160.88H641.224V153.04H639.324V151H641.224V147.92H643.664V151H645.584V153.04H643.664V160.88ZM649.541 160.88H647.101V146H649.561V152.28C650.181 151.32 651.341 150.7 652.761 150.7C655.201 150.7 656.481 152.24 656.481 154.8V160.88H654.041V155.38C654.041 153.72 653.221 152.92 651.981 152.92C650.441 152.92 649.541 154 649.541 155.48V160.88ZM661.818 161.14C659.718 161.14 658.438 159.92 658.438 158.06C658.438 156.24 659.758 155.1 662.098 154.92L665.058 154.7V154.48C665.058 153.14 664.258 152.6 663.018 152.6C661.578 152.6 660.778 153.2 660.778 154.24H658.698C658.698 152.1 660.458 150.7 663.138 150.7C665.798 150.7 667.438 152.14 667.438 154.88V160.88H665.298L665.118 159.42C664.698 160.44 663.358 161.14 661.818 161.14ZM662.618 159.3C664.118 159.3 665.078 158.4 665.078 156.88V156.36L663.018 156.52C661.498 156.66 660.918 157.16 660.918 157.96C660.918 158.86 661.518 159.3 662.618 159.3ZM672.295 160.88H669.875V146H672.295V160.88ZM677.795 161.14C675.695 161.14 674.415 159.92 674.415 158.06C674.415 156.24 675.735 155.1 678.075 154.92L681.035 154.7V154.48C681.035 153.14 680.235 152.6 678.995 152.6C677.555 152.6 676.755 153.2 676.755 154.24H674.675C674.675 152.1 676.435 150.7 679.115 150.7C681.775 150.7 683.415 152.14 683.415 154.88V160.88H681.275L681.095 159.42C680.675 160.44 679.335 161.14 677.795 161.14ZM678.595 159.3C680.095 159.3 681.055 158.4 681.055 156.88V156.36L678.995 156.52C677.475 156.66 676.895 157.16 676.895 157.96C676.895 158.86 677.495 159.3 678.595 159.3ZM689.035 160.88H686.595V153.04H684.695V151H686.595V147.92H689.035V151H690.955V153.04H689.035V160.88ZM696.794 161.14C693.854 161.14 691.794 159 691.794 155.94C691.794 152.84 693.814 150.7 696.714 150.7C699.674 150.7 701.554 152.68 701.554 155.76V156.5L694.114 156.52C694.294 158.26 695.214 159.14 696.834 159.14C698.174 159.14 699.054 158.62 699.334 157.68H701.594C701.174 159.84 699.374 161.14 696.794 161.14ZM696.734 152.7C695.294 152.7 694.414 153.48 694.174 154.96H699.134C699.134 153.6 698.194 152.7 696.734 152.7ZM702.747 157.88H705.067C705.087 158.74 705.727 159.28 706.847 159.28C707.987 159.28 708.607 158.82 708.607 158.1C708.607 157.6 708.347 157.24 707.467 157.04L705.687 156.62C703.907 156.22 703.047 155.38 703.047 153.8C703.047 151.86 704.687 150.7 706.967 150.7C709.187 150.7 710.687 151.98 710.707 153.9H708.387C708.367 153.06 707.807 152.52 706.867 152.52C705.907 152.52 705.347 152.96 705.347 153.7C705.347 154.26 705.787 154.62 706.627 154.82L708.407 155.24C710.067 155.62 710.907 156.38 710.907 157.9C710.907 159.9 709.207 161.14 706.767 161.14C704.307 161.14 702.747 159.82 702.747 157.88Z" fill="white"/>
</g>
</g>
<g id="4_TEXT">
<path id="Hyperactivity disorder" d="M1115.18 345H1112.62V330.38H1115.18V336.42H1121.66V330.38H1124.22V345H1121.66V338.8H1115.18V345ZM1126.44 349.58V347.54H1127.9C1128.86 347.54 1129.46 347.32 1129.88 346.16L1130.16 345.42L1126.18 335.12H1128.76L1131.3 342.32L1133.98 335.12H1136.5L1131.66 347.2C1130.92 349.04 1129.88 349.8 1128.26 349.8C1127.58 349.8 1126.98 349.72 1126.44 349.58ZM1138.09 349.58V335.12H1140.35L1140.51 336.62C1141.11 335.48 1142.41 334.82 1143.91 334.82C1146.69 334.82 1148.53 336.84 1148.53 339.94C1148.53 343.02 1146.85 345.26 1143.91 345.26C1142.43 345.26 1141.15 344.68 1140.53 343.68V349.58H1138.09ZM1140.55 340.06C1140.55 341.84 1141.65 343.06 1143.33 343.06C1145.05 343.06 1146.07 341.82 1146.07 340.06C1146.07 338.3 1145.05 337.04 1143.33 337.04C1141.65 337.04 1140.55 338.28 1140.55 340.06ZM1155.09 345.26C1152.15 345.26 1150.09 343.12 1150.09 340.06C1150.09 336.96 1152.11 334.82 1155.01 334.82C1157.97 334.82 1159.85 336.8 1159.85 339.88V340.62L1152.41 340.64C1152.59 342.38 1153.51 343.26 1155.13 343.26C1156.47 343.26 1157.35 342.74 1157.63 341.8H1159.89C1159.47 343.96 1157.67 345.26 1155.09 345.26ZM1155.03 336.82C1153.59 336.82 1152.71 337.6 1152.47 339.08H1157.43C1157.43 337.72 1156.49 336.82 1155.03 336.82ZM1168.21 335.08V337.34H1167.31C1165.55 337.34 1164.45 338.28 1164.45 340.2V345H1162.01V335.14H1164.31L1164.45 336.58C1164.87 335.6 1165.81 334.94 1167.13 334.94C1167.47 334.94 1167.81 334.98 1168.21 335.08ZM1172.61 345.26C1170.51 345.26 1169.23 344.04 1169.23 342.18C1169.23 340.36 1170.55 339.22 1172.89 339.04L1175.85 338.82V338.6C1175.85 337.26 1175.05 336.72 1173.81 336.72C1172.37 336.72 1171.57 337.32 1171.57 338.36H1169.49C1169.49 336.22 1171.25 334.82 1173.93 334.82C1176.59 334.82 1178.23 336.26 1178.23 339V345H1176.09L1175.91 343.54C1175.49 344.56 1174.15 345.26 1172.61 345.26ZM1173.41 343.42C1174.91 343.42 1175.87 342.52 1175.87 341V340.48L1173.81 340.64C1172.29 340.78 1171.71 341.28 1171.71 342.08C1171.71 342.98 1172.31 343.42 1173.41 343.42ZM1180.24 340.04C1180.24 336.98 1182.26 334.82 1185.18 334.82C1187.88 334.82 1189.72 336.32 1189.98 338.7H1187.54C1187.26 337.58 1186.44 337 1185.28 337C1183.72 337 1182.68 338.18 1182.68 340.04C1182.68 341.9 1183.64 343.06 1185.2 343.06C1186.42 343.06 1187.28 342.46 1187.54 341.38H1190C1189.7 343.68 1187.78 345.26 1185.2 345.26C1182.2 345.26 1180.24 343.18 1180.24 340.04ZM1195.38 345H1192.94V337.16H1191.04V335.12H1192.94V332.04H1195.38V335.12H1197.3V337.16H1195.38V345ZM1200.24 333.14C1199.4 333.14 1198.74 332.48 1198.74 331.66C1198.74 330.84 1199.4 330.2 1200.24 330.2C1201.04 330.2 1201.7 330.84 1201.7 331.66C1201.7 332.48 1201.04 333.14 1200.24 333.14ZM1199.02 345V335.12H1201.46V345H1199.02ZM1206.98 345L1203.06 335.12H1205.66L1207.38 339.66C1207.8 340.84 1208.14 341.86 1208.26 342.4C1208.4 341.78 1208.76 340.74 1209.18 339.66L1210.98 335.12H1213.5L1209.38 345H1206.98ZM1216.32 333.14C1215.48 333.14 1214.82 332.48 1214.82 331.66C1214.82 330.84 1215.48 330.2 1216.32 330.2C1217.12 330.2 1217.78 330.84 1217.78 331.66C1217.78 332.48 1217.12 333.14 1216.32 333.14ZM1215.1 345V335.12H1217.54V345H1215.1ZM1223.62 345H1221.18V337.16H1219.28V335.12H1221.18V332.04H1223.62V335.12H1225.54V337.16H1223.62V345ZM1226.4 349.58V347.54H1227.86C1228.82 347.54 1229.42 347.32 1229.84 346.16L1230.12 345.42L1226.14 335.12H1228.72L1231.26 342.32L1233.94 335.12H1236.46L1231.62 347.2C1230.88 349.04 1229.84 349.8 1228.22 349.8C1227.54 349.8 1226.94 349.72 1226.4 349.58ZM1247.69 345.26C1244.83 345.26 1243.05 343.16 1243.05 340.1C1243.05 337.02 1244.85 334.82 1247.83 334.82C1249.21 334.82 1250.43 335.4 1251.05 336.38V330.12H1253.47V345H1251.23L1251.07 343.46C1250.47 344.6 1249.19 345.26 1247.69 345.26ZM1248.23 343.02C1249.93 343.02 1251.03 341.8 1251.03 340.02C1251.03 338.24 1249.93 337 1248.23 337C1246.53 337 1245.49 338.26 1245.49 340.02C1245.49 341.78 1246.53 343.02 1248.23 343.02ZM1257.44 333.14C1256.6 333.14 1255.94 332.48 1255.94 331.66C1255.94 330.84 1256.6 330.2 1257.44 330.2C1258.24 330.2 1258.9 330.84 1258.9 331.66C1258.9 332.48 1258.24 333.14 1257.44 333.14ZM1256.22 345V335.12H1258.66V345H1256.22ZM1260.62 342H1262.94C1262.96 342.86 1263.6 343.4 1264.72 343.4C1265.86 343.4 1266.48 342.94 1266.48 342.22C1266.48 341.72 1266.22 341.36 1265.34 341.16L1263.56 340.74C1261.78 340.34 1260.92 339.5 1260.92 337.92C1260.92 335.98 1262.56 334.82 1264.84 334.82C1267.06 334.82 1268.56 336.1 1268.58 338.02H1266.26C1266.24 337.18 1265.68 336.64 1264.74 336.64C1263.78 336.64 1263.22 337.08 1263.22 337.82C1263.22 338.38 1263.66 338.74 1264.5 338.94L1266.28 339.36C1267.94 339.74 1268.78 340.5 1268.78 342.02C1268.78 344.02 1267.08 345.26 1264.64 345.26C1262.18 345.26 1260.62 343.94 1260.62 342ZM1270.26 340.04C1270.26 336.96 1272.48 334.84 1275.54 334.84C1278.6 334.84 1280.82 336.96 1280.82 340.04C1280.82 343.12 1278.6 345.24 1275.54 345.24C1272.48 345.24 1270.26 343.12 1270.26 340.04ZM1272.7 340.04C1272.7 341.84 1273.86 343.06 1275.54 343.06C1277.22 343.06 1278.38 341.84 1278.38 340.04C1278.38 338.24 1277.22 337.02 1275.54 337.02C1273.86 337.02 1272.7 338.24 1272.7 340.04ZM1289.15 335.08V337.34H1288.25C1286.49 337.34 1285.39 338.28 1285.39 340.2V345H1282.95V335.14H1285.25L1285.39 336.58C1285.81 335.6 1286.75 334.94 1288.07 334.94C1288.41 334.94 1288.75 334.98 1289.15 335.08ZM1294.73 345.26C1291.87 345.26 1290.09 343.16 1290.09 340.1C1290.09 337.02 1291.89 334.82 1294.87 334.82C1296.25 334.82 1297.47 335.4 1298.09 336.38V330.12H1300.51V345H1298.27L1298.11 343.46C1297.51 344.6 1296.23 345.26 1294.73 345.26ZM1295.27 343.02C1296.97 343.02 1298.07 341.8 1298.07 340.02C1298.07 338.24 1296.97 337 1295.27 337C1293.57 337 1292.53 338.26 1292.53 340.02C1292.53 341.78 1293.57 343.02 1295.27 343.02ZM1307.67 345.26C1304.73 345.26 1302.67 343.12 1302.67 340.06C1302.67 336.96 1304.69 334.82 1307.59 334.82C1310.55 334.82 1312.43 336.8 1312.43 339.88V340.62L1304.99 340.64C1305.17 342.38 1306.09 343.26 1307.71 343.26C1309.05 343.26 1309.93 342.74 1310.21 341.8H1312.47C1312.05 343.96 1310.25 345.26 1307.67 345.26ZM1307.61 336.82C1306.17 336.82 1305.29 337.6 1305.05 339.08H1310.01C1310.01 337.72 1309.07 336.82 1307.61 336.82ZM1320.78 335.08V337.34H1319.88C1318.12 337.34 1317.02 338.28 1317.02 340.2V345H1314.58V335.14H1316.88L1317.02 336.58C1317.44 335.6 1318.38 334.94 1319.7 334.94C1320.04 334.94 1320.38 334.98 1320.78 335.08Z" fill="black"/>
<path id="Vector 2249_4" d="M1006 338H1104" stroke="black" stroke-width="3" stroke-linecap="round"/>
<g id="B_PHTHALATES_2">
<path id="Rectangle 4863_3_2" d="M1245.25 354H1126.75C1119.16 354 1113 360.156 1113 367.75C1113 375.344 1119.16 381.5 1126.75 381.5H1245.25C1252.84 381.5 1259 375.344 1259 367.75C1259 360.156 1252.84 354 1245.25 354Z" fill="#9B9B9B"/>
<path id="text_4" d="M1144.89 369.96H1141.67V375H1139.11V360.38H1144.89C1147.83 360.38 1149.73 362.3 1149.73 365.16C1149.73 367.98 1147.81 369.96 1144.89 369.96ZM1144.39 362.66H1141.67V367.68H1144.35C1146.11 367.68 1147.05 366.74 1147.05 365.14C1147.05 363.54 1146.09 362.66 1144.39 362.66ZM1153.97 375H1151.53V360.12H1153.99V366.4C1154.61 365.44 1155.77 364.82 1157.19 364.82C1159.63 364.82 1160.91 366.36 1160.91 368.92V375H1158.47V369.5C1158.47 367.84 1157.65 367.04 1156.41 367.04C1154.87 367.04 1153.97 368.12 1153.97 369.6V375ZM1166.66 375H1164.22V367.16H1162.32V365.12H1164.22V362.04H1166.66V365.12H1168.58V367.16H1166.66V375ZM1172.54 375H1170.1V360.12H1172.56V366.4C1173.18 365.44 1174.34 364.82 1175.76 364.82C1178.2 364.82 1179.48 366.36 1179.48 368.92V375H1177.04V369.5C1177.04 367.84 1176.22 367.04 1174.98 367.04C1173.44 367.04 1172.54 368.12 1172.54 369.6V375ZM1184.82 375.26C1182.72 375.26 1181.44 374.04 1181.44 372.18C1181.44 370.36 1182.76 369.22 1185.1 369.04L1188.06 368.82V368.6C1188.06 367.26 1187.26 366.72 1186.02 366.72C1184.58 366.72 1183.78 367.32 1183.78 368.36H1181.7C1181.7 366.22 1183.46 364.82 1186.14 364.82C1188.8 364.82 1190.44 366.26 1190.44 369V375H1188.3L1188.12 373.54C1187.7 374.56 1186.36 375.26 1184.82 375.26ZM1185.62 373.42C1187.12 373.42 1188.08 372.52 1188.08 371V370.48L1186.02 370.64C1184.5 370.78 1183.92 371.28 1183.92 372.08C1183.92 372.98 1184.52 373.42 1185.62 373.42ZM1195.3 375H1192.88V360.12H1195.3V375ZM1200.8 375.26C1198.7 375.26 1197.42 374.04 1197.42 372.18C1197.42 370.36 1198.74 369.22 1201.08 369.04L1204.04 368.82V368.6C1204.04 367.26 1203.24 366.72 1202 366.72C1200.56 366.72 1199.76 367.32 1199.76 368.36H1197.68C1197.68 366.22 1199.44 364.82 1202.12 364.82C1204.78 364.82 1206.42 366.26 1206.42 369V375H1204.28L1204.1 373.54C1203.68 374.56 1202.34 375.26 1200.8 375.26ZM1201.6 373.42C1203.1 373.42 1204.06 372.52 1204.06 371V370.48L1202 370.64C1200.48 370.78 1199.9 371.28 1199.9 372.08C1199.9 372.98 1200.5 373.42 1201.6 373.42ZM1212.04 375H1209.6V367.16H1207.7V365.12H1209.6V362.04H1212.04V365.12H1213.96V367.16H1212.04V375ZM1219.8 375.26C1216.86 375.26 1214.8 373.12 1214.8 370.06C1214.8 366.96 1216.82 364.82 1219.72 364.82C1222.68 364.82 1224.56 366.8 1224.56 369.88V370.62L1217.12 370.64C1217.3 372.38 1218.22 373.26 1219.84 373.26C1221.18 373.26 1222.06 372.74 1222.34 371.8H1224.6C1224.18 373.96 1222.38 375.26 1219.8 375.26ZM1219.74 366.82C1218.3 366.82 1217.42 367.6 1217.18 369.08H1222.14C1222.14 367.72 1221.2 366.82 1219.74 366.82ZM1225.75 372H1228.07C1228.09 372.86 1228.73 373.4 1229.85 373.4C1230.99 373.4 1231.61 372.94 1231.61 372.22C1231.61 371.72 1231.35 371.36 1230.47 371.16L1228.69 370.74C1226.91 370.34 1226.05 369.5 1226.05 367.92C1226.05 365.98 1227.69 364.82 1229.97 364.82C1232.19 364.82 1233.69 366.1 1233.71 368.02H1231.39C1231.37 367.18 1230.81 366.64 1229.87 366.64C1228.91 366.64 1228.35 367.08 1228.35 367.82C1228.35 368.38 1228.79 368.74 1229.63 368.94L1231.41 369.36C1233.07 369.74 1233.91 370.5 1233.91 372.02C1233.91 374.02 1232.21 375.26 1229.77 375.26C1227.31 375.26 1225.75 373.94 1225.75 372Z" fill="white"/>
</g>
</g>
<g id="centroids">
<path id="3_DOT" d="M939.148 289.349C940.934 289.349 942.382 287.901 942.382 286.115C942.382 284.329 940.934 282.881 939.148 282.881C937.362 282.881 935.914 284.329 935.914 286.115C935.914 287.901 937.362 289.349 939.148 289.349Z" fill="#FF0000"/>
<path id="5_DOT" d="M959.633 453.216C961.419 453.216 962.867 451.768 962.867 449.982C962.867 448.196 961.419 446.748 959.633 446.748C957.846 446.748 956.398 448.196 956.398 449.982C956.398 451.768 957.846 453.216 959.633 453.216Z" fill="#FF0000"/>
<path id="2_DOT" d="M950.582 228.02C952.368 228.02 953.816 226.572 953.816 224.786C953.816 223 952.368 221.552 950.582 221.552C948.796 221.552 947.348 223 947.348 224.786C947.348 226.572 948.796 228.02 950.582 228.02Z" fill="#FF0000"/>
<path id="1_DOT" d="M958.555 213.885C960.341 213.885 961.789 212.437 961.789 210.651C961.789 208.865 960.341 207.417 958.555 207.417C956.768 207.417 955.32 208.865 955.32 210.651C955.32 212.437 956.768 213.885 958.555 213.885Z" fill="#FF0000"/>
<path id="4_DOT" d="M997.359 341.096C999.145 341.096 1000.59 339.648 1000.59 337.862C1000.59 336.076 999.145 334.628 997.359 334.628C995.573 334.628 994.125 336.076 994.125 337.862C994.125 339.648 995.573 341.096 997.359 341.096Z" fill="#FF0000"/>
<path id="0_DOT" d="M955.851 129.245C957.638 129.245 959.086 127.797 959.086 126.011C959.086 124.224 957.638 122.776 955.851 122.776C954.065 122.776 952.617 124.224 952.617 126.011C952.617 127.797 954.065 129.245 955.851 129.245Z" fill="#FF0000"/>
</g>
</g>
</svg>
