<svg width="1920" height="1080" viewBox="0 0 1920 1080" fill="none" xmlns="http://www.w3.org/2000/svg">
<g id="BISPHENOL">
<g id="4_TEXT">
<path id="Low body weight" d="M581.181 457.38V469.64H587.301V472H578.621V457.38H581.181ZM588.447 467.04C588.447 463.96 590.667 461.84 593.727 461.84C596.787 461.84 599.007 463.96 599.007 467.04C599.007 470.12 596.787 472.24 593.727 472.24C590.667 472.24 588.447 470.12 588.447 467.04ZM590.887 467.04C590.887 468.84 592.047 470.06 593.727 470.06C595.407 470.06 596.567 468.84 596.567 467.04C596.567 465.24 595.407 464.02 593.727 464.02C592.047 464.02 590.887 465.24 590.887 467.04ZM602.833 472L599.633 462.12H602.173L603.473 466.36C603.693 467.14 603.893 468 604.073 468.92C604.253 467.96 604.433 467.34 604.753 466.36L606.113 462.12H608.593L609.913 466.36C610.033 466.76 610.433 468.24 610.553 468.9C610.713 468.16 611.033 466.98 611.213 466.36L612.533 462.12H615.113L611.693 472H609.413L608.053 467.72C607.653 466.42 607.433 465.48 607.353 464.98C607.253 465.44 607.073 466.14 606.573 467.76L605.213 472H602.833ZM624.641 472H622.381V457.12H624.821V463.56C625.461 462.46 626.781 461.8 628.281 461.8C631.101 461.8 632.821 464 632.821 467.12C632.821 470.16 630.961 472.26 628.121 472.26C626.641 472.26 625.381 471.6 624.801 470.46L624.641 472ZM624.841 467.02C624.841 468.8 625.941 470.02 627.621 470.02C629.341 470.02 630.361 468.78 630.361 467.02C630.361 465.26 629.341 464 627.621 464C625.941 464 624.841 465.24 624.841 467.02ZM634.384 467.04C634.384 463.96 636.604 461.84 639.664 461.84C642.724 461.84 644.944 463.96 644.944 467.04C644.944 470.12 642.724 472.24 639.664 472.24C636.604 472.24 634.384 470.12 634.384 467.04ZM636.824 467.04C636.824 468.84 637.984 470.06 639.664 470.06C641.344 470.06 642.504 468.84 642.504 467.04C642.504 465.24 641.344 464.02 639.664 464.02C637.984 464.02 636.824 465.24 636.824 467.04ZM651.138 472.26C648.278 472.26 646.498 470.16 646.498 467.1C646.498 464.02 648.298 461.82 651.278 461.82C652.658 461.82 653.878 462.4 654.498 463.38V457.12H656.918V472H654.678L654.518 470.46C653.918 471.6 652.638 472.26 651.138 472.26ZM651.678 470.02C653.378 470.02 654.478 468.8 654.478 467.02C654.478 465.24 653.378 464 651.678 464C649.978 464 648.938 465.26 648.938 467.02C648.938 468.78 649.978 470.02 651.678 470.02ZM658.801 476.58V474.54H660.261C661.221 474.54 661.821 474.32 662.241 473.16L662.521 472.42L658.541 462.12H661.121L663.661 469.32L666.341 462.12H668.861L664.021 474.2C663.281 476.04 662.241 476.8 660.621 476.8C659.941 476.8 659.341 476.72 658.801 476.58ZM678.218 472L675.018 462.12H677.558L678.858 466.36C679.078 467.14 679.278 468 679.458 468.92C679.638 467.96 679.818 467.34 680.138 466.36L681.498 462.12H683.978L685.298 466.36C685.418 466.76 685.818 468.24 685.938 468.9C686.098 468.16 686.418 466.98 686.598 466.36L687.918 462.12H690.498L687.078 472H684.798L683.438 467.72C683.038 466.42 682.818 465.48 682.738 464.98C682.638 465.44 682.458 466.14 681.958 467.76L680.598 472H678.218ZM696.107 472.26C693.167 472.26 691.107 470.12 691.107 467.06C691.107 463.96 693.127 461.82 696.027 461.82C698.987 461.82 700.867 463.8 700.867 466.88V467.62L693.427 467.64C693.607 469.38 694.527 470.26 696.147 470.26C697.487 470.26 698.367 469.74 698.647 468.8H700.907C700.487 470.96 698.687 472.26 696.107 472.26ZM696.047 463.82C694.607 463.82 693.727 464.6 693.487 466.08H698.447C698.447 464.72 697.507 463.82 696.047 463.82ZM704.24 460.14C703.4 460.14 702.74 459.48 702.74 458.66C702.74 457.84 703.4 457.2 704.24 457.2C705.04 457.2 705.7 457.84 705.7 458.66C705.7 459.48 705.04 460.14 704.24 460.14ZM703.02 472V462.12H705.46V472H703.02ZM707.621 466.84C707.621 463.96 709.501 461.8 712.321 461.8C713.801 461.8 714.961 462.42 715.541 463.48L715.681 462.12H717.941V471.5C717.941 474.8 715.961 476.86 712.761 476.86C709.921 476.86 707.981 475.24 707.681 472.6H710.121C710.281 473.88 711.261 474.64 712.761 474.64C714.441 474.64 715.521 473.58 715.521 471.94V470.3C714.901 471.22 713.681 471.8 712.261 471.8C709.461 471.8 707.621 469.7 707.621 466.84ZM710.081 466.78C710.081 468.44 711.141 469.68 712.741 469.68C714.421 469.68 715.461 468.5 715.461 466.78C715.461 465.1 714.441 463.94 712.741 463.94C711.121 463.94 710.081 465.16 710.081 466.78ZM723.106 472H720.666V457.12H723.126V463.4C723.746 462.44 724.906 461.82 726.326 461.82C728.766 461.82 730.046 463.36 730.046 465.92V472H727.606V466.5C727.606 464.84 726.786 464.04 725.546 464.04C724.006 464.04 723.106 465.12 723.106 466.6V472ZM736.003 472H733.563V464.16H731.663V462.12H733.563V459.04H736.003V462.12H737.923V464.16H736.003V472Z" fill="black"/>
<path id="Vector 2249_4" d="M946 467H747" stroke="black" stroke-width="3" stroke-linecap="round"/>
<g id="B_BISPHENOL">
<path id="Rectangle 4860_2" d="M711 481H593C585.268 481 579 487.268 579 495C579 502.732 585.268 509 593 509H711C718.732 509 725 502.732 725 495C725 487.268 718.732 481 711 481Z" fill="#D7B040"/>
<path id="text_4" d="M607.996 502V487.38H613.816C616.696 487.38 618.456 488.88 618.456 491.32C618.456 492.94 617.736 494.1 616.356 494.68C617.896 495.18 618.676 496.34 618.676 498.04C618.676 500.54 616.936 502 613.916 502H607.996ZM613.596 489.64H610.556V493.62H613.656C615.056 493.62 615.836 492.88 615.836 491.58C615.836 490.32 615.036 489.64 613.596 489.64ZM613.816 495.78H610.556V499.74H613.816C615.256 499.74 616.056 499.04 616.056 497.72C616.056 496.48 615.236 495.78 613.816 495.78ZM621.883 490.14C621.043 490.14 620.383 489.48 620.383 488.66C620.383 487.84 621.043 487.2 621.883 487.2C622.683 487.2 623.343 487.84 623.343 488.66C623.343 489.48 622.683 490.14 621.883 490.14ZM620.663 502V492.12H623.103V502H620.663ZM624.864 499H627.184C627.204 499.86 627.844 500.4 628.964 500.4C630.104 500.4 630.724 499.94 630.724 499.22C630.724 498.72 630.464 498.36 629.584 498.16L627.804 497.74C626.024 497.34 625.164 496.5 625.164 494.92C625.164 492.98 626.804 491.82 629.084 491.82C631.304 491.82 632.804 493.1 632.824 495.02H630.504C630.484 494.18 629.924 493.64 628.984 493.64C628.024 493.64 627.464 494.08 627.464 494.82C627.464 495.38 627.904 495.74 628.744 495.94L630.524 496.36C632.184 496.74 633.024 497.5 633.024 499.02C633.024 501.02 631.324 502.26 628.884 502.26C626.424 502.26 624.864 500.94 624.864 499ZM634.882 506.58V492.12H637.142L637.302 493.62C637.902 492.48 639.202 491.82 640.702 491.82C643.482 491.82 645.322 493.84 645.322 496.94C645.322 500.02 643.642 502.26 640.702 502.26C639.222 502.26 637.942 501.68 637.322 500.68V506.58H634.882ZM637.342 497.06C637.342 498.84 638.442 500.06 640.122 500.06C641.842 500.06 642.862 498.82 642.862 497.06C642.862 495.3 641.842 494.04 640.122 494.04C638.442 494.04 637.342 495.28 637.342 497.06ZM649.705 502H647.265V487.12H649.725V493.4C650.345 492.44 651.505 491.82 652.925 491.82C655.365 491.82 656.645 493.36 656.645 495.92V502H654.205V496.5C654.205 494.84 653.385 494.04 652.145 494.04C650.605 494.04 649.705 495.12 649.705 496.6V502ZM663.462 502.26C660.522 502.26 658.462 500.12 658.462 497.06C658.462 493.96 660.482 491.82 663.382 491.82C666.342 491.82 668.222 493.8 668.222 496.88V497.62L660.782 497.64C660.962 499.38 661.882 500.26 663.502 500.26C664.842 500.26 665.722 499.74 666.002 498.8H668.262C667.842 500.96 666.042 502.26 663.462 502.26ZM663.402 493.82C661.962 493.82 661.082 494.6 660.842 496.08H665.802C665.802 494.72 664.862 493.82 663.402 493.82ZM672.615 502H670.175V492.12H672.435L672.635 493.4C673.255 492.4 674.455 491.82 675.795 491.82C678.275 491.82 679.555 493.36 679.555 495.92V502H677.115V496.5C677.115 494.84 676.295 494.04 675.035 494.04C673.535 494.04 672.615 495.08 672.615 496.68V502ZM681.372 497.04C681.372 493.96 683.592 491.84 686.652 491.84C689.712 491.84 691.932 493.96 691.932 497.04C691.932 500.12 689.712 502.24 686.652 502.24C683.592 502.24 681.372 500.12 681.372 497.04ZM683.812 497.04C683.812 498.84 684.972 500.06 686.652 500.06C688.332 500.06 689.492 498.84 689.492 497.04C689.492 495.24 688.332 494.02 686.652 494.02C684.972 494.02 683.812 495.24 683.812 497.04ZM696.326 502H693.906V487.12H696.326V502Z" fill="white"/>
</g>
</g>
<g id="5_TEXT">
<path id="Infertility" d="M1209.56 551.482V566.102H1207V551.482H1209.56ZM1215.08 566.102H1212.64V556.222H1214.9L1215.1 557.502C1215.72 556.502 1216.92 555.922 1218.26 555.922C1220.74 555.922 1222.02 557.462 1222.02 560.022V566.102H1219.58V560.602C1219.58 558.942 1218.76 558.142 1217.5 558.142C1216 558.142 1215.08 559.182 1215.08 560.782V566.102ZM1223.63 556.222H1225.05V555.022C1225.05 552.342 1226.47 551.222 1228.61 551.222C1228.99 551.222 1229.45 551.242 1229.87 551.322V553.402H1229.01C1227.77 553.402 1227.47 554.042 1227.47 555.022V556.222H1229.83V558.262H1227.47V566.102H1225.05V558.262H1223.63V556.222ZM1235.72 566.362C1232.78 566.362 1230.72 564.222 1230.72 561.162C1230.72 558.062 1232.74 555.922 1235.64 555.922C1238.6 555.922 1240.48 557.902 1240.48 560.982V561.722L1233.04 561.742C1233.22 563.482 1234.14 564.362 1235.76 564.362C1237.1 564.362 1237.98 563.842 1238.26 562.902H1240.52C1240.1 565.062 1238.3 566.362 1235.72 566.362ZM1235.66 557.922C1234.22 557.922 1233.34 558.702 1233.1 560.182H1238.06C1238.06 558.822 1237.12 557.922 1235.66 557.922ZM1248.83 556.182V558.442H1247.93C1246.17 558.442 1245.07 559.382 1245.07 561.302V566.102H1242.63V556.242H1244.93L1245.07 557.682C1245.49 556.702 1246.43 556.042 1247.75 556.042C1248.09 556.042 1248.43 556.082 1248.83 556.182ZM1254.43 566.102H1251.99V558.262H1250.09V556.222H1251.99V553.142H1254.43V556.222H1256.35V558.262H1254.43V566.102ZM1259.29 554.242C1258.45 554.242 1257.79 553.582 1257.79 552.762C1257.79 551.942 1258.45 551.302 1259.29 551.302C1260.09 551.302 1260.75 551.942 1260.75 552.762C1260.75 553.582 1260.09 554.242 1259.29 554.242ZM1258.07 566.102V556.222H1260.51V566.102H1258.07ZM1265.69 566.102H1263.27V551.222H1265.69V566.102ZM1269.67 554.242C1268.83 554.242 1268.17 553.582 1268.17 552.762C1268.17 551.942 1268.83 551.302 1269.67 551.302C1270.47 551.302 1271.13 551.942 1271.13 552.762C1271.13 553.582 1270.47 554.242 1269.67 554.242ZM1268.45 566.102V556.222H1270.89V566.102H1268.45ZM1276.97 566.102H1274.53V558.262H1272.63V556.222H1274.53V553.142H1276.97V556.222H1278.89V558.262H1276.97V566.102ZM1279.75 570.682V568.642H1281.21C1282.17 568.642 1282.77 568.422 1283.19 567.262L1283.47 566.522L1279.49 556.222H1282.07L1284.61 563.422L1287.29 556.222H1289.81L1284.97 568.302C1284.23 570.142 1283.19 570.902 1281.57 570.902C1280.89 570.902 1280.29 570.822 1279.75 570.682Z" fill="black"/>
<path id="Vector 2249_6" d="M966.133 559.102H1198.38" stroke="black" stroke-width="3" stroke-linecap="round"/>
<g id="B_BISPHENOL_2">
<path id="Rectangle 4860_4" d="M1339 574H1221C1213.27 574 1207 580.268 1207 588C1207 595.732 1213.27 602 1221 602H1339C1346.73 602 1353 595.732 1353 588C1353 580.268 1346.73 574 1339 574Z" fill="#D7B040"/>
<path id="text_6" d="M1236 595V580.38H1241.82C1244.7 580.38 1246.46 581.88 1246.46 584.32C1246.46 585.94 1245.74 587.1 1244.36 587.68C1245.9 588.18 1246.68 589.34 1246.68 591.04C1246.68 593.54 1244.93 595 1241.92 595H1236ZM1241.6 582.64H1238.56V586.62H1241.66C1243.06 586.62 1243.84 585.88 1243.84 584.58C1243.84 583.32 1243.04 582.64 1241.6 582.64ZM1241.82 588.78H1238.56V592.74H1241.82C1243.26 592.74 1244.06 592.04 1244.06 590.72C1244.06 589.48 1243.24 588.78 1241.82 588.78ZM1249.88 583.14C1249.04 583.14 1248.38 582.48 1248.38 581.66C1248.38 580.84 1249.04 580.2 1249.88 580.2C1250.68 580.2 1251.34 580.84 1251.34 581.66C1251.34 582.48 1250.68 583.14 1249.88 583.14ZM1248.66 595V585.12H1251.1V595H1248.66ZM1252.86 592H1255.18C1255.2 592.86 1255.84 593.4 1256.96 593.4C1258.1 593.4 1258.72 592.94 1258.72 592.22C1258.72 591.72 1258.46 591.36 1257.58 591.16L1255.8 590.74C1254.02 590.34 1253.16 589.5 1253.16 587.92C1253.16 585.98 1254.8 584.82 1257.08 584.82C1259.3 584.82 1260.8 586.1 1260.82 588.02H1258.5C1258.48 587.18 1257.92 586.64 1256.98 586.64C1256.02 586.64 1255.46 587.08 1255.46 587.82C1255.46 588.38 1255.9 588.74 1256.74 588.94L1258.52 589.36C1260.18 589.74 1261.02 590.5 1261.02 592.02C1261.02 594.02 1259.32 595.26 1256.88 595.26C1254.42 595.26 1252.86 593.94 1252.86 592ZM1262.88 599.58V585.12H1265.14L1265.3 586.62C1265.9 585.48 1267.2 584.82 1268.7 584.82C1271.48 584.82 1273.32 586.84 1273.32 589.94C1273.32 593.02 1271.64 595.26 1268.7 595.26C1267.22 595.26 1265.94 594.68 1265.32 593.68V599.58H1262.88ZM1265.34 590.06C1265.34 591.84 1266.44 593.06 1268.12 593.06C1269.84 593.06 1270.86 591.82 1270.86 590.06C1270.86 588.3 1269.84 587.04 1268.12 587.04C1266.44 587.04 1265.34 588.28 1265.34 590.06ZM1277.7 595H1275.26V580.12H1277.72V586.4C1278.34 585.44 1279.5 584.82 1280.92 584.82C1283.36 584.82 1284.64 586.36 1284.64 588.92V595H1282.2V589.5C1282.2 587.84 1281.38 587.04 1280.14 587.04C1278.6 587.04 1277.7 588.12 1277.7 589.6V595ZM1291.46 595.26C1288.52 595.26 1286.46 593.12 1286.46 590.06C1286.46 586.96 1288.48 584.82 1291.38 584.82C1294.34 584.82 1296.22 586.8 1296.22 589.88V590.62L1288.78 590.64C1288.96 592.38 1289.88 593.26 1291.5 593.26C1292.84 593.26 1293.72 592.74 1294 591.8H1296.26C1295.84 593.96 1294.04 595.26 1291.46 595.26ZM1291.4 586.82C1289.96 586.82 1289.08 587.6 1288.84 589.08H1293.8C1293.8 587.72 1292.86 586.82 1291.4 586.82ZM1300.61 595H1298.17V585.12H1300.43L1300.63 586.4C1301.25 585.4 1302.45 584.82 1303.79 584.82C1306.27 584.82 1307.55 586.36 1307.55 588.92V595H1305.11V589.5C1305.11 587.84 1304.29 587.04 1303.03 587.04C1301.53 587.04 1300.61 588.08 1300.61 589.68V595ZM1309.37 590.04C1309.37 586.96 1311.59 584.84 1314.65 584.84C1317.71 584.84 1319.93 586.96 1319.93 590.04C1319.93 593.12 1317.71 595.24 1314.65 595.24C1311.59 595.24 1309.37 593.12 1309.37 590.04ZM1311.81 590.04C1311.81 591.84 1312.97 593.06 1314.65 593.06C1316.33 593.06 1317.49 591.84 1317.49 590.04C1317.49 588.24 1316.33 587.02 1314.65 587.02C1312.97 587.02 1311.81 588.24 1311.81 590.04ZM1324.33 595H1321.91V580.12H1324.33V595Z" fill="white"/>
</g>
</g>
<g id="2_TEXT">
<path id="Immunodevelopment effects" d="M585.822 232.986V247.606H583.262V232.986H585.822ZM591.342 247.606H588.902V237.726H591.142L591.342 238.886C591.842 238.066 592.842 237.426 594.262 237.426C595.762 237.426 596.802 238.166 597.322 239.306C597.822 238.166 598.982 237.426 600.482 237.426C602.882 237.426 604.202 238.866 604.202 241.146V247.606H601.782V241.786C601.782 240.366 601.022 239.626 599.862 239.626C598.682 239.626 597.782 240.386 597.782 242.006V247.606H595.342V241.766C595.342 240.386 594.602 239.646 593.442 239.646C592.282 239.646 591.342 240.406 591.342 242.006V247.606ZM609.238 247.606H606.798V237.726H609.038L609.238 238.886C609.738 238.066 610.738 237.426 612.158 237.426C613.658 237.426 614.698 238.166 615.218 239.306C615.718 238.166 616.878 237.426 618.378 237.426C620.778 237.426 622.098 238.866 622.098 241.146V247.606H619.678V241.786C619.678 240.366 618.918 239.626 617.758 239.626C616.578 239.626 615.678 240.386 615.678 242.006V247.606H613.238V241.766C613.238 240.386 612.498 239.646 611.338 239.646C610.178 239.646 609.238 240.406 609.238 242.006V247.606ZM631.393 237.726H633.833V247.606H631.573L631.393 246.286C630.793 247.226 629.513 247.866 628.193 247.866C625.913 247.866 624.573 246.326 624.573 243.906V237.726H627.013V243.046C627.013 244.926 627.753 245.686 629.113 245.686C630.653 245.686 631.393 244.786 631.393 242.906V237.726ZM638.993 247.606H636.553V237.726H638.813L639.013 239.006C639.633 238.006 640.833 237.426 642.173 237.426C644.653 237.426 645.933 238.966 645.933 241.526V247.606H643.493V242.106C643.493 240.446 642.673 239.646 641.413 239.646C639.913 239.646 638.993 240.686 638.993 242.286V247.606ZM647.951 242.646C647.951 239.566 650.171 237.446 653.231 237.446C656.291 237.446 658.511 239.566 658.511 242.646C658.511 245.726 656.291 247.846 653.231 247.846C650.171 247.846 647.951 245.726 647.951 242.646ZM650.391 242.646C650.391 244.446 651.551 245.666 653.231 245.666C654.911 245.666 656.071 244.446 656.071 242.646C656.071 240.846 654.911 239.626 653.231 239.626C651.551 239.626 650.391 240.846 650.391 242.646ZM664.705 247.866C661.845 247.866 660.065 245.766 660.065 242.706C660.065 239.626 661.865 237.426 664.845 237.426C666.225 237.426 667.445 238.006 668.065 238.986V232.726H670.485V247.606H668.245L668.085 246.066C667.485 247.206 666.205 247.866 664.705 247.866ZM665.245 245.626C666.945 245.626 668.045 244.406 668.045 242.626C668.045 240.846 666.945 239.606 665.245 239.606C663.545 239.606 662.505 240.866 662.505 242.626C662.505 244.386 663.545 245.626 665.245 245.626ZM677.647 247.866C674.707 247.866 672.647 245.726 672.647 242.666C672.647 239.566 674.667 237.426 677.567 237.426C680.527 237.426 682.407 239.406 682.407 242.486V243.226L674.967 243.246C675.147 244.986 676.067 245.866 677.687 245.866C679.027 245.866 679.907 245.346 680.187 244.406H682.447C682.027 246.566 680.227 247.866 677.647 247.866ZM677.587 239.426C676.147 239.426 675.267 240.206 675.027 241.686H679.987C679.987 240.326 679.047 239.426 677.587 239.426ZM686.931 247.606L683.011 237.726H685.611L687.331 242.266C687.751 243.446 688.091 244.466 688.211 245.006C688.351 244.386 688.711 243.346 689.131 242.266L690.931 237.726H693.451L689.331 247.606H686.931ZM698.985 247.866C696.045 247.866 693.985 245.726 693.985 242.666C693.985 239.566 696.005 237.426 698.905 237.426C701.865 237.426 703.745 239.406 703.745 242.486V243.226L696.305 243.246C696.485 244.986 697.405 245.866 699.025 245.866C700.365 245.866 701.245 245.346 701.525 244.406H703.785C703.365 246.566 701.565 247.866 698.985 247.866ZM698.925 239.426C697.485 239.426 696.605 240.206 696.365 241.686H701.325C701.325 240.326 700.385 239.426 698.925 239.426ZM708.358 247.606H705.938V232.726H708.358V247.606ZM710.537 242.646C710.537 239.566 712.757 237.446 715.817 237.446C718.877 237.446 721.097 239.566 721.097 242.646C721.097 245.726 718.877 247.846 715.817 247.846C712.757 247.846 710.537 245.726 710.537 242.646ZM712.977 242.646C712.977 244.446 714.137 245.666 715.817 245.666C717.497 245.666 718.657 244.446 718.657 242.646C718.657 240.846 717.497 239.626 715.817 239.626C714.137 239.626 712.977 240.846 712.977 242.646ZM723.231 252.186V237.726H725.491L725.651 239.226C726.251 238.086 727.551 237.426 729.051 237.426C731.831 237.426 733.671 239.446 733.671 242.546C733.671 245.626 731.991 247.866 729.051 247.866C727.571 247.866 726.291 247.286 725.671 246.286V252.186H723.231ZM725.691 242.666C725.691 244.446 726.791 245.666 728.471 245.666C730.191 245.666 731.211 244.426 731.211 242.666C731.211 240.906 730.191 239.646 728.471 239.646C726.791 239.646 725.691 240.886 725.691 242.666ZM738.254 247.606H735.814V237.726H738.054L738.254 238.886C738.754 238.066 739.754 237.426 741.174 237.426C742.674 237.426 743.714 238.166 744.234 239.306C744.734 238.166 745.894 237.426 747.394 237.426C749.794 237.426 751.114 238.866 751.114 241.146V247.606H748.694V241.786C748.694 240.366 747.934 239.626 746.774 239.626C745.594 239.626 744.694 240.386 744.694 242.006V247.606H742.254V241.766C742.254 240.386 741.514 239.646 740.354 239.646C739.194 239.646 738.254 240.406 738.254 242.006V247.606ZM758.129 247.866C755.189 247.866 753.129 245.726 753.129 242.666C753.129 239.566 755.149 237.426 758.049 237.426C761.009 237.426 762.889 239.406 762.889 242.486V243.226L755.449 243.246C755.629 244.986 756.549 245.866 758.169 245.866C759.509 245.866 760.389 245.346 760.669 244.406H762.929C762.509 246.566 760.709 247.866 758.129 247.866ZM758.069 239.426C756.629 239.426 755.749 240.206 755.509 241.686H760.469C760.469 240.326 759.529 239.426 758.069 239.426ZM767.482 247.606H765.042V237.726H767.302L767.502 239.006C768.122 238.006 769.322 237.426 770.662 237.426C773.142 237.426 774.422 238.966 774.422 241.526V247.606H771.982V242.106C771.982 240.446 771.162 239.646 769.902 239.646C768.402 239.646 767.482 240.686 767.482 242.286V247.606ZM780.38 247.606H777.94V239.766H776.04V237.726H777.94V234.646H780.38V237.726H782.3V239.766H780.38V247.606ZM794.027 247.866C791.087 247.866 789.027 245.726 789.027 242.666C789.027 239.566 791.047 237.426 793.947 237.426C796.907 237.426 798.787 239.406 798.787 242.486V243.226L791.347 243.246C791.527 244.986 792.447 245.866 794.067 245.866C795.407 245.866 796.287 245.346 796.567 244.406H798.827C798.407 246.566 796.607 247.866 794.027 247.866ZM793.967 239.426C792.527 239.426 791.647 240.206 791.407 241.686H796.367C796.367 240.326 795.427 239.426 793.967 239.426ZM799.96 237.726H801.38V236.526C801.38 233.846 802.78 232.726 804.92 232.726C805.3 232.726 805.76 232.746 806.18 232.826V234.906H805.32C804.08 234.906 803.8 235.546 803.8 236.526V237.726H807.84V236.526C807.84 233.846 809.24 232.726 811.38 232.726C811.78 232.726 812.22 232.746 812.64 232.826V234.906H811.8C810.56 234.906 810.26 235.546 810.26 236.526V237.726H812.62V239.766H810.26V247.606H807.84V239.766H803.8V247.606H801.38V239.766H799.96V237.726ZM818.509 247.866C815.569 247.866 813.509 245.726 813.509 242.666C813.509 239.566 815.529 237.426 818.429 237.426C821.389 237.426 823.269 239.406 823.269 242.486V243.226L815.829 243.246C816.009 244.986 816.929 245.866 818.549 245.866C819.889 245.866 820.769 245.346 821.049 244.406H823.309C822.889 246.566 821.089 247.866 818.509 247.866ZM818.449 239.426C817.009 239.426 816.129 240.206 815.889 241.686H820.849C820.849 240.326 819.909 239.426 818.449 239.426ZM824.842 242.646C824.842 239.586 826.862 237.426 829.782 237.426C832.482 237.426 834.322 238.926 834.582 241.306H832.142C831.862 240.186 831.042 239.606 829.882 239.606C828.322 239.606 827.282 240.786 827.282 242.646C827.282 244.506 828.242 245.666 829.802 245.666C831.022 245.666 831.882 245.066 832.142 243.986H834.602C834.302 246.286 832.382 247.866 829.802 247.866C826.802 247.866 824.842 245.786 824.842 242.646ZM839.978 247.606H837.538V239.766H835.638V237.726H837.538V234.646H839.978V237.726H841.898V239.766H839.978V247.606ZM842.855 244.606H845.175C845.195 245.466 845.835 246.006 846.955 246.006C848.095 246.006 848.715 245.546 848.715 244.826C848.715 244.326 848.455 243.966 847.575 243.766L845.795 243.346C844.015 242.946 843.155 242.106 843.155 240.526C843.155 238.586 844.795 237.426 847.075 237.426C849.295 237.426 850.795 238.706 850.815 240.626H848.495C848.475 239.786 847.915 239.246 846.975 239.246C846.015 239.246 845.455 239.686 845.455 240.426C845.455 240.986 845.895 241.346 846.735 241.546L848.515 241.966C850.175 242.346 851.015 243.106 851.015 244.626C851.015 246.626 849.315 247.866 846.875 247.866C844.415 247.866 842.855 246.546 842.855 244.606Z" fill="black"/>
<g id="B_BISPHENOL_3">
<path id="Rectangle 4860" d="M713.641 257.605H595.641C587.909 257.605 581.641 263.873 581.641 271.605C581.641 279.337 587.909 285.605 595.641 285.605H713.641C721.373 285.605 727.641 279.337 727.641 271.605C727.641 263.873 721.373 257.605 713.641 257.605Z" fill="#D7B040"/>
<path id="text" d="M610.637 278.606V263.986H616.457C619.337 263.986 621.097 265.486 621.097 267.926C621.097 269.546 620.377 270.706 618.997 271.286C620.537 271.786 621.317 272.946 621.317 274.646C621.317 277.146 619.577 278.606 616.557 278.606H610.637ZM616.237 266.246H613.197V270.226H616.297C617.697 270.226 618.477 269.486 618.477 268.186C618.477 266.926 617.677 266.246 616.237 266.246ZM616.457 272.386H613.197V276.346H616.457C617.897 276.346 618.697 275.646 618.697 274.326C618.697 273.086 617.877 272.386 616.457 272.386ZM624.524 266.746C623.684 266.746 623.024 266.086 623.024 265.266C623.024 264.446 623.684 263.806 624.524 263.806C625.324 263.806 625.984 264.446 625.984 265.266C625.984 266.086 625.324 266.746 624.524 266.746ZM623.304 278.606V268.726H625.744V278.606H623.304ZM627.505 275.606H629.825C629.845 276.466 630.485 277.006 631.605 277.006C632.745 277.006 633.365 276.546 633.365 275.826C633.365 275.326 633.105 274.966 632.225 274.766L630.445 274.346C628.665 273.946 627.805 273.106 627.805 271.526C627.805 269.586 629.445 268.426 631.725 268.426C633.945 268.426 635.445 269.706 635.465 271.626H633.145C633.125 270.786 632.565 270.246 631.625 270.246C630.665 270.246 630.105 270.686 630.105 271.426C630.105 271.986 630.545 272.346 631.385 272.546L633.165 272.966C634.825 273.346 635.665 274.106 635.665 275.626C635.665 277.626 633.965 278.866 631.525 278.866C629.065 278.866 627.505 277.546 627.505 275.606ZM637.523 283.186V268.726H639.783L639.943 270.226C640.543 269.086 641.843 268.426 643.343 268.426C646.123 268.426 647.963 270.446 647.963 273.546C647.963 276.626 646.283 278.866 643.343 278.866C641.863 278.866 640.583 278.286 639.963 277.286V283.186H637.523ZM639.983 273.666C639.983 275.446 641.083 276.666 642.763 276.666C644.483 276.666 645.503 275.426 645.503 273.666C645.503 271.906 644.483 270.646 642.763 270.646C641.083 270.646 639.983 271.886 639.983 273.666ZM652.346 278.606H649.906V263.726H652.366V270.006C652.986 269.046 654.146 268.426 655.566 268.426C658.006 268.426 659.286 269.966 659.286 272.526V278.606H656.846V273.106C656.846 271.446 656.026 270.646 654.786 270.646C653.246 270.646 652.346 271.726 652.346 273.206V278.606ZM666.103 278.866C663.163 278.866 661.103 276.726 661.103 273.666C661.103 270.566 663.123 268.426 666.023 268.426C668.983 268.426 670.863 270.406 670.863 273.486V274.226L663.423 274.246C663.603 275.986 664.523 276.866 666.143 276.866C667.483 276.866 668.363 276.346 668.643 275.406H670.903C670.483 277.566 668.683 278.866 666.103 278.866ZM666.043 270.426C664.603 270.426 663.723 271.206 663.483 272.686H668.443C668.443 271.326 667.503 270.426 666.043 270.426ZM675.256 278.606H672.816V268.726H675.076L675.276 270.006C675.896 269.006 677.096 268.426 678.436 268.426C680.916 268.426 682.196 269.966 682.196 272.526V278.606H679.756V273.106C679.756 271.446 678.936 270.646 677.676 270.646C676.176 270.646 675.256 271.686 675.256 273.286V278.606ZM684.013 273.646C684.013 270.566 686.233 268.446 689.293 268.446C692.353 268.446 694.573 270.566 694.573 273.646C694.573 276.726 692.353 278.846 689.293 278.846C686.233 278.846 684.013 276.726 684.013 273.646ZM686.453 273.646C686.453 275.446 687.613 276.666 689.293 276.666C690.973 276.666 692.133 275.446 692.133 273.646C692.133 271.846 690.973 270.626 689.293 270.626C687.613 270.626 686.453 271.846 686.453 273.646ZM698.967 278.606H696.547V263.726H698.967V278.606Z" fill="white"/>
</g>
<path id="Vector 2249" d="M949.516 242.615H861.641" stroke="black" stroke-width="3" stroke-linecap="round"/>
</g>
<g id="1_TEXT">
<path id="Hormone related cancer risk (BPA)" d="M1061.59 217.249H1059.03V202.629H1061.59V208.669H1068.07V202.629H1070.63V217.249H1068.07V211.049H1061.59V217.249ZM1073.13 212.289C1073.13 209.209 1075.35 207.089 1078.41 207.089C1081.47 207.089 1083.69 209.209 1083.69 212.289C1083.69 215.369 1081.47 217.489 1078.41 217.489C1075.35 217.489 1073.13 215.369 1073.13 212.289ZM1075.57 212.289C1075.57 214.089 1076.73 215.309 1078.41 215.309C1080.09 215.309 1081.25 214.089 1081.25 212.289C1081.25 210.489 1080.09 209.269 1078.41 209.269C1076.73 209.269 1075.57 210.489 1075.57 212.289ZM1092.02 207.329V209.589H1091.12C1089.36 209.589 1088.26 210.529 1088.26 212.449V217.249H1085.82V207.389H1088.12L1088.26 208.829C1088.68 207.849 1089.62 207.189 1090.94 207.189C1091.28 207.189 1091.62 207.229 1092.02 207.329ZM1096.32 217.249H1093.88V207.369H1096.12L1096.32 208.529C1096.82 207.709 1097.82 207.069 1099.24 207.069C1100.74 207.069 1101.78 207.809 1102.3 208.949C1102.8 207.809 1103.96 207.069 1105.46 207.069C1107.86 207.069 1109.18 208.509 1109.18 210.789V217.249H1106.76V211.429C1106.76 210.009 1106 209.269 1104.84 209.269C1103.66 209.269 1102.76 210.029 1102.76 211.649V217.249H1100.32V211.409C1100.32 210.029 1099.58 209.289 1098.42 209.289C1097.26 209.289 1096.32 210.049 1096.32 211.649V217.249ZM1111.19 212.289C1111.19 209.209 1113.41 207.089 1116.47 207.089C1119.53 207.089 1121.75 209.209 1121.75 212.289C1121.75 215.369 1119.53 217.489 1116.47 217.489C1113.41 217.489 1111.19 215.369 1111.19 212.289ZM1113.63 212.289C1113.63 214.089 1114.79 215.309 1116.47 215.309C1118.15 215.309 1119.31 214.089 1119.31 212.289C1119.31 210.489 1118.15 209.269 1116.47 209.269C1114.79 209.269 1113.63 210.489 1113.63 212.289ZM1126.33 217.249H1123.89V207.369H1126.15L1126.35 208.649C1126.97 207.649 1128.17 207.069 1129.51 207.069C1131.99 207.069 1133.27 208.609 1133.27 211.169V217.249H1130.83V211.749C1130.83 210.089 1130.01 209.289 1128.75 209.289C1127.25 209.289 1126.33 210.329 1126.33 211.929V217.249ZM1140.28 217.509C1137.34 217.509 1135.28 215.369 1135.28 212.309C1135.28 209.209 1137.3 207.069 1140.2 207.069C1143.16 207.069 1145.04 209.049 1145.04 212.129V212.869L1137.6 212.889C1137.78 214.629 1138.7 215.509 1140.32 215.509C1141.66 215.509 1142.54 214.989 1142.82 214.049H1145.08C1144.66 216.209 1142.86 217.509 1140.28 217.509ZM1140.22 209.069C1138.78 209.069 1137.9 209.849 1137.66 211.329H1142.62C1142.62 209.969 1141.68 209.069 1140.22 209.069ZM1158.99 207.329V209.589H1158.09C1156.33 209.589 1155.23 210.529 1155.23 212.449V217.249H1152.79V207.389H1155.09L1155.23 208.829C1155.65 207.849 1156.59 207.189 1157.91 207.189C1158.25 207.189 1158.59 207.229 1158.99 207.329ZM1164.93 217.509C1161.99 217.509 1159.93 215.369 1159.93 212.309C1159.93 209.209 1161.95 207.069 1164.85 207.069C1167.81 207.069 1169.69 209.049 1169.69 212.129V212.869L1162.25 212.889C1162.43 214.629 1163.35 215.509 1164.97 215.509C1166.31 215.509 1167.19 214.989 1167.47 214.049H1169.73C1169.31 216.209 1167.51 217.509 1164.93 217.509ZM1164.87 209.069C1163.43 209.069 1162.55 209.849 1162.31 211.329H1167.27C1167.27 209.969 1166.33 209.069 1164.87 209.069ZM1174.3 217.249H1171.88V202.369H1174.3V217.249ZM1180 217.509C1177.9 217.509 1176.62 216.289 1176.62 214.429C1176.62 212.609 1177.94 211.469 1180.28 211.289L1183.24 211.069V210.849C1183.24 209.509 1182.44 208.969 1181.2 208.969C1179.76 208.969 1178.96 209.569 1178.96 210.609H1176.88C1176.88 208.469 1178.64 207.069 1181.32 207.069C1183.98 207.069 1185.62 208.509 1185.62 211.249V217.249H1183.48L1183.3 215.789C1182.88 216.809 1181.54 217.509 1180 217.509ZM1180.8 215.669C1182.3 215.669 1183.26 214.769 1183.26 213.249V212.729L1181.2 212.889C1179.68 213.029 1179.1 213.529 1179.1 214.329C1179.1 215.229 1179.7 215.669 1180.8 215.669ZM1191.44 217.249H1189V209.409H1187.1V207.369H1189V204.289H1191.44V207.369H1193.36V209.409H1191.44V217.249ZM1199.4 217.509C1196.46 217.509 1194.4 215.369 1194.4 212.309C1194.4 209.209 1196.42 207.069 1199.32 207.069C1202.28 207.069 1204.16 209.049 1204.16 212.129V212.869L1196.72 212.889C1196.9 214.629 1197.82 215.509 1199.44 215.509C1200.78 215.509 1201.66 214.989 1201.94 214.049H1204.2C1203.78 216.209 1201.98 217.509 1199.4 217.509ZM1199.34 209.069C1197.9 209.069 1197.02 209.849 1196.78 211.329H1201.74C1201.74 209.969 1200.8 209.069 1199.34 209.069ZM1210.37 217.509C1207.51 217.509 1205.73 215.409 1205.73 212.349C1205.73 209.269 1207.53 207.069 1210.51 207.069C1211.89 207.069 1213.11 207.649 1213.73 208.629V202.369H1216.15V217.249H1213.91L1213.75 215.709C1213.15 216.849 1211.87 217.509 1210.37 217.509ZM1210.91 215.269C1212.61 215.269 1213.71 214.049 1213.71 212.269C1213.71 210.489 1212.61 209.249 1210.91 209.249C1209.21 209.249 1208.17 210.509 1208.17 212.269C1208.17 214.029 1209.21 215.269 1210.91 215.269ZM1223.9 212.289C1223.9 209.229 1225.92 207.069 1228.84 207.069C1231.54 207.069 1233.38 208.569 1233.64 210.949H1231.2C1230.92 209.829 1230.1 209.249 1228.94 209.249C1227.38 209.249 1226.34 210.429 1226.34 212.289C1226.34 214.149 1227.3 215.309 1228.86 215.309C1230.08 215.309 1230.94 214.709 1231.2 213.629H1233.66C1233.36 215.929 1231.44 217.509 1228.86 217.509C1225.86 217.509 1223.9 215.429 1223.9 212.289ZM1238.62 217.509C1236.52 217.509 1235.24 216.289 1235.24 214.429C1235.24 212.609 1236.56 211.469 1238.9 211.289L1241.86 211.069V210.849C1241.86 209.509 1241.06 208.969 1239.82 208.969C1238.38 208.969 1237.58 209.569 1237.58 210.609H1235.5C1235.5 208.469 1237.26 207.069 1239.94 207.069C1242.6 207.069 1244.24 208.509 1244.24 211.249V217.249H1242.1L1241.92 215.789C1241.5 216.809 1240.16 217.509 1238.62 217.509ZM1239.42 215.669C1240.92 215.669 1241.88 214.769 1241.88 213.249V212.729L1239.82 212.889C1238.3 213.029 1237.72 213.529 1237.72 214.329C1237.72 215.229 1238.32 215.669 1239.42 215.669ZM1249.28 217.249H1246.84V207.369H1249.1L1249.3 208.649C1249.92 207.649 1251.12 207.069 1252.46 207.069C1254.94 207.069 1256.22 208.609 1256.22 211.169V217.249H1253.78V211.749C1253.78 210.089 1252.96 209.289 1251.7 209.289C1250.2 209.289 1249.28 210.329 1249.28 211.929V217.249ZM1258.23 212.289C1258.23 209.229 1260.25 207.069 1263.17 207.069C1265.87 207.069 1267.71 208.569 1267.97 210.949H1265.53C1265.25 209.829 1264.43 209.249 1263.27 209.249C1261.71 209.249 1260.67 210.429 1260.67 212.289C1260.67 214.149 1261.63 215.309 1263.19 215.309C1264.41 215.309 1265.27 214.709 1265.53 213.629H1267.99C1267.69 215.929 1265.77 217.509 1263.19 217.509C1260.19 217.509 1258.23 215.429 1258.23 212.289ZM1274.43 217.509C1271.49 217.509 1269.43 215.369 1269.43 212.309C1269.43 209.209 1271.45 207.069 1274.35 207.069C1277.31 207.069 1279.19 209.049 1279.19 212.129V212.869L1271.75 212.889C1271.93 214.629 1272.85 215.509 1274.47 215.509C1275.81 215.509 1276.69 214.989 1276.97 214.049H1279.23C1278.81 216.209 1277.01 217.509 1274.43 217.509ZM1274.37 209.069C1272.93 209.069 1272.05 209.849 1271.81 211.329H1276.77C1276.77 209.969 1275.83 209.069 1274.37 209.069ZM1287.54 207.329V209.589H1286.64C1284.88 209.589 1283.78 210.529 1283.78 212.449V217.249H1281.34V207.389H1283.64L1283.78 208.829C1284.2 207.849 1285.14 207.189 1286.46 207.189C1286.8 207.189 1287.14 207.229 1287.54 207.329ZM1301.19 207.329V209.589H1300.29C1298.53 209.589 1297.43 210.529 1297.43 212.449V217.249H1294.99V207.389H1297.29L1297.43 208.829C1297.85 207.849 1298.79 207.189 1300.11 207.189C1300.45 207.189 1300.79 207.229 1301.19 207.329ZM1304.26 205.389C1303.42 205.389 1302.76 204.729 1302.76 203.909C1302.76 203.089 1303.42 202.449 1304.26 202.449C1305.06 202.449 1305.72 203.089 1305.72 203.909C1305.72 204.729 1305.06 205.389 1304.26 205.389ZM1303.04 217.249V207.369H1305.48V217.249H1303.04ZM1307.44 214.249H1309.76C1309.78 215.109 1310.42 215.649 1311.54 215.649C1312.68 215.649 1313.3 215.189 1313.3 214.469C1313.3 213.969 1313.04 213.609 1312.16 213.409L1310.38 212.989C1308.6 212.589 1307.74 211.749 1307.74 210.169C1307.74 208.229 1309.38 207.069 1311.66 207.069C1313.88 207.069 1315.38 208.349 1315.4 210.269H1313.08C1313.06 209.429 1312.5 208.889 1311.56 208.889C1310.6 208.889 1310.04 209.329 1310.04 210.069C1310.04 210.629 1310.48 210.989 1311.32 211.189L1313.1 211.609C1314.76 211.989 1315.6 212.749 1315.6 214.269C1315.6 216.269 1313.9 217.509 1311.46 217.509C1309 217.509 1307.44 216.189 1307.44 214.249ZM1320.12 217.249H1317.7V202.369H1320.12V211.509L1323.96 207.369H1327.02L1323.26 211.289L1326.94 217.249H1324.14L1321.56 213.089L1320.12 214.589V217.249ZM1339.11 221.069H1337.17C1335.17 218.789 1333.85 215.209 1333.85 211.369C1333.85 207.869 1334.97 204.189 1337.17 201.689H1339.11C1337.45 203.949 1336.31 207.489 1336.31 211.369C1336.31 214.909 1337.29 218.589 1339.11 221.069ZM1340.92 217.249V202.629H1346.74C1349.62 202.629 1351.38 204.129 1351.38 206.569C1351.38 208.189 1350.66 209.349 1349.28 209.929C1350.82 210.429 1351.6 211.589 1351.6 213.289C1351.6 215.789 1349.86 217.249 1346.84 217.249H1340.92ZM1346.52 204.889H1343.48V208.869H1346.58C1347.98 208.869 1348.76 208.129 1348.76 206.829C1348.76 205.569 1347.96 204.889 1346.52 204.889ZM1346.74 211.029H1343.48V214.989H1346.74C1348.18 214.989 1348.98 214.289 1348.98 212.969C1348.98 211.729 1348.16 211.029 1346.74 211.029ZM1359.93 212.209H1356.71V217.249H1354.15V202.629H1359.93C1362.87 202.629 1364.77 204.549 1364.77 207.409C1364.77 210.229 1362.85 212.209 1359.93 212.209ZM1359.43 204.909H1356.71V209.929H1359.39C1361.15 209.929 1362.09 208.989 1362.09 207.389C1362.09 205.789 1361.13 204.909 1359.43 204.909ZM1367.6 217.249H1364.94L1370.22 202.629H1372.84L1378.12 217.249H1375.42L1374.24 213.869H1368.78L1367.6 217.249ZM1371.2 206.989L1369.54 211.709H1373.5L1371.82 206.989C1371.7 206.609 1371.56 206.169 1371.52 205.869C1371.46 206.149 1371.34 206.589 1371.2 206.989ZM1380.47 221.069H1378.53C1380.37 218.589 1381.33 214.909 1381.33 211.369C1381.33 207.489 1380.19 203.949 1378.53 201.689H1380.47C1382.67 204.189 1383.81 207.869 1383.81 211.369C1383.81 215.209 1382.47 218.789 1380.47 221.069Z" fill="black"/>
<path id="Vector 2249_3" d="M969.172 210.249H1050.41" stroke="black" stroke-width="3" stroke-linecap="round"/>
<g id="B_BISPHENOL_4">
<path id="Rectangle 4860_2_2" d="M1189.41 226.249H1071.41C1063.68 226.249 1057.41 232.517 1057.41 240.249C1057.41 247.981 1063.68 254.249 1071.41 254.249H1189.41C1197.14 254.249 1203.41 247.981 1203.41 240.249C1203.41 232.517 1197.14 226.249 1189.41 226.249Z" fill="#D7B040"/>
<path id="text_4_2" d="M1086.4 247.249V232.629H1092.22C1095.1 232.629 1096.86 234.129 1096.86 236.569C1096.86 238.189 1096.14 239.349 1094.76 239.929C1096.3 240.429 1097.08 241.589 1097.08 243.289C1097.08 245.789 1095.34 247.249 1092.32 247.249H1086.4ZM1092 234.889H1088.96V238.869H1092.06C1093.46 238.869 1094.24 238.129 1094.24 236.829C1094.24 235.569 1093.44 234.889 1092 234.889ZM1092.22 241.029H1088.96V244.989H1092.22C1093.66 244.989 1094.46 244.289 1094.46 242.969C1094.46 241.729 1093.64 241.029 1092.22 241.029ZM1100.29 235.389C1099.45 235.389 1098.79 234.729 1098.79 233.909C1098.79 233.089 1099.45 232.449 1100.29 232.449C1101.09 232.449 1101.75 233.089 1101.75 233.909C1101.75 234.729 1101.09 235.389 1100.29 235.389ZM1099.07 247.249V237.369H1101.51V247.249H1099.07ZM1103.27 244.249H1105.59C1105.61 245.109 1106.25 245.649 1107.37 245.649C1108.51 245.649 1109.13 245.189 1109.13 244.469C1109.13 243.969 1108.87 243.609 1107.99 243.409L1106.21 242.989C1104.43 242.589 1103.57 241.749 1103.57 240.169C1103.57 238.229 1105.21 237.069 1107.49 237.069C1109.71 237.069 1111.21 238.349 1111.23 240.269H1108.91C1108.89 239.429 1108.33 238.889 1107.39 238.889C1106.43 238.889 1105.87 239.329 1105.87 240.069C1105.87 240.629 1106.31 240.989 1107.15 241.189L1108.93 241.609C1110.59 241.989 1111.43 242.749 1111.43 244.269C1111.43 246.269 1109.73 247.509 1107.29 247.509C1104.83 247.509 1103.27 246.189 1103.27 244.249ZM1113.29 251.829V237.369H1115.55L1115.71 238.869C1116.31 237.729 1117.61 237.069 1119.11 237.069C1121.89 237.069 1123.73 239.089 1123.73 242.189C1123.73 245.269 1122.05 247.509 1119.11 247.509C1117.63 247.509 1116.35 246.929 1115.73 245.929V251.829H1113.29ZM1115.75 242.309C1115.75 244.089 1116.85 245.309 1118.53 245.309C1120.25 245.309 1121.27 244.069 1121.27 242.309C1121.27 240.549 1120.25 239.289 1118.53 239.289C1116.85 239.289 1115.75 240.529 1115.75 242.309ZM1128.11 247.249H1125.67V232.369H1128.13V238.649C1128.75 237.689 1129.91 237.069 1131.33 237.069C1133.77 237.069 1135.05 238.609 1135.05 241.169V247.249H1132.61V241.749C1132.61 240.089 1131.79 239.289 1130.55 239.289C1129.01 239.289 1128.11 240.369 1128.11 241.849V247.249ZM1141.87 247.509C1138.93 247.509 1136.87 245.369 1136.87 242.309C1136.87 239.209 1138.89 237.069 1141.79 237.069C1144.75 237.069 1146.63 239.049 1146.63 242.129V242.869L1139.19 242.889C1139.37 244.629 1140.29 245.509 1141.91 245.509C1143.25 245.509 1144.13 244.989 1144.41 244.049H1146.67C1146.25 246.209 1144.45 247.509 1141.87 247.509ZM1141.81 239.069C1140.37 239.069 1139.49 239.849 1139.25 241.329H1144.21C1144.21 239.969 1143.27 239.069 1141.81 239.069ZM1151.02 247.249H1148.58V237.369H1150.84L1151.04 238.649C1151.66 237.649 1152.86 237.069 1154.2 237.069C1156.68 237.069 1157.96 238.609 1157.96 241.169V247.249H1155.52V241.749C1155.52 240.089 1154.7 239.289 1153.44 239.289C1151.94 239.289 1151.02 240.329 1151.02 241.929V247.249ZM1159.78 242.289C1159.78 239.209 1162 237.089 1165.06 237.089C1168.12 237.089 1170.34 239.209 1170.34 242.289C1170.34 245.369 1168.12 247.489 1165.06 247.489C1162 247.489 1159.78 245.369 1159.78 242.289ZM1162.22 242.289C1162.22 244.089 1163.38 245.309 1165.06 245.309C1166.74 245.309 1167.9 244.089 1167.9 242.289C1167.9 240.489 1166.74 239.269 1165.06 239.269C1163.38 239.269 1162.22 240.489 1162.22 242.289ZM1174.73 247.249H1172.31V232.369H1174.73V247.249Z" fill="white"/>
</g>
</g>
<g id="0_TEXT">
<path id="Neurodevelopment effects (BPA)" d="M523.141 130.56H520.621V115.94H523.161L530.021 126.3V115.94H532.541V130.56H530.021L523.141 120.2V130.56ZM540.037 130.82C537.097 130.82 535.037 128.68 535.037 125.62C535.037 122.52 537.057 120.38 539.957 120.38C542.917 120.38 544.797 122.36 544.797 125.44V126.18L537.357 126.2C537.537 127.94 538.457 128.82 540.077 128.82C541.417 128.82 542.297 128.3 542.577 127.36H544.837C544.417 129.52 542.617 130.82 540.037 130.82ZM539.977 122.38C538.537 122.38 537.657 123.16 537.417 124.64H542.377C542.377 123.28 541.437 122.38 539.977 122.38ZM553.65 120.68H556.09V130.56H553.83L553.65 129.24C553.05 130.18 551.77 130.82 550.45 130.82C548.17 130.82 546.83 129.28 546.83 126.86V120.68H549.27V126C549.27 127.88 550.01 128.64 551.37 128.64C552.91 128.64 553.65 127.74 553.65 125.86V120.68ZM565.01 120.64V122.9H564.11C562.35 122.9 561.25 123.84 561.25 125.76V130.56H558.81V120.7H561.11L561.25 122.14C561.67 121.16 562.61 120.5 563.93 120.5C564.27 120.5 564.61 120.54 565.01 120.64ZM565.95 125.6C565.95 122.52 568.17 120.4 571.23 120.4C574.29 120.4 576.51 122.52 576.51 125.6C576.51 128.68 574.29 130.8 571.23 130.8C568.17 130.8 565.95 128.68 565.95 125.6ZM568.39 125.6C568.39 127.4 569.55 128.62 571.23 128.62C572.91 128.62 574.07 127.4 574.07 125.6C574.07 123.8 572.91 122.58 571.23 122.58C569.55 122.58 568.39 123.8 568.39 125.6ZM582.704 130.82C579.844 130.82 578.064 128.72 578.064 125.66C578.064 122.58 579.864 120.38 582.844 120.38C584.224 120.38 585.444 120.96 586.064 121.94V115.68H588.484V130.56H586.244L586.084 129.02C585.484 130.16 584.204 130.82 582.704 130.82ZM583.244 128.58C584.944 128.58 586.044 127.36 586.044 125.58C586.044 123.8 584.944 122.56 583.244 122.56C581.544 122.56 580.504 123.82 580.504 125.58C580.504 127.34 581.544 128.58 583.244 128.58ZM595.647 130.82C592.707 130.82 590.647 128.68 590.647 125.62C590.647 122.52 592.667 120.38 595.567 120.38C598.527 120.38 600.407 122.36 600.407 125.44V126.18L592.967 126.2C593.147 127.94 594.067 128.82 595.687 128.82C597.027 128.82 597.907 128.3 598.187 127.36H600.447C600.027 129.52 598.227 130.82 595.647 130.82ZM595.587 122.38C594.147 122.38 593.267 123.16 593.027 124.64H597.987C597.987 123.28 597.047 122.38 595.587 122.38ZM604.93 130.56L601.01 120.68H603.61L605.33 125.22C605.75 126.4 606.09 127.42 606.21 127.96C606.35 127.34 606.71 126.3 607.13 125.22L608.93 120.68H611.45L607.33 130.56H604.93ZM616.984 130.82C614.044 130.82 611.984 128.68 611.984 125.62C611.984 122.52 614.004 120.38 616.904 120.38C619.864 120.38 621.744 122.36 621.744 125.44V126.18L614.304 126.2C614.484 127.94 615.404 128.82 617.024 128.82C618.364 128.82 619.244 128.3 619.524 127.36H621.784C621.364 129.52 619.564 130.82 616.984 130.82ZM616.924 122.38C615.484 122.38 614.604 123.16 614.364 124.64H619.324C619.324 123.28 618.384 122.38 616.924 122.38ZM626.357 130.56H623.937V115.68H626.357V130.56ZM628.536 125.6C628.536 122.52 630.756 120.4 633.816 120.4C636.876 120.4 639.096 122.52 639.096 125.6C639.096 128.68 636.876 130.8 633.816 130.8C630.756 130.8 628.536 128.68 628.536 125.6ZM630.976 125.6C630.976 127.4 632.136 128.62 633.816 128.62C635.496 128.62 636.656 127.4 636.656 125.6C636.656 123.8 635.496 122.58 633.816 122.58C632.136 122.58 630.976 123.8 630.976 125.6ZM641.231 135.14V120.68H643.491L643.651 122.18C644.251 121.04 645.551 120.38 647.051 120.38C649.831 120.38 651.671 122.4 651.671 125.5C651.671 128.58 649.991 130.82 647.051 130.82C645.571 130.82 644.291 130.24 643.671 129.24V135.14H641.231ZM643.691 125.62C643.691 127.4 644.791 128.62 646.471 128.62C648.191 128.62 649.211 127.38 649.211 125.62C649.211 123.86 648.191 122.6 646.471 122.6C644.791 122.6 643.691 123.84 643.691 125.62ZM656.253 130.56H653.813V120.68H656.053L656.253 121.84C656.753 121.02 657.753 120.38 659.173 120.38C660.673 120.38 661.713 121.12 662.233 122.26C662.733 121.12 663.893 120.38 665.393 120.38C667.793 120.38 669.113 121.82 669.113 124.1V130.56H666.693V124.74C666.693 123.32 665.933 122.58 664.773 122.58C663.593 122.58 662.693 123.34 662.693 124.96V130.56H660.253V124.72C660.253 123.34 659.513 122.6 658.353 122.6C657.193 122.6 656.253 123.36 656.253 124.96V130.56ZM676.129 130.82C673.189 130.82 671.129 128.68 671.129 125.62C671.129 122.52 673.149 120.38 676.049 120.38C679.009 120.38 680.889 122.36 680.889 125.44V126.18L673.449 126.2C673.629 127.94 674.549 128.82 676.169 128.82C677.509 128.82 678.389 128.3 678.669 127.36H680.929C680.509 129.52 678.709 130.82 676.129 130.82ZM676.069 122.38C674.629 122.38 673.749 123.16 673.509 124.64H678.469C678.469 123.28 677.529 122.38 676.069 122.38ZM685.481 130.56H683.041V120.68H685.301L685.501 121.96C686.121 120.96 687.321 120.38 688.661 120.38C691.141 120.38 692.421 121.92 692.421 124.48V130.56H689.981V125.06C689.981 123.4 689.161 122.6 687.901 122.6C686.401 122.6 685.481 123.64 685.481 125.24V130.56ZM698.379 130.56H695.939V122.72H694.039V120.68H695.939V117.6H698.379V120.68H700.299V122.72H698.379V130.56ZM712.026 130.82C709.086 130.82 707.026 128.68 707.026 125.62C707.026 122.52 709.046 120.38 711.946 120.38C714.906 120.38 716.786 122.36 716.786 125.44V126.18L709.346 126.2C709.526 127.94 710.446 128.82 712.066 128.82C713.406 128.82 714.286 128.3 714.566 127.36H716.826C716.406 129.52 714.606 130.82 712.026 130.82ZM711.966 122.38C710.526 122.38 709.646 123.16 709.406 124.64H714.366C714.366 123.28 713.426 122.38 711.966 122.38ZM717.959 120.68H719.379V119.48C719.379 116.8 720.779 115.68 722.919 115.68C723.299 115.68 723.759 115.7 724.179 115.78V117.86H723.319C722.079 117.86 721.799 118.5 721.799 119.48V120.68H725.839V119.48C725.839 116.8 727.239 115.68 729.379 115.68C729.779 115.68 730.219 115.7 730.639 115.78V117.86H729.799C728.559 117.86 728.259 118.5 728.259 119.48V120.68H730.619V122.72H728.259V130.56H725.839V122.72H721.799V130.56H719.379V122.72H717.959V120.68ZM736.508 130.82C733.568 130.82 731.508 128.68 731.508 125.62C731.508 122.52 733.528 120.38 736.428 120.38C739.388 120.38 741.268 122.36 741.268 125.44V126.18L733.828 126.2C734.008 127.94 734.928 128.82 736.548 128.82C737.888 128.82 738.768 128.3 739.048 127.36H741.308C740.888 129.52 739.088 130.82 736.508 130.82ZM736.448 122.38C735.008 122.38 734.128 123.16 733.888 124.64H738.848C738.848 123.28 737.908 122.38 736.448 122.38ZM742.841 125.6C742.841 122.54 744.861 120.38 747.781 120.38C750.481 120.38 752.321 121.88 752.581 124.26H750.141C749.861 123.14 749.041 122.56 747.881 122.56C746.321 122.56 745.281 123.74 745.281 125.6C745.281 127.46 746.241 128.62 747.801 128.62C749.021 128.62 749.881 128.02 750.141 126.94H752.601C752.301 129.24 750.381 130.82 747.801 130.82C744.801 130.82 742.841 128.74 742.841 125.6ZM757.977 130.56H755.537V122.72H753.637V120.68H755.537V117.6H757.977V120.68H759.897V122.72H757.977V130.56ZM760.854 127.56H763.174C763.194 128.42 763.834 128.96 764.954 128.96C766.094 128.96 766.714 128.5 766.714 127.78C766.714 127.28 766.454 126.92 765.574 126.72L763.794 126.3C762.014 125.9 761.154 125.06 761.154 123.48C761.154 121.54 762.794 120.38 765.074 120.38C767.294 120.38 768.794 121.66 768.814 123.58H766.494C766.474 122.74 765.914 122.2 764.974 122.2C764.014 122.2 763.454 122.64 763.454 123.38C763.454 123.94 763.894 124.3 764.734 124.5L766.514 124.92C768.174 125.3 769.014 126.06 769.014 127.58C769.014 129.58 767.314 130.82 764.874 130.82C762.414 130.82 760.854 129.5 760.854 127.56ZM781.563 134.38H779.623C777.623 132.1 776.303 128.52 776.303 124.68C776.303 121.18 777.423 117.5 779.623 115H781.563C779.903 117.26 778.763 120.8 778.763 124.68C778.763 128.22 779.743 131.9 781.563 134.38ZM783.375 130.56V115.94H789.195C792.075 115.94 793.835 117.44 793.835 119.88C793.835 121.5 793.115 122.66 791.735 123.24C793.275 123.74 794.055 124.9 794.055 126.6C794.055 129.1 792.315 130.56 789.295 130.56H783.375ZM788.975 118.2H785.935V122.18H789.035C790.435 122.18 791.215 121.44 791.215 120.14C791.215 118.88 790.415 118.2 788.975 118.2ZM789.195 124.34H785.935V128.3H789.195C790.635 128.3 791.435 127.6 791.435 126.28C791.435 125.04 790.615 124.34 789.195 124.34ZM802.382 125.52H799.162V130.56H796.602V115.94H802.382C805.322 115.94 807.222 117.86 807.222 120.72C807.222 123.54 805.302 125.52 802.382 125.52ZM801.882 118.22H799.162V123.24H801.842C803.602 123.24 804.542 122.3 804.542 120.7C804.542 119.1 803.582 118.22 801.882 118.22ZM810.054 130.56H807.394L812.674 115.94H815.294L820.574 130.56H817.874L816.694 127.18H811.234L810.054 130.56ZM813.654 120.3L811.994 125.02H815.954L814.274 120.3C814.154 119.92 814.014 119.48 813.974 119.18C813.914 119.46 813.794 119.9 813.654 120.3ZM822.928 134.38H820.988C822.828 131.9 823.788 128.22 823.788 124.68C823.788 120.8 822.648 117.26 820.988 115H822.928C825.128 117.5 826.268 121.18 826.268 124.68C826.268 128.52 824.928 132.1 822.928 134.38Z" fill="black"/>
<g id="B_BISPHENOL_5">
<path id="Rectangle 4860_3" d="M651 139.56H533C525.268 139.56 519 145.828 519 153.56C519 161.292 525.268 167.56 533 167.56H651C658.732 167.56 665 161.292 665 153.56C665 145.828 658.732 139.56 651 139.56Z" fill="#D7B040"/>
<path id="text_2" d="M547.996 160.56V145.94H553.816C556.696 145.94 558.456 147.44 558.456 149.88C558.456 151.5 557.736 152.66 556.356 153.24C557.896 153.74 558.676 154.9 558.676 156.6C558.676 159.1 556.936 160.56 553.916 160.56H547.996ZM553.596 148.2H550.556V152.18H553.656C555.056 152.18 555.836 151.44 555.836 150.14C555.836 148.88 555.036 148.2 553.596 148.2ZM553.816 154.34H550.556V158.3H553.816C555.256 158.3 556.056 157.6 556.056 156.28C556.056 155.04 555.236 154.34 553.816 154.34ZM561.883 148.7C561.043 148.7 560.383 148.04 560.383 147.22C560.383 146.4 561.043 145.76 561.883 145.76C562.683 145.76 563.343 146.4 563.343 147.22C563.343 148.04 562.683 148.7 561.883 148.7ZM560.663 160.56V150.68H563.103V160.56H560.663ZM564.864 157.56H567.184C567.204 158.42 567.844 158.96 568.964 158.96C570.104 158.96 570.724 158.5 570.724 157.78C570.724 157.28 570.464 156.92 569.584 156.72L567.804 156.3C566.024 155.9 565.164 155.06 565.164 153.48C565.164 151.54 566.804 150.38 569.084 150.38C571.304 150.38 572.804 151.66 572.824 153.58H570.504C570.484 152.74 569.924 152.2 568.984 152.2C568.024 152.2 567.464 152.64 567.464 153.38C567.464 153.94 567.904 154.3 568.744 154.5L570.524 154.92C572.184 155.3 573.024 156.06 573.024 157.58C573.024 159.58 571.324 160.82 568.884 160.82C566.424 160.82 564.864 159.5 564.864 157.56ZM574.882 165.14V150.68H577.142L577.302 152.18C577.902 151.04 579.202 150.38 580.702 150.38C583.482 150.38 585.322 152.4 585.322 155.5C585.322 158.58 583.642 160.82 580.702 160.82C579.222 160.82 577.942 160.24 577.322 159.24V165.14H574.882ZM577.342 155.62C577.342 157.4 578.442 158.62 580.122 158.62C581.842 158.62 582.862 157.38 582.862 155.62C582.862 153.86 581.842 152.6 580.122 152.6C578.442 152.6 577.342 153.84 577.342 155.62ZM589.705 160.56H587.265V145.68H589.725V151.96C590.345 151 591.505 150.38 592.925 150.38C595.365 150.38 596.645 151.92 596.645 154.48V160.56H594.205V155.06C594.205 153.4 593.385 152.6 592.145 152.6C590.605 152.6 589.705 153.68 589.705 155.16V160.56ZM603.462 160.82C600.522 160.82 598.462 158.68 598.462 155.62C598.462 152.52 600.482 150.38 603.382 150.38C606.342 150.38 608.222 152.36 608.222 155.44V156.18L600.782 156.2C600.962 157.94 601.882 158.82 603.502 158.82C604.842 158.82 605.722 158.3 606.002 157.36H608.262C607.842 159.52 606.042 160.82 603.462 160.82ZM603.402 152.38C601.962 152.38 601.082 153.16 600.842 154.64H605.802C605.802 153.28 604.862 152.38 603.402 152.38ZM612.615 160.56H610.175V150.68H612.435L612.635 151.96C613.255 150.96 614.455 150.38 615.795 150.38C618.275 150.38 619.555 151.92 619.555 154.48V160.56H617.115V155.06C617.115 153.4 616.295 152.6 615.035 152.6C613.535 152.6 612.615 153.64 612.615 155.24V160.56ZM621.372 155.6C621.372 152.52 623.592 150.4 626.652 150.4C629.712 150.4 631.932 152.52 631.932 155.6C631.932 158.68 629.712 160.8 626.652 160.8C623.592 160.8 621.372 158.68 621.372 155.6ZM623.812 155.6C623.812 157.4 624.972 158.62 626.652 158.62C628.332 158.62 629.492 157.4 629.492 155.6C629.492 153.8 628.332 152.58 626.652 152.58C624.972 152.58 623.812 153.8 623.812 155.6ZM636.326 160.56H633.906V145.68H636.326V160.56Z" fill="white"/>
</g>
<path id="Vector 2249_2" d="M947 125.57H837" stroke="black" stroke-width="3" stroke-linecap="round"/>
</g>
<g id="3_TEXT">
<path id="Obesity and metabolic disease" d="M1203.96 414.56C1203.96 419 1201.04 422.12 1196.84 422.12C1192.66 422.12 1189.78 419.02 1189.78 414.56C1189.78 410.12 1192.68 407 1196.86 407C1201.04 407 1203.96 410.1 1203.96 414.56ZM1201.26 414.56C1201.26 411.44 1199.54 409.46 1196.86 409.46C1194.18 409.46 1192.46 411.44 1192.46 414.56C1192.46 417.68 1194.18 419.66 1196.86 419.66C1199.54 419.66 1201.26 417.64 1201.26 414.56ZM1208.44 421.88H1206.18V407H1208.62V413.44C1209.26 412.34 1210.58 411.68 1212.08 411.68C1214.9 411.68 1216.62 413.88 1216.62 417C1216.62 420.04 1214.76 422.14 1211.92 422.14C1210.44 422.14 1209.18 421.48 1208.6 420.34L1208.44 421.88ZM1208.64 416.9C1208.64 418.68 1209.74 419.9 1211.42 419.9C1213.14 419.9 1214.16 418.66 1214.16 416.9C1214.16 415.14 1213.14 413.88 1211.42 413.88C1209.74 413.88 1208.64 415.12 1208.64 416.9ZM1223.19 422.14C1220.25 422.14 1218.19 420 1218.19 416.94C1218.19 413.84 1220.21 411.7 1223.11 411.7C1226.07 411.7 1227.95 413.68 1227.95 416.76V417.5L1220.51 417.52C1220.69 419.26 1221.61 420.14 1223.23 420.14C1224.57 420.14 1225.45 419.62 1225.73 418.68H1227.99C1227.57 420.84 1225.77 422.14 1223.19 422.14ZM1223.13 413.7C1221.69 413.7 1220.81 414.48 1220.57 415.96H1225.53C1225.53 414.6 1224.59 413.7 1223.13 413.7ZM1229.34 418.88H1231.66C1231.68 419.74 1232.32 420.28 1233.44 420.28C1234.58 420.28 1235.2 419.82 1235.2 419.1C1235.2 418.6 1234.94 418.24 1234.06 418.04L1232.28 417.62C1230.5 417.22 1229.64 416.38 1229.64 414.8C1229.64 412.86 1231.28 411.7 1233.56 411.7C1235.78 411.7 1237.28 412.98 1237.3 414.9H1234.98C1234.96 414.06 1234.4 413.52 1233.46 413.52C1232.5 413.52 1231.94 413.96 1231.94 414.7C1231.94 415.26 1232.38 415.62 1233.22 415.82L1235 416.24C1236.66 416.62 1237.5 417.38 1237.5 418.9C1237.5 420.9 1235.8 422.14 1233.36 422.14C1230.9 422.14 1229.34 420.82 1229.34 418.88ZM1240.78 410.02C1239.94 410.02 1239.28 409.36 1239.28 408.54C1239.28 407.72 1239.94 407.08 1240.78 407.08C1241.58 407.08 1242.24 407.72 1242.24 408.54C1242.24 409.36 1241.58 410.02 1240.78 410.02ZM1239.56 421.88V412H1242V421.88H1239.56ZM1248.08 421.88H1245.64V414.04H1243.74V412H1245.64V408.92H1248.08V412H1250V414.04H1248.08V421.88ZM1250.86 426.46V424.42H1252.32C1253.28 424.42 1253.88 424.2 1254.3 423.04L1254.58 422.3L1250.6 412H1253.18L1255.72 419.2L1258.4 412H1260.92L1256.08 424.08C1255.34 425.92 1254.3 426.68 1252.68 426.68C1252 426.68 1251.4 426.6 1250.86 426.46ZM1271.03 422.14C1268.93 422.14 1267.65 420.92 1267.65 419.06C1267.65 417.24 1268.97 416.1 1271.31 415.92L1274.27 415.7V415.48C1274.27 414.14 1273.47 413.6 1272.23 413.6C1270.79 413.6 1269.99 414.2 1269.99 415.24H1267.91C1267.91 413.1 1269.67 411.7 1272.35 411.7C1275.01 411.7 1276.65 413.14 1276.65 415.88V421.88H1274.51L1274.33 420.42C1273.91 421.44 1272.57 422.14 1271.03 422.14ZM1271.83 420.3C1273.33 420.3 1274.29 419.4 1274.29 417.88V417.36L1272.23 417.52C1270.71 417.66 1270.13 418.16 1270.13 418.96C1270.13 419.86 1270.73 420.3 1271.83 420.3ZM1281.69 421.88H1279.25V412H1281.51L1281.71 413.28C1282.33 412.28 1283.53 411.7 1284.87 411.7C1287.35 411.7 1288.63 413.24 1288.63 415.8V421.88H1286.19V416.38C1286.19 414.72 1285.37 413.92 1284.11 413.92C1282.61 413.92 1281.69 414.96 1281.69 416.56V421.88ZM1295.29 422.14C1292.43 422.14 1290.65 420.04 1290.65 416.98C1290.65 413.9 1292.45 411.7 1295.43 411.7C1296.81 411.7 1298.03 412.28 1298.65 413.26V407H1301.07V421.88H1298.83L1298.67 420.34C1298.07 421.48 1296.79 422.14 1295.29 422.14ZM1295.83 419.9C1297.53 419.9 1298.63 418.68 1298.63 416.9C1298.63 415.12 1297.53 413.88 1295.83 413.88C1294.13 413.88 1293.09 415.14 1293.09 416.9C1293.09 418.66 1294.13 419.9 1295.83 419.9ZM1192.7 447.88H1190.26V438H1192.5L1192.7 439.16C1193.2 438.34 1194.2 437.7 1195.62 437.7C1197.12 437.7 1198.16 438.44 1198.68 439.58C1199.18 438.44 1200.34 437.7 1201.84 437.7C1204.24 437.7 1205.56 439.14 1205.56 441.42V447.88H1203.14V442.06C1203.14 440.64 1202.38 439.9 1201.22 439.9C1200.04 439.9 1199.14 440.66 1199.14 442.28V447.88H1196.7V442.04C1196.7 440.66 1195.96 439.92 1194.8 439.92C1193.64 439.92 1192.7 440.68 1192.7 442.28V447.88ZM1212.58 448.14C1209.64 448.14 1207.58 446 1207.58 442.94C1207.58 439.84 1209.6 437.7 1212.5 437.7C1215.46 437.7 1217.34 439.68 1217.34 442.76V443.5L1209.9 443.52C1210.08 445.26 1211 446.14 1212.62 446.14C1213.96 446.14 1214.84 445.62 1215.12 444.68H1217.38C1216.96 446.84 1215.16 448.14 1212.58 448.14ZM1212.52 439.7C1211.08 439.7 1210.2 440.48 1209.96 441.96H1214.92C1214.92 440.6 1213.98 439.7 1212.52 439.7ZM1222.75 447.88H1220.31V440.04H1218.41V438H1220.31V434.92H1222.75V438H1224.67V440.04H1222.75V447.88ZM1229.27 448.14C1227.17 448.14 1225.89 446.92 1225.89 445.06C1225.89 443.24 1227.21 442.1 1229.55 441.92L1232.51 441.7V441.48C1232.51 440.14 1231.71 439.6 1230.47 439.6C1229.03 439.6 1228.23 440.2 1228.23 441.24H1226.15C1226.15 439.1 1227.91 437.7 1230.59 437.7C1233.25 437.7 1234.89 439.14 1234.89 441.88V447.88H1232.75L1232.57 446.42C1232.15 447.44 1230.81 448.14 1229.27 448.14ZM1230.07 446.3C1231.57 446.3 1232.53 445.4 1232.53 443.88V443.36L1230.47 443.52C1228.95 443.66 1228.37 444.16 1228.37 444.96C1228.37 445.86 1228.97 446.3 1230.07 446.3ZM1239.75 447.88H1237.49V433H1239.93V439.44C1240.57 438.34 1241.89 437.68 1243.39 437.68C1246.21 437.68 1247.93 439.88 1247.93 443C1247.93 446.04 1246.07 448.14 1243.23 448.14C1241.75 448.14 1240.49 447.48 1239.91 446.34L1239.75 447.88ZM1239.95 442.9C1239.95 444.68 1241.05 445.9 1242.73 445.9C1244.45 445.9 1245.47 444.66 1245.47 442.9C1245.47 441.14 1244.45 439.88 1242.73 439.88C1241.05 439.88 1239.95 441.12 1239.95 442.9ZM1249.49 442.92C1249.49 439.84 1251.71 437.72 1254.77 437.72C1257.83 437.72 1260.05 439.84 1260.05 442.92C1260.05 446 1257.83 448.12 1254.77 448.12C1251.71 448.12 1249.49 446 1249.49 442.92ZM1251.93 442.92C1251.93 444.72 1253.09 445.94 1254.77 445.94C1256.45 445.94 1257.61 444.72 1257.61 442.92C1257.61 441.12 1256.45 439.9 1254.77 439.9C1253.09 439.9 1251.93 441.12 1251.93 442.92ZM1264.64 447.88H1262.22V433H1264.64V447.88ZM1268.62 436.02C1267.78 436.02 1267.12 435.36 1267.12 434.54C1267.12 433.72 1267.78 433.08 1268.62 433.08C1269.42 433.08 1270.08 433.72 1270.08 434.54C1270.08 435.36 1269.42 436.02 1268.62 436.02ZM1267.4 447.88V438H1269.84V447.88H1267.4ZM1271.98 442.92C1271.98 439.86 1274 437.7 1276.92 437.7C1279.62 437.7 1281.46 439.2 1281.72 441.58H1279.28C1279 440.46 1278.18 439.88 1277.02 439.88C1275.46 439.88 1274.42 441.06 1274.42 442.92C1274.42 444.78 1275.38 445.94 1276.94 445.94C1278.16 445.94 1279.02 445.34 1279.28 444.26H1281.74C1281.44 446.56 1279.52 448.14 1276.94 448.14C1273.94 448.14 1271.98 446.06 1271.98 442.92ZM1293.41 448.14C1290.55 448.14 1288.77 446.04 1288.77 442.98C1288.77 439.9 1290.57 437.7 1293.55 437.7C1294.93 437.7 1296.15 438.28 1296.77 439.26V433H1299.19V447.88H1296.95L1296.79 446.34C1296.19 447.48 1294.91 448.14 1293.41 448.14ZM1293.95 445.9C1295.65 445.9 1296.75 444.68 1296.75 442.9C1296.75 441.12 1295.65 439.88 1293.95 439.88C1292.25 439.88 1291.21 441.14 1291.21 442.9C1291.21 444.66 1292.25 445.9 1293.95 445.9ZM1303.15 436.02C1302.31 436.02 1301.65 435.36 1301.65 434.54C1301.65 433.72 1302.31 433.08 1303.15 433.08C1303.95 433.08 1304.61 433.72 1304.61 434.54C1304.61 435.36 1303.95 436.02 1303.15 436.02ZM1301.93 447.88V438H1304.37V447.88H1301.93ZM1306.34 444.88H1308.66C1308.68 445.74 1309.32 446.28 1310.44 446.28C1311.58 446.28 1312.2 445.82 1312.2 445.1C1312.2 444.6 1311.94 444.24 1311.06 444.04L1309.28 443.62C1307.5 443.22 1306.64 442.38 1306.64 440.8C1306.64 438.86 1308.28 437.7 1310.56 437.7C1312.78 437.7 1314.28 438.98 1314.3 440.9H1311.98C1311.96 440.06 1311.4 439.52 1310.46 439.52C1309.5 439.52 1308.94 439.96 1308.94 440.7C1308.94 441.26 1309.38 441.62 1310.22 441.82L1312 442.24C1313.66 442.62 1314.5 443.38 1314.5 444.9C1314.5 446.9 1312.8 448.14 1310.36 448.14C1307.9 448.14 1306.34 446.82 1306.34 444.88ZM1320.97 448.14C1318.03 448.14 1315.97 446 1315.97 442.94C1315.97 439.84 1317.99 437.7 1320.89 437.7C1323.85 437.7 1325.73 439.68 1325.73 442.76V443.5L1318.29 443.52C1318.47 445.26 1319.39 446.14 1321.01 446.14C1322.35 446.14 1323.23 445.62 1323.51 444.68H1325.77C1325.35 446.84 1323.55 448.14 1320.97 448.14ZM1320.91 439.7C1319.47 439.7 1318.59 440.48 1318.35 441.96H1323.31C1323.31 440.6 1322.37 439.7 1320.91 439.7ZM1330.73 448.14C1328.63 448.14 1327.35 446.92 1327.35 445.06C1327.35 443.24 1328.67 442.1 1331.01 441.92L1333.97 441.7V441.48C1333.97 440.14 1333.17 439.6 1331.93 439.6C1330.49 439.6 1329.69 440.2 1329.69 441.24H1327.61C1327.61 439.1 1329.37 437.7 1332.05 437.7C1334.71 437.7 1336.35 439.14 1336.35 441.88V447.88H1334.21L1334.03 446.42C1333.61 447.44 1332.27 448.14 1330.73 448.14ZM1331.53 446.3C1333.03 446.3 1333.99 445.4 1333.99 443.88V443.36L1331.93 443.52C1330.41 443.66 1329.83 444.16 1329.83 444.96C1329.83 445.86 1330.43 446.3 1331.53 446.3ZM1338.19 444.88H1340.51C1340.53 445.74 1341.17 446.28 1342.29 446.28C1343.43 446.28 1344.05 445.82 1344.05 445.1C1344.05 444.6 1343.79 444.24 1342.91 444.04L1341.13 443.62C1339.35 443.22 1338.49 442.38 1338.49 440.8C1338.49 438.86 1340.13 437.7 1342.41 437.7C1344.63 437.7 1346.13 438.98 1346.15 440.9H1343.83C1343.81 440.06 1343.25 439.52 1342.31 439.52C1341.35 439.52 1340.79 439.96 1340.79 440.7C1340.79 441.26 1341.23 441.62 1342.07 441.82L1343.85 442.24C1345.51 442.62 1346.35 443.38 1346.35 444.9C1346.35 446.9 1344.65 448.14 1342.21 448.14C1339.75 448.14 1338.19 446.82 1338.19 444.88ZM1352.82 448.14C1349.88 448.14 1347.82 446 1347.82 442.94C1347.82 439.84 1349.84 437.7 1352.74 437.7C1355.7 437.7 1357.58 439.68 1357.58 442.76V443.5L1350.14 443.52C1350.32 445.26 1351.24 446.14 1352.86 446.14C1354.2 446.14 1355.08 445.62 1355.36 444.68H1357.62C1357.2 446.84 1355.4 448.14 1352.82 448.14ZM1352.76 439.7C1351.32 439.7 1350.44 440.48 1350.2 441.96H1355.16C1355.16 440.6 1354.22 439.7 1352.76 439.7Z" fill="black"/>
<g id="B_BISPHENOL_6">
<path id="Rectangle 4860_5" d="M1321 458H1203C1195.27 458 1189 464.268 1189 472C1189 479.732 1195.27 486 1203 486H1321C1328.73 486 1335 479.732 1335 472C1335 464.268 1328.73 458 1321 458Z" fill="#D7B040"/>
<path id="text_3" d="M1218 479V464.38H1223.82C1226.7 464.38 1228.46 465.88 1228.46 468.32C1228.46 469.94 1227.74 471.1 1226.36 471.68C1227.9 472.18 1228.68 473.34 1228.68 475.04C1228.68 477.54 1226.94 479 1223.92 479H1218ZM1223.6 466.64H1220.56V470.62H1223.66C1225.06 470.62 1225.84 469.88 1225.84 468.58C1225.84 467.32 1225.04 466.64 1223.6 466.64ZM1223.82 472.78H1220.56V476.74H1223.82C1225.26 476.74 1226.06 476.04 1226.06 474.72C1226.06 473.48 1225.24 472.78 1223.82 472.78ZM1231.88 467.14C1231.04 467.14 1230.38 466.48 1230.38 465.66C1230.38 464.84 1231.04 464.2 1231.88 464.2C1232.68 464.2 1233.34 464.84 1233.34 465.66C1233.34 466.48 1232.68 467.14 1231.88 467.14ZM1230.66 479V469.12H1233.1V479H1230.66ZM1234.86 476H1237.18C1237.2 476.86 1237.84 477.4 1238.96 477.4C1240.1 477.4 1240.72 476.94 1240.72 476.22C1240.72 475.72 1240.46 475.36 1239.58 475.16L1237.8 474.74C1236.02 474.34 1235.16 473.5 1235.16 471.92C1235.16 469.98 1236.8 468.82 1239.08 468.82C1241.3 468.82 1242.8 470.1 1242.82 472.02H1240.5C1240.48 471.18 1239.92 470.64 1238.98 470.64C1238.02 470.64 1237.46 471.08 1237.46 471.82C1237.46 472.38 1237.9 472.74 1238.74 472.94L1240.52 473.36C1242.18 473.74 1243.02 474.5 1243.02 476.02C1243.02 478.02 1241.32 479.26 1238.88 479.26C1236.42 479.26 1234.86 477.94 1234.86 476ZM1244.88 483.58V469.12H1247.14L1247.3 470.62C1247.9 469.48 1249.2 468.82 1250.7 468.82C1253.48 468.82 1255.32 470.84 1255.32 473.94C1255.32 477.02 1253.64 479.26 1250.7 479.26C1249.22 479.26 1247.94 478.68 1247.32 477.68V483.58H1244.88ZM1247.34 474.06C1247.34 475.84 1248.44 477.06 1250.12 477.06C1251.84 477.06 1252.86 475.82 1252.86 474.06C1252.86 472.3 1251.84 471.04 1250.12 471.04C1248.44 471.04 1247.34 472.28 1247.34 474.06ZM1259.71 479H1257.27V464.12H1259.73V470.4C1260.35 469.44 1261.51 468.82 1262.93 468.82C1265.37 468.82 1266.65 470.36 1266.65 472.92V479H1264.21V473.5C1264.21 471.84 1263.39 471.04 1262.15 471.04C1260.61 471.04 1259.71 472.12 1259.71 473.6V479ZM1273.46 479.26C1270.52 479.26 1268.46 477.12 1268.46 474.06C1268.46 470.96 1270.48 468.82 1273.38 468.82C1276.34 468.82 1278.22 470.8 1278.22 473.88V474.62L1270.78 474.64C1270.96 476.38 1271.88 477.26 1273.5 477.26C1274.84 477.26 1275.72 476.74 1276 475.8H1278.26C1277.84 477.96 1276.04 479.26 1273.46 479.26ZM1273.4 470.82C1271.96 470.82 1271.08 471.6 1270.84 473.08H1275.8C1275.8 471.72 1274.86 470.82 1273.4 470.82ZM1282.62 479H1280.18V469.12H1282.44L1282.64 470.4C1283.26 469.4 1284.46 468.82 1285.8 468.82C1288.28 468.82 1289.56 470.36 1289.56 472.92V479H1287.12V473.5C1287.12 471.84 1286.3 471.04 1285.04 471.04C1283.54 471.04 1282.62 472.08 1282.62 473.68V479ZM1291.37 474.04C1291.37 470.96 1293.59 468.84 1296.65 468.84C1299.71 468.84 1301.93 470.96 1301.93 474.04C1301.93 477.12 1299.71 479.24 1296.65 479.24C1293.59 479.24 1291.37 477.12 1291.37 474.04ZM1293.81 474.04C1293.81 475.84 1294.97 477.06 1296.65 477.06C1298.33 477.06 1299.49 475.84 1299.49 474.04C1299.49 472.24 1298.33 471.02 1296.65 471.02C1294.97 471.02 1293.81 472.24 1293.81 474.04ZM1306.33 479H1303.91V464.12H1306.33V479Z" fill="white"/>
</g>
<path id="Vector 2249_5" d="M970 429.89L1182 429.89" stroke="black" stroke-width="3" stroke-linecap="round"/>
</g>
<g id="centroids">
<path id="4_DOT" d="M954.242 470.465C956.028 470.465 957.476 469.017 957.476 467.231C957.476 465.445 956.028 463.997 954.242 463.997C952.456 463.997 951.008 465.445 951.008 467.231C951.008 469.017 952.456 470.465 954.242 470.465Z" fill="#FF0000"/>
<path id="5_DOT" d="M957.476 563.178C959.263 563.178 960.711 561.73 960.711 559.944C960.711 558.158 959.263 556.71 957.476 556.71C955.69 556.71 954.242 558.158 954.242 559.944C954.242 561.73 955.69 563.178 957.476 563.178Z" fill="#FF0000"/>
<path id="2_DOT" d="M957.476 246.227C959.263 246.227 960.711 244.779 960.711 242.993C960.711 241.207 959.263 239.759 957.476 239.759C955.69 239.759 954.242 241.207 954.242 242.993C954.242 244.779 955.69 246.227 957.476 246.227Z" fill="#FF0000"/>
<path id="1_DOT" d="M958.555 213.885C960.341 213.885 961.789 212.437 961.789 210.651C961.789 208.865 960.341 207.417 958.555 207.417C956.768 207.417 955.32 208.865 955.32 210.651C955.32 212.437 956.768 213.885 958.555 213.885Z" fill="#FF0000"/>
<path id="0_DOT" d="M956.336 129.352C958.122 129.352 959.57 127.904 959.57 126.118C959.57 124.332 958.122 122.884 956.336 122.884C954.55 122.884 953.102 124.332 953.102 126.118C953.102 127.904 954.55 129.352 956.336 129.352Z" fill="#FF0000"/>
<path id="3_DOT" d="M961.633 433.096C963.419 433.096 964.867 431.648 964.867 429.862C964.867 428.076 963.419 426.628 961.633 426.628C959.846 426.628 958.398 428.076 958.398 429.862C958.398 431.648 959.846 433.096 961.633 433.096Z" fill="#FF0000"/>
</g>
</g>
</svg>
