<svg width="1920" height="1080" viewBox="0 0 1920 1080" fill="none" xmlns="http://www.w3.org/2000/svg">
<g id="MERCURY">
<g id="3_TEXT">
<path id="Kidney damage" d="M645.353 412.48V420.16L651.273 412.48H654.293L649.453 418.72L654.353 427.1H651.393L647.773 420.88L645.353 423.98V427.1H642.793V412.48H645.353ZM657.329 415.24C656.489 415.24 655.829 414.58 655.829 413.76C655.829 412.94 656.489 412.3 657.329 412.3C658.129 412.3 658.789 412.94 658.789 413.76C658.789 414.58 658.129 415.24 657.329 415.24ZM656.109 427.1V417.22H658.549V427.1H656.109ZM665.33 427.36C662.47 427.36 660.69 425.26 660.69 422.2C660.69 419.12 662.49 416.92 665.47 416.92C666.85 416.92 668.07 417.5 668.69 418.48V412.22H671.11V427.1H668.87L668.71 425.56C668.11 426.7 666.83 427.36 665.33 427.36ZM665.87 425.12C667.57 425.12 668.67 423.9 668.67 422.12C668.67 420.34 667.57 419.1 665.87 419.1C664.17 419.1 663.13 420.36 663.13 422.12C663.13 423.88 664.17 425.12 665.87 425.12ZM676.293 427.1H673.853V417.22H676.113L676.313 418.5C676.933 417.5 678.133 416.92 679.473 416.92C681.953 416.92 683.233 418.46 683.233 421.02V427.1H680.793V421.6C680.793 419.94 679.973 419.14 678.713 419.14C677.213 419.14 676.293 420.18 676.293 421.78V427.1ZM690.251 427.36C687.311 427.36 685.251 425.22 685.251 422.16C685.251 419.06 687.271 416.92 690.171 416.92C693.131 416.92 695.011 418.9 695.011 421.98V422.72L687.571 422.74C687.751 424.48 688.671 425.36 690.291 425.36C691.631 425.36 692.511 424.84 692.791 423.9H695.051C694.631 426.06 692.831 427.36 690.251 427.36ZM690.191 418.92C688.751 418.92 687.871 419.7 687.631 421.18H692.591C692.591 419.82 691.651 418.92 690.191 418.92ZM695.971 431.68V429.64H697.431C698.391 429.64 698.991 429.42 699.411 428.26L699.691 427.52L695.711 417.22H698.291L700.831 424.42L703.511 417.22H706.031L701.191 429.3C700.451 431.14 699.411 431.9 697.791 431.9C697.111 431.9 696.511 431.82 695.971 431.68ZM717.268 427.36C714.408 427.36 712.628 425.26 712.628 422.2C712.628 419.12 714.428 416.92 717.408 416.92C718.788 416.92 720.008 417.5 720.628 418.48V412.22H723.048V427.1H720.808L720.648 425.56C720.048 426.7 718.768 427.36 717.268 427.36ZM717.808 425.12C719.508 425.12 720.608 423.9 720.608 422.12C720.608 420.34 719.508 419.1 717.808 419.1C716.108 419.1 715.068 420.36 715.068 422.12C715.068 423.88 716.108 425.12 717.808 425.12ZM728.731 427.36C726.631 427.36 725.351 426.14 725.351 424.28C725.351 422.46 726.671 421.32 729.011 421.14L731.971 420.92V420.7C731.971 419.36 731.171 418.82 729.931 418.82C728.491 418.82 727.691 419.42 727.691 420.46H725.611C725.611 418.32 727.371 416.92 730.051 416.92C732.711 416.92 734.351 418.36 734.351 421.1V427.1H732.211L732.031 425.64C731.611 426.66 730.271 427.36 728.731 427.36ZM729.531 425.52C731.031 425.52 731.991 424.62 731.991 423.1V422.58L729.931 422.74C728.411 422.88 727.831 423.38 727.831 424.18C727.831 425.08 728.431 425.52 729.531 425.52ZM739.388 427.1H736.948V417.22H739.188L739.388 418.38C739.888 417.56 740.888 416.92 742.308 416.92C743.808 416.92 744.848 417.66 745.368 418.8C745.868 417.66 747.028 416.92 748.528 416.92C750.928 416.92 752.248 418.36 752.248 420.64V427.1H749.828V421.28C749.828 419.86 749.068 419.12 747.908 419.12C746.728 419.12 745.828 419.88 745.828 421.5V427.1H743.388V421.26C743.388 419.88 742.648 419.14 741.488 419.14C740.328 419.14 739.388 419.9 739.388 421.5V427.1ZM757.783 427.36C755.683 427.36 754.403 426.14 754.403 424.28C754.403 422.46 755.723 421.32 758.063 421.14L761.023 420.92V420.7C761.023 419.36 760.223 418.82 758.983 418.82C757.543 418.82 756.743 419.42 756.743 420.46H754.663C754.663 418.32 756.423 416.92 759.103 416.92C761.763 416.92 763.403 418.36 763.403 421.1V427.1H761.263L761.083 425.64C760.663 426.66 759.323 427.36 757.783 427.36ZM758.583 425.52C760.083 425.52 761.043 424.62 761.043 423.1V422.58L758.983 422.74C757.463 422.88 756.883 423.38 756.883 424.18C756.883 425.08 757.483 425.52 758.583 425.52ZM765.44 421.94C765.44 419.06 767.32 416.9 770.14 416.9C771.62 416.9 772.78 417.52 773.36 418.58L773.5 417.22H775.76V426.6C775.76 429.9 773.78 431.96 770.58 431.96C767.74 431.96 765.8 430.34 765.5 427.7H767.94C768.1 428.98 769.08 429.74 770.58 429.74C772.26 429.74 773.34 428.68 773.34 427.04V425.4C772.72 426.32 771.5 426.9 770.08 426.9C767.28 426.9 765.44 424.8 765.44 421.94ZM767.9 421.88C767.9 423.54 768.96 424.78 770.56 424.78C772.24 424.78 773.28 423.6 773.28 421.88C773.28 420.2 772.26 419.04 770.56 419.04C768.94 419.04 767.9 420.26 767.9 421.88ZM782.905 427.36C779.965 427.36 777.905 425.22 777.905 422.16C777.905 419.06 779.925 416.92 782.825 416.92C785.785 416.92 787.665 418.9 787.665 421.98V422.72L780.225 422.74C780.405 424.48 781.325 425.36 782.945 425.36C784.285 425.36 785.165 424.84 785.445 423.9H787.705C787.285 426.06 785.485 427.36 782.905 427.36ZM782.845 418.92C781.405 418.92 780.525 419.7 780.285 421.18H785.245C785.245 419.82 784.305 418.92 782.845 418.92Z" fill="black"/>
<path id="Vector 2249" d="M938.57 422.109H795.172" stroke="black" stroke-width="3" stroke-linecap="round"/>
<g id="B_MERCURY">
<path id="Rectangle 4859" d="M738.422 437.1H654.922C647.328 437.1 641.172 443.256 641.172 450.85C641.172 458.444 647.328 464.6 654.922 464.6H738.422C746.016 464.6 752.172 458.444 752.172 450.85C752.172 443.256 746.016 437.1 738.422 437.1Z" fill="#E21337"/>
<path id="text" d="M661.914 458.099H659.434V443.479H661.914L666.634 455.119L671.354 443.479H673.874V458.099H671.394V453.599C671.394 450.659 671.394 449.799 671.534 448.759L667.814 458.099H665.454L661.754 448.779C661.894 449.659 661.914 451.039 661.914 452.859V458.099ZM681.17 458.359C678.23 458.359 676.17 456.219 676.17 453.159C676.17 450.059 678.19 447.919 681.09 447.919C684.05 447.919 685.93 449.899 685.93 452.979V453.719L678.49 453.739C678.67 455.479 679.59 456.359 681.21 456.359C682.55 456.359 683.43 455.839 683.71 454.899H685.97C685.55 457.059 683.75 458.359 681.17 458.359ZM681.11 449.919C679.67 449.919 678.79 450.699 678.55 452.179H683.51C683.51 450.819 682.57 449.919 681.11 449.919ZM694.083 448.179V450.439H693.183C691.423 450.439 690.323 451.379 690.323 453.299V458.099H687.883V448.239H690.183L690.323 449.679C690.743 448.699 691.683 448.039 693.003 448.039C693.343 448.039 693.683 448.079 694.083 448.179ZM694.823 453.139C694.823 450.079 696.843 447.919 699.763 447.919C702.463 447.919 704.303 449.419 704.563 451.799H702.123C701.843 450.679 701.023 450.099 699.863 450.099C698.303 450.099 697.263 451.279 697.263 453.139C697.263 454.999 698.223 456.159 699.783 456.159C701.003 456.159 701.863 455.559 702.123 454.479H704.583C704.283 456.779 702.363 458.359 699.783 458.359C696.783 458.359 694.823 456.279 694.823 453.139ZM713.099 448.219H715.539V458.099H713.279L713.099 456.779C712.499 457.719 711.219 458.359 709.899 458.359C707.619 458.359 706.279 456.819 706.279 454.399V448.219H708.719V453.539C708.719 455.419 709.459 456.179 710.819 456.179C712.359 456.179 713.099 455.279 713.099 453.399V448.219ZM724.259 448.179V450.439H723.359C721.599 450.439 720.499 451.379 720.499 453.299V458.099H718.059V448.239H720.359L720.499 449.679C720.919 448.699 721.859 448.039 723.179 448.039C723.519 448.039 723.859 448.079 724.259 448.179ZM725.343 462.679V460.639H726.803C727.763 460.639 728.363 460.419 728.783 459.259L729.063 458.519L725.083 448.219H727.663L730.203 455.419L732.883 448.219H735.403L730.563 460.299C729.823 462.139 728.783 462.899 727.163 462.899C726.483 462.899 725.883 462.819 725.343 462.679Z" fill="white"/>
</g>
</g>
<g id="1_TEXT">
<path id="Imparied development of the brain and the nervous system" d="M517.182 186.38V201H514.622V186.38H517.182ZM522.703 201H520.263V191.12H522.503L522.703 192.28C523.203 191.46 524.203 190.82 525.623 190.82C527.123 190.82 528.163 191.56 528.683 192.7C529.183 191.56 530.343 190.82 531.843 190.82C534.243 190.82 535.563 192.26 535.563 194.54V201H533.143V195.18C533.143 193.76 532.383 193.02 531.223 193.02C530.043 193.02 529.143 193.78 529.143 195.4V201H526.703V195.16C526.703 193.78 525.963 193.04 524.803 193.04C523.643 193.04 522.703 193.8 522.703 195.4V201ZM538.158 205.58V191.12H540.418L540.578 192.62C541.178 191.48 542.478 190.82 543.978 190.82C546.758 190.82 548.598 192.84 548.598 195.94C548.598 199.02 546.918 201.26 543.978 201.26C542.498 201.26 541.218 200.68 540.598 199.68V205.58H538.158ZM540.618 196.06C540.618 197.84 541.718 199.06 543.398 199.06C545.118 199.06 546.138 197.82 546.138 196.06C546.138 194.3 545.118 193.04 543.398 193.04C541.718 193.04 540.618 194.28 540.618 196.06ZM553.681 201.26C551.581 201.26 550.301 200.04 550.301 198.18C550.301 196.36 551.621 195.22 553.961 195.04L556.921 194.82V194.6C556.921 193.26 556.121 192.72 554.881 192.72C553.441 192.72 552.641 193.32 552.641 194.36H550.561C550.561 192.22 552.321 190.82 555.001 190.82C557.661 190.82 559.301 192.26 559.301 195V201H557.161L556.981 199.54C556.561 200.56 555.221 201.26 553.681 201.26ZM554.481 199.42C555.981 199.42 556.941 198.52 556.941 197V196.48L554.881 196.64C553.361 196.78 552.781 197.28 552.781 198.08C552.781 198.98 553.381 199.42 554.481 199.42ZM568.098 191.08V193.34H567.198C565.438 193.34 564.338 194.28 564.338 196.2V201H561.898V191.14H564.198L564.338 192.58C564.758 191.6 565.698 190.94 567.018 190.94C567.358 190.94 567.698 190.98 568.098 191.08ZM571.17 189.14C570.33 189.14 569.67 188.48 569.67 187.66C569.67 186.84 570.33 186.2 571.17 186.2C571.97 186.2 572.63 186.84 572.63 187.66C572.63 188.48 571.97 189.14 571.17 189.14ZM569.95 201V191.12H572.39V201H569.95ZM579.53 201.26C576.59 201.26 574.53 199.12 574.53 196.06C574.53 192.96 576.55 190.82 579.45 190.82C582.41 190.82 584.29 192.8 584.29 195.88V196.62L576.85 196.64C577.03 198.38 577.95 199.26 579.57 199.26C580.91 199.26 581.79 198.74 582.07 197.8H584.33C583.91 199.96 582.11 201.26 579.53 201.26ZM579.47 192.82C578.03 192.82 577.15 193.6 576.91 195.08H581.87C581.87 193.72 580.93 192.82 579.47 192.82ZM590.503 201.26C587.643 201.26 585.863 199.16 585.863 196.1C585.863 193.02 587.663 190.82 590.643 190.82C592.023 190.82 593.243 191.4 593.863 192.38V186.12H596.283V201H594.043L593.883 199.46C593.283 200.6 592.003 201.26 590.503 201.26ZM591.043 199.02C592.743 199.02 593.843 197.8 593.843 196.02C593.843 194.24 592.743 193 591.043 193C589.343 193 588.303 194.26 588.303 196.02C588.303 197.78 589.343 199.02 591.043 199.02ZM608.677 201.26C605.817 201.26 604.037 199.16 604.037 196.1C604.037 193.02 605.837 190.82 608.817 190.82C610.197 190.82 611.417 191.4 612.037 192.38V186.12H614.457V201H612.217L612.057 199.46C611.457 200.6 610.177 201.26 608.677 201.26ZM609.217 199.02C610.917 199.02 612.017 197.8 612.017 196.02C612.017 194.24 610.917 193 609.217 193C607.517 193 606.477 194.26 606.477 196.02C606.477 197.78 607.517 199.02 609.217 199.02ZM621.62 201.26C618.68 201.26 616.62 199.12 616.62 196.06C616.62 192.96 618.64 190.82 621.54 190.82C624.5 190.82 626.38 192.8 626.38 195.88V196.62L618.94 196.64C619.12 198.38 620.04 199.26 621.66 199.26C623 199.26 623.88 198.74 624.16 197.8H626.42C626 199.96 624.2 201.26 621.62 201.26ZM621.56 192.82C620.12 192.82 619.24 193.6 619 195.08H623.96C623.96 193.72 623.02 192.82 621.56 192.82ZM630.903 201L626.983 191.12H629.583L631.303 195.66C631.723 196.84 632.063 197.86 632.183 198.4C632.323 197.78 632.683 196.74 633.103 195.66L634.903 191.12H637.423L633.303 201H630.903ZM642.957 201.26C640.017 201.26 637.957 199.12 637.957 196.06C637.957 192.96 639.977 190.82 642.877 190.82C645.837 190.82 647.717 192.8 647.717 195.88V196.62L640.277 196.64C640.457 198.38 641.377 199.26 642.997 199.26C644.337 199.26 645.217 198.74 645.497 197.8H647.757C647.337 199.96 645.537 201.26 642.957 201.26ZM642.897 192.82C641.457 192.82 640.577 193.6 640.337 195.08H645.297C645.297 193.72 644.357 192.82 642.897 192.82ZM652.33 201H649.91V186.12H652.33V201ZM654.509 196.04C654.509 192.96 656.729 190.84 659.789 190.84C662.849 190.84 665.069 192.96 665.069 196.04C665.069 199.12 662.849 201.24 659.789 201.24C656.729 201.24 654.509 199.12 654.509 196.04ZM656.949 196.04C656.949 197.84 658.109 199.06 659.789 199.06C661.469 199.06 662.629 197.84 662.629 196.04C662.629 194.24 661.469 193.02 659.789 193.02C658.109 193.02 656.949 194.24 656.949 196.04ZM667.203 205.58V191.12H669.463L669.623 192.62C670.223 191.48 671.523 190.82 673.023 190.82C675.803 190.82 677.643 192.84 677.643 195.94C677.643 199.02 675.963 201.26 673.023 201.26C671.543 201.26 670.263 200.68 669.643 199.68V205.58H667.203ZM669.663 196.06C669.663 197.84 670.763 199.06 672.443 199.06C674.163 199.06 675.183 197.82 675.183 196.06C675.183 194.3 674.163 193.04 672.443 193.04C670.763 193.04 669.663 194.28 669.663 196.06ZM682.226 201H679.786V191.12H682.026L682.226 192.28C682.726 191.46 683.726 190.82 685.146 190.82C686.646 190.82 687.686 191.56 688.206 192.7C688.706 191.56 689.866 190.82 691.366 190.82C693.766 190.82 695.086 192.26 695.086 194.54V201H692.666V195.18C692.666 193.76 691.906 193.02 690.746 193.02C689.566 193.02 688.666 193.78 688.666 195.4V201H686.226V195.16C686.226 193.78 685.486 193.04 684.326 193.04C683.166 193.04 682.226 193.8 682.226 195.4V201ZM702.102 201.26C699.162 201.26 697.102 199.12 697.102 196.06C697.102 192.96 699.122 190.82 702.022 190.82C704.982 190.82 706.862 192.8 706.862 195.88V196.62L699.422 196.64C699.602 198.38 700.522 199.26 702.142 199.26C703.482 199.26 704.362 198.74 704.642 197.8H706.902C706.482 199.96 704.682 201.26 702.102 201.26ZM702.042 192.82C700.602 192.82 699.722 193.6 699.482 195.08H704.442C704.442 193.72 703.502 192.82 702.042 192.82ZM711.454 201H709.014V191.12H711.274L711.474 192.4C712.094 191.4 713.294 190.82 714.634 190.82C717.114 190.82 718.394 192.36 718.394 194.92V201H715.954V195.5C715.954 193.84 715.134 193.04 713.874 193.04C712.374 193.04 711.454 194.08 711.454 195.68V201ZM724.352 201H721.912V193.16H720.012V191.12H721.912V188.04H724.352V191.12H726.272V193.16H724.352V201ZM732.999 196.04C732.999 192.96 735.219 190.84 738.279 190.84C741.339 190.84 743.559 192.96 743.559 196.04C743.559 199.12 741.339 201.24 738.279 201.24C735.219 201.24 732.999 199.12 732.999 196.04ZM735.439 196.04C735.439 197.84 736.599 199.06 738.279 199.06C739.959 199.06 741.119 197.84 741.119 196.04C741.119 194.24 739.959 193.02 738.279 193.02C736.599 193.02 735.439 194.24 735.439 196.04ZM744.674 191.12H746.094V189.92C746.094 187.24 747.514 186.12 749.654 186.12C750.034 186.12 750.494 186.14 750.914 186.22V188.3H750.054C748.814 188.3 748.514 188.94 748.514 189.92V191.12H750.874V193.16H748.514V201H746.094V193.16H744.674V191.12ZM761.582 201H759.142V193.16H757.242V191.12H759.142V188.04H761.582V191.12H763.502V193.16H761.582V201ZM767.659 201H765.219V186.12H767.679V192.4C768.299 191.44 769.459 190.82 770.879 190.82C773.319 190.82 774.599 192.36 774.599 194.92V201H772.159V195.5C772.159 193.84 771.339 193.04 770.099 193.04C768.559 193.04 767.659 194.12 767.659 195.6V201ZM781.616 201.26C778.676 201.26 776.616 199.12 776.616 196.06C776.616 192.96 778.636 190.82 781.536 190.82C784.496 190.82 786.376 192.8 786.376 195.88V196.62L778.936 196.64C779.116 198.38 780.036 199.26 781.656 199.26C782.996 199.26 783.876 198.74 784.156 197.8H786.416C785.996 199.96 784.196 201.26 781.616 201.26ZM781.556 192.82C780.116 192.82 779.236 193.6 778.996 195.08H783.956C783.956 193.72 783.016 192.82 781.556 192.82ZM516.522 227H514.262V212.12H516.702V218.56C517.342 217.46 518.662 216.8 520.162 216.8C522.982 216.8 524.702 219 524.702 222.12C524.702 225.16 522.842 227.26 520.002 227.26C518.522 227.26 517.262 226.6 516.682 225.46L516.522 227ZM516.722 222.02C516.722 223.8 517.822 225.02 519.502 225.02C521.222 225.02 522.242 223.78 522.242 222.02C522.242 220.26 521.222 219 519.502 219C517.822 219 516.722 220.24 516.722 222.02ZM533.045 217.08V219.34H532.145C530.385 219.34 529.285 220.28 529.285 222.2V227H526.845V217.14H529.145L529.285 218.58C529.705 217.6 530.645 216.94 531.965 216.94C532.305 216.94 532.645 216.98 533.045 217.08ZM537.446 227.26C535.346 227.26 534.066 226.04 534.066 224.18C534.066 222.36 535.386 221.22 537.726 221.04L540.686 220.82V220.6C540.686 219.26 539.886 218.72 538.646 218.72C537.206 218.72 536.406 219.32 536.406 220.36H534.326C534.326 218.22 536.086 216.82 538.766 216.82C541.426 216.82 543.066 218.26 543.066 221V227H540.926L540.746 225.54C540.326 226.56 538.986 227.26 537.446 227.26ZM538.246 225.42C539.746 225.42 540.706 224.52 540.706 223V222.48L538.646 222.64C537.126 222.78 536.546 223.28 536.546 224.08C536.546 224.98 537.146 225.42 538.246 225.42ZM546.883 215.14C546.043 215.14 545.383 214.48 545.383 213.66C545.383 212.84 546.043 212.2 546.883 212.2C547.683 212.2 548.343 212.84 548.343 213.66C548.343 214.48 547.683 215.14 546.883 215.14ZM545.663 227V217.12H548.103V227H545.663ZM553.264 227H550.824V217.12H553.084L553.284 218.4C553.904 217.4 555.104 216.82 556.444 216.82C558.924 216.82 560.204 218.36 560.204 220.92V227H557.764V221.5C557.764 219.84 556.944 219.04 555.684 219.04C554.184 219.04 553.264 220.08 553.264 221.68V227ZM571.332 227.26C569.232 227.26 567.952 226.04 567.952 224.18C567.952 222.36 569.272 221.22 571.612 221.04L574.572 220.82V220.6C574.572 219.26 573.772 218.72 572.532 218.72C571.092 218.72 570.292 219.32 570.292 220.36H568.212C568.212 218.22 569.972 216.82 572.652 216.82C575.312 216.82 576.952 218.26 576.952 221V227H574.812L574.632 225.54C574.212 226.56 572.872 227.26 571.332 227.26ZM572.132 225.42C573.632 225.42 574.592 224.52 574.592 223V222.48L572.532 222.64C571.012 222.78 570.432 223.28 570.432 224.08C570.432 224.98 571.032 225.42 572.132 225.42ZM581.989 227H579.549V217.12H581.809L582.009 218.4C582.629 217.4 583.829 216.82 585.169 216.82C587.649 216.82 588.929 218.36 588.929 220.92V227H586.489V221.5C586.489 219.84 585.669 219.04 584.409 219.04C582.909 219.04 581.989 220.08 581.989 221.68V227ZM595.586 227.26C592.726 227.26 590.946 225.16 590.946 222.1C590.946 219.02 592.746 216.82 595.726 216.82C597.106 216.82 598.326 217.4 598.946 218.38V212.12H601.366V227H599.126L598.966 225.46C598.366 226.6 597.086 227.26 595.586 227.26ZM596.126 225.02C597.826 225.02 598.926 223.8 598.926 222.02C598.926 220.24 597.826 219 596.126 219C594.426 219 593.386 220.26 593.386 222.02C593.386 223.78 594.426 225.02 596.126 225.02ZM613.06 227H610.62V219.16H608.72V217.12H610.62V214.04H613.06V217.12H614.98V219.16H613.06V227ZM619.136 227H616.696V212.12H619.156V218.4C619.776 217.44 620.936 216.82 622.356 216.82C624.796 216.82 626.076 218.36 626.076 220.92V227H623.636V221.5C623.636 219.84 622.816 219.04 621.576 219.04C620.036 219.04 619.136 220.12 619.136 221.6V227ZM633.094 227.26C630.154 227.26 628.094 225.12 628.094 222.06C628.094 218.96 630.114 216.82 633.014 216.82C635.974 216.82 637.854 218.8 637.854 221.88V222.62L630.414 222.64C630.594 224.38 631.514 225.26 633.134 225.26C634.474 225.26 635.354 224.74 635.634 223.8H637.894C637.474 225.96 635.674 227.26 633.094 227.26ZM633.034 218.82C631.594 218.82 630.714 219.6 630.474 221.08H635.434C635.434 219.72 634.494 218.82 633.034 218.82ZM648.037 227H645.597V217.12H647.857L648.057 218.4C648.677 217.4 649.877 216.82 651.217 216.82C653.697 216.82 654.977 218.36 654.977 220.92V227H652.537V221.5C652.537 219.84 651.717 219.04 650.457 219.04C648.957 219.04 648.037 220.08 648.037 221.68V227ZM661.995 227.26C659.055 227.26 656.995 225.12 656.995 222.06C656.995 218.96 659.015 216.82 661.915 216.82C664.875 216.82 666.755 218.8 666.755 221.88V222.62L659.315 222.64C659.495 224.38 660.415 225.26 662.035 225.26C663.375 225.26 664.255 224.74 664.535 223.8H666.795C666.375 225.96 664.575 227.26 661.995 227.26ZM661.935 218.82C660.495 218.82 659.615 219.6 659.375 221.08H664.335C664.335 219.72 663.395 218.82 661.935 218.82ZM675.107 217.08V219.34H674.207C672.447 219.34 671.347 220.28 671.347 222.2V227H668.907V217.14H671.207L671.347 218.58C671.767 217.6 672.707 216.94 674.027 216.94C674.367 216.94 674.707 216.98 675.107 217.08ZM680.052 227L676.132 217.12H678.732L680.452 221.66C680.872 222.84 681.212 223.86 681.332 224.4C681.472 223.78 681.832 222.74 682.252 221.66L684.052 217.12H686.572L682.452 227H680.052ZM687.106 222.04C687.106 218.96 689.326 216.84 692.386 216.84C695.446 216.84 697.666 218.96 697.666 222.04C697.666 225.12 695.446 227.24 692.386 227.24C689.326 227.24 687.106 225.12 687.106 222.04ZM689.546 222.04C689.546 223.84 690.706 225.06 692.386 225.06C694.066 225.06 695.226 223.84 695.226 222.04C695.226 220.24 694.066 219.02 692.386 219.02C690.706 219.02 689.546 220.24 689.546 222.04ZM706.266 217.12H708.706V227H706.446L706.266 225.68C705.666 226.62 704.386 227.26 703.066 227.26C700.786 227.26 699.446 225.72 699.446 223.3V217.12H701.886V222.44C701.886 224.32 702.626 225.08 703.986 225.08C705.526 225.08 706.266 224.18 706.266 222.3V217.12ZM710.471 224H712.791C712.811 224.86 713.451 225.4 714.571 225.4C715.711 225.4 716.331 224.94 716.331 224.22C716.331 223.72 716.071 223.36 715.191 223.16L713.411 222.74C711.631 222.34 710.771 221.5 710.771 219.92C710.771 217.98 712.411 216.82 714.691 216.82C716.911 216.82 718.411 218.1 718.431 220.02H716.111C716.091 219.18 715.531 218.64 714.591 218.64C713.631 218.64 713.071 219.08 713.071 219.82C713.071 220.38 713.511 220.74 714.351 220.94L716.131 221.36C717.791 221.74 718.631 222.5 718.631 224.02C718.631 226.02 716.931 227.26 714.491 227.26C712.031 227.26 710.471 225.94 710.471 224ZM725.519 224H727.839C727.859 224.86 728.499 225.4 729.619 225.4C730.759 225.4 731.379 224.94 731.379 224.22C731.379 223.72 731.119 223.36 730.239 223.16L728.459 222.74C726.679 222.34 725.819 221.5 725.819 219.92C725.819 217.98 727.459 216.82 729.739 216.82C731.959 216.82 733.459 218.1 733.479 220.02H731.159C731.139 219.18 730.579 218.64 729.639 218.64C728.679 218.64 728.119 219.08 728.119 219.82C728.119 220.38 728.559 220.74 729.399 220.94L731.179 221.36C732.839 221.74 733.679 222.5 733.679 224.02C733.679 226.02 731.979 227.26 729.539 227.26C727.079 227.26 725.519 225.94 725.519 224ZM734.682 231.58V229.54H736.142C737.102 229.54 737.702 229.32 738.122 228.16L738.402 227.42L734.422 217.12H737.002L739.542 224.32L742.222 217.12H744.742L739.902 229.2C739.162 231.04 738.122 231.8 736.502 231.8C735.822 231.8 735.222 231.72 734.682 231.58ZM745.353 224H747.673C747.693 224.86 748.333 225.4 749.453 225.4C750.593 225.4 751.213 224.94 751.213 224.22C751.213 223.72 750.953 223.36 750.073 223.16L748.293 222.74C746.513 222.34 745.653 221.5 745.653 219.92C745.653 217.98 747.293 216.82 749.573 216.82C751.793 216.82 753.293 218.1 753.313 220.02H750.993C750.973 219.18 750.413 218.64 749.473 218.64C748.513 218.64 747.953 219.08 747.953 219.82C747.953 220.38 748.393 220.74 749.233 220.94L751.013 221.36C752.673 221.74 753.513 222.5 753.513 224.02C753.513 226.02 751.813 227.26 749.373 227.26C746.913 227.26 745.353 225.94 745.353 224ZM758.931 227H756.491V219.16H754.591V217.12H756.491V214.04H758.931V217.12H760.851V219.16H758.931V227ZM766.89 227.26C763.95 227.26 761.89 225.12 761.89 222.06C761.89 218.96 763.91 216.82 766.81 216.82C769.77 216.82 771.65 218.8 771.65 221.88V222.62L764.21 222.64C764.39 224.38 765.31 225.26 766.93 225.26C768.27 225.26 769.15 224.74 769.43 223.8H771.69C771.27 225.96 769.47 227.26 766.89 227.26ZM766.83 218.82C765.39 218.82 764.51 219.6 764.27 221.08H769.23C769.23 219.72 768.29 218.82 766.83 218.82ZM776.243 227H773.803V217.12H776.043L776.243 218.28C776.743 217.46 777.743 216.82 779.163 216.82C780.663 216.82 781.703 217.56 782.223 218.7C782.723 217.56 783.883 216.82 785.383 216.82C787.783 216.82 789.103 218.26 789.103 220.54V227H786.683V221.18C786.683 219.76 785.923 219.02 784.763 219.02C783.583 219.02 782.683 219.78 782.683 221.4V227H780.243V221.16C780.243 219.78 779.503 219.04 778.343 219.04C777.183 219.04 776.243 219.8 776.243 221.4V227Z" fill="black"/>
<path id="Vector 2249_2" d="M948.189 209.427H800.543" stroke="black" stroke-width="3" stroke-linecap="round"/>
<g id="B_MERCURY_2">
<path id="Rectangle 4859_2" d="M610.25 236H526.75C519.156 236 513 242.156 513 249.75C513 257.344 519.156 263.5 526.75 263.5H610.25C617.844 263.5 624 257.344 624 249.75C624 242.156 617.844 236 610.25 236Z" fill="#E21337"/>
<path id="text_2" d="M533.742 257H531.262V242.38H533.742L538.462 254.02L543.182 242.38H545.702V257H543.222V252.5C543.222 249.56 543.222 248.7 543.362 247.66L539.642 257H537.282L533.582 247.68C533.722 248.56 533.742 249.94 533.742 251.76V257ZM552.997 257.26C550.057 257.26 547.997 255.12 547.997 252.06C547.997 248.96 550.017 246.82 552.917 246.82C555.877 246.82 557.757 248.8 557.757 251.88V252.62L550.317 252.64C550.497 254.38 551.417 255.26 553.037 255.26C554.377 255.26 555.257 254.74 555.537 253.8H557.797C557.377 255.96 555.577 257.26 552.997 257.26ZM552.937 248.82C551.497 248.82 550.617 249.6 550.377 251.08H555.337C555.337 249.72 554.397 248.82 552.937 248.82ZM565.91 247.08V249.34H565.01C563.25 249.34 562.15 250.28 562.15 252.2V257H559.71V247.14H562.01L562.15 248.58C562.57 247.6 563.51 246.94 564.83 246.94C565.17 246.94 565.51 246.98 565.91 247.08ZM566.65 252.04C566.65 248.98 568.67 246.82 571.59 246.82C574.29 246.82 576.13 248.32 576.39 250.7H573.95C573.67 249.58 572.85 249 571.69 249C570.13 249 569.09 250.18 569.09 252.04C569.09 253.9 570.05 255.06 571.61 255.06C572.83 255.06 573.69 254.46 573.95 253.38H576.41C576.11 255.68 574.19 257.26 571.61 257.26C568.61 257.26 566.65 255.18 566.65 252.04ZM584.926 247.12H587.366V257H585.106L584.926 255.68C584.326 256.62 583.046 257.26 581.726 257.26C579.446 257.26 578.106 255.72 578.106 253.3V247.12H580.546V252.44C580.546 254.32 581.286 255.08 582.646 255.08C584.186 255.08 584.926 254.18 584.926 252.3V247.12ZM596.086 247.08V249.34H595.186C593.426 249.34 592.326 250.28 592.326 252.2V257H589.886V247.14H592.186L592.326 248.58C592.746 247.6 593.686 246.94 595.006 246.94C595.346 246.94 595.686 246.98 596.086 247.08ZM597.17 261.58V259.54H598.63C599.59 259.54 600.19 259.32 600.61 258.16L600.89 257.42L596.91 247.12H599.49L602.03 254.32L604.71 247.12H607.23L602.39 259.2C601.65 261.04 600.61 261.8 598.99 261.8C598.31 261.8 597.71 261.72 597.17 261.58Z" fill="white"/>
</g>
</g>
<g id="0_TEXT">
<g id="B_MERCURY_3">
<path id="Rectangle 4859_3" d="M1158.25 227H1074.75C1067.16 227 1061 233.156 1061 240.75C1061 248.344 1067.16 254.5 1074.75 254.5H1158.25C1165.84 254.5 1172 248.344 1172 240.75C1172 233.156 1165.84 227 1158.25 227Z" fill="#E21337"/>
<path id="text_5" d="M1081.74 248H1079.26V233.38H1081.74L1086.46 245.02L1091.18 233.38H1093.7V248H1091.22V243.5C1091.22 240.56 1091.22 239.7 1091.36 238.66L1087.64 248H1085.28L1081.58 238.68C1081.72 239.56 1081.74 240.94 1081.74 242.76V248ZM1101 248.26C1098.06 248.26 1096 246.12 1096 243.06C1096 239.96 1098.02 237.82 1100.92 237.82C1103.88 237.82 1105.76 239.8 1105.76 242.88V243.62L1098.32 243.64C1098.5 245.38 1099.42 246.26 1101.04 246.26C1102.38 246.26 1103.26 245.74 1103.54 244.8H1105.8C1105.38 246.96 1103.58 248.26 1101 248.26ZM1100.94 239.82C1099.5 239.82 1098.62 240.6 1098.38 242.08H1103.34C1103.34 240.72 1102.4 239.82 1100.94 239.82ZM1113.91 238.08V240.34H1113.01C1111.25 240.34 1110.15 241.28 1110.15 243.2V248H1107.71V238.14H1110.01L1110.15 239.58C1110.57 238.6 1111.51 237.94 1112.83 237.94C1113.17 237.94 1113.51 237.98 1113.91 238.08ZM1114.65 243.04C1114.65 239.98 1116.67 237.82 1119.59 237.82C1122.29 237.82 1124.13 239.32 1124.39 241.7H1121.95C1121.67 240.58 1120.85 240 1119.69 240C1118.13 240 1117.09 241.18 1117.09 243.04C1117.09 244.9 1118.05 246.06 1119.61 246.06C1120.83 246.06 1121.69 245.46 1121.95 244.38H1124.41C1124.11 246.68 1122.19 248.26 1119.61 248.26C1116.61 248.26 1114.65 246.18 1114.65 243.04ZM1132.93 238.12H1135.37V248H1133.11L1132.93 246.68C1132.33 247.62 1131.05 248.26 1129.73 248.26C1127.45 248.26 1126.11 246.72 1126.11 244.3V238.12H1128.55V243.44C1128.55 245.32 1129.29 246.08 1130.65 246.08C1132.19 246.08 1132.93 245.18 1132.93 243.3V238.12ZM1144.09 238.08V240.34H1143.19C1141.43 240.34 1140.33 241.28 1140.33 243.2V248H1137.89V238.14H1140.19L1140.33 239.58C1140.75 238.6 1141.69 237.94 1143.01 237.94C1143.35 237.94 1143.69 237.98 1144.09 238.08ZM1145.17 252.58V250.54H1146.63C1147.59 250.54 1148.19 250.32 1148.61 249.16L1148.89 248.42L1144.91 238.12H1147.49L1150.03 245.32L1152.71 238.12H1155.23L1150.39 250.2C1149.65 252.04 1148.61 252.8 1146.99 252.8C1146.31 252.8 1145.71 252.72 1145.17 252.58Z" fill="white"/>
</g>
<path id="Damage to the brain and the central peripheral nervous system causing behavioral changes, tremors, insomnia, memory loss" d="M1067.88 112H1062.62V97.3801H1067.74C1072.06 97.3801 1075.04 100.36 1075.04 104.72C1075.04 109.02 1072.12 112 1067.88 112ZM1067.5 99.7401H1065.18V109.64H1067.64C1070.56 109.64 1072.34 107.76 1072.34 104.72C1072.34 101.62 1070.52 99.7401 1067.5 99.7401ZM1080.2 112.26C1078.1 112.26 1076.82 111.04 1076.82 109.18C1076.82 107.36 1078.14 106.22 1080.48 106.04L1083.44 105.82V105.6C1083.44 104.26 1082.64 103.72 1081.4 103.72C1079.96 103.72 1079.16 104.32 1079.16 105.36H1077.08C1077.08 103.22 1078.84 101.82 1081.52 101.82C1084.18 101.82 1085.82 103.26 1085.82 106V112H1083.68L1083.5 110.54C1083.08 111.56 1081.74 112.26 1080.2 112.26ZM1081 110.42C1082.5 110.42 1083.46 109.52 1083.46 108V107.48L1081.4 107.64C1079.88 107.78 1079.3 108.28 1079.3 109.08C1079.3 109.98 1079.9 110.42 1081 110.42ZM1090.86 112H1088.42V102.12H1090.66L1090.86 103.28C1091.36 102.46 1092.36 101.82 1093.78 101.82C1095.28 101.82 1096.32 102.56 1096.84 103.7C1097.34 102.56 1098.5 101.82 1100 101.82C1102.4 101.82 1103.72 103.26 1103.72 105.54V112H1101.3V106.18C1101.3 104.76 1100.54 104.02 1099.38 104.02C1098.2 104.02 1097.3 104.78 1097.3 106.4V112H1094.86V106.16C1094.86 104.78 1094.12 104.04 1092.96 104.04C1091.8 104.04 1090.86 104.8 1090.86 106.4V112ZM1109.26 112.26C1107.16 112.26 1105.88 111.04 1105.88 109.18C1105.88 107.36 1107.2 106.22 1109.54 106.04L1112.5 105.82V105.6C1112.5 104.26 1111.7 103.72 1110.46 103.72C1109.02 103.72 1108.22 104.32 1108.22 105.36H1106.14C1106.14 103.22 1107.9 101.82 1110.58 101.82C1113.24 101.82 1114.88 103.26 1114.88 106V112H1112.74L1112.56 110.54C1112.14 111.56 1110.8 112.26 1109.26 112.26ZM1110.06 110.42C1111.56 110.42 1112.52 109.52 1112.52 108V107.48L1110.46 107.64C1108.94 107.78 1108.36 108.28 1108.36 109.08C1108.36 109.98 1108.96 110.42 1110.06 110.42ZM1116.91 106.84C1116.91 103.96 1118.79 101.8 1121.61 101.8C1123.09 101.8 1124.25 102.42 1124.83 103.48L1124.97 102.12H1127.23V111.5C1127.23 114.8 1125.25 116.86 1122.05 116.86C1119.21 116.86 1117.27 115.24 1116.97 112.6H1119.41C1119.57 113.88 1120.55 114.64 1122.05 114.64C1123.73 114.64 1124.81 113.58 1124.81 111.94V110.3C1124.19 111.22 1122.97 111.8 1121.55 111.8C1118.75 111.8 1116.91 109.7 1116.91 106.84ZM1119.37 106.78C1119.37 108.44 1120.43 109.68 1122.03 109.68C1123.71 109.68 1124.75 108.5 1124.75 106.78C1124.75 105.1 1123.73 103.94 1122.03 103.94C1120.41 103.94 1119.37 105.16 1119.37 106.78ZM1134.38 112.26C1131.44 112.26 1129.38 110.12 1129.38 107.06C1129.38 103.96 1131.4 101.82 1134.3 101.82C1137.26 101.82 1139.14 103.8 1139.14 106.88V107.62L1131.7 107.64C1131.88 109.38 1132.8 110.26 1134.42 110.26C1135.76 110.26 1136.64 109.74 1136.92 108.8H1139.18C1138.76 110.96 1136.96 112.26 1134.38 112.26ZM1134.32 103.82C1132.88 103.82 1132 104.6 1131.76 106.08H1136.72C1136.72 104.72 1135.78 103.82 1134.32 103.82ZM1150.24 112H1147.8V104.16H1145.9V102.12H1147.8V99.0401H1150.24V102.12H1152.16V104.16H1150.24V112ZM1153.2 107.04C1153.2 103.96 1155.42 101.84 1158.48 101.84C1161.54 101.84 1163.76 103.96 1163.76 107.04C1163.76 110.12 1161.54 112.24 1158.48 112.24C1155.42 112.24 1153.2 110.12 1153.2 107.04ZM1155.64 107.04C1155.64 108.84 1156.8 110.06 1158.48 110.06C1160.16 110.06 1161.32 108.84 1161.32 107.04C1161.32 105.24 1160.16 104.02 1158.48 104.02C1156.8 104.02 1155.64 105.24 1155.64 107.04ZM1174.85 112H1172.41V104.16H1170.51V102.12H1172.41V99.0401H1174.85V102.12H1176.77V104.16H1174.85V112ZM1180.92 112H1178.48V97.1201H1180.94V103.4C1181.56 102.44 1182.72 101.82 1184.14 101.82C1186.58 101.82 1187.86 103.36 1187.86 105.92V112H1185.42V106.5C1185.42 104.84 1184.6 104.04 1183.36 104.04C1181.82 104.04 1180.92 105.12 1180.92 106.6V112ZM1194.88 112.26C1191.94 112.26 1189.88 110.12 1189.88 107.06C1189.88 103.96 1191.9 101.82 1194.8 101.82C1197.76 101.82 1199.64 103.8 1199.64 106.88V107.62L1192.2 107.64C1192.38 109.38 1193.3 110.26 1194.92 110.26C1196.26 110.26 1197.14 109.74 1197.42 108.8H1199.68C1199.26 110.96 1197.46 112.26 1194.88 112.26ZM1194.82 103.82C1193.38 103.82 1192.5 104.6 1192.26 106.08H1197.22C1197.22 104.72 1196.28 103.82 1194.82 103.82ZM1209.64 112H1207.38V97.1201H1209.82V103.56C1210.46 102.46 1211.78 101.8 1213.28 101.8C1216.1 101.8 1217.82 104 1217.82 107.12C1217.82 110.16 1215.96 112.26 1213.12 112.26C1211.64 112.26 1210.38 111.6 1209.8 110.46L1209.64 112ZM1209.84 107.02C1209.84 108.8 1210.94 110.02 1212.62 110.02C1214.34 110.02 1215.36 108.78 1215.36 107.02C1215.36 105.26 1214.34 104 1212.62 104C1210.94 104 1209.84 105.24 1209.84 107.02ZM1226.17 102.08V104.34H1225.27C1223.51 104.34 1222.41 105.28 1222.41 107.2V112H1219.97V102.14H1222.27L1222.41 103.58C1222.83 102.6 1223.77 101.94 1225.09 101.94C1225.43 101.94 1225.77 101.98 1226.17 102.08ZM1230.57 112.26C1228.47 112.26 1227.19 111.04 1227.19 109.18C1227.19 107.36 1228.51 106.22 1230.85 106.04L1233.81 105.82V105.6C1233.81 104.26 1233.01 103.72 1231.77 103.72C1230.33 103.72 1229.53 104.32 1229.53 105.36H1227.45C1227.45 103.22 1229.21 101.82 1231.89 101.82C1234.55 101.82 1236.19 103.26 1236.19 106V112H1234.05L1233.87 110.54C1233.45 111.56 1232.11 112.26 1230.57 112.26ZM1231.37 110.42C1232.87 110.42 1233.83 109.52 1233.83 108V107.48L1231.77 107.64C1230.25 107.78 1229.67 108.28 1229.67 109.08C1229.67 109.98 1230.27 110.42 1231.37 110.42ZM1240 100.14C1239.16 100.14 1238.5 99.4801 1238.5 98.6601C1238.5 97.8401 1239.16 97.2001 1240 97.2001C1240.8 97.2001 1241.46 97.8401 1241.46 98.6601C1241.46 99.4801 1240.8 100.14 1240 100.14ZM1238.78 112V102.12H1241.22V112H1238.78ZM1246.39 112H1243.95V102.12H1246.21L1246.41 103.4C1247.03 102.4 1248.23 101.82 1249.57 101.82C1252.05 101.82 1253.33 103.36 1253.33 105.92V112H1250.89V106.5C1250.89 104.84 1250.07 104.04 1248.81 104.04C1247.31 104.04 1246.39 105.08 1246.39 106.68V112ZM1264.45 112.26C1262.35 112.26 1261.07 111.04 1261.07 109.18C1261.07 107.36 1262.39 106.22 1264.73 106.04L1267.69 105.82V105.6C1267.69 104.26 1266.89 103.72 1265.65 103.72C1264.21 103.72 1263.41 104.32 1263.41 105.36H1261.33C1261.33 103.22 1263.09 101.82 1265.77 101.82C1268.43 101.82 1270.07 103.26 1270.07 106V112H1267.93L1267.75 110.54C1267.33 111.56 1265.99 112.26 1264.45 112.26ZM1265.25 110.42C1266.75 110.42 1267.71 109.52 1267.71 108V107.48L1265.65 107.64C1264.13 107.78 1263.55 108.28 1263.55 109.08C1263.55 109.98 1264.15 110.42 1265.25 110.42ZM1275.11 112H1272.67V102.12H1274.93L1275.13 103.4C1275.75 102.4 1276.95 101.82 1278.29 101.82C1280.77 101.82 1282.05 103.36 1282.05 105.92V112H1279.61V106.5C1279.61 104.84 1278.79 104.04 1277.53 104.04C1276.03 104.04 1275.11 105.08 1275.11 106.68V112ZM1288.71 112.26C1285.85 112.26 1284.07 110.16 1284.07 107.1C1284.07 104.02 1285.87 101.82 1288.85 101.82C1290.23 101.82 1291.45 102.4 1292.07 103.38V97.1201H1294.49V112H1292.25L1292.09 110.46C1291.49 111.6 1290.21 112.26 1288.71 112.26ZM1289.25 110.02C1290.95 110.02 1292.05 108.8 1292.05 107.02C1292.05 105.24 1290.95 104 1289.25 104C1287.55 104 1286.51 105.26 1286.51 107.02C1286.51 108.78 1287.55 110.02 1289.25 110.02ZM1306.18 112H1303.74V104.16H1301.84V102.12H1303.74V99.0401H1306.18V102.12H1308.1V104.16H1306.18V112ZM1312.26 112H1309.82V97.1201H1312.28V103.4C1312.9 102.44 1314.06 101.82 1315.48 101.82C1317.92 101.82 1319.2 103.36 1319.2 105.92V112H1316.76V106.5C1316.76 104.84 1315.94 104.04 1314.7 104.04C1313.16 104.04 1312.26 105.12 1312.26 106.6V112ZM1326.22 112.26C1323.28 112.26 1321.22 110.12 1321.22 107.06C1321.22 103.96 1323.24 101.82 1326.14 101.82C1329.1 101.82 1330.98 103.8 1330.98 106.88V107.62L1323.54 107.64C1323.72 109.38 1324.64 110.26 1326.26 110.26C1327.6 110.26 1328.48 109.74 1328.76 108.8H1331.02C1330.6 110.96 1328.8 112.26 1326.22 112.26ZM1326.16 103.82C1324.72 103.82 1323.84 104.6 1323.6 106.08H1328.56C1328.56 104.72 1327.62 103.82 1326.16 103.82ZM1061.68 133.04C1061.68 129.98 1063.7 127.82 1066.62 127.82C1069.32 127.82 1071.16 129.32 1071.42 131.7H1068.98C1068.7 130.58 1067.88 130 1066.72 130C1065.16 130 1064.12 131.18 1064.12 133.04C1064.12 134.9 1065.08 136.06 1066.64 136.06C1067.86 136.06 1068.72 135.46 1068.98 134.38H1071.44C1071.14 136.68 1069.22 138.26 1066.64 138.26C1063.64 138.26 1061.68 136.18 1061.68 133.04ZM1077.88 138.26C1074.94 138.26 1072.88 136.12 1072.88 133.06C1072.88 129.96 1074.9 127.82 1077.8 127.82C1080.76 127.82 1082.64 129.8 1082.64 132.88V133.62L1075.2 133.64C1075.38 135.38 1076.3 136.26 1077.92 136.26C1079.26 136.26 1080.14 135.74 1080.42 134.8H1082.68C1082.26 136.96 1080.46 138.26 1077.88 138.26ZM1077.82 129.82C1076.38 129.82 1075.5 130.6 1075.26 132.08H1080.22C1080.22 130.72 1079.28 129.82 1077.82 129.82ZM1087.23 138H1084.79V128.12H1087.05L1087.25 129.4C1087.87 128.4 1089.07 127.82 1090.41 127.82C1092.89 127.82 1094.17 129.36 1094.17 131.92V138H1091.73V132.5C1091.73 130.84 1090.91 130.04 1089.65 130.04C1088.15 130.04 1087.23 131.08 1087.23 132.68V138ZM1100.13 138H1097.69V130.16H1095.79V128.12H1097.69V125.04H1100.13V128.12H1102.05V130.16H1100.13V138ZM1109.96 128.08V130.34H1109.06C1107.3 130.34 1106.2 131.28 1106.2 133.2V138H1103.76V128.14H1106.06L1106.2 129.58C1106.62 128.6 1107.56 127.94 1108.88 127.94C1109.22 127.94 1109.56 127.98 1109.96 128.08ZM1114.36 138.26C1112.26 138.26 1110.98 137.04 1110.98 135.18C1110.98 133.36 1112.3 132.22 1114.64 132.04L1117.6 131.82V131.6C1117.6 130.26 1116.8 129.72 1115.56 129.72C1114.12 129.72 1113.32 130.32 1113.32 131.36H1111.24C1111.24 129.22 1113 127.82 1115.68 127.82C1118.34 127.82 1119.98 129.26 1119.98 132V138H1117.84L1117.66 136.54C1117.24 137.56 1115.9 138.26 1114.36 138.26ZM1115.16 136.42C1116.66 136.42 1117.62 135.52 1117.62 134V133.48L1115.56 133.64C1114.04 133.78 1113.46 134.28 1113.46 135.08C1113.46 135.98 1114.06 136.42 1115.16 136.42ZM1125.04 138H1122.62V123.12H1125.04V138ZM1133.39 142.58V128.12H1135.65L1135.81 129.62C1136.41 128.48 1137.71 127.82 1139.21 127.82C1141.99 127.82 1143.83 129.84 1143.83 132.94C1143.83 136.02 1142.15 138.26 1139.21 138.26C1137.73 138.26 1136.45 137.68 1135.83 136.68V142.58H1133.39ZM1135.85 133.06C1135.85 134.84 1136.95 136.06 1138.63 136.06C1140.35 136.06 1141.37 134.82 1141.37 133.06C1141.37 131.3 1140.35 130.04 1138.63 130.04C1136.95 130.04 1135.85 131.28 1135.85 133.06ZM1150.39 138.26C1147.45 138.26 1145.39 136.12 1145.39 133.06C1145.39 129.96 1147.41 127.82 1150.31 127.82C1153.27 127.82 1155.15 129.8 1155.15 132.88V133.62L1147.71 133.64C1147.89 135.38 1148.81 136.26 1150.43 136.26C1151.77 136.26 1152.65 135.74 1152.93 134.8H1155.19C1154.77 136.96 1152.97 138.26 1150.39 138.26ZM1150.33 129.82C1148.89 129.82 1148.01 130.6 1147.77 132.08H1152.73C1152.73 130.72 1151.79 129.82 1150.33 129.82ZM1163.51 128.08V130.34H1162.61C1160.85 130.34 1159.75 131.28 1159.75 133.2V138H1157.31V128.14H1159.61L1159.75 129.58C1160.17 128.6 1161.11 127.94 1162.43 127.94C1162.77 127.94 1163.11 127.98 1163.51 128.08ZM1166.58 126.14C1165.74 126.14 1165.08 125.48 1165.08 124.66C1165.08 123.84 1165.74 123.2 1166.58 123.2C1167.38 123.2 1168.04 123.84 1168.04 124.66C1168.04 125.48 1167.38 126.14 1166.58 126.14ZM1165.36 138V128.12H1167.8V138H1165.36ZM1170.52 142.58V128.12H1172.78L1172.94 129.62C1173.54 128.48 1174.84 127.82 1176.34 127.82C1179.12 127.82 1180.96 129.84 1180.96 132.94C1180.96 136.02 1179.28 138.26 1176.34 138.26C1174.86 138.26 1173.58 137.68 1172.96 136.68V142.58H1170.52ZM1172.98 133.06C1172.98 134.84 1174.08 136.06 1175.76 136.06C1177.48 136.06 1178.5 134.82 1178.5 133.06C1178.5 131.3 1177.48 130.04 1175.76 130.04C1174.08 130.04 1172.98 131.28 1172.98 133.06ZM1185.54 138H1183.1V123.12H1185.56V129.4C1186.18 128.44 1187.34 127.82 1188.76 127.82C1191.2 127.82 1192.48 129.36 1192.48 131.92V138H1190.04V132.5C1190.04 130.84 1189.22 130.04 1187.98 130.04C1186.44 130.04 1185.54 131.12 1185.54 132.6V138ZM1199.5 138.26C1196.56 138.26 1194.5 136.12 1194.5 133.06C1194.5 129.96 1196.52 127.82 1199.42 127.82C1202.38 127.82 1204.26 129.8 1204.26 132.88V133.62L1196.82 133.64C1197 135.38 1197.92 136.26 1199.54 136.26C1200.88 136.26 1201.76 135.74 1202.04 134.8H1204.3C1203.88 136.96 1202.08 138.26 1199.5 138.26ZM1199.44 129.82C1198 129.82 1197.12 130.6 1196.88 132.08H1201.84C1201.84 130.72 1200.9 129.82 1199.44 129.82ZM1212.61 128.08V130.34H1211.71C1209.95 130.34 1208.85 131.28 1208.85 133.2V138H1206.41V128.14H1208.71L1208.85 129.58C1209.27 128.6 1210.21 127.94 1211.53 127.94C1211.87 127.94 1212.21 127.98 1212.61 128.08ZM1217.01 138.26C1214.91 138.26 1213.63 137.04 1213.63 135.18C1213.63 133.36 1214.95 132.22 1217.29 132.04L1220.25 131.82V131.6C1220.25 130.26 1219.45 129.72 1218.21 129.72C1216.77 129.72 1215.97 130.32 1215.97 131.36H1213.89C1213.89 129.22 1215.65 127.82 1218.33 127.82C1220.99 127.82 1222.63 129.26 1222.63 132V138H1220.49L1220.31 136.54C1219.89 137.56 1218.55 138.26 1217.01 138.26ZM1217.81 136.42C1219.31 136.42 1220.27 135.52 1220.27 134V133.48L1218.21 133.64C1216.69 133.78 1216.11 134.28 1216.11 135.08C1216.11 135.98 1216.71 136.42 1217.81 136.42ZM1227.69 138H1225.27V123.12H1227.69V138ZM1238.48 138H1236.04V128.12H1238.3L1238.5 129.4C1239.12 128.4 1240.32 127.82 1241.66 127.82C1244.14 127.82 1245.42 129.36 1245.42 131.92V138H1242.98V132.5C1242.98 130.84 1242.16 130.04 1240.9 130.04C1239.4 130.04 1238.48 131.08 1238.48 132.68V138ZM1252.44 138.26C1249.5 138.26 1247.44 136.12 1247.44 133.06C1247.44 129.96 1249.46 127.82 1252.36 127.82C1255.32 127.82 1257.2 129.8 1257.2 132.88V133.62L1249.76 133.64C1249.94 135.38 1250.86 136.26 1252.48 136.26C1253.82 136.26 1254.7 135.74 1254.98 134.8H1257.24C1256.82 136.96 1255.02 138.26 1252.44 138.26ZM1252.38 129.82C1250.94 129.82 1250.06 130.6 1249.82 132.08H1254.78C1254.78 130.72 1253.84 129.82 1252.38 129.82ZM1265.55 128.08V130.34H1264.65C1262.89 130.34 1261.79 131.28 1261.79 133.2V138H1259.35V128.14H1261.65L1261.79 129.58C1262.21 128.6 1263.15 127.94 1264.47 127.94C1264.81 127.94 1265.15 127.98 1265.55 128.08ZM1270.5 138L1266.58 128.12H1269.18L1270.9 132.66C1271.32 133.84 1271.66 134.86 1271.78 135.4C1271.92 134.78 1272.28 133.74 1272.7 132.66L1274.5 128.12H1277.02L1272.9 138H1270.5ZM1277.55 133.04C1277.55 129.96 1279.77 127.84 1282.83 127.84C1285.89 127.84 1288.11 129.96 1288.11 133.04C1288.11 136.12 1285.89 138.24 1282.83 138.24C1279.77 138.24 1277.55 136.12 1277.55 133.04ZM1279.99 133.04C1279.99 134.84 1281.15 136.06 1282.83 136.06C1284.51 136.06 1285.67 134.84 1285.67 133.04C1285.67 131.24 1284.51 130.02 1282.83 130.02C1281.15 130.02 1279.99 131.24 1279.99 133.04ZM1296.71 128.12H1299.15V138H1296.89L1296.71 136.68C1296.11 137.62 1294.83 138.26 1293.51 138.26C1291.23 138.26 1289.89 136.72 1289.89 134.3V128.12H1292.33V133.44C1292.33 135.32 1293.07 136.08 1294.43 136.08C1295.97 136.08 1296.71 135.18 1296.71 133.3V128.12ZM1300.91 135H1303.23C1303.25 135.86 1303.89 136.4 1305.01 136.4C1306.15 136.4 1306.77 135.94 1306.77 135.22C1306.77 134.72 1306.51 134.36 1305.63 134.16L1303.85 133.74C1302.07 133.34 1301.21 132.5 1301.21 130.92C1301.21 128.98 1302.85 127.82 1305.13 127.82C1307.35 127.82 1308.85 129.1 1308.87 131.02H1306.55C1306.53 130.18 1305.97 129.64 1305.03 129.64C1304.07 129.64 1303.51 130.08 1303.51 130.82C1303.51 131.38 1303.95 131.74 1304.79 131.94L1306.57 132.36C1308.23 132.74 1309.07 133.5 1309.07 135.02C1309.07 137.02 1307.37 138.26 1304.93 138.26C1302.47 138.26 1300.91 136.94 1300.91 135ZM1061.5 161H1063.82C1063.84 161.86 1064.48 162.4 1065.6 162.4C1066.74 162.4 1067.36 161.94 1067.36 161.22C1067.36 160.72 1067.1 160.36 1066.22 160.16L1064.44 159.74C1062.66 159.34 1061.8 158.5 1061.8 156.92C1061.8 154.98 1063.44 153.82 1065.72 153.82C1067.94 153.82 1069.44 155.1 1069.46 157.02H1067.14C1067.12 156.18 1066.56 155.64 1065.62 155.64C1064.66 155.64 1064.1 156.08 1064.1 156.82C1064.1 157.38 1064.54 157.74 1065.38 157.94L1067.16 158.36C1068.82 158.74 1069.66 159.5 1069.66 161.02C1069.66 163.02 1067.96 164.26 1065.52 164.26C1063.06 164.26 1061.5 162.94 1061.5 161ZM1070.66 168.58V166.54H1072.12C1073.08 166.54 1073.68 166.32 1074.1 165.16L1074.38 164.42L1070.4 154.12H1072.98L1075.52 161.32L1078.2 154.12H1080.72L1075.88 166.2C1075.14 168.04 1074.1 168.8 1072.48 168.8C1071.8 168.8 1071.2 168.72 1070.66 168.58ZM1081.33 161H1083.65C1083.67 161.86 1084.31 162.4 1085.43 162.4C1086.57 162.4 1087.19 161.94 1087.19 161.22C1087.19 160.72 1086.93 160.36 1086.05 160.16L1084.27 159.74C1082.49 159.34 1081.63 158.5 1081.63 156.92C1081.63 154.98 1083.27 153.82 1085.55 153.82C1087.77 153.82 1089.27 155.1 1089.29 157.02H1086.97C1086.95 156.18 1086.39 155.64 1085.45 155.64C1084.49 155.64 1083.93 156.08 1083.93 156.82C1083.93 157.38 1084.37 157.74 1085.21 157.94L1086.99 158.36C1088.65 158.74 1089.49 159.5 1089.49 161.02C1089.49 163.02 1087.79 164.26 1085.35 164.26C1082.89 164.26 1081.33 162.94 1081.33 161ZM1094.91 164H1092.47V156.16H1090.57V154.12H1092.47V151.04H1094.91V154.12H1096.83V156.16H1094.91V164ZM1102.87 164.26C1099.93 164.26 1097.87 162.12 1097.87 159.06C1097.87 155.96 1099.89 153.82 1102.79 153.82C1105.75 153.82 1107.63 155.8 1107.63 158.88V159.62L1100.19 159.64C1100.37 161.38 1101.29 162.26 1102.91 162.26C1104.25 162.26 1105.13 161.74 1105.41 160.8H1107.67C1107.25 162.96 1105.45 164.26 1102.87 164.26ZM1102.81 155.82C1101.37 155.82 1100.49 156.6 1100.25 158.08H1105.21C1105.21 156.72 1104.27 155.82 1102.81 155.82ZM1112.22 164H1109.78V154.12H1112.02L1112.22 155.28C1112.72 154.46 1113.72 153.82 1115.14 153.82C1116.64 153.82 1117.68 154.56 1118.2 155.7C1118.7 154.56 1119.86 153.82 1121.36 153.82C1123.76 153.82 1125.08 155.26 1125.08 157.54V164H1122.66V158.18C1122.66 156.76 1121.9 156.02 1120.74 156.02C1119.56 156.02 1118.66 156.78 1118.66 158.4V164H1116.22V158.16C1116.22 156.78 1115.48 156.04 1114.32 156.04C1113.16 156.04 1112.22 156.8 1112.22 158.4V164ZM1132.69 159.04C1132.69 155.98 1134.71 153.82 1137.63 153.82C1140.33 153.82 1142.17 155.32 1142.43 157.7H1139.99C1139.71 156.58 1138.89 156 1137.73 156C1136.17 156 1135.13 157.18 1135.13 159.04C1135.13 160.9 1136.09 162.06 1137.65 162.06C1138.87 162.06 1139.73 161.46 1139.99 160.38H1142.45C1142.15 162.68 1140.23 164.26 1137.65 164.26C1134.65 164.26 1132.69 162.18 1132.69 159.04ZM1147.41 164.26C1145.31 164.26 1144.03 163.04 1144.03 161.18C1144.03 159.36 1145.35 158.22 1147.69 158.04L1150.65 157.82V157.6C1150.65 156.26 1149.85 155.72 1148.61 155.72C1147.17 155.72 1146.37 156.32 1146.37 157.36H1144.29C1144.29 155.22 1146.05 153.82 1148.73 153.82C1151.39 153.82 1153.03 155.26 1153.03 158V164H1150.89L1150.71 162.54C1150.29 163.56 1148.95 164.26 1147.41 164.26ZM1148.21 162.42C1149.71 162.42 1150.67 161.52 1150.67 160V159.48L1148.61 159.64C1147.09 159.78 1146.51 160.28 1146.51 161.08C1146.51 161.98 1147.11 162.42 1148.21 162.42ZM1162.32 154.12H1164.76V164H1162.5L1162.32 162.68C1161.72 163.62 1160.44 164.26 1159.12 164.26C1156.84 164.26 1155.5 162.72 1155.5 160.3V154.12H1157.94V159.44C1157.94 161.32 1158.68 162.08 1160.04 162.08C1161.58 162.08 1162.32 161.18 1162.32 159.3V154.12ZM1166.53 161H1168.85C1168.87 161.86 1169.51 162.4 1170.63 162.4C1171.77 162.4 1172.39 161.94 1172.39 161.22C1172.39 160.72 1172.13 160.36 1171.25 160.16L1169.47 159.74C1167.69 159.34 1166.83 158.5 1166.83 156.92C1166.83 154.98 1168.47 153.82 1170.75 153.82C1172.97 153.82 1174.47 155.1 1174.49 157.02H1172.17C1172.15 156.18 1171.59 155.64 1170.65 155.64C1169.69 155.64 1169.13 156.08 1169.13 156.82C1169.13 157.38 1169.57 157.74 1170.41 157.94L1172.19 158.36C1173.85 158.74 1174.69 159.5 1174.69 161.02C1174.69 163.02 1172.99 164.26 1170.55 164.26C1168.09 164.26 1166.53 162.94 1166.53 161ZM1177.97 152.14C1177.13 152.14 1176.47 151.48 1176.47 150.66C1176.47 149.84 1177.13 149.2 1177.97 149.2C1178.77 149.2 1179.43 149.84 1179.43 150.66C1179.43 151.48 1178.77 152.14 1177.97 152.14ZM1176.75 164V154.12H1179.19V164H1176.75ZM1184.35 164H1181.91V154.12H1184.17L1184.37 155.4C1184.99 154.4 1186.19 153.82 1187.53 153.82C1190.01 153.82 1191.29 155.36 1191.29 157.92V164H1188.85V158.5C1188.85 156.84 1188.03 156.04 1186.77 156.04C1185.27 156.04 1184.35 157.08 1184.35 158.68V164ZM1193.32 158.84C1193.32 155.96 1195.2 153.8 1198.02 153.8C1199.5 153.8 1200.66 154.42 1201.24 155.48L1201.38 154.12H1203.64V163.5C1203.64 166.8 1201.66 168.86 1198.46 168.86C1195.62 168.86 1193.68 167.24 1193.38 164.6H1195.82C1195.98 165.88 1196.96 166.64 1198.46 166.64C1200.14 166.64 1201.22 165.58 1201.22 163.94V162.3C1200.6 163.22 1199.38 163.8 1197.96 163.8C1195.16 163.8 1193.32 161.7 1193.32 158.84ZM1195.78 158.78C1195.78 160.44 1196.84 161.68 1198.44 161.68C1200.12 161.68 1201.16 160.5 1201.16 158.78C1201.16 157.1 1200.14 155.94 1198.44 155.94C1196.82 155.94 1195.78 157.16 1195.78 158.78ZM1214.22 164H1211.96V149.12H1214.4V155.56C1215.04 154.46 1216.36 153.8 1217.86 153.8C1220.68 153.8 1222.4 156 1222.4 159.12C1222.4 162.16 1220.54 164.26 1217.7 164.26C1216.22 164.26 1214.96 163.6 1214.38 162.46L1214.22 164ZM1214.42 159.02C1214.42 160.8 1215.52 162.02 1217.2 162.02C1218.92 162.02 1219.94 160.78 1219.94 159.02C1219.94 157.26 1218.92 156 1217.2 156C1215.52 156 1214.42 157.24 1214.42 159.02ZM1228.96 164.26C1226.02 164.26 1223.96 162.12 1223.96 159.06C1223.96 155.96 1225.98 153.82 1228.88 153.82C1231.84 153.82 1233.72 155.8 1233.72 158.88V159.62L1226.28 159.64C1226.46 161.38 1227.38 162.26 1229 162.26C1230.34 162.26 1231.22 161.74 1231.5 160.8H1233.76C1233.34 162.96 1231.54 164.26 1228.96 164.26ZM1228.9 155.82C1227.46 155.82 1226.58 156.6 1226.34 158.08H1231.3C1231.3 156.72 1230.36 155.82 1228.9 155.82ZM1238.31 164H1235.87V149.12H1238.33V155.4C1238.95 154.44 1240.11 153.82 1241.53 153.82C1243.97 153.82 1245.25 155.36 1245.25 157.92V164H1242.81V158.5C1242.81 156.84 1241.99 156.04 1240.75 156.04C1239.21 156.04 1238.31 157.12 1238.31 158.6V164ZM1250.79 164.26C1248.69 164.26 1247.41 163.04 1247.41 161.18C1247.41 159.36 1248.73 158.22 1251.07 158.04L1254.03 157.82V157.6C1254.03 156.26 1253.23 155.72 1251.99 155.72C1250.55 155.72 1249.75 156.32 1249.75 157.36H1247.67C1247.67 155.22 1249.43 153.82 1252.11 153.82C1254.77 153.82 1256.41 155.26 1256.41 158V164H1254.27L1254.09 162.54C1253.67 163.56 1252.33 164.26 1250.79 164.26ZM1251.59 162.42C1253.09 162.42 1254.05 161.52 1254.05 160V159.48L1251.99 159.64C1250.47 159.78 1249.89 160.28 1249.89 161.08C1249.89 161.98 1250.49 162.42 1251.59 162.42ZM1261.42 164L1257.5 154.12H1260.1L1261.82 158.66C1262.24 159.84 1262.58 160.86 1262.7 161.4C1262.84 160.78 1263.2 159.74 1263.62 158.66L1265.42 154.12H1267.94L1263.82 164H1261.42ZM1270.76 152.14C1269.92 152.14 1269.26 151.48 1269.26 150.66C1269.26 149.84 1269.92 149.2 1270.76 149.2C1271.56 149.2 1272.22 149.84 1272.22 150.66C1272.22 151.48 1271.56 152.14 1270.76 152.14ZM1269.54 164V154.12H1271.98V164H1269.54ZM1274.12 159.04C1274.12 155.96 1276.34 153.84 1279.4 153.84C1282.46 153.84 1284.68 155.96 1284.68 159.04C1284.68 162.12 1282.46 164.24 1279.4 164.24C1276.34 164.24 1274.12 162.12 1274.12 159.04ZM1276.56 159.04C1276.56 160.84 1277.72 162.06 1279.4 162.06C1281.08 162.06 1282.24 160.84 1282.24 159.04C1282.24 157.24 1281.08 156.02 1279.4 156.02C1277.72 156.02 1276.56 157.24 1276.56 159.04ZM1293.02 154.08V156.34H1292.12C1290.36 156.34 1289.26 157.28 1289.26 159.2V164H1286.82V154.14H1289.12L1289.26 155.58C1289.68 154.6 1290.62 153.94 1291.94 153.94C1292.28 153.94 1292.62 153.98 1293.02 154.08ZM1297.42 164.26C1295.32 164.26 1294.04 163.04 1294.04 161.18C1294.04 159.36 1295.36 158.22 1297.7 158.04L1300.66 157.82V157.6C1300.66 156.26 1299.86 155.72 1298.62 155.72C1297.18 155.72 1296.38 156.32 1296.38 157.36H1294.3C1294.3 155.22 1296.06 153.82 1298.74 153.82C1301.4 153.82 1303.04 155.26 1303.04 158V164H1300.9L1300.72 162.54C1300.3 163.56 1298.96 164.26 1297.42 164.26ZM1298.22 162.42C1299.72 162.42 1300.68 161.52 1300.68 160V159.48L1298.62 159.64C1297.1 159.78 1296.52 160.28 1296.52 161.08C1296.52 161.98 1297.12 162.42 1298.22 162.42ZM1308.09 164H1305.67V149.12H1308.09V164ZM1061.68 185.04C1061.68 181.98 1063.7 179.82 1066.62 179.82C1069.32 179.82 1071.16 181.32 1071.42 183.7H1068.98C1068.7 182.58 1067.88 182 1066.72 182C1065.16 182 1064.12 183.18 1064.12 185.04C1064.12 186.9 1065.08 188.06 1066.64 188.06C1067.86 188.06 1068.72 187.46 1068.98 186.38H1071.44C1071.14 188.68 1069.22 190.26 1066.64 190.26C1063.64 190.26 1061.68 188.18 1061.68 185.04ZM1075.9 190H1073.46V175.12H1075.92V181.4C1076.54 180.44 1077.7 179.82 1079.12 179.82C1081.56 179.82 1082.84 181.36 1082.84 183.92V190H1080.4V184.5C1080.4 182.84 1079.58 182.04 1078.34 182.04C1076.8 182.04 1075.9 183.12 1075.9 184.6V190ZM1088.37 190.26C1086.27 190.26 1084.99 189.04 1084.99 187.18C1084.99 185.36 1086.31 184.22 1088.65 184.04L1091.61 183.82V183.6C1091.61 182.26 1090.81 181.72 1089.57 181.72C1088.13 181.72 1087.33 182.32 1087.33 183.36H1085.25C1085.25 181.22 1087.01 179.82 1089.69 179.82C1092.35 179.82 1093.99 181.26 1093.99 184V190H1091.85L1091.67 188.54C1091.25 189.56 1089.91 190.26 1088.37 190.26ZM1089.17 188.42C1090.67 188.42 1091.63 187.52 1091.63 186V185.48L1089.57 185.64C1088.05 185.78 1087.47 186.28 1087.47 187.08C1087.47 187.98 1088.07 188.42 1089.17 188.42ZM1099.03 190H1096.59V180.12H1098.85L1099.05 181.4C1099.67 180.4 1100.87 179.82 1102.21 179.82C1104.69 179.82 1105.97 181.36 1105.97 183.92V190H1103.53V184.5C1103.53 182.84 1102.71 182.04 1101.45 182.04C1099.95 182.04 1099.03 183.08 1099.03 184.68V190ZM1108.01 184.84C1108.01 181.96 1109.89 179.8 1112.71 179.8C1114.19 179.8 1115.35 180.42 1115.93 181.48L1116.07 180.12H1118.33V189.5C1118.33 192.8 1116.35 194.86 1113.15 194.86C1110.31 194.86 1108.37 193.24 1108.07 190.6H1110.51C1110.67 191.88 1111.65 192.64 1113.15 192.64C1114.83 192.64 1115.91 191.58 1115.91 189.94V188.3C1115.29 189.22 1114.07 189.8 1112.65 189.8C1109.85 189.8 1108.01 187.7 1108.01 184.84ZM1110.47 184.78C1110.47 186.44 1111.53 187.68 1113.13 187.68C1114.81 187.68 1115.85 186.5 1115.85 184.78C1115.85 183.1 1114.83 181.94 1113.13 181.94C1111.51 181.94 1110.47 183.16 1110.47 184.78ZM1125.47 190.26C1122.53 190.26 1120.47 188.12 1120.47 185.06C1120.47 181.96 1122.49 179.82 1125.39 179.82C1128.35 179.82 1130.23 181.8 1130.23 184.88V185.62L1122.79 185.64C1122.97 187.38 1123.89 188.26 1125.51 188.26C1126.85 188.26 1127.73 187.74 1128.01 186.8H1130.27C1129.85 188.96 1128.05 190.26 1125.47 190.26ZM1125.41 181.82C1123.97 181.82 1123.09 182.6 1122.85 184.08H1127.81C1127.81 182.72 1126.87 181.82 1125.41 181.82ZM1131.63 187H1133.95C1133.97 187.86 1134.61 188.4 1135.73 188.4C1136.87 188.4 1137.49 187.94 1137.49 187.22C1137.49 186.72 1137.23 186.36 1136.35 186.16L1134.57 185.74C1132.79 185.34 1131.93 184.5 1131.93 182.92C1131.93 180.98 1133.57 179.82 1135.85 179.82C1138.07 179.82 1139.57 181.1 1139.59 183.02H1137.27C1137.25 182.18 1136.69 181.64 1135.75 181.64C1134.79 181.64 1134.23 182.08 1134.23 182.82C1134.23 183.38 1134.67 183.74 1135.51 183.94L1137.29 184.36C1138.95 184.74 1139.79 185.5 1139.79 187.02C1139.79 189.02 1138.09 190.26 1135.65 190.26C1133.19 190.26 1131.63 188.94 1131.63 187ZM1145.05 189.12C1145.05 190.78 1143.85 192.1 1142.23 192.3V191.32C1143.13 191.16 1143.81 190.62 1143.81 189.92C1143.65 190 1143.47 190.04 1143.23 190.04C1142.45 190.04 1141.81 189.46 1141.81 188.66C1141.81 187.7 1142.43 187.06 1143.33 187.06C1144.33 187.06 1145.05 187.88 1145.05 189.12ZM1156.76 190H1154.32V182.16H1152.42V180.12H1154.32V177.04H1156.76V180.12H1158.68V182.16H1156.76V190ZM1166.59 180.08V182.34H1165.69C1163.93 182.34 1162.83 183.28 1162.83 185.2V190H1160.39V180.14H1162.69L1162.83 181.58C1163.25 180.6 1164.19 179.94 1165.51 179.94C1165.85 179.94 1166.19 179.98 1166.59 180.08ZM1172.53 190.26C1169.59 190.26 1167.53 188.12 1167.53 185.06C1167.53 181.96 1169.55 179.82 1172.45 179.82C1175.41 179.82 1177.29 181.8 1177.29 184.88V185.62L1169.85 185.64C1170.03 187.38 1170.95 188.26 1172.57 188.26C1173.91 188.26 1174.79 187.74 1175.07 186.8H1177.33C1176.91 188.96 1175.11 190.26 1172.53 190.26ZM1172.47 181.82C1171.03 181.82 1170.15 182.6 1169.91 184.08H1174.87C1174.87 182.72 1173.93 181.82 1172.47 181.82ZM1181.89 190H1179.45V180.12H1181.69L1181.89 181.28C1182.39 180.46 1183.39 179.82 1184.81 179.82C1186.31 179.82 1187.35 180.56 1187.87 181.7C1188.37 180.56 1189.53 179.82 1191.03 179.82C1193.43 179.82 1194.75 181.26 1194.75 183.54V190H1192.33V184.18C1192.33 182.76 1191.57 182.02 1190.41 182.02C1189.23 182.02 1188.33 182.78 1188.33 184.4V190H1185.89V184.16C1185.89 182.78 1185.15 182.04 1183.99 182.04C1182.83 182.04 1181.89 182.8 1181.89 184.4V190ZM1196.76 185.04C1196.76 181.96 1198.98 179.84 1202.04 179.84C1205.1 179.84 1207.32 181.96 1207.32 185.04C1207.32 188.12 1205.1 190.24 1202.04 190.24C1198.98 190.24 1196.76 188.12 1196.76 185.04ZM1199.2 185.04C1199.2 186.84 1200.36 188.06 1202.04 188.06C1203.72 188.06 1204.88 186.84 1204.88 185.04C1204.88 183.24 1203.72 182.02 1202.04 182.02C1200.36 182.02 1199.2 183.24 1199.2 185.04ZM1215.65 180.08V182.34H1214.75C1212.99 182.34 1211.89 183.28 1211.89 185.2V190H1209.45V180.14H1211.75L1211.89 181.58C1212.31 180.6 1213.25 179.94 1214.57 179.94C1214.91 179.94 1215.25 179.98 1215.65 180.08ZM1216.75 187H1219.07C1219.09 187.86 1219.73 188.4 1220.85 188.4C1221.99 188.4 1222.61 187.94 1222.61 187.22C1222.61 186.72 1222.35 186.36 1221.47 186.16L1219.69 185.74C1217.91 185.34 1217.05 184.5 1217.05 182.92C1217.05 180.98 1218.69 179.82 1220.97 179.82C1223.19 179.82 1224.69 181.1 1224.71 183.02H1222.39C1222.37 182.18 1221.81 181.64 1220.87 181.64C1219.91 181.64 1219.35 182.08 1219.35 182.82C1219.35 183.38 1219.79 183.74 1220.63 183.94L1222.41 184.36C1224.07 184.74 1224.91 185.5 1224.91 187.02C1224.91 189.02 1223.21 190.26 1220.77 190.26C1218.31 190.26 1216.75 188.94 1216.75 187ZM1230.17 189.12C1230.17 190.78 1228.97 192.1 1227.35 192.3V191.32C1228.25 191.16 1228.93 190.62 1228.93 189.92C1228.77 190 1228.59 190.04 1228.35 190.04C1227.57 190.04 1226.93 189.46 1226.93 188.66C1226.93 187.7 1227.55 187.06 1228.45 187.06C1229.45 187.06 1230.17 187.88 1230.17 189.12ZM1239.74 178.14C1238.9 178.14 1238.24 177.48 1238.24 176.66C1238.24 175.84 1238.9 175.2 1239.74 175.2C1240.54 175.2 1241.2 175.84 1241.2 176.66C1241.2 177.48 1240.54 178.14 1239.74 178.14ZM1238.52 190V180.12H1240.96V190H1238.52ZM1246.12 190H1243.68V180.12H1245.94L1246.14 181.4C1246.76 180.4 1247.96 179.82 1249.3 179.82C1251.78 179.82 1253.06 181.36 1253.06 183.92V190H1250.62V184.5C1250.62 182.84 1249.8 182.04 1248.54 182.04C1247.04 182.04 1246.12 183.08 1246.12 184.68V190ZM1254.78 187H1257.1C1257.12 187.86 1257.76 188.4 1258.88 188.4C1260.02 188.4 1260.64 187.94 1260.64 187.22C1260.64 186.72 1260.38 186.36 1259.5 186.16L1257.72 185.74C1255.94 185.34 1255.08 184.5 1255.08 182.92C1255.08 180.98 1256.72 179.82 1259 179.82C1261.22 179.82 1262.72 181.1 1262.74 183.02H1260.42C1260.4 182.18 1259.84 181.64 1258.9 181.64C1257.94 181.64 1257.38 182.08 1257.38 182.82C1257.38 183.38 1257.82 183.74 1258.66 183.94L1260.44 184.36C1262.1 184.74 1262.94 185.5 1262.94 187.02C1262.94 189.02 1261.24 190.26 1258.8 190.26C1256.34 190.26 1254.78 188.94 1254.78 187ZM1264.42 185.04C1264.42 181.96 1266.64 179.84 1269.7 179.84C1272.76 179.84 1274.98 181.96 1274.98 185.04C1274.98 188.12 1272.76 190.24 1269.7 190.24C1266.64 190.24 1264.42 188.12 1264.42 185.04ZM1266.86 185.04C1266.86 186.84 1268.02 188.06 1269.7 188.06C1271.38 188.06 1272.54 186.84 1272.54 185.04C1272.54 183.24 1271.38 182.02 1269.7 182.02C1268.02 182.02 1266.86 183.24 1266.86 185.04ZM1279.55 190H1277.11V180.12H1279.35L1279.55 181.28C1280.05 180.46 1281.05 179.82 1282.47 179.82C1283.97 179.82 1285.01 180.56 1285.53 181.7C1286.03 180.56 1287.19 179.82 1288.69 179.82C1291.09 179.82 1292.41 181.26 1292.41 183.54V190H1289.99V184.18C1289.99 182.76 1289.23 182.02 1288.07 182.02C1286.89 182.02 1285.99 182.78 1285.99 184.4V190H1283.55V184.16C1283.55 182.78 1282.81 182.04 1281.65 182.04C1280.49 182.04 1279.55 182.8 1279.55 184.4V190ZM1297.44 190H1295V180.12H1297.26L1297.46 181.4C1298.08 180.4 1299.28 179.82 1300.62 179.82C1303.1 179.82 1304.38 181.36 1304.38 183.92V190H1301.94V184.5C1301.94 182.84 1301.12 182.04 1299.86 182.04C1298.36 182.04 1297.44 183.08 1297.44 184.68V190ZM1308.2 178.14C1307.36 178.14 1306.7 177.48 1306.7 176.66C1306.7 175.84 1307.36 175.2 1308.2 175.2C1309 175.2 1309.66 175.84 1309.66 176.66C1309.66 177.48 1309 178.14 1308.2 178.14ZM1306.98 190V180.12H1309.42V190H1306.98ZM1315.08 190.26C1312.98 190.26 1311.7 189.04 1311.7 187.18C1311.7 185.36 1313.02 184.22 1315.36 184.04L1318.32 183.82V183.6C1318.32 182.26 1317.52 181.72 1316.28 181.72C1314.84 181.72 1314.04 182.32 1314.04 183.36H1311.96C1311.96 181.22 1313.72 179.82 1316.4 179.82C1319.06 179.82 1320.7 181.26 1320.7 184V190H1318.56L1318.38 188.54C1317.96 189.56 1316.62 190.26 1315.08 190.26ZM1315.88 188.42C1317.38 188.42 1318.34 187.52 1318.34 186V185.48L1316.28 185.64C1314.76 185.78 1314.18 186.28 1314.18 187.08C1314.18 187.98 1314.78 188.42 1315.88 188.42ZM1326.56 189.12C1326.56 190.78 1325.36 192.1 1323.74 192.3V191.32C1324.64 191.16 1325.32 190.62 1325.32 189.92C1325.16 190 1324.98 190.04 1324.74 190.04C1323.96 190.04 1323.32 189.46 1323.32 188.66C1323.32 187.7 1323.94 187.06 1324.84 187.06C1325.84 187.06 1326.56 187.88 1326.56 189.12ZM1064.7 216H1062.26V206.12H1064.5L1064.7 207.28C1065.2 206.46 1066.2 205.82 1067.62 205.82C1069.12 205.82 1070.16 206.56 1070.68 207.7C1071.18 206.56 1072.34 205.82 1073.84 205.82C1076.24 205.82 1077.56 207.26 1077.56 209.54V216H1075.14V210.18C1075.14 208.76 1074.38 208.02 1073.22 208.02C1072.04 208.02 1071.14 208.78 1071.14 210.4V216H1068.7V210.16C1068.7 208.78 1067.96 208.04 1066.8 208.04C1065.64 208.04 1064.7 208.8 1064.7 210.4V216ZM1084.58 216.26C1081.64 216.26 1079.58 214.12 1079.58 211.06C1079.58 207.96 1081.6 205.82 1084.5 205.82C1087.46 205.82 1089.34 207.8 1089.34 210.88V211.62L1081.9 211.64C1082.08 213.38 1083 214.26 1084.62 214.26C1085.96 214.26 1086.84 213.74 1087.12 212.8H1089.38C1088.96 214.96 1087.16 216.26 1084.58 216.26ZM1084.52 207.82C1083.08 207.82 1082.2 208.6 1081.96 210.08H1086.92C1086.92 208.72 1085.98 207.82 1084.52 207.82ZM1093.93 216H1091.49V206.12H1093.73L1093.93 207.28C1094.43 206.46 1095.43 205.82 1096.85 205.82C1098.35 205.82 1099.39 206.56 1099.91 207.7C1100.41 206.56 1101.57 205.82 1103.07 205.82C1105.47 205.82 1106.79 207.26 1106.79 209.54V216H1104.37V210.18C1104.37 208.76 1103.61 208.02 1102.45 208.02C1101.27 208.02 1100.37 208.78 1100.37 210.4V216H1097.93V210.16C1097.93 208.78 1097.19 208.04 1096.03 208.04C1094.87 208.04 1093.93 208.8 1093.93 210.4V216ZM1108.8 211.04C1108.8 207.96 1111.02 205.84 1114.08 205.84C1117.14 205.84 1119.36 207.96 1119.36 211.04C1119.36 214.12 1117.14 216.24 1114.08 216.24C1111.02 216.24 1108.8 214.12 1108.8 211.04ZM1111.24 211.04C1111.24 212.84 1112.4 214.06 1114.08 214.06C1115.76 214.06 1116.92 212.84 1116.92 211.04C1116.92 209.24 1115.76 208.02 1114.08 208.02C1112.4 208.02 1111.24 209.24 1111.24 211.04ZM1127.7 206.08V208.34H1126.8C1125.04 208.34 1123.94 209.28 1123.94 211.2V216H1121.5V206.14H1123.8L1123.94 207.58C1124.36 206.6 1125.3 205.94 1126.62 205.94C1126.96 205.94 1127.3 205.98 1127.7 206.08ZM1128.98 220.58V218.54H1130.44C1131.4 218.54 1132 218.32 1132.42 217.16L1132.7 216.42L1128.72 206.12H1131.3L1133.84 213.32L1136.52 206.12H1139.04L1134.2 218.2C1133.46 220.04 1132.42 220.8 1130.8 220.8C1130.12 220.8 1129.52 220.72 1128.98 220.58ZM1148.68 216H1146.26V201.12H1148.68V216ZM1150.86 211.04C1150.86 207.96 1153.08 205.84 1156.14 205.84C1159.2 205.84 1161.42 207.96 1161.42 211.04C1161.42 214.12 1159.2 216.24 1156.14 216.24C1153.08 216.24 1150.86 214.12 1150.86 211.04ZM1153.3 211.04C1153.3 212.84 1154.46 214.06 1156.14 214.06C1157.82 214.06 1158.98 212.84 1158.98 211.04C1158.98 209.24 1157.82 208.02 1156.14 208.02C1154.46 208.02 1153.3 209.24 1153.3 211.04ZM1162.79 213H1165.11C1165.13 213.86 1165.77 214.4 1166.89 214.4C1168.03 214.4 1168.65 213.94 1168.65 213.22C1168.65 212.72 1168.39 212.36 1167.51 212.16L1165.73 211.74C1163.95 211.34 1163.09 210.5 1163.09 208.92C1163.09 206.98 1164.73 205.82 1167.01 205.82C1169.23 205.82 1170.73 207.1 1170.75 209.02H1168.43C1168.41 208.18 1167.85 207.64 1166.91 207.64C1165.95 207.64 1165.39 208.08 1165.39 208.82C1165.39 209.38 1165.83 209.74 1166.67 209.94L1168.45 210.36C1170.11 210.74 1170.95 211.5 1170.95 213.02C1170.95 215.02 1169.25 216.26 1166.81 216.26C1164.35 216.26 1162.79 214.94 1162.79 213ZM1172.25 213H1174.57C1174.59 213.86 1175.23 214.4 1176.35 214.4C1177.49 214.4 1178.11 213.94 1178.11 213.22C1178.11 212.72 1177.85 212.36 1176.97 212.16L1175.19 211.74C1173.41 211.34 1172.55 210.5 1172.55 208.92C1172.55 206.98 1174.19 205.82 1176.47 205.82C1178.69 205.82 1180.19 207.1 1180.21 209.02H1177.89C1177.87 208.18 1177.31 207.64 1176.37 207.64C1175.41 207.64 1174.85 208.08 1174.85 208.82C1174.85 209.38 1175.29 209.74 1176.13 209.94L1177.91 210.36C1179.57 210.74 1180.41 211.5 1180.41 213.02C1180.41 215.02 1178.71 216.26 1176.27 216.26C1173.81 216.26 1172.25 214.94 1172.25 213Z" fill="black"/>
<path id="Vector 2249_5" d="M973 143H1051" stroke="black" stroke-width="3" stroke-linecap="round"/>
</g>
<g id="2_TEXT">
<path id="Damage to lungs" d="M1122.88 335H1117.62V320.38H1122.74C1127.06 320.38 1130.04 323.36 1130.04 327.72C1130.04 332.02 1127.12 335 1122.88 335ZM1122.5 322.74H1120.18V332.64H1122.64C1125.56 332.64 1127.34 330.76 1127.34 327.72C1127.34 324.62 1125.52 322.74 1122.5 322.74ZM1135.21 335.26C1133.11 335.26 1131.83 334.04 1131.83 332.18C1131.83 330.36 1133.15 329.22 1135.49 329.04L1138.45 328.82V328.6C1138.45 327.26 1137.65 326.72 1136.41 326.72C1134.97 326.72 1134.17 327.32 1134.17 328.36H1132.09C1132.09 326.22 1133.85 324.82 1136.53 324.82C1139.19 324.82 1140.83 326.26 1140.83 329V335H1138.69L1138.51 333.54C1138.09 334.56 1136.75 335.26 1135.21 335.26ZM1136.01 333.42C1137.51 333.42 1138.47 332.52 1138.47 331V330.48L1136.41 330.64C1134.89 330.78 1134.31 331.28 1134.31 332.08C1134.31 332.98 1134.91 333.42 1136.01 333.42ZM1145.86 335H1143.42V325.12H1145.66L1145.86 326.28C1146.36 325.46 1147.36 324.82 1148.78 324.82C1150.28 324.82 1151.32 325.56 1151.84 326.7C1152.34 325.56 1153.5 324.82 1155 324.82C1157.4 324.82 1158.72 326.26 1158.72 328.54V335H1156.3V329.18C1156.3 327.76 1155.54 327.02 1154.38 327.02C1153.2 327.02 1152.3 327.78 1152.3 329.4V335H1149.86V329.16C1149.86 327.78 1149.12 327.04 1147.96 327.04C1146.8 327.04 1145.86 327.8 1145.86 329.4V335ZM1164.26 335.26C1162.16 335.26 1160.88 334.04 1160.88 332.18C1160.88 330.36 1162.2 329.22 1164.54 329.04L1167.5 328.82V328.6C1167.5 327.26 1166.7 326.72 1165.46 326.72C1164.02 326.72 1163.22 327.32 1163.22 328.36H1161.14C1161.14 326.22 1162.9 324.82 1165.58 324.82C1168.24 324.82 1169.88 326.26 1169.88 329V335H1167.74L1167.56 333.54C1167.14 334.56 1165.8 335.26 1164.26 335.26ZM1165.06 333.42C1166.56 333.42 1167.52 332.52 1167.52 331V330.48L1165.46 330.64C1163.94 330.78 1163.36 331.28 1163.36 332.08C1163.36 332.98 1163.96 333.42 1165.06 333.42ZM1171.92 329.84C1171.92 326.96 1173.8 324.8 1176.62 324.8C1178.1 324.8 1179.26 325.42 1179.84 326.48L1179.98 325.12H1182.24V334.5C1182.24 337.8 1180.26 339.86 1177.06 339.86C1174.22 339.86 1172.28 338.24 1171.98 335.6H1174.42C1174.58 336.88 1175.56 337.64 1177.06 337.64C1178.74 337.64 1179.82 336.58 1179.82 334.94V333.3C1179.2 334.22 1177.98 334.8 1176.56 334.8C1173.76 334.8 1171.92 332.7 1171.92 329.84ZM1174.38 329.78C1174.38 331.44 1175.44 332.68 1177.04 332.68C1178.72 332.68 1179.76 331.5 1179.76 329.78C1179.76 328.1 1178.74 326.94 1177.04 326.94C1175.42 326.94 1174.38 328.16 1174.38 329.78ZM1189.38 335.26C1186.44 335.26 1184.38 333.12 1184.38 330.06C1184.38 326.96 1186.4 324.82 1189.3 324.82C1192.26 324.82 1194.14 326.8 1194.14 329.88V330.62L1186.7 330.64C1186.88 332.38 1187.8 333.26 1189.42 333.26C1190.76 333.26 1191.64 332.74 1191.92 331.8H1194.18C1193.76 333.96 1191.96 335.26 1189.38 335.26ZM1189.32 326.82C1187.88 326.82 1187 327.6 1186.76 329.08H1191.72C1191.72 327.72 1190.78 326.82 1189.32 326.82ZM1205.24 335H1202.8V327.16H1200.9V325.12H1202.8V322.04H1205.24V325.12H1207.16V327.16H1205.24V335ZM1208.2 330.04C1208.2 326.96 1210.42 324.84 1213.48 324.84C1216.54 324.84 1218.76 326.96 1218.76 330.04C1218.76 333.12 1216.54 335.24 1213.48 335.24C1210.42 335.24 1208.2 333.12 1208.2 330.04ZM1210.64 330.04C1210.64 331.84 1211.8 333.06 1213.48 333.06C1215.16 333.06 1216.32 331.84 1216.32 330.04C1216.32 328.24 1215.16 327.02 1213.48 327.02C1211.8 327.02 1210.64 328.24 1210.64 330.04ZM1228.95 335H1226.53V320.12H1228.95V335ZM1238.41 325.12H1240.85V335H1238.59L1238.41 333.68C1237.81 334.62 1236.53 335.26 1235.21 335.26C1232.93 335.26 1231.59 333.72 1231.59 331.3V325.12H1234.03V330.44C1234.03 332.32 1234.77 333.08 1236.13 333.08C1237.67 333.08 1238.41 332.18 1238.41 330.3V325.12ZM1246.01 335H1243.57V325.12H1245.83L1246.03 326.4C1246.65 325.4 1247.85 324.82 1249.19 324.82C1251.67 324.82 1252.95 326.36 1252.95 328.92V335H1250.51V329.5C1250.51 327.84 1249.69 327.04 1248.43 327.04C1246.93 327.04 1246.01 328.08 1246.01 329.68V335ZM1254.99 329.84C1254.99 326.96 1256.87 324.8 1259.69 324.8C1261.17 324.8 1262.33 325.42 1262.91 326.48L1263.05 325.12H1265.31V334.5C1265.31 337.8 1263.33 339.86 1260.13 339.86C1257.29 339.86 1255.35 338.24 1255.05 335.6H1257.49C1257.65 336.88 1258.63 337.64 1260.13 337.64C1261.81 337.64 1262.89 336.58 1262.89 334.94V333.3C1262.27 334.22 1261.05 334.8 1259.63 334.8C1256.83 334.8 1254.99 332.7 1254.99 329.84ZM1257.45 329.78C1257.45 331.44 1258.51 332.68 1260.11 332.68C1261.79 332.68 1262.83 331.5 1262.83 329.78C1262.83 328.1 1261.81 326.94 1260.11 326.94C1258.49 326.94 1257.45 328.16 1257.45 329.78ZM1267.27 332H1269.59C1269.61 332.86 1270.25 333.4 1271.37 333.4C1272.51 333.4 1273.13 332.94 1273.13 332.22C1273.13 331.72 1272.87 331.36 1271.99 331.16L1270.21 330.74C1268.43 330.34 1267.57 329.5 1267.57 327.92C1267.57 325.98 1269.21 324.82 1271.49 324.82C1273.71 324.82 1275.21 326.1 1275.23 328.02H1272.91C1272.89 327.18 1272.33 326.64 1271.39 326.64C1270.43 326.64 1269.87 327.08 1269.87 327.82C1269.87 328.38 1270.31 328.74 1271.15 328.94L1272.93 329.36C1274.59 329.74 1275.43 330.5 1275.43 332.02C1275.43 334.02 1273.73 335.26 1271.29 335.26C1268.83 335.26 1267.27 333.94 1267.27 332Z" fill="black"/>
<path id="Vector 2249_3" d="M950 330.01L1108 330.01" stroke="black" stroke-width="3" stroke-linecap="round"/>
<g id="B_MERCURY_4">
<path id="Rectangle 4859_4" d="M1213.25 343H1129.75C1122.16 343 1116 349.156 1116 356.75C1116 364.344 1122.16 370.5 1129.75 370.5H1213.25C1220.84 370.5 1227 364.344 1227 356.75C1227 349.156 1220.84 343 1213.25 343Z" fill="#E21337"/>
<path id="text_3" d="M1136.74 364H1134.26V349.38H1136.74L1141.46 361.02L1146.18 349.38H1148.7V364H1146.22V359.5C1146.22 356.56 1146.22 355.7 1146.36 354.66L1142.64 364H1140.28L1136.58 354.68C1136.72 355.56 1136.74 356.94 1136.74 358.76V364ZM1156 364.26C1153.06 364.26 1151 362.12 1151 359.06C1151 355.96 1153.02 353.82 1155.92 353.82C1158.88 353.82 1160.76 355.8 1160.76 358.88V359.62L1153.32 359.64C1153.5 361.38 1154.42 362.26 1156.04 362.26C1157.38 362.26 1158.26 361.74 1158.54 360.8H1160.8C1160.38 362.96 1158.58 364.26 1156 364.26ZM1155.94 355.82C1154.5 355.82 1153.62 356.6 1153.38 358.08H1158.34C1158.34 356.72 1157.4 355.82 1155.94 355.82ZM1168.91 354.08V356.34H1168.01C1166.25 356.34 1165.15 357.28 1165.15 359.2V364H1162.71V354.14H1165.01L1165.15 355.58C1165.57 354.6 1166.51 353.94 1167.83 353.94C1168.17 353.94 1168.51 353.98 1168.91 354.08ZM1169.65 359.04C1169.65 355.98 1171.67 353.82 1174.59 353.82C1177.29 353.82 1179.13 355.32 1179.39 357.7H1176.95C1176.67 356.58 1175.85 356 1174.69 356C1173.13 356 1172.09 357.18 1172.09 359.04C1172.09 360.9 1173.05 362.06 1174.61 362.06C1175.83 362.06 1176.69 361.46 1176.95 360.38H1179.41C1179.11 362.68 1177.19 364.26 1174.61 364.26C1171.61 364.26 1169.65 362.18 1169.65 359.04ZM1187.93 354.12H1190.37V364H1188.11L1187.93 362.68C1187.33 363.62 1186.05 364.26 1184.73 364.26C1182.45 364.26 1181.11 362.72 1181.11 360.3V354.12H1183.55V359.44C1183.55 361.32 1184.29 362.08 1185.65 362.08C1187.19 362.08 1187.93 361.18 1187.93 359.3V354.12ZM1199.09 354.08V356.34H1198.19C1196.43 356.34 1195.33 357.28 1195.33 359.2V364H1192.89V354.14H1195.19L1195.33 355.58C1195.75 354.6 1196.69 353.94 1198.01 353.94C1198.35 353.94 1198.69 353.98 1199.09 354.08ZM1200.17 368.58V366.54H1201.63C1202.59 366.54 1203.19 366.32 1203.61 365.16L1203.89 364.42L1199.91 354.12H1202.49L1205.03 361.32L1207.71 354.12H1210.23L1205.39 366.2C1204.65 368.04 1203.61 368.8 1201.99 368.8C1201.31 368.8 1200.71 368.72 1200.17 368.58Z" fill="white"/>
</g>
</g>
<g id="centroids">
<path id="3_DOT" d="M947.773 425.185C949.559 425.185 951.007 423.737 951.007 421.951C951.007 420.165 949.559 418.717 947.773 418.717C945.987 418.717 944.539 420.165 944.539 421.951C944.539 423.737 945.987 425.185 947.773 425.185Z" fill="#FF0000"/>
<path id="1_DOT" d="M958.555 213.884C960.341 213.884 961.789 212.436 961.789 210.65C961.789 208.864 960.341 207.416 958.555 207.416C956.768 207.416 955.32 208.864 955.32 210.65C955.32 212.436 956.768 213.884 958.555 213.884Z" fill="#FF0000"/>
<path id="0_DOT" d="M965.023 145.966C966.809 145.966 968.257 144.518 968.257 142.732C968.257 140.946 966.809 139.498 965.023 139.498C963.237 139.498 961.789 140.946 961.789 142.732C961.789 144.518 963.237 145.966 965.023 145.966Z" fill="#FF0000"/>
<path id="2_DOT" d="M941.305 333.55C943.091 333.55 944.539 332.102 944.539 330.316C944.539 328.53 943.091 327.082 941.305 327.082C939.518 327.082 938.07 328.53 938.07 330.316C938.07 332.102 939.518 333.55 941.305 333.55Z" fill="#FF0000"/>
</g>
</g>
</svg>
