<svg width="1920" height="1080" viewBox="0 0 1920 1080" fill="none" xmlns="http://www.w3.org/2000/svg">
<g id="PESTICIDES">
<g id="4_TEXT">
<path id="Hormonal system disrupted" d="M1209.56 566.102H1207V551.482H1209.56V557.522H1216.04V551.482H1218.6V566.102H1216.04V559.902H1209.56V566.102ZM1221.1 561.142C1221.1 558.062 1223.32 555.942 1226.38 555.942C1229.44 555.942 1231.66 558.062 1231.66 561.142C1231.66 564.222 1229.44 566.342 1226.38 566.342C1223.32 566.342 1221.1 564.222 1221.1 561.142ZM1223.54 561.142C1223.54 562.942 1224.7 564.162 1226.38 564.162C1228.06 564.162 1229.22 562.942 1229.22 561.142C1229.22 559.342 1228.06 558.122 1226.38 558.122C1224.7 558.122 1223.54 559.342 1223.54 561.142ZM1239.99 556.182V558.442H1239.09C1237.33 558.442 1236.23 559.382 1236.23 561.302V566.102H1233.79V556.242H1236.09L1236.23 557.682C1236.65 556.702 1237.59 556.042 1238.91 556.042C1239.25 556.042 1239.59 556.082 1239.99 556.182ZM1244.28 566.102H1241.84V556.222H1244.08L1244.28 557.382C1244.78 556.562 1245.78 555.922 1247.2 555.922C1248.7 555.922 1249.74 556.662 1250.26 557.802C1250.76 556.662 1251.92 555.922 1253.42 555.922C1255.82 555.922 1257.14 557.362 1257.14 559.642V566.102H1254.72V560.282C1254.72 558.862 1253.96 558.122 1252.8 558.122C1251.62 558.122 1250.72 558.882 1250.72 560.502V566.102H1248.28V560.262C1248.28 558.882 1247.54 558.142 1246.38 558.142C1245.22 558.142 1244.28 558.902 1244.28 560.502V566.102ZM1259.16 561.142C1259.16 558.062 1261.38 555.942 1264.44 555.942C1267.5 555.942 1269.72 558.062 1269.72 561.142C1269.72 564.222 1267.5 566.342 1264.44 566.342C1261.38 566.342 1259.16 564.222 1259.16 561.142ZM1261.6 561.142C1261.6 562.942 1262.76 564.162 1264.44 564.162C1266.12 564.162 1267.28 562.942 1267.28 561.142C1267.28 559.342 1266.12 558.122 1264.44 558.122C1262.76 558.122 1261.6 559.342 1261.6 561.142ZM1274.29 566.102H1271.85V556.222H1274.11L1274.31 557.502C1274.93 556.502 1276.13 555.922 1277.47 555.922C1279.95 555.922 1281.23 557.462 1281.23 560.022V566.102H1278.79V560.602C1278.79 558.942 1277.97 558.142 1276.71 558.142C1275.21 558.142 1274.29 559.182 1274.29 560.782V566.102ZM1286.77 566.362C1284.67 566.362 1283.39 565.142 1283.39 563.282C1283.39 561.462 1284.71 560.322 1287.05 560.142L1290.01 559.922V559.702C1290.01 558.362 1289.21 557.822 1287.97 557.822C1286.53 557.822 1285.73 558.422 1285.73 559.462H1283.65C1283.65 557.322 1285.41 555.922 1288.09 555.922C1290.75 555.922 1292.39 557.362 1292.39 560.102V566.102H1290.25L1290.07 564.642C1289.65 565.662 1288.31 566.362 1286.77 566.362ZM1287.57 564.522C1289.07 564.522 1290.03 563.622 1290.03 562.102V561.582L1287.97 561.742C1286.45 561.882 1285.87 562.382 1285.87 563.182C1285.87 564.082 1286.47 564.522 1287.57 564.522ZM1297.45 566.102H1295.03V551.222H1297.45V566.102ZM1305.04 563.102H1307.36C1307.38 563.962 1308.02 564.502 1309.14 564.502C1310.28 564.502 1310.9 564.042 1310.9 563.322C1310.9 562.822 1310.64 562.462 1309.76 562.262L1307.98 561.842C1306.2 561.442 1305.34 560.602 1305.34 559.022C1305.34 557.082 1306.98 555.922 1309.26 555.922C1311.48 555.922 1312.98 557.202 1313 559.122H1310.68C1310.66 558.282 1310.1 557.742 1309.16 557.742C1308.2 557.742 1307.64 558.182 1307.64 558.922C1307.64 559.482 1308.08 559.842 1308.92 560.042L1310.7 560.462C1312.36 560.842 1313.2 561.602 1313.2 563.122C1313.2 565.122 1311.5 566.362 1309.06 566.362C1306.6 566.362 1305.04 565.042 1305.04 563.102ZM1314.2 570.682V568.642H1315.66C1316.62 568.642 1317.22 568.422 1317.64 567.262L1317.92 566.522L1313.94 556.222H1316.52L1319.06 563.422L1321.74 556.222H1324.26L1319.42 568.302C1318.68 570.142 1317.64 570.902 1316.02 570.902C1315.34 570.902 1314.74 570.822 1314.2 570.682ZM1324.87 563.102H1327.19C1327.21 563.962 1327.85 564.502 1328.97 564.502C1330.11 564.502 1330.73 564.042 1330.73 563.322C1330.73 562.822 1330.47 562.462 1329.59 562.262L1327.81 561.842C1326.03 561.442 1325.17 560.602 1325.17 559.022C1325.17 557.082 1326.81 555.922 1329.09 555.922C1331.31 555.922 1332.81 557.202 1332.83 559.122H1330.51C1330.49 558.282 1329.93 557.742 1328.99 557.742C1328.03 557.742 1327.47 558.182 1327.47 558.922C1327.47 559.482 1327.91 559.842 1328.75 560.042L1330.53 560.462C1332.19 560.842 1333.03 561.602 1333.03 563.122C1333.03 565.122 1331.33 566.362 1328.89 566.362C1326.43 566.362 1324.87 565.042 1324.87 563.102ZM1338.45 566.102H1336.01V558.262H1334.11V556.222H1336.01V553.142H1338.45V556.222H1340.37V558.262H1338.45V566.102ZM1346.41 566.362C1343.47 566.362 1341.41 564.222 1341.41 561.162C1341.41 558.062 1343.43 555.922 1346.33 555.922C1349.29 555.922 1351.17 557.902 1351.17 560.982V561.722L1343.73 561.742C1343.91 563.482 1344.83 564.362 1346.45 564.362C1347.79 564.362 1348.67 563.842 1348.95 562.902H1351.21C1350.79 565.062 1348.99 566.362 1346.41 566.362ZM1346.35 557.922C1344.91 557.922 1344.03 558.702 1343.79 560.182H1348.75C1348.75 558.822 1347.81 557.922 1346.35 557.922ZM1355.76 566.102H1353.32V556.222H1355.56L1355.76 557.382C1356.26 556.562 1357.26 555.922 1358.68 555.922C1360.18 555.922 1361.22 556.662 1361.74 557.802C1362.24 556.662 1363.4 555.922 1364.9 555.922C1367.3 555.922 1368.62 557.362 1368.62 559.642V566.102H1366.2V560.282C1366.2 558.862 1365.44 558.122 1364.28 558.122C1363.1 558.122 1362.2 558.882 1362.2 560.502V566.102H1359.76V560.262C1359.76 558.882 1359.02 558.142 1357.86 558.142C1356.7 558.142 1355.76 558.902 1355.76 560.502V566.102ZM1380.87 566.362C1378.01 566.362 1376.23 564.262 1376.23 561.202C1376.23 558.122 1378.03 555.922 1381.01 555.922C1382.39 555.922 1383.61 556.502 1384.23 557.482V551.222H1386.65V566.102H1384.41L1384.25 564.562C1383.65 565.702 1382.37 566.362 1380.87 566.362ZM1381.41 564.122C1383.11 564.122 1384.21 562.902 1384.21 561.122C1384.21 559.342 1383.11 558.102 1381.41 558.102C1379.71 558.102 1378.67 559.362 1378.67 561.122C1378.67 562.882 1379.71 564.122 1381.41 564.122ZM1390.61 554.242C1389.77 554.242 1389.11 553.582 1389.11 552.762C1389.11 551.942 1389.77 551.302 1390.61 551.302C1391.41 551.302 1392.07 551.942 1392.07 552.762C1392.07 553.582 1391.41 554.242 1390.61 554.242ZM1389.39 566.102V556.222H1391.83V566.102H1389.39ZM1393.79 563.102H1396.11C1396.13 563.962 1396.77 564.502 1397.89 564.502C1399.03 564.502 1399.65 564.042 1399.65 563.322C1399.65 562.822 1399.39 562.462 1398.51 562.262L1396.73 561.842C1394.95 561.442 1394.09 560.602 1394.09 559.022C1394.09 557.082 1395.73 555.922 1398.01 555.922C1400.23 555.922 1401.73 557.202 1401.75 559.122H1399.43C1399.41 558.282 1398.85 557.742 1397.91 557.742C1396.95 557.742 1396.39 558.182 1396.39 558.922C1396.39 559.482 1396.83 559.842 1397.67 560.042L1399.45 560.462C1401.11 560.842 1401.95 561.602 1401.95 563.122C1401.95 565.122 1400.25 566.362 1397.81 566.362C1395.35 566.362 1393.79 565.042 1393.79 563.102ZM1410.21 556.182V558.442H1409.31C1407.55 558.442 1406.45 559.382 1406.45 561.302V566.102H1404.01V556.242H1406.31L1406.45 557.682C1406.87 556.702 1407.81 556.042 1409.13 556.042C1409.47 556.042 1409.81 556.082 1410.21 556.182ZM1418.76 556.222H1421.2V566.102H1418.94L1418.76 564.782C1418.16 565.722 1416.88 566.362 1415.56 566.362C1413.28 566.362 1411.94 564.822 1411.94 562.402V556.222H1414.38V561.542C1414.38 563.422 1415.12 564.182 1416.48 564.182C1418.02 564.182 1418.76 563.282 1418.76 561.402V556.222ZM1423.92 570.682V556.222H1426.18L1426.34 557.722C1426.94 556.582 1428.24 555.922 1429.74 555.922C1432.52 555.922 1434.36 557.942 1434.36 561.042C1434.36 564.122 1432.68 566.362 1429.74 566.362C1428.26 566.362 1426.98 565.782 1426.36 564.782V570.682H1423.92ZM1426.38 561.162C1426.38 562.942 1427.48 564.162 1429.16 564.162C1430.88 564.162 1431.9 562.922 1431.9 561.162C1431.9 559.402 1430.88 558.142 1429.16 558.142C1427.48 558.142 1426.38 559.382 1426.38 561.162ZM1439.77 566.102H1437.33V558.262H1435.43V556.222H1437.33V553.142H1439.77V556.222H1441.69V558.262H1439.77V566.102ZM1447.73 566.362C1444.79 566.362 1442.73 564.222 1442.73 561.162C1442.73 558.062 1444.75 555.922 1447.65 555.922C1450.61 555.922 1452.49 557.902 1452.49 560.982V561.722L1445.05 561.742C1445.23 563.482 1446.15 564.362 1447.77 564.362C1449.11 564.362 1449.99 563.842 1450.27 562.902H1452.53C1452.11 565.062 1450.31 566.362 1447.73 566.362ZM1447.67 557.922C1446.23 557.922 1445.35 558.702 1445.11 560.182H1450.07C1450.07 558.822 1449.13 557.922 1447.67 557.922ZM1458.7 566.362C1455.84 566.362 1454.06 564.262 1454.06 561.202C1454.06 558.122 1455.86 555.922 1458.84 555.922C1460.22 555.922 1461.44 556.502 1462.06 557.482V551.222H1464.48V566.102H1462.24L1462.08 564.562C1461.48 565.702 1460.2 566.362 1458.7 566.362ZM1459.24 564.122C1460.94 564.122 1462.04 562.902 1462.04 561.122C1462.04 559.342 1460.94 558.102 1459.24 558.102C1457.54 558.102 1456.5 559.362 1456.5 561.122C1456.5 562.882 1457.54 564.122 1459.24 564.122Z" fill="black"/>
<path id="Vector 2249_2" d="M966.133 559.102H1198.38" stroke="black" stroke-width="3" stroke-linecap="round"/>
<g id="B_PESTICIDES">
<path id="Rectangle 4863_2" d="M1327.25 576H1221.75C1214.16 576 1208 582.156 1208 589.75C1208 597.344 1214.16 603.5 1221.75 603.5H1327.25C1334.84 603.5 1341 597.344 1341 589.75C1341 582.156 1334.84 576 1327.25 576Z" fill="#5658E7"/>
<path id="text_2" d="M1235.32 591.96H1232.1V597H1229.54V582.38H1235.32C1238.26 582.38 1240.16 584.3 1240.16 587.16C1240.16 589.98 1238.24 591.96 1235.32 591.96ZM1234.82 584.66H1232.1V589.68H1234.78C1236.54 589.68 1237.48 588.74 1237.48 587.14C1237.48 585.54 1236.52 584.66 1234.82 584.66ZM1245.88 597.26C1242.94 597.26 1240.88 595.12 1240.88 592.06C1240.88 588.96 1242.9 586.82 1245.8 586.82C1248.76 586.82 1250.64 588.8 1250.64 591.88V592.62L1243.2 592.64C1243.38 594.38 1244.3 595.26 1245.92 595.26C1247.26 595.26 1248.14 594.74 1248.42 593.8H1250.68C1250.26 595.96 1248.46 597.26 1245.88 597.26ZM1245.82 588.82C1244.38 588.82 1243.5 589.6 1243.26 591.08H1248.22C1248.22 589.72 1247.28 588.82 1245.82 588.82ZM1251.84 594H1254.16C1254.18 594.86 1254.82 595.4 1255.94 595.4C1257.08 595.4 1257.7 594.94 1257.7 594.22C1257.7 593.72 1257.44 593.36 1256.56 593.16L1254.78 592.74C1253 592.34 1252.14 591.5 1252.14 589.92C1252.14 587.98 1253.78 586.82 1256.06 586.82C1258.28 586.82 1259.78 588.1 1259.8 590.02H1257.48C1257.46 589.18 1256.9 588.64 1255.96 588.64C1255 588.64 1254.44 589.08 1254.44 589.82C1254.44 590.38 1254.88 590.74 1255.72 590.94L1257.5 591.36C1259.16 591.74 1260 592.5 1260 594.02C1260 596.02 1258.3 597.26 1255.86 597.26C1253.4 597.26 1251.84 595.94 1251.84 594ZM1265.21 597H1262.77V589.16H1260.87V587.12H1262.77V584.04H1265.21V587.12H1267.13V589.16H1265.21V597ZM1269.87 585.14C1269.03 585.14 1268.37 584.48 1268.37 583.66C1268.37 582.84 1269.03 582.2 1269.87 582.2C1270.67 582.2 1271.33 582.84 1271.33 583.66C1271.33 584.48 1270.67 585.14 1269.87 585.14ZM1268.65 597V587.12H1271.09V597H1268.65ZM1273.03 592.04C1273.03 588.98 1275.05 586.82 1277.97 586.82C1280.67 586.82 1282.51 588.32 1282.77 590.7H1280.33C1280.05 589.58 1279.23 589 1278.07 589C1276.51 589 1275.47 590.18 1275.47 592.04C1275.47 593.9 1276.43 595.06 1277.99 595.06C1279.21 595.06 1280.07 594.46 1280.33 593.38H1282.79C1282.49 595.68 1280.57 597.26 1277.99 597.26C1274.99 597.26 1273.03 595.18 1273.03 592.04ZM1285.83 585.14C1284.99 585.14 1284.33 584.48 1284.33 583.66C1284.33 582.84 1284.99 582.2 1285.83 582.2C1286.63 582.2 1287.29 582.84 1287.29 583.66C1287.29 584.48 1286.63 585.14 1285.83 585.14ZM1284.61 597V587.12H1287.05V597H1284.61ZM1293.63 597.26C1290.77 597.26 1288.99 595.16 1288.99 592.1C1288.99 589.02 1290.79 586.82 1293.77 586.82C1295.15 586.82 1296.37 587.4 1296.99 588.38V582.12H1299.41V597H1297.17L1297.01 595.46C1296.41 596.6 1295.13 597.26 1293.63 597.26ZM1294.17 595.02C1295.87 595.02 1296.97 593.8 1296.97 592.02C1296.97 590.24 1295.87 589 1294.17 589C1292.47 589 1291.43 590.26 1291.43 592.02C1291.43 593.78 1292.47 595.02 1294.17 595.02ZM1306.37 597.26C1303.43 597.26 1301.37 595.12 1301.37 592.06C1301.37 588.96 1303.39 586.82 1306.29 586.82C1309.25 586.82 1311.13 588.8 1311.13 591.88V592.62L1303.69 592.64C1303.87 594.38 1304.79 595.26 1306.41 595.26C1307.75 595.26 1308.63 594.74 1308.91 593.8H1311.17C1310.75 595.96 1308.95 597.26 1306.37 597.26ZM1306.31 588.82C1304.87 588.82 1303.99 589.6 1303.75 591.08H1308.71C1308.71 589.72 1307.77 588.82 1306.31 588.82ZM1312.32 594H1314.64C1314.66 594.86 1315.3 595.4 1316.42 595.4C1317.56 595.4 1318.18 594.94 1318.18 594.22C1318.18 593.72 1317.92 593.36 1317.04 593.16L1315.26 592.74C1313.48 592.34 1312.62 591.5 1312.62 589.92C1312.62 587.98 1314.26 586.82 1316.54 586.82C1318.76 586.82 1320.26 588.1 1320.28 590.02H1317.96C1317.94 589.18 1317.38 588.64 1316.44 588.64C1315.48 588.64 1314.92 589.08 1314.92 589.82C1314.92 590.38 1315.36 590.74 1316.2 590.94L1317.98 591.36C1319.64 591.74 1320.48 592.5 1320.48 594.02C1320.48 596.02 1318.78 597.26 1316.34 597.26C1313.88 597.26 1312.32 595.94 1312.32 594Z" fill="white"/>
</g>
</g>
<g id="5_TEXT">
<path id="Skin irritation and sensitization" d="M1071.29 646.34C1071.29 643.78 1073.41 642 1076.49 642C1079.45 642 1081.33 643.64 1081.41 646.28H1078.85C1078.79 645.02 1077.89 644.28 1076.45 644.28C1074.87 644.28 1073.85 645.04 1073.85 646.26C1073.85 647.3 1074.41 647.88 1075.63 648.16L1077.93 648.66C1080.43 649.2 1081.65 650.48 1081.65 652.66C1081.65 655.38 1079.53 657.14 1076.31 657.14C1073.19 657.14 1071.15 655.48 1071.09 652.86H1073.65C1073.67 654.1 1074.67 654.84 1076.31 654.84C1078.01 654.84 1079.09 654.1 1079.09 652.88C1079.09 651.9 1078.59 651.32 1077.39 651.06L1075.07 650.54C1072.59 650 1071.29 648.58 1071.29 646.34ZM1086.27 656.88H1083.85V642H1086.27V651.14L1090.11 647H1093.17L1089.41 650.92L1093.09 656.88H1090.29L1087.71 652.72L1086.27 654.22V656.88ZM1095.99 645.02C1095.15 645.02 1094.49 644.36 1094.49 643.54C1094.49 642.72 1095.15 642.08 1095.99 642.08C1096.79 642.08 1097.45 642.72 1097.45 643.54C1097.45 644.36 1096.79 645.02 1095.99 645.02ZM1094.77 656.88V647H1097.21V656.88H1094.77ZM1102.37 656.88H1099.93V647H1102.19L1102.39 648.28C1103.01 647.28 1104.21 646.7 1105.55 646.7C1108.03 646.7 1109.31 648.24 1109.31 650.8V656.88H1106.87V651.38C1106.87 649.72 1106.05 648.92 1104.79 648.92C1103.29 648.92 1102.37 649.96 1102.37 651.56V656.88ZM1118.72 645.02C1117.88 645.02 1117.22 644.36 1117.22 643.54C1117.22 642.72 1117.88 642.08 1118.72 642.08C1119.52 642.08 1120.18 642.72 1120.18 643.54C1120.18 644.36 1119.52 645.02 1118.72 645.02ZM1117.5 656.88V647H1119.94V656.88H1117.5ZM1128.86 646.96V649.22H1127.96C1126.2 649.22 1125.1 650.16 1125.1 652.08V656.88H1122.66V647.02H1124.96L1125.1 648.46C1125.52 647.48 1126.46 646.82 1127.78 646.82C1128.12 646.82 1128.46 646.86 1128.86 646.96ZM1136.91 646.96V649.22H1136.01C1134.25 649.22 1133.15 650.16 1133.15 652.08V656.88H1130.71V647.02H1133.01L1133.15 648.46C1133.57 647.48 1134.51 646.82 1135.83 646.82C1136.17 646.82 1136.51 646.86 1136.91 646.96ZM1139.98 645.02C1139.14 645.02 1138.48 644.36 1138.48 643.54C1138.48 642.72 1139.14 642.08 1139.98 642.08C1140.78 642.08 1141.44 642.72 1141.44 643.54C1141.44 644.36 1140.78 645.02 1139.98 645.02ZM1138.76 656.88V647H1141.2V656.88H1138.76ZM1147.29 656.88H1144.85V649.04H1142.95V647H1144.85V643.92H1147.29V647H1149.21V649.04H1147.29V656.88ZM1153.8 657.14C1151.7 657.14 1150.42 655.92 1150.42 654.06C1150.42 652.24 1151.74 651.1 1154.08 650.92L1157.04 650.7V650.48C1157.04 649.14 1156.24 648.6 1155 648.6C1153.56 648.6 1152.76 649.2 1152.76 650.24H1150.68C1150.68 648.1 1152.44 646.7 1155.12 646.7C1157.78 646.7 1159.42 648.14 1159.42 650.88V656.88H1157.28L1157.1 655.42C1156.68 656.44 1155.34 657.14 1153.8 657.14ZM1154.6 655.3C1156.1 655.3 1157.06 654.4 1157.06 652.88V652.36L1155 652.52C1153.48 652.66 1152.9 653.16 1152.9 653.96C1152.9 654.86 1153.5 655.3 1154.6 655.3ZM1165.24 656.88H1162.8V649.04H1160.9V647H1162.8V643.92H1165.24V647H1167.16V649.04H1165.24V656.88ZM1170.1 645.02C1169.26 645.02 1168.6 644.36 1168.6 643.54C1168.6 642.72 1169.26 642.08 1170.1 642.08C1170.9 642.08 1171.56 642.72 1171.56 643.54C1171.56 644.36 1170.9 645.02 1170.1 645.02ZM1168.88 656.88V647H1171.32V656.88H1168.88ZM1173.46 651.92C1173.46 648.84 1175.68 646.72 1178.74 646.72C1181.8 646.72 1184.02 648.84 1184.02 651.92C1184.02 655 1181.8 657.12 1178.74 657.12C1175.68 657.12 1173.46 655 1173.46 651.92ZM1175.9 651.92C1175.9 653.72 1177.06 654.94 1178.74 654.94C1180.42 654.94 1181.58 653.72 1181.58 651.92C1181.58 650.12 1180.42 648.9 1178.74 648.9C1177.06 648.9 1175.9 650.12 1175.9 651.92ZM1188.6 656.88H1186.16V647H1188.42L1188.62 648.28C1189.24 647.28 1190.44 646.7 1191.78 646.7C1194.26 646.7 1195.54 648.24 1195.54 650.8V656.88H1193.1V651.38C1193.1 649.72 1192.28 648.92 1191.02 648.92C1189.52 648.92 1188.6 649.96 1188.6 651.56V656.88ZM1206.66 657.14C1204.56 657.14 1203.28 655.92 1203.28 654.06C1203.28 652.24 1204.6 651.1 1206.94 650.92L1209.9 650.7V650.48C1209.9 649.14 1209.1 648.6 1207.86 648.6C1206.42 648.6 1205.62 649.2 1205.62 650.24H1203.54C1203.54 648.1 1205.3 646.7 1207.98 646.7C1210.64 646.7 1212.28 648.14 1212.28 650.88V656.88H1210.14L1209.96 655.42C1209.54 656.44 1208.2 657.14 1206.66 657.14ZM1207.46 655.3C1208.96 655.3 1209.92 654.4 1209.92 652.88V652.36L1207.86 652.52C1206.34 652.66 1205.76 653.16 1205.76 653.96C1205.76 654.86 1206.36 655.3 1207.46 655.3ZM1217.32 656.88H1214.88V647H1217.14L1217.34 648.28C1217.96 647.28 1219.16 646.7 1220.5 646.7C1222.98 646.7 1224.26 648.24 1224.26 650.8V656.88H1221.82V651.38C1221.82 649.72 1221 648.92 1219.74 648.92C1218.24 648.92 1217.32 649.96 1217.32 651.56V656.88ZM1230.92 657.14C1228.06 657.14 1226.28 655.04 1226.28 651.98C1226.28 648.9 1228.08 646.7 1231.06 646.7C1232.44 646.7 1233.66 647.28 1234.28 648.26V642H1236.7V656.88H1234.46L1234.3 655.34C1233.7 656.48 1232.42 657.14 1230.92 657.14ZM1231.46 654.9C1233.16 654.9 1234.26 653.68 1234.26 651.9C1234.26 650.12 1233.16 648.88 1231.46 648.88C1229.76 648.88 1228.72 650.14 1228.72 651.9C1228.72 653.66 1229.76 654.9 1231.46 654.9ZM1244.27 653.88H1246.59C1246.61 654.74 1247.25 655.28 1248.37 655.28C1249.51 655.28 1250.13 654.82 1250.13 654.1C1250.13 653.6 1249.87 653.24 1248.99 653.04L1247.21 652.62C1245.43 652.22 1244.57 651.38 1244.57 649.8C1244.57 647.86 1246.21 646.7 1248.49 646.7C1250.71 646.7 1252.21 647.98 1252.23 649.9H1249.91C1249.89 649.06 1249.33 648.52 1248.39 648.52C1247.43 648.52 1246.87 648.96 1246.87 649.7C1246.87 650.26 1247.31 650.62 1248.15 650.82L1249.93 651.24C1251.59 651.62 1252.43 652.38 1252.43 653.9C1252.43 655.9 1250.73 657.14 1248.29 657.14C1245.83 657.14 1244.27 655.82 1244.27 653.88ZM1258.91 657.14C1255.97 657.14 1253.91 655 1253.91 651.94C1253.91 648.84 1255.93 646.7 1258.83 646.7C1261.79 646.7 1263.67 648.68 1263.67 651.76V652.5L1256.23 652.52C1256.41 654.26 1257.33 655.14 1258.95 655.14C1260.29 655.14 1261.17 654.62 1261.45 653.68H1263.71C1263.29 655.84 1261.49 657.14 1258.91 657.14ZM1258.85 648.7C1257.41 648.7 1256.53 649.48 1256.29 650.96H1261.25C1261.25 649.6 1260.31 648.7 1258.85 648.7ZM1268.26 656.88H1265.82V647H1268.08L1268.28 648.28C1268.9 647.28 1270.1 646.7 1271.44 646.7C1273.92 646.7 1275.2 648.24 1275.2 650.8V656.88H1272.76V651.38C1272.76 649.72 1271.94 648.92 1270.68 648.92C1269.18 648.92 1268.26 649.96 1268.26 651.56V656.88ZM1276.92 653.88H1279.24C1279.26 654.74 1279.9 655.28 1281.02 655.28C1282.16 655.28 1282.78 654.82 1282.78 654.1C1282.78 653.6 1282.52 653.24 1281.64 653.04L1279.86 652.62C1278.08 652.22 1277.22 651.38 1277.22 649.8C1277.22 647.86 1278.86 646.7 1281.14 646.7C1283.36 646.7 1284.86 647.98 1284.88 649.9H1282.56C1282.54 649.06 1281.98 648.52 1281.04 648.52C1280.08 648.52 1279.52 648.96 1279.52 649.7C1279.52 650.26 1279.96 650.62 1280.8 650.82L1282.58 651.24C1284.24 651.62 1285.08 652.38 1285.08 653.9C1285.08 655.9 1283.38 657.14 1280.94 657.14C1278.48 657.14 1276.92 655.82 1276.92 653.88ZM1288.36 645.02C1287.52 645.02 1286.86 644.36 1286.86 643.54C1286.86 642.72 1287.52 642.08 1288.36 642.08C1289.16 642.08 1289.82 642.72 1289.82 643.54C1289.82 644.36 1289.16 645.02 1288.36 645.02ZM1287.14 656.88V647H1289.58V656.88H1287.14ZM1295.66 656.88H1293.22V649.04H1291.32V647H1293.22V643.92H1295.66V647H1297.58V649.04H1295.66V656.88ZM1300.52 645.02C1299.68 645.02 1299.02 644.36 1299.02 643.54C1299.02 642.72 1299.68 642.08 1300.52 642.08C1301.32 642.08 1301.98 642.72 1301.98 643.54C1301.98 644.36 1301.32 645.02 1300.52 645.02ZM1299.3 656.88V647H1301.74V656.88H1299.3ZM1311.92 656.88H1303.94V654.88L1308.86 649.04H1303.94V647H1311.92V649.02L1306.92 654.84H1311.92V656.88ZM1317.05 657.14C1314.95 657.14 1313.67 655.92 1313.67 654.06C1313.67 652.24 1314.99 651.1 1317.33 650.92L1320.29 650.7V650.48C1320.29 649.14 1319.49 648.6 1318.25 648.6C1316.81 648.6 1316.01 649.2 1316.01 650.24H1313.93C1313.93 648.1 1315.69 646.7 1318.37 646.7C1321.03 646.7 1322.67 648.14 1322.67 650.88V656.88H1320.53L1320.35 655.42C1319.93 656.44 1318.59 657.14 1317.05 657.14ZM1317.85 655.3C1319.35 655.3 1320.31 654.4 1320.31 652.88V652.36L1318.25 652.52C1316.73 652.66 1316.15 653.16 1316.15 653.96C1316.15 654.86 1316.75 655.3 1317.85 655.3ZM1328.49 656.88H1326.05V649.04H1324.15V647H1326.05V643.92H1328.49V647H1330.41V649.04H1328.49V656.88ZM1333.35 645.02C1332.51 645.02 1331.85 644.36 1331.85 643.54C1331.85 642.72 1332.51 642.08 1333.35 642.08C1334.15 642.08 1334.81 642.72 1334.81 643.54C1334.81 644.36 1334.15 645.02 1333.35 645.02ZM1332.13 656.88V647H1334.57V656.88H1332.13ZM1336.71 651.92C1336.71 648.84 1338.93 646.72 1341.99 646.72C1345.05 646.72 1347.27 648.84 1347.27 651.92C1347.27 655 1345.05 657.12 1341.99 657.12C1338.93 657.12 1336.71 655 1336.71 651.92ZM1339.15 651.92C1339.15 653.72 1340.31 654.94 1341.99 654.94C1343.67 654.94 1344.83 653.72 1344.83 651.92C1344.83 650.12 1343.67 648.9 1341.99 648.9C1340.31 648.9 1339.15 650.12 1339.15 651.92ZM1351.84 656.88H1349.4V647H1351.66L1351.86 648.28C1352.48 647.28 1353.68 646.7 1355.02 646.7C1357.5 646.7 1358.78 648.24 1358.78 650.8V656.88H1356.34V651.38C1356.34 649.72 1355.52 648.92 1354.26 648.92C1352.76 648.92 1351.84 649.96 1351.84 651.56V656.88Z" fill="black"/>
<path id="Vector 2249_2_2" d="M1004.5 649.88H1063.5" stroke="black" stroke-width="3" stroke-linecap="round"/>
<g id="B_PESTICIDES_2">
<path id="Rectangle 4863_2_2" d="M1190.48 665.957H1084.98C1077.39 665.957 1071.23 672.113 1071.23 679.707C1071.23 687.301 1077.39 693.457 1084.98 693.457H1190.48C1198.08 693.457 1204.23 687.301 1204.23 679.707C1204.23 672.113 1198.08 665.957 1190.48 665.957Z" fill="#5658E7"/>
<path id="text_2_2" d="M1098.55 681.917H1095.33V686.957H1092.77V672.337H1098.55C1101.49 672.337 1103.39 674.257 1103.39 677.117C1103.39 679.937 1101.47 681.917 1098.55 681.917ZM1098.05 674.617H1095.33V679.637H1098.01C1099.77 679.637 1100.71 678.697 1100.71 677.097C1100.71 675.497 1099.75 674.617 1098.05 674.617ZM1109.11 687.217C1106.17 687.217 1104.11 685.077 1104.11 682.017C1104.11 678.917 1106.13 676.777 1109.03 676.777C1111.99 676.777 1113.87 678.757 1113.87 681.837V682.577L1106.43 682.597C1106.61 684.337 1107.53 685.217 1109.15 685.217C1110.49 685.217 1111.37 684.697 1111.65 683.757H1113.91C1113.49 685.917 1111.69 687.217 1109.11 687.217ZM1109.05 678.777C1107.61 678.777 1106.73 679.557 1106.49 681.037H1111.45C1111.45 679.677 1110.51 678.777 1109.05 678.777ZM1115.07 683.957H1117.39C1117.41 684.817 1118.05 685.357 1119.17 685.357C1120.31 685.357 1120.93 684.897 1120.93 684.177C1120.93 683.677 1120.67 683.317 1119.79 683.117L1118.01 682.697C1116.23 682.297 1115.37 681.457 1115.37 679.877C1115.37 677.937 1117.01 676.777 1119.29 676.777C1121.51 676.777 1123.01 678.057 1123.03 679.977H1120.71C1120.69 679.137 1120.13 678.597 1119.19 678.597C1118.23 678.597 1117.67 679.037 1117.67 679.777C1117.67 680.337 1118.11 680.697 1118.95 680.897L1120.73 681.317C1122.39 681.697 1123.23 682.457 1123.23 683.977C1123.23 685.977 1121.53 687.217 1119.09 687.217C1116.63 687.217 1115.07 685.897 1115.07 683.957ZM1128.44 686.957H1126V679.117H1124.1V677.077H1126V673.997H1128.44V677.077H1130.36V679.117H1128.44V686.957ZM1133.1 675.097C1132.26 675.097 1131.6 674.437 1131.6 673.617C1131.6 672.797 1132.26 672.157 1133.1 672.157C1133.9 672.157 1134.56 672.797 1134.56 673.617C1134.56 674.437 1133.9 675.097 1133.1 675.097ZM1131.88 686.957V677.077H1134.32V686.957H1131.88ZM1136.26 681.997C1136.26 678.937 1138.28 676.777 1141.2 676.777C1143.9 676.777 1145.74 678.277 1146 680.657H1143.56C1143.28 679.537 1142.46 678.957 1141.3 678.957C1139.74 678.957 1138.7 680.137 1138.7 681.997C1138.7 683.857 1139.66 685.017 1141.22 685.017C1142.44 685.017 1143.3 684.417 1143.56 683.337H1146.02C1145.72 685.637 1143.8 687.217 1141.22 687.217C1138.22 687.217 1136.26 685.137 1136.26 681.997ZM1149.06 675.097C1148.22 675.097 1147.56 674.437 1147.56 673.617C1147.56 672.797 1148.22 672.157 1149.06 672.157C1149.86 672.157 1150.52 672.797 1150.52 673.617C1150.52 674.437 1149.86 675.097 1149.06 675.097ZM1147.84 686.957V677.077H1150.28V686.957H1147.84ZM1156.86 687.217C1154 687.217 1152.22 685.117 1152.22 682.057C1152.22 678.977 1154.02 676.777 1157 676.777C1158.38 676.777 1159.6 677.357 1160.22 678.337V672.077H1162.64V686.957H1160.4L1160.24 685.417C1159.64 686.557 1158.36 687.217 1156.86 687.217ZM1157.4 684.977C1159.1 684.977 1160.2 683.757 1160.2 681.977C1160.2 680.197 1159.1 678.957 1157.4 678.957C1155.7 678.957 1154.66 680.217 1154.66 681.977C1154.66 683.737 1155.7 684.977 1157.4 684.977ZM1169.6 687.217C1166.66 687.217 1164.6 685.077 1164.6 682.017C1164.6 678.917 1166.62 676.777 1169.52 676.777C1172.48 676.777 1174.36 678.757 1174.36 681.837V682.577L1166.92 682.597C1167.1 684.337 1168.02 685.217 1169.64 685.217C1170.98 685.217 1171.86 684.697 1172.14 683.757H1174.4C1173.98 685.917 1172.18 687.217 1169.6 687.217ZM1169.54 678.777C1168.1 678.777 1167.22 679.557 1166.98 681.037H1171.94C1171.94 679.677 1171 678.777 1169.54 678.777ZM1175.55 683.957H1177.87C1177.89 684.817 1178.53 685.357 1179.65 685.357C1180.79 685.357 1181.41 684.897 1181.41 684.177C1181.41 683.677 1181.15 683.317 1180.27 683.117L1178.49 682.697C1176.71 682.297 1175.85 681.457 1175.85 679.877C1175.85 677.937 1177.49 676.777 1179.77 676.777C1181.99 676.777 1183.49 678.057 1183.51 679.977H1181.19C1181.17 679.137 1180.61 678.597 1179.67 678.597C1178.71 678.597 1178.15 679.037 1178.15 679.777C1178.15 680.337 1178.59 680.697 1179.43 680.897L1181.21 681.317C1182.87 681.697 1183.71 682.457 1183.71 683.977C1183.71 685.977 1182.01 687.217 1179.57 687.217C1177.11 687.217 1175.55 685.897 1175.55 683.957Z" fill="white"/>
</g>
</g>
<g id="0_TEXT">
<path id="Brain development and future learning behavior" d="M585.621 117V102.38H591.441C594.321 102.38 596.081 103.88 596.081 106.32C596.081 107.94 595.361 109.1 593.981 109.68C595.521 110.18 596.301 111.34 596.301 113.04C596.301 115.54 594.561 117 591.541 117H585.621ZM591.221 104.64H588.181V108.62H591.281C592.681 108.62 593.461 107.88 593.461 106.58C593.461 105.32 592.661 104.64 591.221 104.64ZM591.441 110.78H588.181V114.74H591.441C592.881 114.74 593.681 114.04 593.681 112.72C593.681 111.48 592.861 110.78 591.441 110.78ZM604.688 107.08V109.34H603.788C602.028 109.34 600.928 110.28 600.928 112.2V117H598.488V107.14H600.788L600.928 108.58C601.348 107.6 602.288 106.94 603.608 106.94C603.948 106.94 604.288 106.98 604.688 107.08ZM609.089 117.26C606.989 117.26 605.709 116.04 605.709 114.18C605.709 112.36 607.029 111.22 609.369 111.04L612.329 110.82V110.6C612.329 109.26 611.529 108.72 610.289 108.72C608.849 108.72 608.049 109.32 608.049 110.36H605.969C605.969 108.22 607.729 106.82 610.409 106.82C613.069 106.82 614.709 108.26 614.709 111V117H612.569L612.389 115.54C611.969 116.56 610.629 117.26 609.089 117.26ZM609.889 115.42C611.389 115.42 612.349 114.52 612.349 113V112.48L610.289 112.64C608.769 112.78 608.189 113.28 608.189 114.08C608.189 114.98 608.789 115.42 609.889 115.42ZM618.526 105.14C617.686 105.14 617.026 104.48 617.026 103.66C617.026 102.84 617.686 102.2 618.526 102.2C619.326 102.2 619.986 102.84 619.986 103.66C619.986 104.48 619.326 105.14 618.526 105.14ZM617.306 117V107.12H619.746V117H617.306ZM624.907 117H622.467V107.12H624.727L624.927 108.4C625.547 107.4 626.747 106.82 628.087 106.82C630.567 106.82 631.847 108.36 631.847 110.92V117H629.407V111.5C629.407 109.84 628.587 109.04 627.327 109.04C625.827 109.04 624.907 110.08 624.907 111.68V117ZM644.095 117.26C641.235 117.26 639.455 115.16 639.455 112.1C639.455 109.02 641.255 106.82 644.235 106.82C645.615 106.82 646.835 107.4 647.455 108.38V102.12H649.875V117H647.635L647.475 115.46C646.875 116.6 645.595 117.26 644.095 117.26ZM644.635 115.02C646.335 115.02 647.435 113.8 647.435 112.02C647.435 110.24 646.335 109 644.635 109C642.935 109 641.895 110.26 641.895 112.02C641.895 113.78 642.935 115.02 644.635 115.02ZM657.038 117.26C654.098 117.26 652.038 115.12 652.038 112.06C652.038 108.96 654.058 106.82 656.958 106.82C659.918 106.82 661.798 108.8 661.798 111.88V112.62L654.358 112.64C654.538 114.38 655.458 115.26 657.078 115.26C658.418 115.26 659.298 114.74 659.578 113.8H661.838C661.418 115.96 659.618 117.26 657.038 117.26ZM656.978 108.82C655.538 108.82 654.658 109.6 654.418 111.08H659.378C659.378 109.72 658.438 108.82 656.978 108.82ZM666.321 117L662.401 107.12H665.001L666.721 111.66C667.141 112.84 667.481 113.86 667.601 114.4C667.741 113.78 668.101 112.74 668.521 111.66L670.321 107.12H672.841L668.721 117H666.321ZM678.376 117.26C675.436 117.26 673.376 115.12 673.376 112.06C673.376 108.96 675.396 106.82 678.296 106.82C681.256 106.82 683.136 108.8 683.136 111.88V112.62L675.696 112.64C675.876 114.38 676.796 115.26 678.416 115.26C679.756 115.26 680.636 114.74 680.916 113.8H683.176C682.756 115.96 680.956 117.26 678.376 117.26ZM678.316 108.82C676.876 108.82 675.996 109.6 675.756 111.08H680.716C680.716 109.72 679.776 108.82 678.316 108.82ZM687.748 117H685.328V102.12H687.748V117ZM689.928 112.04C689.928 108.96 692.148 106.84 695.208 106.84C698.268 106.84 700.488 108.96 700.488 112.04C700.488 115.12 698.268 117.24 695.208 117.24C692.148 117.24 689.928 115.12 689.928 112.04ZM692.368 112.04C692.368 113.84 693.528 115.06 695.208 115.06C696.888 115.06 698.048 113.84 698.048 112.04C698.048 110.24 696.888 109.02 695.208 109.02C693.528 109.02 692.368 110.24 692.368 112.04ZM702.622 121.58V107.12H704.882L705.042 108.62C705.642 107.48 706.942 106.82 708.442 106.82C711.222 106.82 713.062 108.84 713.062 111.94C713.062 115.02 711.382 117.26 708.442 117.26C706.962 117.26 705.682 116.68 705.062 115.68V121.58H702.622ZM705.082 112.06C705.082 113.84 706.182 115.06 707.862 115.06C709.582 115.06 710.602 113.82 710.602 112.06C710.602 110.3 709.582 109.04 707.862 109.04C706.182 109.04 705.082 110.28 705.082 112.06ZM717.645 117H715.205V107.12H717.445L717.645 108.28C718.145 107.46 719.145 106.82 720.565 106.82C722.065 106.82 723.105 107.56 723.625 108.7C724.125 107.56 725.285 106.82 726.785 106.82C729.185 106.82 730.505 108.26 730.505 110.54V117H728.085V111.18C728.085 109.76 727.325 109.02 726.165 109.02C724.985 109.02 724.085 109.78 724.085 111.4V117H721.645V111.16C721.645 109.78 720.905 109.04 719.745 109.04C718.585 109.04 717.645 109.8 717.645 111.4V117ZM737.52 117.26C734.58 117.26 732.52 115.12 732.52 112.06C732.52 108.96 734.54 106.82 737.44 106.82C740.4 106.82 742.28 108.8 742.28 111.88V112.62L734.84 112.64C735.02 114.38 735.94 115.26 737.56 115.26C738.9 115.26 739.78 114.74 740.06 113.8H742.32C741.9 115.96 740.1 117.26 737.52 117.26ZM737.46 108.82C736.02 108.82 735.14 109.6 734.9 111.08H739.86C739.86 109.72 738.92 108.82 737.46 108.82ZM746.873 117H744.433V107.12H746.693L746.893 108.4C747.513 107.4 748.713 106.82 750.053 106.82C752.533 106.82 753.813 108.36 753.813 110.92V117H751.373V111.5C751.373 109.84 750.553 109.04 749.293 109.04C747.793 109.04 746.873 110.08 746.873 111.68V117ZM759.77 117H757.33V109.16H755.43V107.12H757.33V104.04H759.77V107.12H761.69V109.16H759.77V117ZM771.938 117.26C769.838 117.26 768.558 116.04 768.558 114.18C768.558 112.36 769.878 111.22 772.218 111.04L775.178 110.82V110.6C775.178 109.26 774.378 108.72 773.138 108.72C771.698 108.72 770.898 109.32 770.898 110.36H768.818C768.818 108.22 770.578 106.82 773.258 106.82C775.918 106.82 777.558 108.26 777.558 111V117H775.418L775.238 115.54C774.818 116.56 773.478 117.26 771.938 117.26ZM772.738 115.42C774.238 115.42 775.198 114.52 775.198 113V112.48L773.138 112.64C771.618 112.78 771.038 113.28 771.038 114.08C771.038 114.98 771.638 115.42 772.738 115.42ZM782.595 117H780.155V107.12H782.415L782.615 108.4C783.235 107.4 784.435 106.82 785.775 106.82C788.255 106.82 789.535 108.36 789.535 110.92V117H787.095V111.5C787.095 109.84 786.275 109.04 785.015 109.04C783.515 109.04 782.595 110.08 782.595 111.68V117ZM796.192 117.26C793.332 117.26 791.552 115.16 791.552 112.1C791.552 109.02 793.352 106.82 796.332 106.82C797.712 106.82 798.932 107.4 799.552 108.38V102.12H801.972V117H799.732L799.572 115.46C798.972 116.6 797.692 117.26 796.192 117.26ZM796.732 115.02C798.432 115.02 799.532 113.8 799.532 112.02C799.532 110.24 798.432 109 796.732 109C795.032 109 793.992 110.26 793.992 112.02C793.992 113.78 795.032 115.02 796.732 115.02ZM809.326 107.12H810.746V105.92C810.746 103.24 812.166 102.12 814.306 102.12C814.686 102.12 815.146 102.14 815.566 102.22V104.3H814.706C813.466 104.3 813.166 104.94 813.166 105.92V107.12H815.526V109.16H813.166V117H810.746V109.16H809.326V107.12ZM823.983 107.12H826.423V117H824.163L823.983 115.68C823.383 116.62 822.103 117.26 820.783 117.26C818.503 117.26 817.163 115.72 817.163 113.3V107.12H819.603V112.44C819.603 114.32 820.343 115.08 821.703 115.08C823.243 115.08 823.983 114.18 823.983 112.3V107.12ZM832.503 117H830.063V109.16H828.163V107.12H830.063V104.04H832.503V107.12H834.423V109.16H832.503V117ZM842.84 107.12H845.28V117H843.02L842.84 115.68C842.24 116.62 840.96 117.26 839.64 117.26C837.36 117.26 836.02 115.72 836.02 113.3V107.12H838.46V112.44C838.46 114.32 839.2 115.08 840.56 115.08C842.1 115.08 842.84 114.18 842.84 112.3V107.12ZM854.2 107.08V109.34H853.3C851.54 109.34 850.44 110.28 850.44 112.2V117H848V107.14H850.3L850.44 108.58C850.86 107.6 851.8 106.94 853.12 106.94C853.46 106.94 853.8 106.98 854.2 107.08ZM860.14 117.26C857.2 117.26 855.14 115.12 855.14 112.06C855.14 108.96 857.16 106.82 860.06 106.82C863.02 106.82 864.9 108.8 864.9 111.88V112.62L857.46 112.64C857.64 114.38 858.56 115.26 860.18 115.26C861.52 115.26 862.4 114.74 862.68 113.8H864.94C864.52 115.96 862.72 117.26 860.14 117.26ZM860.08 108.82C858.64 108.82 857.76 109.6 857.52 111.08H862.48C862.48 109.72 861.54 108.82 860.08 108.82ZM587.721 143H585.301V128.12H587.721V143ZM594.901 143.26C591.961 143.26 589.901 141.12 589.901 138.06C589.901 134.96 591.921 132.82 594.821 132.82C597.781 132.82 599.661 134.8 599.661 137.88V138.62L592.221 138.64C592.401 140.38 593.321 141.26 594.941 141.26C596.281 141.26 597.161 140.74 597.441 139.8H599.701C599.281 141.96 597.481 143.26 594.901 143.26ZM594.841 134.82C593.401 134.82 592.521 135.6 592.281 137.08H597.241C597.241 135.72 596.301 134.82 594.841 134.82ZM604.656 143.26C602.556 143.26 601.276 142.04 601.276 140.18C601.276 138.36 602.596 137.22 604.936 137.04L607.896 136.82V136.6C607.896 135.26 607.096 134.72 605.856 134.72C604.416 134.72 603.616 135.32 603.616 136.36H601.536C601.536 134.22 603.296 132.82 605.976 132.82C608.636 132.82 610.276 134.26 610.276 137V143H608.136L607.956 141.54C607.536 142.56 606.196 143.26 604.656 143.26ZM605.456 141.42C606.956 141.42 607.916 140.52 607.916 139V138.48L605.856 138.64C604.336 138.78 603.756 139.28 603.756 140.08C603.756 140.98 604.356 141.42 605.456 141.42ZM619.073 133.08V135.34H618.173C616.413 135.34 615.313 136.28 615.313 138.2V143H612.873V133.14H615.173L615.313 134.58C615.733 133.6 616.673 132.94 617.993 132.94C618.333 132.94 618.673 132.98 619.073 133.08ZM623.364 143H620.924V133.12H623.184L623.384 134.4C624.004 133.4 625.204 132.82 626.544 132.82C629.024 132.82 630.304 134.36 630.304 136.92V143H627.864V137.5C627.864 135.84 627.044 135.04 625.784 135.04C624.284 135.04 623.364 136.08 623.364 137.68V143ZM634.122 131.14C633.282 131.14 632.622 130.48 632.622 129.66C632.622 128.84 633.282 128.2 634.122 128.2C634.922 128.2 635.582 128.84 635.582 129.66C635.582 130.48 634.922 131.14 634.122 131.14ZM632.902 143V133.12H635.342V143H632.902ZM640.503 143H638.063V133.12H640.323L640.523 134.4C641.143 133.4 642.343 132.82 643.683 132.82C646.163 132.82 647.443 134.36 647.443 136.92V143H645.003V137.5C645.003 135.84 644.183 135.04 642.923 135.04C641.423 135.04 640.503 136.08 640.503 137.68V143ZM649.48 137.84C649.48 134.96 651.36 132.8 654.18 132.8C655.66 132.8 656.82 133.42 657.4 134.48L657.54 133.12H659.8V142.5C659.8 145.8 657.82 147.86 654.62 147.86C651.78 147.86 649.84 146.24 649.54 143.6H651.98C652.14 144.88 653.12 145.64 654.62 145.64C656.3 145.64 657.38 144.58 657.38 142.94V141.3C656.76 142.22 655.54 142.8 654.12 142.8C651.32 142.8 649.48 140.7 649.48 137.84ZM651.94 137.78C651.94 139.44 653 140.68 654.6 140.68C656.28 140.68 657.32 139.5 657.32 137.78C657.32 136.1 656.3 134.94 654.6 134.94C652.98 134.94 651.94 136.16 651.94 137.78ZM670.376 143H668.116V128.12H670.556V134.56C671.196 133.46 672.516 132.8 674.016 132.8C676.836 132.8 678.556 135 678.556 138.12C678.556 141.16 676.696 143.26 673.856 143.26C672.376 143.26 671.116 142.6 670.536 141.46L670.376 143ZM670.576 138.02C670.576 139.8 671.676 141.02 673.356 141.02C675.076 141.02 676.096 139.78 676.096 138.02C676.096 136.26 675.076 135 673.356 135C671.676 135 670.576 136.24 670.576 138.02ZM685.119 143.26C682.179 143.26 680.119 141.12 680.119 138.06C680.119 134.96 682.139 132.82 685.039 132.82C687.999 132.82 689.879 134.8 689.879 137.88V138.62L682.439 138.64C682.619 140.38 683.539 141.26 685.159 141.26C686.499 141.26 687.379 140.74 687.659 139.8H689.919C689.499 141.96 687.699 143.26 685.119 143.26ZM685.059 134.82C683.619 134.82 682.739 135.6 682.499 137.08H687.459C687.459 135.72 686.519 134.82 685.059 134.82ZM694.471 143H692.031V128.12H694.491V134.4C695.111 133.44 696.271 132.82 697.691 132.82C700.131 132.82 701.411 134.36 701.411 136.92V143H698.971V137.5C698.971 135.84 698.151 135.04 696.911 135.04C695.371 135.04 694.471 136.12 694.471 137.6V143ZM706.949 143.26C704.849 143.26 703.569 142.04 703.569 140.18C703.569 138.36 704.889 137.22 707.229 137.04L710.189 136.82V136.6C710.189 135.26 709.389 134.72 708.149 134.72C706.709 134.72 705.909 135.32 705.909 136.36H703.829C703.829 134.22 705.589 132.82 708.269 132.82C710.929 132.82 712.569 134.26 712.569 137V143H710.429L710.249 141.54C709.829 142.56 708.489 143.26 706.949 143.26ZM707.749 141.42C709.249 141.42 710.209 140.52 710.209 139V138.48L708.149 138.64C706.629 138.78 706.049 139.28 706.049 140.08C706.049 140.98 706.649 141.42 707.749 141.42ZM717.575 143L713.655 133.12H716.255L717.975 137.66C718.395 138.84 718.735 139.86 718.855 140.4C718.995 139.78 719.355 138.74 719.775 137.66L721.575 133.12H724.095L719.975 143H717.575ZM726.918 131.14C726.078 131.14 725.418 130.48 725.418 129.66C725.418 128.84 726.078 128.2 726.918 128.2C727.718 128.2 728.378 128.84 728.378 129.66C728.378 130.48 727.718 131.14 726.918 131.14ZM725.698 143V133.12H728.138V143H725.698ZM730.279 138.04C730.279 134.96 732.499 132.84 735.559 132.84C738.619 132.84 740.839 134.96 740.839 138.04C740.839 141.12 738.619 143.24 735.559 143.24C732.499 143.24 730.279 141.12 730.279 138.04ZM732.719 138.04C732.719 139.84 733.879 141.06 735.559 141.06C737.239 141.06 738.399 139.84 738.399 138.04C738.399 136.24 737.239 135.02 735.559 135.02C733.879 135.02 732.719 136.24 732.719 138.04ZM749.173 133.08V135.34H748.273C746.513 135.34 745.413 136.28 745.413 138.2V143H742.973V133.14H745.273L745.413 134.58C745.833 133.6 746.773 132.94 748.093 132.94C748.433 132.94 748.773 132.98 749.173 133.08Z" fill="black"/>
<path id="Vector 2249_2_3" d="M949 125H872" stroke="black" stroke-width="3" stroke-linecap="round"/>
<g id="B_PESTICIDES_3">
<path id="Rectangle 4863" d="M703.25 150H597.75C590.156 150 584 156.156 584 163.75C584 171.344 590.156 177.5 597.75 177.5H703.25C710.844 177.5 717 171.344 717 163.75C717 156.156 710.844 150 703.25 150Z" fill="#5658E7"/>
<path id="text_2_3" d="M611.319 165.96H608.099V171H605.539V156.38H611.319C614.259 156.38 616.159 158.3 616.159 161.16C616.159 163.98 614.239 165.96 611.319 165.96ZM610.819 158.66H608.099V163.68H610.779C612.539 163.68 613.479 162.74 613.479 161.14C613.479 159.54 612.519 158.66 610.819 158.66ZM621.884 171.26C618.944 171.26 616.884 169.12 616.884 166.06C616.884 162.96 618.904 160.82 621.804 160.82C624.764 160.82 626.644 162.8 626.644 165.88V166.62L619.204 166.64C619.384 168.38 620.304 169.26 621.924 169.26C623.264 169.26 624.144 168.74 624.424 167.8H626.684C626.264 169.96 624.464 171.26 621.884 171.26ZM621.824 162.82C620.384 162.82 619.504 163.6 619.264 165.08H624.224C624.224 163.72 623.284 162.82 621.824 162.82ZM627.837 168H630.157C630.177 168.86 630.817 169.4 631.937 169.4C633.077 169.4 633.697 168.94 633.697 168.22C633.697 167.72 633.437 167.36 632.557 167.16L630.777 166.74C628.997 166.34 628.137 165.5 628.137 163.92C628.137 161.98 629.777 160.82 632.057 160.82C634.277 160.82 635.777 162.1 635.797 164.02H633.477C633.457 163.18 632.897 162.64 631.957 162.64C630.997 162.64 630.437 163.08 630.437 163.82C630.437 164.38 630.877 164.74 631.717 164.94L633.497 165.36C635.157 165.74 635.997 166.5 635.997 168.02C635.997 170.02 634.297 171.26 631.857 171.26C629.397 171.26 627.837 169.94 627.837 168ZM641.215 171H638.775V163.16H636.875V161.12H638.775V158.04H641.215V161.12H643.135V163.16H641.215V171ZM645.872 159.14C645.032 159.14 644.372 158.48 644.372 157.66C644.372 156.84 645.032 156.2 645.872 156.2C646.672 156.2 647.332 156.84 647.332 157.66C647.332 158.48 646.672 159.14 645.872 159.14ZM644.652 171V161.12H647.092V171H644.652ZM649.033 166.04C649.033 162.98 651.053 160.82 653.973 160.82C656.673 160.82 658.513 162.32 658.773 164.7H656.333C656.053 163.58 655.233 163 654.073 163C652.513 163 651.473 164.18 651.473 166.04C651.473 167.9 652.433 169.06 653.993 169.06C655.213 169.06 656.073 168.46 656.333 167.38H658.793C658.493 169.68 656.573 171.26 653.993 171.26C650.993 171.26 649.033 169.18 649.033 166.04ZM661.829 159.14C660.989 159.14 660.329 158.48 660.329 157.66C660.329 156.84 660.989 156.2 661.829 156.2C662.629 156.2 663.289 156.84 663.289 157.66C663.289 158.48 662.629 159.14 661.829 159.14ZM660.609 171V161.12H663.049V171H660.609ZM669.63 171.26C666.77 171.26 664.99 169.16 664.99 166.1C664.99 163.02 666.79 160.82 669.77 160.82C671.15 160.82 672.37 161.4 672.99 162.38V156.12H675.41V171H673.17L673.01 169.46C672.41 170.6 671.13 171.26 669.63 171.26ZM670.17 169.02C671.87 169.02 672.97 167.8 672.97 166.02C672.97 164.24 671.87 163 670.17 163C668.47 163 667.43 164.26 667.43 166.02C667.43 167.78 668.47 169.02 670.17 169.02ZM682.372 171.26C679.432 171.26 677.372 169.12 677.372 166.06C677.372 162.96 679.392 160.82 682.292 160.82C685.252 160.82 687.132 162.8 687.132 165.88V166.62L679.692 166.64C679.872 168.38 680.792 169.26 682.412 169.26C683.752 169.26 684.632 168.74 684.912 167.8H687.172C686.752 169.96 684.952 171.26 682.372 171.26ZM682.312 162.82C680.872 162.82 679.992 163.6 679.752 165.08H684.712C684.712 163.72 683.772 162.82 682.312 162.82ZM688.325 168H690.645C690.665 168.86 691.305 169.4 692.425 169.4C693.565 169.4 694.185 168.94 694.185 168.22C694.185 167.72 693.925 167.36 693.045 167.16L691.265 166.74C689.485 166.34 688.625 165.5 688.625 163.92C688.625 161.98 690.265 160.82 692.545 160.82C694.765 160.82 696.265 162.1 696.285 164.02H693.965C693.945 163.18 693.385 162.64 692.445 162.64C691.485 162.64 690.925 163.08 690.925 163.82C690.925 164.38 691.365 164.74 692.205 164.94L693.985 165.36C695.645 165.74 696.485 166.5 696.485 168.02C696.485 170.02 694.785 171.26 692.345 171.26C689.885 171.26 688.325 169.94 688.325 168Z" fill="white"/>
</g>
</g>
<g id="3_TEXT">
<path id="Reproductive system disrupted" d="M455.56 490H453V475.38H458.58C461.9 475.38 463.84 477.06 463.84 479.94C463.84 481.9 462.92 483.3 461.2 484L463.98 490H461.18L458.7 484.54H455.56V490ZM455.56 477.66V482.28H458.58C460.2 482.28 461.16 481.42 461.16 479.94C461.16 478.48 460.2 477.66 458.58 477.66H455.56ZM469.96 490.26C467.02 490.26 464.96 488.12 464.96 485.06C464.96 481.96 466.98 479.82 469.88 479.82C472.84 479.82 474.72 481.8 474.72 484.88V485.62L467.28 485.64C467.46 487.38 468.38 488.26 470 488.26C471.34 488.26 472.22 487.74 472.5 486.8H474.76C474.34 488.96 472.54 490.26 469.96 490.26ZM469.9 481.82C468.46 481.82 467.58 482.6 467.34 484.08H472.3C472.3 482.72 471.36 481.82 469.9 481.82ZM476.87 494.58V480.12H479.13L479.29 481.62C479.89 480.48 481.19 479.82 482.69 479.82C485.47 479.82 487.31 481.84 487.31 484.94C487.31 488.02 485.63 490.26 482.69 490.26C481.21 490.26 479.93 489.68 479.31 488.68V494.58H476.87ZM479.33 485.06C479.33 486.84 480.43 488.06 482.11 488.06C483.83 488.06 484.85 486.82 484.85 485.06C484.85 483.3 483.83 482.04 482.11 482.04C480.43 482.04 479.33 483.28 479.33 485.06ZM495.65 480.08V482.34H494.75C492.99 482.34 491.89 483.28 491.89 485.2V490H489.45V480.14H491.75L491.89 481.58C492.31 480.6 493.25 479.94 494.57 479.94C494.91 479.94 495.25 479.98 495.65 480.08ZM496.59 485.04C496.59 481.96 498.81 479.84 501.87 479.84C504.93 479.84 507.15 481.96 507.15 485.04C507.15 488.12 504.93 490.24 501.87 490.24C498.81 490.24 496.59 488.12 496.59 485.04ZM499.03 485.04C499.03 486.84 500.19 488.06 501.87 488.06C503.55 488.06 504.71 486.84 504.71 485.04C504.71 483.24 503.55 482.02 501.87 482.02C500.19 482.02 499.03 483.24 499.03 485.04ZM513.34 490.26C510.48 490.26 508.7 488.16 508.7 485.1C508.7 482.02 510.5 479.82 513.48 479.82C514.86 479.82 516.08 480.4 516.7 481.38V475.12H519.12V490H516.88L516.72 488.46C516.12 489.6 514.84 490.26 513.34 490.26ZM513.88 488.02C515.58 488.02 516.68 486.8 516.68 485.02C516.68 483.24 515.58 482 513.88 482C512.18 482 511.14 483.26 511.14 485.02C511.14 486.78 512.18 488.02 513.88 488.02ZM528.57 480.12H531.01V490H528.75L528.57 488.68C527.97 489.62 526.69 490.26 525.37 490.26C523.09 490.26 521.75 488.72 521.75 486.3V480.12H524.19V485.44C524.19 487.32 524.93 488.08 526.29 488.08C527.83 488.08 528.57 487.18 528.57 485.3V480.12ZM532.95 485.04C532.95 481.98 534.97 479.82 537.89 479.82C540.59 479.82 542.43 481.32 542.69 483.7H540.25C539.97 482.58 539.15 482 537.99 482C536.43 482 535.39 483.18 535.39 485.04C535.39 486.9 536.35 488.06 537.91 488.06C539.13 488.06 539.99 487.46 540.25 486.38H542.71C542.41 488.68 540.49 490.26 537.91 490.26C534.91 490.26 532.95 488.18 532.95 485.04ZM548.09 490H545.65V482.16H543.75V480.12H545.65V477.04H548.09V480.12H550.01V482.16H548.09V490ZM552.95 478.14C552.11 478.14 551.45 477.48 551.45 476.66C551.45 475.84 552.11 475.2 552.95 475.2C553.75 475.2 554.41 475.84 554.41 476.66C554.41 477.48 553.75 478.14 552.95 478.14ZM551.73 490V480.12H554.17V490H551.73ZM559.69 490L555.77 480.12H558.37L560.09 484.66C560.51 485.84 560.85 486.86 560.97 487.4C561.11 486.78 561.47 485.74 561.89 484.66L563.69 480.12H566.21L562.09 490H559.69ZM571.74 490.26C568.8 490.26 566.74 488.12 566.74 485.06C566.74 481.96 568.76 479.82 571.66 479.82C574.62 479.82 576.5 481.8 576.5 484.88V485.62L569.06 485.64C569.24 487.38 570.16 488.26 571.78 488.26C573.12 488.26 574 487.74 574.28 486.8H576.54C576.12 488.96 574.32 490.26 571.74 490.26ZM571.68 481.82C570.24 481.82 569.36 482.6 569.12 484.08H574.08C574.08 482.72 573.14 481.82 571.68 481.82ZM583.48 487H585.8C585.82 487.86 586.46 488.4 587.58 488.4C588.72 488.4 589.34 487.94 589.34 487.22C589.34 486.72 589.08 486.36 588.2 486.16L586.42 485.74C584.64 485.34 583.78 484.5 583.78 482.92C583.78 480.98 585.42 479.82 587.7 479.82C589.92 479.82 591.42 481.1 591.44 483.02H589.12C589.1 482.18 588.54 481.64 587.6 481.64C586.64 481.64 586.08 482.08 586.08 482.82C586.08 483.38 586.52 483.74 587.36 483.94L589.14 484.36C590.8 484.74 591.64 485.5 591.64 487.02C591.64 489.02 589.94 490.26 587.5 490.26C585.04 490.26 583.48 488.94 583.48 487ZM592.65 494.58V492.54H594.11C595.07 492.54 595.67 492.32 596.09 491.16L596.37 490.42L592.39 480.12H594.97L597.51 487.32L600.19 480.12H602.71L597.87 492.2C597.13 494.04 596.09 494.8 594.47 494.8C593.79 494.8 593.19 494.72 592.65 494.58ZM603.32 487H605.64C605.66 487.86 606.3 488.4 607.42 488.4C608.56 488.4 609.18 487.94 609.18 487.22C609.18 486.72 608.92 486.36 608.04 486.16L606.26 485.74C604.48 485.34 603.62 484.5 603.62 482.92C603.62 480.98 605.26 479.82 607.54 479.82C609.76 479.82 611.26 481.1 611.28 483.02H608.96C608.94 482.18 608.38 481.64 607.44 481.64C606.48 481.64 605.92 482.08 605.92 482.82C605.92 483.38 606.36 483.74 607.2 483.94L608.98 484.36C610.64 484.74 611.48 485.5 611.48 487.02C611.48 489.02 609.78 490.26 607.34 490.26C604.88 490.26 603.32 488.94 603.32 487ZM616.9 490H614.46V482.16H612.56V480.12H614.46V477.04H616.9V480.12H618.82V482.16H616.9V490ZM624.85 490.26C621.91 490.26 619.85 488.12 619.85 485.06C619.85 481.96 621.87 479.82 624.77 479.82C627.73 479.82 629.61 481.8 629.61 484.88V485.62L622.17 485.64C622.35 487.38 623.27 488.26 624.89 488.26C626.23 488.26 627.11 487.74 627.39 486.8H629.65C629.23 488.96 627.43 490.26 624.85 490.26ZM624.79 481.82C623.35 481.82 622.47 482.6 622.23 484.08H627.19C627.19 482.72 626.25 481.82 624.79 481.82ZM634.21 490H631.77V480.12H634.01L634.21 481.28C634.71 480.46 635.71 479.82 637.13 479.82C638.63 479.82 639.67 480.56 640.19 481.7C640.69 480.56 641.85 479.82 643.35 479.82C645.75 479.82 647.07 481.26 647.07 483.54V490H644.65V484.18C644.65 482.76 643.89 482.02 642.73 482.02C641.55 482.02 640.65 482.78 640.65 484.4V490H638.21V484.16C638.21 482.78 637.47 482.04 636.31 482.04C635.15 482.04 634.21 482.8 634.21 484.4V490ZM659.31 490.26C656.45 490.26 654.67 488.16 654.67 485.1C654.67 482.02 656.47 479.82 659.45 479.82C660.83 479.82 662.05 480.4 662.67 481.38V475.12H665.09V490H662.85L662.69 488.46C662.09 489.6 660.81 490.26 659.31 490.26ZM659.85 488.02C661.55 488.02 662.65 486.8 662.65 485.02C662.65 483.24 661.55 482 659.85 482C658.15 482 657.11 483.26 657.11 485.02C657.11 486.78 658.15 488.02 659.85 488.02ZM669.06 478.14C668.22 478.14 667.56 477.48 667.56 476.66C667.56 475.84 668.22 475.2 669.06 475.2C669.86 475.2 670.52 475.84 670.52 476.66C670.52 477.48 669.86 478.14 669.06 478.14ZM667.84 490V480.12H670.28V490H667.84ZM672.24 487H674.56C674.58 487.86 675.22 488.4 676.34 488.4C677.48 488.4 678.1 487.94 678.1 487.22C678.1 486.72 677.84 486.36 676.96 486.16L675.18 485.74C673.4 485.34 672.54 484.5 672.54 482.92C672.54 480.98 674.18 479.82 676.46 479.82C678.68 479.82 680.18 481.1 680.2 483.02H677.88C677.86 482.18 677.3 481.64 676.36 481.64C675.4 481.64 674.84 482.08 674.84 482.82C674.84 483.38 675.28 483.74 676.12 483.94L677.9 484.36C679.56 484.74 680.4 485.5 680.4 487.02C680.4 489.02 678.7 490.26 676.26 490.26C673.8 490.26 672.24 488.94 672.24 487ZM688.65 480.08V482.34H687.75C685.99 482.34 684.89 483.28 684.89 485.2V490H682.45V480.14H684.75L684.89 481.58C685.31 480.6 686.25 479.94 687.57 479.94C687.91 479.94 688.25 479.98 688.65 480.08ZM697.21 480.12H699.65V490H697.39L697.21 488.68C696.61 489.62 695.33 490.26 694.01 490.26C691.73 490.26 690.39 488.72 690.39 486.3V480.12H692.83V485.44C692.83 487.32 693.57 488.08 694.93 488.08C696.47 488.08 697.21 487.18 697.21 485.3V480.12ZM702.37 494.58V480.12H704.63L704.79 481.62C705.39 480.48 706.69 479.82 708.19 479.82C710.97 479.82 712.81 481.84 712.81 484.94C712.81 488.02 711.13 490.26 708.19 490.26C706.71 490.26 705.43 489.68 704.81 488.68V494.58H702.37ZM704.83 485.06C704.83 486.84 705.93 488.06 707.61 488.06C709.33 488.06 710.35 486.82 710.35 485.06C710.35 483.3 709.33 482.04 707.61 482.04C705.93 482.04 704.83 483.28 704.83 485.06ZM718.21 490H715.77V482.16H713.87V480.12H715.77V477.04H718.21V480.12H720.13V482.16H718.21V490ZM726.17 490.26C723.23 490.26 721.17 488.12 721.17 485.06C721.17 481.96 723.19 479.82 726.09 479.82C729.05 479.82 730.93 481.8 730.93 484.88V485.62L723.49 485.64C723.67 487.38 724.59 488.26 726.21 488.26C727.55 488.26 728.43 487.74 728.71 486.8H730.97C730.55 488.96 728.75 490.26 726.17 490.26ZM726.11 481.82C724.67 481.82 723.79 482.6 723.55 484.08H728.51C728.51 482.72 727.57 481.82 726.11 481.82ZM737.14 490.26C734.28 490.26 732.5 488.16 732.5 485.1C732.5 482.02 734.3 479.82 737.28 479.82C738.66 479.82 739.88 480.4 740.5 481.38V475.12H742.92V490H740.68L740.52 488.46C739.92 489.6 738.64 490.26 737.14 490.26ZM737.68 488.02C739.38 488.02 740.48 486.8 740.48 485.02C740.48 483.24 739.38 482 737.68 482C735.98 482 734.94 483.26 734.94 485.02C734.94 486.78 735.98 488.02 737.68 488.02Z" fill="black"/>
<path id="Vector 2249_7" d="M949 484.01L749 484.01" stroke="black" stroke-width="3" stroke-linecap="round"/>
<g id="B_PESTICIDES_2">
<path id="Rectangle 4863_2_3" d="M572.629 501H467.129C459.535 501 453.379 507.156 453.379 514.75C453.379 522.344 459.535 528.5 467.129 528.5H572.629C580.223 528.5 586.379 522.344 586.379 514.75C586.379 507.156 580.223 501 572.629 501Z" fill="#5658E7"/>
<path id="text_7" d="M480.698 516.96H477.478V522H474.918V507.38H480.698C483.638 507.38 485.538 509.3 485.538 512.16C485.538 514.98 483.618 516.96 480.698 516.96ZM480.198 509.66H477.478V514.68H480.158C481.918 514.68 482.858 513.74 482.858 512.14C482.858 510.54 481.898 509.66 480.198 509.66ZM491.258 522.26C488.318 522.26 486.258 520.12 486.258 517.06C486.258 513.96 488.278 511.82 491.178 511.82C494.138 511.82 496.018 513.8 496.018 516.88V517.62L488.578 517.64C488.758 519.38 489.678 520.26 491.298 520.26C492.638 520.26 493.518 519.74 493.798 518.8H496.058C495.638 520.96 493.838 522.26 491.258 522.26ZM491.198 513.82C489.758 513.82 488.878 514.6 488.638 516.08H493.598C493.598 514.72 492.658 513.82 491.198 513.82ZM497.218 519H499.538C499.558 519.86 500.198 520.4 501.318 520.4C502.458 520.4 503.078 519.94 503.078 519.22C503.078 518.72 502.818 518.36 501.938 518.16L500.158 517.74C498.378 517.34 497.518 516.5 497.518 514.92C497.518 512.98 499.158 511.82 501.438 511.82C503.658 511.82 505.158 513.1 505.178 515.02H502.858C502.838 514.18 502.278 513.64 501.338 513.64C500.378 513.64 499.818 514.08 499.818 514.82C499.818 515.38 500.258 515.74 501.098 515.94L502.878 516.36C504.538 516.74 505.378 517.5 505.378 519.02C505.378 521.02 503.678 522.26 501.238 522.26C498.778 522.26 497.218 520.94 497.218 519ZM510.588 522H508.148V514.16H506.248V512.12H508.148V509.04H510.588V512.12H512.508V514.16H510.588V522ZM515.248 510.14C514.408 510.14 513.748 509.48 513.748 508.66C513.748 507.84 514.408 507.2 515.248 507.2C516.048 507.2 516.708 507.84 516.708 508.66C516.708 509.48 516.048 510.14 515.248 510.14ZM514.028 522V512.12H516.468V522H514.028ZM518.408 517.04C518.408 513.98 520.428 511.82 523.348 511.82C526.048 511.82 527.888 513.32 528.148 515.7H525.708C525.428 514.58 524.608 514 523.448 514C521.888 514 520.848 515.18 520.848 517.04C520.848 518.9 521.808 520.06 523.368 520.06C524.588 520.06 525.448 519.46 525.708 518.38H528.168C527.868 520.68 525.948 522.26 523.368 522.26C520.368 522.26 518.408 520.18 518.408 517.04ZM531.208 510.14C530.368 510.14 529.708 509.48 529.708 508.66C529.708 507.84 530.368 507.2 531.208 507.2C532.008 507.2 532.668 507.84 532.668 508.66C532.668 509.48 532.008 510.14 531.208 510.14ZM529.988 522V512.12H532.428V522H529.988ZM539.008 522.26C536.148 522.26 534.368 520.16 534.368 517.1C534.368 514.02 536.168 511.82 539.148 511.82C540.528 511.82 541.748 512.4 542.368 513.38V507.12H544.788V522H542.548L542.388 520.46C541.788 521.6 540.508 522.26 539.008 522.26ZM539.548 520.02C541.248 520.02 542.348 518.8 542.348 517.02C542.348 515.24 541.248 514 539.548 514C537.848 514 536.808 515.26 536.808 517.02C536.808 518.78 537.848 520.02 539.548 520.02ZM551.748 522.26C548.808 522.26 546.748 520.12 546.748 517.06C546.748 513.96 548.768 511.82 551.668 511.82C554.628 511.82 556.508 513.8 556.508 516.88V517.62L549.068 517.64C549.248 519.38 550.168 520.26 551.788 520.26C553.128 520.26 554.008 519.74 554.288 518.8H556.548C556.128 520.96 554.328 522.26 551.748 522.26ZM551.688 513.82C550.248 513.82 549.368 514.6 549.128 516.08H554.088C554.088 514.72 553.148 513.82 551.688 513.82ZM557.698 519H560.018C560.038 519.86 560.678 520.4 561.798 520.4C562.938 520.4 563.558 519.94 563.558 519.22C563.558 518.72 563.298 518.36 562.418 518.16L560.638 517.74C558.858 517.34 557.998 516.5 557.998 514.92C557.998 512.98 559.638 511.82 561.918 511.82C564.138 511.82 565.638 513.1 565.658 515.02H563.338C563.318 514.18 562.758 513.64 561.818 513.64C560.858 513.64 560.298 514.08 560.298 514.82C560.298 515.38 560.738 515.74 561.578 515.94L563.358 516.36C565.018 516.74 565.858 517.5 565.858 519.02C565.858 521.02 564.158 522.26 561.718 522.26C559.258 522.26 557.698 520.94 557.698 519Z" fill="white"/>
</g>
</g>
<g id="1_TEXT">
<path id="Nervous system disruption" d="M1056.14 147.88H1053.62V133.26H1056.16L1063.02 143.62V133.26H1065.54V147.88H1063.02L1056.14 137.52V147.88ZM1073.04 148.14C1070.1 148.14 1068.04 146 1068.04 142.94C1068.04 139.84 1070.06 137.7 1072.96 137.7C1075.92 137.7 1077.8 139.68 1077.8 142.76V143.5L1070.36 143.52C1070.54 145.26 1071.46 146.14 1073.08 146.14C1074.42 146.14 1075.3 145.62 1075.58 144.68H1077.84C1077.42 146.84 1075.62 148.14 1073.04 148.14ZM1072.98 139.7C1071.54 139.7 1070.66 140.48 1070.42 141.96H1075.38C1075.38 140.6 1074.44 139.7 1072.98 139.7ZM1086.15 137.96V140.22H1085.25C1083.49 140.22 1082.39 141.16 1082.39 143.08V147.88H1079.95V138.02H1082.25L1082.39 139.46C1082.81 138.48 1083.75 137.82 1085.07 137.82C1085.41 137.82 1085.75 137.86 1086.15 137.96ZM1091.1 147.88L1087.18 138H1089.78L1091.5 142.54C1091.92 143.72 1092.26 144.74 1092.38 145.28C1092.52 144.66 1092.88 143.62 1093.3 142.54L1095.1 138H1097.62L1093.5 147.88H1091.1ZM1098.15 142.92C1098.15 139.84 1100.37 137.72 1103.43 137.72C1106.49 137.72 1108.71 139.84 1108.71 142.92C1108.71 146 1106.49 148.12 1103.43 148.12C1100.37 148.12 1098.15 146 1098.15 142.92ZM1100.59 142.92C1100.59 144.72 1101.75 145.94 1103.43 145.94C1105.11 145.94 1106.27 144.72 1106.27 142.92C1106.27 141.12 1105.11 139.9 1103.43 139.9C1101.75 139.9 1100.59 141.12 1100.59 142.92ZM1117.31 138H1119.75V147.88H1117.49L1117.31 146.56C1116.71 147.5 1115.43 148.14 1114.11 148.14C1111.83 148.14 1110.49 146.6 1110.49 144.18V138H1112.93V143.32C1112.93 145.2 1113.67 145.96 1115.03 145.96C1116.57 145.96 1117.31 145.06 1117.31 143.18V138ZM1121.51 144.88H1123.83C1123.85 145.74 1124.49 146.28 1125.61 146.28C1126.75 146.28 1127.37 145.82 1127.37 145.1C1127.37 144.6 1127.11 144.24 1126.23 144.04L1124.45 143.62C1122.67 143.22 1121.81 142.38 1121.81 140.8C1121.81 138.86 1123.45 137.7 1125.73 137.7C1127.95 137.7 1129.45 138.98 1129.47 140.9H1127.15C1127.13 140.06 1126.57 139.52 1125.63 139.52C1124.67 139.52 1124.11 139.96 1124.11 140.7C1124.11 141.26 1124.55 141.62 1125.39 141.82L1127.17 142.24C1128.83 142.62 1129.67 143.38 1129.67 144.9C1129.67 146.9 1127.97 148.14 1125.53 148.14C1123.07 148.14 1121.51 146.82 1121.51 144.88ZM1136.56 144.88H1138.88C1138.9 145.74 1139.54 146.28 1140.66 146.28C1141.8 146.28 1142.42 145.82 1142.42 145.1C1142.42 144.6 1142.16 144.24 1141.28 144.04L1139.5 143.62C1137.72 143.22 1136.86 142.38 1136.86 140.8C1136.86 138.86 1138.5 137.7 1140.78 137.7C1143 137.7 1144.5 138.98 1144.52 140.9H1142.2C1142.18 140.06 1141.62 139.52 1140.68 139.52C1139.72 139.52 1139.16 139.96 1139.16 140.7C1139.16 141.26 1139.6 141.62 1140.44 141.82L1142.22 142.24C1143.88 142.62 1144.72 143.38 1144.72 144.9C1144.72 146.9 1143.02 148.14 1140.58 148.14C1138.12 148.14 1136.56 146.82 1136.56 144.88ZM1145.72 152.46V150.42H1147.18C1148.14 150.42 1148.74 150.2 1149.16 149.04L1149.44 148.3L1145.46 138H1148.04L1150.58 145.2L1153.26 138H1155.78L1150.94 150.08C1150.2 151.92 1149.16 152.68 1147.54 152.68C1146.86 152.68 1146.26 152.6 1145.72 152.46ZM1156.4 144.88H1158.72C1158.74 145.74 1159.38 146.28 1160.5 146.28C1161.64 146.28 1162.26 145.82 1162.26 145.1C1162.26 144.6 1162 144.24 1161.12 144.04L1159.34 143.62C1157.56 143.22 1156.7 142.38 1156.7 140.8C1156.7 138.86 1158.34 137.7 1160.62 137.7C1162.84 137.7 1164.34 138.98 1164.36 140.9H1162.04C1162.02 140.06 1161.46 139.52 1160.52 139.52C1159.56 139.52 1159 139.96 1159 140.7C1159 141.26 1159.44 141.62 1160.28 141.82L1162.06 142.24C1163.72 142.62 1164.56 143.38 1164.56 144.9C1164.56 146.9 1162.86 148.14 1160.42 148.14C1157.96 148.14 1156.4 146.82 1156.4 144.88ZM1169.97 147.88H1167.53V140.04H1165.63V138H1167.53V134.92H1169.97V138H1171.89V140.04H1169.97V147.88ZM1177.93 148.14C1174.99 148.14 1172.93 146 1172.93 142.94C1172.93 139.84 1174.95 137.7 1177.85 137.7C1180.81 137.7 1182.69 139.68 1182.69 142.76V143.5L1175.25 143.52C1175.43 145.26 1176.35 146.14 1177.97 146.14C1179.31 146.14 1180.19 145.62 1180.47 144.68H1182.73C1182.31 146.84 1180.51 148.14 1177.93 148.14ZM1177.87 139.7C1176.43 139.7 1175.55 140.48 1175.31 141.96H1180.27C1180.27 140.6 1179.33 139.7 1177.87 139.7ZM1187.29 147.88H1184.85V138H1187.09L1187.29 139.16C1187.79 138.34 1188.79 137.7 1190.21 137.7C1191.71 137.7 1192.75 138.44 1193.27 139.58C1193.77 138.44 1194.93 137.7 1196.43 137.7C1198.83 137.7 1200.15 139.14 1200.15 141.42V147.88H1197.73V142.06C1197.73 140.64 1196.97 139.9 1195.81 139.9C1194.63 139.9 1193.73 140.66 1193.73 142.28V147.88H1191.29V142.04C1191.29 140.66 1190.55 139.92 1189.39 139.92C1188.23 139.92 1187.29 140.68 1187.29 142.28V147.88ZM1212.39 148.14C1209.53 148.14 1207.75 146.04 1207.75 142.98C1207.75 139.9 1209.55 137.7 1212.53 137.7C1213.91 137.7 1215.13 138.28 1215.75 139.26V133H1218.17V147.88H1215.93L1215.77 146.34C1215.17 147.48 1213.89 148.14 1212.39 148.14ZM1212.93 145.9C1214.63 145.9 1215.73 144.68 1215.73 142.9C1215.73 141.12 1214.63 139.88 1212.93 139.88C1211.23 139.88 1210.19 141.14 1210.19 142.9C1210.19 144.66 1211.23 145.9 1212.93 145.9ZM1222.13 136.02C1221.29 136.02 1220.63 135.36 1220.63 134.54C1220.63 133.72 1221.29 133.08 1222.13 133.08C1222.93 133.08 1223.59 133.72 1223.59 134.54C1223.59 135.36 1222.93 136.02 1222.13 136.02ZM1220.91 147.88V138H1223.35V147.88H1220.91ZM1225.32 144.88H1227.64C1227.66 145.74 1228.3 146.28 1229.42 146.28C1230.56 146.28 1231.18 145.82 1231.18 145.1C1231.18 144.6 1230.92 144.24 1230.04 144.04L1228.26 143.62C1226.48 143.22 1225.62 142.38 1225.62 140.8C1225.62 138.86 1227.26 137.7 1229.54 137.7C1231.76 137.7 1233.26 138.98 1233.28 140.9H1230.96C1230.94 140.06 1230.38 139.52 1229.44 139.52C1228.48 139.52 1227.92 139.96 1227.92 140.7C1227.92 141.26 1228.36 141.62 1229.2 141.82L1230.98 142.24C1232.64 142.62 1233.48 143.38 1233.48 144.9C1233.48 146.9 1231.78 148.14 1229.34 148.14C1226.88 148.14 1225.32 146.82 1225.32 144.88ZM1241.73 137.96V140.22H1240.83C1239.07 140.22 1237.97 141.16 1237.97 143.08V147.88H1235.53V138.02H1237.83L1237.97 139.46C1238.39 138.48 1239.33 137.82 1240.65 137.82C1240.99 137.82 1241.33 137.86 1241.73 137.96ZM1250.28 138H1252.72V147.88H1250.46L1250.28 146.56C1249.68 147.5 1248.4 148.14 1247.08 148.14C1244.8 148.14 1243.46 146.6 1243.46 144.18V138H1245.9V143.32C1245.9 145.2 1246.64 145.96 1248 145.96C1249.54 145.96 1250.28 145.06 1250.28 143.18V138ZM1255.45 152.46V138H1257.71L1257.87 139.5C1258.47 138.36 1259.77 137.7 1261.27 137.7C1264.05 137.7 1265.89 139.72 1265.89 142.82C1265.89 145.9 1264.21 148.14 1261.27 148.14C1259.79 148.14 1258.51 147.56 1257.89 146.56V152.46H1255.45ZM1257.91 142.94C1257.91 144.72 1259.01 145.94 1260.69 145.94C1262.41 145.94 1263.43 144.7 1263.43 142.94C1263.43 141.18 1262.41 139.92 1260.69 139.92C1259.01 139.92 1257.91 141.16 1257.91 142.94ZM1271.29 147.88H1268.85V140.04H1266.95V138H1268.85V134.92H1271.29V138H1273.21V140.04H1271.29V147.88ZM1276.15 136.02C1275.31 136.02 1274.65 135.36 1274.65 134.54C1274.65 133.72 1275.31 133.08 1276.15 133.08C1276.95 133.08 1277.61 133.72 1277.61 134.54C1277.61 135.36 1276.95 136.02 1276.15 136.02ZM1274.93 147.88V138H1277.37V147.88H1274.93ZM1279.51 142.92C1279.51 139.84 1281.73 137.72 1284.79 137.72C1287.85 137.72 1290.07 139.84 1290.07 142.92C1290.07 146 1287.85 148.12 1284.79 148.12C1281.73 148.12 1279.51 146 1279.51 142.92ZM1281.95 142.92C1281.95 144.72 1283.11 145.94 1284.79 145.94C1286.47 145.94 1287.63 144.72 1287.63 142.92C1287.63 141.12 1286.47 139.9 1284.79 139.9C1283.11 139.9 1281.95 141.12 1281.95 142.92ZM1294.64 147.88H1292.2V138H1294.46L1294.66 139.28C1295.28 138.28 1296.48 137.7 1297.82 137.7C1300.3 137.7 1301.58 139.24 1301.58 141.8V147.88H1299.14V142.38C1299.14 140.72 1298.32 139.92 1297.06 139.92C1295.56 139.92 1294.64 140.96 1294.64 142.56V147.88Z" fill="black"/>
<path id="Vector 2249_3" d="M973 142.89L1046 142.89" stroke="black" stroke-width="3" stroke-linecap="round"/>
<g id="B_PESTICIDES_4">
<path id="Rectangle 4863_2_4" d="M1171.25 156.879H1065.75C1058.16 156.879 1052 163.035 1052 170.629C1052 178.223 1058.16 184.379 1065.75 184.379H1171.25C1178.84 184.379 1185 178.223 1185 170.629C1185 163.035 1178.84 156.879 1171.25 156.879Z" fill="#5658E7"/>
<path id="text_3" d="M1079.32 172.84H1076.1V177.88H1073.54V163.26H1079.32C1082.26 163.26 1084.16 165.18 1084.16 168.04C1084.16 170.86 1082.24 172.84 1079.32 172.84ZM1078.82 165.54H1076.1V170.56H1078.78C1080.54 170.56 1081.48 169.62 1081.48 168.02C1081.48 166.42 1080.52 165.54 1078.82 165.54ZM1089.88 178.14C1086.94 178.14 1084.88 176 1084.88 172.94C1084.88 169.84 1086.9 167.7 1089.8 167.7C1092.76 167.7 1094.64 169.68 1094.64 172.76V173.5L1087.2 173.52C1087.38 175.26 1088.3 176.14 1089.92 176.14C1091.26 176.14 1092.14 175.62 1092.42 174.68H1094.68C1094.26 176.84 1092.46 178.14 1089.88 178.14ZM1089.82 169.7C1088.38 169.7 1087.5 170.48 1087.26 171.96H1092.22C1092.22 170.6 1091.28 169.7 1089.82 169.7ZM1095.84 174.88H1098.16C1098.18 175.74 1098.82 176.28 1099.94 176.28C1101.08 176.28 1101.7 175.82 1101.7 175.1C1101.7 174.6 1101.44 174.24 1100.56 174.04L1098.78 173.62C1097 173.22 1096.14 172.38 1096.14 170.8C1096.14 168.86 1097.78 167.7 1100.06 167.7C1102.28 167.7 1103.78 168.98 1103.8 170.9H1101.48C1101.46 170.06 1100.9 169.52 1099.96 169.52C1099 169.52 1098.44 169.96 1098.44 170.7C1098.44 171.26 1098.88 171.62 1099.72 171.82L1101.5 172.24C1103.16 172.62 1104 173.38 1104 174.9C1104 176.9 1102.3 178.14 1099.86 178.14C1097.4 178.14 1095.84 176.82 1095.84 174.88ZM1109.22 177.88H1106.78V170.04H1104.88V168H1106.78V164.92H1109.22V168H1111.14V170.04H1109.22V177.88ZM1113.87 166.02C1113.03 166.02 1112.37 165.36 1112.37 164.54C1112.37 163.72 1113.03 163.08 1113.87 163.08C1114.67 163.08 1115.33 163.72 1115.33 164.54C1115.33 165.36 1114.67 166.02 1113.87 166.02ZM1112.65 177.88V168H1115.09V177.88H1112.65ZM1117.03 172.92C1117.03 169.86 1119.05 167.7 1121.97 167.7C1124.67 167.7 1126.51 169.2 1126.77 171.58H1124.33C1124.05 170.46 1123.23 169.88 1122.07 169.88C1120.51 169.88 1119.47 171.06 1119.47 172.92C1119.47 174.78 1120.43 175.94 1121.99 175.94C1123.21 175.94 1124.07 175.34 1124.33 174.26H1126.79C1126.49 176.56 1124.57 178.14 1121.99 178.14C1118.99 178.14 1117.03 176.06 1117.03 172.92ZM1129.83 166.02C1128.99 166.02 1128.33 165.36 1128.33 164.54C1128.33 163.72 1128.99 163.08 1129.83 163.08C1130.63 163.08 1131.29 163.72 1131.29 164.54C1131.29 165.36 1130.63 166.02 1129.83 166.02ZM1128.61 177.88V168H1131.05V177.88H1128.61ZM1137.63 178.14C1134.77 178.14 1132.99 176.04 1132.99 172.98C1132.99 169.9 1134.79 167.7 1137.77 167.7C1139.15 167.7 1140.37 168.28 1140.99 169.26V163H1143.41V177.88H1141.17L1141.01 176.34C1140.41 177.48 1139.13 178.14 1137.63 178.14ZM1138.17 175.9C1139.87 175.9 1140.97 174.68 1140.97 172.9C1140.97 171.12 1139.87 169.88 1138.17 169.88C1136.47 169.88 1135.43 171.14 1135.43 172.9C1135.43 174.66 1136.47 175.9 1138.17 175.9ZM1150.37 178.14C1147.43 178.14 1145.37 176 1145.37 172.94C1145.37 169.84 1147.39 167.7 1150.29 167.7C1153.25 167.7 1155.13 169.68 1155.13 172.76V173.5L1147.69 173.52C1147.87 175.26 1148.79 176.14 1150.41 176.14C1151.75 176.14 1152.63 175.62 1152.91 174.68H1155.17C1154.75 176.84 1152.95 178.14 1150.37 178.14ZM1150.31 169.7C1148.87 169.7 1147.99 170.48 1147.75 171.96H1152.71C1152.71 170.6 1151.77 169.7 1150.31 169.7ZM1156.33 174.88H1158.65C1158.67 175.74 1159.31 176.28 1160.43 176.28C1161.57 176.28 1162.19 175.82 1162.19 175.1C1162.19 174.6 1161.93 174.24 1161.05 174.04L1159.27 173.62C1157.49 173.22 1156.63 172.38 1156.63 170.8C1156.63 168.86 1158.27 167.7 1160.55 167.7C1162.77 167.7 1164.27 168.98 1164.29 170.9H1161.97C1161.95 170.06 1161.39 169.52 1160.45 169.52C1159.49 169.52 1158.93 169.96 1158.93 170.7C1158.93 171.26 1159.37 171.62 1160.21 171.82L1161.99 172.24C1163.65 172.62 1164.49 173.38 1164.49 174.9C1164.49 176.9 1162.79 178.14 1160.35 178.14C1157.89 178.14 1156.33 176.82 1156.33 174.88Z" fill="white"/>
</g>
</g>
<g id="2_TEXT">
<path id="Cancer" d="M695.395 317.377C691.135 317.377 688.375 314.417 688.375 309.837C688.375 305.297 691.235 302.277 695.515 302.277C698.975 302.277 701.555 304.297 702.055 307.437H699.355C698.855 305.737 697.395 304.737 695.455 304.737C692.755 304.737 691.055 306.697 691.055 309.817C691.055 312.917 692.775 314.917 695.455 314.917C697.435 314.917 698.955 313.877 699.435 312.257H702.095C701.535 315.337 698.855 317.377 695.395 317.377ZM706.975 317.397C704.875 317.397 703.595 316.177 703.595 314.317C703.595 312.497 704.915 311.357 707.255 311.177L710.215 310.957V310.737C710.215 309.397 709.415 308.857 708.175 308.857C706.735 308.857 705.935 309.457 705.935 310.497H703.855C703.855 308.357 705.615 306.957 708.295 306.957C710.955 306.957 712.595 308.397 712.595 311.137V317.137H710.455L710.275 315.677C709.855 316.697 708.515 317.397 706.975 317.397ZM707.775 315.557C709.275 315.557 710.235 314.657 710.235 313.137V312.617L708.175 312.777C706.655 312.917 706.075 313.417 706.075 314.217C706.075 315.117 706.675 315.557 707.775 315.557ZM717.632 317.137H715.192V307.257H717.452L717.652 308.537C718.272 307.537 719.472 306.957 720.812 306.957C723.292 306.957 724.572 308.497 724.572 311.057V317.137H722.132V311.637C722.132 309.977 721.312 309.177 720.052 309.177C718.552 309.177 717.632 310.217 717.632 311.817V317.137ZM726.59 312.177C726.59 309.117 728.61 306.957 731.53 306.957C734.23 306.957 736.07 308.457 736.33 310.837H733.89C733.61 309.717 732.79 309.137 731.63 309.137C730.07 309.137 729.03 310.317 729.03 312.177C729.03 314.037 729.99 315.197 731.55 315.197C732.77 315.197 733.63 314.597 733.89 313.517H736.35C736.05 315.817 734.13 317.397 731.55 317.397C728.55 317.397 726.59 315.317 726.59 312.177ZM742.786 317.397C739.846 317.397 737.786 315.257 737.786 312.197C737.786 309.097 739.806 306.957 742.706 306.957C745.666 306.957 747.546 308.937 747.546 312.017V312.757L740.106 312.777C740.286 314.517 741.206 315.397 742.826 315.397C744.166 315.397 745.046 314.877 745.326 313.937H747.586C747.166 316.097 745.366 317.397 742.786 317.397ZM742.726 308.957C741.286 308.957 740.406 309.737 740.166 311.217H745.126C745.126 309.857 744.186 308.957 742.726 308.957ZM755.899 307.217V309.477H754.999C753.239 309.477 752.139 310.417 752.139 312.337V317.137H749.699V307.277H751.999L752.139 308.717C752.559 307.737 753.499 307.077 754.819 307.077C755.159 307.077 755.499 307.117 755.899 307.217Z" fill="black"/>
<path id="Vector 2249" d="M950.469 312.138H763.594" stroke="black" stroke-width="3" stroke-linecap="round"/>
<g id="B_PESTICIDES_5">
<path id="Rectangle 4863_2_5" d="M807.25 326H701.75C694.156 326 688 332.156 688 339.75C688 347.344 694.156 353.5 701.75 353.5H807.25C814.844 353.5 821 347.344 821 339.75C821 332.156 814.844 326 807.25 326Z" fill="#5658E7"/>
<path id="text_2_4" d="M715.319 341.96H712.099V347H709.539V332.38H715.319C718.259 332.38 720.159 334.3 720.159 337.16C720.159 339.98 718.239 341.96 715.319 341.96ZM714.819 334.66H712.099V339.68H714.779C716.539 339.68 717.479 338.74 717.479 337.14C717.479 335.54 716.519 334.66 714.819 334.66ZM725.884 347.26C722.944 347.26 720.884 345.12 720.884 342.06C720.884 338.96 722.904 336.82 725.804 336.82C728.764 336.82 730.644 338.8 730.644 341.88V342.62L723.204 342.64C723.384 344.38 724.304 345.26 725.924 345.26C727.264 345.26 728.144 344.74 728.424 343.8H730.684C730.264 345.96 728.464 347.26 725.884 347.26ZM725.824 338.82C724.384 338.82 723.504 339.6 723.264 341.08H728.224C728.224 339.72 727.284 338.82 725.824 338.82ZM731.837 344H734.157C734.177 344.86 734.817 345.4 735.937 345.4C737.077 345.4 737.697 344.94 737.697 344.22C737.697 343.72 737.437 343.36 736.557 343.16L734.777 342.74C732.997 342.34 732.137 341.5 732.137 339.92C732.137 337.98 733.777 336.82 736.057 336.82C738.277 336.82 739.777 338.1 739.797 340.02H737.477C737.457 339.18 736.897 338.64 735.957 338.64C734.997 338.64 734.437 339.08 734.437 339.82C734.437 340.38 734.877 340.74 735.717 340.94L737.497 341.36C739.157 341.74 739.997 342.5 739.997 344.02C739.997 346.02 738.297 347.26 735.857 347.26C733.397 347.26 731.837 345.94 731.837 344ZM745.215 347H742.775V339.16H740.875V337.12H742.775V334.04H745.215V337.12H747.135V339.16H745.215V347ZM749.872 335.14C749.032 335.14 748.372 334.48 748.372 333.66C748.372 332.84 749.032 332.2 749.872 332.2C750.672 332.2 751.332 332.84 751.332 333.66C751.332 334.48 750.672 335.14 749.872 335.14ZM748.652 347V337.12H751.092V347H748.652ZM753.033 342.04C753.033 338.98 755.053 336.82 757.973 336.82C760.673 336.82 762.513 338.32 762.773 340.7H760.333C760.053 339.58 759.233 339 758.073 339C756.513 339 755.473 340.18 755.473 342.04C755.473 343.9 756.433 345.06 757.993 345.06C759.213 345.06 760.073 344.46 760.333 343.38H762.793C762.493 345.68 760.573 347.26 757.993 347.26C754.993 347.26 753.033 345.18 753.033 342.04ZM765.829 335.14C764.989 335.14 764.329 334.48 764.329 333.66C764.329 332.84 764.989 332.2 765.829 332.2C766.629 332.2 767.289 332.84 767.289 333.66C767.289 334.48 766.629 335.14 765.829 335.14ZM764.609 347V337.12H767.049V347H764.609ZM773.63 347.26C770.77 347.26 768.99 345.16 768.99 342.1C768.99 339.02 770.79 336.82 773.77 336.82C775.15 336.82 776.37 337.4 776.99 338.38V332.12H779.41V347H777.17L777.01 345.46C776.41 346.6 775.13 347.26 773.63 347.26ZM774.17 345.02C775.87 345.02 776.97 343.8 776.97 342.02C776.97 340.24 775.87 339 774.17 339C772.47 339 771.43 340.26 771.43 342.02C771.43 343.78 772.47 345.02 774.17 345.02ZM786.372 347.26C783.432 347.26 781.372 345.12 781.372 342.06C781.372 338.96 783.392 336.82 786.292 336.82C789.252 336.82 791.132 338.8 791.132 341.88V342.62L783.692 342.64C783.872 344.38 784.792 345.26 786.412 345.26C787.752 345.26 788.632 344.74 788.912 343.8H791.172C790.752 345.96 788.952 347.26 786.372 347.26ZM786.312 338.82C784.872 338.82 783.992 339.6 783.752 341.08H788.712C788.712 339.72 787.772 338.82 786.312 338.82ZM792.325 344H794.645C794.665 344.86 795.305 345.4 796.425 345.4C797.565 345.4 798.185 344.94 798.185 344.22C798.185 343.72 797.925 343.36 797.045 343.16L795.265 342.74C793.485 342.34 792.625 341.5 792.625 339.92C792.625 337.98 794.265 336.82 796.545 336.82C798.765 336.82 800.265 338.1 800.285 340.02H797.965C797.945 339.18 797.385 338.64 796.445 338.64C795.485 338.64 794.925 339.08 794.925 339.82C794.925 340.38 795.365 340.74 796.205 340.94L797.985 341.36C799.645 341.74 800.485 342.5 800.485 344.02C800.485 346.02 798.785 347.26 796.345 347.26C793.885 347.26 792.325 345.94 792.325 344Z" fill="white"/>
</g>
</g>
<g id="centroids">
<path id="4_DOT" d="M957.476 563.178C959.263 563.178 960.711 561.73 960.711 559.944C960.711 558.158 959.263 556.71 957.476 556.71C955.69 556.71 954.242 558.158 954.242 559.944C954.242 561.73 955.69 563.178 957.476 563.178Z" fill="#FF0000"/>
<path id="5_DOT" d="M995.234 654.429C997.02 654.429 998.468 652.981 998.468 651.195C998.468 649.409 997.02 647.961 995.234 647.961C993.448 647.961 992 649.409 992 651.195C992 652.981 993.448 654.429 995.234 654.429Z" fill="#FF0000"/>
<path id="0_DOT" d="M956.398 128.717C958.184 128.717 959.632 127.269 959.632 125.483C959.632 123.697 958.184 122.249 956.398 122.249C954.612 122.249 953.164 123.697 953.164 125.483C953.164 127.269 954.612 128.717 956.398 128.717Z" fill="#FF0000"/>
<path id="3_DOT" d="M957.476 487.715C959.263 487.715 960.711 486.267 960.711 484.48C960.711 482.694 959.263 481.246 957.476 481.246C955.69 481.246 954.242 482.694 954.242 484.48C954.242 486.267 955.69 487.715 957.476 487.715Z" fill="#FF0000"/>
<path id="1_DOT" d="M965.398 145.597C967.184 145.597 968.632 144.149 968.632 142.363C968.632 140.577 967.184 139.129 965.398 139.129C963.612 139.129 962.164 140.577 962.164 142.363C962.164 144.149 963.612 145.597 965.398 145.597Z" fill="#FF0000"/>
<path id="2_DOT" d="M960.711 315.223C962.497 315.223 963.945 313.775 963.945 311.989C963.945 310.203 962.497 308.755 960.711 308.755C958.925 308.755 957.477 310.203 957.477 311.989C957.477 313.775 958.925 315.223 960.711 315.223Z" fill="#FF0000"/>
</g>
</g>
</svg>
