<svg width="1920" height="1080" viewBox="0 0 1920 1080" fill="none" xmlns="http://www.w3.org/2000/svg">
<g id="PFASS">
<g id="1_TEXT">
<g id="Immunotoxicity">
<path d="M1070.74 216.38V231H1068.18V216.38H1070.74Z" fill="black"/>
<path d="M1076.26 231H1073.82V221.12H1076.06L1076.26 222.28C1076.76 221.46 1077.76 220.82 1079.18 220.82C1080.68 220.82 1081.72 221.56 1082.24 222.7C1082.74 221.56 1083.9 220.82 1085.4 220.82C1087.8 220.82 1089.12 222.26 1089.12 224.54V231H1086.7V225.18C1086.7 223.76 1085.94 223.02 1084.78 223.02C1083.6 223.02 1082.7 223.78 1082.7 225.4V231H1080.26V225.16C1080.26 223.78 1079.52 223.04 1078.36 223.04C1077.2 223.04 1076.26 223.8 1076.26 225.4V231Z" fill="black"/>
<path d="M1094.16 231H1091.72V221.12H1093.96L1094.16 222.28C1094.66 221.46 1095.66 220.82 1097.08 220.82C1098.58 220.82 1099.62 221.56 1100.14 222.7C1100.64 221.56 1101.8 220.82 1103.3 220.82C1105.7 220.82 1107.02 222.26 1107.02 224.54V231H1104.6V225.18C1104.6 223.76 1103.84 223.02 1102.68 223.02C1101.5 223.02 1100.6 223.78 1100.6 225.4V231H1098.16V225.16C1098.16 223.78 1097.42 223.04 1096.26 223.04C1095.1 223.04 1094.16 223.8 1094.16 225.4V231Z" fill="black"/>
<path d="M1116.31 221.12H1118.76V231H1116.49L1116.31 229.68C1115.72 230.62 1114.43 231.26 1113.11 231.26C1110.83 231.26 1109.49 229.72 1109.49 227.3V221.12H1111.93V226.44C1111.93 228.32 1112.67 229.08 1114.03 229.08C1115.58 229.08 1116.31 228.18 1116.31 226.3V221.12Z" fill="black"/>
<path d="M1123.92 231H1121.48V221.12H1123.74L1123.94 222.4C1124.56 221.4 1125.76 220.82 1127.1 220.82C1129.58 220.82 1130.86 222.36 1130.86 224.92V231H1128.42V225.5C1128.42 223.84 1127.6 223.04 1126.34 223.04C1124.84 223.04 1123.92 224.08 1123.92 225.68V231Z" fill="black"/>
<path d="M1132.87 226.04C1132.87 222.96 1135.09 220.84 1138.15 220.84C1141.21 220.84 1143.43 222.96 1143.43 226.04C1143.43 229.12 1141.21 231.24 1138.15 231.24C1135.09 231.24 1132.87 229.12 1132.87 226.04ZM1135.31 226.04C1135.31 227.84 1136.47 229.06 1138.15 229.06C1139.83 229.06 1140.99 227.84 1140.99 226.04C1140.99 224.24 1139.83 223.02 1138.15 223.02C1136.47 223.02 1135.31 224.24 1135.31 226.04Z" fill="black"/>
<path d="M1148.83 231H1146.39V223.16H1144.49V221.12H1146.39V218.04H1148.83V221.12H1150.75V223.16H1148.83V231Z" fill="black"/>
<path d="M1151.79 226.04C1151.79 222.96 1154.01 220.84 1157.07 220.84C1160.13 220.84 1162.35 222.96 1162.35 226.04C1162.35 229.12 1160.13 231.24 1157.07 231.24C1154.01 231.24 1151.79 229.12 1151.79 226.04ZM1154.23 226.04C1154.23 227.84 1155.39 229.06 1157.07 229.06C1158.75 229.06 1159.91 227.84 1159.91 226.04C1159.91 224.24 1158.75 223.02 1157.07 223.02C1155.39 223.02 1154.23 224.24 1154.23 226.04Z" fill="black"/>
<path d="M1165.75 231H1162.97L1166.37 226.16L1162.97 221.12H1165.81L1167.99 224.48L1170.09 221.12H1172.83L1169.47 226.12L1172.73 231H1169.93L1167.83 227.74L1165.75 231Z" fill="black"/>
<path d="M1175.71 219.14C1174.87 219.14 1174.21 218.48 1174.21 217.66C1174.21 216.84 1174.87 216.2 1175.71 216.2C1176.51 216.2 1177.17 216.84 1177.17 217.66C1177.17 218.48 1176.51 219.14 1175.71 219.14ZM1174.49 231V221.12H1176.93V231H1174.49Z" fill="black"/>
<path d="M1179.07 226.04C1179.07 222.98 1181.09 220.82 1184.01 220.82C1186.71 220.82 1188.55 222.32 1188.81 224.7H1186.37C1186.09 223.58 1185.27 223 1184.11 223C1182.55 223 1181.51 224.18 1181.51 226.04C1181.51 227.9 1182.47 229.06 1184.03 229.06C1185.25 229.06 1186.11 228.46 1186.37 227.38H1188.83C1188.53 229.68 1186.61 231.26 1184.03 231.26C1181.03 231.26 1179.07 229.18 1179.07 226.04Z" fill="black"/>
<path d="M1192.06 219.14C1191.22 219.14 1190.56 218.48 1190.56 217.66C1190.56 216.84 1191.22 216.2 1192.06 216.2C1192.86 216.2 1193.52 216.84 1193.52 217.66C1193.52 218.48 1192.86 219.14 1192.06 219.14ZM1190.84 231V221.12H1193.28V231H1190.84Z" fill="black"/>
<path d="M1199.36 231H1196.92V223.16H1195.02V221.12H1196.92V218.04H1199.36V221.12H1201.28V223.16H1199.36V231Z" fill="black"/>
<path d="M1202.14 235.58V233.54H1203.6C1204.56 233.54 1205.16 233.32 1205.58 232.16L1205.86 231.42L1201.88 221.12H1204.46L1207 228.32L1209.68 221.12H1212.2L1207.36 233.2C1206.62 235.04 1205.58 235.8 1203.96 235.8C1203.28 235.8 1202.68 235.72 1202.14 235.58Z" fill="black"/>
</g>
<g id="B_PFASs">
<path id="Rectangle 4860_2" d="M1161.81 240.727H1078.31C1070.72 240.727 1064.56 246.883 1064.56 254.477C1064.56 262.07 1070.72 268.227 1078.31 268.227H1161.81C1169.41 268.227 1175.56 262.07 1175.56 254.477C1175.56 246.883 1169.41 240.727 1161.81 240.727Z" fill="#E45C4D"/>
<path id="text_2" d="M1098.5 256.687H1095.28V261.727H1092.72V247.107H1098.5C1101.44 247.107 1103.34 249.027 1103.34 251.887C1103.34 254.707 1101.42 256.687 1098.5 256.687ZM1098 249.387H1095.28V254.407H1097.96C1099.72 254.407 1100.66 253.467 1100.66 251.867C1100.66 250.267 1099.7 249.387 1098 249.387ZM1113.49 255.747H1108.05V261.727H1105.49V247.107H1114.53V249.467H1108.05V253.447H1113.49V255.747ZM1117.2 261.727H1114.54L1119.82 247.107H1122.44L1127.72 261.727H1125.02L1123.84 258.347H1118.38L1117.2 261.727ZM1120.8 251.467L1119.14 256.187H1123.1L1121.42 251.467C1121.3 251.087 1121.16 250.647 1121.12 250.347C1121.06 250.627 1120.94 251.067 1120.8 251.467ZM1128.71 251.187C1128.71 248.627 1130.83 246.847 1133.91 246.847C1136.87 246.847 1138.75 248.487 1138.83 251.127H1136.27C1136.21 249.867 1135.31 249.127 1133.87 249.127C1132.29 249.127 1131.27 249.887 1131.27 251.107C1131.27 252.147 1131.83 252.727 1133.05 253.007L1135.35 253.507C1137.85 254.047 1139.07 255.327 1139.07 257.507C1139.07 260.227 1136.95 261.987 1133.73 261.987C1130.61 261.987 1128.57 260.327 1128.51 257.707H1131.07C1131.09 258.947 1132.09 259.687 1133.73 259.687C1135.43 259.687 1136.51 258.947 1136.51 257.727C1136.51 256.747 1136.01 256.167 1134.81 255.907L1132.49 255.387C1130.01 254.847 1128.71 253.427 1128.71 251.187ZM1140.27 258.727H1142.59C1142.61 259.587 1143.25 260.127 1144.37 260.127C1145.51 260.127 1146.13 259.667 1146.13 258.947C1146.13 258.447 1145.87 258.087 1144.99 257.887L1143.21 257.467C1141.43 257.067 1140.57 256.227 1140.57 254.647C1140.57 252.707 1142.21 251.547 1144.49 251.547C1146.71 251.547 1148.21 252.827 1148.23 254.747H1145.91C1145.89 253.907 1145.33 253.367 1144.39 253.367C1143.43 253.367 1142.87 253.807 1142.87 254.547C1142.87 255.107 1143.31 255.467 1144.15 255.667L1145.93 256.087C1147.59 256.467 1148.43 257.227 1148.43 258.747C1148.43 260.747 1146.73 261.987 1144.29 261.987C1141.83 261.987 1140.27 260.667 1140.27 258.727Z" fill="white"/>
</g>
<path id="Vector 2249_2" d="M961.562 224.727H1059.56" stroke="black" stroke-width="3" stroke-linecap="round"/>
</g>
<g id="3_TEXT">
<path id="Increased cholesterol level" d="M1115.18 330.38V345H1112.62V330.38H1115.18ZM1120.7 345H1118.26V335.12H1120.52L1120.72 336.4C1121.34 335.4 1122.54 334.82 1123.88 334.82C1126.36 334.82 1127.64 336.36 1127.64 338.92V345H1125.2V339.5C1125.2 337.84 1124.38 337.04 1123.12 337.04C1121.62 337.04 1120.7 338.08 1120.7 339.68V345ZM1129.66 340.04C1129.66 336.98 1131.68 334.82 1134.6 334.82C1137.3 334.82 1139.14 336.32 1139.4 338.7H1136.96C1136.68 337.58 1135.86 337 1134.7 337C1133.14 337 1132.1 338.18 1132.1 340.04C1132.1 341.9 1133.06 343.06 1134.62 343.06C1135.84 343.06 1136.7 342.46 1136.96 341.38H1139.42C1139.12 343.68 1137.2 345.26 1134.62 345.26C1131.62 345.26 1129.66 343.18 1129.66 340.04ZM1147.63 335.08V337.34H1146.73C1144.97 337.34 1143.87 338.28 1143.87 340.2V345H1141.43V335.14H1143.73L1143.87 336.58C1144.29 335.6 1145.23 334.94 1146.55 334.94C1146.89 334.94 1147.23 334.98 1147.63 335.08ZM1153.57 345.26C1150.63 345.26 1148.57 343.12 1148.57 340.06C1148.57 336.96 1150.59 334.82 1153.49 334.82C1156.45 334.82 1158.33 336.8 1158.33 339.88V340.62L1150.89 340.64C1151.07 342.38 1151.99 343.26 1153.61 343.26C1154.95 343.26 1155.83 342.74 1156.11 341.8H1158.37C1157.95 343.96 1156.15 345.26 1153.57 345.26ZM1153.51 336.82C1152.07 336.82 1151.19 337.6 1150.95 339.08H1155.91C1155.91 337.72 1154.97 336.82 1153.51 336.82ZM1163.33 345.26C1161.23 345.26 1159.95 344.04 1159.95 342.18C1159.95 340.36 1161.27 339.22 1163.61 339.04L1166.57 338.82V338.6C1166.57 337.26 1165.77 336.72 1164.53 336.72C1163.09 336.72 1162.29 337.32 1162.29 338.36H1160.21C1160.21 336.22 1161.97 334.82 1164.65 334.82C1167.31 334.82 1168.95 336.26 1168.95 339V345H1166.81L1166.63 343.54C1166.21 344.56 1164.87 345.26 1163.33 345.26ZM1164.13 343.42C1165.63 343.42 1166.59 342.52 1166.59 341V340.48L1164.53 340.64C1163.01 340.78 1162.43 341.28 1162.43 342.08C1162.43 342.98 1163.03 343.42 1164.13 343.42ZM1170.79 342H1173.11C1173.13 342.86 1173.77 343.4 1174.89 343.4C1176.03 343.4 1176.65 342.94 1176.65 342.22C1176.65 341.72 1176.39 341.36 1175.51 341.16L1173.73 340.74C1171.95 340.34 1171.09 339.5 1171.09 337.92C1171.09 335.98 1172.73 334.82 1175.01 334.82C1177.23 334.82 1178.73 336.1 1178.75 338.02H1176.43C1176.41 337.18 1175.85 336.64 1174.91 336.64C1173.95 336.64 1173.39 337.08 1173.39 337.82C1173.39 338.38 1173.83 338.74 1174.67 338.94L1176.45 339.36C1178.11 339.74 1178.95 340.5 1178.95 342.02C1178.95 344.02 1177.25 345.26 1174.81 345.26C1172.35 345.26 1170.79 343.94 1170.79 342ZM1185.42 345.26C1182.48 345.26 1180.42 343.12 1180.42 340.06C1180.42 336.96 1182.44 334.82 1185.34 334.82C1188.3 334.82 1190.18 336.8 1190.18 339.88V340.62L1182.74 340.64C1182.92 342.38 1183.84 343.26 1185.46 343.26C1186.8 343.26 1187.68 342.74 1187.96 341.8H1190.22C1189.8 343.96 1188 345.26 1185.42 345.26ZM1185.36 336.82C1183.92 336.82 1183.04 337.6 1182.8 339.08H1187.76C1187.76 337.72 1186.82 336.82 1185.36 336.82ZM1196.4 345.26C1193.54 345.26 1191.76 343.16 1191.76 340.1C1191.76 337.02 1193.56 334.82 1196.54 334.82C1197.92 334.82 1199.14 335.4 1199.76 336.38V330.12H1202.18V345H1199.94L1199.78 343.46C1199.18 344.6 1197.9 345.26 1196.4 345.26ZM1196.94 343.02C1198.64 343.02 1199.74 341.8 1199.74 340.02C1199.74 338.24 1198.64 337 1196.94 337C1195.24 337 1194.2 338.26 1194.2 340.02C1194.2 341.78 1195.24 343.02 1196.94 343.02ZM1209.93 340.04C1209.93 336.98 1211.95 334.82 1214.87 334.82C1217.57 334.82 1219.41 336.32 1219.67 338.7H1217.23C1216.95 337.58 1216.13 337 1214.97 337C1213.41 337 1212.37 338.18 1212.37 340.04C1212.37 341.9 1213.33 343.06 1214.89 343.06C1216.11 343.06 1216.97 342.46 1217.23 341.38H1219.69C1219.39 343.68 1217.47 345.26 1214.89 345.26C1211.89 345.26 1209.93 343.18 1209.93 340.04ZM1224.15 345H1221.71V330.12H1224.17V336.4C1224.79 335.44 1225.95 334.82 1227.37 334.82C1229.81 334.82 1231.09 336.36 1231.09 338.92V345H1228.65V339.5C1228.65 337.84 1227.83 337.04 1226.59 337.04C1225.05 337.04 1224.15 338.12 1224.15 339.6V345ZM1233.1 340.04C1233.1 336.96 1235.32 334.84 1238.38 334.84C1241.44 334.84 1243.66 336.96 1243.66 340.04C1243.66 343.12 1241.44 345.24 1238.38 345.24C1235.32 345.24 1233.1 343.12 1233.1 340.04ZM1235.54 340.04C1235.54 341.84 1236.7 343.06 1238.38 343.06C1240.06 343.06 1241.22 341.84 1241.22 340.04C1241.22 338.24 1240.06 337.02 1238.38 337.02C1236.7 337.02 1235.54 338.24 1235.54 340.04ZM1248.26 345H1245.84V330.12H1248.26V345ZM1255.44 345.26C1252.5 345.26 1250.44 343.12 1250.44 340.06C1250.44 336.96 1252.46 334.82 1255.36 334.82C1258.32 334.82 1260.2 336.8 1260.2 339.88V340.62L1252.76 340.64C1252.94 342.38 1253.86 343.26 1255.48 343.26C1256.82 343.26 1257.7 342.74 1257.98 341.8H1260.24C1259.82 343.96 1258.02 345.26 1255.44 345.26ZM1255.38 336.82C1253.94 336.82 1253.06 337.6 1252.82 339.08H1257.78C1257.78 337.72 1256.84 336.82 1255.38 336.82ZM1261.59 342H1263.91C1263.93 342.86 1264.57 343.4 1265.69 343.4C1266.83 343.4 1267.45 342.94 1267.45 342.22C1267.45 341.72 1267.19 341.36 1266.31 341.16L1264.53 340.74C1262.75 340.34 1261.89 339.5 1261.89 337.92C1261.89 335.98 1263.53 334.82 1265.81 334.82C1268.03 334.82 1269.53 336.1 1269.55 338.02H1267.23C1267.21 337.18 1266.65 336.64 1265.71 336.64C1264.75 336.64 1264.19 337.08 1264.19 337.82C1264.19 338.38 1264.63 338.74 1265.47 338.94L1267.25 339.36C1268.91 339.74 1269.75 340.5 1269.75 342.02C1269.75 344.02 1268.05 345.26 1265.61 345.26C1263.15 345.26 1261.59 343.94 1261.59 342ZM1275.17 345H1272.73V337.16H1270.83V335.12H1272.73V332.04H1275.17V335.12H1277.09V337.16H1275.17V345ZM1283.13 345.26C1280.19 345.26 1278.13 343.12 1278.13 340.06C1278.13 336.96 1280.15 334.82 1283.05 334.82C1286.01 334.82 1287.89 336.8 1287.89 339.88V340.62L1280.45 340.64C1280.63 342.38 1281.55 343.26 1283.17 343.26C1284.51 343.26 1285.39 342.74 1285.67 341.8H1287.93C1287.51 343.96 1285.71 345.26 1283.13 345.26ZM1283.07 336.82C1281.63 336.82 1280.75 337.6 1280.51 339.08H1285.47C1285.47 337.72 1284.53 336.82 1283.07 336.82ZM1296.24 335.08V337.34H1295.34C1293.58 337.34 1292.48 338.28 1292.48 340.2V345H1290.04V335.14H1292.34L1292.48 336.58C1292.9 335.6 1293.84 334.94 1295.16 334.94C1295.5 334.94 1295.84 334.98 1296.24 335.08ZM1297.18 340.04C1297.18 336.96 1299.4 334.84 1302.46 334.84C1305.52 334.84 1307.74 336.96 1307.74 340.04C1307.74 343.12 1305.52 345.24 1302.46 345.24C1299.4 345.24 1297.18 343.12 1297.18 340.04ZM1299.62 340.04C1299.62 341.84 1300.78 343.06 1302.46 343.06C1304.14 343.06 1305.3 341.84 1305.3 340.04C1305.3 338.24 1304.14 337.02 1302.46 337.02C1300.78 337.02 1299.62 338.24 1299.62 340.04ZM1312.33 345H1309.91V330.12H1312.33V345ZM1323.14 345H1320.72V330.12H1323.14V345ZM1330.32 345.26C1327.38 345.26 1325.32 343.12 1325.32 340.06C1325.32 336.96 1327.34 334.82 1330.24 334.82C1333.2 334.82 1335.08 336.8 1335.08 339.88V340.62L1327.64 340.64C1327.82 342.38 1328.74 343.26 1330.36 343.26C1331.7 343.26 1332.58 342.74 1332.86 341.8H1335.12C1334.7 343.96 1332.9 345.26 1330.32 345.26ZM1330.26 336.82C1328.82 336.82 1327.94 337.6 1327.7 339.08H1332.66C1332.66 337.72 1331.72 336.82 1330.26 336.82ZM1339.61 345L1335.69 335.12H1338.29L1340.01 339.66C1340.43 340.84 1340.77 341.86 1340.89 342.4C1341.03 341.78 1341.39 340.74 1341.81 339.66L1343.61 335.12H1346.13L1342.01 345H1339.61ZM1351.66 345.26C1348.72 345.26 1346.66 343.12 1346.66 340.06C1346.66 336.96 1348.68 334.82 1351.58 334.82C1354.54 334.82 1356.42 336.8 1356.42 339.88V340.62L1348.98 340.64C1349.16 342.38 1350.08 343.26 1351.7 343.26C1353.04 343.26 1353.92 342.74 1354.2 341.8H1356.46C1356.04 343.96 1354.24 345.26 1351.66 345.26ZM1351.6 336.82C1350.16 336.82 1349.28 337.6 1349.04 339.08H1354C1354 337.72 1353.06 336.82 1351.6 336.82ZM1361.03 345H1358.61V330.12H1361.03V345Z" fill="black"/>
<g id="B_PFASs_2">
<path id="Rectangle 4860_2_2" d="M1206.25 354H1122.75C1115.16 354 1109 360.156 1109 367.75C1109 375.344 1115.16 381.5 1122.75 381.5H1206.25C1213.84 381.5 1220 375.344 1220 367.75C1220 360.156 1213.84 354 1206.25 354Z" fill="#E45C4D"/>
<path id="text_4" d="M1142.94 369.96H1139.72V375H1137.16V360.38H1142.94C1145.88 360.38 1147.78 362.3 1147.78 365.16C1147.78 367.98 1145.86 369.96 1142.94 369.96ZM1142.44 362.66H1139.72V367.68H1142.4C1144.16 367.68 1145.1 366.74 1145.1 365.14C1145.1 363.54 1144.14 362.66 1142.44 362.66ZM1157.93 369.02H1152.49V375H1149.93V360.38H1158.97V362.74H1152.49V366.72H1157.93V369.02ZM1161.64 375H1158.98L1164.26 360.38H1166.88L1172.16 375H1169.46L1168.28 371.62H1162.82L1161.64 375ZM1165.24 364.74L1163.58 369.46H1167.54L1165.86 364.74C1165.74 364.36 1165.6 363.92 1165.56 363.62C1165.5 363.9 1165.38 364.34 1165.24 364.74ZM1173.15 364.46C1173.15 361.9 1175.27 360.12 1178.35 360.12C1181.31 360.12 1183.19 361.76 1183.27 364.4H1180.71C1180.65 363.14 1179.75 362.4 1178.31 362.4C1176.73 362.4 1175.71 363.16 1175.71 364.38C1175.71 365.42 1176.27 366 1177.49 366.28L1179.79 366.78C1182.29 367.32 1183.51 368.6 1183.51 370.78C1183.51 373.5 1181.39 375.26 1178.17 375.26C1175.05 375.26 1173.01 373.6 1172.95 370.98H1175.51C1175.53 372.22 1176.53 372.96 1178.17 372.96C1179.87 372.96 1180.95 372.22 1180.95 371C1180.95 370.02 1180.45 369.44 1179.25 369.18L1176.93 368.66C1174.45 368.12 1173.15 366.7 1173.15 364.46ZM1184.71 372H1187.03C1187.05 372.86 1187.69 373.4 1188.81 373.4C1189.95 373.4 1190.57 372.94 1190.57 372.22C1190.57 371.72 1190.31 371.36 1189.43 371.16L1187.65 370.74C1185.87 370.34 1185.01 369.5 1185.01 367.92C1185.01 365.98 1186.65 364.82 1188.93 364.82C1191.15 364.82 1192.65 366.1 1192.67 368.02H1190.35C1190.33 367.18 1189.77 366.64 1188.83 366.64C1187.87 366.64 1187.31 367.08 1187.31 367.82C1187.31 368.38 1187.75 368.74 1188.59 368.94L1190.37 369.36C1192.03 369.74 1192.87 370.5 1192.87 372.02C1192.87 374.02 1191.17 375.26 1188.73 375.26C1186.27 375.26 1184.71 373.94 1184.71 372Z" fill="white"/>
</g>
<path id="Vector 2249_3" d="M1006 338H1104" stroke="black" stroke-width="3" stroke-linecap="round"/>
</g>
<g id="0_TEXT">
<path id="Thyroid disease" d="M724.344 204.62V202.26H735.464V204.62H731.184V216.88H728.624V204.62H724.344ZM739.694 216.88H737.254V202H739.714V208.28C740.334 207.32 741.494 206.7 742.914 206.7C745.354 206.7 746.634 208.24 746.634 210.8V216.88H744.194V211.38C744.194 209.72 743.374 208.92 742.134 208.92C740.594 208.92 739.694 210 739.694 211.48V216.88ZM748.184 221.46V219.42H749.644C750.604 219.42 751.204 219.2 751.624 218.04L751.904 217.3L747.924 207H750.504L753.044 214.2L755.724 207H758.244L753.404 219.08C752.664 220.92 751.624 221.68 750.004 221.68C749.324 221.68 748.724 221.6 748.184 221.46ZM766.024 206.96V209.22H765.124C763.364 209.22 762.264 210.16 762.264 212.08V216.88H759.824V207.02H762.124L762.264 208.46C762.684 207.48 763.624 206.82 764.944 206.82C765.284 206.82 765.624 206.86 766.024 206.96ZM766.964 211.92C766.964 208.84 769.184 206.72 772.244 206.72C775.304 206.72 777.524 208.84 777.524 211.92C777.524 215 775.304 217.12 772.244 217.12C769.184 217.12 766.964 215 766.964 211.92ZM769.404 211.92C769.404 213.72 770.564 214.94 772.244 214.94C773.924 214.94 775.084 213.72 775.084 211.92C775.084 210.12 773.924 208.9 772.244 208.9C770.564 208.9 769.404 210.12 769.404 211.92ZM780.884 205.02C780.044 205.02 779.384 204.36 779.384 203.54C779.384 202.72 780.044 202.08 780.884 202.08C781.684 202.08 782.344 202.72 782.344 203.54C782.344 204.36 781.684 205.02 780.884 205.02ZM779.664 216.88V207H782.104V216.88H779.664ZM788.884 217.14C786.024 217.14 784.244 215.04 784.244 211.98C784.244 208.9 786.044 206.7 789.024 206.7C790.404 206.7 791.624 207.28 792.244 208.26V202H794.664V216.88H792.424L792.264 215.34C791.664 216.48 790.384 217.14 788.884 217.14ZM789.424 214.9C791.124 214.9 792.224 213.68 792.224 211.9C792.224 210.12 791.124 208.88 789.424 208.88C787.724 208.88 786.684 210.14 786.684 211.9C786.684 213.66 787.724 214.9 789.424 214.9ZM807.054 217.14C804.194 217.14 802.414 215.04 802.414 211.98C802.414 208.9 804.214 206.7 807.194 206.7C808.574 206.7 809.794 207.28 810.414 208.26V202H812.834V216.88H810.594L810.434 215.34C809.834 216.48 808.554 217.14 807.054 217.14ZM807.594 214.9C809.294 214.9 810.394 213.68 810.394 211.9C810.394 210.12 809.294 208.88 807.594 208.88C805.894 208.88 804.854 210.14 804.854 211.9C804.854 213.66 805.894 214.9 807.594 214.9ZM816.794 205.02C815.954 205.02 815.294 204.36 815.294 203.54C815.294 202.72 815.954 202.08 816.794 202.08C817.594 202.08 818.254 202.72 818.254 203.54C818.254 204.36 817.594 205.02 816.794 205.02ZM815.574 216.88V207H818.014V216.88H815.574ZM819.974 213.88H822.294C822.314 214.74 822.954 215.28 824.074 215.28C825.214 215.28 825.834 214.82 825.834 214.1C825.834 213.6 825.574 213.24 824.694 213.04L822.914 212.62C821.134 212.22 820.274 211.38 820.274 209.8C820.274 207.86 821.914 206.7 824.194 206.7C826.414 206.7 827.914 207.98 827.934 209.9H825.614C825.594 209.06 825.034 208.52 824.094 208.52C823.134 208.52 822.574 208.96 822.574 209.7C822.574 210.26 823.014 210.62 823.854 210.82L825.634 211.24C827.294 211.62 828.134 212.38 828.134 213.9C828.134 215.9 826.434 217.14 823.994 217.14C821.534 217.14 819.974 215.82 819.974 213.88ZM834.614 217.14C831.674 217.14 829.614 215 829.614 211.94C829.614 208.84 831.634 206.7 834.534 206.7C837.494 206.7 839.374 208.68 839.374 211.76V212.5L831.934 212.52C832.114 214.26 833.034 215.14 834.654 215.14C835.994 215.14 836.874 214.62 837.154 213.68H839.414C838.994 215.84 837.194 217.14 834.614 217.14ZM834.554 208.7C833.114 208.7 832.234 209.48 831.994 210.96H836.954C836.954 209.6 836.014 208.7 834.554 208.7ZM844.374 217.14C842.274 217.14 840.994 215.92 840.994 214.06C840.994 212.24 842.314 211.1 844.654 210.92L847.614 210.7V210.48C847.614 209.14 846.814 208.6 845.574 208.6C844.134 208.6 843.334 209.2 843.334 210.24H841.254C841.254 208.1 843.014 206.7 845.694 206.7C848.354 206.7 849.994 208.14 849.994 210.88V216.88H847.854L847.674 215.42C847.254 216.44 845.914 217.14 844.374 217.14ZM845.174 215.3C846.674 215.3 847.634 214.4 847.634 212.88V212.36L845.574 212.52C844.054 212.66 843.474 213.16 843.474 213.96C843.474 214.86 844.074 215.3 845.174 215.3ZM851.824 213.88H854.144C854.164 214.74 854.804 215.28 855.924 215.28C857.064 215.28 857.684 214.82 857.684 214.1C857.684 213.6 857.424 213.24 856.544 213.04L854.764 212.62C852.984 212.22 852.124 211.38 852.124 209.8C852.124 207.86 853.764 206.7 856.044 206.7C858.264 206.7 859.764 207.98 859.784 209.9H857.464C857.444 209.06 856.884 208.52 855.944 208.52C854.984 208.52 854.424 208.96 854.424 209.7C854.424 210.26 854.864 210.62 855.704 210.82L857.484 211.24C859.144 211.62 859.984 212.38 859.984 213.9C859.984 215.9 858.284 217.14 855.844 217.14C853.384 217.14 851.824 215.82 851.824 213.88ZM866.464 217.14C863.524 217.14 861.464 215 861.464 211.94C861.464 208.84 863.484 206.7 866.384 206.7C869.344 206.7 871.224 208.68 871.224 211.76V212.5L863.784 212.52C863.964 214.26 864.884 215.14 866.504 215.14C867.844 215.14 868.724 214.62 869.004 213.68H871.264C870.844 215.84 869.044 217.14 866.464 217.14ZM866.404 208.7C864.964 208.7 864.084 209.48 863.844 210.96H868.804C868.804 209.6 867.864 208.7 866.404 208.7Z" fill="black"/>
<path id="Vector 2249_3_2" d="M949 210.01L879 210.01" stroke="black" stroke-width="3" stroke-linecap="round"/>
<g id="B_PFASs_3">
<path id="Rectangle 4860" d="M821.254 224.88H737.754C730.16 224.88 724.004 231.036 724.004 238.63C724.004 246.224 730.16 252.38 737.754 252.38H821.254C828.848 252.38 835.004 246.224 835.004 238.63C835.004 231.036 828.848 224.88 821.254 224.88Z" fill="#E45C4D"/>
<path id="text_3" d="M757.932 240.84H754.712V245.88H752.152V231.26H757.932C760.872 231.26 762.772 233.18 762.772 236.04C762.772 238.86 760.852 240.84 757.932 240.84ZM757.432 233.54H754.712V238.56H757.392C759.152 238.56 760.092 237.62 760.092 236.02C760.092 234.42 759.132 233.54 757.432 233.54ZM772.932 239.9H767.492V245.88H764.932V231.26H773.972V233.62H767.492V237.6H772.932V239.9ZM776.642 245.88H773.982L779.262 231.26H781.882L787.162 245.88H784.462L783.282 242.5H777.822L776.642 245.88ZM780.242 235.62L778.582 240.34H782.542L780.862 235.62C780.742 235.24 780.602 234.8 780.562 234.5C780.502 234.78 780.382 235.22 780.242 235.62ZM788.152 235.34C788.152 232.78 790.272 231 793.352 231C796.312 231 798.192 232.64 798.272 235.28H795.712C795.652 234.02 794.752 233.28 793.312 233.28C791.732 233.28 790.712 234.04 790.712 235.26C790.712 236.3 791.272 236.88 792.492 237.16L794.792 237.66C797.292 238.2 798.512 239.48 798.512 241.66C798.512 244.38 796.392 246.14 793.172 246.14C790.052 246.14 788.012 244.48 787.952 241.86H790.512C790.532 243.1 791.532 243.84 793.172 243.84C794.872 243.84 795.952 243.1 795.952 241.88C795.952 240.9 795.452 240.32 794.252 240.06L791.932 239.54C789.452 239 788.152 237.58 788.152 235.34ZM799.702 242.88H802.022C802.042 243.74 802.682 244.28 803.802 244.28C804.942 244.28 805.562 243.82 805.562 243.1C805.562 242.6 805.302 242.24 804.422 242.04L802.642 241.62C800.862 241.22 800.002 240.38 800.002 238.8C800.002 236.86 801.642 235.7 803.922 235.7C806.142 235.7 807.642 236.98 807.662 238.9H805.342C805.322 238.06 804.762 237.52 803.822 237.52C802.862 237.52 802.302 237.96 802.302 238.7C802.302 239.26 802.742 239.62 803.582 239.82L805.362 240.24C807.022 240.62 807.862 241.38 807.862 242.9C807.862 244.9 806.162 246.14 803.722 246.14C801.262 246.14 799.702 244.82 799.702 242.88Z" fill="white"/>
</g>
</g>
<g id="4_TEXT">
<path id="Liver damage" d="M619.181 364.38V376.64H625.301V379H616.621V364.38H619.181ZM628.441 367.14C627.601 367.14 626.941 366.48 626.941 365.66C626.941 364.84 627.601 364.2 628.441 364.2C629.241 364.2 629.901 364.84 629.901 365.66C629.901 366.48 629.241 367.14 628.441 367.14ZM627.221 379V369.12H629.661V379H627.221ZM635.181 379L631.261 369.12H633.861L635.581 373.66C636.001 374.84 636.341 375.86 636.461 376.4C636.601 375.78 636.961 374.74 637.381 373.66L639.181 369.12H641.701L637.581 379H635.181ZM647.241 379.26C644.301 379.26 642.241 377.12 642.241 374.06C642.241 370.96 644.261 368.82 647.161 368.82C650.121 368.82 652.001 370.8 652.001 373.88V374.62L644.561 374.64C644.741 376.38 645.661 377.26 647.281 377.26C648.621 377.26 649.501 376.74 649.781 375.8H652.041C651.621 377.96 649.821 379.26 647.241 379.26ZM647.181 370.82C645.741 370.82 644.861 371.6 644.621 373.08H649.581C649.581 371.72 648.641 370.82 647.181 370.82ZM660.351 369.08V371.34H659.451C657.691 371.34 656.591 372.28 656.591 374.2V379H654.151V369.14H656.451L656.591 370.58C657.011 369.6 657.951 368.94 659.271 368.94C659.611 368.94 659.951 368.98 660.351 369.08ZM671.851 379.26C668.991 379.26 667.211 377.16 667.211 374.1C667.211 371.02 669.011 368.82 671.991 368.82C673.371 368.82 674.591 369.4 675.211 370.38V364.12H677.631V379H675.391L675.231 377.46C674.631 378.6 673.351 379.26 671.851 379.26ZM672.391 377.02C674.091 377.02 675.191 375.8 675.191 374.02C675.191 372.24 674.091 371 672.391 371C670.691 371 669.651 372.26 669.651 374.02C669.651 375.78 670.691 377.02 672.391 377.02ZM683.311 379.26C681.211 379.26 679.931 378.04 679.931 376.18C679.931 374.36 681.251 373.22 683.591 373.04L686.551 372.82V372.6C686.551 371.26 685.751 370.72 684.511 370.72C683.071 370.72 682.271 371.32 682.271 372.36H680.191C680.191 370.22 681.951 368.82 684.631 368.82C687.291 368.82 688.931 370.26 688.931 373V379H686.791L686.611 377.54C686.191 378.56 684.851 379.26 683.311 379.26ZM684.111 377.42C685.611 377.42 686.571 376.52 686.571 375V374.48L684.511 374.64C682.991 374.78 682.411 375.28 682.411 376.08C682.411 376.98 683.011 377.42 684.111 377.42ZM693.971 379H691.531V369.12H693.771L693.971 370.28C694.471 369.46 695.471 368.82 696.891 368.82C698.391 368.82 699.431 369.56 699.951 370.7C700.451 369.56 701.611 368.82 703.111 368.82C705.511 368.82 706.831 370.26 706.831 372.54V379H704.411V373.18C704.411 371.76 703.651 371.02 702.491 371.02C701.311 371.02 700.411 371.78 700.411 373.4V379H697.971V373.16C697.971 371.78 697.231 371.04 696.071 371.04C694.911 371.04 693.971 371.8 693.971 373.4V379ZM712.371 379.26C710.271 379.26 708.991 378.04 708.991 376.18C708.991 374.36 710.311 373.22 712.651 373.04L715.611 372.82V372.6C715.611 371.26 714.811 370.72 713.571 370.72C712.131 370.72 711.331 371.32 711.331 372.36H709.251C709.251 370.22 711.011 368.82 713.691 368.82C716.351 368.82 717.991 370.26 717.991 373V379H715.851L715.671 377.54C715.251 378.56 713.911 379.26 712.371 379.26ZM713.171 377.42C714.671 377.42 715.631 376.52 715.631 375V374.48L713.571 374.64C712.051 374.78 711.471 375.28 711.471 376.08C711.471 376.98 712.071 377.42 713.171 377.42ZM720.021 373.84C720.021 370.96 721.901 368.8 724.721 368.8C726.201 368.8 727.361 369.42 727.941 370.48L728.081 369.12H730.341V378.5C730.341 381.8 728.361 383.86 725.161 383.86C722.321 383.86 720.381 382.24 720.081 379.6H722.521C722.681 380.88 723.661 381.64 725.161 381.64C726.841 381.64 727.921 380.58 727.921 378.94V377.3C727.301 378.22 726.081 378.8 724.661 378.8C721.861 378.8 720.021 376.7 720.021 373.84ZM722.481 373.78C722.481 375.44 723.541 376.68 725.141 376.68C726.821 376.68 727.861 375.5 727.861 373.78C727.861 372.1 726.841 370.94 725.141 370.94C723.521 370.94 722.481 372.16 722.481 373.78ZM737.491 379.26C734.551 379.26 732.491 377.12 732.491 374.06C732.491 370.96 734.511 368.82 737.411 368.82C740.371 368.82 742.251 370.8 742.251 373.88V374.62L734.811 374.64C734.991 376.38 735.911 377.26 737.531 377.26C738.871 377.26 739.751 376.74 740.031 375.8H742.291C741.871 377.96 740.071 379.26 737.491 379.26ZM737.431 370.82C735.991 370.82 735.111 371.6 734.871 373.08H739.831C739.831 371.72 738.891 370.82 737.431 370.82Z" fill="black"/>
<g id="B_PFASs_4">
<path id="Rectangle 4860_3" d="M710.25 388H626.75C619.156 388 613 394.156 613 401.75C613 409.344 619.156 415.5 626.75 415.5H710.25C717.844 415.5 724 409.344 724 401.75C724 394.156 717.844 388 710.25 388Z" fill="#E45C4D"/>
<path id="text_2_2" d="M646.94 403.96H643.72V409H641.16V394.38H646.94C649.88 394.38 651.78 396.3 651.78 399.16C651.78 401.98 649.86 403.96 646.94 403.96ZM646.44 396.66H643.72V401.68H646.4C648.16 401.68 649.1 400.74 649.1 399.14C649.1 397.54 648.14 396.66 646.44 396.66ZM661.93 403.02H656.49V409H653.93V394.38H662.97V396.74H656.49V400.72H661.93V403.02ZM665.64 409H662.98L668.26 394.38H670.88L676.16 409H673.46L672.28 405.62H666.82L665.64 409ZM669.24 398.74L667.58 403.46H671.54L669.86 398.74C669.74 398.36 669.6 397.92 669.56 397.62C669.5 397.9 669.38 398.34 669.24 398.74ZM677.15 398.46C677.15 395.9 679.27 394.12 682.35 394.12C685.31 394.12 687.19 395.76 687.27 398.4H684.71C684.65 397.14 683.75 396.4 682.31 396.4C680.73 396.4 679.71 397.16 679.71 398.38C679.71 399.42 680.27 400 681.49 400.28L683.79 400.78C686.29 401.32 687.51 402.6 687.51 404.78C687.51 407.5 685.39 409.26 682.17 409.26C679.05 409.26 677.01 407.6 676.95 404.98H679.51C679.53 406.22 680.53 406.96 682.17 406.96C683.87 406.96 684.95 406.22 684.95 405C684.95 404.02 684.45 403.44 683.25 403.18L680.93 402.66C678.45 402.12 677.15 400.7 677.15 398.46ZM688.71 406H691.03C691.05 406.86 691.69 407.4 692.81 407.4C693.95 407.4 694.57 406.94 694.57 406.22C694.57 405.72 694.31 405.36 693.43 405.16L691.65 404.74C689.87 404.34 689.01 403.5 689.01 401.92C689.01 399.98 690.65 398.82 692.93 398.82C695.15 398.82 696.65 400.1 696.67 402.02H694.35C694.33 401.18 693.77 400.64 692.83 400.64C691.87 400.64 691.31 401.08 691.31 401.82C691.31 402.38 691.75 402.74 692.59 402.94L694.37 403.36C696.03 403.74 696.87 404.5 696.87 406.02C696.87 408.02 695.17 409.26 692.73 409.26C690.27 409.26 688.71 407.94 688.71 406Z" fill="white"/>
</g>
<path id="Vector 2249_2_2" d="M925 372.01L753 372.01" stroke="black" stroke-width="3" stroke-linecap="round"/>
</g>
<g id="6_TEXT">
<path id="Reproduction and fertility" d="M464.181 551H461.621V536.38H467.201C470.521 536.38 472.461 538.06 472.461 540.94C472.461 542.9 471.541 544.3 469.821 545L472.601 551H469.801L467.321 545.54H464.181V551ZM464.181 538.66V543.28H467.201C468.821 543.28 469.781 542.42 469.781 540.94C469.781 539.48 468.821 538.66 467.201 538.66H464.181ZM478.576 551.26C475.636 551.26 473.576 549.12 473.576 546.06C473.576 542.96 475.596 540.82 478.496 540.82C481.456 540.82 483.336 542.8 483.336 545.88V546.62L475.896 546.64C476.076 548.38 476.996 549.26 478.616 549.26C479.956 549.26 480.836 548.74 481.116 547.8H483.376C482.956 549.96 481.156 551.26 478.576 551.26ZM478.516 542.82C477.076 542.82 476.196 543.6 475.956 545.08H480.916C480.916 543.72 479.976 542.82 478.516 542.82ZM485.489 555.58V541.12H487.749L487.909 542.62C488.509 541.48 489.809 540.82 491.309 540.82C494.089 540.82 495.929 542.84 495.929 545.94C495.929 549.02 494.249 551.26 491.309 551.26C489.829 551.26 488.549 550.68 487.929 549.68V555.58H485.489ZM487.949 546.06C487.949 547.84 489.049 549.06 490.729 549.06C492.449 549.06 493.469 547.82 493.469 546.06C493.469 544.3 492.449 543.04 490.729 543.04C489.049 543.04 487.949 544.28 487.949 546.06ZM504.272 541.08V543.34H503.372C501.612 543.34 500.512 544.28 500.512 546.2V551H498.072V541.14H500.372L500.512 542.58C500.932 541.6 501.872 540.94 503.192 540.94C503.532 540.94 503.872 540.98 504.272 541.08ZM505.211 546.04C505.211 542.96 507.431 540.84 510.491 540.84C513.551 540.84 515.771 542.96 515.771 546.04C515.771 549.12 513.551 551.24 510.491 551.24C507.431 551.24 505.211 549.12 505.211 546.04ZM507.651 546.04C507.651 547.84 508.811 549.06 510.491 549.06C512.171 549.06 513.331 547.84 513.331 546.04C513.331 544.24 512.171 543.02 510.491 543.02C508.811 543.02 507.651 544.24 507.651 546.04ZM521.966 551.26C519.106 551.26 517.326 549.16 517.326 546.1C517.326 543.02 519.126 540.82 522.106 540.82C523.486 540.82 524.706 541.4 525.326 542.38V536.12H527.746V551H525.506L525.346 549.46C524.746 550.6 523.466 551.26 521.966 551.26ZM522.506 549.02C524.206 549.02 525.306 547.8 525.306 546.02C525.306 544.24 524.206 543 522.506 543C520.806 543 519.766 544.26 519.766 546.02C519.766 547.78 520.806 549.02 522.506 549.02ZM537.188 541.12H539.628V551H537.368L537.188 549.68C536.588 550.62 535.308 551.26 533.988 551.26C531.708 551.26 530.368 549.72 530.368 547.3V541.12H532.808V546.44C532.808 548.32 533.548 549.08 534.908 549.08C536.448 549.08 537.188 548.18 537.188 546.3V541.12ZM541.573 546.04C541.573 542.98 543.593 540.82 546.513 540.82C549.213 540.82 551.053 542.32 551.313 544.7H548.873C548.593 543.58 547.773 543 546.613 543C545.053 543 544.013 544.18 544.013 546.04C544.013 547.9 544.973 549.06 546.533 549.06C547.753 549.06 548.613 548.46 548.873 547.38H551.333C551.033 549.68 549.113 551.26 546.533 551.26C543.533 551.26 541.573 549.18 541.573 546.04ZM556.709 551H554.269V543.16H552.369V541.12H554.269V538.04H556.709V541.12H558.629V543.16H556.709V551ZM561.566 539.14C560.726 539.14 560.066 538.48 560.066 537.66C560.066 536.84 560.726 536.2 561.566 536.2C562.366 536.2 563.026 536.84 563.026 537.66C563.026 538.48 562.366 539.14 561.566 539.14ZM560.346 551V541.12H562.786V551H560.346ZM564.927 546.04C564.927 542.96 567.147 540.84 570.207 540.84C573.267 540.84 575.487 542.96 575.487 546.04C575.487 549.12 573.267 551.24 570.207 551.24C567.147 551.24 564.927 549.12 564.927 546.04ZM567.367 546.04C567.367 547.84 568.527 549.06 570.207 549.06C571.887 549.06 573.047 547.84 573.047 546.04C573.047 544.24 571.887 543.02 570.207 543.02C568.527 543.02 567.367 544.24 567.367 546.04ZM580.061 551H577.621V541.12H579.881L580.081 542.4C580.701 541.4 581.901 540.82 583.241 540.82C585.721 540.82 587.001 542.36 587.001 544.92V551H584.561V545.5C584.561 543.84 583.741 543.04 582.481 543.04C580.981 543.04 580.061 544.08 580.061 545.68V551ZM598.129 551.26C596.029 551.26 594.749 550.04 594.749 548.18C594.749 546.36 596.069 545.22 598.409 545.04L601.369 544.82V544.6C601.369 543.26 600.569 542.72 599.329 542.72C597.889 542.72 597.089 543.32 597.089 544.36H595.009C595.009 542.22 596.769 540.82 599.449 540.82C602.109 540.82 603.749 542.26 603.749 545V551H601.609L601.429 549.54C601.009 550.56 599.669 551.26 598.129 551.26ZM598.929 549.42C600.429 549.42 601.389 548.52 601.389 547V546.48L599.329 546.64C597.809 546.78 597.229 547.28 597.229 548.08C597.229 548.98 597.829 549.42 598.929 549.42ZM608.786 551H606.346V541.12H608.606L608.806 542.4C609.426 541.4 610.626 540.82 611.966 540.82C614.446 540.82 615.726 542.36 615.726 544.92V551H613.286V545.5C613.286 543.84 612.466 543.04 611.206 543.04C609.706 543.04 608.786 544.08 608.786 545.68V551ZM622.384 551.26C619.524 551.26 617.744 549.16 617.744 546.1C617.744 543.02 619.544 540.82 622.524 540.82C623.904 540.82 625.124 541.4 625.744 542.38V536.12H628.164V551H625.924L625.764 549.46C625.164 550.6 623.884 551.26 622.384 551.26ZM622.924 549.02C624.624 549.02 625.724 547.8 625.724 546.02C625.724 544.24 624.624 543 622.924 543C621.224 543 620.184 544.26 620.184 546.02C620.184 547.78 621.224 549.02 622.924 549.02ZM635.517 541.12H636.937V539.92C636.937 537.24 638.357 536.12 640.497 536.12C640.877 536.12 641.337 536.14 641.757 536.22V538.3H640.897C639.657 538.3 639.357 538.94 639.357 539.92V541.12H641.717V543.16H639.357V551H636.937V543.16H635.517V541.12ZM647.601 551.26C644.661 551.26 642.601 549.12 642.601 546.06C642.601 542.96 644.621 540.82 647.521 540.82C650.481 540.82 652.361 542.8 652.361 545.88V546.62L644.921 546.64C645.101 548.38 646.021 549.26 647.641 549.26C648.981 549.26 649.861 548.74 650.141 547.8H652.401C651.981 549.96 650.181 551.26 647.601 551.26ZM647.541 542.82C646.101 542.82 645.221 543.6 644.981 545.08H649.941C649.941 543.72 649.001 542.82 647.541 542.82ZM660.714 541.08V543.34H659.814C658.054 543.34 656.954 544.28 656.954 546.2V551H654.514V541.14H656.814L656.954 542.58C657.374 541.6 658.314 540.94 659.634 540.94C659.974 540.94 660.314 540.98 660.714 541.08ZM666.316 551H663.876V543.16H661.976V541.12H663.876V538.04H666.316V541.12H668.236V543.16H666.316V551ZM671.173 539.14C670.333 539.14 669.673 538.48 669.673 537.66C669.673 536.84 670.333 536.2 671.173 536.2C671.973 536.2 672.633 536.84 672.633 537.66C672.633 538.48 671.973 539.14 671.173 539.14ZM669.953 551V541.12H672.393V551H669.953ZM677.574 551H675.154V536.12H677.574V551ZM681.554 539.14C680.714 539.14 680.054 538.48 680.054 537.66C680.054 536.84 680.714 536.2 681.554 536.2C682.354 536.2 683.014 536.84 683.014 537.66C683.014 538.48 682.354 539.14 681.554 539.14ZM680.334 551V541.12H682.774V551H680.334ZM688.855 551H686.415V543.16H684.515V541.12H686.415V538.04H688.855V541.12H690.775V543.16H688.855V551ZM691.631 555.58V553.54H693.091C694.051 553.54 694.651 553.32 695.071 552.16L695.351 551.42L691.371 541.12H693.951L696.491 548.32L699.171 541.12H701.691L696.851 553.2C696.111 555.04 695.071 555.8 693.451 555.8C692.771 555.8 692.171 555.72 691.631 555.58Z" fill="black"/>
<path id="Vector 2249_3_3" d="M955.891 546.452H713.172" stroke="black" stroke-width="3" stroke-linecap="round"/>
<g id="B_PFASs_5">
<path id="Rectangle 4860_4" d="M557.25 560H473.75C466.156 560 460 566.156 460 573.75C460 581.344 466.156 587.5 473.75 587.5H557.25C564.844 587.5 571 581.344 571 573.75C571 566.156 564.844 560 557.25 560Z" fill="#E45C4D"/>
<path id="text_3_2" d="M493.936 575.96H490.716V581H488.156V566.38H493.936C496.876 566.38 498.776 568.3 498.776 571.16C498.776 573.98 496.856 575.96 493.936 575.96ZM493.436 568.66H490.716V573.68H493.396C495.156 573.68 496.096 572.74 496.096 571.14C496.096 569.54 495.136 568.66 493.436 568.66ZM508.93 575.02H503.49V581H500.93V566.38H509.97V568.74H503.49V572.72H508.93V575.02ZM512.639 581H509.979L515.259 566.38H517.879L523.159 581H520.459L519.279 577.62H513.819L512.639 581ZM516.239 570.74L514.579 575.46H518.539L516.859 570.74C516.739 570.36 516.599 569.92 516.559 569.62C516.499 569.9 516.379 570.34 516.239 570.74ZM524.152 570.46C524.152 567.9 526.272 566.12 529.352 566.12C532.312 566.12 534.192 567.76 534.272 570.4H531.712C531.652 569.14 530.752 568.4 529.312 568.4C527.732 568.4 526.712 569.16 526.712 570.38C526.712 571.42 527.272 572 528.492 572.28L530.792 572.78C533.292 573.32 534.512 574.6 534.512 576.78C534.512 579.5 532.392 581.26 529.172 581.26C526.052 581.26 524.012 579.6 523.952 576.98H526.512C526.532 578.22 527.532 578.96 529.172 578.96C530.872 578.96 531.952 578.22 531.952 577C531.952 576.02 531.452 575.44 530.252 575.18L527.932 574.66C525.452 574.12 524.152 572.7 524.152 570.46ZM535.708 578H538.028C538.048 578.86 538.688 579.4 539.808 579.4C540.948 579.4 541.568 578.94 541.568 578.22C541.568 577.72 541.308 577.36 540.428 577.16L538.648 576.74C536.868 576.34 536.008 575.5 536.008 573.92C536.008 571.98 537.648 570.82 539.928 570.82C542.148 570.82 543.648 572.1 543.668 574.02H541.348C541.328 573.18 540.768 572.64 539.828 572.64C538.868 572.64 538.308 573.08 538.308 573.82C538.308 574.38 538.748 574.74 539.588 574.94L541.368 575.36C543.028 575.74 543.868 576.5 543.868 578.02C543.868 580.02 542.168 581.26 539.728 581.26C537.268 581.26 535.708 579.94 535.708 578Z" fill="white"/>
</g>
</g>
<g id="2_TEXT">
<path id="Development toxicity" d="M515.26 277.88H510V263.26H515.12C519.44 263.26 522.42 266.24 522.42 270.6C522.42 274.9 519.5 277.88 515.26 277.88ZM514.88 265.62H512.56V275.52H515.02C517.94 275.52 519.72 273.64 519.72 270.6C519.72 267.5 517.9 265.62 514.88 265.62ZM529.065 278.14C526.125 278.14 524.065 276 524.065 272.94C524.065 269.84 526.085 267.7 528.985 267.7C531.945 267.7 533.825 269.68 533.825 272.76V273.5L526.385 273.52C526.565 275.26 527.485 276.14 529.105 276.14C530.445 276.14 531.325 275.62 531.605 274.68H533.865C533.445 276.84 531.645 278.14 529.065 278.14ZM529.005 269.7C527.565 269.7 526.685 270.48 526.445 271.96H531.405C531.405 270.6 530.465 269.7 529.005 269.7ZM538.348 277.88L534.428 268H537.028L538.748 272.54C539.168 273.72 539.508 274.74 539.628 275.28C539.768 274.66 540.128 273.62 540.548 272.54L542.348 268H544.868L540.748 277.88H538.348ZM550.402 278.14C547.462 278.14 545.402 276 545.402 272.94C545.402 269.84 547.422 267.7 550.322 267.7C553.282 267.7 555.162 269.68 555.162 272.76V273.5L547.722 273.52C547.902 275.26 548.822 276.14 550.442 276.14C551.782 276.14 552.662 275.62 552.942 274.68H555.202C554.782 276.84 552.982 278.14 550.402 278.14ZM550.342 269.7C548.902 269.7 548.022 270.48 547.782 271.96H552.742C552.742 270.6 551.802 269.7 550.342 269.7ZM559.775 277.88H557.355V263H559.775V277.88ZM561.955 272.92C561.955 269.84 564.175 267.72 567.235 267.72C570.295 267.72 572.515 269.84 572.515 272.92C572.515 276 570.295 278.12 567.235 278.12C564.175 278.12 561.955 276 561.955 272.92ZM564.395 272.92C564.395 274.72 565.555 275.94 567.235 275.94C568.915 275.94 570.075 274.72 570.075 272.92C570.075 271.12 568.915 269.9 567.235 269.9C565.555 269.9 564.395 271.12 564.395 272.92ZM574.649 282.46V268H576.909L577.069 269.5C577.669 268.36 578.969 267.7 580.469 267.7C583.249 267.7 585.089 269.72 585.089 272.82C585.089 275.9 583.409 278.14 580.469 278.14C578.989 278.14 577.709 277.56 577.089 276.56V282.46H574.649ZM577.109 272.94C577.109 274.72 578.209 275.94 579.889 275.94C581.609 275.94 582.629 274.7 582.629 272.94C582.629 271.18 581.609 269.92 579.889 269.92C578.209 269.92 577.109 271.16 577.109 272.94ZM589.671 277.88H587.231V268H589.471L589.671 269.16C590.171 268.34 591.171 267.7 592.591 267.7C594.091 267.7 595.131 268.44 595.651 269.58C596.151 268.44 597.311 267.7 598.811 267.7C601.211 267.7 602.531 269.14 602.531 271.42V277.88H600.111V272.06C600.111 270.64 599.351 269.9 598.191 269.9C597.011 269.9 596.111 270.66 596.111 272.28V277.88H593.671V272.04C593.671 270.66 592.931 269.92 591.771 269.92C590.611 269.92 589.671 270.68 589.671 272.28V277.88ZM609.547 278.14C606.607 278.14 604.547 276 604.547 272.94C604.547 269.84 606.567 267.7 609.467 267.7C612.427 267.7 614.307 269.68 614.307 272.76V273.5L606.867 273.52C607.047 275.26 607.967 276.14 609.587 276.14C610.927 276.14 611.807 275.62 612.087 274.68H614.347C613.927 276.84 612.127 278.14 609.547 278.14ZM609.487 269.7C608.047 269.7 607.167 270.48 606.927 271.96H611.887C611.887 270.6 610.947 269.7 609.487 269.7ZM618.9 277.88H616.46V268H618.72L618.92 269.28C619.54 268.28 620.74 267.7 622.08 267.7C624.56 267.7 625.84 269.24 625.84 271.8V277.88H623.4V272.38C623.4 270.72 622.58 269.92 621.32 269.92C619.82 269.92 618.9 270.96 618.9 272.56V277.88ZM631.797 277.88H629.357V270.04H627.457V268H629.357V264.92H631.797V268H633.717V270.04H631.797V277.88ZM644.384 277.88H641.944V270.04H640.044V268H641.944V264.92H644.384V268H646.304V270.04H644.384V277.88ZM647.344 272.92C647.344 269.84 649.564 267.72 652.624 267.72C655.684 267.72 657.904 269.84 657.904 272.92C657.904 276 655.684 278.12 652.624 278.12C649.564 278.12 647.344 276 647.344 272.92ZM649.784 272.92C649.784 274.72 650.944 275.94 652.624 275.94C654.304 275.94 655.464 274.72 655.464 272.92C655.464 271.12 654.304 269.9 652.624 269.9C650.944 269.9 649.784 271.12 649.784 272.92ZM661.308 277.88H658.528L661.928 273.04L658.528 268H661.368L663.548 271.36L665.648 268H668.388L665.028 273L668.288 277.88H665.488L663.388 274.62L661.308 277.88ZM671.262 266.02C670.422 266.02 669.762 265.36 669.762 264.54C669.762 263.72 670.422 263.08 671.262 263.08C672.062 263.08 672.722 263.72 672.722 264.54C672.722 265.36 672.062 266.02 671.262 266.02ZM670.042 277.88V268H672.482V277.88H670.042ZM674.623 272.92C674.623 269.86 676.643 267.7 679.563 267.7C682.263 267.7 684.103 269.2 684.363 271.58H681.923C681.643 270.46 680.823 269.88 679.663 269.88C678.103 269.88 677.063 271.06 677.063 272.92C677.063 274.78 678.023 275.94 679.583 275.94C680.803 275.94 681.663 275.34 681.923 274.26H684.383C684.083 276.56 682.163 278.14 679.583 278.14C676.583 278.14 674.623 276.06 674.623 272.92ZM687.619 266.02C686.779 266.02 686.119 265.36 686.119 264.54C686.119 263.72 686.779 263.08 687.619 263.08C688.419 263.08 689.079 263.72 689.079 264.54C689.079 265.36 688.419 266.02 687.619 266.02ZM686.399 277.88V268H688.839V277.88H686.399ZM694.92 277.88H692.48V270.04H690.58V268H692.48V264.92H694.92V268H696.84V270.04H694.92V277.88ZM697.697 282.46V280.42H699.157C700.117 280.42 700.717 280.2 701.137 279.04L701.417 278.3L697.437 268H700.017L702.557 275.2L705.237 268H707.757L702.917 280.08C702.177 281.92 701.137 282.68 699.517 282.68C698.837 282.68 698.237 282.6 697.697 282.46Z" fill="black"/>
<path id="Vector 2249_5" d="M957.27 272.89H714.551" stroke="black" stroke-width="3" stroke-linecap="round"/>
<g id="B_PFASs_2">
<path id="Rectangle 4860_3_2" d="M607.629 285.88H524.129C516.535 285.88 510.379 292.036 510.379 299.63C510.379 307.224 516.535 313.38 524.129 313.38H607.629C615.223 313.38 621.379 307.224 621.379 299.63C621.379 292.036 615.223 285.88 607.629 285.88Z" fill="#E45C4D"/>
<path id="text_5" d="M544.315 301.84H541.095V306.88H538.535V292.26H544.315C547.255 292.26 549.155 294.18 549.155 297.04C549.155 299.86 547.235 301.84 544.315 301.84ZM543.815 294.54H541.095V299.56H543.775C545.535 299.56 546.475 298.62 546.475 297.02C546.475 295.42 545.515 294.54 543.815 294.54ZM559.309 300.9H553.869V306.88H551.309V292.26H560.349V294.62H553.869V298.6H559.309V300.9ZM563.018 306.88H560.358L565.638 292.26H568.258L573.538 306.88H570.838L569.658 303.5H564.198L563.018 306.88ZM566.618 296.62L564.958 301.34H568.918L567.238 296.62C567.118 296.24 566.978 295.8 566.938 295.5C566.878 295.78 566.758 296.22 566.618 296.62ZM574.531 296.34C574.531 293.78 576.651 292 579.731 292C582.691 292 584.571 293.64 584.651 296.28H582.091C582.031 295.02 581.131 294.28 579.691 294.28C578.111 294.28 577.091 295.04 577.091 296.26C577.091 297.3 577.651 297.88 578.871 298.16L581.171 298.66C583.671 299.2 584.891 300.48 584.891 302.66C584.891 305.38 582.771 307.14 579.551 307.14C576.431 307.14 574.391 305.48 574.331 302.86H576.891C576.911 304.1 577.911 304.84 579.551 304.84C581.251 304.84 582.331 304.1 582.331 302.88C582.331 301.9 581.831 301.32 580.631 301.06L578.311 300.54C575.831 300 574.531 298.58 574.531 296.34ZM586.087 303.88H588.407C588.427 304.74 589.067 305.28 590.187 305.28C591.327 305.28 591.947 304.82 591.947 304.1C591.947 303.6 591.687 303.24 590.807 303.04L589.027 302.62C587.247 302.22 586.387 301.38 586.387 299.8C586.387 297.86 588.027 296.7 590.307 296.7C592.527 296.7 594.027 297.98 594.047 299.9H591.727C591.707 299.06 591.147 298.52 590.207 298.52C589.247 298.52 588.687 298.96 588.687 299.7C588.687 300.26 589.127 300.62 589.967 300.82L591.747 301.24C593.407 301.62 594.247 302.38 594.247 303.9C594.247 305.9 592.547 307.14 590.107 307.14C587.647 307.14 586.087 305.82 586.087 303.88Z" fill="white"/>
</g>
</g>
<g id="5_TEXT">
<path id="Kidney testicular cancer" d="M1158 414.03V421.71L1163.92 414.03H1166.94L1162.1 420.27L1167 428.65H1164.04L1160.42 422.43L1158 425.53V428.65H1155.44V414.03H1158ZM1169.98 416.79C1169.14 416.79 1168.48 416.13 1168.48 415.31C1168.48 414.49 1169.14 413.85 1169.98 413.85C1170.78 413.85 1171.44 414.49 1171.44 415.31C1171.44 416.13 1170.78 416.79 1169.98 416.79ZM1168.76 428.65V418.77H1171.2V428.65H1168.76ZM1177.98 428.91C1175.12 428.91 1173.34 426.81 1173.34 423.75C1173.34 420.67 1175.14 418.47 1178.12 418.47C1179.5 418.47 1180.72 419.05 1181.34 420.03V413.77H1183.76V428.65H1181.52L1181.36 427.11C1180.76 428.25 1179.48 428.91 1177.98 428.91ZM1178.52 426.67C1180.22 426.67 1181.32 425.45 1181.32 423.67C1181.32 421.89 1180.22 420.65 1178.52 420.65C1176.82 420.65 1175.78 421.91 1175.78 423.67C1175.78 425.43 1176.82 426.67 1178.52 426.67ZM1188.94 428.65H1186.5V418.77H1188.76L1188.96 420.05C1189.58 419.05 1190.78 418.47 1192.12 418.47C1194.6 418.47 1195.88 420.01 1195.88 422.57V428.65H1193.44V423.15C1193.44 421.49 1192.62 420.69 1191.36 420.69C1189.86 420.69 1188.94 421.73 1188.94 423.33V428.65ZM1202.9 428.91C1199.96 428.91 1197.9 426.77 1197.9 423.71C1197.9 420.61 1199.92 418.47 1202.82 418.47C1205.78 418.47 1207.66 420.45 1207.66 423.53V424.27L1200.22 424.29C1200.4 426.03 1201.32 426.91 1202.94 426.91C1204.28 426.91 1205.16 426.39 1205.44 425.45H1207.7C1207.28 427.61 1205.48 428.91 1202.9 428.91ZM1202.84 420.47C1201.4 420.47 1200.52 421.25 1200.28 422.73H1205.24C1205.24 421.37 1204.3 420.47 1202.84 420.47ZM1208.62 433.23V431.19H1210.08C1211.04 431.19 1211.64 430.97 1212.06 429.81L1212.34 429.07L1208.36 418.77H1210.94L1213.48 425.97L1216.16 418.77H1218.68L1213.84 430.85C1213.1 432.69 1212.06 433.45 1210.44 433.45C1209.76 433.45 1209.16 433.37 1208.62 433.23ZM1229.22 428.65H1226.78V420.81H1224.88V418.77H1226.78V415.69H1229.22V418.77H1231.14V420.81H1229.22V428.65ZM1237.17 428.91C1234.23 428.91 1232.17 426.77 1232.17 423.71C1232.17 420.61 1234.19 418.47 1237.09 418.47C1240.05 418.47 1241.93 420.45 1241.93 423.53V424.27L1234.49 424.29C1234.67 426.03 1235.59 426.91 1237.21 426.91C1238.55 426.91 1239.43 426.39 1239.71 425.45H1241.97C1241.55 427.61 1239.75 428.91 1237.17 428.91ZM1237.11 420.47C1235.67 420.47 1234.79 421.25 1234.55 422.73H1239.51C1239.51 421.37 1238.57 420.47 1237.11 420.47ZM1243.33 425.65H1245.65C1245.67 426.51 1246.31 427.05 1247.43 427.05C1248.57 427.05 1249.19 426.59 1249.19 425.87C1249.19 425.37 1248.93 425.01 1248.05 424.81L1246.27 424.39C1244.49 423.99 1243.63 423.15 1243.63 421.57C1243.63 419.63 1245.27 418.47 1247.55 418.47C1249.77 418.47 1251.27 419.75 1251.29 421.67H1248.97C1248.95 420.83 1248.39 420.29 1247.45 420.29C1246.49 420.29 1245.93 420.73 1245.93 421.47C1245.93 422.03 1246.37 422.39 1247.21 422.59L1248.99 423.01C1250.65 423.39 1251.49 424.15 1251.49 425.67C1251.49 427.67 1249.79 428.91 1247.35 428.91C1244.89 428.91 1243.33 427.59 1243.33 425.65ZM1256.91 428.65H1254.47V420.81H1252.57V418.77H1254.47V415.69H1256.91V418.77H1258.83V420.81H1256.91V428.65ZM1261.76 416.79C1260.92 416.79 1260.26 416.13 1260.26 415.31C1260.26 414.49 1260.92 413.85 1261.76 413.85C1262.56 413.85 1263.22 414.49 1263.22 415.31C1263.22 416.13 1262.56 416.79 1261.76 416.79ZM1260.54 428.65V418.77H1262.98V428.65H1260.54ZM1265.12 423.69C1265.12 420.63 1267.14 418.47 1270.06 418.47C1272.76 418.47 1274.6 419.97 1274.86 422.35H1272.42C1272.14 421.23 1271.32 420.65 1270.16 420.65C1268.6 420.65 1267.56 421.83 1267.56 423.69C1267.56 425.55 1268.52 426.71 1270.08 426.71C1271.3 426.71 1272.16 426.11 1272.42 425.03H1274.88C1274.58 427.33 1272.66 428.91 1270.08 428.91C1267.08 428.91 1265.12 426.83 1265.12 423.69ZM1283.6 418.77H1286.04V428.65H1283.78L1283.6 427.33C1283 428.27 1281.72 428.91 1280.4 428.91C1278.12 428.91 1276.78 427.37 1276.78 424.95V418.77H1279.22V424.09C1279.22 425.97 1279.96 426.73 1281.32 426.73C1282.86 426.73 1283.6 425.83 1283.6 423.95V418.77ZM1291.22 428.65H1288.8V413.77H1291.22V428.65ZM1296.92 428.91C1294.82 428.91 1293.54 427.69 1293.54 425.83C1293.54 424.01 1294.86 422.87 1297.2 422.69L1300.16 422.47V422.25C1300.16 420.91 1299.36 420.37 1298.12 420.37C1296.68 420.37 1295.88 420.97 1295.88 422.01H1293.8C1293.8 419.87 1295.56 418.47 1298.24 418.47C1300.9 418.47 1302.54 419.91 1302.54 422.65V428.65H1300.4L1300.22 427.19C1299.8 428.21 1298.46 428.91 1296.92 428.91ZM1297.72 427.07C1299.22 427.07 1300.18 426.17 1300.18 424.65V424.13L1298.12 424.29C1296.6 424.43 1296.02 424.93 1296.02 425.73C1296.02 426.63 1296.62 427.07 1297.72 427.07ZM1311.34 418.73V420.99H1310.44C1308.68 420.99 1307.58 421.93 1307.58 423.85V428.65H1305.14V418.79H1307.44L1307.58 420.23C1308 419.25 1308.94 418.59 1310.26 418.59C1310.6 418.59 1310.94 418.63 1311.34 418.73ZM1318.2 423.69C1318.2 420.63 1320.22 418.47 1323.14 418.47C1325.84 418.47 1327.68 419.97 1327.94 422.35H1325.5C1325.22 421.23 1324.4 420.65 1323.24 420.65C1321.68 420.65 1320.64 421.83 1320.64 423.69C1320.64 425.55 1321.6 426.71 1323.16 426.71C1324.38 426.71 1325.24 426.11 1325.5 425.03H1327.96C1327.66 427.33 1325.74 428.91 1323.16 428.91C1320.16 428.91 1318.2 426.83 1318.2 423.69ZM1332.91 428.91C1330.81 428.91 1329.53 427.69 1329.53 425.83C1329.53 424.01 1330.85 422.87 1333.19 422.69L1336.15 422.47V422.25C1336.15 420.91 1335.35 420.37 1334.11 420.37C1332.67 420.37 1331.87 420.97 1331.87 422.01H1329.79C1329.79 419.87 1331.55 418.47 1334.23 418.47C1336.89 418.47 1338.53 419.91 1338.53 422.65V428.65H1336.39L1336.21 427.19C1335.79 428.21 1334.45 428.91 1332.91 428.91ZM1333.71 427.07C1335.21 427.07 1336.17 426.17 1336.17 424.65V424.13L1334.11 424.29C1332.59 424.43 1332.01 424.93 1332.01 425.73C1332.01 426.63 1332.61 427.07 1333.71 427.07ZM1343.57 428.65H1341.13V418.77H1343.39L1343.59 420.05C1344.21 419.05 1345.41 418.47 1346.75 418.47C1349.23 418.47 1350.51 420.01 1350.51 422.57V428.65H1348.07V423.15C1348.07 421.49 1347.25 420.69 1345.99 420.69C1344.49 420.69 1343.57 421.73 1343.57 423.33V428.65ZM1352.53 423.69C1352.53 420.63 1354.55 418.47 1357.47 418.47C1360.17 418.47 1362.01 419.97 1362.27 422.35H1359.83C1359.55 421.23 1358.73 420.65 1357.57 420.65C1356.01 420.65 1354.97 421.83 1354.97 423.69C1354.97 425.55 1355.93 426.71 1357.49 426.71C1358.71 426.71 1359.57 426.11 1359.83 425.03H1362.29C1361.99 427.33 1360.07 428.91 1357.49 428.91C1354.49 428.91 1352.53 426.83 1352.53 423.69ZM1368.72 428.91C1365.78 428.91 1363.72 426.77 1363.72 423.71C1363.72 420.61 1365.74 418.47 1368.64 418.47C1371.6 418.47 1373.48 420.45 1373.48 423.53V424.27L1366.04 424.29C1366.22 426.03 1367.14 426.91 1368.76 426.91C1370.1 426.91 1370.98 426.39 1371.26 425.45H1373.52C1373.1 427.61 1371.3 428.91 1368.72 428.91ZM1368.66 420.47C1367.22 420.47 1366.34 421.25 1366.1 422.73H1371.06C1371.06 421.37 1370.12 420.47 1368.66 420.47ZM1381.84 418.73V420.99H1380.94C1379.18 420.99 1378.08 421.93 1378.08 423.85V428.65H1375.64V418.79H1377.94L1378.08 420.23C1378.5 419.25 1379.44 418.59 1380.76 418.59C1381.1 418.59 1381.44 418.63 1381.84 418.73Z" fill="black"/>
<g id="B_PFASs_6">
<path id="Rectangle 4860_5" d="M1249.07 437.649H1165.57C1157.98 437.649 1151.82 443.805 1151.82 451.399C1151.82 458.993 1157.98 465.149 1165.57 465.149H1249.07C1256.66 465.149 1262.82 458.993 1262.82 451.399C1262.82 443.805 1256.66 437.649 1249.07 437.649Z" fill="#E45C4D"/>
<path id="text_3_3" d="M1185.76 453.61H1182.54V458.65H1179.98V444.03H1185.76C1188.7 444.03 1190.6 445.95 1190.6 448.81C1190.6 451.63 1188.68 453.61 1185.76 453.61ZM1185.26 446.31H1182.54V451.33H1185.22C1186.98 451.33 1187.92 450.39 1187.92 448.79C1187.92 447.19 1186.96 446.31 1185.26 446.31ZM1200.75 452.67H1195.31V458.65H1192.75V444.03H1201.79V446.39H1195.31V450.37H1200.75V452.67ZM1204.46 458.65H1201.8L1207.08 444.03H1209.7L1214.98 458.65H1212.28L1211.1 455.27H1205.64L1204.46 458.65ZM1208.06 448.39L1206.4 453.11H1210.36L1208.68 448.39C1208.56 448.01 1208.42 447.57 1208.38 447.27C1208.32 447.55 1208.2 447.99 1208.06 448.39ZM1215.97 448.11C1215.97 445.55 1218.09 443.77 1221.17 443.77C1224.13 443.77 1226.01 445.41 1226.09 448.05H1223.53C1223.47 446.79 1222.57 446.05 1221.13 446.05C1219.55 446.05 1218.53 446.81 1218.53 448.03C1218.53 449.07 1219.09 449.65 1220.31 449.93L1222.61 450.43C1225.11 450.97 1226.33 452.25 1226.33 454.43C1226.33 457.15 1224.21 458.91 1220.99 458.91C1217.87 458.91 1215.83 457.25 1215.77 454.63H1218.33C1218.35 455.87 1219.35 456.61 1220.99 456.61C1222.69 456.61 1223.77 455.87 1223.77 454.65C1223.77 453.67 1223.27 453.09 1222.07 452.83L1219.75 452.31C1217.27 451.77 1215.97 450.35 1215.97 448.11ZM1227.53 455.65H1229.85C1229.87 456.51 1230.51 457.05 1231.63 457.05C1232.77 457.05 1233.39 456.59 1233.39 455.87C1233.39 455.37 1233.13 455.01 1232.25 454.81L1230.47 454.39C1228.69 453.99 1227.83 453.15 1227.83 451.57C1227.83 449.63 1229.47 448.47 1231.75 448.47C1233.97 448.47 1235.47 449.75 1235.49 451.67H1233.17C1233.15 450.83 1232.59 450.29 1231.65 450.29C1230.69 450.29 1230.13 450.73 1230.13 451.47C1230.13 452.03 1230.57 452.39 1231.41 452.59L1233.19 453.01C1234.85 453.39 1235.69 454.15 1235.69 455.67C1235.69 457.67 1233.99 458.91 1231.55 458.91C1229.09 458.91 1227.53 457.59 1227.53 455.65Z" fill="white"/>
</g>
<path id="Vector 2249_2_3" d="M956.602 421.649H1148.19" stroke="black" stroke-width="3" stroke-linecap="round"/>
</g>
<g id="centroids">
<path id="1_DOT" d="M951.008 227.899C952.794 227.899 954.242 226.451 954.242 224.665C954.242 222.879 952.794 221.431 951.008 221.431C949.221 221.431 947.773 222.879 947.773 224.665C947.773 226.451 949.221 227.899 951.008 227.899Z" fill="#FF0000"/>
<path id="3_DOT" d="M997.359 341.096C999.145 341.096 1000.59 339.648 1000.59 337.862C1000.59 336.076 999.145 334.628 997.359 334.628C995.573 334.628 994.125 336.076 994.125 337.862C994.125 339.648 995.573 341.096 997.359 341.096Z" fill="#FF0000"/>
<path id="0_DOT" d="M958.234 213.597C960.02 213.597 961.468 212.149 961.468 210.363C961.468 208.577 960.02 207.129 958.234 207.129C956.448 207.129 955 208.577 955 210.363C955 212.149 956.448 213.597 958.234 213.597Z" fill="#FF0000"/>
<path id="4_DOT" d="M933.758 375.595C935.544 375.595 936.992 374.147 936.992 372.361C936.992 370.575 935.544 369.127 933.758 369.127C931.971 369.127 930.523 370.575 930.523 372.361C930.523 374.147 931.971 375.595 933.758 375.595Z" fill="#FF0000"/>
<path id="2_DOT" d="M964.777 276.352C966.563 276.352 968.011 274.904 968.011 273.118C968.011 271.332 966.563 269.884 964.777 269.884C962.991 269.884 961.543 271.332 961.543 273.118C961.543 274.904 962.991 276.352 964.777 276.352Z" fill="#FF0000"/>
<path id="6_DOT" d="M965.023 549.164C966.809 549.164 968.257 547.716 968.257 545.93C968.257 544.143 966.809 542.695 965.023 542.695C963.237 542.695 961.789 544.143 961.789 545.93C961.789 547.716 963.237 549.164 965.023 549.164Z" fill="#FF0000"/>
<path id="5_DOT" d="M947.773 425.185C949.559 425.185 951.007 423.737 951.007 421.951C951.007 420.165 949.559 418.717 947.773 418.717C945.987 418.717 944.539 420.165 944.539 421.951C944.539 423.737 945.987 425.185 947.773 425.185Z" fill="#FF0000"/>
</g>
</g>
</svg>
