<svg width="1920" height="1080" viewBox="0 0 1920 1080" fill="none" xmlns="http://www.w3.org/2000/svg">
<g id="ARSENIC">
<g id="1_TEXT">
<g id="B_ARSENIC">
<path id="Rectangle 4859" d="M1170.25 226H1086.75C1079.16 226 1073 232.156 1073 239.75C1073 247.344 1079.16 253.5 1086.75 253.5H1170.25C1177.84 253.5 1184 247.344 1184 239.75C1184 232.156 1177.84 226 1170.25 226Z" fill="#C064E4"/>
<path id="text_5" d="M1096.59 247H1093.93L1099.21 232.38H1101.83L1107.11 247H1104.41L1103.23 243.62H1097.77L1096.59 247ZM1100.19 236.74L1098.53 241.46H1102.49L1100.81 236.74C1100.69 236.36 1100.55 235.92 1100.51 235.62C1100.45 235.9 1100.33 236.34 1100.19 236.74ZM1114.78 237.08V239.34H1113.88C1112.12 239.34 1111.02 240.28 1111.02 242.2V247H1108.58V237.14H1110.88L1111.02 238.58C1111.44 237.6 1112.38 236.94 1113.7 236.94C1114.04 236.94 1114.38 236.98 1114.78 237.08ZM1115.67 244H1117.99C1118.01 244.86 1118.65 245.4 1119.77 245.4C1120.91 245.4 1121.53 244.94 1121.53 244.22C1121.53 243.72 1121.27 243.36 1120.39 243.16L1118.61 242.74C1116.83 242.34 1115.97 241.5 1115.97 239.92C1115.97 237.98 1117.61 236.82 1119.89 236.82C1122.11 236.82 1123.61 238.1 1123.63 240.02H1121.31C1121.29 239.18 1120.73 238.64 1119.79 238.64C1118.83 238.64 1118.27 239.08 1118.27 239.82C1118.27 240.38 1118.71 240.74 1119.55 240.94L1121.33 241.36C1122.99 241.74 1123.83 242.5 1123.83 244.02C1123.83 246.02 1122.13 247.26 1119.69 247.26C1117.23 247.26 1115.67 245.94 1115.67 244ZM1130.11 247.26C1127.17 247.26 1125.11 245.12 1125.11 242.06C1125.11 238.96 1127.13 236.82 1130.03 236.82C1132.99 236.82 1134.87 238.8 1134.87 241.88V242.62L1127.43 242.64C1127.61 244.38 1128.53 245.26 1130.15 245.26C1131.49 245.26 1132.37 244.74 1132.65 243.8H1134.91C1134.49 245.96 1132.69 247.26 1130.11 247.26ZM1130.05 238.82C1128.61 238.82 1127.73 239.6 1127.49 241.08H1132.45C1132.45 239.72 1131.51 238.82 1130.05 238.82ZM1139.26 247H1136.82V237.12H1139.08L1139.28 238.4C1139.9 237.4 1141.1 236.82 1142.44 236.82C1144.92 236.82 1146.2 238.36 1146.2 240.92V247H1143.76V241.5C1143.76 239.84 1142.94 239.04 1141.68 239.04C1140.18 239.04 1139.26 240.08 1139.26 241.68V247ZM1149.82 235.14C1148.98 235.14 1148.32 234.48 1148.32 233.66C1148.32 232.84 1148.98 232.2 1149.82 232.2C1150.62 232.2 1151.28 232.84 1151.28 233.66C1151.28 234.48 1150.62 235.14 1149.82 235.14ZM1148.6 247V237.12H1151.04V247H1148.6ZM1152.98 242.04C1152.98 238.98 1155 236.82 1157.92 236.82C1160.62 236.82 1162.46 238.32 1162.72 240.7H1160.28C1160 239.58 1159.18 239 1158.02 239C1156.46 239 1155.42 240.18 1155.42 242.04C1155.42 243.9 1156.38 245.06 1157.94 245.06C1159.16 245.06 1160.02 244.46 1160.28 243.38H1162.74C1162.44 245.68 1160.52 247.26 1157.94 247.26C1154.94 247.26 1152.98 245.18 1152.98 242.04Z" fill="white"/>
</g>
<path id="Metabolic disorder" d="M1077.1 217H1074.62V202.38H1077.1L1081.82 214.02L1086.54 202.38H1089.06V217H1086.58V212.5C1086.58 209.56 1086.58 208.7 1086.72 207.66L1083 217H1080.64L1076.94 207.68C1077.08 208.56 1077.1 209.94 1077.1 211.76V217ZM1096.56 217.26C1093.62 217.26 1091.56 215.12 1091.56 212.06C1091.56 208.96 1093.58 206.82 1096.48 206.82C1099.44 206.82 1101.32 208.8 1101.32 211.88V212.62L1093.88 212.64C1094.06 214.38 1094.98 215.26 1096.6 215.26C1097.94 215.26 1098.82 214.74 1099.1 213.8H1101.36C1100.94 215.96 1099.14 217.26 1096.56 217.26ZM1096.5 208.82C1095.06 208.82 1094.18 209.6 1093.94 211.08H1098.9C1098.9 209.72 1097.96 208.82 1096.5 208.82ZM1106.73 217H1104.29V209.16H1102.39V207.12H1104.29V204.04H1106.73V207.12H1108.65V209.16H1106.73V217ZM1113.25 217.26C1111.15 217.26 1109.87 216.04 1109.87 214.18C1109.87 212.36 1111.19 211.22 1113.53 211.04L1116.49 210.82V210.6C1116.49 209.26 1115.69 208.72 1114.45 208.72C1113.01 208.72 1112.21 209.32 1112.21 210.36H1110.13C1110.13 208.22 1111.89 206.82 1114.57 206.82C1117.23 206.82 1118.87 208.26 1118.87 211V217H1116.73L1116.55 215.54C1116.13 216.56 1114.79 217.26 1113.25 217.26ZM1114.05 215.42C1115.55 215.42 1116.51 214.52 1116.51 213V212.48L1114.45 212.64C1112.93 212.78 1112.35 213.28 1112.35 214.08C1112.35 214.98 1112.95 215.42 1114.05 215.42ZM1123.73 217H1121.47V202.12H1123.91V208.56C1124.55 207.46 1125.87 206.8 1127.37 206.8C1130.19 206.8 1131.91 209 1131.91 212.12C1131.91 215.16 1130.05 217.26 1127.21 217.26C1125.73 217.26 1124.47 216.6 1123.89 215.46L1123.73 217ZM1123.93 212.02C1123.93 213.8 1125.03 215.02 1126.71 215.02C1128.43 215.02 1129.45 213.78 1129.45 212.02C1129.45 210.26 1128.43 209 1126.71 209C1125.03 209 1123.93 210.24 1123.93 212.02ZM1133.47 212.04C1133.47 208.96 1135.69 206.84 1138.75 206.84C1141.81 206.84 1144.03 208.96 1144.03 212.04C1144.03 215.12 1141.81 217.24 1138.75 217.24C1135.69 217.24 1133.47 215.12 1133.47 212.04ZM1135.91 212.04C1135.91 213.84 1137.07 215.06 1138.75 215.06C1140.43 215.06 1141.59 213.84 1141.59 212.04C1141.59 210.24 1140.43 209.02 1138.75 209.02C1137.07 209.02 1135.91 210.24 1135.91 212.04ZM1148.62 217H1146.2V202.12H1148.62V217ZM1152.6 205.14C1151.76 205.14 1151.1 204.48 1151.1 203.66C1151.1 202.84 1151.76 202.2 1152.6 202.2C1153.4 202.2 1154.06 202.84 1154.06 203.66C1154.06 204.48 1153.4 205.14 1152.6 205.14ZM1151.38 217V207.12H1153.82V217H1151.38ZM1155.96 212.04C1155.96 208.98 1157.98 206.82 1160.9 206.82C1163.6 206.82 1165.44 208.32 1165.7 210.7H1163.26C1162.98 209.58 1162.16 209 1161 209C1159.44 209 1158.4 210.18 1158.4 212.04C1158.4 213.9 1159.36 215.06 1160.92 215.06C1162.14 215.06 1163 214.46 1163.26 213.38H1165.72C1165.42 215.68 1163.5 217.26 1160.92 217.26C1157.92 217.26 1155.96 215.18 1155.96 212.04ZM1177.39 217.26C1174.53 217.26 1172.75 215.16 1172.75 212.1C1172.75 209.02 1174.55 206.82 1177.53 206.82C1178.91 206.82 1180.13 207.4 1180.75 208.38V202.12H1183.17V217H1180.93L1180.77 215.46C1180.17 216.6 1178.89 217.26 1177.39 217.26ZM1177.93 215.02C1179.63 215.02 1180.73 213.8 1180.73 212.02C1180.73 210.24 1179.63 209 1177.93 209C1176.23 209 1175.19 210.26 1175.19 212.02C1175.19 213.78 1176.23 215.02 1177.93 215.02ZM1187.13 205.14C1186.29 205.14 1185.63 204.48 1185.63 203.66C1185.63 202.84 1186.29 202.2 1187.13 202.2C1187.93 202.2 1188.59 202.84 1188.59 203.66C1188.59 204.48 1187.93 205.14 1187.13 205.14ZM1185.91 217V207.12H1188.35V217H1185.91ZM1190.31 214H1192.63C1192.65 214.86 1193.29 215.4 1194.41 215.4C1195.55 215.4 1196.17 214.94 1196.17 214.22C1196.17 213.72 1195.91 213.36 1195.03 213.16L1193.25 212.74C1191.47 212.34 1190.61 211.5 1190.61 209.92C1190.61 207.98 1192.25 206.82 1194.53 206.82C1196.75 206.82 1198.25 208.1 1198.27 210.02H1195.95C1195.93 209.18 1195.37 208.64 1194.43 208.64C1193.47 208.64 1192.91 209.08 1192.91 209.82C1192.91 210.38 1193.35 210.74 1194.19 210.94L1195.97 211.36C1197.63 211.74 1198.47 212.5 1198.47 214.02C1198.47 216.02 1196.77 217.26 1194.33 217.26C1191.87 217.26 1190.31 215.94 1190.31 214ZM1199.95 212.04C1199.95 208.96 1202.17 206.84 1205.23 206.84C1208.29 206.84 1210.51 208.96 1210.51 212.04C1210.51 215.12 1208.29 217.24 1205.23 217.24C1202.17 217.24 1199.95 215.12 1199.95 212.04ZM1202.39 212.04C1202.39 213.84 1203.55 215.06 1205.23 215.06C1206.91 215.06 1208.07 213.84 1208.07 212.04C1208.07 210.24 1206.91 209.02 1205.23 209.02C1203.55 209.02 1202.39 210.24 1202.39 212.04ZM1218.85 207.08V209.34H1217.95C1216.19 209.34 1215.09 210.28 1215.09 212.2V217H1212.65V207.14H1214.95L1215.09 208.58C1215.51 207.6 1216.45 206.94 1217.77 206.94C1218.11 206.94 1218.45 206.98 1218.85 207.08ZM1224.43 217.26C1221.57 217.26 1219.79 215.16 1219.79 212.1C1219.79 209.02 1221.59 206.82 1224.57 206.82C1225.95 206.82 1227.17 207.4 1227.79 208.38V202.12H1230.21V217H1227.97L1227.81 215.46C1227.21 216.6 1225.93 217.26 1224.43 217.26ZM1224.97 215.02C1226.67 215.02 1227.77 213.8 1227.77 212.02C1227.77 210.24 1226.67 209 1224.97 209C1223.27 209 1222.23 210.26 1222.23 212.02C1222.23 213.78 1223.27 215.02 1224.97 215.02ZM1237.37 217.26C1234.43 217.26 1232.37 215.12 1232.37 212.06C1232.37 208.96 1234.39 206.82 1237.29 206.82C1240.25 206.82 1242.13 208.8 1242.13 211.88V212.62L1234.69 212.64C1234.87 214.38 1235.79 215.26 1237.41 215.26C1238.75 215.26 1239.63 214.74 1239.91 213.8H1242.17C1241.75 215.96 1239.95 217.26 1237.37 217.26ZM1237.31 208.82C1235.87 208.82 1234.99 209.6 1234.75 211.08H1239.71C1239.71 209.72 1238.77 208.82 1237.31 208.82ZM1250.48 207.08V209.34H1249.58C1247.82 209.34 1246.72 210.28 1246.72 212.2V217H1244.28V207.14H1246.58L1246.72 208.58C1247.14 207.6 1248.08 206.94 1249.4 206.94C1249.74 206.94 1250.08 206.98 1250.48 207.08Z" fill="black"/>
<path id="Vector 2249_4" d="M968 210H1066" stroke="black" stroke-width="3" stroke-linecap="round"/>
</g>
<g id="4_TEXT">
<path id="Skin disorders" d="M703.778 646.34C703.778 643.78 705.898 642 708.978 642C711.938 642 713.818 643.64 713.898 646.28H711.338C711.278 645.02 710.378 644.28 708.938 644.28C707.358 644.28 706.338 645.04 706.338 646.26C706.338 647.3 706.898 647.88 708.118 648.16L710.418 648.66C712.918 649.2 714.138 650.48 714.138 652.66C714.138 655.38 712.018 657.14 708.798 657.14C705.678 657.14 703.638 655.48 703.578 652.86H706.138C706.158 654.1 707.158 654.84 708.798 654.84C710.498 654.84 711.578 654.1 711.578 652.88C711.578 651.9 711.078 651.32 709.878 651.06L707.558 650.54C705.078 650 703.778 648.58 703.778 646.34ZM718.754 656.88H716.334V642H718.754V651.14L722.594 647H725.654L721.894 650.92L725.574 656.88H722.774L720.194 652.72L718.754 654.22V656.88ZM728.476 645.02C727.636 645.02 726.976 644.36 726.976 643.54C726.976 642.72 727.636 642.08 728.476 642.08C729.276 642.08 729.936 642.72 729.936 643.54C729.936 644.36 729.276 645.02 728.476 645.02ZM727.256 656.88V647H729.696V656.88H727.256ZM734.857 656.88H732.417V647H734.677L734.877 648.28C735.497 647.28 736.697 646.7 738.037 646.7C740.517 646.7 741.797 648.24 741.797 650.8V656.88H739.357V651.38C739.357 649.72 738.537 648.92 737.277 648.92C735.777 648.92 734.857 649.96 734.857 651.56V656.88ZM754.045 657.14C751.185 657.14 749.405 655.04 749.405 651.98C749.405 648.9 751.205 646.7 754.185 646.7C755.565 646.7 756.785 647.28 757.405 648.26V642H759.825V656.88H757.585L757.425 655.34C756.825 656.48 755.545 657.14 754.045 657.14ZM754.585 654.9C756.285 654.9 757.385 653.68 757.385 651.9C757.385 650.12 756.285 648.88 754.585 648.88C752.885 648.88 751.845 650.14 751.845 651.9C751.845 653.66 752.885 654.9 754.585 654.9ZM763.787 645.02C762.947 645.02 762.287 644.36 762.287 643.54C762.287 642.72 762.947 642.08 763.787 642.08C764.587 642.08 765.247 642.72 765.247 643.54C765.247 644.36 764.587 645.02 763.787 645.02ZM762.567 656.88V647H765.007V656.88H762.567ZM766.968 653.88H769.288C769.308 654.74 769.948 655.28 771.068 655.28C772.208 655.28 772.828 654.82 772.828 654.1C772.828 653.6 772.568 653.24 771.688 653.04L769.908 652.62C768.128 652.22 767.268 651.38 767.268 649.8C767.268 647.86 768.908 646.7 771.188 646.7C773.408 646.7 774.908 647.98 774.928 649.9H772.608C772.588 649.06 772.028 648.52 771.088 648.52C770.128 648.52 769.568 648.96 769.568 649.7C769.568 650.26 770.008 650.62 770.848 650.82L772.628 651.24C774.288 651.62 775.128 652.38 775.128 653.9C775.128 655.9 773.428 657.14 770.988 657.14C768.528 657.14 766.968 655.82 766.968 653.88ZM776.606 651.92C776.606 648.84 778.826 646.72 781.886 646.72C784.946 646.72 787.166 648.84 787.166 651.92C787.166 655 784.946 657.12 781.886 657.12C778.826 657.12 776.606 655 776.606 651.92ZM779.046 651.92C779.046 653.72 780.206 654.94 781.886 654.94C783.566 654.94 784.726 653.72 784.726 651.92C784.726 650.12 783.566 648.9 781.886 648.9C780.206 648.9 779.046 650.12 779.046 651.92ZM795.5 646.96V649.22H794.6C792.84 649.22 791.74 650.16 791.74 652.08V656.88H789.3V647.02H791.6L791.74 648.46C792.16 647.48 793.1 646.82 794.42 646.82C794.76 646.82 795.1 646.86 795.5 646.96ZM801.08 657.14C798.22 657.14 796.44 655.04 796.44 651.98C796.44 648.9 798.24 646.7 801.22 646.7C802.6 646.7 803.82 647.28 804.44 648.26V642H806.86V656.88H804.62L804.46 655.34C803.86 656.48 802.58 657.14 801.08 657.14ZM801.62 654.9C803.32 654.9 804.42 653.68 804.42 651.9C804.42 650.12 803.32 648.88 801.62 648.88C799.92 648.88 798.88 650.14 798.88 651.9C798.88 653.66 799.92 654.9 801.62 654.9ZM814.023 657.14C811.083 657.14 809.023 655 809.023 651.94C809.023 648.84 811.043 646.7 813.943 646.7C816.903 646.7 818.783 648.68 818.783 651.76V652.5L811.343 652.52C811.523 654.26 812.443 655.14 814.063 655.14C815.403 655.14 816.283 654.62 816.563 653.68H818.823C818.403 655.84 816.603 657.14 814.023 657.14ZM813.963 648.7C812.523 648.7 811.643 649.48 811.403 650.96H816.363C816.363 649.6 815.423 648.7 813.963 648.7ZM827.135 646.96V649.22H826.235C824.475 649.22 823.375 650.16 823.375 652.08V656.88H820.935V647.02H823.235L823.375 648.46C823.795 647.48 824.735 646.82 826.055 646.82C826.395 646.82 826.735 646.86 827.135 646.96ZM828.227 653.88H830.547C830.567 654.74 831.207 655.28 832.327 655.28C833.467 655.28 834.087 654.82 834.087 654.1C834.087 653.6 833.827 653.24 832.947 653.04L831.167 652.62C829.387 652.22 828.527 651.38 828.527 649.8C828.527 647.86 830.167 646.7 832.447 646.7C834.667 646.7 836.167 647.98 836.187 649.9H833.867C833.847 649.06 833.287 648.52 832.347 648.52C831.387 648.52 830.827 648.96 830.827 649.7C830.827 650.26 831.267 650.62 832.107 650.82L833.887 651.24C835.547 651.62 836.387 652.38 836.387 653.9C836.387 655.9 834.687 657.14 832.247 657.14C829.787 657.14 828.227 655.82 828.227 653.88Z" fill="black"/>
<path id="Vector 2249" d="M907 651.88H845" stroke="black" stroke-width="3" stroke-linecap="round"/>
<g id="B_ARSENIC_2">
<path id="Rectangle 4863" d="M811.25 665.88H716.75C709.156 665.88 703 672.036 703 679.63C703 687.224 709.156 693.38 716.75 693.38H811.25C818.844 693.38 825 687.224 825 679.63C825 672.036 818.844 665.88 811.25 665.88Z" fill="#C064E4"/>
<path id="text" d="M732.086 686.88H729.426L734.706 672.26H737.326L742.606 686.88H739.906L738.726 683.5H733.266L732.086 686.88ZM735.686 676.62L734.026 681.34H737.986L736.306 676.62C736.186 676.24 736.046 675.8 736.006 675.5C735.946 675.78 735.826 676.22 735.686 676.62ZM750.279 676.96V679.22H749.379C747.619 679.22 746.519 680.16 746.519 682.08V686.88H744.079V677.02H746.379L746.519 678.46C746.939 677.48 747.879 676.82 749.199 676.82C749.539 676.82 749.879 676.86 750.279 676.96ZM751.171 683.88H753.491C753.511 684.74 754.151 685.28 755.271 685.28C756.411 685.28 757.031 684.82 757.031 684.1C757.031 683.6 756.771 683.24 755.891 683.04L754.111 682.62C752.331 682.22 751.471 681.38 751.471 679.8C751.471 677.86 753.111 676.7 755.391 676.7C757.611 676.7 759.111 677.98 759.131 679.9H756.811C756.791 679.06 756.231 678.52 755.291 678.52C754.331 678.52 753.771 678.96 753.771 679.7C753.771 680.26 754.211 680.62 755.051 680.82L756.831 681.24C758.491 681.62 759.331 682.38 759.331 683.9C759.331 685.9 757.631 687.14 755.191 687.14C752.731 687.14 751.171 685.82 751.171 683.88ZM765.609 687.14C762.669 687.14 760.609 685 760.609 681.94C760.609 678.84 762.629 676.7 765.529 676.7C768.489 676.7 770.369 678.68 770.369 681.76V682.5L762.929 682.52C763.109 684.26 764.029 685.14 765.649 685.14C766.989 685.14 767.869 684.62 768.149 683.68H770.409C769.989 685.84 768.189 687.14 765.609 687.14ZM765.549 678.7C764.109 678.7 763.229 679.48 762.989 680.96H767.949C767.949 679.6 767.009 678.7 765.549 678.7ZM774.762 686.88H772.322V677H774.582L774.782 678.28C775.402 677.28 776.602 676.7 777.942 676.7C780.422 676.7 781.702 678.24 781.702 680.8V686.88H779.262V681.38C779.262 679.72 778.442 678.92 777.182 678.92C775.682 678.92 774.762 679.96 774.762 681.56V686.88ZM785.319 675.02C784.479 675.02 783.819 674.36 783.819 673.54C783.819 672.72 784.479 672.08 785.319 672.08C786.119 672.08 786.779 672.72 786.779 673.54C786.779 674.36 786.119 675.02 785.319 675.02ZM784.099 686.88V677H786.539V686.88H784.099ZM788.48 681.92C788.48 678.86 790.5 676.7 793.42 676.7C796.12 676.7 797.96 678.2 798.22 680.58H795.78C795.5 679.46 794.68 678.88 793.52 678.88C791.96 678.88 790.92 680.06 790.92 681.92C790.92 683.78 791.88 684.94 793.44 684.94C794.66 684.94 795.52 684.34 795.78 683.26H798.24C797.94 685.56 796.02 687.14 793.44 687.14C790.44 687.14 788.48 685.06 788.48 681.92Z" fill="white"/>
</g>
</g>
<g id="3_TEXT">
<path id="Reproductive toxicity" d="M1162.18 385H1159.62V370.38H1165.2C1168.52 370.38 1170.46 372.06 1170.46 374.94C1170.46 376.9 1169.54 378.3 1167.82 379L1170.6 385H1167.8L1165.32 379.54H1162.18V385ZM1162.18 372.66V377.28H1165.2C1166.82 377.28 1167.78 376.42 1167.78 374.94C1167.78 373.48 1166.82 372.66 1165.2 372.66H1162.18ZM1176.58 385.26C1173.64 385.26 1171.58 383.12 1171.58 380.06C1171.58 376.96 1173.6 374.82 1176.5 374.82C1179.46 374.82 1181.34 376.8 1181.34 379.88V380.62L1173.9 380.64C1174.08 382.38 1175 383.26 1176.62 383.26C1177.96 383.26 1178.84 382.74 1179.12 381.8H1181.38C1180.96 383.96 1179.16 385.26 1176.58 385.26ZM1176.52 376.82C1175.08 376.82 1174.2 377.6 1173.96 379.08H1178.92C1178.92 377.72 1177.98 376.82 1176.52 376.82ZM1183.49 389.58V375.12H1185.75L1185.91 376.62C1186.51 375.48 1187.81 374.82 1189.31 374.82C1192.09 374.82 1193.93 376.84 1193.93 379.94C1193.93 383.02 1192.25 385.26 1189.31 385.26C1187.83 385.26 1186.55 384.68 1185.93 383.68V389.58H1183.49ZM1185.95 380.06C1185.95 381.84 1187.05 383.06 1188.73 383.06C1190.45 383.06 1191.47 381.82 1191.47 380.06C1191.47 378.3 1190.45 377.04 1188.73 377.04C1187.05 377.04 1185.95 378.28 1185.95 380.06ZM1202.27 375.08V377.34H1201.37C1199.61 377.34 1198.51 378.28 1198.51 380.2V385H1196.07V375.14H1198.37L1198.51 376.58C1198.93 375.6 1199.87 374.94 1201.19 374.94C1201.53 374.94 1201.87 374.98 1202.27 375.08ZM1203.21 380.04C1203.21 376.96 1205.43 374.84 1208.49 374.84C1211.55 374.84 1213.77 376.96 1213.77 380.04C1213.77 383.12 1211.55 385.24 1208.49 385.24C1205.43 385.24 1203.21 383.12 1203.21 380.04ZM1205.65 380.04C1205.65 381.84 1206.81 383.06 1208.49 383.06C1210.17 383.06 1211.33 381.84 1211.33 380.04C1211.33 378.24 1210.17 377.02 1208.49 377.02C1206.81 377.02 1205.65 378.24 1205.65 380.04ZM1219.96 385.26C1217.1 385.26 1215.32 383.16 1215.32 380.1C1215.32 377.02 1217.12 374.82 1220.1 374.82C1221.48 374.82 1222.7 375.4 1223.32 376.38V370.12H1225.74V385H1223.5L1223.34 383.46C1222.74 384.6 1221.46 385.26 1219.96 385.26ZM1220.5 383.02C1222.2 383.02 1223.3 381.8 1223.3 380.02C1223.3 378.24 1222.2 377 1220.5 377C1218.8 377 1217.76 378.26 1217.76 380.02C1217.76 381.78 1218.8 383.02 1220.5 383.02ZM1235.19 375.12H1237.63V385H1235.37L1235.19 383.68C1234.59 384.62 1233.31 385.26 1231.99 385.26C1229.71 385.26 1228.37 383.72 1228.37 381.3V375.12H1230.81V380.44C1230.81 382.32 1231.55 383.08 1232.91 383.08C1234.45 383.08 1235.19 382.18 1235.19 380.3V375.12ZM1239.57 380.04C1239.57 376.98 1241.59 374.82 1244.51 374.82C1247.21 374.82 1249.05 376.32 1249.31 378.7H1246.87C1246.59 377.58 1245.77 377 1244.61 377C1243.05 377 1242.01 378.18 1242.01 380.04C1242.01 381.9 1242.97 383.06 1244.53 383.06C1245.75 383.06 1246.61 382.46 1246.87 381.38H1249.33C1249.03 383.68 1247.11 385.26 1244.53 385.26C1241.53 385.26 1239.57 383.18 1239.57 380.04ZM1254.71 385H1252.27V377.16H1250.37V375.12H1252.27V372.04H1254.71V375.12H1256.63V377.16H1254.71V385ZM1259.57 373.14C1258.73 373.14 1258.07 372.48 1258.07 371.66C1258.07 370.84 1258.73 370.2 1259.57 370.2C1260.37 370.2 1261.03 370.84 1261.03 371.66C1261.03 372.48 1260.37 373.14 1259.57 373.14ZM1258.35 385V375.12H1260.79V385H1258.35ZM1266.31 385L1262.39 375.12H1264.99L1266.71 379.66C1267.13 380.84 1267.47 381.86 1267.59 382.4C1267.73 381.78 1268.09 380.74 1268.51 379.66L1270.31 375.12H1272.83L1268.71 385H1266.31ZM1278.36 385.26C1275.42 385.26 1273.36 383.12 1273.36 380.06C1273.36 376.96 1275.38 374.82 1278.28 374.82C1281.24 374.82 1283.12 376.8 1283.12 379.88V380.62L1275.68 380.64C1275.86 382.38 1276.78 383.26 1278.4 383.26C1279.74 383.26 1280.62 382.74 1280.9 381.8H1283.16C1282.74 383.96 1280.94 385.26 1278.36 385.26ZM1278.3 376.82C1276.86 376.82 1275.98 377.6 1275.74 379.08H1280.7C1280.7 377.72 1279.76 376.82 1278.3 376.82ZM1294.22 385H1291.78V377.16H1289.88V375.12H1291.78V372.04H1294.22V375.12H1296.14V377.16H1294.22V385ZM1297.18 380.04C1297.18 376.96 1299.4 374.84 1302.46 374.84C1305.52 374.84 1307.74 376.96 1307.74 380.04C1307.74 383.12 1305.52 385.24 1302.46 385.24C1299.4 385.24 1297.18 383.12 1297.18 380.04ZM1299.62 380.04C1299.62 381.84 1300.78 383.06 1302.46 383.06C1304.14 383.06 1305.3 381.84 1305.3 380.04C1305.3 378.24 1304.14 377.02 1302.46 377.02C1300.78 377.02 1299.62 378.24 1299.62 380.04ZM1311.15 385H1308.37L1311.77 380.16L1308.37 375.12H1311.21L1313.39 378.48L1315.49 375.12H1318.23L1314.87 380.12L1318.13 385H1315.33L1313.23 381.74L1311.15 385ZM1321.1 373.14C1320.26 373.14 1319.6 372.48 1319.6 371.66C1319.6 370.84 1320.26 370.2 1321.1 370.2C1321.9 370.2 1322.56 370.84 1322.56 371.66C1322.56 372.48 1321.9 373.14 1321.1 373.14ZM1319.88 385V375.12H1322.32V385H1319.88ZM1324.46 380.04C1324.46 376.98 1326.48 374.82 1329.4 374.82C1332.1 374.82 1333.94 376.32 1334.2 378.7H1331.76C1331.48 377.58 1330.66 377 1329.5 377C1327.94 377 1326.9 378.18 1326.9 380.04C1326.9 381.9 1327.86 383.06 1329.42 383.06C1330.64 383.06 1331.5 382.46 1331.76 381.38H1334.22C1333.92 383.68 1332 385.26 1329.42 385.26C1326.42 385.26 1324.46 383.18 1324.46 380.04ZM1337.46 373.14C1336.62 373.14 1335.96 372.48 1335.96 371.66C1335.96 370.84 1336.62 370.2 1337.46 370.2C1338.26 370.2 1338.92 370.84 1338.92 371.66C1338.92 372.48 1338.26 373.14 1337.46 373.14ZM1336.24 385V375.12H1338.68V385H1336.24ZM1344.76 385H1342.32V377.16H1340.42V375.12H1342.32V372.04H1344.76V375.12H1346.68V377.16H1344.76V385ZM1347.54 389.58V387.54H1349C1349.96 387.54 1350.56 387.32 1350.98 386.16L1351.26 385.42L1347.28 375.12H1349.86L1352.4 382.32L1355.08 375.12H1357.6L1352.76 387.2C1352.02 389.04 1350.98 389.8 1349.36 389.8C1348.68 389.8 1348.08 389.72 1347.54 389.58Z" fill="black"/>
<path id="Vector 2249_8" d="M970 378H1151" stroke="black" stroke-width="3" stroke-linecap="round"/>
<g id="B_ARSENIC_3">
<path id="Rectangle 4863_3" d="M1268.25 393H1173.75C1166.16 393 1160 399.156 1160 406.75C1160 414.344 1166.16 420.5 1173.75 420.5H1268.25C1275.84 420.5 1282 414.344 1282 406.75C1282 399.156 1275.84 393 1268.25 393Z" fill="#C064E4"/>
<path id="text_8" d="M1189.09 414H1186.43L1191.71 399.38H1194.33L1199.61 414H1196.91L1195.73 410.62H1190.27L1189.09 414ZM1192.69 403.74L1191.03 408.46H1194.99L1193.31 403.74C1193.19 403.36 1193.05 402.92 1193.01 402.62C1192.95 402.9 1192.83 403.34 1192.69 403.74ZM1207.28 404.08V406.34H1206.38C1204.62 406.34 1203.52 407.28 1203.52 409.2V414H1201.08V404.14H1203.38L1203.52 405.58C1203.94 404.6 1204.88 403.94 1206.2 403.94C1206.54 403.94 1206.88 403.98 1207.28 404.08ZM1208.17 411H1210.49C1210.51 411.86 1211.15 412.4 1212.27 412.4C1213.41 412.4 1214.03 411.94 1214.03 411.22C1214.03 410.72 1213.77 410.36 1212.89 410.16L1211.11 409.74C1209.33 409.34 1208.47 408.5 1208.47 406.92C1208.47 404.98 1210.11 403.82 1212.39 403.82C1214.61 403.82 1216.11 405.1 1216.13 407.02H1213.81C1213.79 406.18 1213.23 405.64 1212.29 405.64C1211.33 405.64 1210.77 406.08 1210.77 406.82C1210.77 407.38 1211.21 407.74 1212.05 407.94L1213.83 408.36C1215.49 408.74 1216.33 409.5 1216.33 411.02C1216.33 413.02 1214.63 414.26 1212.19 414.26C1209.73 414.26 1208.17 412.94 1208.17 411ZM1222.61 414.26C1219.67 414.26 1217.61 412.12 1217.61 409.06C1217.61 405.96 1219.63 403.82 1222.53 403.82C1225.49 403.82 1227.37 405.8 1227.37 408.88V409.62L1219.93 409.64C1220.11 411.38 1221.03 412.26 1222.65 412.26C1223.99 412.26 1224.87 411.74 1225.15 410.8H1227.41C1226.99 412.96 1225.19 414.26 1222.61 414.26ZM1222.55 405.82C1221.11 405.82 1220.23 406.6 1219.99 408.08H1224.95C1224.95 406.72 1224.01 405.82 1222.55 405.82ZM1231.76 414H1229.32V404.12H1231.58L1231.78 405.4C1232.4 404.4 1233.6 403.82 1234.94 403.82C1237.42 403.82 1238.7 405.36 1238.7 407.92V414H1236.26V408.5C1236.26 406.84 1235.44 406.04 1234.18 406.04C1232.68 406.04 1231.76 407.08 1231.76 408.68V414ZM1242.32 402.14C1241.48 402.14 1240.82 401.48 1240.82 400.66C1240.82 399.84 1241.48 399.2 1242.32 399.2C1243.12 399.2 1243.78 399.84 1243.78 400.66C1243.78 401.48 1243.12 402.14 1242.32 402.14ZM1241.1 414V404.12H1243.54V414H1241.1ZM1245.48 409.04C1245.48 405.98 1247.5 403.82 1250.42 403.82C1253.12 403.82 1254.96 405.32 1255.22 407.7H1252.78C1252.5 406.58 1251.68 406 1250.52 406C1248.96 406 1247.92 407.18 1247.92 409.04C1247.92 410.9 1248.88 412.06 1250.44 412.06C1251.66 412.06 1252.52 411.46 1252.78 410.38H1255.24C1254.94 412.68 1253.02 414.26 1250.44 414.26C1247.44 414.26 1245.48 412.18 1245.48 409.04Z" fill="white"/>
</g>
</g>
<g id="0_TEXT">
<path id="Development anomalies and potential neurological damage and unborn children and infants" d="M591.88 139H586.62V124.38H591.74C596.06 124.38 599.04 127.36 599.04 131.72C599.04 136.02 596.12 139 591.88 139ZM591.5 126.74H589.18V136.64H591.64C594.56 136.64 596.34 134.76 596.34 131.72C596.34 128.62 594.52 126.74 591.5 126.74ZM605.68 139.26C602.74 139.26 600.68 137.12 600.68 134.06C600.68 130.96 602.7 128.82 605.6 128.82C608.56 128.82 610.44 130.8 610.44 133.88V134.62L603 134.64C603.18 136.38 604.1 137.26 605.72 137.26C607.06 137.26 607.94 136.74 608.22 135.8H610.48C610.06 137.96 608.26 139.26 605.68 139.26ZM605.62 130.82C604.18 130.82 603.3 131.6 603.06 133.08H608.02C608.02 131.72 607.08 130.82 605.62 130.82ZM614.97 139L611.05 129.12H613.65L615.37 133.66C615.79 134.84 616.13 135.86 616.25 136.4C616.39 135.78 616.75 134.74 617.17 133.66L618.97 129.12H621.49L617.37 139H614.97ZM627.02 139.26C624.08 139.26 622.02 137.12 622.02 134.06C622.02 130.96 624.04 128.82 626.94 128.82C629.9 128.82 631.78 130.8 631.78 133.88V134.62L624.34 134.64C624.52 136.38 625.44 137.26 627.06 137.26C628.4 137.26 629.28 136.74 629.56 135.8H631.82C631.4 137.96 629.6 139.26 627.02 139.26ZM626.96 130.82C625.52 130.82 624.64 131.6 624.4 133.08H629.36C629.36 131.72 628.42 130.82 626.96 130.82ZM636.39 139H633.97V124.12H636.39V139ZM638.57 134.04C638.57 130.96 640.79 128.84 643.85 128.84C646.91 128.84 649.13 130.96 649.13 134.04C649.13 137.12 646.91 139.24 643.85 139.24C640.79 139.24 638.57 137.12 638.57 134.04ZM641.01 134.04C641.01 135.84 642.17 137.06 643.85 137.06C645.53 137.06 646.69 135.84 646.69 134.04C646.69 132.24 645.53 131.02 643.85 131.02C642.17 131.02 641.01 132.24 641.01 134.04ZM651.27 143.58V129.12H653.53L653.69 130.62C654.29 129.48 655.59 128.82 657.09 128.82C659.87 128.82 661.71 130.84 661.71 133.94C661.71 137.02 660.03 139.26 657.09 139.26C655.61 139.26 654.33 138.68 653.71 137.68V143.58H651.27ZM653.73 134.06C653.73 135.84 654.83 137.06 656.51 137.06C658.23 137.06 659.25 135.82 659.25 134.06C659.25 132.3 658.23 131.04 656.51 131.04C654.83 131.04 653.73 132.28 653.73 134.06ZM666.29 139H663.85V129.12H666.09L666.29 130.28C666.79 129.46 667.79 128.82 669.21 128.82C670.71 128.82 671.75 129.56 672.27 130.7C672.77 129.56 673.93 128.82 675.43 128.82C677.83 128.82 679.15 130.26 679.15 132.54V139H676.73V133.18C676.73 131.76 675.97 131.02 674.81 131.02C673.63 131.02 672.73 131.78 672.73 133.4V139H670.29V133.16C670.29 131.78 669.55 131.04 668.39 131.04C667.23 131.04 666.29 131.8 666.29 133.4V139ZM686.17 139.26C683.23 139.26 681.17 137.12 681.17 134.06C681.17 130.96 683.19 128.82 686.09 128.82C689.05 128.82 690.93 130.8 690.93 133.88V134.62L683.49 134.64C683.67 136.38 684.59 137.26 686.21 137.26C687.55 137.26 688.43 136.74 688.71 135.8H690.97C690.55 137.96 688.75 139.26 686.17 139.26ZM686.11 130.82C684.67 130.82 683.79 131.6 683.55 133.08H688.51C688.51 131.72 687.57 130.82 686.11 130.82ZM695.52 139H693.08V129.12H695.34L695.54 130.4C696.16 129.4 697.36 128.82 698.7 128.82C701.18 128.82 702.46 130.36 702.46 132.92V139H700.02V133.5C700.02 131.84 699.2 131.04 697.94 131.04C696.44 131.04 695.52 132.08 695.52 133.68V139ZM708.42 139H705.98V131.16H704.08V129.12H705.98V126.04H708.42V129.12H710.34V131.16H708.42V139ZM720.58 139.26C718.48 139.26 717.2 138.04 717.2 136.18C717.2 134.36 718.52 133.22 720.86 133.04L723.82 132.82V132.6C723.82 131.26 723.02 130.72 721.78 130.72C720.34 130.72 719.54 131.32 719.54 132.36H717.46C717.46 130.22 719.22 128.82 721.9 128.82C724.56 128.82 726.2 130.26 726.2 133V139H724.06L723.88 137.54C723.46 138.56 722.12 139.26 720.58 139.26ZM721.38 137.42C722.88 137.42 723.84 136.52 723.84 135V134.48L721.78 134.64C720.26 134.78 719.68 135.28 719.68 136.08C719.68 136.98 720.28 137.42 721.38 137.42ZM731.24 139H728.8V129.12H731.06L731.26 130.4C731.88 129.4 733.08 128.82 734.42 128.82C736.9 128.82 738.18 130.36 738.18 132.92V139H735.74V133.5C735.74 131.84 734.92 131.04 733.66 131.04C732.16 131.04 731.24 132.08 731.24 133.68V139ZM740.2 134.04C740.2 130.96 742.42 128.84 745.48 128.84C748.54 128.84 750.76 130.96 750.76 134.04C750.76 137.12 748.54 139.24 745.48 139.24C742.42 139.24 740.2 137.12 740.2 134.04ZM742.64 134.04C742.64 135.84 743.8 137.06 745.48 137.06C747.16 137.06 748.32 135.84 748.32 134.04C748.32 132.24 747.16 131.02 745.48 131.02C743.8 131.02 742.64 132.24 742.64 134.04ZM755.33 139H752.89V129.12H755.13L755.33 130.28C755.83 129.46 756.83 128.82 758.25 128.82C759.75 128.82 760.79 129.56 761.31 130.7C761.81 129.56 762.97 128.82 764.47 128.82C766.87 128.82 768.19 130.26 768.19 132.54V139H765.77V133.18C765.77 131.76 765.01 131.02 763.85 131.02C762.67 131.02 761.77 131.78 761.77 133.4V139H759.33V133.16C759.33 131.78 758.59 131.04 757.43 131.04C756.27 131.04 755.33 131.8 755.33 133.4V139ZM773.73 139.26C771.63 139.26 770.35 138.04 770.35 136.18C770.35 134.36 771.67 133.22 774.01 133.04L776.97 132.82V132.6C776.97 131.26 776.17 130.72 774.93 130.72C773.49 130.72 772.69 131.32 772.69 132.36H770.61C770.61 130.22 772.37 128.82 775.05 128.82C777.71 128.82 779.35 130.26 779.35 133V139H777.21L777.03 137.54C776.61 138.56 775.27 139.26 773.73 139.26ZM774.53 137.42C776.03 137.42 776.99 136.52 776.99 135V134.48L774.93 134.64C773.41 134.78 772.83 135.28 772.83 136.08C772.83 136.98 773.43 137.42 774.53 137.42ZM784.41 139H781.99V124.12H784.41V139ZM788.38 127.14C787.54 127.14 786.88 126.48 786.88 125.66C786.88 124.84 787.54 124.2 788.38 124.2C789.18 124.2 789.84 124.84 789.84 125.66C789.84 126.48 789.18 127.14 788.38 127.14ZM787.16 139V129.12H789.6V139H787.16ZM796.75 139.26C793.81 139.26 791.75 137.12 791.75 134.06C791.75 130.96 793.77 128.82 796.67 128.82C799.63 128.82 801.51 130.8 801.51 133.88V134.62L794.07 134.64C794.25 136.38 795.17 137.26 796.79 137.26C798.13 137.26 799.01 136.74 799.29 135.8H801.55C801.13 137.96 799.33 139.26 796.75 139.26ZM796.69 130.82C795.25 130.82 794.37 131.6 794.13 133.08H799.09C799.09 131.72 798.15 130.82 796.69 130.82ZM802.9 136H805.22C805.24 136.86 805.88 137.4 807 137.4C808.14 137.4 808.76 136.94 808.76 136.22C808.76 135.72 808.5 135.36 807.62 135.16L805.84 134.74C804.06 134.34 803.2 133.5 803.2 131.92C803.2 129.98 804.84 128.82 807.12 128.82C809.34 128.82 810.84 130.1 810.86 132.02H808.54C808.52 131.18 807.96 130.64 807.02 130.64C806.06 130.64 805.5 131.08 805.5 131.82C805.5 132.38 805.94 132.74 806.78 132.94L808.56 133.36C810.22 133.74 811.06 134.5 811.06 136.02C811.06 138.02 809.36 139.26 806.92 139.26C804.46 139.26 802.9 137.94 802.9 136ZM821.65 139.26C819.55 139.26 818.27 138.04 818.27 136.18C818.27 134.36 819.59 133.22 821.93 133.04L824.89 132.82V132.6C824.89 131.26 824.09 130.72 822.85 130.72C821.41 130.72 820.61 131.32 820.61 132.36H818.53C818.53 130.22 820.29 128.82 822.97 128.82C825.63 128.82 827.27 130.26 827.27 133V139H825.13L824.95 137.54C824.53 138.56 823.19 139.26 821.65 139.26ZM822.45 137.42C823.95 137.42 824.91 136.52 824.91 135V134.48L822.85 134.64C821.33 134.78 820.75 135.28 820.75 136.08C820.75 136.98 821.35 137.42 822.45 137.42ZM832.3 139H829.86V129.12H832.12L832.32 130.4C832.94 129.4 834.14 128.82 835.48 128.82C837.96 128.82 839.24 130.36 839.24 132.92V139H836.8V133.5C836.8 131.84 835.98 131.04 834.72 131.04C833.22 131.04 832.3 132.08 832.3 133.68V139ZM845.9 139.26C843.04 139.26 841.26 137.16 841.26 134.1C841.26 131.02 843.06 128.82 846.04 128.82C847.42 128.82 848.64 129.4 849.26 130.38V124.12H851.68V139H849.44L849.28 137.46C848.68 138.6 847.4 139.26 845.9 139.26ZM846.44 137.02C848.14 137.02 849.24 135.8 849.24 134.02C849.24 132.24 848.14 131 846.44 131C844.74 131 843.7 132.26 843.7 134.02C843.7 135.78 844.74 137.02 846.44 137.02ZM586.26 169.58V155.12H588.52L588.68 156.62C589.28 155.48 590.58 154.82 592.08 154.82C594.86 154.82 596.7 156.84 596.7 159.94C596.7 163.02 595.02 165.26 592.08 165.26C590.6 165.26 589.32 164.68 588.7 163.68V169.58H586.26ZM588.72 160.06C588.72 161.84 589.82 163.06 591.5 163.06C593.22 163.06 594.24 161.82 594.24 160.06C594.24 158.3 593.22 157.04 591.5 157.04C589.82 157.04 588.72 158.28 588.72 160.06ZM598.26 160.04C598.26 156.96 600.48 154.84 603.54 154.84C606.6 154.84 608.82 156.96 608.82 160.04C608.82 163.12 606.6 165.24 603.54 165.24C600.48 165.24 598.26 163.12 598.26 160.04ZM600.7 160.04C600.7 161.84 601.86 163.06 603.54 163.06C605.22 163.06 606.38 161.84 606.38 160.04C606.38 158.24 605.22 157.02 603.54 157.02C601.86 157.02 600.7 158.24 600.7 160.04ZM614.22 165H611.78V157.16H609.88V155.12H611.78V152.04H614.22V155.12H616.14V157.16H614.22V165ZM622.18 165.26C619.24 165.26 617.18 163.12 617.18 160.06C617.18 156.96 619.2 154.82 622.1 154.82C625.06 154.82 626.94 156.8 626.94 159.88V160.62L619.5 160.64C619.68 162.38 620.6 163.26 622.22 163.26C623.56 163.26 624.44 162.74 624.72 161.8H626.98C626.56 163.96 624.76 165.26 622.18 165.26ZM622.12 156.82C620.68 156.82 619.8 157.6 619.56 159.08H624.52C624.52 157.72 623.58 156.82 622.12 156.82ZM631.53 165H629.09V155.12H631.35L631.55 156.4C632.17 155.4 633.37 154.82 634.71 154.82C637.19 154.82 638.47 156.36 638.47 158.92V165H636.03V159.5C636.03 157.84 635.21 157.04 633.95 157.04C632.45 157.04 631.53 158.08 631.53 159.68V165ZM644.43 165H641.99V157.16H640.09V155.12H641.99V152.04H644.43V155.12H646.35V157.16H644.43V165ZM649.29 153.14C648.45 153.14 647.79 152.48 647.79 151.66C647.79 150.84 648.45 150.2 649.29 150.2C650.09 150.2 650.75 150.84 650.75 151.66C650.75 152.48 650.09 153.14 649.29 153.14ZM648.07 165V155.12H650.51V165H648.07ZM656.17 165.26C654.07 165.26 652.79 164.04 652.79 162.18C652.79 160.36 654.11 159.22 656.45 159.04L659.41 158.82V158.6C659.41 157.26 658.61 156.72 657.37 156.72C655.93 156.72 655.13 157.32 655.13 158.36H653.05C653.05 156.22 654.81 154.82 657.49 154.82C660.15 154.82 661.79 156.26 661.79 159V165H659.65L659.47 163.54C659.05 164.56 657.71 165.26 656.17 165.26ZM656.97 163.42C658.47 163.42 659.43 162.52 659.43 161V160.48L657.37 160.64C655.85 160.78 655.27 161.28 655.27 162.08C655.27 162.98 655.87 163.42 656.97 163.42ZM666.84 165H664.42V150.12H666.84V165ZM677.63 165H675.19V155.12H677.45L677.65 156.4C678.27 155.4 679.47 154.82 680.81 154.82C683.29 154.82 684.57 156.36 684.57 158.92V165H682.13V159.5C682.13 157.84 681.31 157.04 680.05 157.04C678.55 157.04 677.63 158.08 677.63 159.68V165ZM691.59 165.26C688.65 165.26 686.59 163.12 686.59 160.06C686.59 156.96 688.61 154.82 691.51 154.82C694.47 154.82 696.35 156.8 696.35 159.88V160.62L688.91 160.64C689.09 162.38 690.01 163.26 691.63 163.26C692.97 163.26 693.85 162.74 694.13 161.8H696.39C695.97 163.96 694.17 165.26 691.59 165.26ZM691.53 156.82C690.09 156.82 689.21 157.6 688.97 159.08H693.93C693.93 157.72 692.99 156.82 691.53 156.82ZM705.2 155.12H707.64V165H705.38L705.2 163.68C704.6 164.62 703.32 165.26 702 165.26C699.72 165.26 698.38 163.72 698.38 161.3V155.12H700.82V160.44C700.82 162.32 701.56 163.08 702.92 163.08C704.46 163.08 705.2 162.18 705.2 160.3V155.12ZM716.56 155.08V157.34H715.66C713.9 157.34 712.8 158.28 712.8 160.2V165H710.36V155.14H712.66L712.8 156.58C713.22 155.6 714.16 154.94 715.48 154.94C715.82 154.94 716.16 154.98 716.56 155.08ZM717.5 160.04C717.5 156.96 719.72 154.84 722.78 154.84C725.84 154.84 728.06 156.96 728.06 160.04C728.06 163.12 725.84 165.24 722.78 165.24C719.72 165.24 717.5 163.12 717.5 160.04ZM719.94 160.04C719.94 161.84 721.1 163.06 722.78 163.06C724.46 163.06 725.62 161.84 725.62 160.04C725.62 158.24 724.46 157.02 722.78 157.02C721.1 157.02 719.94 158.24 719.94 160.04ZM732.66 165H730.24V150.12H732.66V165ZM734.84 160.04C734.84 156.96 737.06 154.84 740.12 154.84C743.18 154.84 745.4 156.96 745.4 160.04C745.4 163.12 743.18 165.24 740.12 165.24C737.06 165.24 734.84 163.12 734.84 160.04ZM737.28 160.04C737.28 161.84 738.44 163.06 740.12 163.06C741.8 163.06 742.96 161.84 742.96 160.04C742.96 158.24 741.8 157.02 740.12 157.02C738.44 157.02 737.28 158.24 737.28 160.04ZM746.97 159.84C746.97 156.96 748.85 154.8 751.67 154.8C753.15 154.8 754.31 155.42 754.89 156.48L755.03 155.12H757.29V164.5C757.29 167.8 755.31 169.86 752.11 169.86C749.27 169.86 747.33 168.24 747.03 165.6H749.47C749.63 166.88 750.61 167.64 752.11 167.64C753.79 167.64 754.87 166.58 754.87 164.94V163.3C754.25 164.22 753.03 164.8 751.61 164.8C748.81 164.8 746.97 162.7 746.97 159.84ZM749.43 159.78C749.43 161.44 750.49 162.68 752.09 162.68C753.77 162.68 754.81 161.5 754.81 159.78C754.81 158.1 753.79 156.94 752.09 156.94C750.47 156.94 749.43 158.16 749.43 159.78ZM761.24 153.14C760.4 153.14 759.74 152.48 759.74 151.66C759.74 150.84 760.4 150.2 761.24 150.2C762.04 150.2 762.7 150.84 762.7 151.66C762.7 152.48 762.04 153.14 761.24 153.14ZM760.02 165V155.12H762.46V165H760.02ZM764.6 160.04C764.6 156.98 766.62 154.82 769.54 154.82C772.24 154.82 774.08 156.32 774.34 158.7H771.9C771.62 157.58 770.8 157 769.64 157C768.08 157 767.04 158.18 767.04 160.04C767.04 161.9 768 163.06 769.56 163.06C770.78 163.06 771.64 162.46 771.9 161.38H774.36C774.06 163.68 772.14 165.26 769.56 165.26C766.56 165.26 764.6 163.18 764.6 160.04ZM779.31 165.26C777.21 165.26 775.93 164.04 775.93 162.18C775.93 160.36 777.25 159.22 779.59 159.04L782.55 158.82V158.6C782.55 157.26 781.75 156.72 780.51 156.72C779.07 156.72 778.27 157.32 778.27 158.36H776.19C776.19 156.22 777.95 154.82 780.63 154.82C783.29 154.82 784.93 156.26 784.93 159V165H782.79L782.61 163.54C782.19 164.56 780.85 165.26 779.31 165.26ZM780.11 163.42C781.61 163.42 782.57 162.52 782.57 161V160.48L780.51 160.64C778.99 160.78 778.41 161.28 778.41 162.08C778.41 162.98 779.01 163.42 780.11 163.42ZM789.99 165H787.57V150.12H789.99V165ZM802.4 165.26C799.54 165.26 797.76 163.16 797.76 160.1C797.76 157.02 799.56 154.82 802.54 154.82C803.92 154.82 805.14 155.4 805.76 156.38V150.12H808.18V165H805.94L805.78 163.46C805.18 164.6 803.9 165.26 802.4 165.26ZM802.94 163.02C804.64 163.02 805.74 161.8 805.74 160.02C805.74 158.24 804.64 157 802.94 157C801.24 157 800.2 158.26 800.2 160.02C800.2 161.78 801.24 163.02 802.94 163.02ZM813.86 165.26C811.76 165.26 810.48 164.04 810.48 162.18C810.48 160.36 811.8 159.22 814.14 159.04L817.1 158.82V158.6C817.1 157.26 816.3 156.72 815.06 156.72C813.62 156.72 812.82 157.32 812.82 158.36H810.74C810.74 156.22 812.5 154.82 815.18 154.82C817.84 154.82 819.48 156.26 819.48 159V165H817.34L817.16 163.54C816.74 164.56 815.4 165.26 813.86 165.26ZM814.66 163.42C816.16 163.42 817.12 162.52 817.12 161V160.48L815.06 160.64C813.54 160.78 812.96 161.28 812.96 162.08C812.96 162.98 813.56 163.42 814.66 163.42ZM824.52 165H822.08V155.12H824.32L824.52 156.28C825.02 155.46 826.02 154.82 827.44 154.82C828.94 154.82 829.98 155.56 830.5 156.7C831 155.56 832.16 154.82 833.66 154.82C836.06 154.82 837.38 156.26 837.38 158.54V165H834.96V159.18C834.96 157.76 834.2 157.02 833.04 157.02C831.86 157.02 830.96 157.78 830.96 159.4V165H828.52V159.16C828.52 157.78 827.78 157.04 826.62 157.04C825.46 157.04 824.52 157.8 824.52 159.4V165ZM842.92 165.26C840.82 165.26 839.54 164.04 839.54 162.18C839.54 160.36 840.86 159.22 843.2 159.04L846.16 158.82V158.6C846.16 157.26 845.36 156.72 844.12 156.72C842.68 156.72 841.88 157.32 841.88 158.36H839.8C839.8 156.22 841.56 154.82 844.24 154.82C846.9 154.82 848.54 156.26 848.54 159V165H846.4L846.22 163.54C845.8 164.56 844.46 165.26 842.92 165.26ZM843.72 163.42C845.22 163.42 846.18 162.52 846.18 161V160.48L844.12 160.64C842.6 160.78 842.02 161.28 842.02 162.08C842.02 162.98 842.62 163.42 843.72 163.42ZM850.57 159.84C850.57 156.96 852.45 154.8 855.27 154.8C856.75 154.8 857.91 155.42 858.49 156.48L858.63 155.12H860.89V164.5C860.89 167.8 858.91 169.86 855.71 169.86C852.87 169.86 850.93 168.24 850.63 165.6H853.07C853.23 166.88 854.21 167.64 855.71 167.64C857.39 167.64 858.47 166.58 858.47 164.94V163.3C857.85 164.22 856.63 164.8 855.21 164.8C852.41 164.8 850.57 162.7 850.57 159.84ZM853.03 159.78C853.03 161.44 854.09 162.68 855.69 162.68C857.37 162.68 858.41 161.5 858.41 159.78C858.41 158.1 857.39 156.94 855.69 156.94C854.07 156.94 853.03 158.16 853.03 159.78ZM868.04 165.26C865.1 165.26 863.04 163.12 863.04 160.06C863.04 156.96 865.06 154.82 867.96 154.82C870.92 154.82 872.8 156.8 872.8 159.88V160.62L865.36 160.64C865.54 162.38 866.46 163.26 868.08 163.26C869.42 163.26 870.3 162.74 870.58 161.8H872.84C872.42 163.96 870.62 165.26 868.04 165.26ZM867.98 156.82C866.54 156.82 865.66 157.6 865.42 159.08H870.38C870.38 157.72 869.44 156.82 867.98 156.82ZM589.2 191.26C587.1 191.26 585.82 190.04 585.82 188.18C585.82 186.36 587.14 185.22 589.48 185.04L592.44 184.82V184.6C592.44 183.26 591.64 182.72 590.4 182.72C588.96 182.72 588.16 183.32 588.16 184.36H586.08C586.08 182.22 587.84 180.82 590.52 180.82C593.18 180.82 594.82 182.26 594.82 185V191H592.68L592.5 189.54C592.08 190.56 590.74 191.26 589.2 191.26ZM590 189.42C591.5 189.42 592.46 188.52 592.46 187V186.48L590.4 186.64C588.88 186.78 588.3 187.28 588.3 188.08C588.3 188.98 588.9 189.42 590 189.42ZM599.86 191H597.42V181.12H599.68L599.88 182.4C600.5 181.4 601.7 180.82 603.04 180.82C605.52 180.82 606.8 182.36 606.8 184.92V191H604.36V185.5C604.36 183.84 603.54 183.04 602.28 183.04C600.78 183.04 599.86 184.08 599.86 185.68V191ZM613.45 191.26C610.59 191.26 608.81 189.16 608.81 186.1C608.81 183.02 610.61 180.82 613.59 180.82C614.97 180.82 616.19 181.4 616.81 182.38V176.12H619.23V191H616.99L616.83 189.46C616.23 190.6 614.95 191.26 613.45 191.26ZM613.99 189.02C615.69 189.02 616.79 187.8 616.79 186.02C616.79 184.24 615.69 183 613.99 183C612.29 183 611.25 184.26 611.25 186.02C611.25 187.78 612.29 189.02 613.99 189.02ZM634.27 181.12H636.71V191H634.45L634.27 189.68C633.67 190.62 632.39 191.26 631.07 191.26C628.79 191.26 627.45 189.72 627.45 187.3V181.12H629.89V186.44C629.89 188.32 630.63 189.08 631.99 189.08C633.53 189.08 634.27 188.18 634.27 186.3V181.12ZM641.87 191H639.43V181.12H641.69L641.89 182.4C642.51 181.4 643.71 180.82 645.05 180.82C647.53 180.82 648.81 182.36 648.81 184.92V191H646.37V185.5C646.37 183.84 645.55 183.04 644.29 183.04C642.79 183.04 641.87 184.08 641.87 185.68V191ZM653.67 191H651.41V176.12H653.85V182.56C654.49 181.46 655.81 180.8 657.31 180.8C660.13 180.8 661.85 183 661.85 186.12C661.85 189.16 659.99 191.26 657.15 191.26C655.67 191.26 654.41 190.6 653.83 189.46L653.67 191ZM653.87 186.02C653.87 187.8 654.97 189.02 656.65 189.02C658.37 189.02 659.39 187.78 659.39 186.02C659.39 184.26 658.37 183 656.65 183C654.97 183 653.87 184.24 653.87 186.02ZM663.41 186.04C663.41 182.96 665.63 180.84 668.69 180.84C671.75 180.84 673.97 182.96 673.97 186.04C673.97 189.12 671.75 191.24 668.69 191.24C665.63 191.24 663.41 189.12 663.41 186.04ZM665.85 186.04C665.85 187.84 667.01 189.06 668.69 189.06C670.37 189.06 671.53 187.84 671.53 186.04C671.53 184.24 670.37 183.02 668.69 183.02C667.01 183.02 665.85 184.24 665.85 186.04ZM682.3 181.08V183.34H681.4C679.64 183.34 678.54 184.28 678.54 186.2V191H676.1V181.14H678.4L678.54 182.58C678.96 181.6 679.9 180.94 681.22 180.94C681.56 180.94 681.9 180.98 682.3 181.08ZM686.59 191H684.15V181.12H686.41L686.61 182.4C687.23 181.4 688.43 180.82 689.77 180.82C692.25 180.82 693.53 182.36 693.53 184.92V191H691.09V185.5C691.09 183.84 690.27 183.04 689.01 183.04C687.51 183.04 686.59 184.08 686.59 185.68V191ZM701.14 186.04C701.14 182.98 703.16 180.82 706.08 180.82C708.78 180.82 710.62 182.32 710.88 184.7H708.44C708.16 183.58 707.34 183 706.18 183C704.62 183 703.58 184.18 703.58 186.04C703.58 187.9 704.54 189.06 706.1 189.06C707.32 189.06 708.18 188.46 708.44 187.38H710.9C710.6 189.68 708.68 191.26 706.1 191.26C703.1 191.26 701.14 189.18 701.14 186.04ZM715.36 191H712.92V176.12H715.38V182.4C716 181.44 717.16 180.82 718.58 180.82C721.02 180.82 722.3 182.36 722.3 184.92V191H719.86V185.5C719.86 183.84 719.04 183.04 717.8 183.04C716.26 183.04 715.36 184.12 715.36 185.6V191ZM726.12 179.14C725.28 179.14 724.62 178.48 724.62 177.66C724.62 176.84 725.28 176.2 726.12 176.2C726.92 176.2 727.58 176.84 727.58 177.66C727.58 178.48 726.92 179.14 726.12 179.14ZM724.9 191V181.12H727.34V191H724.9ZM732.52 191H730.1V176.12H732.52V191ZM739.34 191.26C736.48 191.26 734.7 189.16 734.7 186.1C734.7 183.02 736.5 180.82 739.48 180.82C740.86 180.82 742.08 181.4 742.7 182.38V176.12H745.12V191H742.88L742.72 189.46C742.12 190.6 740.84 191.26 739.34 191.26ZM739.88 189.02C741.58 189.02 742.68 187.8 742.68 186.02C742.68 184.24 741.58 183 739.88 183C738.18 183 737.14 184.26 737.14 186.02C737.14 187.78 738.18 189.02 739.88 189.02ZM754.06 181.08V183.34H753.16C751.4 183.34 750.3 184.28 750.3 186.2V191H747.86V181.14H750.16L750.3 182.58C750.72 181.6 751.66 180.94 752.98 180.94C753.32 180.94 753.66 180.98 754.06 181.08ZM760 191.26C757.06 191.26 755 189.12 755 186.06C755 182.96 757.02 180.82 759.92 180.82C762.88 180.82 764.76 182.8 764.76 185.88V186.62L757.32 186.64C757.5 188.38 758.42 189.26 760.04 189.26C761.38 189.26 762.26 188.74 762.54 187.8H764.8C764.38 189.96 762.58 191.26 760 191.26ZM759.94 182.82C758.5 182.82 757.62 183.6 757.38 185.08H762.34C762.34 183.72 761.4 182.82 759.94 182.82ZM769.35 191H766.91V181.12H769.17L769.37 182.4C769.99 181.4 771.19 180.82 772.53 180.82C775.01 180.82 776.29 182.36 776.29 184.92V191H773.85V185.5C773.85 183.84 773.03 183.04 771.77 183.04C770.27 183.04 769.35 184.08 769.35 185.68V191ZM787.42 191.26C785.32 191.26 784.04 190.04 784.04 188.18C784.04 186.36 785.36 185.22 787.7 185.04L790.66 184.82V184.6C790.66 183.26 789.86 182.72 788.62 182.72C787.18 182.72 786.38 183.32 786.38 184.36H784.3C784.3 182.22 786.06 180.82 788.74 180.82C791.4 180.82 793.04 182.26 793.04 185V191H790.9L790.72 189.54C790.3 190.56 788.96 191.26 787.42 191.26ZM788.22 189.42C789.72 189.42 790.68 188.52 790.68 187V186.48L788.62 186.64C787.1 186.78 786.52 187.28 786.52 188.08C786.52 188.98 787.12 189.42 788.22 189.42ZM798.08 191H795.64V181.12H797.9L798.1 182.4C798.72 181.4 799.92 180.82 801.26 180.82C803.74 180.82 805.02 182.36 805.02 184.92V191H802.58V185.5C802.58 183.84 801.76 183.04 800.5 183.04C799 183.04 798.08 184.08 798.08 185.68V191ZM811.67 191.26C808.81 191.26 807.03 189.16 807.03 186.1C807.03 183.02 808.83 180.82 811.81 180.82C813.19 180.82 814.41 181.4 815.03 182.38V176.12H817.45V191H815.21L815.05 189.46C814.45 190.6 813.17 191.26 811.67 191.26ZM812.21 189.02C813.91 189.02 815.01 187.8 815.01 186.02C815.01 184.24 813.91 183 812.21 183C810.51 183 809.47 184.26 809.47 186.02C809.47 187.78 810.51 189.02 812.21 189.02ZM827.01 179.14C826.17 179.14 825.51 178.48 825.51 177.66C825.51 176.84 826.17 176.2 827.01 176.2C827.81 176.2 828.47 176.84 828.47 177.66C828.47 178.48 827.81 179.14 827.01 179.14ZM825.79 191V181.12H828.23V191H825.79ZM833.39 191H830.95V181.12H833.21L833.41 182.4C834.03 181.4 835.23 180.82 836.57 180.82C839.05 180.82 840.33 182.36 840.33 184.92V191H837.89V185.5C837.89 183.84 837.07 183.04 835.81 183.04C834.31 183.04 833.39 184.08 833.39 185.68V191ZM841.94 181.12H843.36V179.92C843.36 177.24 844.78 176.12 846.92 176.12C847.3 176.12 847.76 176.14 848.18 176.22V178.3H847.32C846.08 178.3 845.78 178.94 845.78 179.92V181.12H848.14V183.16H845.78V191H843.36V183.16H841.94V181.12ZM852.59 191.26C850.49 191.26 849.21 190.04 849.21 188.18C849.21 186.36 850.53 185.22 852.87 185.04L855.83 184.82V184.6C855.83 183.26 855.03 182.72 853.79 182.72C852.35 182.72 851.55 183.32 851.55 184.36H849.47C849.47 182.22 851.23 180.82 853.91 180.82C856.57 180.82 858.21 182.26 858.21 185V191H856.07L855.89 189.54C855.47 190.56 854.13 191.26 852.59 191.26ZM853.39 189.42C854.89 189.42 855.85 188.52 855.85 187V186.48L853.79 186.64C852.27 186.78 851.69 187.28 851.69 188.08C851.69 188.98 852.29 189.42 853.39 189.42ZM863.25 191H860.81V181.12H863.07L863.27 182.4C863.89 181.4 865.09 180.82 866.43 180.82C868.91 180.82 870.19 182.36 870.19 184.92V191H867.75V185.5C867.75 183.84 866.93 183.04 865.67 183.04C864.17 183.04 863.25 184.08 863.25 185.68V191ZM876.14 191H873.7V183.16H871.8V181.12H873.7V178.04H876.14V181.12H878.06V183.16H876.14V191ZM879.02 188H881.34C881.36 188.86 882 189.4 883.12 189.4C884.26 189.4 884.88 188.94 884.88 188.22C884.88 187.72 884.62 187.36 883.74 187.16L881.96 186.74C880.18 186.34 879.32 185.5 879.32 183.92C879.32 181.98 880.96 180.82 883.24 180.82C885.46 180.82 886.96 182.1 886.98 184.02H884.66C884.64 183.18 884.08 182.64 883.14 182.64C882.18 182.64 881.62 183.08 881.62 183.82C881.62 184.38 882.06 184.74 882.9 184.94L884.68 185.36C886.34 185.74 887.18 186.5 887.18 188.02C887.18 190.02 885.48 191.26 883.04 191.26C880.58 191.26 879.02 189.94 879.02 188Z" fill="black"/>
<path id="Vector 2249_9" d="M956 161H895" stroke="black" stroke-width="3" stroke-linecap="round"/>
<g id="B_ARSENIC_2">
<path id="Rectangle 4863_4" d="M693.25 201H598.75C591.156 201 585 207.156 585 214.75C585 222.344 591.156 228.5 598.75 228.5H693.25C700.844 228.5 707 222.344 707 214.75C707 207.156 700.844 201 693.25 201Z" fill="#C064E4"/>
<path id="text_9" d="M614.09 222H611.43L616.71 207.38H619.33L624.61 222H621.91L620.73 218.62H615.27L614.09 222ZM617.69 211.74L616.03 216.46H619.99L618.31 211.74C618.19 211.36 618.05 210.92 618.01 210.62C617.95 210.9 617.83 211.34 617.69 211.74ZM632.28 212.08V214.34H631.38C629.62 214.34 628.52 215.28 628.52 217.2V222H626.08V212.14H628.38L628.52 213.58C628.94 212.6 629.88 211.94 631.2 211.94C631.54 211.94 631.88 211.98 632.28 212.08ZM633.17 219H635.49C635.51 219.86 636.15 220.4 637.27 220.4C638.41 220.4 639.03 219.94 639.03 219.22C639.03 218.72 638.77 218.36 637.89 218.16L636.11 217.74C634.33 217.34 633.47 216.5 633.47 214.92C633.47 212.98 635.11 211.82 637.39 211.82C639.61 211.82 641.11 213.1 641.13 215.02H638.81C638.79 214.18 638.23 213.64 637.29 213.64C636.33 213.64 635.77 214.08 635.77 214.82C635.77 215.38 636.21 215.74 637.05 215.94L638.83 216.36C640.49 216.74 641.33 217.5 641.33 219.02C641.33 221.02 639.63 222.26 637.19 222.26C634.73 222.26 633.17 220.94 633.17 219ZM647.61 222.26C644.67 222.26 642.61 220.12 642.61 217.06C642.61 213.96 644.63 211.82 647.53 211.82C650.49 211.82 652.37 213.8 652.37 216.88V217.62L644.93 217.64C645.11 219.38 646.03 220.26 647.65 220.26C648.99 220.26 649.87 219.74 650.15 218.8H652.41C651.99 220.96 650.19 222.26 647.61 222.26ZM647.55 213.82C646.11 213.82 645.23 214.6 644.99 216.08H649.95C649.95 214.72 649.01 213.82 647.55 213.82ZM656.76 222H654.32V212.12H656.58L656.78 213.4C657.4 212.4 658.6 211.82 659.94 211.82C662.42 211.82 663.7 213.36 663.7 215.92V222H661.26V216.5C661.26 214.84 660.44 214.04 659.18 214.04C657.68 214.04 656.76 215.08 656.76 216.68V222ZM667.32 210.14C666.48 210.14 665.82 209.48 665.82 208.66C665.82 207.84 666.48 207.2 667.32 207.2C668.12 207.2 668.78 207.84 668.78 208.66C668.78 209.48 668.12 210.14 667.32 210.14ZM666.1 222V212.12H668.54V222H666.1ZM670.48 217.04C670.48 213.98 672.5 211.82 675.42 211.82C678.12 211.82 679.96 213.32 680.22 215.7H677.78C677.5 214.58 676.68 214 675.52 214C673.96 214 672.92 215.18 672.92 217.04C672.92 218.9 673.88 220.06 675.44 220.06C676.66 220.06 677.52 219.46 677.78 218.38H680.24C679.94 220.68 678.02 222.26 675.44 222.26C672.44 222.26 670.48 220.18 670.48 217.04Z" fill="white"/>
</g>
</g>
<g id="2_TEXT">
<path id="Cancer" d="M695.395 317.377C691.135 317.377 688.375 314.417 688.375 309.837C688.375 305.297 691.235 302.277 695.515 302.277C698.975 302.277 701.555 304.297 702.055 307.437H699.355C698.855 305.737 697.395 304.737 695.455 304.737C692.755 304.737 691.055 306.697 691.055 309.817C691.055 312.917 692.775 314.917 695.455 314.917C697.435 314.917 698.955 313.877 699.435 312.257H702.095C701.535 315.337 698.855 317.377 695.395 317.377ZM706.975 317.397C704.875 317.397 703.595 316.177 703.595 314.317C703.595 312.497 704.915 311.357 707.255 311.177L710.215 310.957V310.737C710.215 309.397 709.415 308.857 708.175 308.857C706.735 308.857 705.935 309.457 705.935 310.497H703.855C703.855 308.357 705.615 306.957 708.295 306.957C710.955 306.957 712.595 308.397 712.595 311.137V317.137H710.455L710.275 315.677C709.855 316.697 708.515 317.397 706.975 317.397ZM707.775 315.557C709.275 315.557 710.235 314.657 710.235 313.137V312.617L708.175 312.777C706.655 312.917 706.075 313.417 706.075 314.217C706.075 315.117 706.675 315.557 707.775 315.557ZM717.632 317.137H715.192V307.257H717.452L717.652 308.537C718.272 307.537 719.472 306.957 720.812 306.957C723.292 306.957 724.572 308.497 724.572 311.057V317.137H722.132V311.637C722.132 309.977 721.312 309.177 720.052 309.177C718.552 309.177 717.632 310.217 717.632 311.817V317.137ZM726.59 312.177C726.59 309.117 728.61 306.957 731.53 306.957C734.23 306.957 736.07 308.457 736.33 310.837H733.89C733.61 309.717 732.79 309.137 731.63 309.137C730.07 309.137 729.03 310.317 729.03 312.177C729.03 314.037 729.99 315.197 731.55 315.197C732.77 315.197 733.63 314.597 733.89 313.517H736.35C736.05 315.817 734.13 317.397 731.55 317.397C728.55 317.397 726.59 315.317 726.59 312.177ZM742.786 317.397C739.846 317.397 737.786 315.257 737.786 312.197C737.786 309.097 739.806 306.957 742.706 306.957C745.666 306.957 747.546 308.937 747.546 312.017V312.757L740.106 312.777C740.286 314.517 741.206 315.397 742.826 315.397C744.166 315.397 745.046 314.877 745.326 313.937H747.586C747.166 316.097 745.366 317.397 742.786 317.397ZM742.726 308.957C741.286 308.957 740.406 309.737 740.166 311.217H745.126C745.126 309.857 744.186 308.957 742.726 308.957ZM755.899 307.217V309.477H754.999C753.239 309.477 752.139 310.417 752.139 312.337V317.137H749.699V307.277H751.999L752.139 308.717C752.559 307.737 753.499 307.077 754.819 307.077C755.159 307.077 755.499 307.117 755.899 307.217Z" fill="black"/>
<path id="Vector 2249_2" d="M950.469 312.138H763.594" stroke="black" stroke-width="3" stroke-linecap="round"/>
<g id="B_ARSENIC_4">
<path id="Rectangle 4863_2" d="M795.844 326H701.344C693.75 326 687.594 332.156 687.594 339.75C687.594 347.344 693.75 353.5 701.344 353.5H795.844C803.438 353.5 809.594 347.344 809.594 339.75C809.594 332.156 803.438 326 795.844 326Z" fill="#C064E4"/>
<path id="text_2" d="M716.68 347H714.02L719.3 332.38H721.92L727.2 347H724.5L723.32 343.62H717.86L716.68 347ZM720.28 336.74L718.62 341.46H722.58L720.9 336.74C720.78 336.36 720.64 335.92 720.6 335.62C720.54 335.9 720.42 336.34 720.28 336.74ZM734.873 337.08V339.34H733.973C732.213 339.34 731.113 340.28 731.113 342.2V347H728.673V337.14H730.973L731.113 338.58C731.533 337.6 732.473 336.94 733.793 336.94C734.133 336.94 734.473 336.98 734.873 337.08ZM735.765 344H738.085C738.105 344.86 738.745 345.4 739.865 345.4C741.005 345.4 741.625 344.94 741.625 344.22C741.625 343.72 741.365 343.36 740.485 343.16L738.705 342.74C736.925 342.34 736.065 341.5 736.065 339.92C736.065 337.98 737.705 336.82 739.985 336.82C742.205 336.82 743.705 338.1 743.725 340.02H741.405C741.385 339.18 740.825 338.64 739.885 338.64C738.925 338.64 738.365 339.08 738.365 339.82C738.365 340.38 738.805 340.74 739.645 340.94L741.425 341.36C743.085 341.74 743.925 342.5 743.925 344.02C743.925 346.02 742.225 347.26 739.785 347.26C737.325 347.26 735.765 345.94 735.765 344ZM750.202 347.26C747.262 347.26 745.202 345.12 745.202 342.06C745.202 338.96 747.222 336.82 750.122 336.82C753.082 336.82 754.962 338.8 754.962 341.88V342.62L747.522 342.64C747.702 344.38 748.622 345.26 750.242 345.26C751.582 345.26 752.462 344.74 752.742 343.8H755.002C754.582 345.96 752.782 347.26 750.202 347.26ZM750.142 338.82C748.702 338.82 747.822 339.6 747.582 341.08H752.542C752.542 339.72 751.602 338.82 750.142 338.82ZM759.355 347H756.915V337.12H759.175L759.375 338.4C759.995 337.4 761.195 336.82 762.535 336.82C765.015 336.82 766.295 338.36 766.295 340.92V347H763.855V341.5C763.855 339.84 763.035 339.04 761.775 339.04C760.275 339.04 759.355 340.08 759.355 341.68V347ZM769.913 335.14C769.073 335.14 768.413 334.48 768.413 333.66C768.413 332.84 769.073 332.2 769.913 332.2C770.713 332.2 771.373 332.84 771.373 333.66C771.373 334.48 770.713 335.14 769.913 335.14ZM768.693 347V337.12H771.133V347H768.693ZM773.074 342.04C773.074 338.98 775.094 336.82 778.014 336.82C780.714 336.82 782.554 338.32 782.814 340.7H780.374C780.094 339.58 779.274 339 778.114 339C776.554 339 775.514 340.18 775.514 342.04C775.514 343.9 776.474 345.06 778.034 345.06C779.254 345.06 780.114 344.46 780.374 343.38H782.834C782.534 345.68 780.614 347.26 778.034 347.26C775.034 347.26 773.074 345.18 773.074 342.04Z" fill="white"/>
</g>
</g>
<g id="centroids">
<path id="1_DOT" d="M958.555 213.884C960.341 213.884 961.789 212.436 961.789 210.65C961.789 208.864 960.341 207.416 958.555 207.416C956.768 207.416 955.32 208.864 955.32 210.65C955.32 212.436 956.768 213.884 958.555 213.884Z" fill="#FF0000"/>
<path id="4_DOT" d="M916.398 654.995C918.184 654.995 919.632 653.547 919.632 651.761C919.632 649.974 918.184 648.526 916.398 648.526C914.612 648.526 913.164 649.974 913.164 651.761C913.164 653.547 914.612 654.995 916.398 654.995Z" fill="#FF0000"/>
<path id="0_DOT" d="M965.023 164.293C966.809 164.293 968.257 162.845 968.257 161.058C968.257 159.272 966.809 157.824 965.023 157.824C963.237 157.824 961.789 159.272 961.789 161.058C961.789 162.845 963.237 164.293 965.023 164.293Z" fill="#FF0000"/>
<path id="3_DOT" d="M962.867 380.985C964.653 380.985 966.101 379.537 966.101 377.751C966.101 375.965 964.653 374.517 962.867 374.517C961.081 374.517 959.633 375.965 959.633 377.751C959.633 379.537 961.081 380.985 962.867 380.985Z" fill="#FF0000"/>
<path id="2_DOT" d="M960.711 315.223C962.497 315.223 963.945 313.775 963.945 311.989C963.945 310.203 962.497 308.755 960.711 308.755C958.925 308.755 957.477 310.203 957.477 311.989C957.477 313.775 958.925 315.223 960.711 315.223Z" fill="#FF0000"/>
</g>
</g>
</svg>
