<svg width="221" height="62" viewbox="0 0 221 62" fill="none" xmlns="http://www.w3.org/2000/svg">
  <g><path class="line1" d="M170.749 29.7839C170.749 20.2764 176.705 12.7099 184.557 10.2617" stroke="black" stroke-width="3.77593" stroke-linecap="round"/></g>
  <g><path class="line1" d="M207.651 19.9036C205.553 14.9686 201.363 11.4392 195.985 10.0234" stroke="black" stroke-width="3.77593" stroke-linecap="round"/></g>
  <g><path class="line1" d="M172.298 40.498C174.451 46.343 178.767 50.4739 184.559 52.1638" stroke="black" stroke-width="3.77593" stroke-linecap="round"/></g>
  <g><path class="line1 " d="M207.413 43.8301C205.087 48.0415 201.02 51.0896 195.985 52.4008" stroke="black" stroke-width="3.77593" stroke-linecap="round"/></g>
  <g><path class="line1 " d="M138.013 40.498L140.169 44.56L144.084 52.4018" stroke="black" stroke-width="3.77593" stroke-linecap="round"/></g>
  <g><path class="line1 " d="M75.757 15.6191L70.0547 29.5712" stroke="black" stroke-width="3.77593" stroke-linecap="round"/></g>
  <g><path class="line1 " d="M117.182 52.4018L117.182 46.4499L117.182 40.498" stroke="black" stroke-width="3.77593" stroke-linecap="round"/></g>
  <g><path class="line1 " d="M117.182 29.7846L117.182 22.7019L117.182 15.6191" stroke="black" stroke-width="3.77593" stroke-linecap="round"/></g>
  <g><path class="line1 " d="M97.8973 52.4011L92.4131 40.3516" stroke="black" stroke-width="3.77593" stroke-linecap="round"/></g>
  <g><path class="line1 line2" d="M73.2578 34.9023L84.4474 34.9023" stroke="black" stroke-width="3.77593" stroke-linecap="round"/></g>
  <g><path class="line1 " d="M13.0254 52.4018L13.0254 40.498" stroke="black" stroke-width="3.77593" stroke-linecap="round"/></g>
  <g><path class="line1 " d="M13.0254 30.0227L13.0254 15.6191" stroke="black" stroke-width="3.77593" stroke-linecap="round"/></g>
  <g><path class="line1 " d="M18.0244 35.1406H28.699C37.0066 35.1406 42.4272 30.3248 42.4272 22.6728C42.4272 14.7941 37.0655 10.2617 28.699 10.2617H18.0244" stroke="black" stroke-width="3.77593" stroke-linecap="round"/></g>
  <circle cx="13.0236" cy="10.0236" r="2.02364" fill="#1C85FF"/>
  <circle cx="13.0236" cy="35.1408" r="2.02364" fill="#1C85FF"/>
  <g><path class="line1 line2" d="M122.777 35.1406H130.642" stroke="black" stroke-width="3.77593" stroke-linecap="round"/></g>
  <g><path class="line1 line2" d="M45.9961 35.1406H62.0662" stroke="black" stroke-width="3.77593" stroke-linecap="round"/></g>
  <g><path class="line1 line2" d="M95.6377 34.9023H111.589" stroke="black" stroke-width="3.77593" stroke-linecap="round"/></g>
  <g><path class="line1 line2" d="M149.442 35.1406H165.512" stroke="black" stroke-width="3.77593" stroke-linecap="round"/></g>
  <circle cx="67.6594" cy="34.9025" r="2.02364" fill="#1C85FF"/>
  <circle cx="78.8518" cy="10.2619" r="2.02364" fill="#1C85FF"/>
  <circle cx="117.18" cy="10.2619" r="2.02364" fill="#1C85FF"/>
  <circle cx="117.18" cy="34.9025" r="2.02364" fill="#1C85FF"/>
  <circle cx="135.989" cy="35.1408" r="2.02364" fill="#1C85FF"/>
  <circle cx="170.807" cy="35.1408" r="2.02364" fill="#1C85FF"/>
  <circle cx="190.392" cy="52.4006" r="2.02364" fill="#1C85FF"/>
  <circle cx="190.392" cy="10.2619" r="2.02364" fill="#1C85FF"/>
  <circle cx="90.0393" cy="34.9025" r="2.02364" fill="#1C85FF"/>
  <g><path class="line1 " d="M81.8271 15.6191L88.2072 29.8754" stroke="black" stroke-width="3.77593" stroke-linecap="round"/></g>
  <g><path class="line1 " d="M122.777 10.2617H135.356C142.997 10.2617 147.894 15.2375 147.894 22.6744C147.894 27.8392 145.363 31.9917 141.146 33.9389" stroke="black" stroke-width="3.77593" stroke-linecap="round"/></g>
  <g><path class="line1 " d="M60.0068 52.3864L65.4751 40.4082" stroke="black" stroke-width="3.77593" stroke-linecap="round"/></g>
</svg>
