<svg width="192" height="176" viewBox="0 0 192 176" fill="none" xmlns="http://www.w3.org/2000/svg">
<path d="M162.431 6.79199C175.084 9.19828 185.089 19.0797 187.676 31.6677" stroke="black" stroke-width="8" stroke-linecap="round"/>
<path d="M5.30615 31.668C7.71244 19.0148 17.5938 9.01005 30.1818 6.42239" stroke="black" stroke-width="8" stroke-linecap="round"/>
<path d="M187.676 142.583C185.27 155.236 175.389 165.241 162.801 167.829" stroke="black" stroke-width="8" stroke-linecap="round"/>
<path d="M30.1819 170.353C17.5287 167.946 7.52397 158.065 4.93631 145.477" stroke="black" stroke-width="8" stroke-linecap="round"/>
<path d="M187.676 47.3584L187.676 123.979" stroke="black" stroke-width="8" stroke-linecap="round"/>
<path d="M4.93628 48.8271L4.93628 125.448" stroke="black" stroke-width="8" stroke-linecap="round"/>
<path d="M138.351 4.97656L53.1614 4.97656" stroke="black" stroke-width="8" stroke-linecap="round"/>
<path d="M138.351 171.115H53.1614" stroke="black" stroke-width="8" stroke-linecap="round"/>
<path d="M63.9502 125.447L63.9502 51.1054" stroke="black" stroke-width="8" stroke-linecap="round"/>
<path d="M85.521 114.334L85.521 62.2181" stroke="black" stroke-width="8" stroke-linecap="round"/>
<path d="M107.092 102.825L107.092 73.7272" stroke="black" stroke-width="8" stroke-linecap="round"/>
<path d="M128.662 91.4883L128.662 85.0649" stroke="black" stroke-width="8" stroke-linecap="round"/>
</svg>
