<svg width="76" height="76" viewBox="0 0 76 76" fill="none" xmlns="http://www.w3.org/2000/svg">
<path d="M60.73 23.2122H26.04" stroke="#E0C7F5" stroke-width="4" stroke-linecap="round"/>
<path d="M60.73 37.0875H26.04" stroke="#E0C7F5" stroke-width="4" stroke-linecap="round"/>
<path d="M60.73 52.6989H26.04" stroke="#E0C7F5" stroke-width="4" stroke-linecap="round"/>
<path d="M15.6328 18.0081H13.8983" stroke="#E0C7F5" stroke-width="4" stroke-linecap="round"/>
<path d="M15.6328 26.6807H13.8983" stroke="#E0C7F5" stroke-width="4" stroke-linecap="round"/>
<path d="M19.1018 23.212L19.1018 21.4775" stroke="#E0C7F5" stroke-width="4" stroke-linecap="round"/>
<path d="M10.429 23.212L10.429 21.4775" stroke="#E0C7F5" stroke-width="4" stroke-linecap="round"/>
<path d="M15.6328 33.6193H13.8983" stroke="#E0C7F5" stroke-width="4" stroke-linecap="round"/>
<path d="M15.6328 42.2913H13.8983" stroke="#E0C7F5" stroke-width="4" stroke-linecap="round"/>
<path d="M19.1018 38.8226L19.1018 37.0881" stroke="#E0C7F5" stroke-width="4" stroke-linecap="round"/>
<path d="M10.429 38.8226L10.429 37.0881" stroke="#E0C7F5" stroke-width="4" stroke-linecap="round"/>
<path d="M15.6328 49.2295H13.8983" stroke="#E0C7F5" stroke-width="4" stroke-linecap="round"/>
<path d="M15.6328 57.9022H13.8983" stroke="#E0C7F5" stroke-width="4" stroke-linecap="round"/>
<path d="M19.1018 54.4329L19.1018 52.6984" stroke="#E0C7F5" stroke-width="4" stroke-linecap="round"/>
<path d="M10.429 54.4329L10.429 52.6984" stroke="#E0C7F5" stroke-width="4" stroke-linecap="round"/>
<path d="M65.959 2.33386L10.4296 2.33386" stroke="#E0C7F5" stroke-width="4" stroke-linecap="round"/>
<path d="M65.959 73.7285H10.4296" stroke="#E0C7F5" stroke-width="4" stroke-linecap="round"/>
<path d="M73.8916 65.7969L73.8916 10.2675" stroke="#DCC8F2" stroke-width="4" stroke-linecap="round"/>
<path d="M2.49609 65.7968L2.4961 10.2674" stroke="#E0C7F5" stroke-width="4" stroke-linecap="round"/>
</svg>
