<svg width="76" height="76" viewBox="0 0 76 76" fill="none" xmlns="http://www.w3.org/2000/svg">
<path d="M60.271 22.96H25.581" stroke="#008475" stroke-width="4" stroke-linecap="round"/>
<path d="M60.271 36.8354H25.581" stroke="#8631A7" stroke-width="4" stroke-linecap="round"/>
<path d="M60.271 52.4465H25.581" stroke="#008475" stroke-width="4" stroke-linecap="round"/>
<path d="M15.1738 17.7561H13.4393" stroke="#8631A7" stroke-width="4" stroke-linecap="round"/>
<path d="M15.1738 26.4287H13.4393" stroke="#8631A7" stroke-width="4" stroke-linecap="round"/>
<path d="M18.6428 22.96L18.6428 21.2255" stroke="#8631A7" stroke-width="4" stroke-linecap="round"/>
<path d="M9.96997 22.96L9.96997 21.2255" stroke="#8631A7" stroke-width="4" stroke-linecap="round"/>
<path d="M15.1738 33.3669H13.4393" stroke="#008475" stroke-width="4" stroke-linecap="round"/>
<path d="M15.1738 42.0391H13.4393" stroke="#008475" stroke-width="4" stroke-linecap="round"/>
<path d="M18.6428 38.5703L18.6428 36.8358" stroke="#008475" stroke-width="4" stroke-linecap="round"/>
<path d="M9.96997 38.5703L9.96997 36.8358" stroke="#008475" stroke-width="4" stroke-linecap="round"/>
<path d="M15.1738 48.9773H13.4393" stroke="#8631A7" stroke-width="4" stroke-linecap="round"/>
<path d="M15.1738 57.6499H13.4393" stroke="#8631A7" stroke-width="4" stroke-linecap="round"/>
<path d="M18.6428 54.1807L18.6428 52.4462" stroke="#8631A7" stroke-width="4" stroke-linecap="round"/>
<path d="M9.96997 54.1807L9.96997 52.4462" stroke="#8631A7" stroke-width="4" stroke-linecap="round"/>
<path d="M65.5 2.08179L9.97059 2.08179" stroke="#8631A7" stroke-width="4" stroke-linecap="round"/>
<path d="M65.5 73.4763H9.97059" stroke="#8631A7" stroke-width="4" stroke-linecap="round"/>
<path d="M73.4326 65.5447L73.4326 10.0153" stroke="#DCC8F2" stroke-width="4" stroke-linecap="round"/>
<path d="M2.03711 65.5447L2.03712 10.0153" stroke="#E0C7F5" stroke-width="4" stroke-linecap="round"/>
</svg>
