<svg width="72" height="72" viewBox="0 0 72 72" fill="none" xmlns="http://www.w3.org/2000/svg">
<path d="M1.49315 65.1067C1.88238 64.1705 2.92547 63.663 3.91698 63.9622C4.97414 64.2814 5.57282 65.397 5.2539 66.4543L5.09256 66.7659C6.04466 66.7107 6.9275 67.3437 7.15311 68.304C7.40559 69.3793 6.7382 70.4558 5.66288 70.7083L2.64529 71.4172C1.94972 71.5805 1.21947 71.3598 0.730253 70.8391C0.241247 70.3184 0.0668961 69.5758 0.273222 68.8918L1.42381 65.2991L1.49315 65.1067ZM16.8191 63.9807C17.8943 63.7283 18.9708 64.3948 19.2234 65.47C19.4759 66.5453 18.8085 67.6218 17.7332 67.8743L14.7156 68.5828L11.698 69.2913L11.4969 69.3284C10.4917 69.4592 9.53056 68.81 9.29374 67.802C9.04126 66.7267 9.70864 65.6502 10.784 65.3977L16.8191 63.9807ZM41.9021 63.7512C42.9973 63.6084 44.0014 64.3806 44.1443 65.4758C44.2872 66.571 43.5148 67.575 42.4197 67.718C41.152 67.8834 39.8627 67.978 38.5564 67.9993L37.9959 68.0042C37.1955 68.0042 36.4012 67.9768 35.6141 67.9221L34.8299 67.8577L34.6267 67.8284C33.6322 67.6331 32.9276 66.7129 33.0232 65.6819C33.1189 64.6506 33.9811 63.8751 34.9949 63.8665L35.199 63.8752L35.8914 63.9309C36.5864 63.9792 37.2881 64.0042 37.9959 64.0042L38.492 64.0002C39.6464 63.9815 40.7844 63.897 41.9021 63.7512ZM26.0213 61.8254C26.371 61.771 26.7303 61.8105 27.0613 61.9407C27.7088 62.1953 28.3673 62.4281 29.0359 62.6379L29.7078 62.8401L29.9021 62.9065C30.8428 63.284 31.3634 64.3206 31.0769 65.3157C30.7904 66.3108 29.7981 66.9115 28.8006 66.7307L28.6014 66.6838L27.8387 66.4543C27.2827 66.2799 26.7334 66.0899 26.1902 65.8879L23.7683 66.4573L23.5672 66.4944C22.562 66.6253 21.6009 65.976 21.364 64.968C21.1116 63.8927 21.779 62.8162 22.8543 62.5637L25.8719 61.8547L26.0213 61.8254ZM56.1902 57.8303C57.066 57.1574 58.3209 57.3217 58.9939 58.1975C59.667 59.0733 59.5026 60.3292 58.6267 61.0022C56.2957 62.7934 53.7243 64.2891 50.9685 65.4319L50.7752 65.5002C49.8044 65.7919 48.751 65.3072 48.3543 64.3508C47.9312 63.3305 48.416 62.1597 49.4363 61.7366L49.8894 61.5442C52.1473 60.5637 54.2616 59.3124 56.1902 57.8303ZM64.8816 54.7473C64.2086 55.6231 62.9528 55.7876 62.0769 55.1145C61.2012 54.4415 61.0369 53.1866 61.7097 52.3108L64.8816 54.7473ZM9.58963 43.4348C9.91918 44.4399 10.3 45.4221 10.7303 46.3772C10.9285 46.8173 10.9615 47.3145 10.8221 47.7766L9.92988 50.405L9.86055 50.5973C9.47131 51.5335 8.42823 52.041 7.43672 51.7419C6.37956 51.4226 5.78089 50.307 6.0998 49.2497L6.78006 47.3225C6.41469 46.4599 6.08313 45.5794 5.78885 44.6819L9.58963 43.4348ZM65.7039 45.3713C66.1848 44.479 67.2737 44.0782 68.2302 44.4749C69.2504 44.898 69.7344 46.0689 69.3113 47.0891L69.0926 47.6038C67.98 50.1654 66.5609 52.562 64.8816 54.7473L61.7097 52.3108C63.2906 50.2537 64.6088 47.9854 65.616 45.5569L65.7039 45.3713ZM7.0662 42.1575C8.11553 41.8137 9.24542 42.3856 9.58963 43.4348L5.78885 44.6819C5.44471 43.6323 6.01661 42.5016 7.0662 42.1575ZM67.8836 34.1165C67.8836 32.9572 67.8174 31.8142 67.6892 30.6907L67.6306 30.2102L67.615 30.0061C67.5862 28.9929 68.3285 28.102 69.3552 27.968C70.382 27.8341 71.3283 28.5047 71.5603 29.4915L71.5974 29.6926L71.6638 30.2375C71.8091 31.5111 71.8836 32.8055 71.8836 34.1165L71.8787 34.677C71.8575 35.9833 71.7628 37.2726 71.5974 38.5403C71.4544 39.6354 70.4504 40.4078 69.3552 40.2649C68.26 40.122 67.4879 39.1179 67.6306 38.0227C67.7765 36.905 67.8609 35.767 67.8797 34.6125L67.8836 34.1165ZM4.10818 34.1165C4.10818 32.6181 4.20535 31.1413 4.39432 29.6926C4.53732 28.5975 5.54131 27.8252 6.63651 27.968C7.73173 28.1109 8.5039 29.115 8.36111 30.2102C8.19447 31.4878 8.10819 32.7916 8.10819 34.1165L8.11893 34.9133C8.13971 35.7079 8.19074 36.4945 8.27225 37.2717L8.28397 37.4758C8.28738 38.4896 7.52193 39.361 6.49198 39.469C5.39349 39.5841 4.40991 38.7872 4.29471 37.6887L4.21365 36.8049C4.16716 36.2132 4.13558 35.6174 4.1199 35.0178L4.10818 34.1165ZM11.1101 13.4846C11.7832 12.609 13.0391 12.4446 13.9148 13.1174C14.7906 13.7904 14.9549 15.0463 14.282 15.9221C12.7012 17.9793 11.3829 20.2475 10.3758 22.676L10.2879 22.8616C9.80694 23.7539 8.71804 24.1547 7.76151 23.7581C6.74123 23.3349 6.25735 22.1641 6.68045 21.1438L6.8992 20.6292C8.01177 18.0673 9.43075 15.67 11.1101 13.4846ZM62.0769 13.1184C62.8981 12.4874 64.0531 12.5919 64.7488 13.3293L64.8816 13.4856L65.2136 13.925C66.7486 15.9909 68.0541 18.2381 69.0926 20.6292L69.3113 21.1438L69.3797 21.3372C69.6714 22.3079 69.1867 23.3614 68.2302 23.7581C67.2737 24.1547 66.1848 23.7539 65.7039 22.8616L65.616 22.676L65.4236 22.2229C64.5084 20.1156 63.3572 18.1337 62.0027 16.3108L61.7097 15.9221L61.5935 15.7542C61.0601 14.8921 61.2559 13.7495 62.0769 13.1184ZM25.2166 2.73169C26.1873 2.44018 27.2408 2.92567 27.6375 3.88208C28.0606 4.9024 27.5758 6.07323 26.5555 6.49634L26.1023 6.68872C23.8445 7.66924 21.7302 8.9205 19.8015 10.4026C18.9257 11.0755 17.6699 10.9112 16.9969 10.0354C16.3241 9.15964 16.4884 7.90373 17.364 7.23071C19.6952 5.43931 22.2673 3.94391 25.0232 2.80103L25.2166 2.73169ZM48.3543 3.88208C48.751 2.92567 49.8044 2.44099 50.7752 2.73267L50.9685 2.80103L51.4832 3.01978C53.8742 4.05818 56.1215 5.3638 58.1873 6.89868L58.6267 7.23071L58.783 7.36353C59.5204 8.05923 59.625 9.21424 58.9939 10.0354C58.3629 10.8565 57.2203 11.0523 56.3582 10.5188L56.1902 10.4026L55.8015 10.1096C53.9786 8.75519 51.9968 7.60389 49.8894 6.68872L49.4363 6.49634L49.2508 6.40845C48.3584 5.92751 47.9576 4.83861 48.3543 3.88208ZM38.5564 0.233643C39.6761 0.251838 40.7831 0.323986 41.8748 0.448486L42.4197 0.514893L42.6209 0.552002C43.6076 0.784047 44.2782 1.73029 44.1443 2.75708C44.0104 3.78387 43.1195 4.52614 42.1062 4.49731L41.9021 4.48169L41.4217 4.4231C40.4587 4.31328 39.4815 4.24876 38.492 4.23267L37.9959 4.22876C36.8366 4.22876 35.6936 4.29498 34.5701 4.4231L34.0896 4.48169C32.9944 4.62448 31.9903 3.8523 31.8475 2.75708C31.7046 1.66188 32.4769 0.657897 33.5721 0.514893L34.117 0.448486C35.3905 0.303266 36.6849 0.22876 37.9959 0.22876L38.5564 0.233643Z" fill="#8631A7"/>
</svg>
