<svg width="72" height="72" viewBox="0 0 72 72" fill="none" xmlns="http://www.w3.org/2000/svg">
<path d="M1.385 65.1067C1.77423 64.1705 2.81731 63.663 3.80883 63.9622C4.86598 64.2814 5.46466 65.397 5.14574 66.4543L4.98441 66.7659C5.93651 66.7107 6.81935 67.3437 7.04496 68.304C7.29743 69.3793 6.63005 70.4558 5.55472 70.7083L2.53714 71.4172C1.84157 71.5805 1.11131 71.3598 0.622099 70.8391C0.133093 70.3184 -0.0412582 69.5758 0.165068 68.8918L1.31566 65.2991L1.385 65.1067ZM16.711 63.9807C17.7862 63.7283 18.8627 64.3948 19.1153 65.47C19.3677 66.5453 18.7004 67.6218 17.625 67.8743L14.6075 68.5828L11.5899 69.2913L11.3887 69.3284C10.3835 69.4592 9.42241 68.81 9.18558 67.802C8.93311 66.7267 9.60049 65.6502 10.6758 65.3977L16.711 63.9807ZM41.794 63.7512C42.8892 63.6084 43.8933 64.3806 44.0362 65.4758C44.179 66.571 43.4067 67.575 42.3116 67.718C41.0439 67.8834 39.7546 67.978 38.4483 67.9993L37.8877 68.0042C37.0873 68.0042 36.293 67.9768 35.5059 67.9221L34.7217 67.8577L34.5186 67.8284C33.524 67.6331 32.8195 66.7129 32.9151 65.6819C33.0107 64.6506 33.8729 63.8751 34.8868 63.8665L35.0909 63.8752L35.7832 63.9309C36.4782 63.9792 37.1799 64.0042 37.8877 64.0042L38.3838 64.0002C39.5383 63.9815 40.6762 63.897 41.794 63.7512ZM25.9131 61.8254C26.2628 61.771 26.6221 61.8105 26.9532 61.9407C27.6006 62.1953 28.2591 62.4281 28.9278 62.6379L29.5996 62.8401L29.794 62.9065C30.7347 63.284 31.2553 64.3206 30.9688 65.3157C30.6822 66.3108 29.6899 66.9115 28.6924 66.7307L28.4932 66.6838L27.7305 66.4543C27.1745 66.2799 26.6253 66.0899 26.0821 65.8879L23.6602 66.4573L23.459 66.4944C22.4538 66.6253 21.4927 65.976 21.2559 64.968C21.0034 63.8927 21.6708 62.8162 22.7461 62.5637L25.7637 61.8547L25.9131 61.8254ZM56.0821 57.8303C56.9579 57.1574 58.2128 57.3217 58.8858 58.1975C59.5588 59.0733 59.3944 60.3292 58.5186 61.0022C56.1876 62.7934 53.6161 64.2891 50.8604 65.4319L50.667 65.5002C49.6963 65.7919 48.6429 65.3072 48.2461 64.3508C47.823 63.3305 48.3078 62.1597 49.3282 61.7366L49.7813 61.5442C52.0391 60.5637 54.1534 59.3124 56.0821 57.8303ZM64.7735 54.7473C64.1004 55.6231 62.8446 55.7876 61.9688 55.1145C61.093 54.4415 60.9287 53.1866 61.6016 52.3108L64.7735 54.7473ZM9.48148 43.4348C9.81102 44.4399 10.1919 45.4221 10.6221 46.3772C10.8203 46.8173 10.8533 47.3145 10.7139 47.7766L9.82173 50.405L9.75239 50.5973C9.36316 51.5335 8.32008 52.041 7.32856 51.7419C6.27141 51.4226 5.67273 50.307 5.99165 49.2497L6.67191 47.3225C6.30653 46.4599 5.97498 45.5794 5.6807 44.6819L9.48148 43.4348ZM65.5957 45.3713C66.0767 44.479 67.1656 44.0782 68.1221 44.4749C69.1423 44.898 69.6262 46.0689 69.2031 47.0891L68.9844 47.6038C67.8719 50.1654 66.4527 52.562 64.7735 54.7473L61.6016 52.3108C63.1824 50.2537 64.5007 47.9854 65.5078 45.5569L65.5957 45.3713ZM6.95804 42.1575C8.00737 41.8137 9.13726 42.3856 9.48148 43.4348L5.6807 44.6819C5.33656 43.6323 5.90845 42.5016 6.95804 42.1575ZM67.7754 34.1165C67.7754 32.9572 67.7092 31.8142 67.5811 30.6907L67.5225 30.2102L67.5069 30.0061C67.478 28.9929 68.2203 28.102 69.2471 27.968C70.2739 27.8341 71.2201 28.5047 71.4522 29.4915L71.4893 29.6926L71.5557 30.2375C71.7009 31.5111 71.7754 32.8055 71.7754 34.1165L71.7705 34.677C71.7493 35.9833 71.6546 37.2726 71.4893 38.5403C71.3463 39.6354 70.3423 40.4078 69.2471 40.2649C68.1519 40.122 67.3797 39.1179 67.5225 38.0227C67.6683 36.905 67.7527 35.767 67.7715 34.6125L67.7754 34.1165ZM4.00003 34.1165C4.00003 32.6181 4.0972 31.1413 4.28616 29.6926C4.42917 28.5975 5.43316 27.8252 6.52835 27.968C7.62357 28.1109 8.39575 29.115 8.25296 30.2102C8.08632 31.4878 8.00003 32.7916 8.00003 34.1165L8.01078 34.9133C8.03156 35.7079 8.08259 36.4945 8.16409 37.2717L8.17581 37.4758C8.17922 38.4896 7.41377 39.361 6.38382 39.469C5.28533 39.5841 4.30175 38.7872 4.18655 37.6887L4.1055 36.8049C4.059 36.2132 4.02743 35.6174 4.01175 35.0178L4.00003 34.1165ZM11.002 13.4846C11.675 12.609 12.9309 12.4446 13.8067 13.1174C14.6825 13.7904 14.8468 15.0463 14.1739 15.9221C12.593 17.9793 11.2747 20.2475 10.2676 22.676L10.1797 22.8616C9.69879 23.7539 8.60989 24.1547 7.65335 23.7581C6.63308 23.3349 6.1492 22.1641 6.5723 21.1438L6.79105 20.6292C7.90361 18.0673 9.32259 15.67 11.002 13.4846ZM61.9688 13.1184C62.7899 12.4874 63.9449 12.5919 64.6406 13.3293L64.7735 13.4856L65.1055 13.925C66.6404 15.9909 67.946 18.2381 68.9844 20.6292L69.2031 21.1438L69.2715 21.3372C69.5632 22.3079 69.0786 23.3614 68.1221 23.7581C67.1656 24.1547 66.0767 23.7539 65.5957 22.8616L65.5078 22.676L65.3155 22.2229C64.4003 20.1156 63.249 18.1337 61.8946 16.3108L61.6016 15.9221L61.4854 15.7542C60.9519 14.8921 61.1477 13.7495 61.9688 13.1184ZM25.1084 2.73169C26.0791 2.44018 27.1327 2.92567 27.5293 3.88208C27.9524 4.9024 27.4676 6.07323 26.4473 6.49634L25.9942 6.68872C23.7363 7.66924 21.622 8.9205 19.6934 10.4026C18.8176 11.0755 17.5617 10.9112 16.8887 10.0354C16.2159 9.15964 16.3803 7.90373 17.2559 7.23071C19.587 5.43931 22.1591 3.94391 24.9151 2.80103L25.1084 2.73169ZM48.2461 3.88208C48.6429 2.92567 49.6963 2.44099 50.667 2.73267L50.8604 2.80103L51.375 3.01978C53.7661 4.05818 56.0133 5.3638 58.0791 6.89868L58.5186 7.23071L58.6748 7.36353C59.4123 8.05923 59.5168 9.21424 58.8858 10.0354C58.2547 10.8565 57.1121 11.0523 56.25 10.5188L56.0821 10.4026L55.6934 10.1096C53.8704 8.75519 51.8886 7.60389 49.7813 6.68872L49.3282 6.49634L49.1426 6.40845C48.2503 5.92751 47.8495 4.83861 48.2461 3.88208ZM38.4483 0.233643C39.5679 0.251838 40.6749 0.323986 41.7666 0.448486L42.3116 0.514893L42.5127 0.552002C43.4995 0.784047 44.1701 1.73029 44.0362 2.75708C43.9022 3.78387 43.0113 4.52614 41.9981 4.49731L41.794 4.48169L41.3135 4.4231C40.3506 4.31328 39.3733 4.24876 38.3838 4.23267L37.8877 4.22876C36.7285 4.22876 35.5855 4.29498 34.462 4.4231L33.9815 4.48169C32.8863 4.62448 31.8822 3.8523 31.7393 2.75708C31.5964 1.66188 32.3688 0.657897 33.4639 0.514893L34.0088 0.448486C35.2824 0.303266 36.5767 0.22876 37.8877 0.22876L38.4483 0.233643Z" fill="#DCC8F2"/>
</svg>
