<svg width="79" height="76" viewBox="0 0 79 76" fill="none" xmlns="http://www.w3.org/2000/svg">
<path d="M76.6501 12.1007C73.1656 6.49309 57.9888 2.27246 39.7943 2.27246C21.5998 2.27246 6.42302 6.49309 2.93848 12.1007" stroke="#E0C7F5" stroke-width="4" stroke-linecap="round"/>
<path d="M2.93852 19.4721C6.30691 25.0797 20.9778 29.3003 38.5658 29.3003C56.1538 29.3003 70.8247 25.0797 74.1931 19.4721" stroke="#008475" stroke-width="4" stroke-linecap="round"/>
<path d="M2.93852 63.699C6.30691 69.3066 20.9778 73.5272 38.5658 73.5272C56.1538 73.5272 70.8247 69.3066 74.1931 63.699" stroke="#008475" stroke-width="4" stroke-linecap="round"/>
<path d="M2.93852 41.5852C6.30691 47.1928 20.9778 51.4134 38.5658 51.4134C56.1538 51.4135 70.8247 47.1928 74.1931 41.5852" stroke="#DCC8F2" stroke-width="4" stroke-linecap="round"/>
<path d="M76.6501 26.843V34.2143" stroke="#8631A7" stroke-width="4" stroke-linecap="round"/>
<path d="M76.6501 26.843V34.2143" stroke="#8631A7" stroke-width="4" stroke-linecap="round"/>
<path d="M2.93848 26.843V34.2143" stroke="#8631A7" stroke-width="4" stroke-linecap="round"/>
<path d="M76.6501 48.9562V56.3274" stroke="#8631A7" stroke-width="4" stroke-linecap="round"/>
<path d="M2.93848 48.9562V56.3274" stroke="#8631A7" stroke-width="4" stroke-linecap="round"/>
</svg>
