<svg width="79" height="76" viewBox="0 0 79 76" fill="none" xmlns="http://www.w3.org/2000/svg">
<path d="M76.1091 12.3531C72.6246 6.74553 57.4478 2.5249 39.2533 2.5249C21.0588 2.5249 5.88201 6.74553 2.39746 12.3531" stroke="#E0C7F5" stroke-width="4" stroke-linecap="round"/>
<path d="M2.3975 19.7245C5.7659 25.3321 20.4368 29.5528 38.0248 29.5528C55.6128 29.5528 70.2837 25.3321 73.6521 19.7246" stroke="#E0C7F5" stroke-width="4" stroke-linecap="round"/>
<path d="M2.3975 63.9515C5.7659 69.5591 20.4368 73.7797 38.0248 73.7797C55.6128 73.7797 70.2837 69.5591 73.6521 63.9515" stroke="#E0C7F5" stroke-width="4" stroke-linecap="round"/>
<path d="M2.3975 41.8377C5.7659 47.4453 20.4368 51.6659 38.0248 51.6659C55.6128 51.6659 70.2837 47.4453 73.6521 41.8377" stroke="#DCC8F2" stroke-width="4" stroke-linecap="round"/>
<path d="M76.1091 27.0955V34.4668" stroke="#E0C7F5" stroke-width="4" stroke-linecap="round"/>
<path d="M76.1091 27.0955V34.4668" stroke="#E0C7F5" stroke-width="4" stroke-linecap="round"/>
<path d="M2.39746 27.0955V34.4668" stroke="#E0C7F5" stroke-width="4" stroke-linecap="round"/>
<path d="M76.1091 49.2086V56.5799" stroke="#E0C7F5" stroke-width="4" stroke-linecap="round"/>
<path d="M2.39746 49.2086V56.5799" stroke="#E0C7F5" stroke-width="4" stroke-linecap="round"/>
</svg>
