<svg width="77" height="79" viewBox="0 0 77 79" fill="none" xmlns="http://www.w3.org/2000/svg">
<path d="M5.97443 57.2619L2.30974 52.8361M5.22172 47.5416L11.0959 48.689M28.687 69.2862L29.3118 74.8084M23.7525 77.191L20.6708 73.517" stroke="#E0C7F5" stroke-width="3.56276" stroke-linecap="round" stroke-linejoin="round"/>
<path d="M17.2193 46.0169L20.0463 41.7176M25.8703 43.0412L26.6829 48.2436" stroke="#E0C7F5" stroke-width="3.56276" stroke-linecap="round" stroke-linejoin="round"/>
<path d="M37.2534 60.778L32.3609 63.1627M31.0249 53.8105L36.724 54.954" stroke="#E0C7F5" stroke-width="3.56276" stroke-linecap="round" stroke-linejoin="round"/>
<path d="M13.6567 71.5127L7.8691 73.7493M3.8982 69.249L7.42191 63.8305" stroke="#E0C7F5" stroke-width="3.56276" stroke-linecap="round" stroke-linejoin="round"/>
<path d="M46.0557 11.1686L45.1691 5.28504M50.4636 2.37305L55.408 5.82447" stroke="#E0C7F5" stroke-width="3.56276" stroke-linecap="round" stroke-linejoin="round"/>
<path d="M45.3875 26.9785L40.139 25.9338M38.8154 20.1098L43.4947 16.8469" stroke="#E0C7F5" stroke-width="3.56276" stroke-linecap="round" stroke-linejoin="round"/>
<path d="M61.5312 6.26966L66.8764 3.96125M71.3767 7.93214L69.3247 14.1745" stroke="#E0C7F5" stroke-width="3.56276" stroke-linecap="round" stroke-linejoin="round"/>
<path d="M71.9061 29.3749L65.5393 29.3162M71.3287 20.0753L74.8181 23.8157" stroke="#E0C7F5" stroke-width="3.56276" stroke-linecap="round" stroke-linejoin="round"/>
<path d="M60.6406 31.9885L57.8758 37.3169M52.0518 36.7875L50.3977 30.7638" stroke="#E0C7F5" stroke-width="3.56276" stroke-linecap="round" stroke-linejoin="round"/>
</svg>
