<svg width="77" height="79" viewBox="0 0 77 79" fill="none" xmlns="http://www.w3.org/2000/svg">
<path d="M5.51544 57.0094L1.85075 52.5837M4.76274 47.2892L10.6369 48.4366M28.228 69.0338L28.8528 74.556M23.2935 76.9385L20.2118 73.2645" stroke="#E0C7F5" stroke-width="3.56276" stroke-linecap="round" stroke-linejoin="round"/>
<path d="M16.7603 45.7644L19.5873 41.4651M25.4113 42.7887L26.2239 47.9911" stroke="#008475" stroke-width="3.56276" stroke-linecap="round" stroke-linejoin="round"/>
<path d="M36.7944 60.5256L31.9019 62.9104M30.5659 53.5581L36.265 54.7016" stroke="#8631A7" stroke-width="3.56276" stroke-linecap="round" stroke-linejoin="round"/>
<path d="M13.1978 71.2603L7.41011 73.4969M3.43922 68.9966L6.96292 63.5781" stroke="#008475" stroke-width="3.56276" stroke-linecap="round" stroke-linejoin="round"/>
<path d="M45.5967 10.9162L44.7101 5.0326M50.0046 2.12061L54.949 5.57203" stroke="#E0C7F5" stroke-width="3.56276" stroke-linecap="round" stroke-linejoin="round"/>
<path d="M44.9285 26.7261L39.68 25.6814M38.3564 19.8574L43.0358 16.5945" stroke="#008475" stroke-width="3.56276" stroke-linecap="round" stroke-linejoin="round"/>
<path d="M61.0722 6.01727L66.4174 3.70886M70.9177 7.67976L68.8657 13.9221" stroke="#8631A7" stroke-width="3.56276" stroke-linecap="round" stroke-linejoin="round"/>
<path d="M71.4471 29.1225L65.0803 29.0638M70.8698 19.8229L74.3591 23.5632" stroke="#008475" stroke-width="3.56276" stroke-linecap="round" stroke-linejoin="round"/>
<path d="M60.1816 31.7361L57.4168 37.0645M51.5928 36.535L49.9387 30.5114" stroke="#E0C7F5" stroke-width="3.56276" stroke-linecap="round" stroke-linejoin="round"/>
</svg>
