<svg width="72" height="73" viewBox="0 0 72 73" fill="none" xmlns="http://www.w3.org/2000/svg">
<path d="M34.4336 49.9096C34.4336 50.9016 35.2396 51.7696 36.2316 51.8316C37.2856 51.8316 38.1536 51.0256 38.1536 49.9716V47.3676C38.1536 45.3836 39.2696 43.9576 42.7416 41.4776H42.8036L42.8617 41.4343C46.2668 38.8961 50.9256 35.4236 50.9256 28.3956C50.9256 21.9476 47.2676 16.7396 41.3156 14.8176C40.3236 14.5076 39.2696 15.0036 38.9596 15.9956C38.5876 16.9256 39.1456 17.9796 40.1376 18.2896C44.5396 19.7156 47.2056 23.4976 47.2056 28.3956C47.2056 33.2316 44.4776 35.6496 40.5716 38.5016C37.3476 40.7956 34.4336 43.2136 34.4336 47.3676V49.9096Z" fill="#E0C7F5"/>
<path d="M23.2738 25.4196C23.5218 25.5436 23.7698 25.5436 24.0178 25.5436C24.6998 25.5436 25.3818 25.1096 25.6918 24.4276C26.8698 21.5756 29.3498 19.3436 32.3258 18.2896C33.3178 17.9796 33.8138 16.9256 33.5038 15.9956C33.1318 15.0036 32.1398 14.5076 31.1478 14.8176C27.1178 16.1816 23.8938 19.1576 22.2818 23.0016C21.9098 23.9316 22.3438 25.0476 23.2738 25.4196Z" fill="#E0C7F5"/>
<path d="M59.2148 2.92358C64.3742 3.90475 68.4536 7.9339 69.5087 13.0667" stroke="#E0C7F5" stroke-width="4" stroke-linecap="round"/>
<path d="M2.64697 13.2175C3.62814 8.05817 7.65729 3.97875 12.79 2.92363" stroke="#E0C7F5" stroke-width="4" stroke-linecap="round"/>
<path d="M69.5088 59.4727C68.5276 64.632 64.4985 68.7114 59.3657 69.7666" stroke="#E0C7F5" stroke-width="4" stroke-linecap="round"/>
<path d="M12.79 69.7666C7.63068 68.7854 3.55126 64.7563 2.49614 59.6235" stroke="#E0C7F5" stroke-width="4" stroke-linecap="round"/>
<path d="M69.5088 20.6443L69.5088 51.8863" stroke="#E0C7F5" stroke-width="4" stroke-linecap="round"/>
<path d="M2.49609 20.2141L2.4961 51.4561" stroke="#E0C7F5" stroke-width="4" stroke-linecap="round"/>
<path d="M49.4951 2.33423L22.1603 2.33423" stroke="#E0C7F5" stroke-width="4" stroke-linecap="round"/>
<path d="M49.4951 70.0771H22.1603" stroke="#E0C7F5" stroke-width="4" stroke-linecap="round"/>
<path d="M36.2321 58.2796C37.2861 58.2796 38.0921 57.4116 38.0921 56.4196C38.0921 55.3656 37.2861 54.5596 36.2321 54.5596C35.2401 54.5596 34.3721 55.3656 34.3721 56.4196C34.3721 57.4116 35.2401 58.2796 36.2321 58.2796Z" fill="#E0C7F5"/>
<path d="M36.2316 18.1035C37.3476 18.1035 38.1536 17.2975 38.1536 16.2435C38.1536 15.1895 37.3476 14.3215 36.2316 14.3215C35.1776 14.3215 34.3096 15.1895 34.3096 16.2435C34.3096 17.2975 35.1776 18.1035 36.2316 18.1035Z" fill="#E0C7F5"/>
</svg>
