<svg width="72" height="72" viewBox="0 0 72 72" fill="none" xmlns="http://www.w3.org/2000/svg">
<path d="M33.9746 49.6574C33.9746 50.6494 34.7806 51.5174 35.7726 51.5794C36.8266 51.5794 37.6946 50.7734 37.6946 49.7194V47.1154C37.6946 45.1314 38.8106 43.7054 42.2826 41.2254H42.3446L42.4027 41.1821C45.8078 38.6439 50.4666 35.1714 50.4666 28.1434C50.4666 21.6954 46.8086 16.4874 40.8566 14.5654C39.8646 14.2554 38.8106 14.7514 38.5006 15.7434C38.1286 16.6734 38.6866 17.7274 39.6786 18.0374C44.0806 19.4634 46.7466 23.2454 46.7466 28.1434C46.7466 32.9794 44.0186 35.3974 40.1126 38.2494C36.8886 40.5434 33.9746 42.9614 33.9746 47.1154V49.6574Z" fill="#E0C7F5"/>
<path d="M22.8148 25.1674C23.0628 25.2914 23.3108 25.2914 23.5588 25.2914C24.2408 25.2914 24.9228 24.8574 25.2328 24.1754C26.4108 21.3234 28.8908 19.0914 31.8668 18.0374C32.8588 17.7274 33.3548 16.6734 33.0448 15.7434C32.6728 14.7514 31.6808 14.2554 30.6888 14.5654C26.6588 15.9294 23.4348 18.9054 21.8228 22.7494C21.4508 23.6794 21.8848 24.7954 22.8148 25.1674Z" fill="#008475"/>
<path d="M58.7559 2.67139C63.9152 3.65255 67.9946 7.6817 69.0498 12.8145" stroke="#8631A7" stroke-width="4" stroke-linecap="round"/>
<path d="M2.18799 12.9653C3.16915 7.80598 7.1983 3.72655 12.3311 2.67143" stroke="#8631A7" stroke-width="4" stroke-linecap="round"/>
<path d="M69.0498 59.2205C68.0686 64.3798 64.0395 68.4592 58.9067 69.5144" stroke="#8631A7" stroke-width="4" stroke-linecap="round"/>
<path d="M12.3311 69.5144C7.1717 68.5332 3.09227 64.5041 2.03715 59.3713" stroke="#8631A7" stroke-width="4" stroke-linecap="round"/>
<path d="M69.0498 20.3921L69.0498 51.6341" stroke="#E0C7F5" stroke-width="4" stroke-linecap="round"/>
<path d="M2.03711 19.9619L2.03711 51.2039" stroke="#E0C7F5" stroke-width="4" stroke-linecap="round"/>
<path d="M49.0361 2.08203L21.7013 2.08203" stroke="#008475" stroke-width="4" stroke-linecap="round"/>
<path d="M49.0361 69.825H21.7013" stroke="#008475" stroke-width="4" stroke-linecap="round"/>
<path d="M35.7731 58.0274C36.8271 58.0274 37.6331 57.1594 37.6331 56.1674C37.6331 55.1134 36.8271 54.3074 35.7731 54.3074C34.7811 54.3074 33.9131 55.1134 33.9131 56.1674C33.9131 57.1594 34.7811 58.0274 35.7731 58.0274Z" fill="#008475"/>
<path d="M35.7726 17.8513C36.8886 17.8513 37.6946 17.0453 37.6946 15.9913C37.6946 14.9373 36.8886 14.0693 35.7726 14.0693C34.7186 14.0693 33.8506 14.9373 33.8506 15.9913C33.8506 17.0453 34.7186 17.8513 35.7726 17.8513Z" fill="#8631A7"/>
</svg>
