<svg width="79" height="76" viewBox="0 0 79 76" fill="none" xmlns="http://www.w3.org/2000/svg">
<path d="M17.2283 45.6862L11.253 39.7109L2.33594 30.7938" stroke="#8631A7" stroke-width="4" stroke-linecap="round" stroke-linejoin="round"/>
<path d="M47.0139 48.8552L47.0139 40.3296L47.0139 27.6068" stroke="#008475" stroke-width="4" stroke-linecap="round" stroke-linejoin="round"/>
<path d="M58.4994 45.6862L64.4748 39.7109L73.3918 30.7938" stroke="#E0C7F5" stroke-width="4" stroke-linecap="round" stroke-linejoin="round"/>
<path d="M17.6914 38.2307L26.3875 38.2307L39.3647 38.2307" stroke="#008475" stroke-width="4" stroke-linecap="round" stroke-linejoin="round"/>
<path d="M36.8148 13.158L45.1698 13.158L57.6382 13.158" stroke="#008475" stroke-width="4" stroke-linecap="round" stroke-linejoin="round"/>
<path d="M73.3905 20.4658L67.4151 14.4904L58.498 5.57336" stroke="#8631A7" stroke-width="4" stroke-linecap="round" stroke-linejoin="round"/>
<path d="M35.95 5.57365L29.9747 11.549L21.0576 20.4661" stroke="#E0C7F5" stroke-width="4" stroke-linecap="round" stroke-linejoin="round"/>
<path d="M54.672 70.9082L48.6966 64.9328L39.7795 56.0157" stroke="#8631A7" stroke-width="4" stroke-linecap="round" stroke-linejoin="round"/>
<path d="M55.5133 63.304L64.0389 63.304L76.7617 63.304" stroke="#008475" stroke-width="4" stroke-linecap="round" stroke-linejoin="round"/>
<path d="M28.3154 73.9283L28.3154 65.5732L28.3154 53.1049" stroke="#008475" stroke-width="4" stroke-linecap="round" stroke-linejoin="round"/>
<path d="M2.33733 70.9082L8.31268 64.9328L17.2297 56.0157" stroke="#E0C7F5" stroke-width="4" stroke-linecap="round" stroke-linejoin="round"/>
<path d="M9.61694 23.3571L9.61694 15.002L9.61694 2.53369" stroke="#008475" stroke-width="4" stroke-linecap="round" stroke-linejoin="round"/>
</svg>
