<svg width="80" height="77" viewBox="0 0 80 77" fill="none" xmlns="http://www.w3.org/2000/svg">
<path d="M17.6873 45.9387L11.712 39.9634L2.79492 31.0463" stroke="#E0C7F5" stroke-width="4" stroke-linecap="round" stroke-linejoin="round"/>
<path d="M47.4729 49.1077L47.4729 40.5821L47.4729 27.8593" stroke="#E0C7F5" stroke-width="4" stroke-linecap="round" stroke-linejoin="round"/>
<path d="M58.9584 45.9387L64.9338 39.9634L73.8508 31.0463" stroke="#E0C7F5" stroke-width="4" stroke-linecap="round" stroke-linejoin="round"/>
<path d="M18.1504 38.4832L26.8465 38.4832L39.8237 38.4832" stroke="#E0C7F5" stroke-width="4" stroke-linecap="round" stroke-linejoin="round"/>
<path d="M37.2738 13.4105L45.6288 13.4105L58.0972 13.4105" stroke="#E0C7F5" stroke-width="4" stroke-linecap="round" stroke-linejoin="round"/>
<path d="M73.8494 20.7182L67.8741 14.7429L58.957 5.82584" stroke="#E0C7F5" stroke-width="4" stroke-linecap="round" stroke-linejoin="round"/>
<path d="M36.409 5.8261L30.4337 11.8014L21.5166 20.7185" stroke="#E0C7F5" stroke-width="4" stroke-linecap="round" stroke-linejoin="round"/>
<path d="M55.1309 71.1606L49.1556 65.1853L40.2385 56.2682" stroke="#E0C7F5" stroke-width="4" stroke-linecap="round" stroke-linejoin="round"/>
<path d="M55.9723 63.5563L64.4979 63.5563L77.2207 63.5563" stroke="#E0C7F5" stroke-width="4" stroke-linecap="round" stroke-linejoin="round"/>
<path d="M28.7744 74.1807L28.7744 65.8257L28.7744 53.3573" stroke="#E0C7F5" stroke-width="4" stroke-linecap="round" stroke-linejoin="round"/>
<path d="M2.79631 71.1606L8.77166 65.1853L17.6887 56.2682" stroke="#E0C7F5" stroke-width="4" stroke-linecap="round" stroke-linejoin="round"/>
<path d="M10.0759 23.6095L10.0759 15.2545L10.0759 2.78613" stroke="#E0C7F5" stroke-width="4" stroke-linecap="round" stroke-linejoin="round"/>
</svg>
