<svg width="88" height="78" viewBox="0 0 88 78" fill="none" xmlns="http://www.w3.org/2000/svg">
<path d="M74.4607 47.126C79.9791 48.1754 84.3425 52.485 85.471 57.975" stroke="#008475" stroke-width="4" stroke-linecap="round"/>
<path d="M58.0371 58.0923C59.0866 52.5739 63.3961 48.2105 68.8861 47.082" stroke="#008475" stroke-width="4" stroke-linecap="round"/>
<path d="M85.511 64.2424C84.4615 69.7609 80.152 74.1242 74.662 75.2528" stroke="#008475" stroke-width="4" stroke-linecap="round"/>
<path d="M69.0474 75.1587C63.5289 74.1092 59.1656 69.7997 58.037 64.3097" stroke="#008475" stroke-width="4" stroke-linecap="round"/>
<path d="M18.4607 46.126C23.9791 47.1754 28.3425 51.485 29.471 56.975" stroke="#E0C7F5" stroke-width="4" stroke-linecap="round"/>
<path d="M2.03711 57.0923C3.08656 51.5739 7.39613 47.2105 12.8861 46.082" stroke="#E0C7F5" stroke-width="4" stroke-linecap="round"/>
<path d="M29.511 63.2424C28.4615 68.7609 24.152 73.1242 18.662 74.2528" stroke="#E0C7F5" stroke-width="4" stroke-linecap="round"/>
<path d="M13.0474 74.1587C7.52893 73.1092 3.16559 68.7997 2.03704 63.3097" stroke="#E0C7F5" stroke-width="4" stroke-linecap="round"/>
<path d="M46.4607 2.12598C51.9791 3.17543 56.3425 7.48499 57.471 12.975" stroke="#8631A7" stroke-width="4" stroke-linecap="round"/>
<path d="M30.0371 13.0923C31.0866 7.57385 35.3961 3.21051 40.8861 2.08196" stroke="#8631A7" stroke-width="4" stroke-linecap="round"/>
<path d="M57.511 19.2424C56.4615 24.7609 52.152 29.1242 46.662 30.2528" stroke="#8631A7" stroke-width="4" stroke-linecap="round"/>
<path d="M41.0474 30.1587C35.5289 29.1092 31.1656 24.7997 30.037 19.3097" stroke="#8631A7" stroke-width="4" stroke-linecap="round"/>
<path d="M38.5371 61.0818H50.5371" stroke="#8631A7" stroke-width="4" stroke-linecap="round"/>
<path d="M61.0371 30.0818L69.5224 38.5671" stroke="#E0C7F5" stroke-width="4" stroke-linecap="round"/>
<path d="M27.5225 30.0818L19.0372 38.5671" stroke="#008475" stroke-width="4" stroke-linecap="round"/>
</svg>
