<svg width="88" height="78" viewBox="0 0 88 78" fill="none" xmlns="http://www.w3.org/2000/svg">
<path d="M74.9197 47.3781C80.4381 48.4275 84.8015 52.7371 85.93 58.2271" stroke="#E0C7F5" stroke-width="4" stroke-linecap="round"/>
<path d="M58.4961 58.3444C59.5455 52.8259 63.8551 48.4626 69.3451 47.334" stroke="#E0C7F5" stroke-width="4" stroke-linecap="round"/>
<path d="M85.97 64.4947C84.9205 70.0131 80.611 74.3765 75.121 75.505" stroke="#E0C7F5" stroke-width="4" stroke-linecap="round"/>
<path d="M69.5063 75.4109C63.9879 74.3614 59.6246 70.0519 58.496 64.5619" stroke="#E0C7F5" stroke-width="4" stroke-linecap="round"/>
<path d="M18.9197 46.3781C24.4381 47.4275 28.8015 51.7371 29.93 57.2271" stroke="#E0C7F5" stroke-width="4" stroke-linecap="round"/>
<path d="M2.49609 57.3444C3.54554 51.8259 7.85511 47.4626 13.3451 46.334" stroke="#E0C7F5" stroke-width="4" stroke-linecap="round"/>
<path d="M29.97 63.4947C28.9205 69.0131 24.611 73.3765 19.121 74.505" stroke="#E0C7F5" stroke-width="4" stroke-linecap="round"/>
<path d="M13.5063 74.4109C7.98792 73.3614 3.62458 69.0519 2.49602 63.5619" stroke="#E0C7F5" stroke-width="4" stroke-linecap="round"/>
<path d="M46.9197 2.37805C52.4381 3.4275 56.8015 7.73707 57.93 13.2271" stroke="#E0C7F5" stroke-width="4" stroke-linecap="round"/>
<path d="M30.4961 13.3444C31.5455 7.82593 35.8551 3.46259 41.3451 2.33403" stroke="#E0C7F5" stroke-width="4" stroke-linecap="round"/>
<path d="M57.97 19.4947C56.9205 25.0131 52.611 29.3765 47.121 30.505" stroke="#E0C7F5" stroke-width="4" stroke-linecap="round"/>
<path d="M41.5063 30.4109C35.9879 29.3614 31.6246 25.0519 30.496 19.5619" stroke="#E0C7F5" stroke-width="4" stroke-linecap="round"/>
<path d="M38.9961 61.334H50.9961" stroke="#E0C7F5" stroke-width="4" stroke-linecap="round"/>
<path d="M61.4961 30.334L69.9814 38.8193" stroke="#E0C7F5" stroke-width="4" stroke-linecap="round"/>
<path d="M27.9814 30.334L19.4962 38.8193" stroke="#E0C7F5" stroke-width="4" stroke-linecap="round"/>
</svg>
