<svg xmlns="http://www.w3.org/2000/svg" width="166" height="188" viewBox="0 0 166 188" fill="none">
    <path d="M107.574 45.05L122.454 72.1391" stroke="black" stroke-width="4" stroke-linecap="round"/>
    <path d="M134.128 75.2712L160.56 59.2518" stroke="black" stroke-width="4" stroke-linecap="round"/>
    <path d="M132.768 61.425C136.429 45.3375 133.705 28.1582 125.498 13.9442C124.029 11.3993 122.388 8.95356 120.572 6.62296" stroke="black" stroke-width="4" stroke-linecap="round"/>
    <path d="M74.8126 84.425C73.7912 84.4577 72.8155 85.0362 72.3402 86.0357C71.6599 87.4663 72.3306 89.2155 73.7789 89.8806C75.2263 90.5456 76.949 89.9155 77.5686 88.4559C78.1842 87.0055 77.4877 85.3244 76.0955 84.6852C75.7474 84.5255 75.3817 84.4414 75.0172 84.4274C74.9488 84.4246 74.8809 84.424 74.8126 84.425Z" fill="black"/>
    <path d="M92.3126 81.425C91.2912 81.4577 90.3155 82.0362 89.8402 83.0357C89.1599 84.4663 89.8306 86.2155 91.2789 86.8806C92.7263 87.5456 94.449 86.9155 95.0686 85.4559C95.6842 84.0055 94.9877 82.3244 93.5955 81.6852C93.2474 81.5255 92.8817 81.4414 92.5172 81.4274C92.4488 81.4246 92.3809 81.424 92.3126 81.425Z" fill="black"/>
    <path d="M110.313 86.425C109.291 86.4577 108.316 87.0362 107.84 88.0357C107.16 89.4663 107.831 91.2155 109.279 91.8806C110.726 92.5456 112.449 91.9155 113.069 90.4559C113.684 89.0055 112.988 87.3244 111.595 86.6852C111.247 86.5255 110.882 86.4414 110.517 86.4274C110.449 86.4246 110.381 86.424 110.313 86.425Z" fill="black"/>
    <path d="M130.635 125.395C130.359 125.395 130.08 125.436 129.806 125.52C128.342 125.97 127.437 127.549 127.862 129.071C128.29 130.602 129.911 131.453 131.422 130.99C132.933 130.526 133.827 128.89 133.348 127.375C132.99 126.244 131.999 125.513 130.909 125.408C130.818 125.398 130.727 125.395 130.635 125.395Z" fill="black"/>
    <path d="M118.635 135.895C118.359 135.895 118.08 135.936 117.806 136.02C116.342 136.47 115.437 138.049 115.862 139.571C116.29 141.102 117.911 141.953 119.422 141.49C120.933 141.026 121.827 139.39 121.348 137.875C120.99 136.744 119.999 136.013 118.909 135.908C118.818 135.898 118.727 135.895 118.635 135.895Z" fill="black"/>
    <path d="M90.135 148.645C89.8592 148.645 89.5801 148.686 89.3056 148.77C87.842 149.22 86.9369 150.799 87.3623 152.321C87.7901 153.852 89.4113 154.703 90.9223 154.24C92.4331 153.776 93.3272 152.14 92.8476 150.625C92.4896 149.494 91.4994 148.763 90.4092 148.658C90.3181 148.648 90.227 148.645 90.135 148.645Z" fill="black"/>
    <path d="M81.135 139.145C80.8592 139.145 80.5801 139.186 80.3056 139.27C78.842 139.72 77.9369 141.299 78.3623 142.821C78.7901 144.352 80.4113 145.203 81.9223 144.74C83.4331 144.276 84.3272 142.64 83.8476 141.125C83.4896 139.994 82.4994 139.263 81.4092 139.158C81.3181 139.148 81.227 139.145 81.135 139.145Z" fill="black"/>
    <path d="M72.635 126.645C72.3592 126.645 72.0801 126.686 71.8056 126.77C70.342 127.22 69.4369 128.799 69.8623 130.321C70.2901 131.852 71.9113 132.703 73.4223 132.24C74.9331 131.776 75.8272 130.14 75.3476 128.625C74.9896 127.494 73.9994 126.763 72.9092 126.658C72.8181 126.648 72.727 126.645 72.635 126.645Z" fill="black"/>
    <path d="M68.635 112.895C68.3592 112.895 68.0801 112.936 67.8056 113.02C66.342 113.47 65.4369 115.049 65.8623 116.571C66.2901 118.102 67.9113 118.953 69.4223 118.49C70.9331 118.026 71.8272 116.39 71.3476 114.875C70.9896 113.744 69.9994 113.013 68.9092 112.908C68.8181 112.898 68.727 112.895 68.635 112.895Z" fill="black"/>
    <path d="M71.135 98.3953C70.8592 98.3953 70.5801 98.4362 70.3056 98.5204C68.842 98.9702 67.9369 100.549 68.3623 102.071C68.7901 103.602 70.4113 104.453 71.9223 103.99C73.4331 103.526 74.3272 101.89 73.8476 100.375C73.4896 99.2442 72.4994 98.5129 71.4092 98.4081C71.3181 98.3982 71.227 98.3953 71.135 98.3953Z" fill="black"/>
    <path d="M86.885 94.1453C86.6092 94.1453 86.3301 94.1862 86.0556 94.2704C84.592 94.7202 83.6869 96.2985 84.1123 97.8213C84.5401 99.3521 86.1613 100.203 87.6723 99.7395C89.1831 99.2759 90.0772 97.6396 89.5976 96.1247C89.2396 94.9942 88.2494 94.2629 87.1592 94.1581C87.0681 94.1482 86.977 94.1453 86.885 94.1453Z" fill="black"/>
    <path d="M100.385 93.6453C100.109 93.6453 99.8301 93.6862 99.5556 93.7704C98.092 94.2202 97.1869 95.7985 97.6123 97.3213C98.0401 98.8521 99.6613 99.7032 101.172 99.2395C102.683 98.7759 103.577 97.1396 103.098 95.6247C102.74 94.4942 101.749 93.7629 100.659 93.6581C100.568 93.6482 100.477 93.6453 100.385 93.6453Z" fill="black"/>
    <path d="M120.135 96.8953C119.859 96.8953 119.58 96.9362 119.306 97.0204C117.842 97.4702 116.937 99.0485 117.362 100.571C117.79 102.102 119.411 102.953 120.922 102.49C122.433 102.026 123.327 100.39 122.848 98.8747C122.49 97.7442 121.499 97.0129 120.409 96.9081C120.318 96.8982 120.227 96.8953 120.135 96.8953Z" fill="black"/>
    <path d="M128.385 108.145C128.109 108.145 127.83 108.186 127.556 108.27C126.092 108.72 125.187 110.299 125.612 111.821C126.04 113.352 127.661 114.203 129.172 113.74C130.683 113.276 131.577 111.64 131.098 110.125C130.74 108.994 129.749 108.263 128.659 108.158C128.568 108.148 128.477 108.145 128.385 108.145Z" fill="black"/>
    <path d="M117.885 118.895C117.609 118.895 117.33 118.936 117.056 119.02C115.592 119.47 114.687 121.049 115.112 122.571C115.54 124.102 117.161 124.953 118.672 124.49C120.183 124.026 121.077 122.39 120.598 120.875C120.24 119.744 119.249 119.013 118.159 118.908C118.068 118.898 117.977 118.895 117.885 118.895Z" fill="black"/>
    <path d="M108.385 127.895C108.109 127.895 107.83 127.936 107.556 128.02C106.092 128.47 105.187 130.049 105.612 131.571C106.04 133.102 107.661 133.953 109.172 133.49C110.683 133.026 111.577 131.39 111.098 129.875C110.74 128.744 109.749 128.013 108.659 127.908C108.568 127.898 108.477 127.895 108.385 127.895Z" fill="black"/>
    <path d="M94.385 132.895C94.1092 132.895 93.8301 132.936 93.5556 133.02C92.092 133.47 91.1869 135.049 91.6123 136.571C92.0401 138.102 93.6613 138.953 95.1723 138.49C96.6831 138.026 97.5772 136.39 97.0976 134.875C96.7396 133.744 95.7494 133.013 94.6592 132.908C94.5681 132.898 94.477 132.895 94.385 132.895Z" fill="black"/>
    <path d="M103.135 144.145C102.859 144.145 102.58 144.186 102.306 144.27C100.842 144.72 99.9369 146.299 100.362 147.821C100.79 149.352 102.411 150.203 103.922 149.74C105.433 149.276 106.327 147.64 105.848 146.125C105.49 144.994 104.499 144.263 103.409 144.158C103.318 144.148 103.227 144.145 103.135 144.145Z" fill="black"/>
    <path d="M87.135 121.895C86.8592 121.895 86.5801 121.936 86.3056 122.02C84.842 122.47 83.9369 124.049 84.3623 125.571C84.7901 127.102 86.4113 127.953 87.9223 127.49C89.4331 127.026 90.3272 125.39 89.8476 123.875C89.4896 122.744 88.4994 122.013 87.4092 121.908C87.3181 121.898 87.227 121.895 87.135 121.895Z" fill="black"/>
    <path d="M83.885 108.145C83.6092 108.145 83.3301 108.186 83.0556 108.27C81.592 108.72 80.6869 110.299 81.1123 111.821C81.5401 113.352 83.1613 114.203 84.6723 113.74C86.1831 113.276 87.0772 111.64 86.5976 110.125C86.2396 108.994 85.2494 108.263 84.1592 108.158C84.0681 108.148 83.977 108.145 83.885 108.145Z" fill="black"/>
    <path d="M98.385 107.645C98.1092 107.645 97.8301 107.686 97.5556 107.77C96.092 108.22 95.1869 109.799 95.6123 111.321C96.0401 112.852 97.6613 113.703 99.1723 113.24C100.683 112.776 101.577 111.14 101.098 109.625C100.74 108.494 99.7494 107.763 98.6592 107.658C98.5681 107.648 98.477 107.645 98.385 107.645Z" fill="black"/>
    <path d="M113.135 107.895C112.859 107.895 112.58 107.936 112.306 108.02C110.842 108.47 109.937 110.049 110.362 111.571C110.79 113.102 112.411 113.953 113.922 113.49C115.433 113.026 116.327 111.39 115.848 109.875C115.49 108.744 114.499 108.013 113.409 107.908C113.318 107.898 113.227 107.895 113.135 107.895Z" fill="black"/>
    <path d="M100.635 118.895C100.359 118.895 100.08 118.936 99.8056 119.02C98.342 119.47 97.4369 121.049 97.8623 122.571C98.2901 124.102 99.9113 124.953 101.422 124.49C102.933 124.026 103.827 122.39 103.348 120.875C102.99 119.744 101.999 119.013 100.909 118.908C100.818 118.898 100.727 118.895 100.635 118.895Z" fill="black"/>
    <path d="M127.481 86.2216C127.296 86.2197 127.109 86.238 126.922 86.2744C125.427 86.5691 124.37 88.0404 124.636 89.6017C124.903 91.1723 126.43 92.1927 127.981 91.8884C129.531 91.5841 130.583 90.0471 130.256 88.4877C129.971 87.1309 128.777 86.2286 127.481 86.2216Z" fill="black"/>
    <path d="M141.224 114.01C141.177 114.011 141.13 114.013 141.082 114.02C139.568 114.136 138.353 115.466 138.437 117.049C138.521 118.643 139.927 119.843 141.503 119.722C143.078 119.6 144.292 118.196 144.14 116.608C143.999 115.129 142.766 114.046 141.364 114.012C141.318 114.011 141.271 114.009 141.224 114.01Z" fill="black"/>
    <path d="M139.139 97.5096C139.092 97.5093 139.046 97.51 138.999 97.5118C137.601 97.5765 136.391 98.6854 136.279 100.168C136.158 101.76 137.403 103.139 138.983 103.226C140.563 103.313 141.943 102.079 141.99 100.482C142.036 98.8966 140.794 97.5964 139.281 97.5139C139.233 97.5111 139.186 97.5096 139.139 97.5096Z" fill="black"/>
    <path d="M136.638 138.025L155.989 132.087M157.638 124.525L145.476 81.119" stroke="black" stroke-width="4" stroke-linecap="round"/>
    <path d="M63.1514 94.5067L44.1077 86.1267C36.6694 83.5801 32.2111 80.3712 31.3043 76.9869C30.9487 75.6598 31.0904 74.2248 31.7443 72.6081C33.0422 69.3965 38.1714 67.1003 43.4586 68.9339C46.6923 70.0537 49.512 71.1926 52.0029 72.1979C60.8994 75.7888 67.3259 78.3816 79.4563 75.1313C93.2572 71.4333 104.459 73.2249 114.325 80.7947" stroke="black" stroke-width="4" stroke-linecap="round"/>
    <path d="M62.0332 100.366L11.4656 101.874C8.73295 101.954 4.13995 102.735 4.0474 107.093C4.03369 107.724 4.10128 108.318 4.24463 108.853C5.16492 112.287 9.22667 113.087 11.5014 113.25L53.2218 115.38" stroke="black" stroke-width="4" stroke-linecap="round"/>
    <path d="M53.8671 121.391L6.41575 134.105C3.23763 134.957 1.35033 138.25 2.20647 141.445C3.06181 144.638 6.34222 146.543 9.52034 145.692L59.6324 132.264" stroke="black" stroke-width="4" stroke-linecap="round"/>
    <path d="M62.056 137.807L27.3989 159.769C25.4438 161.069 22.2626 163.625 22.9357 166.138C23.0062 166.401 23.1168 166.672 23.2591 166.944C24.866 170.002 29.5391 167.932 30.4586 167.483L67.5032 149.552" stroke="black" stroke-width="4" stroke-linecap="round"/>
    <path d="M70.9035 154.551L47.9388 175.954C44.6494 179.107 42.9622 182.03 43.4294 183.774C43.5253 184.132 43.7218 184.466 44.033 184.804C45.7287 186.64 50.3485 183.995 53.6746 181.85L76.1724 167.3C78.3371 165.912 80.5671 164.744 84.4607 163.552L101.388 158.531C113.666 154.91 121.349 152.641 128.793 141.883" stroke="black" stroke-width="4" stroke-linecap="round"/>
</svg>
