<svg xmlns="http://www.w3.org/2000/svg" width="197" height="158" viewBox="0 0 197 158" fill="none">
    <path d="M87.5068 62.5976C88.1129 61.6742 87.8558 60.4343 86.9324 59.8281C86.009 59.2219 84.7691 59.479 84.1629 60.4024L85.8348 61.5L87.5068 62.5976ZM73.2314 80.6986L74.897 81.8059L74.9033 81.7962L73.2314 80.6986ZM77.1706 89.6311L76.9994 91.6238L77.0001 91.6238L77.1706 89.6311ZM88.1689 92.5798C89.2695 92.674 90.238 91.8582 90.3322 90.7577C90.4264 89.6572 89.6106 88.6886 88.5101 88.5944L88.3395 90.5871L88.1689 92.5798ZM114.971 96.0841L114.857 94.0873H114.857L114.971 96.0841ZM124.053 96.0115L124.157 94.0142H124.157L124.053 96.0115ZM144.043 103.48L142.618 104.883L142.618 104.883L144.043 103.48ZM152.6 132.885L150.601 132.937V132.937L152.6 132.885ZM150.103 155.901C150.049 157.004 150.899 157.943 152.002 157.998C153.105 158.052 154.044 157.202 154.098 156.099L152.101 156L150.103 155.901ZM174.248 156.023C174.261 157.127 175.166 158.013 176.271 158C177.375 157.987 178.26 157.082 178.248 155.977L176.248 156L174.248 156.023ZM171.996 110.49C171.134 111.182 170.997 112.441 171.688 113.302C172.38 114.163 173.638 114.301 174.5 113.61L173.248 112.05L171.996 110.49ZM139.651 155.9C139.596 157.004 140.446 157.942 141.549 157.998C142.652 158.053 143.591 157.203 143.646 156.1L141.649 156L139.651 155.9ZM142.178 133.154L140.179 133.206V133.206L142.178 133.154ZM136.613 110.791L135.187 112.194L135.187 112.194L136.613 110.791ZM119.708 106.348L119.688 104.348L119.688 104.348L119.708 106.348ZM115.568 106.493L115.455 104.497L115.455 104.497L115.568 106.493ZM114.328 155.959C114.306 157.064 115.183 157.977 116.287 158C117.392 158.022 118.305 157.145 118.327 156.041L116.328 156L114.328 155.959ZM91.11 97.4882C90.0187 97.659 89.2724 98.682 89.4432 99.7733C89.6139 100.865 90.637 101.611 91.7283 101.44L91.4191 99.4642L91.11 97.4882ZM86.3682 54.8257C86.2735 55.9262 87.0888 56.8952 88.1893 56.9899C89.2898 57.0846 90.2587 56.2693 90.3535 55.1688L88.3608 54.9973L86.3682 54.8257ZM177.835 119.977C177.822 118.873 176.916 117.987 175.812 118C174.707 118.013 173.822 118.918 173.835 120.023L175.835 120L177.835 119.977ZM158.835 154C157.73 154 156.835 154.895 156.835 156C156.835 157.105 157.73 158 158.835 158V156V154ZM169.52 158C170.625 158 171.52 157.105 171.52 156C171.52 154.895 170.625 154 169.52 154V156V158ZM123.335 154C122.23 154 121.335 154.895 121.335 156C121.335 157.105 122.23 158 123.335 158V156V154ZM132.835 158C133.939 158 134.835 157.105 134.835 156C134.835 154.895 133.939 154 132.835 154V156V158ZM118.834 131.041C118.857 129.936 117.98 129.023 116.875 129C115.771 128.978 114.858 129.855 114.835 130.959L116.835 131L118.834 131.041ZM115.135 128.303C116.21 128.049 116.876 126.972 116.622 125.897C116.368 124.822 115.291 124.156 114.216 124.41L114.676 126.357L115.135 128.303ZM91.0928 107.561C90.003 107.741 89.2657 108.77 89.4459 109.86C89.6262 110.95 90.6557 111.687 91.7455 111.507L91.4191 109.534L91.0928 107.561ZM92.1341 114.891C91.9473 113.802 90.9133 113.071 89.8247 113.258C88.736 113.445 88.0049 114.479 88.1917 115.567L90.1629 115.229L92.1341 114.891ZM85.8348 61.5L84.1629 60.4024L71.5595 79.601L73.2314 80.6986L74.9033 81.7962L87.5068 62.5976L85.8348 61.5ZM73.2314 80.6986L71.5659 79.5913C68.4218 84.3206 71.1561 91.1216 76.9994 91.6238L77.1706 89.6311L77.3419 87.6385C74.8766 87.4266 73.237 84.3027 74.8969 81.8058L73.2314 80.6986ZM77.1706 89.6311L77.0001 91.6238L88.1689 92.5798L88.3395 90.5871L88.5101 88.5944L77.3412 87.6384L77.1706 89.6311ZM114.971 96.0841L115.084 98.0808C118.256 97.9005 121.211 97.8658 123.948 98.0088L124.053 96.0115L124.157 94.0142C121.24 93.8619 118.136 93.9008 114.857 94.0873L114.971 96.0841ZM124.053 96.0115L123.948 98.0088C132.174 98.4386 138.278 100.474 142.618 104.883L144.043 103.48L145.468 102.077C140.147 96.6707 132.893 94.4707 124.157 94.0142L124.053 96.0115ZM144.043 103.48L142.618 104.883C148.467 110.826 150.263 119.85 150.601 132.937L152.6 132.885L154.599 132.834C154.26 119.703 152.5 109.222 145.468 102.077L144.043 103.48ZM152.6 132.885L150.601 132.937C150.77 139.49 150.539 147.087 150.103 155.901L152.101 156L154.098 156.099C154.536 147.258 154.773 139.541 154.599 132.834L152.6 132.885ZM173.248 112.05L174.5 113.61C188.394 102.456 196.147 85.3615 196.147 64.0114H194.147H192.147C192.147 84.3437 184.802 100.21 171.996 110.49L173.248 112.05ZM194.147 64.0114H196.147C196.147 24.6976 171.634 0 140.962 0V2V4C169.037 4 192.147 26.4973 192.147 64.0114H194.147ZM141.649 156L143.646 156.1C144.092 147.158 144.342 139.472 144.177 133.103L142.178 133.154L140.179 133.206C140.339 139.416 140.097 146.975 139.651 155.9L141.649 156ZM142.178 133.154L144.177 133.103C144.018 126.92 143.441 122 142.448 118.151C141.458 114.31 140.019 111.401 138.038 109.388L136.613 110.791L135.187 112.194C136.498 113.525 137.684 115.696 138.575 119.15C139.463 122.596 140.023 127.186 140.179 133.206L142.178 133.154ZM136.613 110.791L138.038 109.388C134.566 105.86 128.896 104.256 119.688 104.348L119.708 106.348L119.728 108.348C128.654 108.258 132.899 109.869 135.187 112.194L136.613 110.791ZM119.708 106.348L119.688 104.348C118.357 104.362 116.95 104.412 115.455 104.497L115.568 106.493L115.682 108.49C117.124 108.408 118.468 108.361 119.728 108.348L119.708 106.348ZM91.4191 99.4642L91.7283 101.44C99.754 100.185 109.227 98.4139 115.084 98.0808L114.971 96.0841L114.857 94.0873C108.738 94.4353 98.8802 96.2726 91.11 97.4882L91.4191 99.4642ZM140.962 2V0C127.206 0 114.369 3.56335 104.525 12.3439C94.6708 21.1345 88.0819 34.9184 86.3682 54.8257L88.3608 54.9973L90.3535 55.1688C92.0056 35.9767 98.2949 23.2619 107.188 15.3288C116.093 7.38558 127.873 4 140.962 4V2ZM176.248 156L178.248 155.977L177.835 119.977L175.835 120L173.835 120.023L174.248 156.023L176.248 156ZM158.835 156V158H169.52V156V154H158.835V156ZM123.335 156V158H128.16V156V154H123.335V156ZM128.16 156V158H132.835V156V154H128.16V156ZM123.335 156V158H132.835V156V154H123.335V156ZM116.835 131L114.835 130.959L114.328 155.959L116.328 156L118.327 156.041L118.834 131.041L116.835 131ZM115.568 106.493L115.455 104.497C108.873 104.871 100.771 105.96 91.0928 107.561L91.4191 109.534L91.7455 111.507C101.385 109.913 109.319 108.852 115.682 108.49L115.568 106.493ZM90.1629 115.229L88.1917 115.567C89.1377 121.081 91.1638 125.644 95.7462 128.042C100.178 130.361 106.469 130.35 115.135 128.303L114.676 126.357L114.216 124.41C105.749 126.41 100.689 126.114 97.6009 124.498C94.6632 122.96 92.9998 119.936 92.1341 114.891L90.1629 115.229Z" fill="black"/>
    <path d="M42.4814 83.8203L64.796 105.205" stroke="black" stroke-width="4" stroke-linecap="round"/>
    <path d="M64.7998 117.292L42.4851 138.677" stroke="black" stroke-width="4" stroke-linecap="round"/>
    <path d="M51.7783 112.395C35.2914 111.767 19.4026 104.689 7.79686 93.0835C5.71899 91.0057 3.78117 88.788 2.00011 86.4302" stroke="black" stroke-width="4" stroke-linecap="round"/>
</svg>
