<svg xmlns="http://www.w3.org/2000/svg" width="122" height="158" viewBox="0 0 122 158" fill="none">
    <path d="M89.2747 104.504C89.5135 105.915 88.5657 107.261 87.1548 107.5C87.0029 107.521 86.8582 107.536 86.7135 107.536C85.4763 107.536 84.3765 106.646 84.1594 105.38C83.4576 101.263 80.9832 97.3917 77.5392 95.0258C75.5784 93.6729 73.0532 93.4052 70.3834 93.123C67.0695 92.7757 63.6473 92.4123 60.8834 89.9595C58.1774 87.5501 56.1949 84.4028 55.3122 81.0889C52.7218 71.358 57.707 62.0823 60.905 57.4228C63.5241 53.617 66.6281 50.1948 69.6308 46.8882C71.7073 44.609 73.8491 42.2504 75.7591 39.8265C84.2389 29.0891 89.282 15.6531 89.9766 2" stroke="black" stroke-width="4" stroke-linecap="round"/>
    <path d="M37.191 128.679L66.7515 120.081" stroke="black" stroke-width="4" stroke-linecap="round"/>
    <path d="M77.1788 126.101L84.5124 156" stroke="black" stroke-width="4" stroke-linecap="round"/>
    <path d="M101.817 85.1061C102.273 85.1061 102.75 85.0627 103.228 84.9759C105.811 84.4694 108.307 82.0384 107.829 78.9994C107.468 76.6913 105.413 74.8896 102.837 74.6292C101.007 74.4411 99.3785 75.0054 98.0762 75.454C95.5366 76.3367 92.8088 77.0748 90.1753 77.791C88.598 78.2179 87.0207 78.6448 85.465 79.1079" stroke="black" stroke-width="4" stroke-linecap="round"/>
    <path d="M118.25 79.7017C120.978 75.3532 119.943 70.1077 115.327 64.949" stroke="black" stroke-width="4" stroke-linecap="round"/>
    <path d="M66.6184 133.51C52.0175 147.04 32.4241 154.557 12.6218 154.557C9.07643 154.557 5.53124 154.318 2.00031 153.826" stroke="black" stroke-width="4" stroke-linecap="round"/>
</svg>
