<svg width="619" height="889" viewBox="0 0 619 889" fill="none" xmlns="http://www.w3.org/2000/svg">
<g id="PFASs">
<g id="human">
<circle id="Ellipse 4589" cx="352.32" cy="605.698" r="3.00372" fill="black"/>
<circle id="Ellipse 4590" cx="369.336" cy="604.696" r="3.00372" fill="black"/>
<circle id="Ellipse 4591" cx="359.324" cy="616.711" r="3.00372" fill="black"/>
<circle id="Ellipse 4592" cx="372.34" cy="622.719" r="3.00372" fill="black"/>
<circle id="Ellipse 4593" cx="344.308" cy="618.714" r="3.00372" fill="black"/>
<circle id="Ellipse 4594" cx="333.293" cy="606.699" r="3.00372" fill="black"/>
<circle id="Ellipse 4595" cx="343.308" cy="594.684" r="3.00372" fill="black"/>
<circle id="Ellipse 4596" cx="357.32" cy="591.68" r="3.00372" fill="black"/>
<circle id="Ellipse 4597" cx="370.34" cy="587.675" r="3.00372" fill="black"/>
<circle id="Ellipse 4598" cx="330.289" cy="591.68" r="3.00372" fill="black"/>
<circle id="Ellipse 4654" cx="328.289" cy="577.663" r="3.00372" fill="black"/>
<circle id="Ellipse 4655" cx="343.308" cy="578.664" r="3.00372" fill="black"/>
<circle id="Ellipse 4656" cx="357.32" cy="576.662" r="3.00372" fill="black"/>
<circle id="Ellipse 4657" cx="371.34" cy="571.655" r="3.00372" fill="black"/>
<circle id="Ellipse 4658" cx="372.34" cy="556.637" r="3.00372" fill="black"/>
<circle id="Ellipse 4659" cx="356.324" cy="561.643" r="3.00372" fill="black"/>
<circle id="Ellipse 4660" cx="339.301" cy="563.646" r="3.00372" fill="black"/>
<circle id="Ellipse 4661" cx="324.281" cy="564.647" r="3.00372" fill="black"/>
<circle id="Ellipse 4662" cx="324.281" cy="551.631" r="3.00372" fill="black"/>
<circle id="Ellipse 4663" cx="342.305" cy="549.628" r="3.00372" fill="black"/>
<circle id="Ellipse 4664" cx="359.324" cy="546.625" r="3.00372" fill="black"/>
<circle id="Ellipse 4665" cx="376.347" cy="542.62" r="3.00372" fill="black"/>
<circle id="Ellipse 4666" cx="364.332" cy="532.607" r="3.00372" fill="black"/>
<circle id="Ellipse 4667" cx="348.312" cy="533.608" r="3.00372" fill="black"/>
<circle id="Ellipse 4787" cx="333.293" cy="537.613" r="3.00372" fill="black"/>
<circle id="Ellipse 4669" cx="319.277" cy="539.616" r="3.00372" fill="black"/>
<circle id="Ellipse 4670" cx="379.351" cy="527.601" r="3.00372" fill="black"/>
<circle id="Ellipse 4671" cx="380.351" cy="512.582" r="3.00372" fill="black"/>
<circle id="Ellipse 4672" cx="365.332" cy="519.591" r="3.00372" fill="black"/>
<circle id="Ellipse 4673" cx="349.316" cy="517.589" r="3.00372" fill="black"/>
<circle id="Ellipse 4674" cx="335.297" cy="523.596" r="3.00372" fill="black"/>
<circle id="Ellipse 4675" cx="319.277" cy="524.597" r="3.00372" fill="black"/>
<circle id="Ellipse 4676" cx="334.297" cy="509.579" r="3.00372" fill="black"/>
<circle id="Ellipse 4677" cx="349.316" cy="502.57" r="3.00372" fill="black"/>
<circle id="Ellipse 4678" cx="365.332" cy="505.574" r="3.00372" fill="black"/>
<circle id="Ellipse 4772" cx="358.324" cy="490.555" r="3.00372" fill="black"/>
<circle id="Ellipse 4773" cx="355.324" cy="474.535" r="3.00372" fill="black"/>
<circle id="Ellipse 4774" cx="344.308" cy="486.55" r="3.00372" fill="black"/>
<circle id="Ellipse 4775" cx="339.301" cy="472.533" r="3.00372" fill="black"/>
<circle id="Ellipse 4777" cx="334.297" cy="458.515" r="3.00372" fill="black"/>
<circle id="Ellipse 4778" cx="344.308" cy="447.502" r="3.00372" fill="black"/>
<circle id="Ellipse 4779" cx="352.32" cy="436.488" r="3.00372" fill="black"/>
<circle id="Ellipse 4780" cx="346.312" cy="421.47" r="3.00372" fill="black"/>
<circle id="Ellipse 4781" cx="340.305" cy="407.452" r="3.00372" fill="black"/>
<circle id="Ellipse 4782" cx="340.305" cy="393.435" r="3.00372" fill="black"/>
<circle id="Ellipse 4783" cx="337.301" cy="377.415" r="3.00372" fill="black"/>
<circle id="Ellipse 4784" cx="338.301" cy="361.395" r="3.00372" fill="black"/>
<circle id="Ellipse 4785" cx="338.301" cy="344.374" r="3.00372" fill="black"/>
<circle id="Ellipse 4787_2" cx="326.285" cy="334.362" r="3.00372" fill="black"/>
<circle id="4_DOT" cx="331.293" cy="320.344" r="3.00372" fill="#FF0000"/>
<circle id="Ellipse 4788" cx="337.301" cy="302.322" r="3.00372" fill="black"/>
<circle id="Ellipse 4789" cx="336.297" cy="284.3" r="3.00372" fill="black"/>
<circle id="Ellipse 4790" cx="347.312" cy="272.285" r="3.00372" fill="black"/>
<circle id="Ellipse 4791" cx="360.324" cy="260.27" r="3.00372" fill="black"/>
<circle id="Ellipse 4792" cx="375.344" cy="259.269" r="3.00372" fill="black"/>
<circle id="Ellipse 4793" cx="389.363" cy="254.263" r="3.00372" fill="black"/>
<circle id="Ellipse 4794" cx="400.375" cy="242.248" r="3.00372" fill="black"/>
<circle id="Ellipse 4795" cx="382.355" cy="242.248" r="3.00372" fill="black"/>
<circle id="Ellipse 4796" cx="392.367" cy="231.234" r="3.00372" fill="black"/>
<circle id="Ellipse 4799" cx="409.387" cy="227.229" r="3.00372" fill="black"/>
<circle id="Ellipse 4800" cx="414.394" cy="239.244" r="3.00372" fill="black"/>
<circle id="Ellipse 4801" cx="409.387" cy="213.212" r="3.00372" fill="black"/>
<circle id="Ellipse 4802" cx="396.371" cy="217.217" r="3.00372" fill="black"/>
<circle id="Ellipse 4803" cx="381.351" cy="218.218" r="3.00372" fill="black"/>
<circle id="Ellipse 4804" cx="390.363" cy="205.202" r="3.00372" fill="black"/>
<circle id="Ellipse 4806" cx="383.355" cy="194.188" r="3.00372" fill="black"/>
<circle id="Ellipse 4807" cx="396.371" cy="187.18" r="3.00372" fill="black"/>
<circle id="Ellipse 4808" cx="383.355" cy="180.171" r="3.00372" fill="black"/>
<circle id="Ellipse 4809" cx="370.34" cy="190.183" r="3.00372" fill="black"/>
<circle id="Ellipse 4810" cx="368.336" cy="177.167" r="3.00372" fill="black"/>
<circle id="Ellipse 4811" cx="374.344" cy="205.202" r="3.00372" fill="black"/>
<circle id="Ellipse 4812" cx="361.328" cy="200.196" r="3.00372" fill="black"/>
<circle id="Ellipse 4813" cx="355.324" cy="186.178" r="3.00372" fill="black"/>
<circle id="Ellipse 4814" cx="354.32" cy="172.161" r="3.00372" fill="black"/>
<circle id="Ellipse 4822" cx="341.305" cy="167.155" r="3.00372" fill="black"/>
<circle id="Ellipse 4823" cx="339.301" cy="181.172" r="3.00372" fill="black"/>
<circle id="Ellipse 4824" cx="325.285" cy="173.162" r="3.00372" fill="black"/>
<circle id="Ellipse 4825" cx="331.293" cy="156.141" r="3.00372" fill="black"/>
<circle id="Ellipse 4826" cx="322.281" cy="145.128" r="3.00372" fill="black"/>
<circle id="1_DOT" cx="308.262" cy="140.121" r="3.00372" fill="#FF0000"/>
<circle id="Ellipse 4838" cx="318.273" cy="126.104" r="3.00372" fill="black"/>
<circle id="Ellipse 4839" cx="336.297" cy="123.1" r="3.00372" fill="black"/>
<circle id="Ellipse 4840" cx="347.312" cy="110.084" r="3.00372" fill="black"/>
<circle id="Ellipse 4841" cx="345.308" cy="97.0682" r="3.00372" fill="black"/>
<circle id="Ellipse 4842" cx="329.289" cy="94.0645" r="3.00372" fill="black"/>
<circle id="Ellipse 4844" cx="343.308" cy="81.0484" r="3.00372" fill="black"/>
<circle id="Ellipse 4845" cx="341.305" cy="66.0297" r="3.00372" fill="black"/>
<circle id="Ellipse 4846" cx="328.289" cy="79.0458" r="3.00372" fill="black"/>
<circle id="Ellipse 4847" cx="323.281" cy="63.0259" r="3.00372" fill="black"/>
<circle id="Ellipse 4848" cx="334.297" cy="53.0136" r="3.00372" fill="black"/>
<circle id="Ellipse 4849" cx="320.277" cy="47.0062" r="3.00372" fill="black"/>
<circle id="Ellipse 4850" cx="304.258" cy="45.0037" r="3.00372" fill="black"/>
<circle id="Ellipse 4851" cx="290.238" cy="49.0087" r="3.00372" fill="black"/>
<circle id="Ellipse 4853" cx="278.226" cy="59.021" r="3.00372" fill="black"/>
<circle id="Ellipse 4854" cx="291.238" cy="67.0311" r="3.00372" fill="black"/>
<circle id="Ellipse 4855" cx="314.269" cy="77.0434" r="3.00372" fill="black"/>
<circle id="Ellipse 4857" cx="301.254" cy="80.0471" r="3.00372" fill="black"/>
<circle id="Ellipse 4857_2" cx="286.238" cy="85.0533" r="3.00372" fill="black"/>
<circle id="Ellipse 4858" cx="274.222" cy="74.0396" r="3.00372" fill="black"/>
<circle id="Ellipse 4859" cx="272.219" cy="93.0632" r="3.00372" fill="black"/>
<circle id="Ellipse 4860" cx="284.234" cy="100.072" r="3.00372" fill="black"/>
<circle id="Ellipse 4861" cx="299.25" cy="98.0694" r="3.00372" fill="black"/>
<circle id="Ellipse 4862" cx="314.269" cy="94.0645" r="3.00372" fill="black"/>
<circle id="Ellipse 4863" cx="319.277" cy="110.084" r="3.00372" fill="black"/>
<circle id="Ellipse 4864" cx="306.258" cy="112.087" r="3.00372" fill="black"/>
<circle id="Ellipse 4865" cx="290.238" cy="113.088" r="3.00372" fill="black"/>
<circle id="Ellipse 4866" cx="271.219" cy="110.084" r="3.00372" fill="black"/>
<circle id="Ellipse 4867" cx="281.23" cy="125.103" r="3.00372" fill="black"/>
<circle id="Ellipse 4868" cx="300.25" cy="127.105" r="3.00372" fill="black"/>
<circle id="Ellipse 4869" cx="288.238" cy="139.12" r="3.00372" fill="black"/>
<circle id="Ellipse 4871" cx="301.254" cy="153.138" r="3.00372" fill="black"/>
<circle id="Ellipse 4871_2" cx="286.238" cy="153.138" r="3.00372" fill="black"/>
<circle id="Ellipse 4872" cx="277.226" cy="166.154" r="3.00372" fill="black"/>
<circle id="Ellipse 4874" cx="264.207" cy="172.161" r="3.00372" fill="black"/>
<circle id="Ellipse 4875" cx="279.226" cy="180.171" r="3.00372" fill="black"/>
<circle id="Ellipse 4876" cx="295.246" cy="182.174" r="3.00372" fill="black"/>
<circle id="Ellipse 4877" cx="300.25" cy="196.191" r="3.00372" fill="black"/>
<circle id="Ellipse 4878" cx="285.234" cy="195.19" r="3.00372" fill="black"/>
<circle id="Ellipse 4879" cx="271.219" cy="193.187" r="3.00372" fill="black"/>
<circle id="Ellipse 4880" cx="260.203" cy="186.178" r="3.00372" fill="black"/>
<circle id="Ellipse 4881" cx="249.187" cy="176.166" r="3.00372" fill="black"/>
<circle id="Ellipse 4882" cx="246.183" cy="193.187" r="3.00372" fill="black"/>
<circle id="Ellipse 4883" cx="259.203" cy="203.2" r="3.00372" fill="black"/>
<circle id="Ellipse 4884" cx="275.222" cy="208.206" r="3.00372" fill="black"/>
<circle id="Ellipse 4885" cx="290.238" cy="210.208" r="3.00372" fill="black"/>
<circle id="Ellipse 4886" cx="306.258" cy="210.208" r="3.00372" fill="black"/>
<circle id="Ellipse 4887" cx="316.273" cy="221.222" r="3.00372" fill="black"/>
<circle id="Ellipse 4888" cx="326.285" cy="232.235" r="3.00372" fill="black"/>
<circle id="Ellipse 4889" cx="299.25" cy="223.224" r="3.00372" fill="black"/>
<circle id="Ellipse 4891" cx="283.234" cy="224.226" r="3.00372" fill="black"/>
<circle id="Ellipse 4891_2" cx="268.215" cy="218.218" r="3.00372" fill="black"/>
<circle id="Ellipse 4892" cx="253.195" cy="217.217" r="3.00372" fill="black"/>
<circle id="Ellipse 4893" cx="242.18" cy="207.204" r="3.00372" fill="black"/>
<circle id="Ellipse 4894" cx="231.164" cy="196.191" r="3.00372" fill="black"/>
<circle id="Ellipse 4895" cx="235.172" cy="180.171" r="3.00372" fill="black"/>
<circle id="Ellipse 4896" cx="221.156" cy="184.176" r="3.00372" fill="black"/>
<circle id="Ellipse 4897" cx="215.148" cy="197.192" r="3.00372" fill="black"/>
<circle id="Ellipse 4898" cx="227.16" cy="210.208" r="3.00372" fill="black"/>
<circle id="Ellipse 4899" cx="223.156" cy="223.224" r="3.00372" fill="black"/>
<circle id="Ellipse 4900" cx="211.144" cy="210.208" r="3.00372" fill="black"/>
<circle id="Ellipse 4901" cx="207.137" cy="223.224" r="3.00372" fill="black"/>
<circle id="Ellipse 4902" cx="239.176" cy="223.224" r="3.00372" fill="black"/>
<circle id="Ellipse 4903" cx="256.199" cy="230.233" r="3.00372" fill="black"/>
<circle id="Ellipse 4904" cx="270.215" cy="233.237" r="3.00372" fill="black"/>
<circle id="Ellipse 4937" cx="281.23" cy="241.247" r="3.00372" fill="black"/>
<circle id="Ellipse 4906" cx="262.207" cy="246.253" r="3.00372" fill="black"/>
<circle id="Ellipse 4915" cx="276.222" cy="254.263" r="3.00372" fill="black"/>
<circle id="Ellipse 4916" cx="264.207" cy="262.273" r="3.00372" fill="black"/>
<circle id="Ellipse 4917" cx="252.191" cy="267.279" r="3.00372" fill="black"/>
<circle id="Ellipse 4918" cx="238.176" cy="265.276" r="3.00372" fill="black"/>
<circle id="Ellipse 4919" cx="223.156" cy="265.276" r="3.00372" fill="black"/>
<circle id="Ellipse 4920" cx="209.14" cy="265.276" r="3.00372" fill="black"/>
<circle id="Ellipse 4921" cx="197.125" cy="262.273" r="3.00372" fill="black"/>
<circle id="Ellipse 4922" cx="196.125" cy="276.29" r="3.00372" fill="black"/>
<circle id="Ellipse 4923" cx="212.144" cy="280.295" r="3.00372" fill="black"/>
<circle id="Ellipse 4924" cx="229.164" cy="278.292" r="3.00372" fill="black"/>
<circle id="Ellipse 4925" cx="247.187" cy="279.294" r="3.00372" fill="black"/>
<circle id="Ellipse 4926" cx="261.203" cy="280.295" r="3.00372" fill="black"/>
<circle id="Ellipse 4927" cx="275.222" cy="273.286" r="3.00372" fill="black"/>
<circle id="Ellipse 4928" cx="287.238" cy="264.275" r="3.00372" fill="black"/>
<circle id="Ellipse 4929" cx="292.242" cy="251.259" r="3.00372" fill="black"/>
<circle id="Ellipse 4930" cx="295.246" cy="236.24" r="3.00372" fill="black"/>
<circle id="Ellipse 4931" cx="310.265" cy="234.238" r="3.00372" fill="black"/>
<circle id="Ellipse 4932" cx="320.277" cy="245.252" r="3.00372" fill="black"/>
<circle id="Ellipse 4933" cx="306.258" cy="250.258" r="3.00372" fill="black"/>
<circle id="Ellipse 4934" cx="317.273" cy="263.274" r="3.00372" fill="black"/>
<circle id="Ellipse 4935" cx="329.289" cy="256.265" r="3.00372" fill="black"/>
<circle id="Ellipse 4937_2" cx="303.254" cy="265.276" r="3.00372" fill="black"/>
<circle id="Ellipse 4937_3" cx="320.277" cy="278.292" r="3.00372" fill="black"/>
<circle id="Ellipse 4942" cx="325.285" cy="293.311" r="3.00372" fill="black"/>
<circle id="Ellipse 4943" cx="312.265" cy="295.314" r="3.00372" fill="black"/>
<circle id="Ellipse 4945" cx="298.25" cy="293.311" r="3.00372" fill="black"/>
<circle id="Ellipse 4945_2" cx="285.234" cy="290.307" r="3.00372" fill="black"/>
<circle id="Ellipse 4946" cx="272.219" cy="288.305" r="3.00372" fill="black"/>
<circle id="Ellipse 4947" cx="262.207" cy="298.317" r="3.00372" fill="black"/>
<circle id="Ellipse 4948" cx="276.222" cy="303.323" r="3.00372" fill="black"/>
<circle id="Ellipse 4949" cx="290.238" cy="306.327" r="3.00372" fill="black"/>
<circle id="Ellipse 4950" cx="305.258" cy="310.332" r="3.00372" fill="black"/>
<circle id="Ellipse 4951" cx="321.277" cy="309.331" r="3.00372" fill="black"/>
<circle id="Ellipse 4952" cx="313.269" cy="325.351" r="3.00372" fill="black"/>
<circle id="Ellipse 4953" cx="296.246" cy="321.346" r="3.00372" fill="black"/>
<circle id="Ellipse 4954" cx="280.23" cy="318.342" r="3.00372" fill="black"/>
<circle id="Ellipse 4955" cx="266.211" cy="314.337" r="3.00372" fill="black"/>
<circle id="Ellipse 4787_3" cx="269.215" cy="331.358" r="3.00372" fill="black"/>
<circle id="3_DOT" cx="283.234" cy="332.359" r="3.00372" fill="#FF0000"/>
<circle id="Ellipse 4958" cx="298.25" cy="336.364" r="3.00372" fill="black"/>
<circle id="Ellipse 4959" cx="311.265" cy="343.373" r="3.00372" fill="black"/>
<circle id="Ellipse 4960" cx="324.281" cy="351.383" r="3.00372" fill="black"/>
<circle id="Ellipse 4961" cx="325.285" cy="366.401" r="3.00372" fill="black"/>
<circle id="Ellipse 4963" cx="309.262" cy="362.397" r="3.00372" fill="black"/>
<circle id="Ellipse 4963_2" cx="297.246" cy="354.387" r="3.00372" fill="black"/>
<circle id="Ellipse 4964" cx="284.234" cy="347.378" r="3.00372" fill="black"/>
<circle id="Ellipse 4965" cx="269.215" cy="348.379" r="3.00372" fill="black"/>
<circle id="Ellipse 4966" cx="280.23" cy="361.395" r="3.00372" fill="black"/>
<circle id="Ellipse 4967" cx="293.242" cy="369.405" r="3.00372" fill="black"/>
<circle id="Ellipse 4968" cx="304.258" cy="378.416" r="3.00372" fill="black"/>
<circle id="Ellipse 4969" cx="318.273" cy="379.418" r="3.00372" fill="black"/>
<circle id="Ellipse 4970" cx="324.281" cy="392.434" r="3.00372" fill="black"/>
<circle id="5_DOT" cx="307.262" cy="394.436" r="3.00372" fill="#FF0000"/>
<circle id="Ellipse 4972" cx="291.238" cy="389.43" r="3.00372" fill="black"/>
<circle id="Ellipse 4973" cx="278.226" cy="378.416" r="3.00372" fill="black"/>
<circle id="Ellipse 4974" cx="265.211" cy="367.403" r="3.00372" fill="black"/>
<circle id="Ellipse 4975" cx="263.207" cy="384.424" r="3.00372" fill="black"/>
<circle id="Ellipse 5128" cx="249.187" cy="378.416" r="3.00372" fill="black"/>
<circle id="Ellipse 5129" cx="250.191" cy="364.399" r="3.00372" fill="black"/>
<circle id="Ellipse 5130" cx="254.195" cy="352.384" r="3.00372" fill="black"/>
<circle id="Ellipse 5131" cx="255.195" cy="338.367" r="3.00372" fill="black"/>
<circle id="Ellipse 5132" cx="255.195" cy="323.348" r="3.00372" fill="black"/>
<circle id="Ellipse 5133" cx="252.191" cy="308.33" r="3.00372" fill="black"/>
<circle id="Ellipse 5134" cx="250.191" cy="292.31" r="3.00372" fill="black"/>
<circle id="Ellipse 5135" cx="224.156" cy="291.309" r="3.00372" fill="black"/>
<circle id="Ellipse 5136" cx="206.137" cy="296.315" r="3.00372" fill="black"/>
<circle id="Ellipse 5137" cx="192.117" cy="288.305" r="3.00372" fill="black"/>
<circle id="Ellipse 5138" cx="189.113" cy="302.322" r="3.00372" fill="black"/>
<circle id="Ellipse 5139" cx="200.129" cy="313.336" r="3.00372" fill="black"/>
<circle id="Ellipse 5140" cx="214.148" cy="318.342" r="3.00372" fill="black"/>
<circle id="Ellipse 5141" cx="219.152" cy="305.326" r="3.00372" fill="black"/>
<circle id="Ellipse 5142" cx="184.109" cy="315.338" r="3.00372" fill="black"/>
<circle id="Ellipse 5143" cx="193.121" cy="330.357" r="3.00372" fill="black"/>
<circle id="Ellipse 5144" cx="208.14" cy="331.358" r="3.00372" fill="black"/>
<circle id="Ellipse 5145" cx="202.133" cy="346.377" r="3.00372" fill="black"/>
<circle id="Ellipse 5146" cx="185.109" cy="345.375" r="3.00372" fill="black"/>
<circle id="Ellipse 5147" cx="177.097" cy="328.354" r="3.00372" fill="black"/>
<circle id="Ellipse 5148" cx="170.09" cy="340.369" r="3.00372" fill="black"/>
<circle id="Ellipse 5149" cx="163.082" cy="352.384" r="3.00372" fill="black"/>
<circle id="Ellipse 5150" cx="177.097" cy="360.394" r="3.00372" fill="black"/>
<circle id="Ellipse 5151" cx="195.121" cy="361.395" r="3.00372" fill="black"/>
<circle id="Ellipse 5152" cx="186.109" cy="376.414" r="3.00372" fill="black"/>
<circle id="Ellipse 5153" cx="170.09" cy="377.415" r="3.00372" fill="black"/>
<circle id="Ellipse 5154" cx="159.074" cy="365.4" r="3.00372" fill="black"/>
<circle id="Ellipse 5155" cx="153.07" cy="380.419" r="3.00372" fill="black"/>
<circle id="Ellipse 5156" cx="160.078" cy="391.432" r="3.00372" fill="black"/>
<circle id="Ellipse 5158" cx="148.066" cy="400.444" r="3.00372" fill="black"/>
<circle id="Ellipse 5159" cx="167.086" cy="404.449" r="3.00372" fill="black"/>
<circle id="Ellipse 5160" cx="159.074" cy="418.466" r="3.00372" fill="black"/>
<circle id="Ellipse 5161" cx="143.058" cy="415.462" r="3.00372" fill="black"/>
<circle id="Ellipse 5162" cx="131.043" cy="425.475" r="3.00372" fill="black"/>
<circle id="Ellipse 5163" cx="116.023" cy="428.478" r="3.00372" fill="black"/>
<circle id="Ellipse 5164" cx="101.004" cy="436.488" r="3.00372" fill="black"/>
<circle id="Ellipse 5165" cx="151.07" cy="431.482" r="3.00372" fill="black"/>
<circle id="Ellipse 5166" cx="134.047" cy="438.491" r="3.00372" fill="black"/>
<circle id="Ellipse 5168" cx="117.027" cy="444.498" r="3.00372" fill="black"/>
<circle id="Ellipse 5169" cx="133.047" cy="452.508" r="3.00372" fill="black"/>
<circle id="Ellipse 5170" cx="144.058" cy="461.519" r="3.00372" fill="black"/>
<circle id="Ellipse 5171" cx="134.047" cy="472.533" r="3.00372" fill="black"/>
<circle id="Ellipse 5172" cx="123.035" cy="460.518" r="3.00372" fill="black"/>
<circle id="Ellipse 5173" cx="108.015" cy="457.514" r="3.00372" fill="black"/>
<circle id="Ellipse 5174" cx="99.0037" cy="469.529" r="3.00372" fill="black"/>
<circle id="Ellipse 5175" cx="99.0037" cy="482.545" r="3.00372" fill="black"/>
<circle id="Ellipse 5176" cx="115.023" cy="473.534" r="3.00372" fill="black"/>
<circle id="Ellipse 5177" cx="112.019" cy="487.551" r="3.00372" fill="black"/>
<circle id="Ellipse 5178" cx="127.039" cy="485.549" r="3.00372" fill="black"/>
<circle id="Ellipse 5167" cx="149.066" cy="446.501" r="3.00372" fill="black"/>
<circle id="Ellipse 5157" cx="177.097" cy="391.432" r="3.00372" fill="black"/>
<circle id="Ellipse 4976" cx="276.222" cy="395.437" r="3.00372" fill="black"/>
<circle id="Ellipse 4977" cx="260.203" cy="401.445" r="3.00372" fill="black"/>
<circle id="Ellipse 4978" cx="290.238" cy="406.451" r="3.00372" fill="black"/>
<circle id="Ellipse 4979" cx="306.258" cy="409.455" r="3.00372" fill="black"/>
<circle id="Ellipse 4980" cx="273.219" cy="412.458" r="3.00372" fill="black"/>
<circle id="Ellipse 4981" cx="283.234" cy="423.472" r="3.00372" fill="black"/>
<circle id="Ellipse 5004" cx="270.215" cy="431.482" r="3.00372" fill="black"/>
<circle id="Ellipse 5005" cx="257.199" cy="418.466" r="3.00372" fill="black"/>
<circle id="Ellipse 5006" cx="244.183" cy="406.451" r="3.00372" fill="black"/>
<circle id="Ellipse 5007" cx="246.183" cy="391.432" r="3.00372" fill="black"/>
<circle id="Ellipse 5008" cx="241.18" cy="420.468" r="3.00372" fill="black"/>
<circle id="Ellipse 5009" cx="254.195" cy="435.487" r="3.00372" fill="black"/>
<circle id="Ellipse 5010" cx="238.176" cy="435.487" r="3.00372" fill="black"/>
<circle id="Ellipse 5011" cx="239.176" cy="448.503" r="3.00372" fill="black"/>
<circle id="Ellipse 5013" cx="234.168" cy="461.519" r="3.00372" fill="black"/>
<circle id="Ellipse 5014" cx="249.187" cy="464.523" r="3.00372" fill="black"/>
<circle id="Ellipse 5015" cx="266.211" cy="467.527" r="3.00372" fill="black"/>
<circle id="Ellipse 5016" cx="266.211" cy="488.553" r="3.00372" fill="black"/>
<circle id="Ellipse 5017" cx="253.195" cy="478.54" r="3.00372" fill="black"/>
<circle id="Ellipse 5018" cx="236.172" cy="476.538" r="3.00372" fill="black"/>
<circle id="Ellipse 5019" cx="233.168" cy="490.555" r="3.00372" fill="black"/>
<circle id="Ellipse 5020" cx="248.187" cy="492.558" r="3.00372" fill="black"/>
<circle id="Ellipse 5021" cx="284.234" cy="494.56" r="3.00372" fill="black"/>
<circle id="Ellipse 5022" cx="270.215" cy="504.572" r="3.00372" fill="black"/>
<circle id="Ellipse 5023" cx="254.195" cy="505.574" r="3.00372" fill="black"/>
<circle id="Ellipse 5024" cx="235.172" cy="504.572" r="3.00372" fill="black"/>
<circle id="Ellipse 5025" cx="239.176" cy="517.589" r="3.00372" fill="black"/>
<circle id="Ellipse 5026" cx="258.199" cy="518.59" r="3.00372" fill="black"/>
<circle id="Ellipse 5027" cx="273.219" cy="520.592" r="3.00372" fill="black"/>
<circle id="Ellipse 5028" cx="286.238" cy="511.581" r="3.00372" fill="black"/>
<circle id="Ellipse 5029" cx="299.25" cy="504.572" r="3.00372" fill="black"/>
<circle id="Ellipse 5030" cx="318.273" cy="510.58" r="3.00372" fill="black"/>
<circle id="Ellipse 5031" cx="298.25" cy="521.594" r="3.00372" fill="black"/>
<circle id="Ellipse 5032" cx="285.234" cy="529.603" r="3.00372" fill="black"/>
<circle id="Ellipse 5033" cx="298.25" cy="539.616" r="3.00372" fill="black"/>
<circle id="Ellipse 5034" cx="283.234" cy="544.622" r="3.00372" fill="black"/>
<circle id="Ellipse 5036" cx="268.215" cy="534.61" r="3.00372" fill="black"/>
<circle id="Ellipse 5036_2" cx="252.191" cy="531.606" r="3.00372" fill="black"/>
<circle id="Ellipse 5037" cx="256.199" cy="546.625" r="3.00372" fill="black"/>
<circle id="Ellipse 5038" cx="269.215" cy="549.628" r="3.00372" fill="black"/>
<circle id="Ellipse 5039" cx="295.246" cy="555.636" r="3.00372" fill="black"/>
<circle id="Ellipse 5040" cx="280.23" cy="559.641" r="3.00372" fill="black"/>
<circle id="Ellipse 5041" cx="291.238" cy="571.655" r="3.00372" fill="black"/>
<circle id="Ellipse 5042" cx="275.222" cy="571.655" r="3.00372" fill="black"/>
<circle id="Ellipse 5043" cx="261.203" cy="562.644" r="3.00372" fill="black"/>
<circle id="Ellipse 5044" cx="244.183" cy="557.638" r="3.00372" fill="black"/>
<circle id="Ellipse 5045" cx="241.18" cy="543.621" r="3.00372" fill="black"/>
<circle id="Ellipse 5046" cx="237.172" cy="529.603" r="3.00372" fill="black"/>
<circle id="Ellipse 5047" cx="246.183" cy="570.654" r="3.00372" fill="black"/>
<circle id="Ellipse 5048" cx="260.203" cy="576.662" r="3.00372" fill="black"/>
<circle id="Ellipse 5049" cx="272.219" cy="583.67" r="3.00372" fill="black"/>
<circle id="Ellipse 5050" cx="287.238" cy="585.673" r="3.00372" fill="black"/>
<circle id="Ellipse 5051" cx="286.238" cy="601.693" r="3.00372" fill="black"/>
<circle id="Ellipse 5052" cx="276.222" cy="594.684" r="3.00372" fill="black"/>
<circle id="Ellipse 5053" cx="268.215" cy="604.696" r="3.00372" fill="black"/>
<circle id="Ellipse 5054" cx="260.203" cy="591.68" r="3.00372" fill="black"/>
<circle id="Ellipse 5055" cx="247.187" cy="583.67" r="3.00372" fill="black"/>
<circle id="Ellipse 5056" cx="247.187" cy="596.686" r="3.00372" fill="black"/>
<circle id="Ellipse 5057" cx="256.199" cy="607.7" r="3.00372" fill="black"/>
<circle id="Ellipse 5058" cx="245.183" cy="609.703" r="3.00372" fill="black"/>
<circle id="Ellipse 5059" cx="278.226" cy="612.706" r="3.00372" fill="black"/>
<circle id="Ellipse 5060" cx="289.242" cy="617.712" r="3.00372" fill="black"/>
<circle id="Ellipse 5061" cx="278.226" cy="626.724" r="3.00372" fill="black"/>
<circle id="Ellipse 5062" cx="267.211" cy="618.714" r="3.00372" fill="black"/>
<circle id="Ellipse 5063" cx="255.195" cy="622.719" r="3.00372" fill="black"/>
<circle id="Ellipse 5064" cx="243.18" cy="620.716" r="3.00372" fill="black"/>
<circle id="Ellipse 5065" cx="243.18" cy="632.731" r="3.00372" fill="black"/>
<circle id="Ellipse 5066" cx="255.195" cy="636.736" r="3.00372" fill="black"/>
<circle id="Ellipse 5067" cx="267.211" cy="631.73" r="3.00372" fill="black"/>
<circle id="Ellipse 5068" cx="279.226" cy="639.74" r="3.00372" fill="black"/>
<circle id="Ellipse 5069" cx="290.238" cy="633.732" r="3.00372" fill="black"/>
<circle id="Ellipse 5070" cx="290.238" cy="647.75" r="3.00372" fill="black"/>
<circle id="Ellipse 5071" cx="279.226" cy="653.757" r="3.00372" fill="black"/>
<circle id="Ellipse 5072" cx="268.215" cy="645.747" r="3.00372" fill="black"/>
<circle id="Ellipse 5073" cx="255.195" cy="649.752" r="3.00372" fill="black"/>
<circle id="Ellipse 5074" cx="244.183" cy="644.746" r="3.00372" fill="black"/>
<circle id="Ellipse 5075" cx="244.183" cy="657.762" r="3.00372" fill="black"/>
<circle id="Ellipse 5076" cx="256.199" cy="662.768" r="3.00372" fill="black"/>
<circle id="Ellipse 5077" cx="268.215" cy="657.762" r="3.00372" fill="black"/>
<circle id="Ellipse 5078" cx="279.226" cy="668.776" r="3.00372" fill="black"/>
<circle id="Ellipse 5079" cx="289.242" cy="663.769" r="3.00372" fill="black"/>
<circle id="Ellipse 5080" cx="266.211" cy="671.779" r="3.00372" fill="black"/>
<circle id="Ellipse 5081" cx="256.199" cy="675.784" r="3.00372" fill="black"/>
<circle id="Ellipse 5082" cx="245.183" cy="670.778" r="3.00372" fill="black"/>
<circle id="Ellipse 5083" cx="247.187" cy="684.795" r="3.00372" fill="black"/>
<circle id="Ellipse 5084" cx="261.203" cy="687.799" r="3.00372" fill="black"/>
<circle id="Ellipse 5085" cx="274.222" cy="680.791" r="3.00372" fill="black"/>
<circle id="Ellipse 5086" cx="288.238" cy="679.789" r="3.00372" fill="black"/>
<circle id="Ellipse 5087" cx="287.238" cy="695.809" r="3.00372" fill="black"/>
<circle id="Ellipse 5088" cx="274.222" cy="692.805" r="3.00372" fill="black"/>
<circle id="Ellipse 5089" cx="262.207" cy="700.815" r="3.00372" fill="black"/>
<circle id="Ellipse 5090" cx="250.191" cy="696.81" r="3.00372" fill="black"/>
<circle id="Ellipse 5091" cx="276.222" cy="706.823" r="3.00372" fill="black"/>
<circle id="Ellipse 5092" cx="288.238" cy="711.829" r="3.00372" fill="black"/>
<circle id="Ellipse 5093" cx="265.211" cy="714.833" r="3.00372" fill="black"/>
<circle id="Ellipse 5094" cx="252.191" cy="710.828" r="3.00372" fill="black"/>
<circle id="Ellipse 5095" cx="277.226" cy="720.84" r="3.00372" fill="black"/>
<circle id="Ellipse 5096" cx="288.238" cy="727.849" r="3.00372" fill="black"/>
<circle id="Ellipse 5097" cx="278.226" cy="736.86" r="3.00372" fill="black"/>
<circle id="Ellipse 5098" cx="267.211" cy="730.852" r="3.00372" fill="black"/>
<circle id="Ellipse 5099" cx="254.195" cy="724.845" r="3.00372" fill="black"/>
<circle id="Ellipse 5100" cx="289.242" cy="744.87" r="3.00372" fill="black"/>
<circle id="Ellipse 5101" cx="290.238" cy="762.892" r="3.00372" fill="black"/>
<circle id="Ellipse 5102" cx="279.226" cy="754.882" r="3.00372" fill="black"/>
<circle id="Ellipse 5103" cx="269.215" cy="746.872" r="3.00372" fill="black"/>
<circle id="Ellipse 5104" cx="256.199" cy="739.864" r="3.00372" fill="black"/>
<circle id="Ellipse 5105" cx="258.199" cy="755.883" r="3.00372" fill="black"/>
<circle id="Ellipse 5106" cx="270.215" cy="763.893" r="3.00372" fill="black"/>
<circle id="Ellipse 5107" cx="280.23" cy="771.903" r="3.00372" fill="black"/>
<circle id="Ellipse 5108" cx="292.242" cy="779.913" r="3.00372" fill="black"/>
<circle id="Ellipse 5109" cx="294.242" cy="795.933" r="3.00372" fill="black"/>
<circle id="Ellipse 5110" cx="281.23" cy="789.926" r="3.00372" fill="black"/>
<circle id="Ellipse 5111" cx="269.215" cy="780.914" r="3.00372" fill="black"/>
<circle id="Ellipse 5112" cx="259.203" cy="772.904" r="3.00372" fill="black"/>
<circle id="Ellipse 5113" cx="258.199" cy="788.924" r="3.00372" fill="black"/>
<circle id="Ellipse 5114" cx="270.215" cy="797.935" r="3.00372" fill="black"/>
<circle id="Ellipse 5115" cx="286.238" cy="806.947" r="3.00372" fill="black"/>
<circle id="Ellipse 5116" cx="279.226" cy="820.964" r="3.00372" fill="black"/>
<circle id="Ellipse 5117" cx="269.215" cy="810.951" r="3.00372" fill="black"/>
<circle id="Ellipse 5118" cx="254.195" cy="803.943" r="3.00372" fill="black"/>
<circle id="Ellipse 5119" cx="245.183" cy="815.958" r="3.00372" fill="black"/>
<circle id="Ellipse 5122" cx="236.172" cy="827.973" r="3.00372" fill="black"/>
<circle id="Ellipse 5123" cx="250.191" cy="830.976" r="3.00372" fill="black"/>
<circle id="Ellipse 5124" cx="263.207" cy="840.989" r="3.00372" fill="black"/>
<circle id="Ellipse 5125" cx="250.191" cy="845.995" r="3.00372" fill="black"/>
<circle id="Ellipse 5126" cx="237.172" cy="845.995" r="3.00372" fill="black"/>
<circle id="Ellipse 5127" cx="226.16" cy="838.986" r="3.00372" fill="black"/>
<circle id="Ellipse 5120" cx="261.203" cy="822.966" r="3.00372" fill="black"/>
<circle id="Ellipse 5121" cx="274.222" cy="833.98" r="3.00372" fill="black"/>
<circle id="Ellipse 5012" cx="256.199" cy="452.508" r="3.00372" fill="black"/>
<circle id="Ellipse 4982" cx="297.246" cy="424.473" r="3.00372" fill="black"/>
<circle id="6_DOT" cx="312.265" cy="422.471" r="3.00372" fill="#FF0000"/>
<circle id="Ellipse 4984" cx="328.289" cy="420.468" r="3.00372" fill="black"/>
<circle id="Ellipse 4985" cx="322.281" cy="406.451" r="3.00372" fill="black"/>
<circle id="Ellipse 4986" cx="336.297" cy="433.485" r="3.00372" fill="black"/>
<circle id="Ellipse 4987" cx="319.277" cy="435.487" r="3.00372" fill="black"/>
<circle id="Ellipse 4988" cx="303.254" cy="438.491" r="3.00372" fill="black"/>
<circle id="Ellipse 4989" cx="328.289" cy="446.501" r="3.00372" fill="black"/>
<circle id="Ellipse 4991" cx="314.269" cy="451.507" r="3.00372" fill="black"/>
<circle id="Ellipse 4991_2" cx="296.246" cy="453.509" r="3.00372" fill="black"/>
<circle id="Ellipse 4993" cx="307.262" cy="464.523" r="3.00372" fill="black"/>
<circle id="Ellipse 4994" cx="322.281" cy="467.527" r="3.00372" fill="black"/>
<circle id="Ellipse 4995" cx="328.289" cy="482.545" r="3.00372" fill="black"/>
<circle id="Ellipse 4996" cx="313.269" cy="479.542" r="3.00372" fill="black"/>
<circle id="Ellipse 4997" cx="317.273" cy="495.561" r="3.00372" fill="black"/>
<circle id="Ellipse 4998" cx="333.293" cy="496.563" r="3.00372" fill="black"/>
<circle id="Ellipse 4999" cx="298.25" cy="487.551" r="3.00372" fill="black"/>
<circle id="Ellipse 5000" cx="295.246" cy="471.532" r="3.00372" fill="black"/>
<circle id="Ellipse 5001" cx="280.23" cy="478.54" r="3.00372" fill="black"/>
<circle id="Ellipse 5002" cx="281.23" cy="460.518" r="3.00372" fill="black"/>
<circle id="Ellipse 5003" cx="271.219" cy="448.503" r="3.00372" fill="black"/>
<circle id="Ellipse 4992" cx="285.234" cy="440.493" r="3.00372" fill="black"/>
<circle id="Ellipse 4938" cx="332.293" cy="269.281" r="3.00372" fill="black"/>
<circle id="Ellipse 4941" cx="344.308" cy="258.268" r="3.00372" fill="black"/>
<circle id="Ellipse 4939" cx="307.262" cy="280.295" r="3.00372" fill="black"/>
<circle id="Ellipse 4940" cx="292.242" cy="277.291" r="3.00372" fill="black"/>
<circle id="Ellipse 4907" cx="245.183" cy="239.244" r="3.00372" fill="black"/>
<circle id="Ellipse 4908" cx="230.164" cy="237.242" r="3.00372" fill="black"/>
<circle id="Ellipse 4909" cx="216.148" cy="237.242" r="3.00372" fill="black"/>
<circle id="Ellipse 4910" cx="203.133" cy="236.24" r="3.00372" fill="black"/>
<circle id="Ellipse 4911" cx="201.129" cy="249.257" r="3.00372" fill="black"/>
<circle id="Ellipse 4912" cx="217.152" cy="251.259" r="3.00372" fill="black"/>
<circle id="Ellipse 4914" cx="233.168" cy="251.259" r="3.00372" fill="black"/>
<circle id="Ellipse 4914_2" cx="249.187" cy="253.261" r="3.00372" fill="black"/>
<circle id="Ellipse 4873" cx="292.242" cy="168.156" r="3.00372" fill="black"/>
<circle id="0_DOT" cx="306.258" cy="61.0235" r="3.00372" fill="#FF0000"/>
<circle id="Ellipse 4843" cx="333.293" cy="109.083" r="3.00372" fill="black"/>
<circle id="Ellipse 4827" cx="332.293" cy="137.118" r="3.00372" fill="black"/>
<circle id="Ellipse 4828" cx="316.273" cy="158.144" r="3.00372" fill="black"/>
<circle id="Ellipse 4829" cx="328.289" cy="191.185" r="3.00372" fill="black"/>
<circle id="Ellipse 4830" cx="344.308" cy="194.188" r="3.00372" fill="black"/>
<circle id="Ellipse 4831" cx="336.297" cy="206.203" r="3.00372" fill="black"/>
<circle id="Ellipse 4832" cx="323.281" cy="208.206" r="3.00372" fill="black"/>
<circle id="Ellipse 4833" cx="333.293" cy="220.221" r="3.00372" fill="black"/>
<circle id="Ellipse 4834" cx="314.269" cy="198.193" r="3.00372" fill="black"/>
<circle id="Ellipse 4835" cx="312.265" cy="184.176" r="3.00372" fill="black"/>
<circle id="Ellipse 4836" cx="307.262" cy="170.159" r="3.00372" fill="black"/>
<circle id="Ellipse 4815" cx="364.332" cy="217.217" r="3.00372" fill="black"/>
<circle id="Ellipse 4817" cx="348.312" cy="220.221" r="3.00372" fill="black"/>
<circle id="2_DOT" cx="352.32" cy="245.252" r="3.00372" fill="#FF0000"/>
<circle id="Ellipse 4821" cx="336.297" cy="244.25" r="3.00372" fill="black"/>
<circle id="Ellipse 4819" cx="343.308" cy="232.235" r="3.00372" fill="black"/>
<circle id="Ellipse 4818" cx="351.316" cy="207.204" r="3.00372" fill="black"/>
<circle id="Ellipse 4816" cx="359.324" cy="231.234" r="3.00372" fill="black"/>
<circle id="Ellipse 4805" cx="403.379" cy="200.196" r="3.00372" fill="black"/>
<circle id="Ellipse 4797" cx="374.344" cy="230.233" r="3.00372" fill="black"/>
<circle id="Ellipse 4798" cx="367.336" cy="245.252" r="3.00372" fill="black"/>
<circle id="Ellipse 4776" cx="350.316" cy="461.519" r="3.00372" fill="black"/>
<circle id="Ellipse 4679" cx="384.355" cy="498.565" r="3.00372" fill="black"/>
<circle id="Ellipse 4680" cx="384.355" cy="482.545" r="3.00372" fill="black"/>
<circle id="Ellipse 4681" cx="372.34" cy="492.558" r="3.00372" fill="black"/>
<circle id="Ellipse 4682" cx="370.34" cy="477.539" r="3.00372" fill="black"/>
<circle id="Ellipse 4683" cx="382.355" cy="466.525" r="3.00372" fill="black"/>
<circle id="Ellipse 4684" cx="380.351" cy="451.507" r="3.00372" fill="black"/>
<circle id="Ellipse 4685" cx="367.336" cy="462.52" r="3.00372" fill="black"/>
<circle id="Ellipse 4686" cx="360.324" cy="450.505" r="3.00372" fill="black"/>
<circle id="Ellipse 4687" cx="367.336" cy="439.492" r="3.00372" fill="black"/>
<circle id="Ellipse 4688" cx="379.351" cy="434.486" r="3.00372" fill="black"/>
<circle id="Ellipse 4689" cx="376.347" cy="419.467" r="3.00372" fill="black"/>
<circle id="Ellipse 4690" cx="373.344" cy="404.449" r="3.00372" fill="black"/>
<circle id="Ellipse 4693" cx="370.34" cy="389.43" r="3.00372" fill="black"/>
<circle id="Ellipse 4694" cx="367.336" cy="373.41" r="3.00372" fill="black"/>
<circle id="Ellipse 4695" cx="353.32" cy="383.422" r="3.00372" fill="black"/>
<circle id="Ellipse 4696" cx="355.324" cy="398.441" r="3.00372" fill="black"/>
<circle id="Ellipse 4697" cx="365.332" cy="357.39" r="3.00372" fill="black"/>
<circle id="Ellipse 4698" cx="351.316" cy="368.404" r="3.00372" fill="black"/>
<circle id="Ellipse 4699" cx="351.316" cy="351.383" r="3.00372" fill="black"/>
<circle id="Ellipse 4700" cx="361.328" cy="340.369" r="3.00372" fill="black"/>
<circle id="Ellipse 4701" cx="345.308" cy="331.358" r="3.00372" fill="black"/>
<circle id="Ellipse 4702" cx="360.324" cy="324.349" r="3.00372" fill="black"/>
<circle id="Ellipse 4703" cx="365.332" cy="309.331" r="3.00372" fill="black"/>
<circle id="Ellipse 4704" cx="367.336" cy="292.31" r="3.00372" fill="black"/>
<circle id="Ellipse 4705" cx="352.32" cy="301.321" r="3.00372" fill="black"/>
<circle id="Ellipse 4707" cx="351.316" cy="288.305" r="3.00372" fill="black"/>
<circle id="Ellipse 4708" cx="361.328" cy="276.29" r="3.00372" fill="black"/>
<circle id="Ellipse 4709" cx="374.344" cy="275.289" r="3.00372" fill="black"/>
<circle id="Ellipse 4710" cx="388.363" cy="268.28" r="3.00372" fill="black"/>
<circle id="Ellipse 4711" cx="403.379" cy="258.268" r="3.00372" fill="black"/>
<circle id="Ellipse 4712" cx="417.398" cy="252.26" r="3.00372" fill="black"/>
<circle id="Ellipse 4713" cx="418.398" cy="265.276" r="3.00372" fill="black"/>
<circle id="Ellipse 4714" cx="401.379" cy="272.285" r="3.00372" fill="black"/>
<circle id="Ellipse 4715" cx="389.363" cy="283.299" r="3.00372" fill="black"/>
<circle id="Ellipse 4716" cx="401.379" cy="289.306" r="3.00372" fill="black"/>
<circle id="Ellipse 4717" cx="412.39" cy="280.295" r="3.00372" fill="black"/>
<circle id="Ellipse 4718" cx="423.406" cy="277.291" r="3.00372" fill="black"/>
<circle id="Ellipse 4719" cx="425.406" cy="290.307" r="3.00372" fill="black"/>
<circle id="Ellipse 4720" cx="414.394" cy="295.314" r="3.00372" fill="black"/>
<circle id="Ellipse 4721" cx="406.383" cy="305.326" r="3.00372" fill="black"/>
<circle id="Ellipse 4722" cx="393.367" cy="300.32" r="3.00372" fill="black"/>
<circle id="Ellipse 4723" cx="400.375" cy="316.339" r="3.00372" fill="black"/>
<circle id="Ellipse 4724" cx="420.402" cy="310.332" r="3.00372" fill="black"/>
<circle id="Ellipse 4725" cx="429.41" cy="302.322" r="3.00372" fill="black"/>
<circle id="Ellipse 4726" cx="434.418" cy="314.337" r="3.00372" fill="black"/>
<circle id="Ellipse 4727" cx="441.426" cy="326.352" r="3.00372" fill="black"/>
<circle id="Ellipse 4728" cx="426.406" cy="323.348" r="3.00372" fill="black"/>
<circle id="Ellipse 4729" cx="412.39" cy="321.346" r="3.00372" fill="black"/>
<circle id="Ellipse 4730" cx="406.383" cy="332.359" r="3.00372" fill="black"/>
<circle id="Ellipse 4731" cx="419.402" cy="335.363" r="3.00372" fill="black"/>
<circle id="Ellipse 4732" cx="433.414" cy="337.366" r="3.00372" fill="black"/>
<circle id="Ellipse 4733" cx="447.433" cy="338.367" r="3.00372" fill="black"/>
<circle id="Ellipse 4734" cx="454.441" cy="350.382" r="3.00372" fill="black"/>
<circle id="Ellipse 4735" cx="440.426" cy="349.38" r="3.00372" fill="black"/>
<circle id="Ellipse 4736" cx="426.406" cy="349.38" r="3.00372" fill="black"/>
<circle id="Ellipse 4737" cx="413.394" cy="347.378" r="3.00372" fill="black"/>
<circle id="Ellipse 4738" cx="420.402" cy="362.397" r="3.00372" fill="black"/>
<circle id="Ellipse 4739" cx="433.414" cy="362.397" r="3.00372" fill="black"/>
<circle id="Ellipse 4740" cx="446.433" cy="362.397" r="3.00372" fill="black"/>
<circle id="Ellipse 4741" cx="459.449" cy="362.397" r="3.00372" fill="black"/>
<circle id="Ellipse 4742" cx="461.453" cy="375.413" r="3.00372" fill="black"/>
<circle id="Ellipse 4743" cx="445.43" cy="375.413" r="3.00372" fill="black"/>
<circle id="Ellipse 4744" cx="429.41" cy="376.414" r="3.00372" fill="black"/>
<circle id="Ellipse 4745" cx="436.418" cy="387.427" r="3.00372" fill="black"/>
<circle id="Ellipse 4746" cx="451.437" cy="388.429" r="3.00372" fill="black"/>
<circle id="Ellipse 4747" cx="466.457" cy="387.427" r="3.00372" fill="black"/>
<circle id="Ellipse 4748" cx="471.465" cy="400.444" r="3.00372" fill="black"/>
<circle id="Ellipse 4749" cx="458.449" cy="401.445" r="3.00372" fill="black"/>
<circle id="Ellipse 4750" cx="444.43" cy="400.444" r="3.00372" fill="black"/>
<circle id="Ellipse 4751" cx="454.441" cy="413.46" r="3.00372" fill="black"/>
<circle id="Ellipse 4752" cx="472.465" cy="412.458" r="3.00372" fill="black"/>
<circle id="Ellipse 4753" cx="478.472" cy="424.473" r="3.00372" fill="black"/>
<circle id="Ellipse 4754" cx="461.453" cy="425.475" r="3.00372" fill="black"/>
<circle id="Ellipse 4755" cx="492.488" cy="427.477" r="3.00372" fill="black"/>
<circle id="Ellipse 4756" cx="506.508" cy="429.479" r="3.00372" fill="black"/>
<circle id="Ellipse 4757" cx="517.519" cy="437.489" r="3.00372" fill="black"/>
<circle id="Ellipse 4758" cx="498.496" cy="441.494" r="3.00372" fill="black"/>
<circle id="Ellipse 4759" cx="481.476" cy="439.492" r="3.00372" fill="black"/>
<circle id="Ellipse 4760" cx="465.457" cy="438.491" r="3.00372" fill="black"/>
<circle id="Ellipse 4761" cx="469.461" cy="451.507" r="3.00372" fill="black"/>
<circle id="Ellipse 4762" cx="486.484" cy="452.508" r="3.00372" fill="black"/>
<circle id="Ellipse 4763" cx="505.504" cy="454.511" r="3.00372" fill="black"/>
<circle id="Ellipse 4764" cx="514.515" cy="465.524" r="3.00372" fill="black"/>
<circle id="Ellipse 4765" cx="519.523" cy="478.54" r="3.00372" fill="black"/>
<circle id="Ellipse 4766" cx="503.504" cy="474.535" r="3.00372" fill="black"/>
<circle id="Ellipse 4767" cx="493.488" cy="465.524" r="3.00372" fill="black"/>
<circle id="Ellipse 4768" cx="475.469" cy="463.522" r="3.00372" fill="black"/>
<circle id="Ellipse 4769" cx="482.48" cy="475.537" r="3.00372" fill="black"/>
<circle id="Ellipse 4770" cx="492.488" cy="485.549" r="3.00372" fill="black"/>
<circle id="Ellipse 4771" cx="508.508" cy="487.551" r="3.00372" fill="black"/>
<circle id="Ellipse 4706" cx="346.312" cy="315.338" r="3.00372" fill="black"/>
<circle id="Ellipse 4691" cx="359.324" cy="412.458" r="3.00372" fill="black"/>
<circle id="Ellipse 4692" cx="362.328" cy="425.475" r="3.00372" fill="black"/>
<circle id="Ellipse 4599" cx="329.289" cy="622.719" r="3.00372" fill="black"/>
<circle id="Ellipse 4600" cx="342.305" cy="632.731" r="3.00372" fill="black"/>
<circle id="Ellipse 4601" cx="358.324" cy="632.731" r="3.00372" fill="black"/>
<circle id="Ellipse 4602" cx="372.34" cy="638.738" r="3.00372" fill="black"/>
<circle id="Ellipse 4603" cx="363.328" cy="649.752" r="3.00372" fill="black"/>
<circle id="Ellipse 4604" cx="373.344" cy="659.764" r="3.00372" fill="black"/>
<circle id="Ellipse 4605" cx="351.316" cy="648.751" r="3.00372" fill="black"/>
<circle id="Ellipse 4606" cx="338.301" cy="647.75" r="3.00372" fill="black"/>
<circle id="Ellipse 4607" cx="327.285" cy="637.737" r="3.00372" fill="black"/>
<circle id="Ellipse 4608" cx="328.289" cy="654.758" r="3.00372" fill="black"/>
<circle id="Ellipse 4609" cx="343.308" cy="664.771" r="3.00372" fill="black"/>
<circle id="Ellipse 4610" cx="358.324" cy="664.771" r="3.00372" fill="black"/>
<circle id="Ellipse 4611" cx="330.289" cy="669.777" r="3.00372" fill="black"/>
<circle id="Ellipse 4612" cx="333.293" cy="682.793" r="3.00372" fill="black"/>
<circle id="Ellipse 4613" cx="351.316" cy="680.791" r="3.00372" fill="black"/>
<circle id="Ellipse 4615" cx="342.305" cy="697.812" r="3.00372" fill="black"/>
<circle id="Ellipse 4616" cx="355.324" cy="698.813" r="3.00372" fill="black"/>
<circle id="Ellipse 4617" cx="368.336" cy="691.804" r="3.00372" fill="black"/>
<circle id="Ellipse 4618" cx="329.289" cy="696.81" r="3.00372" fill="black"/>
<circle id="Ellipse 4619" cx="332.293" cy="711.829" r="3.00372" fill="black"/>
<circle id="Ellipse 4620" cx="347.312" cy="715.834" r="3.00372" fill="black"/>
<circle id="Ellipse 4621" cx="364.332" cy="710.828" r="3.00372" fill="black"/>
<circle id="Ellipse 4622" cx="360.324" cy="727.849" r="3.00372" fill="black"/>
<circle id="Ellipse 4623" cx="345.308" cy="733.856" r="3.00372" fill="black"/>
<circle id="Ellipse 4624" cx="331.293" cy="726.847" r="3.00372" fill="black"/>
<circle id="Ellipse 4625" cx="331.293" cy="741.866" r="3.00372" fill="black"/>
<circle id="Ellipse 4626" cx="343.308" cy="753.881" r="3.00372" fill="black"/>
<circle id="Ellipse 4627" cx="357.32" cy="744.87" r="3.00372" fill="black"/>
<circle id="Ellipse 4628" cx="356.324" cy="760.89" r="3.00372" fill="black"/>
<circle id="Ellipse 4629" cx="329.289" cy="755.883" r="3.00372" fill="black"/>
<circle id="Ellipse 4630" cx="327.285" cy="769.901" r="3.00372" fill="black"/>
<circle id="Ellipse 4631" cx="340.305" cy="771.903" r="3.00372" fill="black"/>
<circle id="Ellipse 4632" cx="355.324" cy="774.907" r="3.00372" fill="black"/>
<circle id="Ellipse 4633" cx="358.324" cy="790.927" r="3.00372" fill="black"/>
<circle id="Ellipse 4634" cx="344.308" cy="785.921" r="3.00372" fill="black"/>
<circle id="Ellipse 4635" cx="326.285" cy="783.918" r="3.00372" fill="black"/>
<circle id="Ellipse 4636" cx="324.281" cy="798.937" r="3.00372" fill="black"/>
<circle id="Ellipse 4637" cx="337.301" cy="796.934" r="3.00372" fill="black"/>
<circle id="Ellipse 4638" cx="350.316" cy="802.942" r="3.00372" fill="black"/>
<circle id="Ellipse 4639" cx="364.332" cy="803.943" r="3.00372" fill="black"/>
<circle id="Ellipse 4640" cx="372.34" cy="815.958" r="3.00372" fill="black"/>
<circle id="Ellipse 4641" cx="359.324" cy="816.959" r="3.00372" fill="black"/>
<circle id="Ellipse 4642" cx="345.308" cy="814.957" r="3.00372" fill="black"/>
<circle id="Ellipse 4643" cx="332.293" cy="810.951" r="3.00372" fill="black"/>
<circle id="Ellipse 4644" cx="337.301" cy="824.969" r="3.00372" fill="black"/>
<circle id="Ellipse 4645" cx="353.32" cy="827.973" r="3.00372" fill="black"/>
<circle id="Ellipse 4646" cx="367.336" cy="831.978" r="3.00372" fill="black"/>
<circle id="Ellipse 4647" cx="379.351" cy="826.971" r="3.00372" fill="black"/>
<circle id="Ellipse 4648" cx="388.363" cy="832.979" r="3.00372" fill="black"/>
<circle id="Ellipse 4649" cx="390.363" cy="843.992" r="3.00372" fill="black"/>
<circle id="Ellipse 4650" cx="379.351" cy="844.994" r="3.00372" fill="black"/>
<circle id="Ellipse 4651" cx="367.336" cy="846.996" r="3.00372" fill="black"/>
<circle id="Ellipse 4652" cx="355.324" cy="842.991" r="3.00372" fill="black"/>
<circle id="Ellipse 4653" cx="343.308" cy="837.985" r="3.00372" fill="black"/>
<circle id="Ellipse 4614" cx="369.336" cy="675.784" r="3.00372" fill="black"/>
</g>
<g id="0_TEXT">
<path id="Immunotoxicity" d="M395.18 53.38V68H392.62V53.38H395.18ZM400.701 68H398.261V58.12H400.501L400.701 59.28C401.201 58.46 402.201 57.82 403.621 57.82C405.121 57.82 406.161 58.56 406.681 59.7C407.181 58.56 408.341 57.82 409.841 57.82C412.241 57.82 413.561 59.26 413.561 61.54V68H411.141V62.18C411.141 60.76 410.381 60.02 409.221 60.02C408.041 60.02 407.141 60.78 407.141 62.4V68H404.701V62.16C404.701 60.78 403.961 60.04 402.801 60.04C401.641 60.04 400.701 60.8 400.701 62.4V68ZM418.596 68H416.156V58.12H418.396L418.596 59.28C419.096 58.46 420.096 57.82 421.516 57.82C423.016 57.82 424.056 58.56 424.576 59.7C425.076 58.56 426.236 57.82 427.736 57.82C430.136 57.82 431.456 59.26 431.456 61.54V68H429.036V62.18C429.036 60.76 428.276 60.02 427.116 60.02C425.936 60.02 425.036 60.78 425.036 62.4V68H422.596V62.16C422.596 60.78 421.856 60.04 420.696 60.04C419.536 60.04 418.596 60.8 418.596 62.4V68ZM440.751 58.12H443.191V68H440.931L440.751 66.68C440.151 67.62 438.871 68.26 437.551 68.26C435.271 68.26 433.931 66.72 433.931 64.3V58.12H436.371V63.44C436.371 65.32 437.111 66.08 438.471 66.08C440.011 66.08 440.751 65.18 440.751 63.3V58.12ZM448.352 68H445.912V58.12H448.172L448.372 59.4C448.992 58.4 450.192 57.82 451.532 57.82C454.012 57.82 455.292 59.36 455.292 61.92V68H452.852V62.5C452.852 60.84 452.032 60.04 450.772 60.04C449.272 60.04 448.352 61.08 448.352 62.68V68ZM457.309 63.04C457.309 59.96 459.529 57.84 462.589 57.84C465.649 57.84 467.869 59.96 467.869 63.04C467.869 66.12 465.649 68.24 462.589 68.24C459.529 68.24 457.309 66.12 457.309 63.04ZM459.749 63.04C459.749 64.84 460.909 66.06 462.589 66.06C464.269 66.06 465.429 64.84 465.429 63.04C465.429 61.24 464.269 60.02 462.589 60.02C460.909 60.02 459.749 61.24 459.749 63.04ZM473.265 68H470.825V60.16H468.925V58.12H470.825V55.04H473.265V58.12H475.185V60.16H473.265V68ZM476.225 63.04C476.225 59.96 478.445 57.84 481.505 57.84C484.565 57.84 486.785 59.96 486.785 63.04C486.785 66.12 484.565 68.24 481.505 68.24C478.445 68.24 476.225 66.12 476.225 63.04ZM478.665 63.04C478.665 64.84 479.825 66.06 481.505 66.06C483.185 66.06 484.345 64.84 484.345 63.04C484.345 61.24 483.185 60.02 481.505 60.02C479.825 60.02 478.665 61.24 478.665 63.04ZM490.189 68H487.409L490.809 63.16L487.409 58.12H490.249L492.429 61.48L494.529 58.12H497.269L493.909 63.12L497.169 68H494.369L492.269 64.74L490.189 68ZM500.143 56.14C499.303 56.14 498.643 55.48 498.643 54.66C498.643 53.84 499.303 53.2 500.143 53.2C500.943 53.2 501.603 53.84 501.603 54.66C501.603 55.48 500.943 56.14 500.143 56.14ZM498.923 68V58.12H501.363V68H498.923ZM503.504 63.04C503.504 59.98 505.524 57.82 508.444 57.82C511.144 57.82 512.984 59.32 513.244 61.7H510.804C510.524 60.58 509.704 60 508.544 60C506.984 60 505.944 61.18 505.944 63.04C505.944 64.9 506.904 66.06 508.464 66.06C509.684 66.06 510.544 65.46 510.804 64.38H513.264C512.964 66.68 511.044 68.26 508.464 68.26C505.464 68.26 503.504 66.18 503.504 63.04ZM516.5 56.14C515.66 56.14 515 55.48 515 54.66C515 53.84 515.66 53.2 516.5 53.2C517.3 53.2 517.96 53.84 517.96 54.66C517.96 55.48 517.3 56.14 516.5 56.14ZM515.28 68V58.12H517.72V68H515.28ZM523.801 68H521.361V60.16H519.461V58.12H521.361V55.04H523.801V58.12H525.721V60.16H523.801V68ZM526.578 72.58V70.54H528.038C528.998 70.54 529.598 70.32 530.018 69.16L530.298 68.42L526.318 58.12H528.898L531.438 65.32L534.118 58.12H536.638L531.798 70.2C531.058 72.04 530.018 72.8 528.398 72.8C527.718 72.8 527.118 72.72 526.578 72.58Z" fill="white"/>
<path id="Vector 2236" d="M317 61H385" stroke="white" stroke-width="3" stroke-linecap="round"/>
</g>
<g id="1_TEXT">
<path id="Thyroid disease" d="M57.34 133.74V131.38H68.46V133.74H64.18V146H61.62V133.74H57.34ZM72.6969 146H70.2569V131.12H72.7169V137.4C73.3369 136.44 74.4969 135.82 75.9169 135.82C78.3569 135.82 79.6369 137.36 79.6369 139.92V146H77.1969V140.5C77.1969 138.84 76.3769 138.04 75.1369 138.04C73.5969 138.04 72.6969 139.12 72.6969 140.6V146ZM81.1789 150.58V148.54H82.6389C83.5989 148.54 84.1989 148.32 84.6189 147.16L84.8989 146.42L80.9189 136.12H83.4989L86.0389 143.32L88.7189 136.12H91.2389L86.3989 148.2C85.6589 150.04 84.6189 150.8 82.9989 150.8C82.3189 150.8 81.7189 150.72 81.1789 150.58ZM99.0248 136.08V138.34H98.1248C96.3648 138.34 95.2648 139.28 95.2648 141.2V146H92.8248V136.14H95.1248L95.2648 137.58C95.6848 136.6 96.6248 135.94 97.9448 135.94C98.2848 135.94 98.6248 135.98 99.0248 136.08ZM99.9644 141.04C99.9644 137.96 102.184 135.84 105.244 135.84C108.304 135.84 110.524 137.96 110.524 141.04C110.524 144.12 108.304 146.24 105.244 146.24C102.184 146.24 99.9644 144.12 99.9644 141.04ZM102.404 141.04C102.404 142.84 103.564 144.06 105.244 144.06C106.924 144.06 108.084 142.84 108.084 141.04C108.084 139.24 106.924 138.02 105.244 138.02C103.564 138.02 102.404 139.24 102.404 141.04ZM113.878 134.14C113.038 134.14 112.378 133.48 112.378 132.66C112.378 131.84 113.038 131.2 113.878 131.2C114.678 131.2 115.338 131.84 115.338 132.66C115.338 133.48 114.678 134.14 113.878 134.14ZM112.658 146V136.12H115.098V146H112.658ZM121.879 146.26C119.019 146.26 117.239 144.16 117.239 141.1C117.239 138.02 119.039 135.82 122.019 135.82C123.399 135.82 124.619 136.4 125.239 137.38V131.12H127.659V146H125.419L125.259 144.46C124.659 145.6 123.379 146.26 121.879 146.26ZM122.419 144.02C124.119 144.02 125.219 142.8 125.219 141.02C125.219 139.24 124.119 138 122.419 138C120.719 138 119.679 139.26 119.679 141.02C119.679 142.78 120.719 144.02 122.419 144.02ZM140.053 146.26C137.193 146.26 135.413 144.16 135.413 141.1C135.413 138.02 137.213 135.82 140.193 135.82C141.573 135.82 142.793 136.4 143.413 137.38V131.12H145.833V146H143.593L143.433 144.46C142.833 145.6 141.553 146.26 140.053 146.26ZM140.593 144.02C142.293 144.02 143.393 142.8 143.393 141.02C143.393 139.24 142.293 138 140.593 138C138.893 138 137.853 139.26 137.853 141.02C137.853 142.78 138.893 144.02 140.593 144.02ZM149.796 134.14C148.956 134.14 148.296 133.48 148.296 132.66C148.296 131.84 148.956 131.2 149.796 131.2C150.596 131.2 151.256 131.84 151.256 132.66C151.256 133.48 150.596 134.14 149.796 134.14ZM148.576 146V136.12H151.016V146H148.576ZM152.977 143H155.297C155.317 143.86 155.957 144.4 157.077 144.4C158.217 144.4 158.837 143.94 158.837 143.22C158.837 142.72 158.577 142.36 157.697 142.16L155.917 141.74C154.137 141.34 153.277 140.5 153.277 138.92C153.277 136.98 154.917 135.82 157.197 135.82C159.417 135.82 160.917 137.1 160.937 139.02H158.617C158.597 138.18 158.037 137.64 157.097 137.64C156.137 137.64 155.577 138.08 155.577 138.82C155.577 139.38 156.017 139.74 156.857 139.94L158.637 140.36C160.297 140.74 161.137 141.5 161.137 143.02C161.137 145.02 159.437 146.26 156.997 146.26C154.537 146.26 152.977 144.94 152.977 143ZM167.614 146.26C164.674 146.26 162.614 144.12 162.614 141.06C162.614 137.96 164.634 135.82 167.534 135.82C170.494 135.82 172.374 137.8 172.374 140.88V141.62L164.934 141.64C165.114 143.38 166.034 144.26 167.654 144.26C168.994 144.26 169.874 143.74 170.154 142.8H172.414C171.994 144.96 170.194 146.26 167.614 146.26ZM167.554 137.82C166.114 137.82 165.234 138.6 164.994 140.08H169.954C169.954 138.72 169.014 137.82 167.554 137.82ZM177.37 146.26C175.27 146.26 173.99 145.04 173.99 143.18C173.99 141.36 175.31 140.22 177.65 140.04L180.61 139.82V139.6C180.61 138.26 179.81 137.72 178.57 137.72C177.13 137.72 176.33 138.32 176.33 139.36H174.25C174.25 137.22 176.01 135.82 178.69 135.82C181.35 135.82 182.99 137.26 182.99 140V146H180.85L180.67 144.54C180.25 145.56 178.91 146.26 177.37 146.26ZM178.17 144.42C179.67 144.42 180.63 143.52 180.63 142V141.48L178.57 141.64C177.05 141.78 176.47 142.28 176.47 143.08C176.47 143.98 177.07 144.42 178.17 144.42ZM184.827 143H187.147C187.167 143.86 187.807 144.4 188.927 144.4C190.067 144.4 190.687 143.94 190.687 143.22C190.687 142.72 190.427 142.36 189.547 142.16L187.767 141.74C185.987 141.34 185.127 140.5 185.127 138.92C185.127 136.98 186.767 135.82 189.047 135.82C191.267 135.82 192.767 137.1 192.787 139.02H190.467C190.447 138.18 189.887 137.64 188.947 137.64C187.987 137.64 187.427 138.08 187.427 138.82C187.427 139.38 187.867 139.74 188.707 139.94L190.487 140.36C192.147 140.74 192.987 141.5 192.987 143.02C192.987 145.02 191.287 146.26 188.847 146.26C186.387 146.26 184.827 144.94 184.827 143ZM199.464 146.26C196.524 146.26 194.464 144.12 194.464 141.06C194.464 137.96 196.484 135.82 199.384 135.82C202.344 135.82 204.224 137.8 204.224 140.88V141.62L196.784 141.64C196.964 143.38 197.884 144.26 199.504 144.26C200.844 144.26 201.724 143.74 202.004 142.8H204.264C203.844 144.96 202.044 146.26 199.464 146.26ZM199.404 137.82C197.964 137.82 197.084 138.6 196.844 140.08H201.804C201.804 138.72 200.864 137.82 199.404 137.82Z" fill="white"/>
<path id="Vector 2245" d="M214 140L298 140" stroke="white" stroke-width="3" stroke-linecap="round"/>
</g>
<g id="2_TEXT">
<path id="Increased cholesterol level" d="M455.18 222.38V237H452.62V222.38H455.18ZM460.701 237H458.261V227.12H460.521L460.721 228.4C461.341 227.4 462.541 226.82 463.881 226.82C466.361 226.82 467.641 228.36 467.641 230.92V237H465.201V231.5C465.201 229.84 464.381 229.04 463.121 229.04C461.621 229.04 460.701 230.08 460.701 231.68V237ZM469.658 232.04C469.658 228.98 471.678 226.82 474.598 226.82C477.298 226.82 479.138 228.32 479.398 230.7H476.958C476.678 229.58 475.858 229 474.698 229C473.138 229 472.098 230.18 472.098 232.04C472.098 233.9 473.058 235.06 474.618 235.06C475.838 235.06 476.698 234.46 476.958 233.38H479.418C479.118 235.68 477.198 237.26 474.618 237.26C471.618 237.26 469.658 235.18 469.658 232.04ZM487.634 227.08V229.34H486.734C484.974 229.34 483.874 230.28 483.874 232.2V237H481.434V227.14H483.734L483.874 228.58C484.294 227.6 485.234 226.94 486.554 226.94C486.894 226.94 487.234 226.98 487.634 227.08ZM493.574 237.26C490.634 237.26 488.574 235.12 488.574 232.06C488.574 228.96 490.594 226.82 493.494 226.82C496.454 226.82 498.334 228.8 498.334 231.88V232.62L490.894 232.64C491.074 234.38 491.994 235.26 493.614 235.26C494.954 235.26 495.834 234.74 496.114 233.8H498.374C497.954 235.96 496.154 237.26 493.574 237.26ZM493.514 228.82C492.074 228.82 491.194 229.6 490.954 231.08H495.914C495.914 229.72 494.974 228.82 493.514 228.82ZM503.329 237.26C501.229 237.26 499.949 236.04 499.949 234.18C499.949 232.36 501.269 231.22 503.609 231.04L506.569 230.82V230.6C506.569 229.26 505.769 228.72 504.529 228.72C503.089 228.72 502.289 229.32 502.289 230.36H500.209C500.209 228.22 501.969 226.82 504.649 226.82C507.309 226.82 508.949 228.26 508.949 231V237H506.809L506.629 235.54C506.209 236.56 504.869 237.26 503.329 237.26ZM504.129 235.42C505.629 235.42 506.589 234.52 506.589 233V232.48L504.529 232.64C503.009 232.78 502.429 233.28 502.429 234.08C502.429 234.98 503.029 235.42 504.129 235.42ZM510.786 234H513.106C513.126 234.86 513.766 235.4 514.886 235.4C516.026 235.4 516.646 234.94 516.646 234.22C516.646 233.72 516.386 233.36 515.506 233.16L513.726 232.74C511.946 232.34 511.086 231.5 511.086 229.92C511.086 227.98 512.726 226.82 515.006 226.82C517.226 226.82 518.726 228.1 518.746 230.02H516.426C516.406 229.18 515.846 228.64 514.906 228.64C513.946 228.64 513.386 229.08 513.386 229.82C513.386 230.38 513.826 230.74 514.666 230.94L516.446 231.36C518.106 231.74 518.946 232.5 518.946 234.02C518.946 236.02 517.246 237.26 514.806 237.26C512.346 237.26 510.786 235.94 510.786 234ZM525.424 237.26C522.484 237.26 520.424 235.12 520.424 232.06C520.424 228.96 522.444 226.82 525.344 226.82C528.304 226.82 530.184 228.8 530.184 231.88V232.62L522.744 232.64C522.924 234.38 523.844 235.26 525.464 235.26C526.804 235.26 527.684 234.74 527.964 233.8H530.224C529.804 235.96 528.004 237.26 525.424 237.26ZM525.364 228.82C523.924 228.82 523.044 229.6 522.804 231.08H527.764C527.764 229.72 526.824 228.82 525.364 228.82ZM536.397 237.26C533.537 237.26 531.757 235.16 531.757 232.1C531.757 229.02 533.557 226.82 536.537 226.82C537.917 226.82 539.137 227.4 539.757 228.38V222.12H542.177V237H539.937L539.777 235.46C539.177 236.6 537.897 237.26 536.397 237.26ZM536.937 235.02C538.637 235.02 539.737 233.8 539.737 232.02C539.737 230.24 538.637 229 536.937 229C535.237 229 534.197 230.26 534.197 232.02C534.197 233.78 535.237 235.02 536.937 235.02ZM451.68 258.04C451.68 254.98 453.7 252.82 456.62 252.82C459.32 252.82 461.16 254.32 461.42 256.7H458.98C458.7 255.58 457.88 255 456.72 255C455.16 255 454.12 256.18 454.12 258.04C454.12 259.9 455.08 261.06 456.64 261.06C457.86 261.06 458.72 260.46 458.98 259.38H461.44C461.14 261.68 459.22 263.26 456.64 263.26C453.64 263.26 451.68 261.18 451.68 258.04ZM465.896 263H463.456V248.12H465.916V254.4C466.536 253.44 467.696 252.82 469.116 252.82C471.556 252.82 472.836 254.36 472.836 256.92V263H470.396V257.5C470.396 255.84 469.576 255.04 468.336 255.04C466.796 255.04 465.896 256.12 465.896 257.6V263ZM474.853 258.04C474.853 254.96 477.073 252.84 480.133 252.84C483.193 252.84 485.413 254.96 485.413 258.04C485.413 261.12 483.193 263.24 480.133 263.24C477.073 263.24 474.853 261.12 474.853 258.04ZM477.293 258.04C477.293 259.84 478.453 261.06 480.133 261.06C481.813 261.06 482.973 259.84 482.973 258.04C482.973 256.24 481.813 255.02 480.133 255.02C478.453 255.02 477.293 256.24 477.293 258.04ZM490.007 263H487.587V248.12H490.007V263ZM497.187 263.26C494.247 263.26 492.187 261.12 492.187 258.06C492.187 254.96 494.207 252.82 497.107 252.82C500.067 252.82 501.947 254.8 501.947 257.88V258.62L494.507 258.64C494.687 260.38 495.607 261.26 497.227 261.26C498.567 261.26 499.447 260.74 499.727 259.8H501.987C501.567 261.96 499.767 263.26 497.187 263.26ZM497.127 254.82C495.687 254.82 494.807 255.6 494.567 257.08H499.527C499.527 255.72 498.587 254.82 497.127 254.82ZM503.34 260H505.66C505.68 260.86 506.32 261.4 507.44 261.4C508.58 261.4 509.2 260.94 509.2 260.22C509.2 259.72 508.94 259.36 508.06 259.16L506.28 258.74C504.5 258.34 503.64 257.5 503.64 255.92C503.64 253.98 505.28 252.82 507.56 252.82C509.78 252.82 511.28 254.1 511.3 256.02H508.98C508.96 255.18 508.4 254.64 507.46 254.64C506.5 254.64 505.94 255.08 505.94 255.82C505.94 256.38 506.38 256.74 507.22 256.94L509 257.36C510.66 257.74 511.5 258.5 511.5 260.02C511.5 262.02 509.8 263.26 507.36 263.26C504.9 263.26 503.34 261.94 503.34 260ZM516.918 263H514.478V255.16H512.578V253.12H514.478V250.04H516.918V253.12H518.838V255.16H516.918V263ZM524.877 263.26C521.937 263.26 519.877 261.12 519.877 258.06C519.877 254.96 521.897 252.82 524.797 252.82C527.757 252.82 529.637 254.8 529.637 257.88V258.62L522.197 258.64C522.377 260.38 523.297 261.26 524.917 261.26C526.257 261.26 527.137 260.74 527.417 259.8H529.677C529.257 261.96 527.457 263.26 524.877 263.26ZM524.817 254.82C523.377 254.82 522.497 255.6 522.257 257.08H527.217C527.217 255.72 526.277 254.82 524.817 254.82ZM537.99 253.08V255.34H537.09C535.33 255.34 534.23 256.28 534.23 258.2V263H531.79V253.14H534.09L534.23 254.58C534.65 253.6 535.59 252.94 536.91 252.94C537.25 252.94 537.59 252.98 537.99 253.08ZM538.929 258.04C538.929 254.96 541.149 252.84 544.209 252.84C547.269 252.84 549.489 254.96 549.489 258.04C549.489 261.12 547.269 263.24 544.209 263.24C541.149 263.24 538.929 261.12 538.929 258.04ZM541.369 258.04C541.369 259.84 542.529 261.06 544.209 261.06C545.889 261.06 547.049 259.84 547.049 258.04C547.049 256.24 545.889 255.02 544.209 255.02C542.529 255.02 541.369 256.24 541.369 258.04ZM554.083 263H551.663V248.12H554.083V263ZM564.893 263H562.473V248.12H564.893V263ZM572.073 263.26C569.133 263.26 567.073 261.12 567.073 258.06C567.073 254.96 569.093 252.82 571.993 252.82C574.953 252.82 576.833 254.8 576.833 257.88V258.62L569.393 258.64C569.573 260.38 570.493 261.26 572.113 261.26C573.453 261.26 574.333 260.74 574.613 259.8H576.873C576.453 261.96 574.653 263.26 572.073 263.26ZM572.013 254.82C570.573 254.82 569.693 255.6 569.453 257.08H574.413C574.413 255.72 573.473 254.82 572.013 254.82ZM581.356 263L577.436 253.12H580.036L581.756 257.66C582.176 258.84 582.516 259.86 582.636 260.4C582.776 259.78 583.136 258.74 583.556 257.66L585.356 253.12H587.876L583.756 263H581.356ZM593.41 263.26C590.47 263.26 588.41 261.12 588.41 258.06C588.41 254.96 590.43 252.82 593.33 252.82C596.29 252.82 598.17 254.8 598.17 257.88V258.62L590.73 258.64C590.91 260.38 591.83 261.26 593.45 261.26C594.79 261.26 595.67 260.74 595.95 259.8H598.21C597.79 261.96 595.99 263.26 593.41 263.26ZM593.35 254.82C591.91 254.82 591.03 255.6 590.79 257.08H595.75C595.75 255.72 594.81 254.82 593.35 254.82ZM602.783 263H600.363V248.12H602.783V263Z" fill="white"/>
<path id="Vector 2246" d="M361 245L442 245" stroke="white" stroke-width="3" stroke-linecap="round"/>
</g>
<g id="3_TEXT">
<path id="Liver damage" d="M77.2378 322.38V334.64H83.3578V337H74.6778V322.38H77.2378ZM86.4995 325.14C85.6595 325.14 84.9995 324.48 84.9995 323.66C84.9995 322.84 85.6595 322.2 86.4995 322.2C87.2995 322.2 87.9595 322.84 87.9595 323.66C87.9595 324.48 87.2995 325.14 86.4995 325.14ZM85.2795 337V327.12H87.7195V337H85.2795ZM93.2405 337L89.3205 327.12H91.9205L93.6405 331.66C94.0605 332.84 94.4005 333.86 94.5205 334.4C94.6605 333.78 95.0205 332.74 95.4405 331.66L97.2405 327.12H99.7605L95.6405 337H93.2405ZM105.295 337.26C102.355 337.26 100.295 335.12 100.295 332.06C100.295 328.96 102.315 326.82 105.215 326.82C108.175 326.82 110.055 328.8 110.055 331.88V332.62L102.615 332.64C102.795 334.38 103.715 335.26 105.335 335.26C106.675 335.26 107.555 334.74 107.835 333.8H110.095C109.675 335.96 107.875 337.26 105.295 337.26ZM105.235 328.82C103.795 328.82 102.915 329.6 102.675 331.08H107.635C107.635 329.72 106.695 328.82 105.235 328.82ZM118.408 327.08V329.34H117.508C115.748 329.34 114.648 330.28 114.648 332.2V337H112.208V327.14H114.508L114.648 328.58C115.068 327.6 116.008 326.94 117.328 326.94C117.668 326.94 118.008 326.98 118.408 327.08ZM129.91 337.26C127.05 337.26 125.27 335.16 125.27 332.1C125.27 329.02 127.07 326.82 130.05 326.82C131.43 326.82 132.65 327.4 133.27 328.38V322.12H135.69V337H133.45L133.29 335.46C132.69 336.6 131.41 337.26 129.91 337.26ZM130.45 335.02C132.15 335.02 133.25 333.8 133.25 332.02C133.25 330.24 132.15 329 130.45 329C128.75 329 127.71 330.26 127.71 332.02C127.71 333.78 128.75 335.02 130.45 335.02ZM141.373 337.26C139.273 337.26 137.993 336.04 137.993 334.18C137.993 332.36 139.313 331.22 141.653 331.04L144.613 330.82V330.6C144.613 329.26 143.813 328.72 142.573 328.72C141.133 328.72 140.333 329.32 140.333 330.36H138.253C138.253 328.22 140.013 326.82 142.693 326.82C145.353 326.82 146.993 328.26 146.993 331V337H144.853L144.673 335.54C144.253 336.56 142.913 337.26 141.373 337.26ZM142.173 335.42C143.673 335.42 144.633 334.52 144.633 333V332.48L142.573 332.64C141.053 332.78 140.473 333.28 140.473 334.08C140.473 334.98 141.073 335.42 142.173 335.42ZM152.03 337H149.59V327.12H151.83L152.03 328.28C152.53 327.46 153.53 326.82 154.95 326.82C156.45 326.82 157.49 327.56 158.01 328.7C158.51 327.56 159.67 326.82 161.17 326.82C163.57 326.82 164.89 328.26 164.89 330.54V337H162.47V331.18C162.47 329.76 161.71 329.02 160.55 329.02C159.37 329.02 158.47 329.78 158.47 331.4V337H156.03V331.16C156.03 329.78 155.29 329.04 154.13 329.04C152.97 329.04 152.03 329.8 152.03 331.4V337ZM170.425 337.26C168.325 337.26 167.045 336.04 167.045 334.18C167.045 332.36 168.365 331.22 170.705 331.04L173.665 330.82V330.6C173.665 329.26 172.865 328.72 171.625 328.72C170.185 328.72 169.385 329.32 169.385 330.36H167.305C167.305 328.22 169.065 326.82 171.745 326.82C174.405 326.82 176.045 328.26 176.045 331V337H173.905L173.725 335.54C173.305 336.56 171.965 337.26 170.425 337.26ZM171.225 335.42C172.725 335.42 173.685 334.52 173.685 333V332.48L171.625 332.64C170.105 332.78 169.525 333.28 169.525 334.08C169.525 334.98 170.125 335.42 171.225 335.42ZM178.082 331.84C178.082 328.96 179.962 326.8 182.782 326.8C184.262 326.8 185.422 327.42 186.002 328.48L186.142 327.12H188.402V336.5C188.402 339.8 186.422 341.86 183.222 341.86C180.382 341.86 178.442 340.24 178.142 337.6H180.582C180.742 338.88 181.722 339.64 183.222 339.64C184.902 339.64 185.982 338.58 185.982 336.94V335.3C185.362 336.22 184.142 336.8 182.722 336.8C179.922 336.8 178.082 334.7 178.082 331.84ZM180.542 331.78C180.542 333.44 181.602 334.68 183.202 334.68C184.882 334.68 185.922 333.5 185.922 331.78C185.922 330.1 184.902 328.94 183.202 328.94C181.582 328.94 180.542 330.16 180.542 331.78ZM195.547 337.26C192.607 337.26 190.547 335.12 190.547 332.06C190.547 328.96 192.567 326.82 195.467 326.82C198.427 326.82 200.307 328.8 200.307 331.88V332.62L192.867 332.64C193.047 334.38 193.967 335.26 195.587 335.26C196.927 335.26 197.807 334.74 198.087 333.8H200.347C199.927 335.96 198.127 337.26 195.547 337.26ZM195.487 328.82C194.047 328.82 193.167 329.6 192.927 331.08H197.887C197.887 329.72 196.947 328.82 195.487 328.82Z" fill="white"/>
<path id="Vector 2248" d="M211 332L274 332" stroke="white" stroke-width="3" stroke-linecap="round"/>
</g>
<g id="4_TEXT">
<path id="Kidney and testicular cancer" d="M449.18 297.38V305.06L455.1 297.38H458.12L453.28 303.62L458.18 312H455.22L451.6 305.78L449.18 308.88V312H446.62V297.38H449.18ZM461.157 300.14C460.317 300.14 459.657 299.48 459.657 298.66C459.657 297.84 460.317 297.2 461.157 297.2C461.957 297.2 462.617 297.84 462.617 298.66C462.617 299.48 461.957 300.14 461.157 300.14ZM459.937 312V302.12H462.377V312H459.937ZM469.157 312.26C466.297 312.26 464.517 310.16 464.517 307.1C464.517 304.02 466.317 301.82 469.297 301.82C470.677 301.82 471.898 302.4 472.517 303.38V297.12H474.937V312H472.697L472.538 310.46C471.938 311.6 470.658 312.26 469.157 312.26ZM469.697 310.02C471.398 310.02 472.498 308.8 472.498 307.02C472.498 305.24 471.398 304 469.697 304C467.997 304 466.957 305.26 466.957 307.02C466.957 308.78 467.997 310.02 469.697 310.02ZM480.12 312H477.68V302.12H479.94L480.14 303.4C480.76 302.4 481.96 301.82 483.3 301.82C485.78 301.82 487.06 303.36 487.06 305.92V312H484.62V306.5C484.62 304.84 483.8 304.04 482.54 304.04C481.04 304.04 480.12 305.08 480.12 306.68V312ZM494.078 312.26C491.138 312.26 489.078 310.12 489.078 307.06C489.078 303.96 491.098 301.82 493.998 301.82C496.958 301.82 498.838 303.8 498.838 306.88V307.62L491.398 307.64C491.578 309.38 492.498 310.26 494.118 310.26C495.458 310.26 496.338 309.74 496.618 308.8H498.878C498.458 310.96 496.658 312.26 494.078 312.26ZM494.018 303.82C492.578 303.82 491.698 304.6 491.458 306.08H496.418C496.418 304.72 495.478 303.82 494.018 303.82ZM499.798 316.58V314.54H501.258C502.218 314.54 502.818 314.32 503.238 313.16L503.518 312.42L499.538 302.12H502.118L504.658 309.32L507.338 302.12H509.858L505.018 314.2C504.278 316.04 503.238 316.8 501.618 316.8C500.938 316.8 500.338 316.72 499.798 316.58ZM519.975 312.26C517.875 312.26 516.595 311.04 516.595 309.18C516.595 307.36 517.915 306.22 520.255 306.04L523.215 305.82V305.6C523.215 304.26 522.415 303.72 521.175 303.72C519.735 303.72 518.935 304.32 518.935 305.36H516.855C516.855 303.22 518.615 301.82 521.295 301.82C523.955 301.82 525.595 303.26 525.595 306V312H523.455L523.275 310.54C522.855 311.56 521.515 312.26 519.975 312.26ZM520.775 310.42C522.275 310.42 523.235 309.52 523.235 308V307.48L521.175 307.64C519.655 307.78 519.075 308.28 519.075 309.08C519.075 309.98 519.675 310.42 520.775 310.42ZM530.632 312H528.192V302.12H530.452L530.652 303.4C531.272 302.4 532.472 301.82 533.812 301.82C536.292 301.82 537.572 303.36 537.572 305.92V312H535.132V306.5C535.132 304.84 534.312 304.04 533.052 304.04C531.552 304.04 530.632 305.08 530.632 306.68V312ZM544.229 312.26C541.369 312.26 539.589 310.16 539.589 307.1C539.589 304.02 541.389 301.82 544.369 301.82C545.749 301.82 546.969 302.4 547.589 303.38V297.12H550.009V312H547.769L547.609 310.46C547.009 311.6 545.729 312.26 544.229 312.26ZM544.769 310.02C546.469 310.02 547.569 308.8 547.569 307.02C547.569 305.24 546.469 304 544.769 304C543.069 304 542.029 305.26 542.029 307.02C542.029 308.78 543.069 310.02 544.769 310.02ZM449.62 338H447.18V330.16H445.28V328.12H447.18V325.04H449.62V328.12H451.54V330.16H449.62V338ZM457.579 338.26C454.639 338.26 452.579 336.12 452.579 333.06C452.579 329.96 454.599 327.82 457.499 327.82C460.459 327.82 462.339 329.8 462.339 332.88V333.62L454.899 333.64C455.079 335.38 455.999 336.26 457.619 336.26C458.959 336.26 459.839 335.74 460.119 334.8H462.379C461.959 336.96 460.159 338.26 457.579 338.26ZM457.519 329.82C456.079 329.82 455.199 330.6 454.959 332.08H459.919C459.919 330.72 458.979 329.82 457.519 329.82ZM463.732 335H466.052C466.072 335.86 466.712 336.4 467.832 336.4C468.972 336.4 469.592 335.94 469.592 335.22C469.592 334.72 469.332 334.36 468.452 334.16L466.672 333.74C464.892 333.34 464.032 332.5 464.032 330.92C464.032 328.98 465.672 327.82 467.952 327.82C470.172 327.82 471.672 329.1 471.692 331.02H469.372C469.352 330.18 468.792 329.64 467.852 329.64C466.892 329.64 466.332 330.08 466.332 330.82C466.332 331.38 466.772 331.74 467.612 331.94L469.392 332.36C471.052 332.74 471.892 333.5 471.892 335.02C471.892 337.02 470.192 338.26 467.752 338.26C465.292 338.26 463.732 336.94 463.732 335ZM477.31 338H474.87V330.16H472.97V328.12H474.87V325.04H477.31V328.12H479.23V330.16H477.31V338ZM482.167 326.14C481.327 326.14 480.667 325.48 480.667 324.66C480.667 323.84 481.327 323.2 482.167 323.2C482.967 323.2 483.627 323.84 483.627 324.66C483.627 325.48 482.967 326.14 482.167 326.14ZM480.947 338V328.12H483.387V338H480.947ZM485.528 333.04C485.528 329.98 487.548 327.82 490.468 327.82C493.168 327.82 495.008 329.32 495.268 331.7H492.828C492.548 330.58 491.728 330 490.568 330C489.008 330 487.968 331.18 487.968 333.04C487.968 334.9 488.928 336.06 490.488 336.06C491.708 336.06 492.568 335.46 492.828 334.38H495.288C494.988 336.68 493.068 338.26 490.488 338.26C487.488 338.26 485.528 336.18 485.528 333.04ZM504.004 328.12H506.444V338H504.184L504.004 336.68C503.404 337.62 502.124 338.26 500.804 338.26C498.524 338.26 497.184 336.72 497.184 334.3V328.12H499.624V333.44C499.624 335.32 500.364 336.08 501.724 336.08C503.264 336.08 504.004 335.18 504.004 333.3V328.12ZM511.624 338H509.204V323.12H511.624V338ZM517.323 338.26C515.223 338.26 513.943 337.04 513.943 335.18C513.943 333.36 515.263 332.22 517.603 332.04L520.563 331.82V331.6C520.563 330.26 519.763 329.72 518.523 329.72C517.083 329.72 516.283 330.32 516.283 331.36H514.203C514.203 329.22 515.963 327.82 518.643 327.82C521.303 327.82 522.943 329.26 522.943 332V338H520.803L520.623 336.54C520.203 337.56 518.863 338.26 517.323 338.26ZM518.123 336.42C519.623 336.42 520.583 335.52 520.583 334V333.48L518.523 333.64C517.003 333.78 516.423 334.28 516.423 335.08C516.423 335.98 517.023 336.42 518.123 336.42ZM531.74 328.08V330.34H530.84C529.08 330.34 527.98 331.28 527.98 333.2V338H525.54V328.14H527.84L527.98 329.58C528.4 328.6 529.34 327.94 530.66 327.94C531 327.94 531.34 327.98 531.74 328.08ZM538.603 333.04C538.603 329.98 540.623 327.82 543.543 327.82C546.243 327.82 548.083 329.32 548.343 331.7H545.903C545.623 330.58 544.803 330 543.643 330C542.083 330 541.043 331.18 541.043 333.04C541.043 334.9 542.003 336.06 543.563 336.06C544.783 336.06 545.643 335.46 545.903 334.38H548.363C548.063 336.68 546.143 338.26 543.563 338.26C540.563 338.26 538.603 336.18 538.603 333.04ZM553.319 338.26C551.219 338.26 549.939 337.04 549.939 335.18C549.939 333.36 551.259 332.22 553.599 332.04L556.559 331.82V331.6C556.559 330.26 555.759 329.72 554.519 329.72C553.079 329.72 552.279 330.32 552.279 331.36H550.199C550.199 329.22 551.959 327.82 554.639 327.82C557.299 327.82 558.939 329.26 558.939 332V338H556.799L556.619 336.54C556.199 337.56 554.859 338.26 553.319 338.26ZM554.119 336.42C555.619 336.42 556.579 335.52 556.579 334V333.48L554.519 333.64C552.999 333.78 552.419 334.28 552.419 335.08C552.419 335.98 553.019 336.42 554.119 336.42ZM563.976 338H561.536V328.12H563.796L563.996 329.4C564.616 328.4 565.816 327.82 567.156 327.82C569.636 327.82 570.916 329.36 570.916 331.92V338H568.476V332.5C568.476 330.84 567.656 330.04 566.396 330.04C564.896 330.04 563.976 331.08 563.976 332.68V338ZM572.933 333.04C572.933 329.98 574.953 327.82 577.873 327.82C580.573 327.82 582.413 329.32 582.673 331.7H580.233C579.953 330.58 579.133 330 577.973 330C576.413 330 575.373 331.18 575.373 333.04C575.373 334.9 576.333 336.06 577.893 336.06C579.113 336.06 579.973 335.46 580.233 334.38H582.693C582.393 336.68 580.473 338.26 577.893 338.26C574.893 338.26 572.933 336.18 572.933 333.04ZM589.129 338.26C586.189 338.26 584.129 336.12 584.129 333.06C584.129 329.96 586.149 327.82 589.049 327.82C592.009 327.82 593.889 329.8 593.889 332.88V333.62L586.449 333.64C586.629 335.38 587.549 336.26 589.169 336.26C590.509 336.26 591.389 335.74 591.669 334.8H593.929C593.509 336.96 591.709 338.26 589.129 338.26ZM589.069 329.82C587.629 329.82 586.749 330.6 586.509 332.08H591.469C591.469 330.72 590.529 329.82 589.069 329.82ZM602.242 328.08V330.34H601.342C599.582 330.34 598.482 331.28 598.482 333.2V338H596.042V328.14H598.342L598.482 329.58C598.902 328.6 599.842 327.94 601.162 327.94C601.502 327.94 601.842 327.98 602.242 328.08Z" fill="white"/>
<path id="Vector 2249" d="M340 320L438 320" stroke="white" stroke-width="3" stroke-linecap="round"/>
</g>
<g id="5_TEXT">
<path id="Development toxicity" d="M52.3769 398H47.1169V383.38H52.2369C56.5569 383.38 59.5369 386.36 59.5369 390.72C59.5369 395.02 56.6169 398 52.3769 398ZM51.9969 385.74H49.6769V395.64H52.1369C55.0569 395.64 56.8369 393.76 56.8369 390.72C56.8369 387.62 55.0169 385.74 51.9969 385.74ZM66.1816 398.26C63.2416 398.26 61.1816 396.12 61.1816 393.06C61.1816 389.96 63.2016 387.82 66.1016 387.82C69.0616 387.82 70.9416 389.8 70.9416 392.88V393.62L63.5016 393.64C63.6816 395.38 64.6016 396.26 66.2216 396.26C67.5616 396.26 68.4416 395.74 68.7216 394.8H70.9816C70.5616 396.96 68.7616 398.26 66.1816 398.26ZM66.1216 389.82C64.6816 389.82 63.8016 390.6 63.5616 392.08H68.5216C68.5216 390.72 67.5816 389.82 66.1216 389.82ZM75.4647 398L71.5447 388.12H74.1447L75.8647 392.66C76.2847 393.84 76.6247 394.86 76.7447 395.4C76.8847 394.78 77.2447 393.74 77.6647 392.66L79.4647 388.12H81.9847L77.8647 398H75.4647ZM87.5191 398.26C84.5791 398.26 82.5191 396.12 82.5191 393.06C82.5191 389.96 84.5391 387.82 87.4391 387.82C90.3991 387.82 92.2791 389.8 92.2791 392.88V393.62L84.8391 393.64C85.0191 395.38 85.9391 396.26 87.5591 396.26C88.8991 396.26 89.7791 395.74 90.0591 394.8H92.3191C91.8991 396.96 90.0991 398.26 87.5191 398.26ZM87.4591 389.82C86.0191 389.82 85.1391 390.6 84.8991 392.08H89.8591C89.8591 390.72 88.9191 389.82 87.4591 389.82ZM96.8919 398H94.4719V383.12H96.8919V398ZM99.0714 393.04C99.0714 389.96 101.291 387.84 104.351 387.84C107.411 387.84 109.631 389.96 109.631 393.04C109.631 396.12 107.411 398.24 104.351 398.24C101.291 398.24 99.0714 396.12 99.0714 393.04ZM101.511 393.04C101.511 394.84 102.671 396.06 104.351 396.06C106.031 396.06 107.191 394.84 107.191 393.04C107.191 391.24 106.031 390.02 104.351 390.02C102.671 390.02 101.511 391.24 101.511 393.04ZM111.765 402.58V388.12H114.025L114.185 389.62C114.785 388.48 116.085 387.82 117.585 387.82C120.365 387.82 122.205 389.84 122.205 392.94C122.205 396.02 120.525 398.26 117.585 398.26C116.105 398.26 114.825 397.68 114.205 396.68V402.58H111.765ZM114.225 393.06C114.225 394.84 115.325 396.06 117.005 396.06C118.725 396.06 119.745 394.82 119.745 393.06C119.745 391.3 118.725 390.04 117.005 390.04C115.325 390.04 114.225 391.28 114.225 393.06ZM126.788 398H124.348V388.12H126.588L126.788 389.28C127.288 388.46 128.288 387.82 129.708 387.82C131.208 387.82 132.248 388.56 132.768 389.7C133.268 388.56 134.428 387.82 135.928 387.82C138.328 387.82 139.648 389.26 139.648 391.54V398H137.228V392.18C137.228 390.76 136.468 390.02 135.308 390.02C134.128 390.02 133.228 390.78 133.228 392.4V398H130.788V392.16C130.788 390.78 130.048 390.04 128.888 390.04C127.728 390.04 126.788 390.8 126.788 392.4V398ZM146.664 398.26C143.724 398.26 141.664 396.12 141.664 393.06C141.664 389.96 143.684 387.82 146.584 387.82C149.544 387.82 151.424 389.8 151.424 392.88V393.62L143.984 393.64C144.164 395.38 145.084 396.26 146.704 396.26C148.044 396.26 148.924 395.74 149.204 394.8H151.464C151.044 396.96 149.244 398.26 146.664 398.26ZM146.604 389.82C145.164 389.82 144.284 390.6 144.044 392.08H149.004C149.004 390.72 148.064 389.82 146.604 389.82ZM156.016 398H153.576V388.12H155.836L156.036 389.4C156.656 388.4 157.856 387.82 159.196 387.82C161.676 387.82 162.956 389.36 162.956 391.92V398H160.516V392.5C160.516 390.84 159.696 390.04 158.436 390.04C156.936 390.04 156.016 391.08 156.016 392.68V398ZM168.914 398H166.474V390.16H164.574V388.12H166.474V385.04H168.914V388.12H170.834V390.16H168.914V398ZM181.501 398H179.061V390.16H177.161V388.12H179.061V385.04H181.501V388.12H183.421V390.16H181.501V398ZM184.46 393.04C184.46 389.96 186.68 387.84 189.74 387.84C192.8 387.84 195.02 389.96 195.02 393.04C195.02 396.12 192.8 398.24 189.74 398.24C186.68 398.24 184.46 396.12 184.46 393.04ZM186.9 393.04C186.9 394.84 188.06 396.06 189.74 396.06C191.42 396.06 192.58 394.84 192.58 393.04C192.58 391.24 191.42 390.02 189.74 390.02C188.06 390.02 186.9 391.24 186.9 393.04ZM198.425 398H195.645L199.045 393.16L195.645 388.12H198.485L200.665 391.48L202.765 388.12H205.505L202.145 393.12L205.405 398H202.605L200.505 394.74L198.425 398ZM208.379 386.14C207.539 386.14 206.879 385.48 206.879 384.66C206.879 383.84 207.539 383.2 208.379 383.2C209.179 383.2 209.839 383.84 209.839 384.66C209.839 385.48 209.179 386.14 208.379 386.14ZM207.159 398V388.12H209.599V398H207.159ZM211.74 393.04C211.74 389.98 213.76 387.82 216.68 387.82C219.38 387.82 221.22 389.32 221.48 391.7H219.04C218.76 390.58 217.94 390 216.78 390C215.22 390 214.18 391.18 214.18 393.04C214.18 394.9 215.14 396.06 216.7 396.06C217.92 396.06 218.78 395.46 219.04 394.38H221.5C221.2 396.68 219.28 398.26 216.7 398.26C213.7 398.26 211.74 396.18 211.74 393.04ZM224.736 386.14C223.896 386.14 223.236 385.48 223.236 384.66C223.236 383.84 223.896 383.2 224.736 383.2C225.536 383.2 226.196 383.84 226.196 384.66C226.196 385.48 225.536 386.14 224.736 386.14ZM223.516 398V388.12H225.956V398H223.516ZM232.037 398H229.597V390.16H227.697V388.12H229.597V385.04H232.037V388.12H233.957V390.16H232.037V398ZM234.814 402.58V400.54H236.274C237.234 400.54 237.834 400.32 238.254 399.16L238.534 398.42L234.554 388.12H237.134L239.674 395.32L242.354 388.12H244.874L240.034 400.2C239.294 402.04 238.254 402.8 236.634 402.8C235.954 402.8 235.354 402.72 234.814 402.58Z" fill="white"/>
<path id="Vector 2250" d="M252 394L297 394" stroke="white" stroke-width="3" stroke-linecap="round"/>
</g>
<g id="6_TEXT">
<path id="Effect on reproduction and fertililty" d="M401.7 413H392.62V398.38H401.7V400.74H395.18V404.5H401.02V406.76H395.18V410.64H401.7V413ZM403.335 403.12H404.755V401.92C404.755 399.24 406.155 398.12 408.295 398.12C408.675 398.12 409.135 398.14 409.555 398.22V400.3H408.695C407.455 400.3 407.175 400.94 407.175 401.92V403.12H411.215V401.92C411.215 399.24 412.615 398.12 414.755 398.12C415.155 398.12 415.595 398.14 416.015 398.22V400.3H415.175C413.935 400.3 413.635 400.94 413.635 401.92V403.12H415.995V405.16H413.635V413H411.215V405.16H407.175V413H404.755V405.16H403.335V403.12ZM421.885 413.26C418.945 413.26 416.885 411.12 416.885 408.06C416.885 404.96 418.905 402.82 421.805 402.82C424.765 402.82 426.645 404.8 426.645 407.88V408.62L419.205 408.64C419.385 410.38 420.305 411.26 421.925 411.26C423.265 411.26 424.145 410.74 424.425 409.8H426.685C426.265 411.96 424.465 413.26 421.885 413.26ZM421.825 404.82C420.385 404.82 419.505 405.6 419.265 407.08H424.225C424.225 405.72 423.285 404.82 421.825 404.82ZM428.217 408.04C428.217 404.98 430.237 402.82 433.157 402.82C435.857 402.82 437.697 404.32 437.957 406.7H435.517C435.237 405.58 434.417 405 433.257 405C431.697 405 430.657 406.18 430.657 408.04C430.657 409.9 431.617 411.06 433.177 411.06C434.397 411.06 435.257 410.46 435.517 409.38H437.977C437.677 411.68 435.757 413.26 433.177 413.26C430.177 413.26 428.217 411.18 428.217 408.04ZM443.354 413H440.914V405.16H439.014V403.12H440.914V400.04H443.354V403.12H445.274V405.16H443.354V413ZM452.001 408.04C452.001 404.96 454.221 402.84 457.281 402.84C460.341 402.84 462.561 404.96 462.561 408.04C462.561 411.12 460.341 413.24 457.281 413.24C454.221 413.24 452.001 411.12 452.001 408.04ZM454.441 408.04C454.441 409.84 455.601 411.06 457.281 411.06C458.961 411.06 460.121 409.84 460.121 408.04C460.121 406.24 458.961 405.02 457.281 405.02C455.601 405.02 454.441 406.24 454.441 408.04ZM467.135 413H464.695V403.12H466.955L467.155 404.4C467.775 403.4 468.975 402.82 470.315 402.82C472.795 402.82 474.075 404.36 474.075 406.92V413H471.635V407.5C471.635 405.84 470.815 405.04 469.555 405.04C468.055 405.04 467.135 406.08 467.135 407.68V413ZM488.463 403.08V405.34H487.563C485.803 405.34 484.703 406.28 484.703 408.2V413H482.263V403.14H484.563L484.703 404.58C485.123 403.6 486.063 402.94 487.383 402.94C487.723 402.94 488.063 402.98 488.463 403.08ZM494.403 413.26C491.463 413.26 489.403 411.12 489.403 408.06C489.403 404.96 491.423 402.82 494.323 402.82C497.283 402.82 499.163 404.8 499.163 407.88V408.62L491.723 408.64C491.903 410.38 492.823 411.26 494.443 411.26C495.783 411.26 496.663 410.74 496.943 409.8H499.203C498.783 411.96 496.983 413.26 494.403 413.26ZM494.343 404.82C492.903 404.82 492.023 405.6 491.783 407.08H496.743C496.743 405.72 495.803 404.82 494.343 404.82ZM501.315 417.58V403.12H503.575L503.735 404.62C504.335 403.48 505.635 402.82 507.135 402.82C509.915 402.82 511.755 404.84 511.755 407.94C511.755 411.02 510.075 413.26 507.135 413.26C505.655 413.26 504.375 412.68 503.755 411.68V417.58H501.315ZM503.775 408.06C503.775 409.84 504.875 411.06 506.555 411.06C508.275 411.06 509.295 409.82 509.295 408.06C509.295 406.3 508.275 405.04 506.555 405.04C504.875 405.04 503.775 406.28 503.775 408.06ZM520.098 403.08V405.34H519.198C517.438 405.34 516.338 406.28 516.338 408.2V413H513.898V403.14H516.198L516.338 404.58C516.758 403.6 517.698 402.94 519.018 402.94C519.358 402.94 519.698 402.98 520.098 403.08ZM521.038 408.04C521.038 404.96 523.258 402.84 526.318 402.84C529.378 402.84 531.598 404.96 531.598 408.04C531.598 411.12 529.378 413.24 526.318 413.24C523.258 413.24 521.038 411.12 521.038 408.04ZM523.478 408.04C523.478 409.84 524.638 411.06 526.318 411.06C527.998 411.06 529.158 409.84 529.158 408.04C529.158 406.24 527.998 405.02 526.318 405.02C524.638 405.02 523.478 406.24 523.478 408.04ZM537.792 413.26C534.932 413.26 533.152 411.16 533.152 408.1C533.152 405.02 534.952 402.82 537.932 402.82C539.312 402.82 540.532 403.4 541.152 404.38V398.12H543.572V413H541.332L541.172 411.46C540.572 412.6 539.292 413.26 537.792 413.26ZM538.332 411.02C540.032 411.02 541.132 409.8 541.132 408.02C541.132 406.24 540.032 405 538.332 405C536.632 405 535.592 406.26 535.592 408.02C535.592 409.78 536.632 411.02 538.332 411.02ZM553.015 403.12H555.455V413H553.195L553.015 411.68C552.415 412.62 551.135 413.26 549.815 413.26C547.535 413.26 546.195 411.72 546.195 409.3V403.12H548.635V408.44C548.635 410.32 549.375 411.08 550.735 411.08C552.275 411.08 553.015 410.18 553.015 408.3V403.12ZM557.4 408.04C557.4 404.98 559.42 402.82 562.34 402.82C565.04 402.82 566.88 404.32 567.14 406.7H564.7C564.42 405.58 563.6 405 562.44 405C560.88 405 559.84 406.18 559.84 408.04C559.84 409.9 560.8 411.06 562.36 411.06C563.58 411.06 564.44 410.46 564.7 409.38H567.16C566.86 411.68 564.94 413.26 562.36 413.26C559.36 413.26 557.4 411.18 557.4 408.04ZM572.536 413H570.096V405.16H568.196V403.12H570.096V400.04H572.536V403.12H574.456V405.16H572.536V413ZM577.393 401.14C576.553 401.14 575.893 400.48 575.893 399.66C575.893 398.84 576.553 398.2 577.393 398.2C578.193 398.2 578.853 398.84 578.853 399.66C578.853 400.48 578.193 401.14 577.393 401.14ZM576.173 413V403.12H578.613V413H576.173ZM580.753 408.04C580.753 404.96 582.973 402.84 586.033 402.84C589.093 402.84 591.313 404.96 591.313 408.04C591.313 411.12 589.093 413.24 586.033 413.24C582.973 413.24 580.753 411.12 580.753 408.04ZM583.193 408.04C583.193 409.84 584.353 411.06 586.033 411.06C587.713 411.06 588.873 409.84 588.873 408.04C588.873 406.24 587.713 405.02 586.033 405.02C584.353 405.02 583.193 406.24 583.193 408.04ZM595.888 413H593.448V403.12H595.708L595.908 404.4C596.528 403.4 597.728 402.82 599.068 402.82C601.548 402.82 602.828 404.36 602.828 406.92V413H600.388V407.5C600.388 405.84 599.568 405.04 598.308 405.04C596.808 405.04 595.888 406.08 595.888 407.68V413ZM395.2 439.26C393.1 439.26 391.82 438.04 391.82 436.18C391.82 434.36 393.14 433.22 395.48 433.04L398.44 432.82V432.6C398.44 431.26 397.64 430.72 396.4 430.72C394.96 430.72 394.16 431.32 394.16 432.36H392.08C392.08 430.22 393.84 428.82 396.52 428.82C399.18 428.82 400.82 430.26 400.82 433V439H398.68L398.5 437.54C398.08 438.56 396.74 439.26 395.2 439.26ZM396 437.42C397.5 437.42 398.46 436.52 398.46 435V434.48L396.4 434.64C394.88 434.78 394.3 435.28 394.3 436.08C394.3 436.98 394.9 437.42 396 437.42ZM405.857 439H403.417V429.12H405.677L405.877 430.4C406.497 429.4 407.697 428.82 409.037 428.82C411.517 428.82 412.797 430.36 412.797 432.92V439H410.357V433.5C410.357 431.84 409.537 431.04 408.277 431.04C406.777 431.04 405.857 432.08 405.857 433.68V439ZM419.454 439.26C416.594 439.26 414.814 437.16 414.814 434.1C414.814 431.02 416.614 428.82 419.594 428.82C420.974 428.82 422.194 429.4 422.814 430.38V424.12H425.234V439H422.994L422.834 437.46C422.234 438.6 420.954 439.26 419.454 439.26ZM419.994 437.02C421.694 437.02 422.794 435.8 422.794 434.02C422.794 432.24 421.694 431 419.994 431C418.294 431 417.254 432.26 417.254 434.02C417.254 435.78 418.294 437.02 419.994 437.02ZM432.588 429.12H434.008V427.92C434.008 425.24 435.428 424.12 437.568 424.12C437.948 424.12 438.408 424.14 438.828 424.22V426.3H437.968C436.728 426.3 436.428 426.94 436.428 427.92V429.12H438.788V431.16H436.428V439H434.008V431.16H432.588V429.12ZM444.672 439.26C441.732 439.26 439.672 437.12 439.672 434.06C439.672 430.96 441.692 428.82 444.592 428.82C447.552 428.82 449.432 430.8 449.432 433.88V434.62L441.992 434.64C442.172 436.38 443.092 437.26 444.712 437.26C446.052 437.26 446.932 436.74 447.212 435.8H449.472C449.052 437.96 447.252 439.26 444.672 439.26ZM444.612 430.82C443.172 430.82 442.292 431.6 442.052 433.08H447.012C447.012 431.72 446.072 430.82 444.612 430.82ZM457.785 429.08V431.34H456.885C455.125 431.34 454.025 432.28 454.025 434.2V439H451.585V429.14H453.885L454.025 430.58C454.445 429.6 455.385 428.94 456.705 428.94C457.045 428.94 457.385 428.98 457.785 429.08ZM463.387 439H460.947V431.16H459.047V429.12H460.947V426.04H463.387V429.12H465.307V431.16H463.387V439ZM468.244 427.14C467.404 427.14 466.744 426.48 466.744 425.66C466.744 424.84 467.404 424.2 468.244 424.2C469.044 424.2 469.704 424.84 469.704 425.66C469.704 426.48 469.044 427.14 468.244 427.14ZM467.024 439V429.12H469.464V439H467.024ZM474.645 439H472.225V424.12H474.645V439ZM478.625 427.14C477.785 427.14 477.125 426.48 477.125 425.66C477.125 424.84 477.785 424.2 478.625 424.2C479.425 424.2 480.085 424.84 480.085 425.66C480.085 426.48 479.425 427.14 478.625 427.14ZM477.405 439V429.12H479.845V439H477.405ZM485.025 439H482.605V424.12H485.025V439ZM491.145 439H488.705V431.16H486.805V429.12H488.705V426.04H491.145V429.12H493.065V431.16H491.145V439ZM493.922 443.58V441.54H495.382C496.342 441.54 496.942 441.32 497.362 440.16L497.642 439.42L493.662 429.12H496.242L498.782 436.32L501.462 429.12H503.982L499.142 441.2C498.402 443.04 497.362 443.8 495.742 443.8C495.062 443.8 494.462 443.72 493.922 443.58Z" fill="white"/>
<path id="Vector 2247" d="M321 423H383" stroke="white" stroke-width="3" stroke-linecap="round"/>
</g>
</svg>
