<svg width="619" height="889" viewBox="0 0 619 889" fill="none" xmlns="http://www.w3.org/2000/svg">
<g id="Phthalates">
<g id="human">
<circle id="Ellipse 4589" cx="352.32" cy="605.698" r="3.00372" fill="black"/>
<circle id="Ellipse 4590" cx="369.336" cy="604.696" r="3.00372" fill="black"/>
<circle id="Ellipse 4591" cx="359.324" cy="616.711" r="3.00372" fill="black"/>
<circle id="Ellipse 4592" cx="372.34" cy="622.719" r="3.00372" fill="black"/>
<circle id="Ellipse 4593" cx="344.308" cy="618.714" r="3.00372" fill="black"/>
<circle id="Ellipse 4594" cx="333.293" cy="606.699" r="3.00372" fill="black"/>
<circle id="Ellipse 4595" cx="343.308" cy="594.684" r="3.00372" fill="black"/>
<circle id="Ellipse 4596" cx="357.32" cy="591.68" r="3.00372" fill="black"/>
<circle id="Ellipse 4597" cx="370.34" cy="587.675" r="3.00372" fill="black"/>
<circle id="Ellipse 4598" cx="330.289" cy="591.68" r="3.00372" fill="black"/>
<circle id="Ellipse 4654" cx="328.289" cy="577.663" r="3.00372" fill="black"/>
<circle id="Ellipse 4655" cx="343.308" cy="578.664" r="3.00372" fill="black"/>
<circle id="Ellipse 4656" cx="357.32" cy="576.662" r="3.00372" fill="black"/>
<circle id="Ellipse 4657" cx="371.34" cy="571.656" r="3.00372" fill="black"/>
<circle id="Ellipse 4658" cx="372.34" cy="556.637" r="3.00372" fill="black"/>
<circle id="Ellipse 4659" cx="356.324" cy="561.643" r="3.00372" fill="black"/>
<circle id="Ellipse 4660" cx="339.301" cy="563.646" r="3.00372" fill="black"/>
<circle id="Ellipse 4661" cx="324.281" cy="564.647" r="3.00372" fill="black"/>
<circle id="Ellipse 4662" cx="324.281" cy="551.631" r="3.00372" fill="black"/>
<circle id="Ellipse 4663" cx="342.305" cy="549.628" r="3.00372" fill="black"/>
<circle id="Ellipse 4664" cx="359.324" cy="546.625" r="3.00372" fill="black"/>
<circle id="Ellipse 4665" cx="376.347" cy="542.619" r="3.00372" fill="black"/>
<circle id="Ellipse 4666" cx="364.332" cy="532.607" r="3.00372" fill="black"/>
<circle id="Ellipse 4667" cx="348.312" cy="533.608" r="3.00372" fill="black"/>
<circle id="Ellipse 4787" cx="333.293" cy="537.613" r="3.00372" fill="black"/>
<circle id="Ellipse 4669" cx="319.277" cy="539.616" r="3.00372" fill="black"/>
<circle id="Ellipse 4670" cx="379.351" cy="527.601" r="3.00372" fill="black"/>
<circle id="Ellipse 4671" cx="380.351" cy="512.582" r="3.00372" fill="black"/>
<circle id="Ellipse 4672" cx="365.332" cy="519.591" r="3.00372" fill="black"/>
<circle id="Ellipse 4673" cx="349.316" cy="517.589" r="3.00372" fill="black"/>
<circle id="Ellipse 4674" cx="335.297" cy="523.596" r="3.00372" fill="black"/>
<circle id="Ellipse 4675" cx="319.277" cy="524.597" r="3.00372" fill="black"/>
<circle id="Ellipse 4676" cx="334.297" cy="509.579" r="3.00372" fill="black"/>
<circle id="Ellipse 4677" cx="349.316" cy="502.57" r="3.00372" fill="black"/>
<circle id="Ellipse 4678" cx="365.332" cy="505.574" r="3.00372" fill="black"/>
<circle id="Ellipse 4772" cx="358.324" cy="490.555" r="3.00372" fill="black"/>
<circle id="Ellipse 4773" cx="355.324" cy="474.535" r="3.00372" fill="black"/>
<circle id="Ellipse 4774" cx="344.308" cy="486.55" r="3.00372" fill="black"/>
<circle id="Ellipse 4775" cx="339.301" cy="472.533" r="3.00372" fill="black"/>
<circle id="Ellipse 4777" cx="334.297" cy="458.515" r="3.00372" fill="black"/>
<circle id="Ellipse 4778" cx="344.308" cy="447.502" r="3.00372" fill="black"/>
<circle id="Ellipse 4779" cx="352.32" cy="436.488" r="3.00372" fill="black"/>
<circle id="Ellipse 4780" cx="346.312" cy="421.47" r="3.00372" fill="black"/>
<circle id="Ellipse 4781" cx="340.305" cy="407.452" r="3.00372" fill="black"/>
<circle id="Ellipse 4782" cx="340.305" cy="393.435" r="3.00372" fill="black"/>
<circle id="Ellipse 4783" cx="337.301" cy="377.415" r="3.00372" fill="black"/>
<circle id="Ellipse 4784" cx="338.301" cy="361.395" r="3.00372" fill="black"/>
<circle id="Ellipse 4785" cx="338.301" cy="344.374" r="3.00372" fill="black"/>
<circle id="Ellipse 4787_2" cx="326.285" cy="334.362" r="3.00372" fill="black"/>
<circle id="Ellipse 4787_3" cx="331.293" cy="320.345" r="3.00372" fill="black"/>
<circle id="Ellipse 4788" cx="337.301" cy="302.322" r="3.00372" fill="black"/>
<circle id="Ellipse 4789" cx="336.297" cy="284.3" r="3.00372" fill="black"/>
<circle id="Ellipse 4790" cx="347.312" cy="272.285" r="3.00372" fill="black"/>
<circle id="Ellipse 4791" cx="360.324" cy="260.27" r="3.00372" fill="black"/>
<circle id="Ellipse 4792" cx="375.344" cy="259.269" r="3.00372" fill="black"/>
<circle id="Ellipse 4793" cx="389.363" cy="254.263" r="3.00372" fill="black"/>
<circle id="Ellipse 4794" cx="400.375" cy="242.248" r="3.00372" fill="black"/>
<circle id="Ellipse 4795" cx="382.355" cy="242.248" r="3.00372" fill="black"/>
<circle id="Ellipse 4796" cx="392.367" cy="231.234" r="3.00372" fill="black"/>
<circle id="Ellipse 4799" cx="409.387" cy="227.229" r="3.00372" fill="black"/>
<circle id="Ellipse 4800" cx="414.394" cy="239.244" r="3.00372" fill="black"/>
<circle id="Ellipse 4801" cx="409.387" cy="213.212" r="3.00372" fill="black"/>
<circle id="Ellipse 4802" cx="396.371" cy="217.217" r="3.00372" fill="black"/>
<circle id="Ellipse 4803" cx="381.351" cy="218.218" r="3.00372" fill="black"/>
<circle id="Ellipse 4804" cx="390.363" cy="205.202" r="3.00372" fill="black"/>
<circle id="Ellipse 4806" cx="383.355" cy="194.188" r="3.00372" fill="black"/>
<circle id="Ellipse 4807" cx="396.371" cy="187.18" r="3.00372" fill="black"/>
<circle id="Ellipse 4808" cx="383.355" cy="180.171" r="3.00372" fill="black"/>
<circle id="Ellipse 4809" cx="370.34" cy="190.183" r="3.00372" fill="black"/>
<circle id="Ellipse 4810" cx="368.336" cy="177.167" r="3.00372" fill="black"/>
<circle id="Ellipse 4811" cx="374.344" cy="205.202" r="3.00372" fill="black"/>
<circle id="Ellipse 4812" cx="361.328" cy="200.196" r="3.00372" fill="black"/>
<circle id="Ellipse 4813" cx="355.324" cy="186.179" r="3.00372" fill="black"/>
<circle id="Ellipse 4814" cx="354.32" cy="172.161" r="3.00372" fill="black"/>
<circle id="Ellipse 4822" cx="341.305" cy="167.155" r="3.00372" fill="black"/>
<circle id="Ellipse 4823" cx="339.301" cy="181.172" r="3.00372" fill="black"/>
<circle id="Ellipse 4824" cx="325.285" cy="173.162" r="3.00372" fill="black"/>
<circle id="Ellipse 4825" cx="331.293" cy="156.141" r="3.00372" fill="black"/>
<circle id="Ellipse 4826" cx="322.281" cy="145.128" r="3.00372" fill="black"/>
<circle id="1_DOT" cx="308.262" cy="140.121" r="3.00372" fill="#FF0000"/>
<circle id="Ellipse 4838" cx="318.273" cy="126.104" r="3.00372" fill="black"/>
<circle id="Ellipse 4839" cx="336.297" cy="123.1" r="3.00372" fill="black"/>
<circle id="Ellipse 4840" cx="347.312" cy="110.084" r="3.00372" fill="black"/>
<circle id="Ellipse 4841" cx="345.308" cy="97.0682" r="3.00372" fill="black"/>
<circle id="Ellipse 4842" cx="329.289" cy="94.0645" r="3.00372" fill="black"/>
<circle id="Ellipse 4844" cx="343.308" cy="81.0484" r="3.00372" fill="black"/>
<circle id="Ellipse 4845" cx="341.305" cy="66.0298" r="3.00372" fill="black"/>
<circle id="Ellipse 4846" cx="328.289" cy="79.046" r="3.00372" fill="black"/>
<circle id="Ellipse 4847" cx="323.281" cy="63.0259" r="3.00372" fill="black"/>
<circle id="Ellipse 4848" cx="334.297" cy="53.0137" r="3.00372" fill="black"/>
<circle id="Ellipse 4849" cx="320.277" cy="47.0062" r="3.00372" fill="black"/>
<circle id="Ellipse 4850" cx="304.258" cy="45.0037" r="3.00372" fill="black"/>
<circle id="Ellipse 4851" cx="290.238" cy="49.0086" r="3.00372" fill="black"/>
<circle id="Ellipse 4853" cx="278.226" cy="59.021" r="3.00372" fill="black"/>
<circle id="Ellipse 4854" cx="291.238" cy="67.0311" r="3.00372" fill="black"/>
<circle id="Ellipse 4855" cx="314.269" cy="77.0433" r="3.00372" fill="black"/>
<circle id="Ellipse 4857" cx="301.254" cy="80.0469" r="3.00372" fill="black"/>
<circle id="Ellipse 4857_2" cx="286.238" cy="85.0533" r="3.00372" fill="black"/>
<circle id="Ellipse 4858" cx="274.222" cy="74.0396" r="3.00372" fill="black"/>
<circle id="Ellipse 4859" cx="272.219" cy="93.0633" r="3.00372" fill="black"/>
<circle id="Ellipse 4860" cx="284.234" cy="100.072" r="3.00372" fill="black"/>
<circle id="Ellipse 4861" cx="299.25" cy="98.0694" r="3.00372" fill="black"/>
<circle id="Ellipse 4862" cx="314.269" cy="94.0645" r="3.00372" fill="black"/>
<circle id="Ellipse 4863" cx="319.277" cy="110.084" r="3.00372" fill="black"/>
<circle id="Ellipse 4864" cx="306.258" cy="112.087" r="3.00372" fill="black"/>
<circle id="Ellipse 4865" cx="290.238" cy="113.088" r="3.00372" fill="black"/>
<circle id="Ellipse 4866" cx="271.219" cy="110.084" r="3.00372" fill="black"/>
<circle id="Ellipse 4867" cx="281.23" cy="125.103" r="3.00372" fill="black"/>
<circle id="Ellipse 4868" cx="300.25" cy="127.105" r="3.00372" fill="black"/>
<circle id="Ellipse 4869" cx="288.238" cy="139.12" r="3.00372" fill="black"/>
<circle id="Ellipse 4871" cx="301.254" cy="153.138" r="3.00372" fill="black"/>
<circle id="Ellipse 4871_2" cx="286.238" cy="153.138" r="3.00372" fill="black"/>
<circle id="Ellipse 4872" cx="277.226" cy="166.154" r="3.00372" fill="black"/>
<circle id="Ellipse 4874" cx="264.207" cy="172.161" r="3.00372" fill="black"/>
<circle id="Ellipse 4875" cx="279.226" cy="180.171" r="3.00372" fill="black"/>
<circle id="Ellipse 4876" cx="295.246" cy="182.173" r="3.00372" fill="black"/>
<circle id="Ellipse 4877" cx="300.25" cy="196.191" r="3.00372" fill="black"/>
<circle id="Ellipse 4878" cx="285.234" cy="195.19" r="3.00372" fill="black"/>
<circle id="Ellipse 4879" cx="271.219" cy="193.187" r="3.00372" fill="black"/>
<circle id="Ellipse 4880" cx="260.203" cy="186.179" r="3.00372" fill="black"/>
<circle id="Ellipse 4881" cx="249.187" cy="176.166" r="3.00372" fill="black"/>
<circle id="Ellipse 4882" cx="246.183" cy="193.187" r="3.00372" fill="black"/>
<circle id="Ellipse 4883" cx="259.203" cy="203.2" r="3.00372" fill="black"/>
<circle id="Ellipse 4884" cx="275.222" cy="208.206" r="3.00372" fill="black"/>
<circle id="Ellipse 4885" cx="290.238" cy="210.208" r="3.00372" fill="black"/>
<circle id="Ellipse 4886" cx="306.258" cy="210.208" r="3.00372" fill="black"/>
<circle id="Ellipse 4887" cx="316.273" cy="221.222" r="3.00372" fill="black"/>
<circle id="Ellipse 4888" cx="326.285" cy="232.235" r="3.00372" fill="black"/>
<circle id="Ellipse 4889" cx="299.25" cy="223.224" r="3.00372" fill="black"/>
<circle id="Ellipse 4891" cx="283.234" cy="224.225" r="3.00372" fill="black"/>
<circle id="Ellipse 4891_2" cx="268.215" cy="218.218" r="3.00372" fill="black"/>
<circle id="Ellipse 4892" cx="253.195" cy="217.217" r="3.00372" fill="black"/>
<circle id="Ellipse 4893" cx="242.18" cy="207.204" r="3.00372" fill="black"/>
<circle id="Ellipse 4894" cx="231.164" cy="196.191" r="3.00372" fill="black"/>
<circle id="Ellipse 4895" cx="235.172" cy="180.171" r="3.00372" fill="black"/>
<circle id="Ellipse 4896" cx="221.156" cy="184.176" r="3.00372" fill="black"/>
<circle id="Ellipse 4897" cx="215.148" cy="197.192" r="3.00372" fill="black"/>
<circle id="Ellipse 4898" cx="227.16" cy="210.208" r="3.00372" fill="black"/>
<circle id="Ellipse 4899" cx="223.156" cy="223.224" r="3.00372" fill="black"/>
<circle id="Ellipse 4900" cx="211.144" cy="210.208" r="3.00372" fill="black"/>
<circle id="Ellipse 4901" cx="207.137" cy="223.224" r="3.00372" fill="black"/>
<circle id="Ellipse 4902" cx="239.176" cy="223.224" r="3.00372" fill="black"/>
<circle id="Ellipse 4903" cx="256.199" cy="230.233" r="3.00372" fill="black"/>
<circle id="Ellipse 4904" cx="270.215" cy="233.237" r="3.00372" fill="black"/>
<circle id="Ellipse 4937" cx="281.23" cy="241.247" r="3.00372" fill="black"/>
<circle id="Ellipse 4906" cx="262.207" cy="246.253" r="3.00372" fill="black"/>
<circle id="Ellipse 4915" cx="276.222" cy="254.263" r="3.00372" fill="black"/>
<circle id="Ellipse 4916" cx="264.207" cy="262.273" r="3.00372" fill="black"/>
<circle id="Ellipse 4917" cx="252.191" cy="267.279" r="3.00372" fill="black"/>
<circle id="Ellipse 4918" cx="238.176" cy="265.276" r="3.00372" fill="black"/>
<circle id="Ellipse 4919" cx="223.156" cy="265.276" r="3.00372" fill="black"/>
<circle id="Ellipse 4920" cx="209.14" cy="265.276" r="3.00372" fill="black"/>
<circle id="Ellipse 4921" cx="197.125" cy="262.273" r="3.00372" fill="black"/>
<circle id="Ellipse 4922" cx="196.125" cy="276.29" r="3.00372" fill="black"/>
<circle id="Ellipse 4923" cx="212.144" cy="280.295" r="3.00372" fill="black"/>
<circle id="Ellipse 4924" cx="229.164" cy="278.292" r="3.00372" fill="black"/>
<circle id="Ellipse 4925" cx="247.187" cy="279.294" r="3.00372" fill="black"/>
<circle id="Ellipse 4926" cx="261.203" cy="280.295" r="3.00372" fill="black"/>
<circle id="Ellipse 4927" cx="275.222" cy="273.286" r="3.00372" fill="black"/>
<circle id="Ellipse 4928" cx="287.238" cy="264.275" r="3.00372" fill="black"/>
<circle id="Ellipse 4929" cx="292.242" cy="251.259" r="3.00372" fill="black"/>
<circle id="Ellipse 4930" cx="295.246" cy="236.24" r="3.00372" fill="black"/>
<circle id="Ellipse 4931" cx="310.265" cy="234.238" r="3.00372" fill="black"/>
<circle id="Ellipse 4932" cx="320.277" cy="245.252" r="3.00372" fill="black"/>
<circle id="Ellipse 4933" cx="306.258" cy="250.258" r="3.00372" fill="black"/>
<circle id="Ellipse 4934" cx="317.273" cy="263.274" r="3.00372" fill="black"/>
<circle id="Ellipse 4935" cx="329.289" cy="256.265" r="3.00372" fill="black"/>
<circle id="Ellipse 4937_2" cx="303.254" cy="265.276" r="3.00372" fill="black"/>
<circle id="Ellipse 4937_3" cx="320.277" cy="278.292" r="3.00372" fill="black"/>
<circle id="Ellipse 4942" cx="325.285" cy="293.311" r="3.00372" fill="black"/>
<circle id="Ellipse 4943" cx="312.265" cy="295.314" r="3.00372" fill="black"/>
<circle id="3_DOT" cx="298.25" cy="293.311" r="3.00372" fill="#FF0000"/>
<circle id="Ellipse 4945" cx="285.234" cy="290.307" r="3.00372" fill="black"/>
<circle id="Ellipse 4946" cx="272.219" cy="288.305" r="3.00372" fill="black"/>
<circle id="Ellipse 4947" cx="262.207" cy="298.317" r="3.00372" fill="black"/>
<circle id="Ellipse 4948" cx="276.222" cy="303.323" r="3.00372" fill="black"/>
<circle id="Ellipse 4949" cx="290.238" cy="306.327" r="3.00372" fill="black"/>
<circle id="Ellipse 4950" cx="305.258" cy="310.332" r="3.00372" fill="black"/>
<circle id="Ellipse 4951" cx="321.277" cy="309.331" r="3.00372" fill="black"/>
<circle id="Ellipse 4952" cx="313.269" cy="325.351" r="3.00372" fill="black"/>
<circle id="Ellipse 4953" cx="296.246" cy="321.346" r="3.00372" fill="black"/>
<circle id="Ellipse 4954" cx="280.23" cy="318.342" r="3.00372" fill="black"/>
<circle id="Ellipse 4955" cx="266.211" cy="314.337" r="3.00372" fill="black"/>
<circle id="Ellipse 4787_4" cx="269.215" cy="331.358" r="3.00372" fill="black"/>
<circle id="Ellipse 4957" cx="283.234" cy="332.359" r="3.00372" fill="black"/>
<circle id="Ellipse 4958" cx="298.25" cy="336.364" r="3.00372" fill="black"/>
<circle id="Ellipse 4959" cx="311.265" cy="343.373" r="3.00372" fill="black"/>
<circle id="Ellipse 4960" cx="324.281" cy="351.383" r="3.00372" fill="black"/>
<circle id="Ellipse 4961" cx="325.285" cy="366.401" r="3.00372" fill="black"/>
<circle id="4_DOT" cx="309.262" cy="362.397" r="3.00372" fill="#FF0000"/>
<circle id="Ellipse 4963" cx="297.246" cy="354.387" r="3.00372" fill="black"/>
<circle id="Ellipse 4964" cx="284.234" cy="347.378" r="3.00372" fill="black"/>
<circle id="Ellipse 4965" cx="269.215" cy="348.379" r="3.00372" fill="black"/>
<circle id="Ellipse 4966" cx="280.23" cy="361.395" r="3.00372" fill="black"/>
<circle id="Ellipse 4967" cx="293.242" cy="369.405" r="3.00372" fill="black"/>
<circle id="Ellipse 4968" cx="304.258" cy="378.416" r="3.00372" fill="black"/>
<circle id="Ellipse 4969" cx="318.273" cy="379.418" r="3.00372" fill="black"/>
<circle id="Ellipse 4970" cx="324.281" cy="392.434" r="3.00372" fill="black"/>
<circle id="5_DOT" cx="307.262" cy="394.436" r="3.00372" fill="#FF0000"/>
<circle id="Ellipse 4972" cx="291.238" cy="389.43" r="3.00372" fill="black"/>
<circle id="Ellipse 4973" cx="278.226" cy="378.416" r="3.00372" fill="black"/>
<circle id="Ellipse 4974" cx="265.211" cy="367.403" r="3.00372" fill="black"/>
<circle id="Ellipse 4975" cx="263.207" cy="384.424" r="3.00372" fill="black"/>
<circle id="Ellipse 5128" cx="249.187" cy="378.416" r="3.00372" fill="black"/>
<circle id="Ellipse 5129" cx="250.191" cy="364.399" r="3.00372" fill="black"/>
<circle id="Ellipse 5130" cx="254.195" cy="352.384" r="3.00372" fill="black"/>
<circle id="Ellipse 5131" cx="255.195" cy="338.367" r="3.00372" fill="black"/>
<circle id="Ellipse 5132" cx="255.195" cy="323.348" r="3.00372" fill="black"/>
<circle id="Ellipse 5133" cx="252.191" cy="308.33" r="3.00372" fill="black"/>
<circle id="Ellipse 5134" cx="250.191" cy="292.31" r="3.00372" fill="black"/>
<circle id="Ellipse 5135" cx="224.156" cy="291.308" r="3.00372" fill="black"/>
<circle id="Ellipse 5136" cx="206.137" cy="296.315" r="3.00372" fill="black"/>
<circle id="Ellipse 5137" cx="192.117" cy="288.305" r="3.00372" fill="black"/>
<circle id="Ellipse 5138" cx="189.113" cy="302.322" r="3.00372" fill="black"/>
<circle id="Ellipse 5139" cx="200.129" cy="313.336" r="3.00372" fill="black"/>
<circle id="Ellipse 5140" cx="214.148" cy="318.342" r="3.00372" fill="black"/>
<circle id="Ellipse 5141" cx="219.152" cy="305.326" r="3.00372" fill="black"/>
<circle id="Ellipse 5142" cx="184.109" cy="315.338" r="3.00372" fill="black"/>
<circle id="Ellipse 5143" cx="193.121" cy="330.357" r="3.00372" fill="black"/>
<circle id="Ellipse 5144" cx="208.14" cy="331.358" r="3.00372" fill="black"/>
<circle id="Ellipse 5145" cx="202.133" cy="346.377" r="3.00372" fill="black"/>
<circle id="Ellipse 5146" cx="185.109" cy="345.375" r="3.00372" fill="black"/>
<circle id="Ellipse 5147" cx="177.097" cy="328.354" r="3.00372" fill="black"/>
<circle id="Ellipse 5148" cx="170.09" cy="340.369" r="3.00372" fill="black"/>
<circle id="Ellipse 5149" cx="163.082" cy="352.384" r="3.00372" fill="black"/>
<circle id="Ellipse 5150" cx="177.097" cy="360.394" r="3.00372" fill="black"/>
<circle id="Ellipse 5151" cx="195.121" cy="361.395" r="3.00372" fill="black"/>
<circle id="Ellipse 5152" cx="186.109" cy="376.414" r="3.00372" fill="black"/>
<circle id="Ellipse 5153" cx="170.09" cy="377.415" r="3.00372" fill="black"/>
<circle id="Ellipse 5154" cx="159.074" cy="365.4" r="3.00372" fill="black"/>
<circle id="Ellipse 5155" cx="153.07" cy="380.419" r="3.00372" fill="black"/>
<circle id="Ellipse 5156" cx="160.078" cy="391.432" r="3.00372" fill="black"/>
<circle id="Ellipse 5158" cx="148.066" cy="400.444" r="3.00372" fill="black"/>
<circle id="Ellipse 5159" cx="167.086" cy="404.449" r="3.00372" fill="black"/>
<circle id="Ellipse 5160" cx="159.074" cy="418.466" r="3.00372" fill="black"/>
<circle id="Ellipse 5161" cx="143.058" cy="415.462" r="3.00372" fill="black"/>
<circle id="Ellipse 5162" cx="131.043" cy="425.474" r="3.00372" fill="black"/>
<circle id="Ellipse 5163" cx="116.023" cy="428.478" r="3.00372" fill="black"/>
<circle id="Ellipse 5164" cx="101.004" cy="436.488" r="3.00372" fill="black"/>
<circle id="Ellipse 5165" cx="151.07" cy="431.482" r="3.00372" fill="black"/>
<circle id="Ellipse 5166" cx="134.047" cy="438.491" r="3.00372" fill="black"/>
<circle id="Ellipse 5168" cx="117.027" cy="444.498" r="3.00372" fill="black"/>
<circle id="Ellipse 5169" cx="133.047" cy="452.508" r="3.00372" fill="black"/>
<circle id="Ellipse 5170" cx="144.058" cy="461.519" r="3.00372" fill="black"/>
<circle id="Ellipse 5171" cx="134.047" cy="472.533" r="3.00372" fill="black"/>
<circle id="Ellipse 5172" cx="123.035" cy="460.518" r="3.00372" fill="black"/>
<circle id="Ellipse 5173" cx="108.015" cy="457.514" r="3.00372" fill="black"/>
<circle id="Ellipse 5174" cx="99.0037" cy="469.529" r="3.00372" fill="black"/>
<circle id="Ellipse 5175" cx="99.0037" cy="482.545" r="3.00372" fill="black"/>
<circle id="Ellipse 5176" cx="115.023" cy="473.534" r="3.00372" fill="black"/>
<circle id="Ellipse 5177" cx="112.019" cy="487.551" r="3.00372" fill="black"/>
<circle id="Ellipse 5178" cx="127.039" cy="485.549" r="3.00372" fill="black"/>
<circle id="Ellipse 5167" cx="149.066" cy="446.501" r="3.00372" fill="black"/>
<circle id="Ellipse 5157" cx="177.097" cy="391.432" r="3.00372" fill="black"/>
<circle id="Ellipse 4976" cx="276.222" cy="395.437" r="3.00372" fill="black"/>
<circle id="Ellipse 4977" cx="260.203" cy="401.445" r="3.00372" fill="black"/>
<circle id="Ellipse 4978" cx="290.238" cy="406.451" r="3.00372" fill="black"/>
<circle id="Ellipse 4979" cx="306.258" cy="409.455" r="3.00372" fill="black"/>
<circle id="Ellipse 4980" cx="273.219" cy="412.458" r="3.00372" fill="black"/>
<circle id="Ellipse 4981" cx="283.234" cy="423.472" r="3.00372" fill="black"/>
<circle id="Ellipse 5004" cx="270.215" cy="431.482" r="3.00372" fill="black"/>
<circle id="Ellipse 5005" cx="257.199" cy="418.466" r="3.00372" fill="black"/>
<circle id="Ellipse 5006" cx="244.183" cy="406.451" r="3.00372" fill="black"/>
<circle id="Ellipse 5007" cx="246.183" cy="391.432" r="3.00372" fill="black"/>
<circle id="Ellipse 5008" cx="241.18" cy="420.468" r="3.00372" fill="black"/>
<circle id="Ellipse 5009" cx="254.195" cy="435.487" r="3.00372" fill="black"/>
<circle id="Ellipse 5010" cx="238.176" cy="435.487" r="3.00372" fill="black"/>
<circle id="Ellipse 5011" cx="239.176" cy="448.503" r="3.00372" fill="black"/>
<circle id="Ellipse 5013" cx="234.168" cy="461.519" r="3.00372" fill="black"/>
<circle id="Ellipse 5014" cx="249.187" cy="464.523" r="3.00372" fill="black"/>
<circle id="Ellipse 5015" cx="266.211" cy="467.527" r="3.00372" fill="black"/>
<circle id="Ellipse 5016" cx="266.211" cy="488.553" r="3.00372" fill="black"/>
<circle id="Ellipse 5017" cx="253.195" cy="478.54" r="3.00372" fill="black"/>
<circle id="Ellipse 5018" cx="236.172" cy="476.538" r="3.00372" fill="black"/>
<circle id="Ellipse 5019" cx="233.168" cy="490.555" r="3.00372" fill="black"/>
<circle id="Ellipse 5020" cx="248.187" cy="492.557" r="3.00372" fill="black"/>
<circle id="Ellipse 5021" cx="284.234" cy="494.56" r="3.00372" fill="black"/>
<circle id="Ellipse 5022" cx="270.215" cy="504.573" r="3.00372" fill="black"/>
<circle id="Ellipse 5023" cx="254.195" cy="505.574" r="3.00372" fill="black"/>
<circle id="Ellipse 5024" cx="235.172" cy="504.573" r="3.00372" fill="black"/>
<circle id="Ellipse 5025" cx="239.176" cy="517.589" r="3.00372" fill="black"/>
<circle id="Ellipse 5026" cx="258.199" cy="518.59" r="3.00372" fill="black"/>
<circle id="Ellipse 5027" cx="273.219" cy="520.592" r="3.00372" fill="black"/>
<circle id="Ellipse 5028" cx="286.238" cy="511.581" r="3.00372" fill="black"/>
<circle id="Ellipse 5029" cx="299.25" cy="504.573" r="3.00372" fill="black"/>
<circle id="Ellipse 5030" cx="318.273" cy="510.58" r="3.00372" fill="black"/>
<circle id="Ellipse 5031" cx="298.25" cy="521.594" r="3.00372" fill="black"/>
<circle id="Ellipse 5032" cx="285.234" cy="529.603" r="3.00372" fill="black"/>
<circle id="Ellipse 5033" cx="298.25" cy="539.616" r="3.00372" fill="black"/>
<circle id="Ellipse 5034" cx="283.234" cy="544.622" r="3.00372" fill="black"/>
<circle id="Ellipse 5036" cx="268.215" cy="534.61" r="3.00372" fill="black"/>
<circle id="Ellipse 5036_2" cx="252.191" cy="531.606" r="3.00372" fill="black"/>
<circle id="Ellipse 5037" cx="256.199" cy="546.625" r="3.00372" fill="black"/>
<circle id="Ellipse 5038" cx="269.215" cy="549.628" r="3.00372" fill="black"/>
<circle id="Ellipse 5039" cx="295.246" cy="555.636" r="3.00372" fill="black"/>
<circle id="Ellipse 5040" cx="280.23" cy="559.641" r="3.00372" fill="black"/>
<circle id="Ellipse 5041" cx="291.238" cy="571.656" r="3.00372" fill="black"/>
<circle id="Ellipse 5042" cx="275.222" cy="571.656" r="3.00372" fill="black"/>
<circle id="Ellipse 5043" cx="261.203" cy="562.644" r="3.00372" fill="black"/>
<circle id="Ellipse 5044" cx="244.183" cy="557.638" r="3.00372" fill="black"/>
<circle id="Ellipse 5045" cx="241.18" cy="543.621" r="3.00372" fill="black"/>
<circle id="Ellipse 5046" cx="237.172" cy="529.603" r="3.00372" fill="black"/>
<circle id="Ellipse 5047" cx="246.183" cy="570.654" r="3.00372" fill="black"/>
<circle id="Ellipse 5048" cx="260.203" cy="576.662" r="3.00372" fill="black"/>
<circle id="Ellipse 5049" cx="272.219" cy="583.67" r="3.00372" fill="black"/>
<circle id="Ellipse 5050" cx="287.238" cy="585.673" r="3.00372" fill="black"/>
<circle id="Ellipse 5051" cx="286.238" cy="601.693" r="3.00372" fill="black"/>
<circle id="Ellipse 5052" cx="276.222" cy="594.684" r="3.00372" fill="black"/>
<circle id="Ellipse 5053" cx="268.215" cy="604.696" r="3.00372" fill="black"/>
<circle id="Ellipse 5054" cx="260.203" cy="591.68" r="3.00372" fill="black"/>
<circle id="Ellipse 5055" cx="247.187" cy="583.67" r="3.00372" fill="black"/>
<circle id="Ellipse 5056" cx="247.187" cy="596.686" r="3.00372" fill="black"/>
<circle id="Ellipse 5057" cx="256.199" cy="607.7" r="3.00372" fill="black"/>
<circle id="Ellipse 5058" cx="245.183" cy="609.702" r="3.00372" fill="black"/>
<circle id="Ellipse 5059" cx="278.226" cy="612.706" r="3.00372" fill="black"/>
<circle id="Ellipse 5060" cx="289.242" cy="617.712" r="3.00372" fill="black"/>
<circle id="Ellipse 5061" cx="278.226" cy="626.724" r="3.00372" fill="black"/>
<circle id="Ellipse 5062" cx="267.211" cy="618.714" r="3.00372" fill="black"/>
<circle id="Ellipse 5063" cx="255.195" cy="622.719" r="3.00372" fill="black"/>
<circle id="Ellipse 5064" cx="243.18" cy="620.716" r="3.00372" fill="black"/>
<circle id="Ellipse 5065" cx="243.18" cy="632.731" r="3.00372" fill="black"/>
<circle id="Ellipse 5066" cx="255.195" cy="636.736" r="3.00372" fill="black"/>
<circle id="Ellipse 5067" cx="267.211" cy="631.73" r="3.00372" fill="black"/>
<circle id="Ellipse 5068" cx="279.226" cy="639.74" r="3.00372" fill="black"/>
<circle id="Ellipse 5069" cx="290.238" cy="633.732" r="3.00372" fill="black"/>
<circle id="Ellipse 5070" cx="290.238" cy="647.75" r="3.00372" fill="black"/>
<circle id="Ellipse 5071" cx="279.226" cy="653.757" r="3.00372" fill="black"/>
<circle id="Ellipse 5072" cx="268.215" cy="645.747" r="3.00372" fill="black"/>
<circle id="Ellipse 5073" cx="255.195" cy="649.752" r="3.00372" fill="black"/>
<circle id="Ellipse 5074" cx="244.183" cy="644.746" r="3.00372" fill="black"/>
<circle id="Ellipse 5075" cx="244.183" cy="657.762" r="3.00372" fill="black"/>
<circle id="Ellipse 5076" cx="256.199" cy="662.768" r="3.00372" fill="black"/>
<circle id="Ellipse 5077" cx="268.215" cy="657.762" r="3.00372" fill="black"/>
<circle id="Ellipse 5078" cx="279.226" cy="668.776" r="3.00372" fill="black"/>
<circle id="Ellipse 5079" cx="289.242" cy="663.769" r="3.00372" fill="black"/>
<circle id="Ellipse 5080" cx="266.211" cy="671.779" r="3.00372" fill="black"/>
<circle id="Ellipse 5081" cx="256.199" cy="675.784" r="3.00372" fill="black"/>
<circle id="Ellipse 5082" cx="245.183" cy="670.778" r="3.00372" fill="black"/>
<circle id="Ellipse 5083" cx="247.187" cy="684.795" r="3.00372" fill="black"/>
<circle id="Ellipse 5084" cx="261.203" cy="687.799" r="3.00372" fill="black"/>
<circle id="Ellipse 5085" cx="274.222" cy="680.791" r="3.00372" fill="black"/>
<circle id="Ellipse 5086" cx="288.238" cy="679.789" r="3.00372" fill="black"/>
<circle id="Ellipse 5087" cx="287.238" cy="695.809" r="3.00372" fill="black"/>
<circle id="Ellipse 5088" cx="274.222" cy="692.805" r="3.00372" fill="black"/>
<circle id="Ellipse 5089" cx="262.207" cy="700.815" r="3.00372" fill="black"/>
<circle id="Ellipse 5090" cx="250.191" cy="696.81" r="3.00372" fill="black"/>
<circle id="Ellipse 5091" cx="276.222" cy="706.823" r="3.00372" fill="black"/>
<circle id="Ellipse 5092" cx="288.238" cy="711.829" r="3.00372" fill="black"/>
<circle id="Ellipse 5093" cx="265.211" cy="714.833" r="3.00372" fill="black"/>
<circle id="Ellipse 5094" cx="252.191" cy="710.828" r="3.00372" fill="black"/>
<circle id="Ellipse 5095" cx="277.226" cy="720.84" r="3.00372" fill="black"/>
<circle id="Ellipse 5096" cx="288.238" cy="727.849" r="3.00372" fill="black"/>
<circle id="Ellipse 5097" cx="278.226" cy="736.86" r="3.00372" fill="black"/>
<circle id="Ellipse 5098" cx="267.211" cy="730.852" r="3.00372" fill="black"/>
<circle id="Ellipse 5099" cx="254.195" cy="724.845" r="3.00372" fill="black"/>
<circle id="Ellipse 5100" cx="289.242" cy="744.87" r="3.00372" fill="black"/>
<circle id="Ellipse 5101" cx="290.238" cy="762.892" r="3.00372" fill="black"/>
<circle id="Ellipse 5102" cx="279.226" cy="754.882" r="3.00372" fill="black"/>
<circle id="Ellipse 5103" cx="269.215" cy="746.872" r="3.00372" fill="black"/>
<circle id="Ellipse 5104" cx="256.199" cy="739.864" r="3.00372" fill="black"/>
<circle id="Ellipse 5105" cx="258.199" cy="755.883" r="3.00372" fill="black"/>
<circle id="Ellipse 5106" cx="270.215" cy="763.893" r="3.00372" fill="black"/>
<circle id="Ellipse 5107" cx="280.23" cy="771.903" r="3.00372" fill="black"/>
<circle id="Ellipse 5108" cx="292.242" cy="779.913" r="3.00372" fill="black"/>
<circle id="Ellipse 5109" cx="294.242" cy="795.933" r="3.00372" fill="black"/>
<circle id="Ellipse 5110" cx="281.23" cy="789.926" r="3.00372" fill="black"/>
<circle id="Ellipse 5111" cx="269.215" cy="780.914" r="3.00372" fill="black"/>
<circle id="Ellipse 5112" cx="259.203" cy="772.905" r="3.00372" fill="black"/>
<circle id="Ellipse 5113" cx="258.199" cy="788.924" r="3.00372" fill="black"/>
<circle id="Ellipse 5114" cx="270.215" cy="797.935" r="3.00372" fill="black"/>
<circle id="Ellipse 5115" cx="286.238" cy="806.947" r="3.00372" fill="black"/>
<circle id="Ellipse 5116" cx="279.226" cy="820.964" r="3.00372" fill="black"/>
<circle id="Ellipse 5117" cx="269.215" cy="810.951" r="3.00372" fill="black"/>
<circle id="Ellipse 5118" cx="254.195" cy="803.943" r="3.00372" fill="black"/>
<circle id="Ellipse 5119" cx="245.183" cy="815.958" r="3.00372" fill="black"/>
<circle id="Ellipse 5122" cx="236.172" cy="827.973" r="3.00372" fill="black"/>
<circle id="Ellipse 5123" cx="250.191" cy="830.976" r="3.00372" fill="black"/>
<circle id="Ellipse 5124" cx="263.207" cy="840.989" r="3.00372" fill="black"/>
<circle id="Ellipse 5125" cx="250.191" cy="845.995" r="3.00372" fill="black"/>
<circle id="Ellipse 5126" cx="237.172" cy="845.995" r="3.00372" fill="black"/>
<circle id="Ellipse 5127" cx="226.16" cy="838.986" r="3.00372" fill="black"/>
<circle id="Ellipse 5120" cx="261.203" cy="822.966" r="3.00372" fill="black"/>
<circle id="Ellipse 5121" cx="274.222" cy="833.98" r="3.00372" fill="black"/>
<circle id="Ellipse 5012" cx="256.199" cy="452.508" r="3.00372" fill="black"/>
<circle id="Ellipse 4982" cx="297.246" cy="424.473" r="3.00372" fill="black"/>
<circle id="6_DOT" cx="312.265" cy="422.471" r="3.00372" fill="#FF0000"/>
<circle id="Ellipse 4984" cx="328.289" cy="420.468" r="3.00372" fill="black"/>
<circle id="Ellipse 4985" cx="322.281" cy="406.451" r="3.00372" fill="black"/>
<circle id="Ellipse 4986" cx="336.297" cy="433.484" r="3.00372" fill="black"/>
<circle id="Ellipse 4987" cx="319.277" cy="435.487" r="3.00372" fill="black"/>
<circle id="Ellipse 4988" cx="303.254" cy="438.491" r="3.00372" fill="black"/>
<circle id="Ellipse 4989" cx="328.289" cy="446.501" r="3.00372" fill="black"/>
<circle id="Ellipse 4991" cx="314.269" cy="451.507" r="3.00372" fill="black"/>
<circle id="Ellipse 4991_2" cx="296.246" cy="453.509" r="3.00372" fill="black"/>
<circle id="Ellipse 4993" cx="307.262" cy="464.523" r="3.00372" fill="black"/>
<circle id="Ellipse 4994" cx="322.281" cy="467.527" r="3.00372" fill="black"/>
<circle id="Ellipse 4995" cx="328.289" cy="482.545" r="3.00372" fill="black"/>
<circle id="Ellipse 4996" cx="313.269" cy="479.542" r="3.00372" fill="black"/>
<circle id="Ellipse 4997" cx="317.273" cy="495.561" r="3.00372" fill="black"/>
<circle id="Ellipse 4998" cx="333.293" cy="496.563" r="3.00372" fill="black"/>
<circle id="Ellipse 4999" cx="298.25" cy="487.551" r="3.00372" fill="black"/>
<circle id="Ellipse 5000" cx="295.246" cy="471.532" r="3.00372" fill="black"/>
<circle id="Ellipse 5001" cx="280.23" cy="478.54" r="3.00372" fill="black"/>
<circle id="Ellipse 5002" cx="281.23" cy="460.518" r="3.00372" fill="black"/>
<circle id="Ellipse 5003" cx="271.219" cy="448.503" r="3.00372" fill="black"/>
<circle id="Ellipse 4992" cx="285.234" cy="440.493" r="3.00372" fill="black"/>
<circle id="Ellipse 4938" cx="332.293" cy="269.281" r="3.00372" fill="black"/>
<circle id="Ellipse 4941" cx="344.308" cy="258.268" r="3.00372" fill="black"/>
<circle id="Ellipse 4939" cx="307.262" cy="280.295" r="3.00372" fill="black"/>
<circle id="Ellipse 4940" cx="292.242" cy="277.291" r="3.00372" fill="black"/>
<circle id="Ellipse 4907" cx="245.183" cy="239.244" r="3.00372" fill="black"/>
<circle id="Ellipse 4908" cx="230.164" cy="237.242" r="3.00372" fill="black"/>
<circle id="Ellipse 4909" cx="216.148" cy="237.242" r="3.00372" fill="black"/>
<circle id="Ellipse 4910" cx="203.133" cy="236.24" r="3.00372" fill="black"/>
<circle id="Ellipse 4911" cx="201.129" cy="249.256" r="3.00372" fill="black"/>
<circle id="Ellipse 4912" cx="217.152" cy="251.259" r="3.00372" fill="black"/>
<circle id="Ellipse 4914" cx="233.168" cy="251.259" r="3.00372" fill="black"/>
<circle id="Ellipse 4914_2" cx="249.187" cy="253.262" r="3.00372" fill="black"/>
<circle id="Ellipse 4873" cx="292.242" cy="168.156" r="3.00372" fill="black"/>
<circle id="0_DOT" cx="306.258" cy="61.0235" r="3.00372" fill="#FF0000"/>
<circle id="Ellipse 4843" cx="333.293" cy="109.083" r="3.00372" fill="black"/>
<circle id="Ellipse 4827" cx="332.293" cy="137.118" r="3.00372" fill="black"/>
<circle id="Ellipse 4828" cx="316.273" cy="158.144" r="3.00372" fill="black"/>
<circle id="Ellipse 4829" cx="328.289" cy="191.185" r="3.00372" fill="black"/>
<circle id="Ellipse 4830" cx="344.308" cy="194.188" r="3.00372" fill="black"/>
<circle id="Ellipse 4831" cx="336.297" cy="206.203" r="3.00372" fill="black"/>
<circle id="Ellipse 4832" cx="323.281" cy="208.206" r="3.00372" fill="black"/>
<circle id="Ellipse 4833" cx="333.293" cy="220.221" r="3.00372" fill="black"/>
<circle id="Ellipse 4834" cx="314.269" cy="198.193" r="3.00372" fill="black"/>
<circle id="Ellipse 4835" cx="312.265" cy="184.176" r="3.00372" fill="black"/>
<circle id="Ellipse 4836" cx="307.262" cy="170.159" r="3.00372" fill="black"/>
<circle id="Ellipse 4815" cx="364.332" cy="217.217" r="3.00372" fill="black"/>
<circle id="Ellipse 4817" cx="348.312" cy="220.221" r="3.00372" fill="black"/>
<circle id="Ellipse 4817_2" cx="352.32" cy="245.252" r="3.00372" fill="black"/>
<circle id="Ellipse 4821" cx="336.297" cy="244.25" r="3.00372" fill="black"/>
<circle id="Ellipse 4819" cx="343.308" cy="232.235" r="3.00372" fill="black"/>
<circle id="Ellipse 4818" cx="351.316" cy="207.204" r="3.00372" fill="black"/>
<circle id="Ellipse 4816" cx="359.324" cy="231.234" r="3.00372" fill="black"/>
<circle id="Ellipse 4805" cx="403.379" cy="200.196" r="3.00372" fill="black"/>
<circle id="Ellipse 4797" cx="374.344" cy="230.233" r="3.00372" fill="black"/>
<circle id="Ellipse 4798" cx="367.336" cy="245.252" r="3.00372" fill="black"/>
<circle id="Ellipse 4776" cx="350.316" cy="461.519" r="3.00372" fill="black"/>
<circle id="Ellipse 4679" cx="384.355" cy="498.565" r="3.00372" fill="black"/>
<circle id="Ellipse 4680" cx="384.355" cy="482.545" r="3.00372" fill="black"/>
<circle id="Ellipse 4681" cx="372.34" cy="492.557" r="3.00372" fill="black"/>
<circle id="Ellipse 4682" cx="370.34" cy="477.539" r="3.00372" fill="black"/>
<circle id="Ellipse 4683" cx="382.355" cy="466.525" r="3.00372" fill="black"/>
<circle id="Ellipse 4684" cx="380.351" cy="451.507" r="3.00372" fill="black"/>
<circle id="Ellipse 4685" cx="367.336" cy="462.52" r="3.00372" fill="black"/>
<circle id="Ellipse 4686" cx="360.324" cy="450.505" r="3.00372" fill="black"/>
<circle id="Ellipse 4687" cx="367.336" cy="439.492" r="3.00372" fill="black"/>
<circle id="Ellipse 4688" cx="379.351" cy="434.486" r="3.00372" fill="black"/>
<circle id="Ellipse 4689" cx="376.347" cy="419.467" r="3.00372" fill="black"/>
<circle id="Ellipse 4690" cx="373.344" cy="404.449" r="3.00372" fill="black"/>
<circle id="Ellipse 4693" cx="370.34" cy="389.43" r="3.00372" fill="black"/>
<circle id="Ellipse 4694" cx="367.336" cy="373.41" r="3.00372" fill="black"/>
<circle id="Ellipse 4695" cx="353.32" cy="383.422" r="3.00372" fill="black"/>
<circle id="Ellipse 4696" cx="355.324" cy="398.441" r="3.00372" fill="black"/>
<circle id="Ellipse 4697" cx="365.332" cy="357.39" r="3.00372" fill="black"/>
<circle id="Ellipse 4698" cx="351.316" cy="368.404" r="3.00372" fill="black"/>
<circle id="Ellipse 4699" cx="351.316" cy="351.383" r="3.00372" fill="black"/>
<circle id="Ellipse 4700" cx="361.328" cy="340.369" r="3.00372" fill="black"/>
<circle id="Ellipse 4701" cx="345.308" cy="331.358" r="3.00372" fill="black"/>
<circle id="Ellipse 4702" cx="360.324" cy="324.349" r="3.00372" fill="black"/>
<circle id="Ellipse 4703" cx="365.332" cy="309.331" r="3.00372" fill="black"/>
<circle id="Ellipse 4704" cx="367.336" cy="292.31" r="3.00372" fill="black"/>
<circle id="Ellipse 4705" cx="352.32" cy="301.321" r="3.00372" fill="black"/>
<circle id="Ellipse 4707" cx="351.316" cy="288.305" r="3.00372" fill="black"/>
<circle id="Ellipse 4708" cx="361.328" cy="276.29" r="3.00372" fill="black"/>
<circle id="Ellipse 4709" cx="374.344" cy="275.289" r="3.00372" fill="black"/>
<circle id="Ellipse 4710" cx="388.363" cy="268.28" r="3.00372" fill="black"/>
<circle id="Ellipse 4711" cx="403.379" cy="258.268" r="3.00372" fill="black"/>
<circle id="Ellipse 4712" cx="417.398" cy="252.26" r="3.00372" fill="black"/>
<circle id="Ellipse 4713" cx="418.398" cy="265.276" r="3.00372" fill="black"/>
<circle id="Ellipse 4714" cx="401.379" cy="272.285" r="3.00372" fill="black"/>
<circle id="Ellipse 4715" cx="389.363" cy="283.299" r="3.00372" fill="black"/>
<circle id="Ellipse 4716" cx="401.379" cy="289.306" r="3.00372" fill="black"/>
<circle id="Ellipse 4717" cx="412.39" cy="280.295" r="3.00372" fill="black"/>
<circle id="Ellipse 4718" cx="423.406" cy="277.291" r="3.00372" fill="black"/>
<circle id="Ellipse 4719" cx="425.406" cy="290.307" r="3.00372" fill="black"/>
<circle id="Ellipse 4720" cx="414.394" cy="295.314" r="3.00372" fill="black"/>
<circle id="Ellipse 4721" cx="406.383" cy="305.326" r="3.00372" fill="black"/>
<circle id="Ellipse 4722" cx="393.367" cy="300.32" r="3.00372" fill="black"/>
<circle id="Ellipse 4723" cx="400.375" cy="316.339" r="3.00372" fill="black"/>
<circle id="Ellipse 4724" cx="420.402" cy="310.332" r="3.00372" fill="black"/>
<circle id="Ellipse 4725" cx="429.41" cy="302.322" r="3.00372" fill="black"/>
<circle id="Ellipse 4726" cx="434.418" cy="314.337" r="3.00372" fill="black"/>
<circle id="Ellipse 4727" cx="441.426" cy="326.352" r="3.00372" fill="black"/>
<circle id="Ellipse 4728" cx="426.406" cy="323.348" r="3.00372" fill="black"/>
<circle id="Ellipse 4729" cx="412.39" cy="321.346" r="3.00372" fill="black"/>
<circle id="Ellipse 4730" cx="406.383" cy="332.359" r="3.00372" fill="black"/>
<circle id="Ellipse 4731" cx="419.402" cy="335.363" r="3.00372" fill="black"/>
<circle id="Ellipse 4732" cx="433.414" cy="337.366" r="3.00372" fill="black"/>
<circle id="Ellipse 4733" cx="447.433" cy="338.367" r="3.00372" fill="black"/>
<circle id="Ellipse 4734" cx="454.441" cy="350.382" r="3.00372" fill="black"/>
<circle id="Ellipse 4735" cx="440.426" cy="349.38" r="3.00372" fill="black"/>
<circle id="Ellipse 4736" cx="426.406" cy="349.38" r="3.00372" fill="black"/>
<circle id="Ellipse 4737" cx="413.394" cy="347.378" r="3.00372" fill="black"/>
<circle id="Ellipse 4738" cx="420.402" cy="362.397" r="3.00372" fill="black"/>
<circle id="Ellipse 4739" cx="433.414" cy="362.397" r="3.00372" fill="black"/>
<circle id="Ellipse 4740" cx="446.433" cy="362.397" r="3.00372" fill="black"/>
<circle id="Ellipse 4741" cx="459.449" cy="362.397" r="3.00372" fill="black"/>
<circle id="Ellipse 4742" cx="461.453" cy="375.413" r="3.00372" fill="black"/>
<circle id="Ellipse 4743" cx="445.43" cy="375.413" r="3.00372" fill="black"/>
<circle id="Ellipse 4744" cx="429.41" cy="376.414" r="3.00372" fill="black"/>
<circle id="Ellipse 4745" cx="436.418" cy="387.428" r="3.00372" fill="black"/>
<circle id="Ellipse 4746" cx="451.437" cy="388.429" r="3.00372" fill="black"/>
<circle id="Ellipse 4747" cx="466.457" cy="387.428" r="3.00372" fill="black"/>
<circle id="Ellipse 4748" cx="471.465" cy="400.444" r="3.00372" fill="black"/>
<circle id="Ellipse 4749" cx="458.449" cy="401.445" r="3.00372" fill="black"/>
<circle id="Ellipse 4750" cx="444.43" cy="400.444" r="3.00372" fill="black"/>
<circle id="Ellipse 4751" cx="454.441" cy="413.46" r="3.00372" fill="black"/>
<circle id="Ellipse 4752" cx="472.465" cy="412.458" r="3.00372" fill="black"/>
<circle id="Ellipse 4753" cx="478.472" cy="424.473" r="3.00372" fill="black"/>
<circle id="Ellipse 4754" cx="461.453" cy="425.474" r="3.00372" fill="black"/>
<circle id="Ellipse 4755" cx="492.488" cy="427.477" r="3.00372" fill="black"/>
<circle id="Ellipse 4756" cx="506.508" cy="429.48" r="3.00372" fill="black"/>
<circle id="Ellipse 4757" cx="517.519" cy="437.49" r="3.00372" fill="black"/>
<circle id="Ellipse 4758" cx="498.496" cy="441.494" r="3.00372" fill="black"/>
<circle id="Ellipse 4759" cx="481.476" cy="439.492" r="3.00372" fill="black"/>
<circle id="Ellipse 4760" cx="465.457" cy="438.491" r="3.00372" fill="black"/>
<circle id="Ellipse 4761" cx="469.461" cy="451.507" r="3.00372" fill="black"/>
<circle id="Ellipse 4762" cx="486.484" cy="452.508" r="3.00372" fill="black"/>
<circle id="Ellipse 4763" cx="505.504" cy="454.511" r="3.00372" fill="black"/>
<circle id="Ellipse 4764" cx="514.515" cy="465.524" r="3.00372" fill="black"/>
<circle id="Ellipse 4765" cx="519.523" cy="478.54" r="3.00372" fill="black"/>
<circle id="Ellipse 4766" cx="503.504" cy="474.535" r="3.00372" fill="black"/>
<circle id="Ellipse 4767" cx="493.488" cy="465.524" r="3.00372" fill="black"/>
<circle id="Ellipse 4768" cx="475.469" cy="463.522" r="3.00372" fill="black"/>
<circle id="Ellipse 4769" cx="482.48" cy="475.536" r="3.00372" fill="black"/>
<circle id="Ellipse 4770" cx="492.488" cy="485.549" r="3.00372" fill="black"/>
<circle id="Ellipse 4771" cx="508.508" cy="487.551" r="3.00372" fill="black"/>
<circle id="Ellipse 4706" cx="346.312" cy="315.338" r="3.00372" fill="black"/>
<circle id="Ellipse 4691" cx="359.324" cy="412.458" r="3.00372" fill="black"/>
<circle id="Ellipse 4692" cx="362.328" cy="425.474" r="3.00372" fill="black"/>
<circle id="Ellipse 4599" cx="329.289" cy="622.719" r="3.00372" fill="black"/>
<circle id="Ellipse 4600" cx="342.305" cy="632.731" r="3.00372" fill="black"/>
<circle id="Ellipse 4601" cx="358.324" cy="632.731" r="3.00372" fill="black"/>
<circle id="Ellipse 4602" cx="372.34" cy="638.739" r="3.00372" fill="black"/>
<circle id="Ellipse 4603" cx="363.328" cy="649.752" r="3.00372" fill="black"/>
<circle id="Ellipse 4604" cx="373.344" cy="659.764" r="3.00372" fill="black"/>
<circle id="Ellipse 4605" cx="351.316" cy="648.751" r="3.00372" fill="black"/>
<circle id="Ellipse 4606" cx="338.301" cy="647.75" r="3.00372" fill="black"/>
<circle id="Ellipse 4607" cx="327.285" cy="637.737" r="3.00372" fill="black"/>
<circle id="Ellipse 4608" cx="328.289" cy="654.758" r="3.00372" fill="black"/>
<circle id="Ellipse 4609" cx="343.308" cy="664.771" r="3.00372" fill="black"/>
<circle id="Ellipse 4610" cx="358.324" cy="664.771" r="3.00372" fill="black"/>
<circle id="Ellipse 4611" cx="330.289" cy="669.777" r="3.00372" fill="black"/>
<circle id="Ellipse 4612" cx="333.293" cy="682.793" r="3.00372" fill="black"/>
<circle id="Ellipse 4613" cx="351.316" cy="680.791" r="3.00372" fill="black"/>
<circle id="Ellipse 4615" cx="342.305" cy="697.812" r="3.00372" fill="black"/>
<circle id="Ellipse 4616" cx="355.324" cy="698.813" r="3.00372" fill="black"/>
<circle id="Ellipse 4617" cx="368.336" cy="691.804" r="3.00372" fill="black"/>
<circle id="Ellipse 4618" cx="329.289" cy="696.81" r="3.00372" fill="black"/>
<circle id="Ellipse 4619" cx="332.293" cy="711.829" r="3.00372" fill="black"/>
<circle id="Ellipse 4620" cx="347.312" cy="715.834" r="3.00372" fill="black"/>
<circle id="Ellipse 4621" cx="364.332" cy="710.828" r="3.00372" fill="black"/>
<circle id="Ellipse 4622" cx="360.324" cy="727.849" r="3.00372" fill="black"/>
<circle id="Ellipse 4623" cx="345.308" cy="733.856" r="3.00372" fill="black"/>
<circle id="Ellipse 4624" cx="331.293" cy="726.847" r="3.00372" fill="black"/>
<circle id="Ellipse 4625" cx="331.293" cy="741.866" r="3.00372" fill="black"/>
<circle id="Ellipse 4626" cx="343.308" cy="753.881" r="3.00372" fill="black"/>
<circle id="Ellipse 4627" cx="357.32" cy="744.87" r="3.00372" fill="black"/>
<circle id="Ellipse 4628" cx="356.324" cy="760.89" r="3.00372" fill="black"/>
<circle id="Ellipse 4629" cx="329.289" cy="755.883" r="3.00372" fill="black"/>
<circle id="Ellipse 4630" cx="327.285" cy="769.901" r="3.00372" fill="black"/>
<circle id="Ellipse 4631" cx="340.305" cy="771.903" r="3.00372" fill="black"/>
<circle id="Ellipse 4632" cx="355.324" cy="774.907" r="3.00372" fill="black"/>
<circle id="Ellipse 4633" cx="358.324" cy="790.927" r="3.00372" fill="black"/>
<circle id="Ellipse 4634" cx="344.308" cy="785.921" r="3.00372" fill="black"/>
<circle id="Ellipse 4635" cx="326.285" cy="783.918" r="3.00372" fill="black"/>
<circle id="Ellipse 4636" cx="324.281" cy="798.937" r="3.00372" fill="black"/>
<circle id="Ellipse 4637" cx="337.301" cy="796.934" r="3.00372" fill="black"/>
<circle id="Ellipse 4638" cx="350.316" cy="802.942" r="3.00372" fill="black"/>
<circle id="Ellipse 4639" cx="364.332" cy="803.943" r="3.00372" fill="black"/>
<circle id="Ellipse 4640" cx="372.34" cy="815.958" r="3.00372" fill="black"/>
<circle id="Ellipse 4641" cx="359.324" cy="816.959" r="3.00372" fill="black"/>
<circle id="Ellipse 4642" cx="345.308" cy="814.957" r="3.00372" fill="black"/>
<circle id="Ellipse 4643" cx="332.293" cy="810.951" r="3.00372" fill="black"/>
<circle id="Ellipse 4644" cx="337.301" cy="824.969" r="3.00372" fill="black"/>
<circle id="Ellipse 4645" cx="353.32" cy="827.973" r="3.00372" fill="black"/>
<circle id="Ellipse 4646" cx="367.336" cy="831.978" r="3.00372" fill="black"/>
<circle id="Ellipse 4647" cx="379.351" cy="826.971" r="3.00372" fill="black"/>
<circle id="Ellipse 4648" cx="388.363" cy="832.979" r="3.00372" fill="black"/>
<circle id="Ellipse 4649" cx="390.363" cy="843.992" r="3.00372" fill="black"/>
<circle id="Ellipse 4650" cx="379.351" cy="844.994" r="3.00372" fill="black"/>
<circle id="Ellipse 4651" cx="367.336" cy="846.996" r="3.00372" fill="black"/>
<circle id="Ellipse 4652" cx="355.324" cy="842.991" r="3.00372" fill="black"/>
<circle id="Ellipse 4653" cx="343.308" cy="837.985" r="3.00372" fill="black"/>
<circle id="Ellipse 4614" cx="369.336" cy="675.784" r="3.00372" fill="black"/>
</g>
<g id="0_TEXT">
<path id="Attention deficit disorder, hyperactivity disorder" d="M18.88 55H16.22L21.5 40.38H24.12L29.4 55H26.7L25.52 51.62H20.06L18.88 55ZM22.48 44.74L20.82 49.46H24.78L23.1 44.74C22.98 44.36 22.84 43.92 22.8 43.62C22.74 43.9 22.62 44.34 22.48 44.74ZM34.1598 55H31.7198V47.16H29.8198V45.12H31.7198V42.04H34.1598V45.12H36.0798V47.16H34.1598V55ZM41.4302 55H38.9902V47.16H37.0902V45.12H38.9902V42.04H41.4302V45.12H43.3502V47.16H41.4302V55ZM49.3894 55.26C46.4494 55.26 44.3894 53.12 44.3894 50.06C44.3894 46.96 46.4094 44.82 49.3094 44.82C52.2694 44.82 54.1494 46.8 54.1494 49.88V50.62L46.7094 50.64C46.8894 52.38 47.8094 53.26 49.4294 53.26C50.7694 53.26 51.6494 52.74 51.9294 51.8H54.1894C53.7694 53.96 51.9694 55.26 49.3894 55.26ZM49.3294 46.82C47.8894 46.82 47.0094 47.6 46.7694 49.08H51.7294C51.7294 47.72 50.7894 46.82 49.3294 46.82ZM58.7422 55H56.3022V45.12H58.5622L58.7622 46.4C59.3822 45.4 60.5822 44.82 61.9222 44.82C64.4022 44.82 65.6822 46.36 65.6822 48.92V55H63.2422V49.5C63.2422 47.84 62.4222 47.04 61.1622 47.04C59.6622 47.04 58.7422 48.08 58.7422 49.68V55ZM71.6395 55H69.1995V47.16H67.2995V45.12H69.1995V42.04H71.6395V45.12H73.5595V47.16H71.6395V55ZM76.4964 43.14C75.6564 43.14 74.9964 42.48 74.9964 41.66C74.9964 40.84 75.6564 40.2 76.4964 40.2C77.2964 40.2 77.9564 40.84 77.9564 41.66C77.9564 42.48 77.2964 43.14 76.4964 43.14ZM75.2764 55V45.12H77.7164V55H75.2764ZM79.8573 50.04C79.8573 46.96 82.0773 44.84 85.1373 44.84C88.1973 44.84 90.4173 46.96 90.4173 50.04C90.4173 53.12 88.1973 55.24 85.1373 55.24C82.0773 55.24 79.8573 53.12 79.8573 50.04ZM82.2973 50.04C82.2973 51.84 83.4573 53.06 85.1373 53.06C86.8173 53.06 87.9773 51.84 87.9773 50.04C87.9773 48.24 86.8173 47.02 85.1373 47.02C83.4573 47.02 82.2973 48.24 82.2973 50.04ZM94.9914 55H92.5514V45.12H94.8114L95.0114 46.4C95.6314 45.4 96.8314 44.82 98.1714 44.82C100.651 44.82 101.931 46.36 101.931 48.92V55H99.4914V49.5C99.4914 47.84 98.6714 47.04 97.4114 47.04C95.9114 47.04 94.9914 48.08 94.9914 49.68V55ZM114.179 55.26C111.319 55.26 109.539 53.16 109.539 50.1C109.539 47.02 111.339 44.82 114.319 44.82C115.699 44.82 116.919 45.4 117.539 46.38V40.12H119.959V55H117.719L117.559 53.46C116.959 54.6 115.679 55.26 114.179 55.26ZM114.719 53.02C116.419 53.02 117.519 51.8 117.519 50.02C117.519 48.24 116.419 47 114.719 47C113.019 47 111.979 48.26 111.979 50.02C111.979 51.78 113.019 53.02 114.719 53.02ZM127.122 55.26C124.182 55.26 122.122 53.12 122.122 50.06C122.122 46.96 124.142 44.82 127.042 44.82C130.002 44.82 131.882 46.8 131.882 49.88V50.62L124.442 50.64C124.622 52.38 125.542 53.26 127.162 53.26C128.502 53.26 129.382 52.74 129.662 51.8H131.922C131.502 53.96 129.702 55.26 127.122 55.26ZM127.062 46.82C125.622 46.82 124.742 47.6 124.502 49.08H129.462C129.462 47.72 128.522 46.82 127.062 46.82ZM140.935 55V47.16H136.895V55H134.475V47.16H133.055V45.12H134.475V43.92C134.475 41.24 135.875 40.12 137.875 40.12C138.255 40.12 138.715 40.14 139.135 40.22V42.3H138.275C137.175 42.3 136.895 42.94 136.895 43.92V45.12H143.375V55H140.935ZM142.155 43.1C141.335 43.1 140.695 42.46 140.695 41.64C140.695 40.84 141.335 40.2 142.155 40.2C142.955 40.2 143.595 40.84 143.595 41.64C143.595 42.46 142.955 43.1 142.155 43.1ZM145.51 50.04C145.51 46.98 147.53 44.82 150.45 44.82C153.15 44.82 154.99 46.32 155.25 48.7H152.81C152.53 47.58 151.71 47 150.55 47C148.99 47 147.95 48.18 147.95 50.04C147.95 51.9 148.91 53.06 150.47 53.06C151.69 53.06 152.55 52.46 152.81 51.38H155.27C154.97 53.68 153.05 55.26 150.47 55.26C147.47 55.26 145.51 53.18 145.51 50.04ZM158.507 43.14C157.667 43.14 157.007 42.48 157.007 41.66C157.007 40.84 157.667 40.2 158.507 40.2C159.307 40.2 159.967 40.84 159.967 41.66C159.967 42.48 159.307 43.14 158.507 43.14ZM157.287 55V45.12H159.727V55H157.287ZM165.808 55H163.368V47.16H161.468V45.12H163.368V42.04H165.808V45.12H167.728V47.16H165.808V55ZM179.095 55.26C176.235 55.26 174.455 53.16 174.455 50.1C174.455 47.02 176.255 44.82 179.235 44.82C180.615 44.82 181.835 45.4 182.455 46.38V40.12H184.875V55H182.635L182.475 53.46C181.875 54.6 180.595 55.26 179.095 55.26ZM179.635 53.02C181.335 53.02 182.435 51.8 182.435 50.02C182.435 48.24 181.335 47 179.635 47C177.935 47 176.895 48.26 176.895 50.02C176.895 51.78 177.935 53.02 179.635 53.02ZM188.838 43.14C187.998 43.14 187.338 42.48 187.338 41.66C187.338 40.84 187.998 40.2 188.838 40.2C189.638 40.2 190.298 40.84 190.298 41.66C190.298 42.48 189.638 43.14 188.838 43.14ZM187.618 55V45.12H190.058V55H187.618ZM192.019 52H194.339C194.359 52.86 194.999 53.4 196.119 53.4C197.259 53.4 197.879 52.94 197.879 52.22C197.879 51.72 197.619 51.36 196.739 51.16L194.959 50.74C193.179 50.34 192.319 49.5 192.319 47.92C192.319 45.98 193.959 44.82 196.239 44.82C198.459 44.82 199.959 46.1 199.979 48.02H197.659C197.639 47.18 197.079 46.64 196.139 46.64C195.179 46.64 194.619 47.08 194.619 47.82C194.619 48.38 195.059 48.74 195.899 48.94L197.679 49.36C199.339 49.74 200.179 50.5 200.179 52.02C200.179 54.02 198.479 55.26 196.039 55.26C193.579 55.26 192.019 53.94 192.019 52ZM201.657 50.04C201.657 46.96 203.877 44.84 206.937 44.84C209.997 44.84 212.217 46.96 212.217 50.04C212.217 53.12 209.997 55.24 206.937 55.24C203.877 55.24 201.657 53.12 201.657 50.04ZM204.097 50.04C204.097 51.84 205.257 53.06 206.937 53.06C208.617 53.06 209.777 51.84 209.777 50.04C209.777 48.24 208.617 47.02 206.937 47.02C205.257 47.02 204.097 48.24 204.097 50.04ZM220.551 45.08V47.34H219.651C217.891 47.34 216.791 48.28 216.791 50.2V55H214.351V45.14H216.651L216.791 46.58C217.211 45.6 218.151 44.94 219.471 44.94C219.811 44.94 220.151 44.98 220.551 45.08ZM226.13 55.26C223.27 55.26 221.49 53.16 221.49 50.1C221.49 47.02 223.29 44.82 226.27 44.82C227.65 44.82 228.87 45.4 229.49 46.38V40.12H231.91V55H229.67L229.51 53.46C228.91 54.6 227.63 55.26 226.13 55.26ZM226.67 53.02C228.37 53.02 229.47 51.8 229.47 50.02C229.47 48.24 228.37 47 226.67 47C224.97 47 223.93 48.26 223.93 50.02C223.93 51.78 224.97 53.02 226.67 53.02ZM239.073 55.26C236.133 55.26 234.073 53.12 234.073 50.06C234.073 46.96 236.093 44.82 238.993 44.82C241.953 44.82 243.833 46.8 243.833 49.88V50.62L236.393 50.64C236.573 52.38 237.493 53.26 239.113 53.26C240.453 53.26 241.333 52.74 241.613 51.8H243.873C243.453 53.96 241.653 55.26 239.073 55.26ZM239.013 46.82C237.573 46.82 236.693 47.6 236.453 49.08H241.413C241.413 47.72 240.473 46.82 239.013 46.82ZM252.186 45.08V47.34H251.286C249.526 47.34 248.426 48.28 248.426 50.2V55H245.986V45.14H248.286L248.426 46.58C248.846 45.6 249.786 44.94 251.106 44.94C251.446 44.94 251.786 44.98 252.186 45.08ZM255.618 54.12C255.618 55.78 254.418 57.1 252.798 57.3V56.32C253.698 56.16 254.378 55.62 254.378 54.92C254.218 55 254.038 55.04 253.798 55.04C253.018 55.04 252.378 54.46 252.378 53.66C252.378 52.7 252.998 52.06 253.898 52.06C254.898 52.06 255.618 52.88 255.618 54.12ZM19.7 81H17.26V66.12H19.72V72.4C20.34 71.44 21.5 70.82 22.92 70.82C25.36 70.82 26.64 72.36 26.64 74.92V81H24.2V75.5C24.2 73.84 23.38 73.04 22.14 73.04C20.6 73.04 19.7 74.12 19.7 75.6V81ZM28.182 85.58V83.54H29.642C30.602 83.54 31.202 83.32 31.622 82.16L31.902 81.42L27.922 71.12H30.502L33.042 78.32L35.722 71.12H38.242L33.402 83.2C32.662 85.04 31.622 85.8 30.002 85.8C29.322 85.8 28.722 85.72 28.182 85.58ZM39.828 85.58V71.12H42.088L42.248 72.62C42.848 71.48 44.148 70.82 45.648 70.82C48.428 70.82 50.268 72.84 50.268 75.94C50.268 79.02 48.588 81.26 45.648 81.26C44.168 81.26 42.888 80.68 42.268 79.68V85.58H39.828ZM42.288 76.06C42.288 77.84 43.388 79.06 45.068 79.06C46.788 79.06 47.808 77.82 47.808 76.06C47.808 74.3 46.788 73.04 45.068 73.04C43.388 73.04 42.288 74.28 42.288 76.06ZM56.8308 81.26C53.8908 81.26 51.8308 79.12 51.8308 76.06C51.8308 72.96 53.8508 70.82 56.7508 70.82C59.7108 70.82 61.5908 72.8 61.5908 75.88V76.62L54.1508 76.64C54.3308 78.38 55.2508 79.26 56.8708 79.26C58.2108 79.26 59.0908 78.74 59.3708 77.8H61.6308C61.2108 79.96 59.4108 81.26 56.8308 81.26ZM56.7708 72.82C55.3308 72.82 54.4508 73.6 54.2108 75.08H59.1708C59.1708 73.72 58.2308 72.82 56.7708 72.82ZM69.9436 71.08V73.34H69.0436C67.2836 73.34 66.1836 74.28 66.1836 76.2V81H63.7436V71.14H66.0436L66.1836 72.58C66.6036 71.6 67.5436 70.94 68.8636 70.94C69.2036 70.94 69.5436 70.98 69.9436 71.08ZM74.3445 81.26C72.2445 81.26 70.9645 80.04 70.9645 78.18C70.9645 76.36 72.2845 75.22 74.6245 75.04L77.5845 74.82V74.6C77.5845 73.26 76.7845 72.72 75.5445 72.72C74.1045 72.72 73.3045 73.32 73.3045 74.36H71.2245C71.2245 72.22 72.9845 70.82 75.6645 70.82C78.3245 70.82 79.9645 72.26 79.9645 75V81H77.8245L77.6445 79.54C77.2245 80.56 75.8845 81.26 74.3445 81.26ZM75.1445 79.42C76.6445 79.42 77.6045 78.52 77.6045 77V76.48L75.5445 76.64C74.0245 76.78 73.4445 77.28 73.4445 78.08C73.4445 78.98 74.0445 79.42 75.1445 79.42ZM81.9816 76.04C81.9816 72.98 84.0016 70.82 86.9216 70.82C89.6216 70.82 91.4616 72.32 91.7216 74.7H89.2816C89.0016 73.58 88.1816 73 87.0216 73C85.4616 73 84.4216 74.18 84.4216 76.04C84.4216 77.9 85.3816 79.06 86.9416 79.06C88.1616 79.06 89.0216 78.46 89.2816 77.38H91.7416C91.4416 79.68 89.5216 81.26 86.9416 81.26C83.9416 81.26 81.9816 79.18 81.9816 76.04ZM97.1177 81H94.6777V73.16H92.7777V71.12H94.6777V68.04H97.1177V71.12H99.0377V73.16H97.1177V81ZM101.975 69.14C101.135 69.14 100.475 68.48 100.475 67.66C100.475 66.84 101.135 66.2 101.975 66.2C102.775 66.2 103.435 66.84 103.435 67.66C103.435 68.48 102.775 69.14 101.975 69.14ZM100.755 81V71.12H103.195V81H100.755ZM108.715 81L104.795 71.12H107.395L109.115 75.66C109.535 76.84 109.875 77.86 109.995 78.4C110.135 77.78 110.495 76.74 110.915 75.66L112.715 71.12H115.235L111.115 81H108.715ZM118.058 69.14C117.218 69.14 116.558 68.48 116.558 67.66C116.558 66.84 117.218 66.2 118.058 66.2C118.858 66.2 119.518 66.84 119.518 67.66C119.518 68.48 118.858 69.14 118.058 69.14ZM116.838 81V71.12H119.278V81H116.838ZM125.359 81H122.919V73.16H121.019V71.12H122.919V68.04H125.359V71.12H127.279V73.16H125.359V81ZM128.136 85.58V83.54H129.596C130.556 83.54 131.156 83.32 131.576 82.16L131.856 81.42L127.876 71.12H130.456L132.996 78.32L135.676 71.12H138.196L133.356 83.2C132.616 85.04 131.576 85.8 129.956 85.8C129.276 85.8 128.676 85.72 128.136 85.58ZM149.433 81.26C146.573 81.26 144.793 79.16 144.793 76.1C144.793 73.02 146.593 70.82 149.573 70.82C150.953 70.82 152.173 71.4 152.793 72.38V66.12H155.213V81H152.973L152.813 79.46C152.213 80.6 150.933 81.26 149.433 81.26ZM149.973 79.02C151.673 79.02 152.773 77.8 152.773 76.02C152.773 74.24 151.673 73 149.973 73C148.273 73 147.233 74.26 147.233 76.02C147.233 77.78 148.273 79.02 149.973 79.02ZM159.175 69.14C158.335 69.14 157.675 68.48 157.675 67.66C157.675 66.84 158.335 66.2 159.175 66.2C159.975 66.2 160.635 66.84 160.635 67.66C160.635 68.48 159.975 69.14 159.175 69.14ZM157.955 81V71.12H160.395V81H157.955ZM162.356 78H164.676C164.696 78.86 165.336 79.4 166.456 79.4C167.596 79.4 168.216 78.94 168.216 78.22C168.216 77.72 167.956 77.36 167.076 77.16L165.296 76.74C163.516 76.34 162.656 75.5 162.656 73.92C162.656 71.98 164.296 70.82 166.576 70.82C168.796 70.82 170.296 72.1 170.316 74.02H167.996C167.976 73.18 167.416 72.64 166.476 72.64C165.516 72.64 164.956 73.08 164.956 73.82C164.956 74.38 165.396 74.74 166.236 74.94L168.016 75.36C169.676 75.74 170.516 76.5 170.516 78.02C170.516 80.02 168.816 81.26 166.376 81.26C163.916 81.26 162.356 79.94 162.356 78ZM171.994 76.04C171.994 72.96 174.214 70.84 177.274 70.84C180.334 70.84 182.554 72.96 182.554 76.04C182.554 79.12 180.334 81.24 177.274 81.24C174.214 81.24 171.994 79.12 171.994 76.04ZM174.434 76.04C174.434 77.84 175.594 79.06 177.274 79.06C178.954 79.06 180.114 77.84 180.114 76.04C180.114 74.24 178.954 73.02 177.274 73.02C175.594 73.02 174.434 74.24 174.434 76.04ZM190.888 71.08V73.34H189.988C188.228 73.34 187.128 74.28 187.128 76.2V81H184.688V71.14H186.988L187.128 72.58C187.548 71.6 188.488 70.94 189.808 70.94C190.148 70.94 190.488 70.98 190.888 71.08ZM196.468 81.26C193.608 81.26 191.828 79.16 191.828 76.1C191.828 73.02 193.628 70.82 196.608 70.82C197.988 70.82 199.208 71.4 199.828 72.38V66.12H202.248V81H200.008L199.848 79.46C199.248 80.6 197.968 81.26 196.468 81.26ZM197.008 79.02C198.708 79.02 199.808 77.8 199.808 76.02C199.808 74.24 198.708 73 197.008 73C195.308 73 194.268 74.26 194.268 76.02C194.268 77.78 195.308 79.02 197.008 79.02ZM209.41 81.26C206.47 81.26 204.41 79.12 204.41 76.06C204.41 72.96 206.43 70.82 209.33 70.82C212.29 70.82 214.17 72.8 214.17 75.88V76.62L206.73 76.64C206.91 78.38 207.83 79.26 209.45 79.26C210.79 79.26 211.67 78.74 211.95 77.8H214.21C213.79 79.96 211.99 81.26 209.41 81.26ZM209.35 72.82C207.91 72.82 207.03 73.6 206.79 75.08H211.75C211.75 73.72 210.81 72.82 209.35 72.82ZM222.523 71.08V73.34H221.623C219.863 73.34 218.763 74.28 218.763 76.2V81H216.323V71.14H218.623L218.763 72.58C219.183 71.6 220.123 70.94 221.443 70.94C221.783 70.94 222.123 70.98 222.523 71.08Z" fill="white"/>
<path id="Vector 2236" d="M265 61L296 61" stroke="white" stroke-width="3" stroke-linecap="round"/>
</g>
<g id="1_TEXT">
<path id="Asthma" d="M413.88 146H411.22L416.5 131.38H419.12L424.4 146H421.7L420.52 142.62H415.06L413.88 146ZM417.48 135.74L415.82 140.46H419.78L418.1 135.74C417.98 135.36 417.84 134.92 417.8 134.62C417.74 134.9 417.62 135.34 417.48 135.74ZM425.313 143H427.633C427.653 143.86 428.293 144.4 429.413 144.4C430.553 144.4 431.173 143.94 431.173 143.22C431.173 142.72 430.913 142.36 430.033 142.16L428.253 141.74C426.473 141.34 425.613 140.5 425.613 138.92C425.613 136.98 427.253 135.82 429.533 135.82C431.753 135.82 433.253 137.1 433.273 139.02H430.953C430.933 138.18 430.373 137.64 429.433 137.64C428.473 137.64 427.913 138.08 427.913 138.82C427.913 139.38 428.353 139.74 429.193 139.94L430.973 140.36C432.633 140.74 433.473 141.5 433.473 143.02C433.473 145.02 431.773 146.26 429.333 146.26C426.873 146.26 425.313 144.94 425.313 143ZM438.891 146H436.451V138.16H434.551V136.12H436.451V133.04H438.891V136.12H440.811V138.16H438.891V146ZM444.968 146H442.528V131.12H444.988V137.4C445.608 136.44 446.768 135.82 448.188 135.82C450.628 135.82 451.908 137.36 451.908 139.92V146H449.468V140.5C449.468 138.84 448.648 138.04 447.408 138.04C445.868 138.04 444.968 139.12 444.968 140.6V146ZM456.945 146H454.505V136.12H456.745L456.945 137.28C457.445 136.46 458.445 135.82 459.865 135.82C461.365 135.82 462.405 136.56 462.925 137.7C463.425 136.56 464.585 135.82 466.085 135.82C468.485 135.82 469.805 137.26 469.805 139.54V146H467.385V140.18C467.385 138.76 466.625 138.02 465.465 138.02C464.285 138.02 463.385 138.78 463.385 140.4V146H460.945V140.16C460.945 138.78 460.205 138.04 459.045 138.04C457.885 138.04 456.945 138.8 456.945 140.4V146ZM475.341 146.26C473.241 146.26 471.961 145.04 471.961 143.18C471.961 141.36 473.281 140.22 475.621 140.04L478.581 139.82V139.6C478.581 138.26 477.781 137.72 476.541 137.72C475.101 137.72 474.301 138.32 474.301 139.36H472.221C472.221 137.22 473.981 135.82 476.661 135.82C479.321 135.82 480.961 137.26 480.961 140V146H478.821L478.641 144.54C478.221 145.56 476.881 146.26 475.341 146.26ZM476.141 144.42C477.641 144.42 478.601 143.52 478.601 142V141.48L476.541 141.64C475.021 141.78 474.441 142.28 474.441 143.08C474.441 143.98 475.041 144.42 476.141 144.42Z" fill="white"/>
<path id="Vector 2245" d="M318 140L402 140" stroke="white" stroke-width="3" stroke-linecap="round"/>
</g>
<g id="3_TEXT">
<path id="Hormonal changes that can lead to health effects" d="M17.4331 272H14.8731V257.38H17.4331V263.42H23.9131V257.38H26.4731V272H23.9131V265.8H17.4331V272ZM28.9769 267.04C28.9769 263.96 31.1969 261.84 34.2569 261.84C37.3169 261.84 39.5369 263.96 39.5369 267.04C39.5369 270.12 37.3169 272.24 34.2569 272.24C31.1969 272.24 28.9769 270.12 28.9769 267.04ZM31.4169 267.04C31.4169 268.84 32.5769 270.06 34.2569 270.06C35.9369 270.06 37.0969 268.84 37.0969 267.04C37.0969 265.24 35.9369 264.02 34.2569 264.02C32.5769 264.02 31.4169 265.24 31.4169 267.04ZM47.8709 262.08V264.34H46.9709C45.2109 264.34 44.1109 265.28 44.1109 267.2V272H41.6709V262.14H43.9709L44.1109 263.58C44.5309 262.6 45.4709 261.94 46.7909 261.94C47.1309 261.94 47.4709 261.98 47.8709 262.08ZM52.1625 272H49.7225V262.12H51.9625L52.1625 263.28C52.6625 262.46 53.6625 261.82 55.0825 261.82C56.5825 261.82 57.6225 262.56 58.1425 263.7C58.6425 262.56 59.8025 261.82 61.3025 261.82C63.7025 261.82 65.0225 263.26 65.0225 265.54V272H62.6025V266.18C62.6025 264.76 61.8425 264.02 60.6825 264.02C59.5025 264.02 58.6025 264.78 58.6025 266.4V272H56.1625V266.16C56.1625 264.78 55.4225 264.04 54.2625 264.04C53.1025 264.04 52.1625 264.8 52.1625 266.4V272ZM67.0378 267.04C67.0378 263.96 69.2578 261.84 72.3178 261.84C75.3778 261.84 77.5978 263.96 77.5978 267.04C77.5978 270.12 75.3778 272.24 72.3178 272.24C69.2578 272.24 67.0378 270.12 67.0378 267.04ZM69.4778 267.04C69.4778 268.84 70.6378 270.06 72.3178 270.06C73.9978 270.06 75.1578 268.84 75.1578 267.04C75.1578 265.24 73.9978 264.02 72.3178 264.02C70.6378 264.02 69.4778 265.24 69.4778 267.04ZM82.1719 272H79.7319V262.12H81.9919L82.1919 263.4C82.8119 262.4 84.0119 261.82 85.3519 261.82C87.8319 261.82 89.1119 263.36 89.1119 265.92V272H86.6719V266.5C86.6719 264.84 85.8519 264.04 84.5919 264.04C83.0919 264.04 82.1719 265.08 82.1719 266.68V272ZM94.6492 272.26C92.5492 272.26 91.2692 271.04 91.2692 269.18C91.2692 267.36 92.5892 266.22 94.9292 266.04L97.8892 265.82V265.6C97.8892 264.26 97.0892 263.72 95.8492 263.72C94.4092 263.72 93.6092 264.32 93.6092 265.36H91.5292C91.5292 263.22 93.2892 261.82 95.9692 261.82C98.6292 261.82 100.269 263.26 100.269 266V272H98.1292L97.9492 270.54C97.5292 271.56 96.1892 272.26 94.6492 272.26ZM95.4492 270.42C96.9492 270.42 97.9092 269.52 97.9092 268V267.48L95.8492 267.64C94.3292 267.78 93.7492 268.28 93.7492 269.08C93.7492 269.98 94.3492 270.42 95.4492 270.42ZM105.326 272H102.906V257.12H105.326V272ZM113.096 267.04C113.096 263.98 115.116 261.82 118.036 261.82C120.736 261.82 122.576 263.32 122.836 265.7H120.396C120.116 264.58 119.296 264 118.136 264C116.576 264 115.536 265.18 115.536 267.04C115.536 268.9 116.496 270.06 118.056 270.06C119.276 270.06 120.136 269.46 120.396 268.38H122.856C122.556 270.68 120.636 272.26 118.056 272.26C115.056 272.26 113.096 270.18 113.096 267.04ZM127.313 272H124.873V257.12H127.333V263.4C127.953 262.44 129.113 261.82 130.533 261.82C132.973 261.82 134.253 263.36 134.253 265.92V272H131.813V266.5C131.813 264.84 130.993 264.04 129.753 264.04C128.213 264.04 127.313 265.12 127.313 266.6V272ZM139.79 272.26C137.69 272.26 136.41 271.04 136.41 269.18C136.41 267.36 137.73 266.22 140.07 266.04L143.03 265.82V265.6C143.03 264.26 142.23 263.72 140.99 263.72C139.55 263.72 138.75 264.32 138.75 265.36H136.67C136.67 263.22 138.43 261.82 141.11 261.82C143.77 261.82 145.41 263.26 145.41 266V272H143.27L143.09 270.54C142.67 271.56 141.33 272.26 139.79 272.26ZM140.59 270.42C142.09 270.42 143.05 269.52 143.05 268V267.48L140.99 267.64C139.47 267.78 138.89 268.28 138.89 269.08C138.89 269.98 139.49 270.42 140.59 270.42ZM150.447 272H148.007V262.12H150.267L150.467 263.4C151.087 262.4 152.287 261.82 153.627 261.82C156.107 261.82 157.387 263.36 157.387 265.92V272H154.947V266.5C154.947 264.84 154.127 264.04 152.867 264.04C151.367 264.04 150.447 265.08 150.447 266.68V272ZM159.424 266.84C159.424 263.96 161.304 261.8 164.124 261.8C165.604 261.8 166.764 262.42 167.344 263.48L167.484 262.12H169.744V271.5C169.744 274.8 167.764 276.86 164.564 276.86C161.724 276.86 159.784 275.24 159.484 272.6H161.924C162.084 273.88 163.064 274.64 164.564 274.64C166.244 274.64 167.324 273.58 167.324 271.94V270.3C166.704 271.22 165.484 271.8 164.064 271.8C161.264 271.8 159.424 269.7 159.424 266.84ZM161.884 266.78C161.884 268.44 162.944 269.68 164.544 269.68C166.224 269.68 167.264 268.5 167.264 266.78C167.264 265.1 166.244 263.94 164.544 263.94C162.924 263.94 161.884 265.16 161.884 266.78ZM176.889 272.26C173.949 272.26 171.889 270.12 171.889 267.06C171.889 263.96 173.909 261.82 176.809 261.82C179.769 261.82 181.649 263.8 181.649 266.88V267.62L174.209 267.64C174.389 269.38 175.309 270.26 176.929 270.26C178.269 270.26 179.149 269.74 179.429 268.8H181.689C181.269 270.96 179.469 272.26 176.889 272.26ZM176.829 263.82C175.389 263.82 174.509 264.6 174.269 266.08H179.229C179.229 264.72 178.289 263.82 176.829 263.82ZM183.042 269H185.362C185.382 269.86 186.022 270.4 187.142 270.4C188.282 270.4 188.902 269.94 188.902 269.22C188.902 268.72 188.642 268.36 187.762 268.16L185.982 267.74C184.202 267.34 183.342 266.5 183.342 264.92C183.342 262.98 184.982 261.82 187.262 261.82C189.482 261.82 190.982 263.1 191.002 265.02H188.682C188.662 264.18 188.102 263.64 187.162 263.64C186.202 263.64 185.642 264.08 185.642 264.82C185.642 265.38 186.082 265.74 186.922 265.94L188.702 266.36C190.362 266.74 191.202 267.5 191.202 269.02C191.202 271.02 189.502 272.26 187.062 272.26C184.602 272.26 183.042 270.94 183.042 269ZM49.3184 298H46.8784V290.16H44.9784V288.12H46.8784V285.04H49.3184V288.12H51.2384V290.16H49.3184V298ZM55.3953 298H52.9553V283.12H55.4153V289.4C56.0353 288.44 57.1953 287.82 58.6153 287.82C61.0553 287.82 62.3353 289.36 62.3353 291.92V298H59.8953V292.5C59.8953 290.84 59.0753 290.04 57.8353 290.04C56.2953 290.04 55.3953 291.12 55.3953 292.6V298ZM67.8727 298.26C65.7727 298.26 64.4927 297.04 64.4927 295.18C64.4927 293.36 65.8127 292.22 68.1527 292.04L71.1127 291.82V291.6C71.1127 290.26 70.3127 289.72 69.0727 289.72C67.6327 289.72 66.8327 290.32 66.8327 291.36H64.7527C64.7527 289.22 66.5127 287.82 69.1927 287.82C71.8527 287.82 73.4927 289.26 73.4927 292V298H71.3527L71.1727 296.54C70.7527 297.56 69.4127 298.26 67.8727 298.26ZM68.6727 296.42C70.1727 296.42 71.1327 295.52 71.1327 294V293.48L69.0727 293.64C67.5527 293.78 66.9727 294.28 66.9727 295.08C66.9727 295.98 67.5727 296.42 68.6727 296.42ZM79.313 298H76.873V290.16H74.973V288.12H76.873V285.04H79.313V288.12H81.233V290.16H79.313V298ZM87.9605 293.04C87.9605 289.98 89.9805 287.82 92.9005 287.82C95.6005 287.82 97.4405 289.32 97.7005 291.7H95.2605C94.9805 290.58 94.1605 290 93.0005 290C91.4405 290 90.4005 291.18 90.4005 293.04C90.4005 294.9 91.3605 296.06 92.9205 296.06C94.1405 296.06 95.0005 295.46 95.2605 294.38H97.7205C97.4205 296.68 95.5005 298.26 92.9205 298.26C89.9205 298.26 87.9605 296.18 87.9605 293.04ZM102.677 298.26C100.577 298.26 99.2966 297.04 99.2966 295.18C99.2966 293.36 100.617 292.22 102.957 292.04L105.917 291.82V291.6C105.917 290.26 105.117 289.72 103.877 289.72C102.437 289.72 101.637 290.32 101.637 291.36H99.5566C99.5566 289.22 101.317 287.82 103.997 287.82C106.657 287.82 108.297 289.26 108.297 292V298H106.157L105.977 296.54C105.557 297.56 104.217 298.26 102.677 298.26ZM103.477 296.42C104.977 296.42 105.937 295.52 105.937 294V293.48L103.877 293.64C102.357 293.78 101.777 294.28 101.777 295.08C101.777 295.98 102.377 296.42 103.477 296.42ZM113.334 298H110.894V288.12H113.154L113.354 289.4C113.974 288.4 115.174 287.82 116.514 287.82C118.994 287.82 120.274 289.36 120.274 291.92V298H117.834V292.5C117.834 290.84 117.014 290.04 115.754 290.04C114.254 290.04 113.334 291.08 113.334 292.68V298ZM130.922 298H128.502V283.12H130.922V298ZM138.101 298.26C135.161 298.26 133.101 296.12 133.101 293.06C133.101 289.96 135.121 287.82 138.021 287.82C140.981 287.82 142.861 289.8 142.861 292.88V293.62L135.421 293.64C135.601 295.38 136.521 296.26 138.141 296.26C139.481 296.26 140.361 295.74 140.641 294.8H142.901C142.481 296.96 140.681 298.26 138.101 298.26ZM138.041 289.82C136.601 289.82 135.721 290.6 135.481 292.08H140.441C140.441 290.72 139.501 289.82 138.041 289.82ZM147.856 298.26C145.756 298.26 144.476 297.04 144.476 295.18C144.476 293.36 145.796 292.22 148.136 292.04L151.096 291.82V291.6C151.096 290.26 150.296 289.72 149.056 289.72C147.616 289.72 146.816 290.32 146.816 291.36H144.736C144.736 289.22 146.496 287.82 149.176 287.82C151.836 287.82 153.476 289.26 153.476 292V298H151.336L151.156 296.54C150.736 297.56 149.396 298.26 147.856 298.26ZM148.656 296.42C150.156 296.42 151.116 295.52 151.116 294V293.48L149.056 293.64C147.536 293.78 146.956 294.28 146.956 295.08C146.956 295.98 147.556 296.42 148.656 296.42ZM160.133 298.26C157.273 298.26 155.493 296.16 155.493 293.1C155.493 290.02 157.293 287.82 160.273 287.82C161.653 287.82 162.873 288.4 163.493 289.38V283.12H165.913V298H163.673L163.513 296.46C162.913 297.6 161.633 298.26 160.133 298.26ZM160.673 296.02C162.373 296.02 163.473 294.8 163.473 293.02C163.473 291.24 162.373 290 160.673 290C158.973 290 157.933 291.26 157.933 293.02C157.933 294.78 158.973 296.02 160.673 296.02ZM177.607 298H175.167V290.16H173.267V288.12H175.167V285.04H177.607V288.12H179.527V290.16H177.607V298ZM180.566 293.04C180.566 289.96 182.786 287.84 185.846 287.84C188.906 287.84 191.126 289.96 191.126 293.04C191.126 296.12 188.906 298.24 185.846 298.24C182.786 298.24 180.566 296.12 180.566 293.04ZM183.006 293.04C183.006 294.84 184.166 296.06 185.846 296.06C187.526 296.06 188.686 294.84 188.686 293.04C188.686 291.24 187.526 290.02 185.846 290.02C184.166 290.02 183.006 291.24 183.006 293.04ZM68.2805 324H65.8405V309.12H68.3005V315.4C68.9205 314.44 70.0805 313.82 71.5005 313.82C73.9405 313.82 75.2205 315.36 75.2205 317.92V324H72.7805V318.5C72.7805 316.84 71.9605 316.04 70.7205 316.04C69.1805 316.04 68.2805 317.12 68.2805 318.6V324ZM82.2378 324.26C79.2978 324.26 77.2378 322.12 77.2378 319.06C77.2378 315.96 79.2578 313.82 82.1578 313.82C85.1178 313.82 86.9978 315.8 86.9978 318.88V319.62L79.5578 319.64C79.7378 321.38 80.6578 322.26 82.2778 322.26C83.6178 322.26 84.4978 321.74 84.7778 320.8H87.0378C86.6178 322.96 84.8178 324.26 82.2378 324.26ZM82.1778 315.82C80.7378 315.82 79.8578 316.6 79.6178 318.08H84.5778C84.5778 316.72 83.6378 315.82 82.1778 315.82ZM91.993 324.26C89.893 324.26 88.613 323.04 88.613 321.18C88.613 319.36 89.933 318.22 92.273 318.04L95.233 317.82V317.6C95.233 316.26 94.433 315.72 93.193 315.72C91.753 315.72 90.953 316.32 90.953 317.36H88.873C88.873 315.22 90.633 313.82 93.313 313.82C95.973 313.82 97.613 315.26 97.613 318V324H95.473L95.293 322.54C94.873 323.56 93.533 324.26 91.993 324.26ZM92.793 322.42C94.293 322.42 95.253 321.52 95.253 320V319.48L93.193 319.64C91.673 319.78 91.093 320.28 91.093 321.08C91.093 321.98 91.693 322.42 92.793 322.42ZM102.67 324H100.25V309.12H102.67V324ZM108.79 324H106.35V316.16H104.45V314.12H106.35V311.04H108.79V314.12H110.71V316.16H108.79V324ZM114.866 324H112.426V309.12H114.886V315.4C115.506 314.44 116.666 313.82 118.086 313.82C120.526 313.82 121.806 315.36 121.806 317.92V324H119.366V318.5C119.366 316.84 118.546 316.04 117.306 316.04C115.766 316.04 114.866 317.12 114.866 318.6V324ZM134.414 324.26C131.474 324.26 129.414 322.12 129.414 319.06C129.414 315.96 131.434 313.82 134.334 313.82C137.294 313.82 139.174 315.8 139.174 318.88V319.62L131.734 319.64C131.914 321.38 132.834 322.26 134.454 322.26C135.794 322.26 136.674 321.74 136.954 320.8H139.214C138.794 322.96 136.994 324.26 134.414 324.26ZM134.354 315.82C132.914 315.82 132.034 316.6 131.794 318.08H136.754C136.754 316.72 135.814 315.82 134.354 315.82ZM140.347 314.12H141.767V312.92C141.767 310.24 143.167 309.12 145.307 309.12C145.687 309.12 146.147 309.14 146.567 309.22V311.3H145.707C144.467 311.3 144.187 311.94 144.187 312.92V314.12H148.227V312.92C148.227 310.24 149.627 309.12 151.767 309.12C152.167 309.12 152.607 309.14 153.027 309.22V311.3H152.187C150.947 311.3 150.647 311.94 150.647 312.92V314.12H153.007V316.16H150.647V324H148.227V316.16H144.187V324H141.767V316.16H140.347V314.12ZM158.896 324.26C155.956 324.26 153.896 322.12 153.896 319.06C153.896 315.96 155.916 313.82 158.816 313.82C161.776 313.82 163.656 315.8 163.656 318.88V319.62L156.216 319.64C156.396 321.38 157.316 322.26 158.936 322.26C160.276 322.26 161.156 321.74 161.436 320.8H163.696C163.276 322.96 161.476 324.26 158.896 324.26ZM158.836 315.82C157.396 315.82 156.516 316.6 156.276 318.08H161.236C161.236 316.72 160.296 315.82 158.836 315.82ZM165.229 319.04C165.229 315.98 167.249 313.82 170.169 313.82C172.869 313.82 174.709 315.32 174.969 317.7H172.529C172.249 316.58 171.429 316 170.269 316C168.709 316 167.669 317.18 167.669 319.04C167.669 320.9 168.629 322.06 170.189 322.06C171.409 322.06 172.269 321.46 172.529 320.38H174.989C174.689 322.68 172.769 324.26 170.189 324.26C167.189 324.26 165.229 322.18 165.229 319.04ZM180.365 324H177.925V316.16H176.025V314.12H177.925V311.04H180.365V314.12H182.285V316.16H180.365V324ZM183.242 321H185.562C185.582 321.86 186.222 322.4 187.342 322.4C188.482 322.4 189.102 321.94 189.102 321.22C189.102 320.72 188.842 320.36 187.962 320.16L186.182 319.74C184.402 319.34 183.542 318.5 183.542 316.92C183.542 314.98 185.182 313.82 187.462 313.82C189.682 313.82 191.182 315.1 191.202 317.02H188.882C188.862 316.18 188.302 315.64 187.362 315.64C186.402 315.64 185.842 316.08 185.842 316.82C185.842 317.38 186.282 317.74 187.122 317.94L188.902 318.36C190.562 318.74 191.402 319.5 191.402 321.02C191.402 323.02 189.702 324.26 187.262 324.26C184.802 324.26 183.242 322.94 183.242 321Z" fill="white"/>
<path id="Vector 2248" d="M200 293L289 293" stroke="white" stroke-width="3" stroke-linecap="round"/>
</g>
<g id="4_TEXT">
<path id="Insulin resistance" d="M427.18 352.38V367H424.62V352.38H427.18ZM432.701 367H430.261V357.12H432.521L432.721 358.4C433.341 357.4 434.541 356.82 435.881 356.82C438.361 356.82 439.641 358.36 439.641 360.92V367H437.201V361.5C437.201 359.84 436.381 359.04 435.121 359.04C433.621 359.04 432.701 360.08 432.701 361.68V367ZM441.361 364H443.681C443.701 364.86 444.341 365.4 445.461 365.4C446.601 365.4 447.221 364.94 447.221 364.22C447.221 363.72 446.961 363.36 446.081 363.16L444.301 362.74C442.521 362.34 441.661 361.5 441.661 359.92C441.661 357.98 443.301 356.82 445.581 356.82C447.801 356.82 449.301 358.1 449.321 360.02H447.001C446.981 359.18 446.421 358.64 445.481 358.64C444.521 358.64 443.961 359.08 443.961 359.82C443.961 360.38 444.401 360.74 445.241 360.94L447.021 361.36C448.681 361.74 449.521 362.5 449.521 364.02C449.521 366.02 447.821 367.26 445.381 367.26C442.921 367.26 441.361 365.94 441.361 364ZM458.279 357.12H460.719V367H458.459L458.279 365.68C457.679 366.62 456.399 367.26 455.079 367.26C452.799 367.26 451.459 365.72 451.459 363.3V357.12H453.899V362.44C453.899 364.32 454.639 365.08 455.999 365.08C457.539 365.08 458.279 364.18 458.279 362.3V357.12ZM465.899 367H463.479V352.12H465.899V367ZM469.878 355.14C469.038 355.14 468.378 354.48 468.378 353.66C468.378 352.84 469.038 352.2 469.878 352.2C470.678 352.2 471.338 352.84 471.338 353.66C471.338 354.48 470.678 355.14 469.878 355.14ZM468.658 367V357.12H471.098V367H468.658ZM476.259 367H473.819V357.12H476.079L476.279 358.4C476.899 357.4 478.099 356.82 479.439 356.82C481.919 356.82 483.199 358.36 483.199 360.92V367H480.759V361.5C480.759 359.84 479.939 359.04 478.679 359.04C477.179 359.04 476.259 360.08 476.259 361.68V367ZM497.587 357.08V359.34H496.687C494.927 359.34 493.827 360.28 493.827 362.2V367H491.387V357.14H493.687L493.827 358.58C494.247 357.6 495.187 356.94 496.507 356.94C496.847 356.94 497.187 356.98 497.587 357.08ZM503.527 367.26C500.587 367.26 498.527 365.12 498.527 362.06C498.527 358.96 500.547 356.82 503.447 356.82C506.407 356.82 508.287 358.8 508.287 361.88V362.62L500.847 362.64C501.027 364.38 501.947 365.26 503.567 365.26C504.907 365.26 505.787 364.74 506.067 363.8H508.327C507.907 365.96 506.107 367.26 503.527 367.26ZM503.467 358.82C502.027 358.82 501.147 359.6 500.907 361.08H505.867C505.867 359.72 504.927 358.82 503.467 358.82ZM509.68 364H512C512.02 364.86 512.66 365.4 513.78 365.4C514.92 365.4 515.54 364.94 515.54 364.22C515.54 363.72 515.28 363.36 514.4 363.16L512.62 362.74C510.84 362.34 509.98 361.5 509.98 359.92C509.98 357.98 511.62 356.82 513.9 356.82C516.12 356.82 517.62 358.1 517.64 360.02H515.32C515.3 359.18 514.74 358.64 513.8 358.64C512.84 358.64 512.28 359.08 512.28 359.82C512.28 360.38 512.72 360.74 513.56 360.94L515.34 361.36C517 361.74 517.84 362.5 517.84 364.02C517.84 366.02 516.14 367.26 513.7 367.26C511.24 367.26 509.68 365.94 509.68 364ZM521.117 355.14C520.277 355.14 519.617 354.48 519.617 353.66C519.617 352.84 520.277 352.2 521.117 352.2C521.917 352.2 522.577 352.84 522.577 353.66C522.577 354.48 521.917 355.14 521.117 355.14ZM519.897 367V357.12H522.337V367H519.897ZM524.298 364H526.618C526.638 364.86 527.278 365.4 528.398 365.4C529.538 365.4 530.158 364.94 530.158 364.22C530.158 363.72 529.898 363.36 529.018 363.16L527.238 362.74C525.458 362.34 524.598 361.5 524.598 359.92C524.598 357.98 526.238 356.82 528.518 356.82C530.738 356.82 532.238 358.1 532.258 360.02H529.938C529.918 359.18 529.358 358.64 528.418 358.64C527.458 358.64 526.898 359.08 526.898 359.82C526.898 360.38 527.338 360.74 528.178 360.94L529.958 361.36C531.618 361.74 532.458 362.5 532.458 364.02C532.458 366.02 530.758 367.26 528.318 367.26C525.858 367.26 524.298 365.94 524.298 364ZM537.876 367H535.436V359.16H533.536V357.12H535.436V354.04H537.876V357.12H539.796V359.16H537.876V367ZM544.395 367.26C542.295 367.26 541.015 366.04 541.015 364.18C541.015 362.36 542.335 361.22 544.675 361.04L547.635 360.82V360.6C547.635 359.26 546.835 358.72 545.595 358.72C544.155 358.72 543.355 359.32 543.355 360.36H541.275C541.275 358.22 543.035 356.82 545.715 356.82C548.375 356.82 550.015 358.26 550.015 361V367H547.875L547.695 365.54C547.275 366.56 545.935 367.26 544.395 367.26ZM545.195 365.42C546.695 365.42 547.655 364.52 547.655 363V362.48L545.595 362.64C544.075 362.78 543.495 363.28 543.495 364.08C543.495 364.98 544.095 365.42 545.195 365.42ZM555.052 367H552.612V357.12H554.872L555.072 358.4C555.692 357.4 556.892 356.82 558.232 356.82C560.712 356.82 561.992 358.36 561.992 360.92V367H559.552V361.5C559.552 359.84 558.732 359.04 557.472 359.04C555.972 359.04 555.052 360.08 555.052 361.68V367ZM564.009 362.04C564.009 358.98 566.029 356.82 568.949 356.82C571.649 356.82 573.489 358.32 573.749 360.7H571.309C571.029 359.58 570.209 359 569.049 359C567.489 359 566.449 360.18 566.449 362.04C566.449 363.9 567.409 365.06 568.969 365.06C570.189 365.06 571.049 364.46 571.309 363.38H573.769C573.469 365.68 571.549 367.26 568.969 367.26C565.969 367.26 564.009 365.18 564.009 362.04ZM580.205 367.26C577.265 367.26 575.205 365.12 575.205 362.06C575.205 358.96 577.225 356.82 580.125 356.82C583.085 356.82 584.965 358.8 584.965 361.88V362.62L577.525 362.64C577.705 364.38 578.625 365.26 580.245 365.26C581.585 365.26 582.465 364.74 582.745 363.8H585.005C584.585 365.96 582.785 367.26 580.205 367.26ZM580.145 358.82C578.705 358.82 577.825 359.6 577.585 361.08H582.545C582.545 359.72 581.605 358.82 580.145 358.82Z" fill="white"/>
<path id="Vector 2249" d="M318 362L416 362" stroke="white" stroke-width="3" stroke-linecap="round"/>
</g>
<g id="5_TEXT">
<path id="Obesity" d="M188.92 390.68C188.92 395.12 186 398.24 181.8 398.24C177.62 398.24 174.74 395.14 174.74 390.68C174.74 386.24 177.64 383.12 181.82 383.12C186 383.12 188.92 386.22 188.92 390.68ZM186.22 390.68C186.22 387.56 184.5 385.58 181.82 385.58C179.14 385.58 177.42 387.56 177.42 390.68C177.42 393.8 179.14 395.78 181.82 395.78C184.5 395.78 186.22 393.76 186.22 390.68ZM193.403 398H191.143V383.12H193.583V389.56C194.223 388.46 195.543 387.8 197.043 387.8C199.863 387.8 201.583 390 201.583 393.12C201.583 396.16 199.723 398.26 196.883 398.26C195.403 398.26 194.143 397.6 193.563 396.46L193.403 398ZM193.603 393.02C193.603 394.8 194.703 396.02 196.383 396.02C198.103 396.02 199.123 394.78 199.123 393.02C199.123 391.26 198.103 390 196.383 390C194.703 390 193.603 391.24 193.603 393.02ZM208.146 398.26C205.206 398.26 203.146 396.12 203.146 393.06C203.146 389.96 205.166 387.82 208.066 387.82C211.026 387.82 212.906 389.8 212.906 392.88V393.62L205.466 393.64C205.646 395.38 206.566 396.26 208.186 396.26C209.526 396.26 210.406 395.74 210.686 394.8H212.946C212.526 396.96 210.726 398.26 208.146 398.26ZM208.086 389.82C206.646 389.82 205.766 390.6 205.526 392.08H210.486C210.486 390.72 209.546 389.82 208.086 389.82ZM214.298 395H216.618C216.638 395.86 217.278 396.4 218.398 396.4C219.538 396.4 220.158 395.94 220.158 395.22C220.158 394.72 219.898 394.36 219.018 394.16L217.238 393.74C215.458 393.34 214.598 392.5 214.598 390.92C214.598 388.98 216.238 387.82 218.518 387.82C220.738 387.82 222.238 389.1 222.258 391.02H219.938C219.918 390.18 219.358 389.64 218.418 389.64C217.458 389.64 216.898 390.08 216.898 390.82C216.898 391.38 217.338 391.74 218.178 391.94L219.958 392.36C221.618 392.74 222.458 393.5 222.458 395.02C222.458 397.02 220.758 398.26 218.318 398.26C215.858 398.26 214.298 396.94 214.298 395ZM225.736 386.14C224.896 386.14 224.236 385.48 224.236 384.66C224.236 383.84 224.896 383.2 225.736 383.2C226.536 383.2 227.196 383.84 227.196 384.66C227.196 385.48 226.536 386.14 225.736 386.14ZM224.516 398V388.12H226.956V398H224.516ZM233.037 398H230.597V390.16H228.697V388.12H230.597V385.04H233.037V388.12H234.957V390.16H233.037V398ZM235.814 402.58V400.54H237.274C238.234 400.54 238.834 400.32 239.254 399.16L239.534 398.42L235.554 388.12H238.134L240.674 395.32L243.354 388.12H245.874L241.034 400.2C240.294 402.04 239.254 402.8 237.634 402.8C236.954 402.8 236.354 402.72 235.814 402.58Z" fill="white"/>
<path id="Vector 2250" d="M253 394L298 394" stroke="white" stroke-width="3" stroke-linecap="round"/>
</g>
<g id="6_TEXT">
<path id="Infertility" d="M395.18 414.38V429H392.62V414.38H395.18ZM400.701 429H398.261V419.12H400.521L400.721 420.4C401.341 419.4 402.541 418.82 403.881 418.82C406.361 418.82 407.641 420.36 407.641 422.92V429H405.201V423.5C405.201 421.84 404.381 421.04 403.121 421.04C401.621 421.04 400.701 422.08 400.701 423.68V429ZM409.258 419.12H410.678V417.92C410.678 415.24 412.098 414.12 414.238 414.12C414.618 414.12 415.078 414.14 415.498 414.22V416.3H414.638C413.398 416.3 413.098 416.94 413.098 417.92V419.12H415.458V421.16H413.098V429H410.678V421.16H409.258V419.12ZM421.343 429.26C418.403 429.26 416.343 427.12 416.343 424.06C416.343 420.96 418.363 418.82 421.263 418.82C424.223 418.82 426.103 420.8 426.103 423.88V424.62L418.663 424.64C418.843 426.38 419.763 427.26 421.383 427.26C422.723 427.26 423.603 426.74 423.883 425.8H426.143C425.723 427.96 423.923 429.26 421.343 429.26ZM421.283 420.82C419.843 420.82 418.963 421.6 418.723 423.08H423.683C423.683 421.72 422.743 420.82 421.283 420.82ZM434.455 419.08V421.34H433.555C431.795 421.34 430.695 422.28 430.695 424.2V429H428.255V419.14H430.555L430.695 420.58C431.115 419.6 432.055 418.94 433.375 418.94C433.715 418.94 434.055 418.98 434.455 419.08ZM440.058 429H437.618V421.16H435.718V419.12H437.618V416.04H440.058V419.12H441.978V421.16H440.058V429ZM444.914 417.14C444.074 417.14 443.414 416.48 443.414 415.66C443.414 414.84 444.074 414.2 444.914 414.2C445.714 414.2 446.374 414.84 446.374 415.66C446.374 416.48 445.714 417.14 444.914 417.14ZM443.694 429V419.12H446.134V429H443.694ZM451.315 429H448.895V414.12H451.315V429ZM455.295 417.14C454.455 417.14 453.795 416.48 453.795 415.66C453.795 414.84 454.455 414.2 455.295 414.2C456.095 414.2 456.755 414.84 456.755 415.66C456.755 416.48 456.095 417.14 455.295 417.14ZM454.075 429V419.12H456.515V429H454.075ZM462.596 429H460.156V421.16H458.256V419.12H460.156V416.04H462.596V419.12H464.516V421.16H462.596V429ZM465.373 433.58V431.54H466.833C467.793 431.54 468.393 431.32 468.813 430.16L469.093 429.42L465.113 419.12H467.693L470.233 426.32L472.913 419.12H475.433L470.593 431.2C469.853 433.04 468.813 433.8 467.193 433.8C466.513 433.8 465.913 433.72 465.373 433.58Z" fill="white"/>
<path id="Vector 2247" d="M321 422H383" stroke="white" stroke-width="3" stroke-linecap="round"/>
</g>

</svg>
