<svg width="619" height="889" viewBox="0 0 619 889" fill="none" xmlns="http://www.w3.org/2000/svg">
<g id="Bisphenol">
<g id="human">
<circle id="Ellipse 4589" cx="352.32" cy="605.698" r="3.00372" fill="black"/>
<circle id="Ellipse 4590" cx="369.336" cy="604.696" r="3.00372" fill="black"/>
<circle id="Ellipse 4591" cx="359.324" cy="616.711" r="3.00372" fill="black"/>
<circle id="Ellipse 4592" cx="372.34" cy="622.719" r="3.00372" fill="black"/>
<circle id="Ellipse 4593" cx="344.308" cy="618.714" r="3.00372" fill="black"/>
<circle id="Ellipse 4594" cx="333.293" cy="606.699" r="3.00372" fill="black"/>
<circle id="Ellipse 4595" cx="343.308" cy="594.684" r="3.00372" fill="black"/>
<circle id="Ellipse 4596" cx="357.32" cy="591.68" r="3.00372" fill="black"/>
<circle id="Ellipse 4597" cx="370.34" cy="587.675" r="3.00372" fill="black"/>
<circle id="Ellipse 4598" cx="330.289" cy="591.68" r="3.00372" fill="black"/>
<circle id="Ellipse 4654" cx="328.289" cy="577.663" r="3.00372" fill="black"/>
<circle id="Ellipse 4655" cx="343.308" cy="578.664" r="3.00372" fill="black"/>
<circle id="Ellipse 4656" cx="357.32" cy="576.662" r="3.00372" fill="black"/>
<circle id="Ellipse 4657" cx="371.34" cy="571.656" r="3.00372" fill="black"/>
<circle id="Ellipse 4658" cx="372.34" cy="556.637" r="3.00372" fill="black"/>
<circle id="Ellipse 4659" cx="356.324" cy="561.643" r="3.00372" fill="black"/>
<circle id="Ellipse 4660" cx="339.301" cy="563.645" r="3.00372" fill="black"/>
<circle id="Ellipse 4661" cx="324.281" cy="564.647" r="3.00372" fill="black"/>
<circle id="Ellipse 4662" cx="324.281" cy="551.631" r="3.00372" fill="black"/>
<circle id="Ellipse 4663" cx="342.305" cy="549.628" r="3.00372" fill="black"/>
<circle id="Ellipse 4664" cx="359.324" cy="546.624" r="3.00372" fill="black"/>
<circle id="Ellipse 4665" cx="376.347" cy="542.619" r="3.00372" fill="black"/>
<circle id="Ellipse 4666" cx="364.332" cy="532.607" r="3.00372" fill="black"/>
<circle id="Ellipse 4667" cx="348.312" cy="533.608" r="3.00372" fill="black"/>
<circle id="Ellipse 4668" cx="333.293" cy="537.613" r="3.00372" fill="black"/>
<circle id="Ellipse 4669" cx="319.277" cy="539.616" r="3.00372" fill="black"/>
<circle id="Ellipse 4670" cx="379.351" cy="527.601" r="3.00372" fill="black"/>
<circle id="Ellipse 4671" cx="380.351" cy="512.582" r="3.00372" fill="black"/>
<circle id="Ellipse 4672" cx="365.332" cy="519.591" r="3.00372" fill="black"/>
<circle id="Ellipse 4673" cx="349.316" cy="517.589" r="3.00372" fill="black"/>
<circle id="Ellipse 4674" cx="335.297" cy="523.596" r="3.00372" fill="black"/>
<circle id="Ellipse 4675" cx="319.277" cy="524.597" r="3.00372" fill="black"/>
<circle id="Ellipse 4676" cx="334.297" cy="509.578" r="3.00372" fill="black"/>
<circle id="Ellipse 4677" cx="349.316" cy="502.57" r="3.00372" fill="black"/>
<circle id="Ellipse 4678" cx="365.332" cy="505.574" r="3.00372" fill="black"/>
<circle id="Ellipse 4772" cx="358.324" cy="490.555" r="3.00372" fill="black"/>
<circle id="Ellipse 4773" cx="355.324" cy="474.535" r="3.00372" fill="black"/>
<circle id="Ellipse 4774" cx="344.308" cy="486.55" r="3.00372" fill="black"/>
<circle id="Ellipse 4775" cx="339.301" cy="472.533" r="3.00372" fill="black"/>
<circle id="Ellipse 4777" cx="334.297" cy="458.515" r="3.00372" fill="black"/>
<circle id="Ellipse 4778" cx="344.308" cy="447.502" r="3.00372" fill="black"/>
<circle id="Ellipse 4779" cx="352.32" cy="436.488" r="3.00372" fill="black"/>
<circle id="Ellipse 4780" cx="346.312" cy="421.47" r="3.00372" fill="black"/>
<circle id="Ellipse 4781" cx="340.305" cy="407.452" r="3.00372" fill="black"/>
<circle id="Ellipse 4782" cx="340.305" cy="393.435" r="3.00372" fill="black"/>
<circle id="Ellipse 4783" cx="337.301" cy="377.415" r="3.00372" fill="black"/>
<circle id="Ellipse 4784" cx="338.301" cy="361.395" r="3.00372" fill="black"/>
<circle id="Ellipse 4785" cx="338.301" cy="344.374" r="3.00372" fill="black"/>
<circle id="4_DOT" cx="326.285" cy="334.362" r="3.00372" fill="#FF0000"/>
<circle id="Ellipse 4787" cx="331.293" cy="320.345" r="3.00372" fill="black"/>
<circle id="Ellipse 4788" cx="337.301" cy="302.322" r="3.00372" fill="black"/>
<circle id="Ellipse 4789" cx="336.297" cy="284.3" r="3.00372" fill="black"/>
<circle id="Ellipse 4790" cx="347.312" cy="272.285" r="3.00372" fill="black"/>
<circle id="Ellipse 4791" cx="360.324" cy="260.27" r="3.00372" fill="black"/>
<circle id="Ellipse 4792" cx="375.344" cy="259.269" r="3.00372" fill="black"/>
<circle id="Ellipse 4793" cx="389.363" cy="254.263" r="3.00372" fill="black"/>
<circle id="Ellipse 4794" cx="400.375" cy="242.248" r="3.00372" fill="black"/>
<circle id="Ellipse 4795" cx="382.355" cy="242.248" r="3.00372" fill="black"/>
<circle id="Ellipse 4796" cx="392.367" cy="231.234" r="3.00372" fill="black"/>
<circle id="Ellipse 4799" cx="409.387" cy="227.229" r="3.00372" fill="black"/>
<circle id="Ellipse 4800" cx="414.394" cy="239.244" r="3.00372" fill="black"/>
<circle id="Ellipse 4801" cx="409.387" cy="213.212" r="3.00372" fill="black"/>
<circle id="Ellipse 4802" cx="396.371" cy="217.217" r="3.00372" fill="black"/>
<circle id="Ellipse 4803" cx="381.351" cy="218.218" r="3.00372" fill="black"/>
<circle id="Ellipse 4804" cx="390.363" cy="205.202" r="3.00372" fill="black"/>
<circle id="Ellipse 4806" cx="383.355" cy="194.188" r="3.00372" fill="black"/>
<circle id="Ellipse 4807" cx="396.371" cy="187.18" r="3.00372" fill="black"/>
<circle id="Ellipse 4808" cx="383.355" cy="180.171" r="3.00372" fill="black"/>
<circle id="Ellipse 4809" cx="370.34" cy="190.183" r="3.00372" fill="black"/>
<circle id="Ellipse 4810" cx="368.336" cy="177.167" r="3.00372" fill="black"/>
<circle id="Ellipse 4811" cx="374.344" cy="205.202" r="3.00372" fill="black"/>
<circle id="Ellipse 4812" cx="361.328" cy="200.196" r="3.00372" fill="black"/>
<circle id="Ellipse 4813" cx="355.324" cy="186.179" r="3.00372" fill="black"/>
<circle id="Ellipse 4814" cx="354.32" cy="172.161" r="3.00372" fill="black"/>
<circle id="Ellipse 4822" cx="341.305" cy="167.155" r="3.00372" fill="black"/>
<circle id="Ellipse 4823" cx="339.301" cy="181.172" r="3.00372" fill="black"/>
<circle id="Ellipse 4824" cx="325.285" cy="173.162" r="3.00372" fill="black"/>
<circle id="Ellipse 4825" cx="331.293" cy="156.141" r="3.00372" fill="black"/>
<circle id="Ellipse 4826" cx="322.281" cy="145.128" r="3.00372" fill="black"/>
<circle id="Ellipse 4837" cx="308.262" cy="140.121" r="3.00372" fill="black"/>
<circle id="Ellipse 4838" cx="318.273" cy="126.104" r="3.00372" fill="black"/>
<circle id="Ellipse 4839" cx="336.297" cy="123.1" r="3.00372" fill="black"/>
<circle id="Ellipse 4840" cx="347.312" cy="110.084" r="3.00372" fill="black"/>
<circle id="Ellipse 4841" cx="345.308" cy="97.0682" r="3.00372" fill="black"/>
<circle id="Ellipse 4842" cx="329.289" cy="94.0645" r="3.00372" fill="black"/>
<circle id="Ellipse 4844" cx="343.308" cy="81.0484" r="3.00372" fill="black"/>
<circle id="Ellipse 4845" cx="341.305" cy="66.0298" r="3.00372" fill="black"/>
<circle id="Ellipse 4846" cx="328.289" cy="79.046" r="3.00372" fill="black"/>
<circle id="Ellipse 4847" cx="323.281" cy="63.0259" r="3.00372" fill="black"/>
<circle id="Ellipse 4848" cx="334.297" cy="53.0137" r="3.00372" fill="black"/>
<circle id="Ellipse 4849" cx="320.277" cy="47.0062" r="3.00372" fill="black"/>
<circle id="Ellipse 4850" cx="304.258" cy="45.0037" r="3.00372" fill="black"/>
<circle id="Ellipse 4851" cx="290.238" cy="49.0086" r="3.00372" fill="black"/>
<circle id="Ellipse 4853" cx="278.226" cy="59.021" r="3.00372" fill="black"/>
<circle id="Ellipse 4854" cx="291.238" cy="67.0311" r="3.00372" fill="black"/>
<circle id="Ellipse 4855" cx="314.269" cy="77.0433" r="3.00372" fill="black"/>
<circle id="Ellipse 4857" cx="301.254" cy="80.0469" r="3.00372" fill="black"/>
<circle id="Ellipse 4857_2" cx="286.238" cy="85.0533" r="3.00372" fill="black"/>
<circle id="Ellipse 4858" cx="274.222" cy="74.0396" r="3.00372" fill="black"/>
<circle id="Ellipse 4859" cx="272.219" cy="93.0633" r="3.00372" fill="black"/>
<circle id="Ellipse 4860" cx="284.234" cy="100.072" r="3.00372" fill="black"/>
<circle id="Ellipse 4861" cx="299.25" cy="98.0694" r="3.00372" fill="black"/>
<circle id="Ellipse 4862" cx="314.269" cy="94.0645" r="3.00372" fill="black"/>
<circle id="Ellipse 4863" cx="319.277" cy="110.084" r="3.00372" fill="black"/>
<circle id="Ellipse 4864" cx="306.258" cy="112.087" r="3.00372" fill="black"/>
<circle id="Ellipse 4865" cx="290.238" cy="113.088" r="3.00372" fill="black"/>
<circle id="Ellipse 4866" cx="271.219" cy="110.084" r="3.00372" fill="black"/>
<circle id="Ellipse 4867" cx="281.23" cy="125.103" r="3.00372" fill="black"/>
<circle id="Ellipse 4868" cx="300.25" cy="127.105" r="3.00372" fill="black"/>
<circle id="Ellipse 4869" cx="288.238" cy="139.12" r="3.00372" fill="black"/>
<circle id="1_DOT" cx="301.254" cy="153.138" r="3.00372" fill="#FF0000"/>
<circle id="Ellipse 4871" cx="286.238" cy="153.138" r="3.00372" fill="black"/>
<circle id="Ellipse 4872" cx="277.226" cy="166.154" r="3.00372" fill="black"/>
<circle id="Ellipse 4874" cx="264.207" cy="172.161" r="3.00372" fill="black"/>
<circle id="Ellipse 4875" cx="279.226" cy="180.171" r="3.00372" fill="black"/>
<circle id="Ellipse 4876" cx="295.246" cy="182.173" r="3.00372" fill="black"/>
<circle id="Ellipse 4877" cx="300.25" cy="196.191" r="3.00372" fill="black"/>
<circle id="Ellipse 4878" cx="285.234" cy="195.19" r="3.00372" fill="black"/>
<circle id="Ellipse 4879" cx="271.219" cy="193.187" r="3.00372" fill="black"/>
<circle id="Ellipse 4880" cx="260.203" cy="186.179" r="3.00372" fill="black"/>
<circle id="Ellipse 4881" cx="249.187" cy="176.166" r="3.00372" fill="black"/>
<circle id="Ellipse 4882" cx="246.183" cy="193.187" r="3.00372" fill="black"/>
<circle id="Ellipse 4883" cx="259.203" cy="203.2" r="3.00372" fill="black"/>
<circle id="Ellipse 4884" cx="275.222" cy="208.206" r="3.00372" fill="black"/>
<circle id="Ellipse 4885" cx="290.238" cy="210.208" r="3.00372" fill="black"/>
<circle id="Ellipse 4886" cx="306.258" cy="210.208" r="3.00372" fill="black"/>
<circle id="Ellipse 4887" cx="316.273" cy="221.222" r="3.00372" fill="black"/>
<circle id="Ellipse 4888" cx="326.285" cy="232.235" r="3.00372" fill="black"/>
<circle id="Ellipse 4889" cx="299.25" cy="223.224" r="3.00372" fill="black"/>
<circle id="Ellipse 4891" cx="283.234" cy="224.225" r="3.00372" fill="black"/>
<circle id="Ellipse 4891_2" cx="268.215" cy="218.218" r="3.00372" fill="black"/>
<circle id="Ellipse 4892" cx="253.195" cy="217.217" r="3.00372" fill="black"/>
<circle id="Ellipse 4893" cx="242.18" cy="207.204" r="3.00372" fill="black"/>
<circle id="Ellipse 4894" cx="231.164" cy="196.191" r="3.00372" fill="black"/>
<circle id="Ellipse 4895" cx="235.172" cy="180.171" r="3.00372" fill="black"/>
<circle id="Ellipse 4896" cx="221.156" cy="184.176" r="3.00372" fill="black"/>
<circle id="Ellipse 4897" cx="215.148" cy="197.192" r="3.00372" fill="black"/>
<circle id="Ellipse 4898" cx="227.16" cy="210.208" r="3.00372" fill="black"/>
<circle id="Ellipse 4899" cx="223.156" cy="223.224" r="3.00372" fill="black"/>
<circle id="Ellipse 4900" cx="211.144" cy="210.208" r="3.00372" fill="black"/>
<circle id="Ellipse 4901" cx="207.137" cy="223.224" r="3.00372" fill="black"/>
<circle id="Ellipse 4902" cx="239.176" cy="223.224" r="3.00372" fill="black"/>
<circle id="Ellipse 4903" cx="256.199" cy="230.233" r="3.00372" fill="black"/>
<circle id="Ellipse 4904" cx="270.215" cy="233.237" r="3.00372" fill="black"/>
<circle id="Ellipse 4905" cx="281.23" cy="241.247" r="3.00372" fill="black"/>
<circle id="Ellipse 4906" cx="262.207" cy="246.253" r="3.00372" fill="black"/>
<circle id="Ellipse 4915" cx="276.222" cy="254.263" r="3.00372" fill="black"/>
<circle id="Ellipse 4916" cx="264.207" cy="262.273" r="3.00372" fill="black"/>
<circle id="Ellipse 4917" cx="252.191" cy="267.279" r="3.00372" fill="black"/>
<circle id="Ellipse 4918" cx="238.176" cy="265.276" r="3.00372" fill="black"/>
<circle id="Ellipse 4919" cx="223.156" cy="265.276" r="3.00372" fill="black"/>
<circle id="Ellipse 4920" cx="209.14" cy="265.276" r="3.00372" fill="black"/>
<circle id="Ellipse 4921" cx="197.125" cy="262.273" r="3.00372" fill="black"/>
<circle id="Ellipse 4922" cx="196.125" cy="276.29" r="3.00372" fill="black"/>
<circle id="Ellipse 4923" cx="212.144" cy="280.295" r="3.00372" fill="black"/>
<circle id="Ellipse 4924" cx="229.164" cy="278.292" r="3.00372" fill="black"/>
<circle id="Ellipse 4925" cx="247.187" cy="279.294" r="3.00372" fill="black"/>
<circle id="Ellipse 4926" cx="261.203" cy="280.295" r="3.00372" fill="black"/>
<circle id="Ellipse 4927" cx="275.222" cy="273.286" r="3.00372" fill="black"/>
<circle id="Ellipse 4928" cx="287.238" cy="264.275" r="3.00372" fill="black"/>
<circle id="Ellipse 4929" cx="292.242" cy="251.259" r="3.00372" fill="black"/>
<circle id="Ellipse 4930" cx="295.246" cy="236.24" r="3.00372" fill="black"/>
<circle id="Ellipse 4931" cx="310.265" cy="234.238" r="3.00372" fill="black"/>
<circle id="Ellipse 4932" cx="320.277" cy="245.252" r="3.00372" fill="black"/>
<circle id="Ellipse 4933" cx="306.258" cy="250.258" r="3.00372" fill="black"/>
<circle id="Ellipse 4934" cx="317.273" cy="263.274" r="3.00372" fill="black"/>
<circle id="Ellipse 4935" cx="329.289" cy="256.265" r="3.00372" fill="black"/>
<circle id="3_DOT" cx="303.254" cy="265.276" r="3.00372" fill="#FF0000"/>
<circle id="Ellipse 4937" cx="320.277" cy="278.292" r="3.00372" fill="black"/>
<circle id="Ellipse 4942" cx="325.285" cy="293.311" r="3.00372" fill="black"/>
<circle id="Ellipse 4943" cx="312.265" cy="295.314" r="3.00372" fill="black"/>
<circle id="Ellipse 4944" cx="298.25" cy="293.311" r="3.00372" fill="black"/>
<circle id="Ellipse 4945" cx="285.234" cy="290.307" r="3.00372" fill="black"/>
<circle id="Ellipse 4946" cx="272.219" cy="288.305" r="3.00372" fill="black"/>
<circle id="Ellipse 4947" cx="262.207" cy="298.317" r="3.00372" fill="black"/>
<circle id="Ellipse 4948" cx="276.222" cy="303.323" r="3.00372" fill="black"/>
<circle id="Ellipse 4949" cx="290.238" cy="306.327" r="3.00372" fill="black"/>
<circle id="Ellipse 4950" cx="305.258" cy="310.332" r="3.00372" fill="black"/>
<circle id="Ellipse 4951" cx="321.277" cy="309.331" r="3.00372" fill="black"/>
<circle id="Ellipse 4952" cx="313.269" cy="325.351" r="3.00372" fill="black"/>
<circle id="Ellipse 4953" cx="296.246" cy="321.346" r="3.00372" fill="black"/>
<circle id="Ellipse 4954" cx="280.23" cy="318.342" r="3.00372" fill="black"/>
<circle id="Ellipse 4955" cx="266.211" cy="314.337" r="3.00372" fill="black"/>
<circle id="Ellipse 4956" cx="269.215" cy="331.358" r="3.00372" fill="black"/>
<circle id="Ellipse 4957" cx="283.234" cy="332.359" r="3.00372" fill="black"/>
<circle id="Ellipse 4958" cx="298.25" cy="336.364" r="3.00372" fill="black"/>
<circle id="Ellipse 4959" cx="311.265" cy="343.373" r="3.00372" fill="black"/>
<circle id="Ellipse 4960" cx="324.281" cy="351.383" r="3.00372" fill="black"/>
<circle id="Ellipse 4961" cx="325.285" cy="366.401" r="3.00372" fill="black"/>
<circle id="Ellipse 4963" cx="309.262" cy="362.396" r="3.00372" fill="black"/>
<circle id="Ellipse 4963_2" cx="297.246" cy="354.387" r="3.00372" fill="black"/>
<circle id="Ellipse 4964" cx="284.234" cy="347.378" r="3.00372" fill="black"/>
<circle id="Ellipse 4965" cx="269.215" cy="348.379" r="3.00372" fill="black"/>
<circle id="Ellipse 4966" cx="280.23" cy="361.395" r="3.00372" fill="black"/>
<circle id="Ellipse 4967" cx="293.242" cy="369.405" r="3.00372" fill="black"/>
<circle id="Ellipse 4968" cx="304.258" cy="378.416" r="3.00372" fill="black"/>
<circle id="Ellipse 4969" cx="318.273" cy="379.418" r="3.00372" fill="black"/>
<circle id="Ellipse 4970" cx="324.281" cy="392.434" r="3.00372" fill="black"/>
<circle id="5_DOT" cx="307.262" cy="394.436" r="3.00372" fill="#FF0000"/>
<circle id="Ellipse 4972" cx="291.238" cy="389.43" r="3.00372" fill="black"/>
<circle id="Ellipse 4973" cx="278.226" cy="378.416" r="3.00372" fill="black"/>
<circle id="Ellipse 4974" cx="265.211" cy="367.403" r="3.00372" fill="black"/>
<circle id="Ellipse 4975" cx="263.207" cy="384.424" r="3.00372" fill="black"/>
<circle id="Ellipse 5128" cx="249.187" cy="378.416" r="3.00372" fill="black"/>
<circle id="Ellipse 5129" cx="250.191" cy="364.399" r="3.00372" fill="black"/>
<circle id="Ellipse 5130" cx="254.195" cy="352.384" r="3.00372" fill="black"/>
<circle id="Ellipse 5131" cx="255.195" cy="338.367" r="3.00372" fill="black"/>
<circle id="Ellipse 5132" cx="255.195" cy="323.348" r="3.00372" fill="black"/>
<circle id="Ellipse 5133" cx="252.191" cy="308.33" r="3.00372" fill="black"/>
<circle id="Ellipse 5134" cx="250.191" cy="292.31" r="3.00372" fill="black"/>
<circle id="Ellipse 5135" cx="224.156" cy="291.308" r="3.00372" fill="black"/>
<circle id="Ellipse 5136" cx="206.137" cy="296.315" r="3.00372" fill="black"/>
<circle id="Ellipse 5137" cx="192.117" cy="288.305" r="3.00372" fill="black"/>
<circle id="Ellipse 5138" cx="189.113" cy="302.322" r="3.00372" fill="black"/>
<circle id="Ellipse 5139" cx="200.129" cy="313.336" r="3.00372" fill="black"/>
<circle id="Ellipse 5140" cx="214.148" cy="318.342" r="3.00372" fill="black"/>
<circle id="Ellipse 5141" cx="219.152" cy="305.326" r="3.00372" fill="black"/>
<circle id="Ellipse 5142" cx="184.109" cy="315.338" r="3.00372" fill="black"/>
<circle id="Ellipse 5143" cx="193.121" cy="330.357" r="3.00372" fill="black"/>
<circle id="Ellipse 5144" cx="208.14" cy="331.358" r="3.00372" fill="black"/>
<circle id="Ellipse 5145" cx="202.133" cy="346.377" r="3.00372" fill="black"/>
<circle id="Ellipse 5146" cx="185.109" cy="345.375" r="3.00372" fill="black"/>
<circle id="Ellipse 5147" cx="177.097" cy="328.354" r="3.00372" fill="black"/>
<circle id="Ellipse 5148" cx="170.09" cy="340.369" r="3.00372" fill="black"/>
<circle id="Ellipse 5149" cx="163.082" cy="352.384" r="3.00372" fill="black"/>
<circle id="Ellipse 5150" cx="177.097" cy="360.394" r="3.00372" fill="black"/>
<circle id="Ellipse 5151" cx="195.121" cy="361.395" r="3.00372" fill="black"/>
<circle id="Ellipse 5152" cx="186.109" cy="376.414" r="3.00372" fill="black"/>
<circle id="Ellipse 5153" cx="170.09" cy="377.415" r="3.00372" fill="black"/>
<circle id="Ellipse 5154" cx="159.074" cy="365.4" r="3.00372" fill="black"/>
<circle id="Ellipse 5155" cx="153.07" cy="380.419" r="3.00372" fill="black"/>
<circle id="Ellipse 5156" cx="160.078" cy="391.432" r="3.00372" fill="black"/>
<circle id="Ellipse 5158" cx="148.066" cy="400.444" r="3.00372" fill="black"/>
<circle id="Ellipse 5159" cx="167.086" cy="404.449" r="3.00372" fill="black"/>
<circle id="Ellipse 5160" cx="159.074" cy="418.466" r="3.00372" fill="black"/>
<circle id="Ellipse 5161" cx="143.058" cy="415.462" r="3.00372" fill="black"/>
<circle id="Ellipse 5162" cx="131.043" cy="425.474" r="3.00372" fill="black"/>
<circle id="Ellipse 5163" cx="116.023" cy="428.478" r="3.00372" fill="black"/>
<circle id="Ellipse 5164" cx="101.004" cy="436.488" r="3.00372" fill="black"/>
<circle id="Ellipse 5165" cx="151.07" cy="431.482" r="3.00372" fill="black"/>
<circle id="Ellipse 5166" cx="134.047" cy="438.491" r="3.00372" fill="black"/>
<circle id="Ellipse 5168" cx="117.027" cy="444.498" r="3.00372" fill="black"/>
<circle id="Ellipse 5169" cx="133.047" cy="452.508" r="3.00372" fill="black"/>
<circle id="Ellipse 5170" cx="144.058" cy="461.519" r="3.00372" fill="black"/>
<circle id="Ellipse 5171" cx="134.047" cy="472.533" r="3.00372" fill="black"/>
<circle id="Ellipse 5172" cx="123.035" cy="460.518" r="3.00372" fill="black"/>
<circle id="Ellipse 5173" cx="108.015" cy="457.514" r="3.00372" fill="black"/>
<circle id="Ellipse 5174" cx="99.0037" cy="469.529" r="3.00372" fill="black"/>
<circle id="Ellipse 5175" cx="99.0037" cy="482.545" r="3.00372" fill="black"/>
<circle id="Ellipse 5176" cx="115.023" cy="473.534" r="3.00372" fill="black"/>
<circle id="Ellipse 5177" cx="112.019" cy="487.552" r="3.00372" fill="black"/>
<circle id="Ellipse 5178" cx="127.039" cy="485.549" r="3.00372" fill="black"/>
<circle id="Ellipse 5167" cx="149.066" cy="446.501" r="3.00372" fill="black"/>
<circle id="Ellipse 5157" cx="177.097" cy="391.432" r="3.00372" fill="black"/>
<circle id="Ellipse 4976" cx="276.222" cy="395.437" r="3.00372" fill="black"/>
<circle id="Ellipse 4977" cx="260.203" cy="401.445" r="3.00372" fill="black"/>
<circle id="Ellipse 4978" cx="290.238" cy="406.451" r="3.00372" fill="black"/>
<circle id="Ellipse 4979" cx="306.258" cy="409.455" r="3.00372" fill="black"/>
<circle id="Ellipse 4980" cx="273.219" cy="412.458" r="3.00372" fill="black"/>
<circle id="Ellipse 4981" cx="283.234" cy="423.472" r="3.00372" fill="black"/>
<circle id="Ellipse 5004" cx="270.215" cy="431.482" r="3.00372" fill="black"/>
<circle id="Ellipse 5005" cx="257.199" cy="418.466" r="3.00372" fill="black"/>
<circle id="Ellipse 5006" cx="244.183" cy="406.451" r="3.00372" fill="black"/>
<circle id="Ellipse 5007" cx="246.183" cy="391.432" r="3.00372" fill="black"/>
<circle id="Ellipse 5008" cx="241.18" cy="420.469" r="3.00372" fill="black"/>
<circle id="Ellipse 5009" cx="254.195" cy="435.487" r="3.00372" fill="black"/>
<circle id="Ellipse 5010" cx="238.176" cy="435.487" r="3.00372" fill="black"/>
<circle id="Ellipse 5011" cx="239.176" cy="448.503" r="3.00372" fill="black"/>
<circle id="Ellipse 5013" cx="234.168" cy="461.519" r="3.00372" fill="black"/>
<circle id="Ellipse 5014" cx="249.187" cy="464.523" r="3.00372" fill="black"/>
<circle id="Ellipse 5015" cx="266.211" cy="467.527" r="3.00372" fill="black"/>
<circle id="Ellipse 5016" cx="266.211" cy="488.553" r="3.00372" fill="black"/>
<circle id="Ellipse 5017" cx="253.195" cy="478.54" r="3.00372" fill="black"/>
<circle id="Ellipse 5018" cx="236.172" cy="476.538" r="3.00372" fill="black"/>
<circle id="Ellipse 5019" cx="233.168" cy="490.555" r="3.00372" fill="black"/>
<circle id="Ellipse 5020" cx="248.187" cy="492.557" r="3.00372" fill="black"/>
<circle id="Ellipse 5021" cx="284.234" cy="494.56" r="3.00372" fill="black"/>
<circle id="Ellipse 5022" cx="270.215" cy="504.573" r="3.00372" fill="black"/>
<circle id="Ellipse 5023" cx="254.195" cy="505.574" r="3.00372" fill="black"/>
<circle id="Ellipse 5024" cx="235.172" cy="504.573" r="3.00372" fill="black"/>
<circle id="Ellipse 5025" cx="239.176" cy="517.589" r="3.00372" fill="black"/>
<circle id="Ellipse 5026" cx="258.199" cy="518.59" r="3.00372" fill="black"/>
<circle id="Ellipse 5027" cx="273.219" cy="520.592" r="3.00372" fill="black"/>
<circle id="Ellipse 5028" cx="286.238" cy="511.581" r="3.00372" fill="black"/>
<circle id="Ellipse 5029" cx="299.25" cy="504.573" r="3.00372" fill="black"/>
<circle id="Ellipse 5030" cx="318.273" cy="510.58" r="3.00372" fill="black"/>
<circle id="Ellipse 5031" cx="298.25" cy="521.594" r="3.00372" fill="black"/>
<circle id="Ellipse 5032" cx="285.234" cy="529.603" r="3.00372" fill="black"/>
<circle id="Ellipse 5033" cx="298.25" cy="539.616" r="3.00372" fill="black"/>
<circle id="Ellipse 5034" cx="283.234" cy="544.622" r="3.00372" fill="black"/>
<circle id="Ellipse 5036" cx="268.215" cy="534.61" r="3.00372" fill="black"/>
<circle id="Ellipse 5036_2" cx="252.191" cy="531.606" r="3.00372" fill="black"/>
<circle id="Ellipse 5037" cx="256.199" cy="546.624" r="3.00372" fill="black"/>
<circle id="Ellipse 5038" cx="269.215" cy="549.628" r="3.00372" fill="black"/>
<circle id="Ellipse 5039" cx="295.246" cy="555.636" r="3.00372" fill="black"/>
<circle id="Ellipse 5040" cx="280.23" cy="559.64" r="3.00372" fill="black"/>
<circle id="Ellipse 5041" cx="291.238" cy="571.656" r="3.00372" fill="black"/>
<circle id="Ellipse 5042" cx="275.222" cy="571.656" r="3.00372" fill="black"/>
<circle id="Ellipse 5043" cx="261.203" cy="562.644" r="3.00372" fill="black"/>
<circle id="Ellipse 5044" cx="244.183" cy="557.638" r="3.00372" fill="black"/>
<circle id="Ellipse 5045" cx="241.18" cy="543.621" r="3.00372" fill="black"/>
<circle id="Ellipse 5046" cx="237.172" cy="529.603" r="3.00372" fill="black"/>
<circle id="Ellipse 5047" cx="246.183" cy="570.654" r="3.00372" fill="black"/>
<circle id="Ellipse 5048" cx="260.203" cy="576.662" r="3.00372" fill="black"/>
<circle id="Ellipse 5049" cx="272.219" cy="583.67" r="3.00372" fill="black"/>
<circle id="Ellipse 5050" cx="287.238" cy="585.673" r="3.00372" fill="black"/>
<circle id="Ellipse 5051" cx="286.238" cy="601.693" r="3.00372" fill="black"/>
<circle id="Ellipse 5052" cx="276.222" cy="594.684" r="3.00372" fill="black"/>
<circle id="Ellipse 5053" cx="268.215" cy="604.696" r="3.00372" fill="black"/>
<circle id="Ellipse 5054" cx="260.203" cy="591.68" r="3.00372" fill="black"/>
<circle id="Ellipse 5055" cx="247.187" cy="583.67" r="3.00372" fill="black"/>
<circle id="Ellipse 5056" cx="247.187" cy="596.686" r="3.00372" fill="black"/>
<circle id="Ellipse 5057" cx="256.199" cy="607.7" r="3.00372" fill="black"/>
<circle id="Ellipse 5058" cx="245.183" cy="609.702" r="3.00372" fill="black"/>
<circle id="Ellipse 5059" cx="278.226" cy="612.706" r="3.00372" fill="black"/>
<circle id="Ellipse 5060" cx="289.242" cy="617.713" r="3.00372" fill="black"/>
<circle id="Ellipse 5061" cx="278.226" cy="626.723" r="3.00372" fill="black"/>
<circle id="Ellipse 5062" cx="267.211" cy="618.714" r="3.00372" fill="black"/>
<circle id="Ellipse 5063" cx="255.195" cy="622.719" r="3.00372" fill="black"/>
<circle id="Ellipse 5064" cx="243.18" cy="620.716" r="3.00372" fill="black"/>
<circle id="Ellipse 5065" cx="243.18" cy="632.731" r="3.00372" fill="black"/>
<circle id="Ellipse 5066" cx="255.195" cy="636.736" r="3.00372" fill="black"/>
<circle id="Ellipse 5067" cx="267.211" cy="631.73" r="3.00372" fill="black"/>
<circle id="Ellipse 5068" cx="279.226" cy="639.74" r="3.00372" fill="black"/>
<circle id="Ellipse 5069" cx="290.238" cy="633.732" r="3.00372" fill="black"/>
<circle id="Ellipse 5070" cx="290.238" cy="647.75" r="3.00372" fill="black"/>
<circle id="Ellipse 5071" cx="279.226" cy="653.757" r="3.00372" fill="black"/>
<circle id="Ellipse 5072" cx="268.215" cy="645.747" r="3.00372" fill="black"/>
<circle id="Ellipse 5073" cx="255.195" cy="649.752" r="3.00372" fill="black"/>
<circle id="Ellipse 5074" cx="244.183" cy="644.746" r="3.00372" fill="black"/>
<circle id="Ellipse 5075" cx="244.183" cy="657.762" r="3.00372" fill="black"/>
<circle id="Ellipse 5076" cx="256.199" cy="662.768" r="3.00372" fill="black"/>
<circle id="Ellipse 5077" cx="268.215" cy="657.762" r="3.00372" fill="black"/>
<circle id="Ellipse 5078" cx="279.226" cy="668.776" r="3.00372" fill="black"/>
<circle id="Ellipse 5079" cx="289.242" cy="663.769" r="3.00372" fill="black"/>
<circle id="Ellipse 5080" cx="266.211" cy="671.779" r="3.00372" fill="black"/>
<circle id="Ellipse 5081" cx="256.199" cy="675.784" r="3.00372" fill="black"/>
<circle id="Ellipse 5082" cx="245.183" cy="670.778" r="3.00372" fill="black"/>
<circle id="Ellipse 5083" cx="247.187" cy="684.796" r="3.00372" fill="black"/>
<circle id="Ellipse 5084" cx="261.203" cy="687.799" r="3.00372" fill="black"/>
<circle id="Ellipse 5085" cx="274.222" cy="680.79" r="3.00372" fill="black"/>
<circle id="Ellipse 5086" cx="288.238" cy="679.789" r="3.00372" fill="black"/>
<circle id="Ellipse 5087" cx="287.238" cy="695.809" r="3.00372" fill="black"/>
<circle id="Ellipse 5088" cx="274.222" cy="692.805" r="3.00372" fill="black"/>
<circle id="Ellipse 5089" cx="262.207" cy="700.815" r="3.00372" fill="black"/>
<circle id="Ellipse 5090" cx="250.191" cy="696.81" r="3.00372" fill="black"/>
<circle id="Ellipse 5091" cx="276.222" cy="706.823" r="3.00372" fill="black"/>
<circle id="Ellipse 5092" cx="288.238" cy="711.829" r="3.00372" fill="black"/>
<circle id="Ellipse 5093" cx="265.211" cy="714.833" r="3.00372" fill="black"/>
<circle id="Ellipse 5094" cx="252.191" cy="710.828" r="3.00372" fill="black"/>
<circle id="Ellipse 5095" cx="277.226" cy="720.84" r="3.00372" fill="black"/>
<circle id="Ellipse 5096" cx="288.238" cy="727.849" r="3.00372" fill="black"/>
<circle id="Ellipse 5097" cx="278.226" cy="736.86" r="3.00372" fill="black"/>
<circle id="Ellipse 5098" cx="267.211" cy="730.852" r="3.00372" fill="black"/>
<circle id="Ellipse 5099" cx="254.195" cy="724.845" r="3.00372" fill="black"/>
<circle id="Ellipse 5100" cx="289.242" cy="744.87" r="3.00372" fill="black"/>
<circle id="Ellipse 5101" cx="290.238" cy="762.892" r="3.00372" fill="black"/>
<circle id="Ellipse 5102" cx="279.226" cy="754.882" r="3.00372" fill="black"/>
<circle id="Ellipse 5103" cx="269.215" cy="746.872" r="3.00372" fill="black"/>
<circle id="Ellipse 5104" cx="256.199" cy="739.864" r="3.00372" fill="black"/>
<circle id="Ellipse 5105" cx="258.199" cy="755.884" r="3.00372" fill="black"/>
<circle id="Ellipse 5106" cx="270.215" cy="763.893" r="3.00372" fill="black"/>
<circle id="Ellipse 5107" cx="280.23" cy="771.903" r="3.00372" fill="black"/>
<circle id="Ellipse 5108" cx="292.242" cy="779.913" r="3.00372" fill="black"/>
<circle id="Ellipse 5109" cx="294.242" cy="795.933" r="3.00372" fill="black"/>
<circle id="Ellipse 5110" cx="281.23" cy="789.926" r="3.00372" fill="black"/>
<circle id="Ellipse 5111" cx="269.215" cy="780.914" r="3.00372" fill="black"/>
<circle id="Ellipse 5112" cx="259.203" cy="772.905" r="3.00372" fill="black"/>
<circle id="Ellipse 5113" cx="258.199" cy="788.924" r="3.00372" fill="black"/>
<circle id="Ellipse 5114" cx="270.215" cy="797.935" r="3.00372" fill="black"/>
<circle id="Ellipse 5115" cx="286.238" cy="806.947" r="3.00372" fill="black"/>
<circle id="Ellipse 5116" cx="279.226" cy="820.964" r="3.00372" fill="black"/>
<circle id="Ellipse 5117" cx="269.215" cy="810.951" r="3.00372" fill="black"/>
<circle id="Ellipse 5118" cx="254.195" cy="803.943" r="3.00372" fill="black"/>
<circle id="Ellipse 5119" cx="245.183" cy="815.958" r="3.00372" fill="black"/>
<circle id="Ellipse 5122" cx="236.172" cy="827.972" r="3.00372" fill="black"/>
<circle id="Ellipse 5123" cx="250.191" cy="830.976" r="3.00372" fill="black"/>
<circle id="Ellipse 5124" cx="263.207" cy="840.989" r="3.00372" fill="black"/>
<circle id="Ellipse 5125" cx="250.191" cy="845.995" r="3.00372" fill="black"/>
<circle id="Ellipse 5126" cx="237.172" cy="845.995" r="3.00372" fill="black"/>
<circle id="Ellipse 5127" cx="226.16" cy="838.986" r="3.00372" fill="black"/>
<circle id="Ellipse 5120" cx="261.203" cy="822.967" r="3.00372" fill="black"/>
<circle id="Ellipse 5121" cx="274.222" cy="833.98" r="3.00372" fill="black"/>
<circle id="Ellipse 5012" cx="256.199" cy="452.508" r="3.00372" fill="black"/>
<circle id="Ellipse 4982" cx="297.246" cy="424.473" r="3.00372" fill="black"/>
<circle id="Ellipse 4984" cx="312.265" cy="422.471" r="3.00372" fill="black"/>
<circle id="Ellipse 4984_2" cx="328.289" cy="420.469" r="3.00372" fill="black"/>
<circle id="Ellipse 4985" cx="322.281" cy="406.451" r="3.00372" fill="black"/>
<circle id="Ellipse 4986" cx="336.297" cy="433.485" r="3.00372" fill="black"/>
<circle id="Ellipse 4987" cx="319.277" cy="435.487" r="3.00372" fill="black"/>
<circle id="Ellipse 4988" cx="303.254" cy="438.491" r="3.00372" fill="black"/>
<circle id="Ellipse 4989" cx="328.289" cy="446.501" r="3.00372" fill="black"/>
<circle id="6_DOT" cx="314.269" cy="451.507" r="3.00372" fill="#FF0000"/>
<circle id="Ellipse 4991" cx="296.246" cy="453.509" r="3.00372" fill="black"/>
<circle id="Ellipse 4993" cx="307.262" cy="464.523" r="3.00372" fill="black"/>
<circle id="Ellipse 4994" cx="322.281" cy="467.527" r="3.00372" fill="black"/>
<circle id="Ellipse 4995" cx="328.289" cy="482.545" r="3.00372" fill="black"/>
<circle id="Ellipse 4996" cx="313.269" cy="479.541" r="3.00372" fill="black"/>
<circle id="Ellipse 4997" cx="317.273" cy="495.561" r="3.00372" fill="black"/>
<circle id="Ellipse 4998" cx="333.293" cy="496.563" r="3.00372" fill="black"/>
<circle id="Ellipse 4999" cx="298.25" cy="487.552" r="3.00372" fill="black"/>
<circle id="Ellipse 5000" cx="295.246" cy="471.532" r="3.00372" fill="black"/>
<circle id="Ellipse 5001" cx="280.23" cy="478.54" r="3.00372" fill="black"/>
<circle id="Ellipse 5002" cx="281.23" cy="460.518" r="3.00372" fill="black"/>
<circle id="Ellipse 5003" cx="271.219" cy="448.503" r="3.00372" fill="black"/>
<circle id="Ellipse 4992" cx="285.234" cy="440.493" r="3.00372" fill="black"/>
<circle id="Ellipse 4938" cx="332.293" cy="269.281" r="3.00372" fill="black"/>
<circle id="Ellipse 4941" cx="344.308" cy="258.268" r="3.00372" fill="black"/>
<circle id="Ellipse 4939" cx="307.262" cy="280.295" r="3.00372" fill="black"/>
<circle id="Ellipse 4940" cx="292.242" cy="277.291" r="3.00372" fill="black"/>
<circle id="Ellipse 4907" cx="245.183" cy="239.244" r="3.00372" fill="black"/>
<circle id="Ellipse 4908" cx="230.164" cy="237.242" r="3.00372" fill="black"/>
<circle id="Ellipse 4909" cx="216.148" cy="237.242" r="3.00372" fill="black"/>
<circle id="Ellipse 4910" cx="203.133" cy="236.24" r="3.00372" fill="black"/>
<circle id="Ellipse 4911" cx="201.129" cy="249.256" r="3.00372" fill="black"/>
<circle id="Ellipse 4912" cx="217.152" cy="251.259" r="3.00372" fill="black"/>
<circle id="Ellipse 4914" cx="233.168" cy="251.259" r="3.00372" fill="black"/>
<circle id="Ellipse 4914_2" cx="249.187" cy="253.262" r="3.00372" fill="black"/>
<circle id="Ellipse 4873" cx="292.242" cy="168.156" r="3.00372" fill="black"/>
<circle id="0_DOT" cx="306.258" cy="61.0235" r="3.00372" fill="#FF0000"/>
<circle id="Ellipse 4843" cx="333.293" cy="109.083" r="3.00372" fill="black"/>
<circle id="Ellipse 4827" cx="332.293" cy="137.118" r="3.00372" fill="black"/>
<circle id="Ellipse 4828" cx="316.273" cy="158.144" r="3.00372" fill="black"/>
<circle id="Ellipse 4829" cx="328.289" cy="191.185" r="3.00372" fill="black"/>
<circle id="Ellipse 4830" cx="344.308" cy="194.188" r="3.00372" fill="black"/>
<circle id="Ellipse 4831" cx="336.297" cy="206.203" r="3.00372" fill="black"/>
<circle id="Ellipse 4832" cx="323.281" cy="208.206" r="3.00372" fill="black"/>
<circle id="Ellipse 4833" cx="333.293" cy="220.221" r="3.00372" fill="black"/>
<circle id="Ellipse 4834" cx="314.269" cy="198.193" r="3.00372" fill="black"/>
<circle id="Ellipse 4835" cx="312.265" cy="184.176" r="3.00372" fill="black"/>
<circle id="Ellipse 4836" cx="307.262" cy="170.159" r="3.00372" fill="black"/>
<circle id="Ellipse 4815" cx="364.332" cy="217.217" r="3.00372" fill="black"/>
<circle id="Ellipse 4817" cx="348.312" cy="220.221" r="3.00372" fill="black"/>
<circle id="2_DOT" cx="352.32" cy="245.252" r="3.00372" fill="#FF0000"/>
<circle id="Ellipse 4821" cx="336.297" cy="244.25" r="3.00372" fill="black"/>
<circle id="Ellipse 4819" cx="343.308" cy="232.235" r="3.00372" fill="black"/>
<circle id="Ellipse 4818" cx="351.316" cy="207.204" r="3.00372" fill="black"/>
<circle id="Ellipse 4816" cx="359.324" cy="231.234" r="3.00372" fill="black"/>
<circle id="Ellipse 4805" cx="403.379" cy="200.196" r="3.00372" fill="black"/>
<circle id="Ellipse 4797" cx="374.344" cy="230.233" r="3.00372" fill="black"/>
<circle id="Ellipse 4798" cx="367.336" cy="245.252" r="3.00372" fill="black"/>
<circle id="Ellipse 4776" cx="350.316" cy="461.519" r="3.00372" fill="black"/>
<circle id="Ellipse 4679" cx="384.355" cy="498.565" r="3.00372" fill="black"/>
<circle id="Ellipse 4680" cx="384.355" cy="482.545" r="3.00372" fill="black"/>
<circle id="Ellipse 4681" cx="372.34" cy="492.557" r="3.00372" fill="black"/>
<circle id="Ellipse 4682" cx="370.34" cy="477.539" r="3.00372" fill="black"/>
<circle id="Ellipse 4683" cx="382.355" cy="466.525" r="3.00372" fill="black"/>
<circle id="Ellipse 4684" cx="380.351" cy="451.507" r="3.00372" fill="black"/>
<circle id="Ellipse 4685" cx="367.336" cy="462.52" r="3.00372" fill="black"/>
<circle id="Ellipse 4686" cx="360.324" cy="450.506" r="3.00372" fill="black"/>
<circle id="Ellipse 4687" cx="367.336" cy="439.492" r="3.00372" fill="black"/>
<circle id="Ellipse 4688" cx="379.351" cy="434.486" r="3.00372" fill="black"/>
<circle id="Ellipse 4689" cx="376.347" cy="419.467" r="3.00372" fill="black"/>
<circle id="Ellipse 4690" cx="373.344" cy="404.449" r="3.00372" fill="black"/>
<circle id="Ellipse 4693" cx="370.34" cy="389.43" r="3.00372" fill="black"/>
<circle id="Ellipse 4694" cx="367.336" cy="373.41" r="3.00372" fill="black"/>
<circle id="Ellipse 4695" cx="353.32" cy="383.423" r="3.00372" fill="black"/>
<circle id="Ellipse 4696" cx="355.324" cy="398.441" r="3.00372" fill="black"/>
<circle id="Ellipse 4697" cx="365.332" cy="357.39" r="3.00372" fill="black"/>
<circle id="Ellipse 4698" cx="351.316" cy="368.404" r="3.00372" fill="black"/>
<circle id="Ellipse 4699" cx="351.316" cy="351.383" r="3.00372" fill="black"/>
<circle id="Ellipse 4700" cx="361.328" cy="340.369" r="3.00372" fill="black"/>
<circle id="Ellipse 4701" cx="345.308" cy="331.358" r="3.00372" fill="black"/>
<circle id="Ellipse 4702" cx="360.324" cy="324.349" r="3.00372" fill="black"/>
<circle id="Ellipse 4703" cx="365.332" cy="309.331" r="3.00372" fill="black"/>
<circle id="Ellipse 4704" cx="367.336" cy="292.31" r="3.00372" fill="black"/>
<circle id="Ellipse 4705" cx="352.32" cy="301.321" r="3.00372" fill="black"/>
<circle id="Ellipse 4707" cx="351.316" cy="288.305" r="3.00372" fill="black"/>
<circle id="Ellipse 4708" cx="361.328" cy="276.29" r="3.00372" fill="black"/>
<circle id="Ellipse 4709" cx="374.344" cy="275.289" r="3.00372" fill="black"/>
<circle id="Ellipse 4710" cx="388.363" cy="268.28" r="3.00372" fill="black"/>
<circle id="Ellipse 4711" cx="403.379" cy="258.268" r="3.00372" fill="black"/>
<circle id="Ellipse 4712" cx="417.398" cy="252.26" r="3.00372" fill="black"/>
<circle id="Ellipse 4713" cx="418.398" cy="265.276" r="3.00372" fill="black"/>
<circle id="Ellipse 4714" cx="401.379" cy="272.285" r="3.00372" fill="black"/>
<circle id="Ellipse 4715" cx="389.363" cy="283.299" r="3.00372" fill="black"/>
<circle id="Ellipse 4716" cx="401.379" cy="289.306" r="3.00372" fill="black"/>
<circle id="Ellipse 4717" cx="412.39" cy="280.295" r="3.00372" fill="black"/>
<circle id="Ellipse 4718" cx="423.406" cy="277.291" r="3.00372" fill="black"/>
<circle id="Ellipse 4719" cx="425.406" cy="290.307" r="3.00372" fill="black"/>
<circle id="Ellipse 4720" cx="414.394" cy="295.314" r="3.00372" fill="black"/>
<circle id="Ellipse 4721" cx="406.383" cy="305.326" r="3.00372" fill="black"/>
<circle id="Ellipse 4722" cx="393.367" cy="300.32" r="3.00372" fill="black"/>
<circle id="Ellipse 4723" cx="400.375" cy="316.339" r="3.00372" fill="black"/>
<circle id="Ellipse 4724" cx="420.402" cy="310.332" r="3.00372" fill="black"/>
<circle id="Ellipse 4725" cx="429.41" cy="302.322" r="3.00372" fill="black"/>
<circle id="Ellipse 4726" cx="434.418" cy="314.337" r="3.00372" fill="black"/>
<circle id="Ellipse 4727" cx="441.426" cy="326.352" r="3.00372" fill="black"/>
<circle id="Ellipse 4728" cx="426.406" cy="323.348" r="3.00372" fill="black"/>
<circle id="Ellipse 4729" cx="412.39" cy="321.346" r="3.00372" fill="black"/>
<circle id="Ellipse 4730" cx="406.383" cy="332.359" r="3.00372" fill="black"/>
<circle id="Ellipse 4731" cx="419.402" cy="335.363" r="3.00372" fill="black"/>
<circle id="Ellipse 4732" cx="433.414" cy="337.366" r="3.00372" fill="black"/>
<circle id="Ellipse 4733" cx="447.433" cy="338.367" r="3.00372" fill="black"/>
<circle id="Ellipse 4734" cx="454.441" cy="350.382" r="3.00372" fill="black"/>
<circle id="Ellipse 4735" cx="440.426" cy="349.38" r="3.00372" fill="black"/>
<circle id="Ellipse 4736" cx="426.406" cy="349.38" r="3.00372" fill="black"/>
<circle id="Ellipse 4737" cx="413.394" cy="347.378" r="3.00372" fill="black"/>
<circle id="Ellipse 4738" cx="420.402" cy="362.396" r="3.00372" fill="black"/>
<circle id="Ellipse 4739" cx="433.414" cy="362.396" r="3.00372" fill="black"/>
<circle id="Ellipse 4740" cx="446.433" cy="362.396" r="3.00372" fill="black"/>
<circle id="Ellipse 4741" cx="459.449" cy="362.396" r="3.00372" fill="black"/>
<circle id="Ellipse 4742" cx="461.453" cy="375.412" r="3.00372" fill="black"/>
<circle id="Ellipse 4743" cx="445.43" cy="375.412" r="3.00372" fill="black"/>
<circle id="Ellipse 4744" cx="429.41" cy="376.414" r="3.00372" fill="black"/>
<circle id="Ellipse 4745" cx="436.418" cy="387.428" r="3.00372" fill="black"/>
<circle id="Ellipse 4746" cx="451.437" cy="388.429" r="3.00372" fill="black"/>
<circle id="Ellipse 4747" cx="466.457" cy="387.428" r="3.00372" fill="black"/>
<circle id="Ellipse 4748" cx="471.465" cy="400.444" r="3.00372" fill="black"/>
<circle id="Ellipse 4749" cx="458.449" cy="401.445" r="3.00372" fill="black"/>
<circle id="Ellipse 4750" cx="444.43" cy="400.444" r="3.00372" fill="black"/>
<circle id="Ellipse 4751" cx="454.441" cy="413.46" r="3.00372" fill="black"/>
<circle id="Ellipse 4752" cx="472.465" cy="412.458" r="3.00372" fill="black"/>
<circle id="Ellipse 4753" cx="478.472" cy="424.473" r="3.00372" fill="black"/>
<circle id="Ellipse 4754" cx="461.453" cy="425.474" r="3.00372" fill="black"/>
<circle id="Ellipse 4755" cx="492.488" cy="427.477" r="3.00372" fill="black"/>
<circle id="Ellipse 4756" cx="506.508" cy="429.479" r="3.00372" fill="black"/>
<circle id="Ellipse 4757" cx="517.519" cy="437.49" r="3.00372" fill="black"/>
<circle id="Ellipse 4758" cx="498.496" cy="441.494" r="3.00372" fill="black"/>
<circle id="Ellipse 4759" cx="481.476" cy="439.492" r="3.00372" fill="black"/>
<circle id="Ellipse 4760" cx="465.457" cy="438.491" r="3.00372" fill="black"/>
<circle id="Ellipse 4761" cx="469.461" cy="451.507" r="3.00372" fill="black"/>
<circle id="Ellipse 4762" cx="486.484" cy="452.508" r="3.00372" fill="black"/>
<circle id="Ellipse 4763" cx="505.504" cy="454.511" r="3.00372" fill="black"/>
<circle id="Ellipse 4764" cx="514.515" cy="465.524" r="3.00372" fill="black"/>
<circle id="Ellipse 4765" cx="519.523" cy="478.54" r="3.00372" fill="black"/>
<circle id="Ellipse 4766" cx="503.504" cy="474.535" r="3.00372" fill="black"/>
<circle id="Ellipse 4767" cx="493.488" cy="465.524" r="3.00372" fill="black"/>
<circle id="Ellipse 4768" cx="475.469" cy="463.522" r="3.00372" fill="black"/>
<circle id="Ellipse 4769" cx="482.48" cy="475.536" r="3.00372" fill="black"/>
<circle id="Ellipse 4770" cx="492.488" cy="485.549" r="3.00372" fill="black"/>
<circle id="Ellipse 4771" cx="508.508" cy="487.552" r="3.00372" fill="black"/>
<circle id="Ellipse 4706" cx="346.312" cy="315.338" r="3.00372" fill="black"/>
<circle id="Ellipse 4691" cx="359.324" cy="412.458" r="3.00372" fill="black"/>
<circle id="Ellipse 4692" cx="362.328" cy="425.474" r="3.00372" fill="black"/>
<circle id="Ellipse 4599" cx="329.289" cy="622.719" r="3.00372" fill="black"/>
<circle id="Ellipse 4600" cx="342.305" cy="632.731" r="3.00372" fill="black"/>
<circle id="Ellipse 4601" cx="358.324" cy="632.731" r="3.00372" fill="black"/>
<circle id="Ellipse 4602" cx="372.34" cy="638.739" r="3.00372" fill="black"/>
<circle id="Ellipse 4603" cx="363.328" cy="649.752" r="3.00372" fill="black"/>
<circle id="Ellipse 4604" cx="373.344" cy="659.764" r="3.00372" fill="black"/>
<circle id="Ellipse 4605" cx="351.316" cy="648.751" r="3.00372" fill="black"/>
<circle id="Ellipse 4606" cx="338.301" cy="647.75" r="3.00372" fill="black"/>
<circle id="Ellipse 4607" cx="327.285" cy="637.737" r="3.00372" fill="black"/>
<circle id="Ellipse 4608" cx="328.289" cy="654.758" r="3.00372" fill="black"/>
<circle id="Ellipse 4609" cx="343.308" cy="664.771" r="3.00372" fill="black"/>
<circle id="Ellipse 4610" cx="358.324" cy="664.771" r="3.00372" fill="black"/>
<circle id="Ellipse 4611" cx="330.289" cy="669.777" r="3.00372" fill="black"/>
<circle id="Ellipse 4612" cx="333.293" cy="682.793" r="3.00372" fill="black"/>
<circle id="Ellipse 4613" cx="351.316" cy="680.79" r="3.00372" fill="black"/>
<circle id="Ellipse 4615" cx="342.305" cy="697.811" r="3.00372" fill="black"/>
<circle id="Ellipse 4616" cx="355.324" cy="698.813" r="3.00372" fill="black"/>
<circle id="Ellipse 4617" cx="368.336" cy="691.804" r="3.00372" fill="black"/>
<circle id="Ellipse 4618" cx="329.289" cy="696.81" r="3.00372" fill="black"/>
<circle id="Ellipse 4619" cx="332.293" cy="711.829" r="3.00372" fill="black"/>
<circle id="Ellipse 4620" cx="347.312" cy="715.834" r="3.00372" fill="black"/>
<circle id="Ellipse 4621" cx="364.332" cy="710.828" r="3.00372" fill="black"/>
<circle id="Ellipse 4622" cx="360.324" cy="727.849" r="3.00372" fill="black"/>
<circle id="Ellipse 4623" cx="345.308" cy="733.856" r="3.00372" fill="black"/>
<circle id="Ellipse 4624" cx="331.293" cy="726.847" r="3.00372" fill="black"/>
<circle id="Ellipse 4625" cx="331.293" cy="741.866" r="3.00372" fill="black"/>
<circle id="Ellipse 4626" cx="343.308" cy="753.881" r="3.00372" fill="black"/>
<circle id="Ellipse 4627" cx="357.32" cy="744.87" r="3.00372" fill="black"/>
<circle id="Ellipse 4628" cx="356.324" cy="760.889" r="3.00372" fill="black"/>
<circle id="Ellipse 4629" cx="329.289" cy="755.884" r="3.00372" fill="black"/>
<circle id="Ellipse 4630" cx="327.285" cy="769.901" r="3.00372" fill="black"/>
<circle id="Ellipse 4631" cx="340.305" cy="771.903" r="3.00372" fill="black"/>
<circle id="Ellipse 4632" cx="355.324" cy="774.907" r="3.00372" fill="black"/>
<circle id="Ellipse 4633" cx="358.324" cy="790.927" r="3.00372" fill="black"/>
<circle id="Ellipse 4634" cx="344.308" cy="785.921" r="3.00372" fill="black"/>
<circle id="Ellipse 4635" cx="326.285" cy="783.918" r="3.00372" fill="black"/>
<circle id="Ellipse 4636" cx="324.281" cy="798.937" r="3.00372" fill="black"/>
<circle id="Ellipse 4637" cx="337.301" cy="796.934" r="3.00372" fill="black"/>
<circle id="Ellipse 4638" cx="350.316" cy="802.942" r="3.00372" fill="black"/>
<circle id="Ellipse 4639" cx="364.332" cy="803.943" r="3.00372" fill="black"/>
<circle id="Ellipse 4640" cx="372.34" cy="815.958" r="3.00372" fill="black"/>
<circle id="Ellipse 4641" cx="359.324" cy="816.959" r="3.00372" fill="black"/>
<circle id="Ellipse 4642" cx="345.308" cy="814.956" r="3.00372" fill="black"/>
<circle id="Ellipse 4643" cx="332.293" cy="810.951" r="3.00372" fill="black"/>
<circle id="Ellipse 4644" cx="337.301" cy="824.969" r="3.00372" fill="black"/>
<circle id="Ellipse 4645" cx="353.32" cy="827.972" r="3.00372" fill="black"/>
<circle id="Ellipse 4646" cx="367.336" cy="831.977" r="3.00372" fill="black"/>
<circle id="Ellipse 4647" cx="379.351" cy="826.971" r="3.00372" fill="black"/>
<circle id="Ellipse 4648" cx="388.363" cy="832.979" r="3.00372" fill="black"/>
<circle id="Ellipse 4649" cx="390.363" cy="843.992" r="3.00372" fill="black"/>
<circle id="Ellipse 4650" cx="379.351" cy="844.994" r="3.00372" fill="black"/>
<circle id="Ellipse 4651" cx="367.336" cy="846.996" r="3.00372" fill="black"/>
<circle id="Ellipse 4652" cx="355.324" cy="842.991" r="3.00372" fill="black"/>
<circle id="Ellipse 4653" cx="343.308" cy="837.985" r="3.00372" fill="black"/>
<circle id="Ellipse 4614" cx="369.336" cy="675.784" r="3.00372" fill="black"/>
</g>
<g id="0_TEXT">
<path id="Neurodevelopmental effects (BPA)" d="M393.14 55H390.62V40.38H393.16L400.02 50.74V40.38H402.54V55H400.02L393.14 44.64V55ZM410.036 55.26C407.096 55.26 405.036 53.12 405.036 50.06C405.036 46.96 407.056 44.82 409.956 44.82C412.916 44.82 414.796 46.8 414.796 49.88V50.62L407.356 50.64C407.536 52.38 408.456 53.26 410.076 53.26C411.416 53.26 412.296 52.74 412.576 51.8H414.836C414.416 53.96 412.616 55.26 410.036 55.26ZM409.976 46.82C408.536 46.82 407.656 47.6 407.416 49.08H412.376C412.376 47.72 411.436 46.82 409.976 46.82ZM423.649 45.12H426.089V55H423.829L423.649 53.68C423.049 54.62 421.769 55.26 420.449 55.26C418.169 55.26 416.829 53.72 416.829 51.3V45.12H419.269V50.44C419.269 52.32 420.009 53.08 421.369 53.08C422.909 53.08 423.649 52.18 423.649 50.3V45.12ZM435.009 45.08V47.34H434.109C432.349 47.34 431.249 48.28 431.249 50.2V55H428.809V45.14H431.109L431.249 46.58C431.669 45.6 432.609 44.94 433.929 44.94C434.269 44.94 434.609 44.98 435.009 45.08ZM435.949 50.04C435.949 46.96 438.169 44.84 441.229 44.84C444.289 44.84 446.509 46.96 446.509 50.04C446.509 53.12 444.289 55.24 441.229 55.24C438.169 55.24 435.949 53.12 435.949 50.04ZM438.389 50.04C438.389 51.84 439.549 53.06 441.229 53.06C442.909 53.06 444.069 51.84 444.069 50.04C444.069 48.24 442.909 47.02 441.229 47.02C439.549 47.02 438.389 48.24 438.389 50.04ZM452.703 55.26C449.843 55.26 448.063 53.16 448.063 50.1C448.063 47.02 449.863 44.82 452.843 44.82C454.223 44.82 455.443 45.4 456.063 46.38V40.12H458.483V55H456.243L456.083 53.46C455.483 54.6 454.203 55.26 452.703 55.26ZM453.243 53.02C454.943 53.02 456.043 51.8 456.043 50.02C456.043 48.24 454.943 47 453.243 47C451.543 47 450.503 48.26 450.503 50.02C450.503 51.78 451.543 53.02 453.243 53.02ZM465.646 55.26C462.706 55.26 460.646 53.12 460.646 50.06C460.646 46.96 462.666 44.82 465.566 44.82C468.526 44.82 470.406 46.8 470.406 49.88V50.62L462.966 50.64C463.146 52.38 464.066 53.26 465.686 53.26C467.026 53.26 467.906 52.74 468.186 51.8H470.446C470.026 53.96 468.226 55.26 465.646 55.26ZM465.586 46.82C464.146 46.82 463.266 47.6 463.026 49.08H467.986C467.986 47.72 467.046 46.82 465.586 46.82ZM474.929 55L471.009 45.12H473.609L475.329 49.66C475.749 50.84 476.089 51.86 476.209 52.4C476.349 51.78 476.709 50.74 477.129 49.66L478.929 45.12H481.449L477.329 55H474.929ZM486.983 55.26C484.043 55.26 481.983 53.12 481.983 50.06C481.983 46.96 484.003 44.82 486.903 44.82C489.863 44.82 491.743 46.8 491.743 49.88V50.62L484.303 50.64C484.483 52.38 485.403 53.26 487.023 53.26C488.363 53.26 489.243 52.74 489.523 51.8H491.783C491.363 53.96 489.563 55.26 486.983 55.26ZM486.923 46.82C485.483 46.82 484.603 47.6 484.363 49.08H489.323C489.323 47.72 488.383 46.82 486.923 46.82ZM496.356 55H493.936V40.12H496.356V55ZM498.535 50.04C498.535 46.96 500.755 44.84 503.815 44.84C506.875 44.84 509.095 46.96 509.095 50.04C509.095 53.12 506.875 55.24 503.815 55.24C500.755 55.24 498.535 53.12 498.535 50.04ZM500.975 50.04C500.975 51.84 502.135 53.06 503.815 53.06C505.495 53.06 506.655 51.84 506.655 50.04C506.655 48.24 505.495 47.02 503.815 47.02C502.135 47.02 500.975 48.24 500.975 50.04ZM511.23 59.58V45.12H513.49L513.65 46.62C514.25 45.48 515.55 44.82 517.05 44.82C519.83 44.82 521.67 46.84 521.67 49.94C521.67 53.02 519.99 55.26 517.05 55.26C515.57 55.26 514.29 54.68 513.67 53.68V59.58H511.23ZM513.69 50.06C513.69 51.84 514.79 53.06 516.47 53.06C518.19 53.06 519.21 51.82 519.21 50.06C519.21 48.3 518.19 47.04 516.47 47.04C514.79 47.04 513.69 48.28 513.69 50.06ZM526.252 55H523.812V45.12H526.052L526.252 46.28C526.752 45.46 527.752 44.82 529.172 44.82C530.672 44.82 531.712 45.56 532.232 46.7C532.732 45.56 533.892 44.82 535.392 44.82C537.792 44.82 539.112 46.26 539.112 48.54V55H536.692V49.18C536.692 47.76 535.932 47.02 534.772 47.02C533.592 47.02 532.692 47.78 532.692 49.4V55H530.252V49.16C530.252 47.78 529.512 47.04 528.352 47.04C527.192 47.04 526.252 47.8 526.252 49.4V55ZM546.128 55.26C543.188 55.26 541.128 53.12 541.128 50.06C541.128 46.96 543.148 44.82 546.048 44.82C549.008 44.82 550.888 46.8 550.888 49.88V50.62L543.448 50.64C543.628 52.38 544.548 53.26 546.168 53.26C547.508 53.26 548.388 52.74 548.668 51.8H550.928C550.508 53.96 548.708 55.26 546.128 55.26ZM546.068 46.82C544.628 46.82 543.748 47.6 543.508 49.08H548.468C548.468 47.72 547.528 46.82 546.068 46.82ZM555.48 55H553.04V45.12H555.3L555.5 46.4C556.12 45.4 557.32 44.82 558.66 44.82C561.14 44.82 562.42 46.36 562.42 48.92V55H559.98V49.5C559.98 47.84 559.16 47.04 557.9 47.04C556.4 47.04 555.48 48.08 555.48 49.68V55ZM568.378 55H565.938V47.16H564.038V45.12H565.938V42.04H568.378V45.12H570.298V47.16H568.378V55ZM574.896 55.26C572.796 55.26 571.516 54.04 571.516 52.18C571.516 50.36 572.836 49.22 575.176 49.04L578.136 48.82V48.6C578.136 47.26 577.336 46.72 576.096 46.72C574.656 46.72 573.856 47.32 573.856 48.36H571.776C571.776 46.22 573.536 44.82 576.216 44.82C578.876 44.82 580.516 46.26 580.516 49V55H578.376L578.196 53.54C577.776 54.56 576.436 55.26 574.896 55.26ZM575.696 53.42C577.196 53.42 578.156 52.52 578.156 51V50.48L576.096 50.64C574.576 50.78 573.996 51.28 573.996 52.08C573.996 52.98 574.596 53.42 575.696 53.42ZM585.573 55H583.153V40.12H585.573V55ZM394.68 81.26C391.74 81.26 389.68 79.12 389.68 76.06C389.68 72.96 391.7 70.82 394.6 70.82C397.56 70.82 399.44 72.8 399.44 75.88V76.62L392 76.64C392.18 78.38 393.1 79.26 394.72 79.26C396.06 79.26 396.94 78.74 397.22 77.8H399.48C399.06 79.96 397.26 81.26 394.68 81.26ZM394.62 72.82C393.18 72.82 392.3 73.6 392.06 75.08H397.02C397.02 73.72 396.08 72.82 394.62 72.82ZM400.613 71.12H402.033V69.92C402.033 67.24 403.433 66.12 405.573 66.12C405.953 66.12 406.413 66.14 406.833 66.22V68.3H405.973C404.733 68.3 404.453 68.94 404.453 69.92V71.12H408.493V69.92C408.493 67.24 409.893 66.12 412.033 66.12C412.433 66.12 412.873 66.14 413.293 66.22V68.3H412.453C411.213 68.3 410.913 68.94 410.913 69.92V71.12H413.273V73.16H410.913V81H408.493V73.16H404.453V81H402.033V73.16H400.613V71.12ZM419.162 81.26C416.222 81.26 414.162 79.12 414.162 76.06C414.162 72.96 416.182 70.82 419.082 70.82C422.042 70.82 423.922 72.8 423.922 75.88V76.62L416.482 76.64C416.662 78.38 417.582 79.26 419.202 79.26C420.542 79.26 421.422 78.74 421.702 77.8H423.962C423.542 79.96 421.742 81.26 419.162 81.26ZM419.102 72.82C417.662 72.82 416.782 73.6 416.542 75.08H421.502C421.502 73.72 420.562 72.82 419.102 72.82ZM425.495 76.04C425.495 72.98 427.515 70.82 430.435 70.82C433.135 70.82 434.975 72.32 435.235 74.7H432.795C432.515 73.58 431.695 73 430.535 73C428.975 73 427.935 74.18 427.935 76.04C427.935 77.9 428.895 79.06 430.455 79.06C431.675 79.06 432.535 78.46 432.795 77.38H435.255C434.955 79.68 433.035 81.26 430.455 81.26C427.455 81.26 425.495 79.18 425.495 76.04ZM440.631 81H438.191V73.16H436.291V71.12H438.191V68.04H440.631V71.12H442.551V73.16H440.631V81ZM443.508 78H445.828C445.848 78.86 446.488 79.4 447.608 79.4C448.748 79.4 449.368 78.94 449.368 78.22C449.368 77.72 449.108 77.36 448.228 77.16L446.448 76.74C444.668 76.34 443.808 75.5 443.808 73.92C443.808 71.98 445.448 70.82 447.728 70.82C449.948 70.82 451.448 72.1 451.468 74.02H449.148C449.128 73.18 448.568 72.64 447.628 72.64C446.668 72.64 446.108 73.08 446.108 73.82C446.108 74.38 446.548 74.74 447.388 74.94L449.168 75.36C450.828 75.74 451.668 76.5 451.668 78.02C451.668 80.02 449.968 81.26 447.528 81.26C445.068 81.26 443.508 79.94 443.508 78ZM464.216 84.82H462.276C460.276 82.54 458.956 78.96 458.956 75.12C458.956 71.62 460.076 67.94 462.276 65.44H464.216C462.556 67.7 461.416 71.24 461.416 75.12C461.416 78.66 462.396 82.34 464.216 84.82ZM466.029 81V66.38H471.849C474.729 66.38 476.489 67.88 476.489 70.32C476.489 71.94 475.769 73.1 474.389 73.68C475.929 74.18 476.709 75.34 476.709 77.04C476.709 79.54 474.969 81 471.949 81H466.029ZM471.629 68.64H468.589V72.62H471.689C473.089 72.62 473.869 71.88 473.869 70.58C473.869 69.32 473.069 68.64 471.629 68.64ZM471.849 74.78H468.589V78.74H471.849C473.289 78.74 474.089 78.04 474.089 76.72C474.089 75.48 473.269 74.78 471.849 74.78ZM485.036 75.96H481.816V81H479.256V66.38H485.036C487.976 66.38 489.876 68.3 489.876 71.16C489.876 73.98 487.956 75.96 485.036 75.96ZM484.536 68.66H481.816V73.68H484.496C486.256 73.68 487.196 72.74 487.196 71.14C487.196 69.54 486.236 68.66 484.536 68.66ZM492.708 81H490.048L495.328 66.38H497.948L503.228 81H500.528L499.348 77.62H493.888L492.708 81ZM496.308 70.74L494.648 75.46H498.608L496.928 70.74C496.808 70.36 496.668 69.92 496.628 69.62C496.568 69.9 496.448 70.34 496.308 70.74ZM505.581 84.82H503.641C505.481 82.34 506.441 78.66 506.441 75.12C506.441 71.24 505.301 67.7 503.641 65.44H505.581C507.781 67.94 508.921 71.62 508.921 75.12C508.921 78.96 507.581 82.54 505.581 84.82Z" fill="white"/>
<path id="Vector 2236" d="M315 61H383" stroke="white" stroke-width="3" stroke-linecap="round"/>
</g>
<g id="1_TEXT">
<path id="Immunodevelopmental effects" d="M27.18 131.38V146H24.62V131.38H27.18ZM32.7008 146H30.2608V136.12H32.5008L32.7008 137.28C33.2008 136.46 34.2008 135.82 35.6208 135.82C37.1208 135.82 38.1608 136.56 38.6808 137.7C39.1808 136.56 40.3408 135.82 41.8408 135.82C44.2408 135.82 45.5608 137.26 45.5608 139.54V146H43.1408V140.18C43.1408 138.76 42.3808 138.02 41.2208 138.02C40.0408 138.02 39.1408 138.78 39.1408 140.4V146H36.7008V140.16C36.7008 138.78 35.9608 138.04 34.8008 138.04C33.6408 138.04 32.7008 138.8 32.7008 140.4V146ZM50.5961 146H48.1561V136.12H50.3961L50.5961 137.28C51.0961 136.46 52.0961 135.82 53.5161 135.82C55.0161 135.82 56.0561 136.56 56.5761 137.7C57.0761 136.56 58.2361 135.82 59.7361 135.82C62.1361 135.82 63.4561 137.26 63.4561 139.54V146H61.0361V140.18C61.0361 138.76 60.2761 138.02 59.1161 138.02C57.9361 138.02 57.0361 138.78 57.0361 140.4V146H54.5961V140.16C54.5961 138.78 53.8561 138.04 52.6961 138.04C51.5361 138.04 50.5961 138.8 50.5961 140.4V146ZM72.7514 136.12H75.1914V146H72.9314L72.7514 144.68C72.1514 145.62 70.8714 146.26 69.5514 146.26C67.2714 146.26 65.9314 144.72 65.9314 142.3V136.12H68.3714V141.44C68.3714 143.32 69.1114 144.08 70.4714 144.08C72.0114 144.08 72.7514 143.18 72.7514 141.3V136.12ZM80.3516 146H77.9116V136.12H80.1716L80.3716 137.4C80.9916 136.4 82.1916 135.82 83.5316 135.82C86.0116 135.82 87.2916 137.36 87.2916 139.92V146H84.8516V140.5C84.8516 138.84 84.0316 138.04 82.7716 138.04C81.2716 138.04 80.3516 139.08 80.3516 140.68V146ZM89.3089 141.04C89.3089 137.96 91.5289 135.84 94.5889 135.84C97.6489 135.84 99.8689 137.96 99.8689 141.04C99.8689 144.12 97.6489 146.24 94.5889 146.24C91.5289 146.24 89.3089 144.12 89.3089 141.04ZM91.7489 141.04C91.7489 142.84 92.9089 144.06 94.5889 144.06C96.2689 144.06 97.4289 142.84 97.4289 141.04C97.4289 139.24 96.2689 138.02 94.5889 138.02C92.9089 138.02 91.7489 139.24 91.7489 141.04ZM106.063 146.26C103.203 146.26 101.423 144.16 101.423 141.1C101.423 138.02 103.223 135.82 106.203 135.82C107.583 135.82 108.803 136.4 109.423 137.38V131.12H111.843V146H109.603L109.443 144.46C108.843 145.6 107.563 146.26 106.063 146.26ZM106.603 144.02C108.303 144.02 109.403 142.8 109.403 141.02C109.403 139.24 108.303 138 106.603 138C104.903 138 103.863 139.26 103.863 141.02C103.863 142.78 104.903 144.02 106.603 144.02ZM119.006 146.26C116.066 146.26 114.006 144.12 114.006 141.06C114.006 137.96 116.026 135.82 118.926 135.82C121.886 135.82 123.766 137.8 123.766 140.88V141.62L116.326 141.64C116.506 143.38 117.426 144.26 119.046 144.26C120.386 144.26 121.266 143.74 121.546 142.8H123.806C123.386 144.96 121.586 146.26 119.006 146.26ZM118.946 137.82C117.506 137.82 116.626 138.6 116.386 140.08H121.346C121.346 138.72 120.406 137.82 118.946 137.82ZM128.289 146L124.369 136.12H126.969L128.689 140.66C129.109 141.84 129.449 142.86 129.569 143.4C129.709 142.78 130.069 141.74 130.489 140.66L132.289 136.12H134.809L130.689 146H128.289ZM140.343 146.26C137.403 146.26 135.343 144.12 135.343 141.06C135.343 137.96 137.363 135.82 140.263 135.82C143.223 135.82 145.103 137.8 145.103 140.88V141.62L137.663 141.64C137.843 143.38 138.763 144.26 140.383 144.26C141.723 144.26 142.603 143.74 142.883 142.8H145.143C144.723 144.96 142.923 146.26 140.343 146.26ZM140.283 137.82C138.843 137.82 137.963 138.6 137.723 140.08H142.683C142.683 138.72 141.743 137.82 140.283 137.82ZM149.716 146H147.296V131.12H149.716V146ZM151.896 141.04C151.896 137.96 154.116 135.84 157.176 135.84C160.236 135.84 162.456 137.96 162.456 141.04C162.456 144.12 160.236 146.24 157.176 146.24C154.116 146.24 151.896 144.12 151.896 141.04ZM154.336 141.04C154.336 142.84 155.496 144.06 157.176 144.06C158.856 144.06 160.016 142.84 160.016 141.04C160.016 139.24 158.856 138.02 157.176 138.02C155.496 138.02 154.336 139.24 154.336 141.04ZM164.59 150.58V136.12H166.85L167.01 137.62C167.61 136.48 168.91 135.82 170.41 135.82C173.19 135.82 175.03 137.84 175.03 140.94C175.03 144.02 173.35 146.26 170.41 146.26C168.93 146.26 167.65 145.68 167.03 144.68V150.58H164.59ZM167.05 141.06C167.05 142.84 168.15 144.06 169.83 144.06C171.55 144.06 172.57 142.82 172.57 141.06C172.57 139.3 171.55 138.04 169.83 138.04C168.15 138.04 167.05 139.28 167.05 141.06ZM179.613 146H177.173V136.12H179.413L179.613 137.28C180.113 136.46 181.113 135.82 182.533 135.82C184.033 135.82 185.073 136.56 185.593 137.7C186.093 136.56 187.253 135.82 188.753 135.82C191.153 135.82 192.473 137.26 192.473 139.54V146H190.053V140.18C190.053 138.76 189.293 138.02 188.133 138.02C186.953 138.02 186.053 138.78 186.053 140.4V146H183.613V140.16C183.613 138.78 182.873 138.04 181.713 138.04C180.553 138.04 179.613 138.8 179.613 140.4V146ZM199.488 146.26C196.548 146.26 194.488 144.12 194.488 141.06C194.488 137.96 196.508 135.82 199.408 135.82C202.368 135.82 204.248 137.8 204.248 140.88V141.62L196.808 141.64C196.988 143.38 197.908 144.26 199.528 144.26C200.868 144.26 201.748 143.74 202.028 142.8H204.288C203.868 144.96 202.068 146.26 199.488 146.26ZM199.428 137.82C197.988 137.82 197.108 138.6 196.868 140.08H201.828C201.828 138.72 200.888 137.82 199.428 137.82ZM208.841 146H206.401V136.12H208.661L208.861 137.4C209.481 136.4 210.681 135.82 212.021 135.82C214.501 135.82 215.781 137.36 215.781 139.92V146H213.341V140.5C213.341 138.84 212.521 138.04 211.261 138.04C209.761 138.04 208.841 139.08 208.841 140.68V146ZM221.738 146H219.298V138.16H217.398V136.12H219.298V133.04H221.738V136.12H223.658V138.16H221.738V146ZM228.256 146.26C226.156 146.26 224.876 145.04 224.876 143.18C224.876 141.36 226.196 140.22 228.536 140.04L231.496 139.82V139.6C231.496 138.26 230.696 137.72 229.456 137.72C228.016 137.72 227.216 138.32 227.216 139.36H225.136C225.136 137.22 226.896 135.82 229.576 135.82C232.236 135.82 233.876 137.26 233.876 140V146H231.736L231.556 144.54C231.136 145.56 229.796 146.26 228.256 146.26ZM229.056 144.42C230.556 144.42 231.516 143.52 231.516 142V141.48L229.456 141.64C227.936 141.78 227.356 142.28 227.356 143.08C227.356 143.98 227.956 144.42 229.056 144.42ZM238.933 146H236.513V131.12H238.933V146ZM28.68 172.26C25.74 172.26 23.68 170.12 23.68 167.06C23.68 163.96 25.7 161.82 28.6 161.82C31.56 161.82 33.44 163.8 33.44 166.88V167.62L26 167.64C26.18 169.38 27.1 170.26 28.72 170.26C30.06 170.26 30.94 169.74 31.22 168.8H33.48C33.06 170.96 31.26 172.26 28.68 172.26ZM28.62 163.82C27.18 163.82 26.3 164.6 26.06 166.08H31.02C31.02 164.72 30.08 163.82 28.62 163.82ZM34.6128 162.12H36.0328V160.92C36.0328 158.24 37.4328 157.12 39.5728 157.12C39.9528 157.12 40.4128 157.14 40.8328 157.22V159.3H39.9728C38.7328 159.3 38.4528 159.94 38.4528 160.92V162.12H42.4928V160.92C42.4928 158.24 43.8928 157.12 46.0328 157.12C46.4328 157.12 46.8728 157.14 47.2928 157.22V159.3H46.4528C45.2128 159.3 44.9128 159.94 44.9128 160.92V162.12H47.2728V164.16H44.9128V172H42.4928V164.16H38.4528V172H36.0328V164.16H34.6128V162.12ZM53.162 172.26C50.222 172.26 48.162 170.12 48.162 167.06C48.162 163.96 50.182 161.82 53.082 161.82C56.042 161.82 57.922 163.8 57.922 166.88V167.62L50.482 167.64C50.662 169.38 51.582 170.26 53.202 170.26C54.542 170.26 55.422 169.74 55.702 168.8H57.962C57.542 170.96 55.742 172.26 53.162 172.26ZM53.102 163.82C51.662 163.82 50.782 164.6 50.542 166.08H55.502C55.502 164.72 54.562 163.82 53.102 163.82ZM59.4948 167.04C59.4948 163.98 61.5148 161.82 64.4348 161.82C67.1348 161.82 68.9748 163.32 69.2348 165.7H66.7948C66.5148 164.58 65.6948 164 64.5348 164C62.9748 164 61.9348 165.18 61.9348 167.04C61.9348 168.9 62.8948 170.06 64.4548 170.06C65.6748 170.06 66.5348 169.46 66.7948 168.38H69.2548C68.9548 170.68 67.0348 172.26 64.4548 172.26C61.4548 172.26 59.4948 170.18 59.4948 167.04ZM74.6309 172H72.1909V164.16H70.2909V162.12H72.1909V159.04H74.6309V162.12H76.5509V164.16H74.6309V172ZM77.5078 169H79.8278C79.8478 169.86 80.4878 170.4 81.6078 170.4C82.7478 170.4 83.3678 169.94 83.3678 169.22C83.3678 168.72 83.1078 168.36 82.2278 168.16L80.4478 167.74C78.6678 167.34 77.8078 166.5 77.8078 164.92C77.8078 162.98 79.4478 161.82 81.7278 161.82C83.9478 161.82 85.4478 163.1 85.4678 165.02H83.1478C83.1278 164.18 82.5678 163.64 81.6278 163.64C80.6678 163.64 80.1078 164.08 80.1078 164.82C80.1078 165.38 80.5478 165.74 81.3878 165.94L83.1678 166.36C84.8278 166.74 85.6678 167.5 85.6678 169.02C85.6678 171.02 83.9678 172.26 81.5278 172.26C79.0678 172.26 77.5078 170.94 77.5078 169Z" fill="white"/>
<path id="Vector 2245" d="M251 153L291 153" stroke="white" stroke-width="3" stroke-linecap="round"/>
</g>
<g id="2_TEXT">
<path id="Cardiovascular diseases (BPA)" d="M460.8 237.24C456.54 237.24 453.78 234.28 453.78 229.7C453.78 225.16 456.64 222.14 460.92 222.14C464.38 222.14 466.96 224.16 467.46 227.3H464.76C464.26 225.6 462.8 224.6 460.86 224.6C458.16 224.6 456.46 226.56 456.46 229.68C456.46 232.78 458.18 234.78 460.86 234.78C462.84 234.78 464.36 233.74 464.84 232.12H467.5C466.94 235.2 464.26 237.24 460.8 237.24ZM472.38 237.26C470.28 237.26 469 236.04 469 234.18C469 232.36 470.32 231.22 472.66 231.04L475.62 230.82V230.6C475.62 229.26 474.82 228.72 473.58 228.72C472.14 228.72 471.34 229.32 471.34 230.36H469.26C469.26 228.22 471.02 226.82 473.7 226.82C476.36 226.82 478 228.26 478 231V237H475.86L475.68 235.54C475.26 236.56 473.92 237.26 472.38 237.26ZM473.18 235.42C474.68 235.42 475.64 234.52 475.64 233V232.48L473.58 232.64C472.06 232.78 471.48 233.28 471.48 234.08C471.48 234.98 472.08 235.42 473.18 235.42ZM486.798 227.08V229.34H485.897C484.137 229.34 483.037 230.28 483.037 232.2V237H480.597V227.14H482.897L483.037 228.58C483.457 227.6 484.398 226.94 485.717 226.94C486.058 226.94 486.397 226.98 486.798 227.08ZM492.377 237.26C489.517 237.26 487.737 235.16 487.737 232.1C487.737 229.02 489.537 226.82 492.517 226.82C493.897 226.82 495.117 227.4 495.737 228.38V222.12H498.157V237H495.917L495.757 235.46C495.157 236.6 493.877 237.26 492.377 237.26ZM492.917 235.02C494.617 235.02 495.717 233.8 495.717 232.02C495.717 230.24 494.617 229 492.917 229C491.217 229 490.177 230.26 490.177 232.02C490.177 233.78 491.217 235.02 492.917 235.02ZM502.12 225.14C501.28 225.14 500.62 224.48 500.62 223.66C500.62 222.84 501.28 222.2 502.12 222.2C502.92 222.2 503.58 222.84 503.58 223.66C503.58 224.48 502.92 225.14 502.12 225.14ZM500.9 237V227.12H503.34V237H500.9ZM505.481 232.04C505.481 228.96 507.701 226.84 510.761 226.84C513.821 226.84 516.041 228.96 516.041 232.04C516.041 235.12 513.821 237.24 510.761 237.24C507.701 237.24 505.481 235.12 505.481 232.04ZM507.921 232.04C507.921 233.84 509.081 235.06 510.761 235.06C512.441 235.06 513.601 233.84 513.601 232.04C513.601 230.24 512.441 229.02 510.761 229.02C509.081 229.02 507.921 230.24 507.921 232.04ZM520.487 237L516.567 227.12H519.167L520.887 231.66C521.307 232.84 521.647 233.86 521.767 234.4C521.907 233.78 522.267 232.74 522.687 231.66L524.487 227.12H527.007L522.887 237H520.487ZM531.061 237.26C528.961 237.26 527.681 236.04 527.681 234.18C527.681 232.36 529.001 231.22 531.341 231.04L534.301 230.82V230.6C534.301 229.26 533.501 228.72 532.261 228.72C530.821 228.72 530.021 229.32 530.021 230.36H527.941C527.941 228.22 529.701 226.82 532.381 226.82C535.041 226.82 536.681 228.26 536.681 231V237H534.541L534.361 235.54C533.941 236.56 532.601 237.26 531.061 237.26ZM531.861 235.42C533.361 235.42 534.321 234.52 534.321 233V232.48L532.261 232.64C530.741 232.78 530.161 233.28 530.161 234.08C530.161 234.98 530.761 235.42 531.861 235.42ZM538.518 234H540.838C540.858 234.86 541.498 235.4 542.618 235.4C543.758 235.4 544.378 234.94 544.378 234.22C544.378 233.72 544.118 233.36 543.238 233.16L541.458 232.74C539.678 232.34 538.818 231.5 538.818 229.92C538.818 227.98 540.458 226.82 542.738 226.82C544.958 226.82 546.458 228.1 546.478 230.02H544.158C544.138 229.18 543.578 228.64 542.638 228.64C541.678 228.64 541.118 229.08 541.118 229.82C541.118 230.38 541.558 230.74 542.398 230.94L544.178 231.36C545.838 231.74 546.678 232.5 546.678 234.02C546.678 236.02 544.978 237.26 542.538 237.26C540.078 237.26 538.518 235.94 538.518 234ZM548.156 232.04C548.156 228.98 550.176 226.82 553.096 226.82C555.796 226.82 557.636 228.32 557.896 230.7H555.456C555.176 229.58 554.356 229 553.196 229C551.636 229 550.596 230.18 550.596 232.04C550.596 233.9 551.556 235.06 553.116 235.06C554.336 235.06 555.196 234.46 555.456 233.38H557.916C557.616 235.68 555.696 237.26 553.116 237.26C550.116 237.26 548.156 235.18 548.156 232.04ZM566.632 227.12H569.072V237H566.812L566.632 235.68C566.032 236.62 564.752 237.26 563.432 237.26C561.152 237.26 559.812 235.72 559.812 233.3V227.12H562.252V232.44C562.252 234.32 562.992 235.08 564.352 235.08C565.892 235.08 566.632 234.18 566.632 232.3V227.12ZM574.252 237H571.832V222.12H574.252V237ZM579.952 237.26C577.852 237.26 576.572 236.04 576.572 234.18C576.572 232.36 577.892 231.22 580.232 231.04L583.192 230.82V230.6C583.192 229.26 582.392 228.72 581.152 228.72C579.712 228.72 578.912 229.32 578.912 230.36H576.832C576.832 228.22 578.592 226.82 581.272 226.82C583.932 226.82 585.572 228.26 585.572 231V237H583.432L583.252 235.54C582.832 236.56 581.492 237.26 579.952 237.26ZM580.752 235.42C582.252 235.42 583.212 234.52 583.212 233V232.48L581.152 232.64C579.632 232.78 579.052 233.28 579.052 234.08C579.052 234.98 579.652 235.42 580.752 235.42ZM594.369 227.08V229.34H593.469C591.709 229.34 590.609 230.28 590.609 232.2V237H588.169V227.14H590.469L590.609 228.58C591.029 227.6 591.969 226.94 593.289 226.94C593.629 226.94 593.969 226.98 594.369 227.08ZM458.32 263.26C455.46 263.26 453.68 261.16 453.68 258.1C453.68 255.02 455.48 252.82 458.46 252.82C459.84 252.82 461.06 253.4 461.68 254.38V248.12H464.1V263H461.86L461.7 261.46C461.1 262.6 459.82 263.26 458.32 263.26ZM458.86 261.02C460.56 261.02 461.66 259.8 461.66 258.02C461.66 256.24 460.56 255 458.86 255C457.16 255 456.12 256.26 456.12 258.02C456.12 259.78 457.16 261.02 458.86 261.02ZM468.063 251.14C467.223 251.14 466.563 250.48 466.563 249.66C466.563 248.84 467.223 248.2 468.063 248.2C468.863 248.2 469.523 248.84 469.523 249.66C469.523 250.48 468.863 251.14 468.063 251.14ZM466.843 263V253.12H469.283V263H466.843ZM471.244 260H473.564C473.584 260.86 474.224 261.4 475.344 261.4C476.484 261.4 477.104 260.94 477.104 260.22C477.104 259.72 476.844 259.36 475.964 259.16L474.184 258.74C472.404 258.34 471.544 257.5 471.544 255.92C471.544 253.98 473.184 252.82 475.464 252.82C477.684 252.82 479.184 254.1 479.204 256.02H476.884C476.864 255.18 476.304 254.64 475.364 254.64C474.404 254.64 473.844 255.08 473.844 255.82C473.844 256.38 474.284 256.74 475.124 256.94L476.904 257.36C478.564 257.74 479.404 258.5 479.404 260.02C479.404 262.02 477.704 263.26 475.264 263.26C472.804 263.26 471.244 261.94 471.244 260ZM485.882 263.26C482.942 263.26 480.882 261.12 480.882 258.06C480.882 254.96 482.902 252.82 485.802 252.82C488.762 252.82 490.642 254.8 490.642 257.88V258.62L483.202 258.64C483.382 260.38 484.302 261.26 485.922 261.26C487.262 261.26 488.142 260.74 488.422 259.8H490.682C490.262 261.96 488.462 263.26 485.882 263.26ZM485.822 254.82C484.382 254.82 483.502 255.6 483.262 257.08H488.222C488.222 255.72 487.282 254.82 485.822 254.82ZM495.637 263.26C493.537 263.26 492.257 262.04 492.257 260.18C492.257 258.36 493.577 257.22 495.917 257.04L498.877 256.82V256.6C498.877 255.26 498.077 254.72 496.837 254.72C495.397 254.72 494.597 255.32 494.597 256.36H492.517C492.517 254.22 494.277 252.82 496.957 252.82C499.617 252.82 501.257 254.26 501.257 257V263H499.117L498.937 261.54C498.517 262.56 497.177 263.26 495.637 263.26ZM496.437 261.42C497.937 261.42 498.897 260.52 498.897 259V258.48L496.837 258.64C495.317 258.78 494.737 259.28 494.737 260.08C494.737 260.98 495.337 261.42 496.437 261.42ZM503.094 260H505.414C505.434 260.86 506.074 261.4 507.194 261.4C508.334 261.4 508.954 260.94 508.954 260.22C508.954 259.72 508.694 259.36 507.814 259.16L506.034 258.74C504.254 258.34 503.394 257.5 503.394 255.92C503.394 253.98 505.034 252.82 507.314 252.82C509.534 252.82 511.034 254.1 511.054 256.02H508.734C508.714 255.18 508.154 254.64 507.214 254.64C506.254 254.64 505.694 255.08 505.694 255.82C505.694 256.38 506.134 256.74 506.974 256.94L508.754 257.36C510.414 257.74 511.254 258.5 511.254 260.02C511.254 262.02 509.554 263.26 507.114 263.26C504.654 263.26 503.094 261.94 503.094 260ZM517.732 263.26C514.792 263.26 512.732 261.12 512.732 258.06C512.732 254.96 514.752 252.82 517.652 252.82C520.612 252.82 522.492 254.8 522.492 257.88V258.62L515.052 258.64C515.232 260.38 516.152 261.26 517.772 261.26C519.112 261.26 519.992 260.74 520.272 259.8H522.532C522.112 261.96 520.312 263.26 517.732 263.26ZM517.672 254.82C516.232 254.82 515.352 255.6 515.112 257.08H520.072C520.072 255.72 519.132 254.82 517.672 254.82ZM523.884 260H526.204C526.224 260.86 526.864 261.4 527.984 261.4C529.124 261.4 529.744 260.94 529.744 260.22C529.744 259.72 529.484 259.36 528.604 259.16L526.824 258.74C525.044 258.34 524.184 257.5 524.184 255.92C524.184 253.98 525.824 252.82 528.104 252.82C530.324 252.82 531.824 254.1 531.844 256.02H529.524C529.504 255.18 528.944 254.64 528.004 254.64C527.044 254.64 526.484 255.08 526.484 255.82C526.484 256.38 526.924 256.74 527.764 256.94L529.544 257.36C531.204 257.74 532.044 258.5 532.044 260.02C532.044 262.02 530.344 263.26 527.904 263.26C525.444 263.26 523.884 261.94 523.884 260ZM544.593 266.82H542.653C540.653 264.54 539.333 260.96 539.333 257.12C539.333 253.62 540.453 249.94 542.653 247.44H544.593C542.933 249.7 541.793 253.24 541.793 257.12C541.793 260.66 542.773 264.34 544.593 266.82ZM546.405 263V248.38H552.225C555.105 248.38 556.865 249.88 556.865 252.32C556.865 253.94 556.145 255.1 554.765 255.68C556.305 256.18 557.085 257.34 557.085 259.04C557.085 261.54 555.345 263 552.325 263H546.405ZM552.005 250.64H548.965V254.62H552.065C553.465 254.62 554.245 253.88 554.245 252.58C554.245 251.32 553.445 250.64 552.005 250.64ZM552.225 256.78H548.965V260.74H552.225C553.665 260.74 554.465 260.04 554.465 258.72C554.465 257.48 553.645 256.78 552.225 256.78ZM565.412 257.96H562.192V263H559.632V248.38H565.412C568.352 248.38 570.252 250.3 570.252 253.16C570.252 255.98 568.332 257.96 565.412 257.96ZM564.912 250.66H562.192V255.68H564.872C566.632 255.68 567.572 254.74 567.572 253.14C567.572 251.54 566.612 250.66 564.912 250.66ZM573.085 263H570.425L575.705 248.38H578.325L583.605 263H580.905L579.725 259.62H574.265L573.085 263ZM576.685 252.74L575.025 257.46H578.985L577.305 252.74C577.185 252.36 577.045 251.92 577.005 251.62C576.945 251.9 576.825 252.34 576.685 252.74ZM585.958 266.82H584.018C585.858 264.34 586.818 260.66 586.818 257.12C586.818 253.24 585.678 249.7 584.018 247.44H585.958C588.158 249.94 589.298 253.62 589.298 257.12C589.298 260.96 587.958 264.54 585.958 266.82Z" fill="white"/>
<path id="Vector 2246" d="M363 245L444 245" stroke="white" stroke-width="3" stroke-linecap="round"/>
</g>
<g id="3_TEXT">
<path id="Hormone related cancer risk (BPA)" d="M19.9534 258H17.3934V243.38H19.9534V249.42H26.4334V243.38H28.9934V258H26.4334V251.8H19.9534V258ZM31.4972 253.04C31.4972 249.96 33.7172 247.84 36.7772 247.84C39.8372 247.84 42.0572 249.96 42.0572 253.04C42.0572 256.12 39.8372 258.24 36.7772 258.24C33.7172 258.24 31.4972 256.12 31.4972 253.04ZM33.9372 253.04C33.9372 254.84 35.0972 256.06 36.7772 256.06C38.4572 256.06 39.6172 254.84 39.6172 253.04C39.6172 251.24 38.4572 250.02 36.7772 250.02C35.0972 250.02 33.9372 251.24 33.9372 253.04ZM50.3913 248.08V250.34H49.4913C47.7313 250.34 46.6313 251.28 46.6313 253.2V258H44.1913V248.14H46.4913L46.6313 249.58C47.0513 248.6 47.9913 247.94 49.3113 247.94C49.6513 247.94 49.9913 247.98 50.3913 248.08ZM54.6828 258H52.2428V248.12H54.4828L54.6828 249.28C55.1828 248.46 56.1828 247.82 57.6028 247.82C59.1028 247.82 60.1428 248.56 60.6628 249.7C61.1628 248.56 62.3228 247.82 63.8228 247.82C66.2228 247.82 67.5428 249.26 67.5428 251.54V258H65.1228V252.18C65.1228 250.76 64.3628 250.02 63.2028 250.02C62.0228 250.02 61.1228 250.78 61.1228 252.4V258H58.6828V252.16C58.6828 250.78 57.9428 250.04 56.7828 250.04C55.6228 250.04 54.6828 250.8 54.6828 252.4V258ZM69.5581 253.04C69.5581 249.96 71.7781 247.84 74.8381 247.84C77.8981 247.84 80.1181 249.96 80.1181 253.04C80.1181 256.12 77.8981 258.24 74.8381 258.24C71.7781 258.24 69.5581 256.12 69.5581 253.04ZM71.9981 253.04C71.9981 254.84 73.1581 256.06 74.8381 256.06C76.5181 256.06 77.6781 254.84 77.6781 253.04C77.6781 251.24 76.5181 250.02 74.8381 250.02C73.1581 250.02 71.9981 251.24 71.9981 253.04ZM84.6922 258H82.2522V248.12H84.5122L84.7122 249.4C85.3322 248.4 86.5322 247.82 87.8722 247.82C90.3522 247.82 91.6322 249.36 91.6322 251.92V258H89.1922V252.5C89.1922 250.84 88.3722 250.04 87.1122 250.04C85.6122 250.04 84.6922 251.08 84.6922 252.68V258ZM98.6495 258.26C95.7095 258.26 93.6495 256.12 93.6495 253.06C93.6495 249.96 95.6695 247.82 98.5695 247.82C101.53 247.82 103.41 249.8 103.41 252.88V253.62L95.9695 253.64C96.1495 255.38 97.0695 256.26 98.6895 256.26C100.03 256.26 100.91 255.74 101.19 254.8H103.45C103.03 256.96 101.23 258.26 98.6495 258.26ZM98.5895 249.82C97.1495 249.82 96.2695 250.6 96.0295 252.08H100.99C100.99 250.72 100.05 249.82 98.5895 249.82ZM117.353 248.08V250.34H116.453C114.693 250.34 113.593 251.28 113.593 253.2V258H111.153V248.14H113.453L113.593 249.58C114.013 248.6 114.953 247.94 116.273 247.94C116.613 247.94 116.953 247.98 117.353 248.08ZM123.293 258.26C120.353 258.26 118.293 256.12 118.293 253.06C118.293 249.96 120.313 247.82 123.213 247.82C126.173 247.82 128.053 249.8 128.053 252.88V253.62L120.613 253.64C120.793 255.38 121.713 256.26 123.333 256.26C124.673 256.26 125.553 255.74 125.833 254.8H128.093C127.673 256.96 125.873 258.26 123.293 258.26ZM123.233 249.82C121.793 249.82 120.913 250.6 120.673 252.08H125.633C125.633 250.72 124.693 249.82 123.233 249.82ZM132.665 258H130.245V243.12H132.665V258ZM138.365 258.26C136.265 258.26 134.985 257.04 134.985 255.18C134.985 253.36 136.305 252.22 138.645 252.04L141.605 251.82V251.6C141.605 250.26 140.805 249.72 139.565 249.72C138.125 249.72 137.325 250.32 137.325 251.36H135.245C135.245 249.22 137.005 247.82 139.685 247.82C142.345 247.82 143.985 249.26 143.985 252V258H141.845L141.665 256.54C141.245 257.56 139.905 258.26 138.365 258.26ZM139.165 256.42C140.665 256.42 141.625 255.52 141.625 254V253.48L139.565 253.64C138.045 253.78 137.465 254.28 137.465 255.08C137.465 255.98 138.065 256.42 139.165 256.42ZM149.805 258H147.365V250.16H145.465V248.12H147.365V245.04H149.805V248.12H151.725V250.16H149.805V258ZM157.764 258.26C154.824 258.26 152.764 256.12 152.764 253.06C152.764 249.96 154.784 247.82 157.684 247.82C160.644 247.82 162.524 249.8 162.524 252.88V253.62L155.084 253.64C155.264 255.38 156.184 256.26 157.804 256.26C159.144 256.26 160.024 255.74 160.304 254.8H162.564C162.144 256.96 160.344 258.26 157.764 258.26ZM157.704 249.82C156.264 249.82 155.384 250.6 155.144 252.08H160.104C160.104 250.72 159.164 249.82 157.704 249.82ZM168.737 258.26C165.877 258.26 164.097 256.16 164.097 253.1C164.097 250.02 165.897 247.82 168.877 247.82C170.257 247.82 171.477 248.4 172.097 249.38V243.12H174.517V258H172.277L172.117 256.46C171.517 257.6 170.237 258.26 168.737 258.26ZM169.277 256.02C170.977 256.02 172.077 254.8 172.077 253.02C172.077 251.24 170.977 250 169.277 250C167.577 250 166.537 251.26 166.537 253.02C166.537 254.78 167.577 256.02 169.277 256.02ZM15.2183 279.04C15.2183 275.98 17.2383 273.82 20.1583 273.82C22.8583 273.82 24.6983 275.32 24.9583 277.7H22.5183C22.2383 276.58 21.4183 276 20.2583 276C18.6983 276 17.6583 277.18 17.6583 279.04C17.6583 280.9 18.6183 282.06 20.1783 282.06C21.3983 282.06 22.2583 281.46 22.5183 280.38H24.9783C24.6783 282.68 22.7583 284.26 20.1783 284.26C17.1783 284.26 15.2183 282.18 15.2183 279.04ZM29.9344 284.26C27.8344 284.26 26.5544 283.04 26.5544 281.18C26.5544 279.36 27.8744 278.22 30.2144 278.04L33.1744 277.82V277.6C33.1744 276.26 32.3744 275.72 31.1344 275.72C29.6944 275.72 28.8944 276.32 28.8944 277.36H26.8144C26.8144 275.22 28.5744 273.82 31.2544 273.82C33.9144 273.82 35.5544 275.26 35.5544 278V284H33.4144L33.2344 282.54C32.8144 283.56 31.4744 284.26 29.9344 284.26ZM30.7344 282.42C32.2344 282.42 33.1944 281.52 33.1944 280V279.48L31.1344 279.64C29.6144 279.78 29.0344 280.28 29.0344 281.08C29.0344 281.98 29.6344 282.42 30.7344 282.42ZM40.5914 284H38.1514V274.12H40.4114L40.6114 275.4C41.2314 274.4 42.4314 273.82 43.7714 273.82C46.2514 273.82 47.5314 275.36 47.5314 277.92V284H45.0914V278.5C45.0914 276.84 44.2714 276.04 43.0114 276.04C41.5114 276.04 40.5914 277.08 40.5914 278.68V284ZM49.5488 279.04C49.5488 275.98 51.5688 273.82 54.4888 273.82C57.1888 273.82 59.0288 275.32 59.2888 277.7H56.8488C56.5688 276.58 55.7488 276 54.5888 276C53.0288 276 51.9888 277.18 51.9888 279.04C51.9888 280.9 52.9488 282.06 54.5088 282.06C55.7288 282.06 56.5888 281.46 56.8488 280.38H59.3088C59.0088 282.68 57.0888 284.26 54.5088 284.26C51.5088 284.26 49.5488 282.18 49.5488 279.04ZM65.7449 284.26C62.8049 284.26 60.7448 282.12 60.7448 279.06C60.7448 275.96 62.7648 273.82 65.6648 273.82C68.6249 273.82 70.5049 275.8 70.5049 278.88V279.62L63.0648 279.64C63.2449 281.38 64.1649 282.26 65.7849 282.26C67.1249 282.26 68.0049 281.74 68.2849 280.8H70.5449C70.1249 282.96 68.3249 284.26 65.7449 284.26ZM65.6849 275.82C64.2448 275.82 63.3648 276.6 63.1249 278.08H68.0849C68.0849 276.72 67.1448 275.82 65.6849 275.82ZM78.8577 274.08V276.34H77.9577C76.1977 276.34 75.0977 277.28 75.0977 279.2V284H72.6577V274.14H74.9577L75.0977 275.58C75.5177 274.6 76.4577 273.94 77.7777 273.94C78.1177 273.94 78.4577 273.98 78.8577 274.08ZM92.4998 274.08V276.34H91.5998C89.8398 276.34 88.7398 277.28 88.7398 279.2V284H86.2998V274.14H88.5998L88.7398 275.58C89.1598 274.6 90.0998 273.94 91.4198 273.94C91.7598 273.94 92.0998 273.98 92.4998 274.08ZM95.5714 272.14C94.7314 272.14 94.0714 271.48 94.0714 270.66C94.0714 269.84 94.7314 269.2 95.5714 269.2C96.3714 269.2 97.0314 269.84 97.0314 270.66C97.0314 271.48 96.3714 272.14 95.5714 272.14ZM94.3514 284V274.12H96.7914V284H94.3514ZM98.7523 281H101.072C101.092 281.86 101.732 282.4 102.852 282.4C103.992 282.4 104.612 281.94 104.612 281.22C104.612 280.72 104.352 280.36 103.472 280.16L101.692 279.74C99.9123 279.34 99.0523 278.5 99.0523 276.92C99.0523 274.98 100.692 273.82 102.972 273.82C105.192 273.82 106.692 275.1 106.712 277.02H104.392C104.372 276.18 103.812 275.64 102.872 275.64C101.912 275.64 101.352 276.08 101.352 276.82C101.352 277.38 101.792 277.74 102.632 277.94L104.412 278.36C106.072 278.74 106.912 279.5 106.912 281.02C106.912 283.02 105.212 284.26 102.772 284.26C100.312 284.26 98.7523 282.94 98.7523 281ZM111.43 284H109.01V269.12H111.43V278.26L115.27 274.12H118.33L114.57 278.04L118.25 284H115.45L112.87 279.84L111.43 281.34V284ZM130.423 287.82H128.483C126.483 285.54 125.163 281.96 125.163 278.12C125.163 274.62 126.283 270.94 128.483 268.44H130.423C128.763 270.7 127.623 274.24 127.623 278.12C127.623 281.66 128.603 285.34 130.423 287.82ZM132.235 284V269.38H138.055C140.935 269.38 142.695 270.88 142.695 273.32C142.695 274.94 141.975 276.1 140.595 276.68C142.135 277.18 142.915 278.34 142.915 280.04C142.915 282.54 141.175 284 138.155 284H132.235ZM137.835 271.64H134.795V275.62H137.895C139.295 275.62 140.075 274.88 140.075 273.58C140.075 272.32 139.275 271.64 137.835 271.64ZM138.055 277.78H134.795V281.74H138.055C139.495 281.74 140.295 281.04 140.295 279.72C140.295 278.48 139.475 277.78 138.055 277.78ZM151.242 278.96H148.022V284H145.462V269.38H151.242C154.182 269.38 156.082 271.3 156.082 274.16C156.082 276.98 154.162 278.96 151.242 278.96ZM150.742 271.66H148.022V276.68H150.702C152.462 276.68 153.402 275.74 153.402 274.14C153.402 272.54 152.442 271.66 150.742 271.66ZM158.914 284H156.254L161.534 269.38H164.154L169.434 284H166.734L165.554 280.62H160.094L158.914 284ZM162.514 273.74L160.854 278.46H164.814L163.134 273.74C163.014 273.36 162.874 272.92 162.834 272.62C162.774 272.9 162.654 273.34 162.514 273.74ZM171.788 287.82H169.848C171.688 285.34 172.648 281.66 172.648 278.12C172.648 274.24 171.508 270.7 169.848 268.44H171.788C173.988 270.94 175.128 274.62 175.128 278.12C175.128 281.96 173.788 285.54 171.788 287.82Z" fill="white"/>
<path id="Vector 2248" d="M186 266L294 266" stroke="white" stroke-width="3" stroke-linecap="round"/>
</g>
<g id="4_TEXT">
<path id="Obesity and metabolic disease" d="M443.96 318.68C443.96 323.12 441.04 326.24 436.84 326.24C432.66 326.24 429.78 323.14 429.78 318.68C429.78 314.24 432.68 311.12 436.86 311.12C441.04 311.12 443.96 314.22 443.96 318.68ZM441.26 318.68C441.26 315.56 439.54 313.58 436.86 313.58C434.18 313.58 432.46 315.56 432.46 318.68C432.46 321.8 434.18 323.78 436.86 323.78C439.54 323.78 441.26 321.76 441.26 318.68ZM448.443 326H446.183V311.12H448.623V317.56C449.263 316.46 450.583 315.8 452.083 315.8C454.903 315.8 456.623 318 456.623 321.12C456.623 324.16 454.763 326.26 451.923 326.26C450.443 326.26 449.183 325.6 448.603 324.46L448.443 326ZM448.643 321.02C448.643 322.8 449.743 324.02 451.423 324.02C453.143 324.02 454.163 322.78 454.163 321.02C454.163 319.26 453.143 318 451.423 318C449.743 318 448.643 319.24 448.643 321.02ZM463.185 326.26C460.245 326.26 458.185 324.12 458.185 321.06C458.185 317.96 460.205 315.82 463.105 315.82C466.065 315.82 467.945 317.8 467.945 320.88V321.62L460.505 321.64C460.685 323.38 461.605 324.26 463.225 324.26C464.565 324.26 465.445 323.74 465.725 322.8H467.985C467.565 324.96 465.765 326.26 463.185 326.26ZM463.125 317.82C461.685 317.82 460.805 318.6 460.565 320.08H465.525C465.525 318.72 464.585 317.82 463.125 317.82ZM469.338 323H471.658C471.678 323.86 472.318 324.4 473.438 324.4C474.578 324.4 475.198 323.94 475.198 323.22C475.198 322.72 474.938 322.36 474.058 322.16L472.278 321.74C470.498 321.34 469.638 320.5 469.638 318.92C469.638 316.98 471.278 315.82 473.558 315.82C475.778 315.82 477.278 317.1 477.298 319.02H474.978C474.958 318.18 474.398 317.64 473.458 317.64C472.498 317.64 471.938 318.08 471.938 318.82C471.938 319.38 472.378 319.74 473.218 319.94L474.998 320.36C476.658 320.74 477.498 321.5 477.498 323.02C477.498 325.02 475.798 326.26 473.358 326.26C470.898 326.26 469.338 324.94 469.338 323ZM480.776 314.14C479.936 314.14 479.276 313.48 479.276 312.66C479.276 311.84 479.936 311.2 480.776 311.2C481.576 311.2 482.236 311.84 482.236 312.66C482.236 313.48 481.576 314.14 480.776 314.14ZM479.556 326V316.12H481.996V326H479.556ZM488.077 326H485.637V318.16H483.737V316.12H485.637V313.04H488.077V316.12H489.997V318.16H488.077V326ZM490.854 330.58V328.54H492.314C493.274 328.54 493.874 328.32 494.294 327.16L494.574 326.42L490.594 316.12H493.174L495.714 323.32L498.394 316.12H500.914L496.074 328.2C495.334 330.04 494.294 330.8 492.674 330.8C491.994 330.8 491.394 330.72 490.854 330.58ZM511.03 326.26C508.93 326.26 507.65 325.04 507.65 323.18C507.65 321.36 508.97 320.22 511.31 320.04L514.27 319.82V319.6C514.27 318.26 513.47 317.72 512.23 317.72C510.79 317.72 509.99 318.32 509.99 319.36H507.91C507.91 317.22 509.67 315.82 512.35 315.82C515.01 315.82 516.65 317.26 516.65 320V326H514.51L514.33 324.54C513.91 325.56 512.57 326.26 511.03 326.26ZM511.83 324.42C513.33 324.42 514.29 323.52 514.29 322V321.48L512.23 321.64C510.71 321.78 510.13 322.28 510.13 323.08C510.13 323.98 510.73 324.42 511.83 324.42ZM521.688 326H519.248V316.12H521.508L521.708 317.4C522.328 316.4 523.528 315.82 524.868 315.82C527.348 315.82 528.628 317.36 528.628 319.92V326H526.188V320.5C526.188 318.84 525.368 318.04 524.108 318.04C522.608 318.04 521.688 319.08 521.688 320.68V326ZM535.285 326.26C532.425 326.26 530.645 324.16 530.645 321.1C530.645 318.02 532.445 315.82 535.425 315.82C536.805 315.82 538.025 316.4 538.645 317.38V311.12H541.065V326H538.825L538.665 324.46C538.065 325.6 536.785 326.26 535.285 326.26ZM535.825 324.02C537.525 324.02 538.625 322.8 538.625 321.02C538.625 319.24 537.525 318 535.825 318C534.125 318 533.085 319.26 533.085 321.02C533.085 322.78 534.125 324.02 535.825 324.02ZM432.7 352H430.26V342.12H432.5L432.7 343.28C433.2 342.46 434.2 341.82 435.62 341.82C437.12 341.82 438.16 342.56 438.68 343.7C439.18 342.56 440.34 341.82 441.84 341.82C444.24 341.82 445.56 343.26 445.56 345.54V352H443.14V346.18C443.14 344.76 442.38 344.02 441.22 344.02C440.04 344.02 439.14 344.78 439.14 346.4V352H436.7V346.16C436.7 344.78 435.96 344.04 434.8 344.04C433.64 344.04 432.7 344.8 432.7 346.4V352ZM452.575 352.26C449.635 352.26 447.575 350.12 447.575 347.06C447.575 343.96 449.595 341.82 452.495 341.82C455.455 341.82 457.335 343.8 457.335 346.88V347.62L449.895 347.64C450.075 349.38 450.995 350.26 452.615 350.26C453.955 350.26 454.835 349.74 455.115 348.8H457.375C456.955 350.96 455.155 352.26 452.575 352.26ZM452.515 343.82C451.075 343.82 450.195 344.6 449.955 346.08H454.915C454.915 344.72 453.975 343.82 452.515 343.82ZM462.75 352H460.31V344.16H458.41V342.12H460.31V339.04H462.75V342.12H464.67V344.16H462.75V352ZM469.269 352.26C467.169 352.26 465.889 351.04 465.889 349.18C465.889 347.36 467.209 346.22 469.549 346.04L472.509 345.82V345.6C472.509 344.26 471.709 343.72 470.469 343.72C469.029 343.72 468.229 344.32 468.229 345.36H466.149C466.149 343.22 467.909 341.82 470.589 341.82C473.249 341.82 474.889 343.26 474.889 346V352H472.749L472.569 350.54C472.149 351.56 470.809 352.26 469.269 352.26ZM470.069 350.42C471.569 350.42 472.529 349.52 472.529 348V347.48L470.469 347.64C468.949 347.78 468.369 348.28 468.369 349.08C468.369 349.98 468.969 350.42 470.069 350.42ZM479.746 352H477.486V337.12H479.926V343.56C480.566 342.46 481.886 341.8 483.386 341.8C486.206 341.8 487.926 344 487.926 347.12C487.926 350.16 486.066 352.26 483.226 352.26C481.746 352.26 480.486 351.6 479.906 350.46L479.746 352ZM479.946 347.02C479.946 348.8 481.046 350.02 482.726 350.02C484.446 350.02 485.466 348.78 485.466 347.02C485.466 345.26 484.446 344 482.726 344C481.046 344 479.946 345.24 479.946 347.02ZM489.489 347.04C489.489 343.96 491.709 341.84 494.769 341.84C497.829 341.84 500.049 343.96 500.049 347.04C500.049 350.12 497.829 352.24 494.769 352.24C491.709 352.24 489.489 350.12 489.489 347.04ZM491.929 347.04C491.929 348.84 493.089 350.06 494.769 350.06C496.449 350.06 497.609 348.84 497.609 347.04C497.609 345.24 496.449 344.02 494.769 344.02C493.089 344.02 491.929 345.24 491.929 347.04ZM504.643 352H502.223V337.12H504.643V352ZM508.622 340.14C507.782 340.14 507.122 339.48 507.122 338.66C507.122 337.84 507.782 337.2 508.622 337.2C509.422 337.2 510.082 337.84 510.082 338.66C510.082 339.48 509.422 340.14 508.622 340.14ZM507.402 352V342.12H509.842V352H507.402ZM511.983 347.04C511.983 343.98 514.003 341.82 516.923 341.82C519.623 341.82 521.463 343.32 521.723 345.7H519.283C519.003 344.58 518.183 344 517.023 344C515.463 344 514.423 345.18 514.423 347.04C514.423 348.9 515.383 350.06 516.943 350.06C518.163 350.06 519.023 349.46 519.283 348.38H521.743C521.443 350.68 519.523 352.26 516.943 352.26C513.943 352.26 511.983 350.18 511.983 347.04ZM533.41 352.26C530.55 352.26 528.77 350.16 528.77 347.1C528.77 344.02 530.57 341.82 533.55 341.82C534.93 341.82 536.15 342.4 536.77 343.38V337.12H539.19V352H536.95L536.79 350.46C536.19 351.6 534.91 352.26 533.41 352.26ZM533.95 350.02C535.65 350.02 536.75 348.8 536.75 347.02C536.75 345.24 535.65 344 533.95 344C532.25 344 531.21 345.26 531.21 347.02C531.21 348.78 532.25 350.02 533.95 350.02ZM543.153 340.14C542.313 340.14 541.653 339.48 541.653 338.66C541.653 337.84 542.313 337.2 543.153 337.2C543.953 337.2 544.613 337.84 544.613 338.66C544.613 339.48 543.953 340.14 543.153 340.14ZM541.933 352V342.12H544.373V352H541.933ZM546.334 349H548.654C548.674 349.86 549.314 350.4 550.434 350.4C551.574 350.4 552.194 349.94 552.194 349.22C552.194 348.72 551.934 348.36 551.054 348.16L549.274 347.74C547.494 347.34 546.634 346.5 546.634 344.92C546.634 342.98 548.274 341.82 550.554 341.82C552.774 341.82 554.274 343.1 554.294 345.02H551.974C551.954 344.18 551.394 343.64 550.454 343.64C549.494 343.64 548.934 344.08 548.934 344.82C548.934 345.38 549.374 345.74 550.214 345.94L551.994 346.36C553.654 346.74 554.494 347.5 554.494 349.02C554.494 351.02 552.794 352.26 550.354 352.26C547.894 352.26 546.334 350.94 546.334 349ZM560.971 352.26C558.031 352.26 555.971 350.12 555.971 347.06C555.971 343.96 557.991 341.82 560.891 341.82C563.851 341.82 565.731 343.8 565.731 346.88V347.62L558.291 347.64C558.471 349.38 559.391 350.26 561.011 350.26C562.351 350.26 563.231 349.74 563.511 348.8H565.771C565.351 350.96 563.551 352.26 560.971 352.26ZM560.911 343.82C559.471 343.82 558.591 344.6 558.351 346.08H563.311C563.311 344.72 562.371 343.82 560.911 343.82ZM570.727 352.26C568.627 352.26 567.347 351.04 567.347 349.18C567.347 347.36 568.667 346.22 571.007 346.04L573.967 345.82V345.6C573.967 344.26 573.167 343.72 571.927 343.72C570.487 343.72 569.687 344.32 569.687 345.36H567.607C567.607 343.22 569.367 341.82 572.047 341.82C574.707 341.82 576.347 343.26 576.347 346V352H574.207L574.027 350.54C573.607 351.56 572.267 352.26 570.727 352.26ZM571.527 350.42C573.027 350.42 573.987 349.52 573.987 348V347.48L571.927 347.64C570.407 347.78 569.827 348.28 569.827 349.08C569.827 349.98 570.427 350.42 571.527 350.42ZM578.184 349H580.504C580.524 349.86 581.164 350.4 582.284 350.4C583.424 350.4 584.044 349.94 584.044 349.22C584.044 348.72 583.784 348.36 582.904 348.16L581.124 347.74C579.344 347.34 578.484 346.5 578.484 344.92C578.484 342.98 580.124 341.82 582.404 341.82C584.624 341.82 586.124 343.1 586.144 345.02H583.824C583.804 344.18 583.244 343.64 582.304 343.64C581.344 343.64 580.784 344.08 580.784 344.82C580.784 345.38 581.224 345.74 582.064 345.94L583.844 346.36C585.504 346.74 586.344 347.5 586.344 349.02C586.344 351.02 584.644 352.26 582.204 352.26C579.744 352.26 578.184 350.94 578.184 349ZM592.821 352.26C589.881 352.26 587.821 350.12 587.821 347.06C587.821 343.96 589.841 341.82 592.741 341.82C595.701 341.82 597.581 343.8 597.581 346.88V347.62L590.141 347.64C590.321 349.38 591.241 350.26 592.861 350.26C594.201 350.26 595.081 349.74 595.361 348.8H597.621C597.201 350.96 595.401 352.26 592.821 352.26ZM592.761 343.82C591.321 343.82 590.441 344.6 590.201 346.08H595.161C595.161 344.72 594.221 343.82 592.761 343.82Z" fill="white"/>
<path id="Vector 2249" d="M335 334L415 334" stroke="white" stroke-width="3" stroke-linecap="round"/>
</g>
<g id="5_TEXT">
<path id="Low birth weight" d="M22.9066 383.38V395.64H29.0266V398H20.3466V383.38H22.9066ZM30.173 393.04C30.173 389.96 32.393 387.84 35.453 387.84C38.513 387.84 40.733 389.96 40.733 393.04C40.733 396.12 38.513 398.24 35.453 398.24C32.393 398.24 30.173 396.12 30.173 393.04ZM32.613 393.04C32.613 394.84 33.773 396.06 35.453 396.06C37.133 396.06 38.293 394.84 38.293 393.04C38.293 391.24 37.133 390.02 35.453 390.02C33.773 390.02 32.613 391.24 32.613 393.04ZM44.5588 398L41.3588 388.12H43.8988L45.1988 392.36C45.4188 393.14 45.6188 394 45.7988 394.92C45.9788 393.96 46.1588 393.34 46.4788 392.36L47.8388 388.12H50.3188L51.6388 392.36C51.7588 392.76 52.1588 394.24 52.2788 394.9C52.4388 394.16 52.7588 392.98 52.9388 392.36L54.2588 388.12H56.8388L53.4188 398H51.1388L49.7788 393.72C49.3788 392.42 49.1588 391.48 49.0788 390.98C48.9788 391.44 48.7988 392.14 48.2988 393.76L46.9388 398H44.5588ZM66.3669 398H64.1069V383.12H66.5469V389.56C67.1869 388.46 68.5069 387.8 70.0069 387.8C72.8269 387.8 74.5469 390 74.5469 393.12C74.5469 396.16 72.6869 398.26 69.8469 398.26C68.3669 398.26 67.1069 397.6 66.5269 396.46L66.3669 398ZM66.5669 393.02C66.5669 394.8 67.6669 396.02 69.3469 396.02C71.0669 396.02 72.0869 394.78 72.0869 393.02C72.0869 391.26 71.0669 390 69.3469 390C67.6669 390 66.5669 391.24 66.5669 393.02ZM77.9097 386.14C77.0697 386.14 76.4097 385.48 76.4097 384.66C76.4097 383.84 77.0697 383.2 77.9097 383.2C78.7097 383.2 79.3697 383.84 79.3697 384.66C79.3697 385.48 78.7097 386.14 77.9097 386.14ZM76.6897 398V388.12H79.1297V398H76.6897ZM88.0506 388.08V390.34H87.1506C85.3906 390.34 84.2906 391.28 84.2906 393.2V398H81.8506V388.14H84.1506L84.2906 389.58C84.7106 388.6 85.6506 387.94 86.9706 387.94C87.3106 387.94 87.6506 387.98 88.0506 388.08ZM93.6528 398H91.2128V390.16H89.3128V388.12H91.2128V385.04H93.6528V388.12H95.5728V390.16H93.6528V398ZM99.7297 398H97.2897V383.12H99.7497V389.4C100.37 388.44 101.53 387.82 102.95 387.82C105.39 387.82 106.67 389.36 106.67 391.92V398H104.23V392.5C104.23 390.84 103.41 390.04 102.17 390.04C100.63 390.04 99.7297 391.12 99.7297 392.6V398ZM117.038 398L113.838 388.12H116.378L117.678 392.36C117.898 393.14 118.098 394 118.278 394.92C118.458 393.96 118.638 393.34 118.958 392.36L120.318 388.12H122.798L124.118 392.36C124.238 392.76 124.638 394.24 124.758 394.9C124.918 394.16 125.238 392.98 125.418 392.36L126.738 388.12H129.318L125.898 398H123.618L122.258 393.72C121.858 392.42 121.638 391.48 121.558 390.98C121.458 391.44 121.278 392.14 120.778 393.76L119.418 398H117.038ZM134.927 398.26C131.987 398.26 129.927 396.12 129.927 393.06C129.927 389.96 131.947 387.82 134.847 387.82C137.807 387.82 139.687 389.8 139.687 392.88V393.62L132.247 393.64C132.427 395.38 133.347 396.26 134.967 396.26C136.307 396.26 137.187 395.74 137.467 394.8H139.727C139.307 396.96 137.507 398.26 134.927 398.26ZM134.867 389.82C133.427 389.82 132.547 390.6 132.307 392.08H137.267C137.267 390.72 136.327 389.82 134.867 389.82ZM143.06 386.14C142.22 386.14 141.56 385.48 141.56 384.66C141.56 383.84 142.22 383.2 143.06 383.2C143.86 383.2 144.52 383.84 144.52 384.66C144.52 385.48 143.86 386.14 143.06 386.14ZM141.84 398V388.12H144.28V398H141.84ZM146.441 392.84C146.441 389.96 148.321 387.8 151.141 387.8C152.621 387.8 153.781 388.42 154.361 389.48L154.501 388.12H156.761V397.5C156.761 400.8 154.781 402.86 151.581 402.86C148.741 402.86 146.801 401.24 146.501 398.6H148.941C149.101 399.88 150.081 400.64 151.581 400.64C153.261 400.64 154.341 399.58 154.341 397.94V396.3C153.721 397.22 152.501 397.8 151.081 397.8C148.281 397.8 146.441 395.7 146.441 392.84ZM148.901 392.78C148.901 394.44 149.961 395.68 151.561 395.68C153.241 395.68 154.281 394.5 154.281 392.78C154.281 391.1 153.261 389.94 151.561 389.94C149.941 389.94 148.901 391.16 148.901 392.78ZM161.926 398H159.486V383.12H161.946V389.4C162.566 388.44 163.726 387.82 165.146 387.82C167.586 387.82 168.866 389.36 168.866 391.92V398H166.426V392.5C166.426 390.84 165.606 390.04 164.366 390.04C162.826 390.04 161.926 391.12 161.926 392.6V398ZM174.823 398H172.383V390.16H170.483V388.12H172.383V385.04H174.823V388.12H176.743V390.16H174.823V398Z" fill="white"/>
<path id="Vector 2250" d="M185 394L298 394" stroke="white" stroke-width="3" stroke-linecap="round"/>
</g>
<g id="6_TEXT">
<path id="Infertility" d="M397.18 440.38V455H394.62V440.38H397.18ZM402.701 455H400.261V445.12H402.521L402.721 446.4C403.341 445.4 404.541 444.82 405.881 444.82C408.361 444.82 409.641 446.36 409.641 448.92V455H407.201V449.5C407.201 447.84 406.381 447.04 405.121 447.04C403.621 447.04 402.701 448.08 402.701 449.68V455ZM411.258 445.12H412.678V443.92C412.678 441.24 414.098 440.12 416.238 440.12C416.618 440.12 417.078 440.14 417.498 440.22V442.3H416.638C415.398 442.3 415.098 442.94 415.098 443.92V445.12H417.458V447.16H415.098V455H412.678V447.16H411.258V445.12ZM423.343 455.26C420.403 455.26 418.343 453.12 418.343 450.06C418.343 446.96 420.363 444.82 423.263 444.82C426.223 444.82 428.103 446.8 428.103 449.88V450.62L420.663 450.64C420.843 452.38 421.763 453.26 423.383 453.26C424.723 453.26 425.603 452.74 425.883 451.8H428.143C427.723 453.96 425.923 455.26 423.343 455.26ZM423.283 446.82C421.843 446.82 420.963 447.6 420.723 449.08H425.683C425.683 447.72 424.743 446.82 423.283 446.82ZM436.455 445.08V447.34H435.555C433.795 447.34 432.695 448.28 432.695 450.2V455H430.255V445.14H432.555L432.695 446.58C433.115 445.6 434.055 444.94 435.375 444.94C435.715 444.94 436.055 444.98 436.455 445.08ZM442.058 455H439.618V447.16H437.718V445.12H439.618V442.04H442.058V445.12H443.978V447.16H442.058V455ZM446.914 443.14C446.074 443.14 445.414 442.48 445.414 441.66C445.414 440.84 446.074 440.2 446.914 440.2C447.714 440.2 448.374 440.84 448.374 441.66C448.374 442.48 447.714 443.14 446.914 443.14ZM445.694 455V445.12H448.134V455H445.694ZM453.315 455H450.895V440.12H453.315V455ZM457.295 443.14C456.455 443.14 455.795 442.48 455.795 441.66C455.795 440.84 456.455 440.2 457.295 440.2C458.095 440.2 458.755 440.84 458.755 441.66C458.755 442.48 458.095 443.14 457.295 443.14ZM456.075 455V445.12H458.515V455H456.075ZM464.596 455H462.156V447.16H460.256V445.12H462.156V442.04H464.596V445.12H466.516V447.16H464.596V455ZM467.373 459.58V457.54H468.833C469.793 457.54 470.393 457.32 470.813 456.16L471.093 455.42L467.113 445.12H469.693L472.233 452.32L474.913 445.12H477.433L472.593 457.2C471.853 459.04 470.813 459.8 469.193 459.8C468.513 459.8 467.913 459.72 467.373 459.58Z" fill="white"/>
<path id="Vector 2247" d="M323 452H385" stroke="white" stroke-width="3" stroke-linecap="round"/>
</g>
</svg>
