<svg width="619" height="889" viewBox="0 0 619 889" fill="none" xmlns="http://www.w3.org/2000/svg">
<g id="Arsenic">
<g id="human">
<circle id="Ellipse 4589" cx="352.32" cy="605.698" r="3.00372" fill="black"/>
<circle id="Ellipse 4590" cx="369.336" cy="604.696" r="3.00372" fill="black"/>
<circle id="Ellipse 4591" cx="359.324" cy="616.711" r="3.00372" fill="black"/>
<circle id="Ellipse 4592" cx="372.34" cy="622.719" r="3.00372" fill="black"/>
<circle id="Ellipse 4593" cx="344.308" cy="618.714" r="3.00372" fill="black"/>
<circle id="Ellipse 4594" cx="333.293" cy="606.699" r="3.00372" fill="black"/>
<circle id="Ellipse 4595" cx="343.308" cy="594.684" r="3.00372" fill="black"/>
<circle id="Ellipse 4596" cx="357.32" cy="591.68" r="3.00372" fill="black"/>
<circle id="Ellipse 4597" cx="370.34" cy="587.675" r="3.00372" fill="black"/>
<circle id="Ellipse 4598" cx="330.289" cy="591.68" r="3.00372" fill="black"/>
<circle id="Ellipse 4654" cx="328.289" cy="577.663" r="3.00372" fill="black"/>
<circle id="Ellipse 4655" cx="343.308" cy="578.664" r="3.00372" fill="black"/>
<circle id="Ellipse 4656" cx="357.32" cy="576.662" r="3.00372" fill="black"/>
<circle id="Ellipse 4657" cx="371.34" cy="571.656" r="3.00372" fill="black"/>
<circle id="Ellipse 4658" cx="372.34" cy="556.637" r="3.00372" fill="black"/>
<circle id="Ellipse 4659" cx="356.324" cy="561.643" r="3.00372" fill="black"/>
<circle id="Ellipse 4660" cx="339.301" cy="563.646" r="3.00372" fill="black"/>
<circle id="Ellipse 4661" cx="324.281" cy="564.647" r="3.00372" fill="black"/>
<circle id="Ellipse 4662" cx="324.281" cy="551.631" r="3.00372" fill="black"/>
<circle id="Ellipse 4663" cx="342.305" cy="549.628" r="3.00372" fill="black"/>
<circle id="Ellipse 4664" cx="359.324" cy="546.625" r="3.00372" fill="black"/>
<circle id="Ellipse 4665" cx="376.347" cy="542.619" r="3.00372" fill="black"/>
<circle id="Ellipse 4666" cx="364.332" cy="532.607" r="3.00372" fill="black"/>
<circle id="Ellipse 4667" cx="348.312" cy="533.608" r="3.00372" fill="black"/>
<circle id="Ellipse 4668" cx="333.293" cy="537.613" r="3.00372" fill="black"/>
<circle id="Ellipse 4669" cx="319.277" cy="539.616" r="3.00372" fill="black"/>
<circle id="Ellipse 4670" cx="379.351" cy="527.601" r="3.00372" fill="black"/>
<circle id="Ellipse 4671" cx="380.351" cy="512.582" r="3.00372" fill="black"/>
<circle id="Ellipse 4672" cx="365.332" cy="519.591" r="3.00372" fill="black"/>
<circle id="Ellipse 4673" cx="349.316" cy="517.589" r="3.00372" fill="black"/>
<circle id="Ellipse 4674" cx="335.297" cy="523.596" r="3.00372" fill="black"/>
<circle id="Ellipse 4675" cx="319.277" cy="524.597" r="3.00372" fill="black"/>
<circle id="Ellipse 4676" cx="334.297" cy="509.579" r="3.00372" fill="black"/>
<circle id="Ellipse 4677" cx="349.316" cy="502.57" r="3.00372" fill="black"/>
<circle id="Ellipse 4678" cx="365.332" cy="505.574" r="3.00372" fill="black"/>
<circle id="Ellipse 4772" cx="358.324" cy="490.555" r="3.00372" fill="black"/>
<circle id="Ellipse 4773" cx="355.324" cy="474.535" r="3.00372" fill="black"/>
<circle id="Ellipse 4774" cx="344.308" cy="486.55" r="3.00372" fill="black"/>
<circle id="Ellipse 4775" cx="339.301" cy="472.533" r="3.00372" fill="black"/>
<circle id="Ellipse 4777" cx="334.297" cy="458.515" r="3.00372" fill="black"/>
<circle id="Ellipse 4778" cx="344.308" cy="447.502" r="3.00372" fill="black"/>
<circle id="Ellipse 4779" cx="352.32" cy="436.488" r="3.00372" fill="black"/>
<circle id="Ellipse 4780" cx="346.312" cy="421.47" r="3.00372" fill="black"/>
<circle id="Ellipse 4781" cx="340.305" cy="407.452" r="3.00372" fill="black"/>
<circle id="Ellipse 4782" cx="340.305" cy="393.435" r="3.00372" fill="black"/>
<circle id="Ellipse 4783" cx="337.301" cy="377.415" r="3.00372" fill="black"/>
<circle id="Ellipse 4784" cx="338.301" cy="361.395" r="3.00372" fill="black"/>
<circle id="Ellipse 4785" cx="338.301" cy="344.374" r="3.00372" fill="black"/>
<circle id="Ellipse 4787" cx="326.285" cy="334.362" r="3.00372" fill="black"/>
<circle id="Ellipse 4787_2" cx="331.293" cy="320.345" r="3.00372" fill="black"/>
<circle id="Ellipse 4788" cx="337.301" cy="302.322" r="3.00372" fill="black"/>
<circle id="Ellipse 4789" cx="336.297" cy="284.3" r="3.00372" fill="black"/>
<circle id="Ellipse 4790" cx="347.312" cy="272.285" r="3.00372" fill="black"/>
<circle id="Ellipse 4791" cx="360.324" cy="260.27" r="3.00372" fill="black"/>
<circle id="Ellipse 4792" cx="375.344" cy="259.269" r="3.00372" fill="black"/>
<circle id="Ellipse 4793" cx="389.363" cy="254.263" r="3.00372" fill="black"/>
<circle id="Ellipse 4794" cx="400.375" cy="242.248" r="3.00372" fill="black"/>
<circle id="Ellipse 4795" cx="382.355" cy="242.248" r="3.00372" fill="black"/>
<circle id="Ellipse 4796" cx="392.367" cy="231.234" r="3.00372" fill="black"/>
<circle id="Ellipse 4799" cx="409.387" cy="227.229" r="3.00372" fill="black"/>
<circle id="Ellipse 4800" cx="414.394" cy="239.244" r="3.00372" fill="black"/>
<circle id="Ellipse 4801" cx="409.387" cy="213.212" r="3.00372" fill="black"/>
<circle id="Ellipse 4802" cx="396.371" cy="217.217" r="3.00372" fill="black"/>
<circle id="Ellipse 4803" cx="381.351" cy="218.218" r="3.00372" fill="black"/>
<circle id="Ellipse 4804" cx="390.363" cy="205.202" r="3.00372" fill="black"/>
<circle id="Ellipse 4806" cx="383.355" cy="194.188" r="3.00372" fill="black"/>
<circle id="Ellipse 4807" cx="396.371" cy="187.18" r="3.00372" fill="black"/>
<circle id="Ellipse 4808" cx="383.355" cy="180.171" r="3.00372" fill="black"/>
<circle id="Ellipse 4809" cx="370.34" cy="190.183" r="3.00372" fill="black"/>
<circle id="Ellipse 4810" cx="368.336" cy="177.167" r="3.00372" fill="black"/>
<circle id="Ellipse 4811" cx="374.344" cy="205.202" r="3.00372" fill="black"/>
<circle id="Ellipse 4812" cx="361.328" cy="200.196" r="3.00372" fill="black"/>
<circle id="Ellipse 4813" cx="355.324" cy="186.179" r="3.00372" fill="black"/>
<circle id="Ellipse 4814" cx="354.32" cy="172.161" r="3.00372" fill="black"/>
<circle id="Ellipse 4822" cx="341.305" cy="167.155" r="3.00372" fill="black"/>
<circle id="Ellipse 4823" cx="339.301" cy="181.172" r="3.00372" fill="black"/>
<circle id="Ellipse 4824" cx="325.285" cy="173.162" r="3.00372" fill="black"/>
<circle id="Ellipse 4825" cx="331.293" cy="156.141" r="3.00372" fill="black"/>
<circle id="Ellipse 4826" cx="322.281" cy="145.128" r="3.00372" fill="black"/>
<circle id="Ellipse 4837" cx="308.262" cy="140.121" r="3.00372" fill="black"/>
<circle id="Ellipse 4838" cx="318.273" cy="126.104" r="3.00372" fill="black"/>
<circle id="Ellipse 4839" cx="336.297" cy="123.1" r="3.00372" fill="black"/>
<circle id="Ellipse 4840" cx="347.312" cy="110.084" r="3.00372" fill="black"/>
<circle id="Ellipse 4841" cx="345.308" cy="97.0682" r="3.00372" fill="black"/>
<circle id="Ellipse 4842" cx="329.289" cy="94.0645" r="3.00372" fill="black"/>
<circle id="Ellipse 4844" cx="343.308" cy="81.0484" r="3.00372" fill="black"/>
<circle id="Ellipse 4845" cx="341.305" cy="66.0298" r="3.00372" fill="black"/>
<circle id="Ellipse 4846" cx="328.289" cy="79.046" r="3.00372" fill="black"/>
<circle id="Ellipse 4847" cx="323.281" cy="63.0259" r="3.00372" fill="black"/>
<circle id="Ellipse 4848" cx="334.297" cy="53.0137" r="3.00372" fill="black"/>
<circle id="Ellipse 4849" cx="320.277" cy="47.0062" r="3.00372" fill="black"/>
<circle id="Ellipse 4850" cx="304.258" cy="45.0037" r="3.00372" fill="black"/>
<circle id="Ellipse 4851" cx="290.238" cy="49.0086" r="3.00372" fill="black"/>
<circle id="Ellipse 4853" cx="278.226" cy="59.021" r="3.00372" fill="black"/>
<circle id="Ellipse 4854" cx="291.238" cy="67.0311" r="3.00372" fill="black"/>
<circle id="Ellipse 4855" cx="314.269" cy="77.0433" r="3.00372" fill="black"/>
<circle id="Ellipse 4857" cx="301.254" cy="80.0469" r="3.00372" fill="black"/>
<circle id="Ellipse 4857_2" cx="286.238" cy="85.0533" r="3.00372" fill="black"/>
<circle id="Ellipse 4858" cx="274.222" cy="74.0396" r="3.00372" fill="black"/>
<circle id="Ellipse 4859" cx="272.219" cy="93.0633" r="3.00372" fill="black"/>
<circle id="Ellipse 4860" cx="284.234" cy="100.072" r="3.00372" fill="black"/>
<circle id="Ellipse 4861" cx="299.25" cy="98.0694" r="3.00372" fill="black"/>
<circle id="Ellipse 4862" cx="314.269" cy="94.0645" r="3.00372" fill="black"/>
<circle id="Ellipse 4863" cx="319.277" cy="110.084" r="3.00372" fill="black"/>
<circle id="Ellipse 4864" cx="306.258" cy="112.087" r="3.00372" fill="black"/>
<circle id="Ellipse 4865" cx="290.238" cy="113.088" r="3.00372" fill="black"/>
<circle id="Ellipse 4866" cx="271.219" cy="110.084" r="3.00372" fill="black"/>
<circle id="Ellipse 4867" cx="281.23" cy="125.103" r="3.00372" fill="black"/>
<circle id="Ellipse 4868" cx="300.25" cy="127.105" r="3.00372" fill="black"/>
<circle id="Ellipse 4869" cx="288.238" cy="139.12" r="3.00372" fill="black"/>
<circle id="1_DOT" cx="301.254" cy="153.138" r="3.00372" fill="#FF0000"/>
<circle id="Ellipse 4871" cx="286.238" cy="153.138" r="3.00372" fill="black"/>
<circle id="Ellipse 4872" cx="277.226" cy="166.154" r="3.00372" fill="black"/>
<circle id="Ellipse 4874" cx="264.207" cy="172.161" r="3.00372" fill="black"/>
<circle id="Ellipse 4875" cx="279.226" cy="180.171" r="3.00372" fill="black"/>
<circle id="Ellipse 4876" cx="295.246" cy="182.173" r="3.00372" fill="black"/>
<circle id="Ellipse 4877" cx="300.25" cy="196.191" r="3.00372" fill="black"/>
<circle id="Ellipse 4878" cx="285.234" cy="195.19" r="3.00372" fill="black"/>
<circle id="Ellipse 4879" cx="271.219" cy="193.187" r="3.00372" fill="black"/>
<circle id="Ellipse 4880" cx="260.203" cy="186.179" r="3.00372" fill="black"/>
<circle id="Ellipse 4881" cx="249.187" cy="176.166" r="3.00372" fill="black"/>
<circle id="Ellipse 4882" cx="246.183" cy="193.187" r="3.00372" fill="black"/>
<circle id="Ellipse 4883" cx="259.203" cy="203.2" r="3.00372" fill="black"/>
<circle id="Ellipse 4884" cx="275.222" cy="208.206" r="3.00372" fill="black"/>
<circle id="Ellipse 4885" cx="290.238" cy="210.208" r="3.00372" fill="black"/>
<circle id="Ellipse 4886" cx="306.258" cy="210.208" r="3.00372" fill="black"/>
<circle id="Ellipse 4887" cx="316.273" cy="221.222" r="3.00372" fill="black"/>
<circle id="Ellipse 4888" cx="326.285" cy="232.235" r="3.00372" fill="black"/>
<circle id="Ellipse 4889" cx="299.25" cy="223.224" r="3.00372" fill="black"/>
<circle id="Ellipse 4891" cx="283.234" cy="224.225" r="3.00372" fill="black"/>
<circle id="Ellipse 4891_2" cx="268.215" cy="218.218" r="3.00372" fill="black"/>
<circle id="Ellipse 4892" cx="253.195" cy="217.217" r="3.00372" fill="black"/>
<circle id="Ellipse 4893" cx="242.18" cy="207.204" r="3.00372" fill="black"/>
<circle id="Ellipse 4894" cx="231.164" cy="196.191" r="3.00372" fill="black"/>
<circle id="Ellipse 4895" cx="235.172" cy="180.171" r="3.00372" fill="black"/>
<circle id="Ellipse 4896" cx="221.156" cy="184.176" r="3.00372" fill="black"/>
<circle id="Ellipse 4897" cx="215.148" cy="197.192" r="3.00372" fill="black"/>
<circle id="Ellipse 4898" cx="227.16" cy="210.208" r="3.00372" fill="black"/>
<circle id="Ellipse 4899" cx="223.156" cy="223.224" r="3.00372" fill="black"/>
<circle id="Ellipse 4900" cx="211.144" cy="210.208" r="3.00372" fill="black"/>
<circle id="Ellipse 4901" cx="207.137" cy="223.224" r="3.00372" fill="black"/>
<circle id="Ellipse 4902" cx="239.176" cy="223.224" r="3.00372" fill="black"/>
<circle id="Ellipse 4903" cx="256.199" cy="230.233" r="3.00372" fill="black"/>
<circle id="Ellipse 4904" cx="270.215" cy="233.237" r="3.00372" fill="black"/>
<circle id="Ellipse 4905" cx="281.23" cy="241.247" r="3.00372" fill="black"/>
<circle id="Ellipse 4906" cx="262.207" cy="246.253" r="3.00372" fill="black"/>
<circle id="Ellipse 4915" cx="276.222" cy="254.263" r="3.00372" fill="black"/>
<circle id="Ellipse 4916" cx="264.207" cy="262.273" r="3.00372" fill="black"/>
<circle id="Ellipse 4917" cx="252.191" cy="267.279" r="3.00372" fill="black"/>
<circle id="Ellipse 4918" cx="238.176" cy="265.276" r="3.00372" fill="black"/>
<circle id="Ellipse 4919" cx="223.156" cy="265.276" r="3.00372" fill="black"/>
<circle id="Ellipse 4920" cx="209.14" cy="265.276" r="3.00372" fill="black"/>
<circle id="Ellipse 4921" cx="197.125" cy="262.273" r="3.00372" fill="black"/>
<circle id="Ellipse 4922" cx="196.125" cy="276.29" r="3.00372" fill="black"/>
<circle id="Ellipse 4923" cx="212.144" cy="280.295" r="3.00372" fill="black"/>
<circle id="Ellipse 4924" cx="229.164" cy="278.292" r="3.00372" fill="black"/>
<circle id="Ellipse 4925" cx="247.187" cy="279.294" r="3.00372" fill="black"/>
<circle id="Ellipse 4926" cx="261.203" cy="280.295" r="3.00372" fill="black"/>
<circle id="Ellipse 4927" cx="275.222" cy="273.286" r="3.00372" fill="black"/>
<circle id="Ellipse 4928" cx="287.238" cy="264.275" r="3.00372" fill="black"/>
<circle id="Ellipse 4929" cx="292.242" cy="251.259" r="3.00372" fill="black"/>
<circle id="Ellipse 4930" cx="295.246" cy="236.24" r="3.00372" fill="black"/>
<circle id="Ellipse 4931" cx="310.265" cy="234.238" r="3.00372" fill="black"/>
<circle id="Ellipse 4932" cx="320.277" cy="245.252" r="3.00372" fill="black"/>
<circle id="Ellipse 4933" cx="306.258" cy="250.258" r="3.00372" fill="black"/>
<circle id="Ellipse 4934" cx="317.273" cy="263.274" r="3.00372" fill="black"/>
<circle id="Ellipse 4935" cx="329.289" cy="256.265" r="3.00372" fill="black"/>
<circle id="3_DOT" cx="303.254" cy="265.276" r="3.00372" fill="#FF0000"/>
<circle id="Ellipse 4937" cx="320.277" cy="278.292" r="3.00372" fill="black"/>
<circle id="Ellipse 4942" cx="325.285" cy="293.311" r="3.00372" fill="black"/>
<circle id="Ellipse 4943" cx="312.265" cy="295.314" r="3.00372" fill="black"/>
<circle id="Ellipse 4944" cx="298.25" cy="293.311" r="3.00372" fill="black"/>
<circle id="Ellipse 4945" cx="285.234" cy="290.307" r="3.00372" fill="black"/>
<circle id="Ellipse 4946" cx="272.219" cy="288.305" r="3.00372" fill="black"/>
<circle id="Ellipse 4947" cx="262.207" cy="298.317" r="3.00372" fill="black"/>
<circle id="Ellipse 4948" cx="276.222" cy="303.323" r="3.00372" fill="black"/>
<circle id="Ellipse 4949" cx="290.238" cy="306.327" r="3.00372" fill="black"/>
<circle id="Ellipse 4950" cx="305.258" cy="310.332" r="3.00372" fill="black"/>
<circle id="Ellipse 4951" cx="321.277" cy="309.331" r="3.00372" fill="black"/>
<circle id="Ellipse 4952" cx="313.269" cy="325.351" r="3.00372" fill="black"/>
<circle id="Ellipse 4953" cx="296.246" cy="321.346" r="3.00372" fill="black"/>
<circle id="Ellipse 4954" cx="280.23" cy="318.342" r="3.00372" fill="black"/>
<circle id="Ellipse 4955" cx="266.211" cy="314.337" r="3.00372" fill="black"/>
<circle id="Ellipse 4956" cx="269.215" cy="331.358" r="3.00372" fill="black"/>
<circle id="Ellipse 4957" cx="283.234" cy="332.359" r="3.00372" fill="black"/>
<circle id="Ellipse 4958" cx="298.25" cy="336.364" r="3.00372" fill="black"/>
<circle id="Ellipse 4959" cx="311.265" cy="343.373" r="3.00372" fill="black"/>
<circle id="Ellipse 4960" cx="324.281" cy="351.383" r="3.00372" fill="black"/>
<circle id="Ellipse 4961" cx="325.285" cy="366.401" r="3.00372" fill="black"/>
<circle id="Ellipse 4963" cx="309.262" cy="362.397" r="3.00372" fill="black"/>
<circle id="Ellipse 4963_2" cx="297.246" cy="354.387" r="3.00372" fill="black"/>
<circle id="Ellipse 4964" cx="284.234" cy="347.378" r="3.00372" fill="black"/>
<circle id="Ellipse 4965" cx="269.215" cy="348.379" r="3.00372" fill="black"/>
<circle id="Ellipse 4966" cx="280.23" cy="361.395" r="3.00372" fill="black"/>
<circle id="Ellipse 4967" cx="293.242" cy="369.405" r="3.00372" fill="black"/>
<circle id="Ellipse 4968" cx="304.258" cy="378.416" r="3.00372" fill="black"/>
<circle id="Ellipse 4969" cx="318.273" cy="379.418" r="3.00372" fill="black"/>
<circle id="Ellipse 4970" cx="324.281" cy="392.434" r="3.00372" fill="black"/>
<circle id="Ellipse 4970_2" cx="307.262" cy="394.436" r="3.00372" fill="black"/>
<circle id="Ellipse 4972" cx="291.238" cy="389.43" r="3.00372" fill="black"/>
<circle id="Ellipse 4973" cx="278.226" cy="378.416" r="3.00372" fill="black"/>
<circle id="Ellipse 4974" cx="265.211" cy="367.403" r="3.00372" fill="black"/>
<circle id="Ellipse 4975" cx="263.207" cy="384.424" r="3.00372" fill="black"/>
<circle id="Ellipse 5128" cx="249.187" cy="378.416" r="3.00372" fill="black"/>
<circle id="Ellipse 5129" cx="250.191" cy="364.399" r="3.00372" fill="black"/>
<circle id="Ellipse 5130" cx="254.195" cy="352.384" r="3.00372" fill="black"/>
<circle id="Ellipse 5131" cx="255.195" cy="338.367" r="3.00372" fill="black"/>
<circle id="Ellipse 5132" cx="255.195" cy="323.348" r="3.00372" fill="black"/>
<circle id="Ellipse 5133" cx="252.191" cy="308.33" r="3.00372" fill="black"/>
<circle id="Ellipse 5134" cx="250.191" cy="292.31" r="3.00372" fill="black"/>
<circle id="Ellipse 5135" cx="224.156" cy="291.308" r="3.00372" fill="black"/>
<circle id="Ellipse 5136" cx="206.137" cy="296.315" r="3.00372" fill="black"/>
<circle id="Ellipse 5137" cx="192.117" cy="288.305" r="3.00372" fill="black"/>
<circle id="Ellipse 5138" cx="189.113" cy="302.322" r="3.00372" fill="black"/>
<circle id="Ellipse 5139" cx="200.129" cy="313.336" r="3.00372" fill="black"/>
<circle id="Ellipse 5140" cx="214.148" cy="318.342" r="3.00372" fill="black"/>
<circle id="Ellipse 5141" cx="219.152" cy="305.326" r="3.00372" fill="black"/>
<circle id="Ellipse 5142" cx="184.109" cy="315.338" r="3.00372" fill="black"/>
<circle id="Ellipse 5143" cx="193.121" cy="330.357" r="3.00372" fill="black"/>
<circle id="Ellipse 5144" cx="208.14" cy="331.358" r="3.00372" fill="black"/>
<circle id="Ellipse 5145" cx="202.133" cy="346.377" r="3.00372" fill="black"/>
<circle id="Ellipse 5146" cx="185.109" cy="345.375" r="3.00372" fill="black"/>
<circle id="Ellipse 5147" cx="177.097" cy="328.354" r="3.00372" fill="black"/>
<circle id="Ellipse 5148" cx="170.09" cy="340.369" r="3.00372" fill="black"/>
<circle id="Ellipse 5149" cx="163.082" cy="352.384" r="3.00372" fill="black"/>
<circle id="Ellipse 5150" cx="177.097" cy="360.394" r="3.00372" fill="black"/>
<circle id="Ellipse 5151" cx="195.121" cy="361.395" r="3.00372" fill="black"/>
<circle id="Ellipse 5152" cx="186.109" cy="376.414" r="3.00372" fill="black"/>
<circle id="Ellipse 5153" cx="170.09" cy="377.415" r="3.00372" fill="black"/>
<circle id="Ellipse 5154" cx="159.074" cy="365.4" r="3.00372" fill="black"/>
<circle id="Ellipse 5155" cx="153.07" cy="380.419" r="3.00372" fill="black"/>
<circle id="Ellipse 5156" cx="160.078" cy="391.432" r="3.00372" fill="black"/>
<circle id="Ellipse 5158" cx="148.066" cy="400.444" r="3.00372" fill="black"/>
<circle id="Ellipse 5159" cx="167.086" cy="404.449" r="3.00372" fill="black"/>
<circle id="Ellipse 5160" cx="159.074" cy="418.466" r="3.00372" fill="black"/>
<circle id="Ellipse 5161" cx="143.058" cy="415.462" r="3.00372" fill="black"/>
<circle id="Ellipse 5162" cx="131.043" cy="425.474" r="3.00372" fill="black"/>
<circle id="Ellipse 5163" cx="116.023" cy="428.478" r="3.00372" fill="black"/>
<circle id="Ellipse 5164" cx="101.004" cy="436.488" r="3.00372" fill="black"/>
<circle id="Ellipse 5165" cx="151.07" cy="431.482" r="3.00372" fill="black"/>
<circle id="Ellipse 5166" cx="134.047" cy="438.491" r="3.00372" fill="black"/>
<circle id="Ellipse 5168" cx="117.027" cy="444.498" r="3.00372" fill="black"/>
<circle id="Ellipse 5169" cx="133.047" cy="452.508" r="3.00372" fill="black"/>
<circle id="Ellipse 5170" cx="144.058" cy="461.519" r="3.00372" fill="black"/>
<circle id="Ellipse 5171" cx="134.047" cy="472.533" r="3.00372" fill="black"/>
<circle id="Ellipse 5172" cx="123.035" cy="460.518" r="3.00372" fill="black"/>
<circle id="Ellipse 5173" cx="108.015" cy="457.514" r="3.00372" fill="black"/>
<circle id="Ellipse 5174" cx="99.0037" cy="469.529" r="3.00372" fill="black"/>
<circle id="Ellipse 5175" cx="99.0037" cy="482.545" r="3.00372" fill="black"/>
<circle id="Ellipse 5176" cx="115.023" cy="473.534" r="3.00372" fill="black"/>
<circle id="Ellipse 5177" cx="112.019" cy="487.551" r="3.00372" fill="black"/>
<circle id="Ellipse 5178" cx="127.039" cy="485.549" r="3.00372" fill="black"/>
<circle id="Ellipse 5167" cx="149.066" cy="446.501" r="3.00372" fill="black"/>
<circle id="Ellipse 5157" cx="177.097" cy="391.432" r="3.00372" fill="black"/>
<circle id="Ellipse 4976" cx="276.222" cy="395.437" r="3.00372" fill="black"/>
<circle id="Ellipse 4977" cx="260.203" cy="401.445" r="3.00372" fill="black"/>
<circle id="Ellipse 4978" cx="290.238" cy="406.451" r="3.00372" fill="black"/>
<circle id="Ellipse 4979" cx="306.258" cy="409.455" r="3.00372" fill="black"/>
<circle id="Ellipse 4980" cx="273.219" cy="412.458" r="3.00372" fill="black"/>
<circle id="Ellipse 4981" cx="283.234" cy="423.472" r="3.00372" fill="black"/>
<circle id="Ellipse 5004" cx="270.215" cy="431.482" r="3.00372" fill="black"/>
<circle id="Ellipse 5005" cx="257.199" cy="418.466" r="3.00372" fill="black"/>
<circle id="Ellipse 5006" cx="244.183" cy="406.451" r="3.00372" fill="black"/>
<circle id="Ellipse 5007" cx="246.183" cy="391.432" r="3.00372" fill="black"/>
<circle id="Ellipse 5008" cx="241.18" cy="420.468" r="3.00372" fill="black"/>
<circle id="Ellipse 5009" cx="254.195" cy="435.487" r="3.00372" fill="black"/>
<circle id="Ellipse 5010" cx="238.176" cy="435.487" r="3.00372" fill="black"/>
<circle id="Ellipse 5011" cx="239.176" cy="448.503" r="3.00372" fill="black"/>
<circle id="Ellipse 5013" cx="234.168" cy="461.519" r="3.00372" fill="black"/>
<circle id="Ellipse 5014" cx="249.187" cy="464.523" r="3.00372" fill="black"/>
<circle id="Ellipse 5015" cx="266.211" cy="467.527" r="3.00372" fill="black"/>
<circle id="Ellipse 5016" cx="266.211" cy="488.553" r="3.00372" fill="black"/>
<circle id="Ellipse 5017" cx="253.195" cy="478.54" r="3.00372" fill="black"/>
<circle id="Ellipse 5018" cx="236.172" cy="476.538" r="3.00372" fill="black"/>
<circle id="Ellipse 5019" cx="233.168" cy="490.555" r="3.00372" fill="black"/>
<circle id="Ellipse 5020" cx="248.187" cy="492.557" r="3.00372" fill="black"/>
<circle id="Ellipse 5021" cx="284.234" cy="494.56" r="3.00372" fill="black"/>
<circle id="Ellipse 5022" cx="270.215" cy="504.573" r="3.00372" fill="black"/>
<circle id="Ellipse 5023" cx="254.195" cy="505.574" r="3.00372" fill="black"/>
<circle id="Ellipse 5024" cx="235.172" cy="504.573" r="3.00372" fill="black"/>
<circle id="Ellipse 5025" cx="239.176" cy="517.589" r="3.00372" fill="black"/>
<circle id="Ellipse 5026" cx="258.199" cy="518.59" r="3.00372" fill="black"/>
<circle id="Ellipse 5027" cx="273.219" cy="520.592" r="3.00372" fill="black"/>
<circle id="Ellipse 5028" cx="286.238" cy="511.581" r="3.00372" fill="black"/>
<circle id="Ellipse 5029" cx="299.25" cy="504.573" r="3.00372" fill="black"/>
<circle id="Ellipse 5030" cx="318.273" cy="510.58" r="3.00372" fill="black"/>
<circle id="Ellipse 5031" cx="298.25" cy="521.594" r="3.00372" fill="black"/>
<circle id="Ellipse 5032" cx="285.234" cy="529.603" r="3.00372" fill="black"/>
<circle id="Ellipse 5033" cx="298.25" cy="539.616" r="3.00372" fill="black"/>
<circle id="Ellipse 5034" cx="283.234" cy="544.622" r="3.00372" fill="black"/>
<circle id="4_DOT" cx="268.215" cy="534.61" r="3.00372" fill="#FF0000"/>
<circle id="Ellipse 5036" cx="252.191" cy="531.606" r="3.00372" fill="black"/>
<circle id="Ellipse 5037" cx="256.199" cy="546.625" r="3.00372" fill="black"/>
<circle id="Ellipse 5038" cx="269.215" cy="549.628" r="3.00372" fill="black"/>
<circle id="Ellipse 5039" cx="295.246" cy="555.636" r="3.00372" fill="black"/>
<circle id="Ellipse 5040" cx="280.23" cy="559.641" r="3.00372" fill="black"/>
<circle id="Ellipse 5041" cx="291.238" cy="571.656" r="3.00372" fill="black"/>
<circle id="Ellipse 5042" cx="275.222" cy="571.656" r="3.00372" fill="black"/>
<circle id="Ellipse 5043" cx="261.203" cy="562.644" r="3.00372" fill="black"/>
<circle id="Ellipse 5044" cx="244.183" cy="557.638" r="3.00372" fill="black"/>
<circle id="Ellipse 5045" cx="241.18" cy="543.621" r="3.00372" fill="black"/>
<circle id="Ellipse 5046" cx="237.172" cy="529.603" r="3.00372" fill="black"/>
<circle id="Ellipse 5047" cx="246.183" cy="570.654" r="3.00372" fill="black"/>
<circle id="Ellipse 5048" cx="260.203" cy="576.662" r="3.00372" fill="black"/>
<circle id="Ellipse 5049" cx="272.219" cy="583.67" r="3.00372" fill="black"/>
<circle id="Ellipse 5050" cx="287.238" cy="585.673" r="3.00372" fill="black"/>
<circle id="Ellipse 5051" cx="286.238" cy="601.693" r="3.00372" fill="black"/>
<circle id="Ellipse 5052" cx="276.222" cy="594.684" r="3.00372" fill="black"/>
<circle id="Ellipse 5053" cx="268.215" cy="604.696" r="3.00372" fill="black"/>
<circle id="Ellipse 5054" cx="260.203" cy="591.68" r="3.00372" fill="black"/>
<circle id="Ellipse 5055" cx="247.187" cy="583.67" r="3.00372" fill="black"/>
<circle id="Ellipse 5056" cx="247.187" cy="596.686" r="3.00372" fill="black"/>
<circle id="Ellipse 5057" cx="256.199" cy="607.7" r="3.00372" fill="black"/>
<circle id="Ellipse 5058" cx="245.183" cy="609.702" r="3.00372" fill="black"/>
<circle id="Ellipse 5059" cx="278.226" cy="612.706" r="3.00372" fill="black"/>
<circle id="Ellipse 5060" cx="289.242" cy="617.712" r="3.00372" fill="black"/>
<circle id="Ellipse 5061" cx="278.226" cy="626.724" r="3.00372" fill="black"/>
<circle id="Ellipse 5062" cx="267.211" cy="618.714" r="3.00372" fill="black"/>
<circle id="Ellipse 5063" cx="255.195" cy="622.719" r="3.00372" fill="black"/>
<circle id="Ellipse 5064" cx="243.18" cy="620.716" r="3.00372" fill="black"/>
<circle id="Ellipse 5065" cx="243.18" cy="632.731" r="3.00372" fill="black"/>
<circle id="Ellipse 5066" cx="255.195" cy="636.736" r="3.00372" fill="black"/>
<circle id="Ellipse 5067" cx="267.211" cy="631.73" r="3.00372" fill="black"/>
<circle id="Ellipse 5068" cx="279.226" cy="639.74" r="3.00372" fill="black"/>
<circle id="Ellipse 5069" cx="290.238" cy="633.732" r="3.00372" fill="black"/>
<circle id="Ellipse 5070" cx="290.238" cy="647.75" r="3.00372" fill="black"/>
<circle id="Ellipse 5071" cx="279.226" cy="653.757" r="3.00372" fill="black"/>
<circle id="Ellipse 5072" cx="268.215" cy="645.747" r="3.00372" fill="black"/>
<circle id="Ellipse 5073" cx="255.195" cy="649.752" r="3.00372" fill="black"/>
<circle id="Ellipse 5074" cx="244.183" cy="644.746" r="3.00372" fill="black"/>
<circle id="Ellipse 5075" cx="244.183" cy="657.762" r="3.00372" fill="black"/>
<circle id="Ellipse 5076" cx="256.199" cy="662.768" r="3.00372" fill="black"/>
<circle id="Ellipse 5077" cx="268.215" cy="657.762" r="3.00372" fill="black"/>
<circle id="Ellipse 5078" cx="279.226" cy="668.776" r="3.00372" fill="black"/>
<circle id="Ellipse 5079" cx="289.242" cy="663.769" r="3.00372" fill="black"/>
<circle id="Ellipse 5080" cx="266.211" cy="671.779" r="3.00372" fill="black"/>
<circle id="Ellipse 5081" cx="256.199" cy="675.784" r="3.00372" fill="black"/>
<circle id="Ellipse 5082" cx="245.183" cy="670.778" r="3.00372" fill="black"/>
<circle id="Ellipse 5083" cx="247.187" cy="684.795" r="3.00372" fill="black"/>
<circle id="Ellipse 5084" cx="261.203" cy="687.799" r="3.00372" fill="black"/>
<circle id="Ellipse 5085" cx="274.222" cy="680.791" r="3.00372" fill="black"/>
<circle id="Ellipse 5086" cx="288.238" cy="679.789" r="3.00372" fill="black"/>
<circle id="Ellipse 5087" cx="287.238" cy="695.809" r="3.00372" fill="black"/>
<circle id="Ellipse 5088" cx="274.222" cy="692.805" r="3.00372" fill="black"/>
<circle id="Ellipse 5089" cx="262.207" cy="700.815" r="3.00372" fill="black"/>
<circle id="Ellipse 5090" cx="250.191" cy="696.81" r="3.00372" fill="black"/>
<circle id="Ellipse 5091" cx="276.222" cy="706.823" r="3.00372" fill="black"/>
<circle id="Ellipse 5092" cx="288.238" cy="711.829" r="3.00372" fill="black"/>
<circle id="Ellipse 5093" cx="265.211" cy="714.833" r="3.00372" fill="black"/>
<circle id="Ellipse 5094" cx="252.191" cy="710.828" r="3.00372" fill="black"/>
<circle id="Ellipse 5095" cx="277.226" cy="720.84" r="3.00372" fill="black"/>
<circle id="Ellipse 5096" cx="288.238" cy="727.849" r="3.00372" fill="black"/>
<circle id="Ellipse 5097" cx="278.226" cy="736.86" r="3.00372" fill="black"/>
<circle id="Ellipse 5098" cx="267.211" cy="730.852" r="3.00372" fill="black"/>
<circle id="Ellipse 5099" cx="254.195" cy="724.845" r="3.00372" fill="black"/>
<circle id="Ellipse 5100" cx="289.242" cy="744.87" r="3.00372" fill="black"/>
<circle id="Ellipse 5101" cx="290.238" cy="762.892" r="3.00372" fill="black"/>
<circle id="Ellipse 5102" cx="279.226" cy="754.882" r="3.00372" fill="black"/>
<circle id="Ellipse 5103" cx="269.215" cy="746.872" r="3.00372" fill="black"/>
<circle id="Ellipse 5104" cx="256.199" cy="739.864" r="3.00372" fill="black"/>
<circle id="Ellipse 5105" cx="258.199" cy="755.883" r="3.00372" fill="black"/>
<circle id="Ellipse 5106" cx="270.215" cy="763.893" r="3.00372" fill="black"/>
<circle id="Ellipse 5107" cx="280.23" cy="771.903" r="3.00372" fill="black"/>
<circle id="Ellipse 5108" cx="292.242" cy="779.913" r="3.00372" fill="black"/>
<circle id="Ellipse 5109" cx="294.242" cy="795.933" r="3.00372" fill="black"/>
<circle id="Ellipse 5110" cx="281.23" cy="789.926" r="3.00372" fill="black"/>
<circle id="Ellipse 5111" cx="269.215" cy="780.914" r="3.00372" fill="black"/>
<circle id="Ellipse 5112" cx="259.203" cy="772.905" r="3.00372" fill="black"/>
<circle id="Ellipse 5113" cx="258.199" cy="788.924" r="3.00372" fill="black"/>
<circle id="Ellipse 5114" cx="270.215" cy="797.935" r="3.00372" fill="black"/>
<circle id="Ellipse 5115" cx="286.238" cy="806.947" r="3.00372" fill="black"/>
<circle id="Ellipse 5116" cx="279.226" cy="820.964" r="3.00372" fill="black"/>
<circle id="Ellipse 5117" cx="269.215" cy="810.951" r="3.00372" fill="black"/>
<circle id="Ellipse 5118" cx="254.195" cy="803.943" r="3.00372" fill="black"/>
<circle id="Ellipse 5119" cx="245.183" cy="815.958" r="3.00372" fill="black"/>
<circle id="Ellipse 5122" cx="236.172" cy="827.973" r="3.00372" fill="black"/>
<circle id="Ellipse 5123" cx="250.191" cy="830.976" r="3.00372" fill="black"/>
<circle id="Ellipse 5124" cx="263.207" cy="840.989" r="3.00372" fill="black"/>
<circle id="Ellipse 5125" cx="250.191" cy="845.995" r="3.00372" fill="black"/>
<circle id="Ellipse 5126" cx="237.172" cy="845.995" r="3.00372" fill="black"/>
<circle id="Ellipse 5127" cx="226.16" cy="838.986" r="3.00372" fill="black"/>
<circle id="Ellipse 5120" cx="261.203" cy="822.966" r="3.00372" fill="black"/>
<circle id="Ellipse 5121" cx="274.222" cy="833.98" r="3.00372" fill="black"/>
<circle id="Ellipse 5012" cx="256.199" cy="452.508" r="3.00372" fill="black"/>
<circle id="Ellipse 4982" cx="297.246" cy="424.473" r="3.00372" fill="black"/>
<circle id="5_DOT" cx="312.265" cy="422.471" r="3.00372" fill="#FF0000"/>
<circle id="Ellipse 4984" cx="328.289" cy="420.468" r="3.00372" fill="black"/>
<circle id="Ellipse 4985" cx="322.281" cy="406.451" r="3.00372" fill="black"/>
<circle id="Ellipse 4986" cx="336.297" cy="433.484" r="3.00372" fill="black"/>
<circle id="Ellipse 4987" cx="319.277" cy="435.487" r="3.00372" fill="black"/>
<circle id="Ellipse 4988" cx="303.254" cy="438.491" r="3.00372" fill="black"/>
<circle id="Ellipse 4989" cx="328.289" cy="446.501" r="3.00372" fill="black"/>
<circle id="6_DOT" cx="314.269" cy="451.507" r="3.00372" fill="#FF0000"/>
<circle id="Ellipse 4991" cx="296.246" cy="453.509" r="3.00372" fill="black"/>
<circle id="Ellipse 4993" cx="307.262" cy="464.523" r="3.00372" fill="black"/>
<circle id="Ellipse 4994" cx="322.281" cy="467.527" r="3.00372" fill="black"/>
<circle id="Ellipse 4995" cx="328.289" cy="482.545" r="3.00372" fill="black"/>
<circle id="Ellipse 4996" cx="313.269" cy="479.542" r="3.00372" fill="black"/>
<circle id="Ellipse 4997" cx="317.273" cy="495.561" r="3.00372" fill="black"/>
<circle id="Ellipse 4998" cx="333.293" cy="496.563" r="3.00372" fill="black"/>
<circle id="Ellipse 4999" cx="298.25" cy="487.551" r="3.00372" fill="black"/>
<circle id="Ellipse 5000" cx="295.246" cy="471.532" r="3.00372" fill="black"/>
<circle id="Ellipse 5001" cx="280.23" cy="478.54" r="3.00372" fill="black"/>
<circle id="Ellipse 5002" cx="281.23" cy="460.518" r="3.00372" fill="black"/>
<circle id="Ellipse 5003" cx="271.219" cy="448.503" r="3.00372" fill="black"/>
<circle id="Ellipse 4992" cx="285.234" cy="440.493" r="3.00372" fill="black"/>
<circle id="Ellipse 4938" cx="332.293" cy="269.281" r="3.00372" fill="black"/>
<circle id="Ellipse 4941" cx="344.308" cy="258.268" r="3.00372" fill="black"/>
<circle id="Ellipse 4939" cx="307.262" cy="280.295" r="3.00372" fill="black"/>
<circle id="Ellipse 4940" cx="292.242" cy="277.291" r="3.00372" fill="black"/>
<circle id="Ellipse 4907" cx="245.183" cy="239.244" r="3.00372" fill="black"/>
<circle id="Ellipse 4908" cx="230.164" cy="237.242" r="3.00372" fill="black"/>
<circle id="Ellipse 4909" cx="216.148" cy="237.242" r="3.00372" fill="black"/>
<circle id="Ellipse 4910" cx="203.133" cy="236.24" r="3.00372" fill="black"/>
<circle id="Ellipse 4911" cx="201.129" cy="249.256" r="3.00372" fill="black"/>
<circle id="Ellipse 4912" cx="217.152" cy="251.259" r="3.00372" fill="black"/>
<circle id="Ellipse 4914" cx="233.168" cy="251.259" r="3.00372" fill="black"/>
<circle id="Ellipse 4914_2" cx="249.187" cy="253.262" r="3.00372" fill="black"/>
<circle id="Ellipse 4873" cx="292.242" cy="168.156" r="3.00372" fill="black"/>
<circle id="Ellipse 4857_3" cx="306.258" cy="61.0235" r="3.00372" fill="black"/>
<circle id="Ellipse 4843" cx="333.293" cy="109.083" r="3.00372" fill="black"/>
<circle id="Ellipse 4827" cx="332.293" cy="137.118" r="3.00372" fill="black"/>
<circle id="Ellipse 4828" cx="316.273" cy="158.144" r="3.00372" fill="black"/>
<circle id="Ellipse 4829" cx="328.289" cy="191.185" r="3.00372" fill="black"/>
<circle id="Ellipse 4830" cx="344.308" cy="194.188" r="3.00372" fill="black"/>
<circle id="Ellipse 4831" cx="336.297" cy="206.203" r="3.00372" fill="black"/>
<circle id="Ellipse 4832" cx="323.281" cy="208.206" r="3.00372" fill="black"/>
<circle id="Ellipse 4833" cx="333.293" cy="220.221" r="3.00372" fill="black"/>
<circle id="Ellipse 4834" cx="314.269" cy="198.193" r="3.00372" fill="black"/>
<circle id="Ellipse 4835" cx="312.265" cy="184.176" r="3.00372" fill="black"/>
<circle id="Ellipse 4836" cx="307.262" cy="170.159" r="3.00372" fill="black"/>
<circle id="Ellipse 4815" cx="364.332" cy="217.217" r="3.00372" fill="black"/>
<circle id="Ellipse 4817" cx="348.312" cy="220.221" r="3.00372" fill="black"/>
<circle id="Ellipse 4817_2" cx="352.32" cy="245.252" r="3.00372" fill="black"/>
<circle id="Ellipse 4821" cx="336.297" cy="244.25" r="3.00372" fill="black"/>
<circle id="Ellipse 4819" cx="343.308" cy="232.235" r="3.00372" fill="black"/>
<circle id="Ellipse 4818" cx="351.316" cy="207.204" r="3.00372" fill="black"/>
<circle id="Ellipse 4816" cx="359.324" cy="231.234" r="3.00372" fill="black"/>
<circle id="Ellipse 4805" cx="403.379" cy="200.196" r="3.00372" fill="black"/>
<circle id="Ellipse 4797" cx="374.344" cy="230.233" r="3.00372" fill="black"/>
<circle id="Ellipse 4798" cx="367.336" cy="245.252" r="3.00372" fill="black"/>
<circle id="Ellipse 4776" cx="350.316" cy="461.519" r="3.00372" fill="black"/>
<circle id="Ellipse 4679" cx="384.355" cy="498.565" r="3.00372" fill="black"/>
<circle id="Ellipse 4680" cx="384.355" cy="482.545" r="3.00372" fill="black"/>
<circle id="Ellipse 4681" cx="372.34" cy="492.557" r="3.00372" fill="black"/>
<circle id="Ellipse 4682" cx="370.34" cy="477.539" r="3.00372" fill="black"/>
<circle id="Ellipse 4683" cx="382.355" cy="466.525" r="3.00372" fill="black"/>
<circle id="Ellipse 4684" cx="380.351" cy="451.507" r="3.00372" fill="black"/>
<circle id="Ellipse 4685" cx="367.336" cy="462.52" r="3.00372" fill="black"/>
<circle id="Ellipse 4686" cx="360.324" cy="450.505" r="3.00372" fill="black"/>
<circle id="Ellipse 4687" cx="367.336" cy="439.492" r="3.00372" fill="black"/>
<circle id="Ellipse 4688" cx="379.351" cy="434.486" r="3.00372" fill="black"/>
<circle id="Ellipse 4689" cx="376.347" cy="419.467" r="3.00372" fill="black"/>
<circle id="Ellipse 4690" cx="373.344" cy="404.449" r="3.00372" fill="black"/>
<circle id="Ellipse 4693" cx="370.34" cy="389.43" r="3.00372" fill="black"/>
<circle id="Ellipse 4694" cx="367.336" cy="373.41" r="3.00372" fill="black"/>
<circle id="Ellipse 4695" cx="353.32" cy="383.422" r="3.00372" fill="black"/>
<circle id="Ellipse 4696" cx="355.324" cy="398.441" r="3.00372" fill="black"/>
<circle id="Ellipse 4697" cx="365.332" cy="357.39" r="3.00372" fill="black"/>
<circle id="Ellipse 4698" cx="351.316" cy="368.404" r="3.00372" fill="black"/>
<circle id="Ellipse 4699" cx="351.316" cy="351.383" r="3.00372" fill="black"/>
<circle id="Ellipse 4700" cx="361.328" cy="340.369" r="3.00372" fill="black"/>
<circle id="Ellipse 4701" cx="345.308" cy="331.358" r="3.00372" fill="black"/>
<circle id="Ellipse 4702" cx="360.324" cy="324.349" r="3.00372" fill="black"/>
<circle id="Ellipse 4703" cx="365.332" cy="309.331" r="3.00372" fill="black"/>
<circle id="Ellipse 4704" cx="367.336" cy="292.31" r="3.00372" fill="black"/>
<circle id="Ellipse 4705" cx="352.32" cy="301.321" r="3.00372" fill="black"/>
<circle id="Ellipse 4707" cx="351.316" cy="288.305" r="3.00372" fill="black"/>
<circle id="Ellipse 4708" cx="361.328" cy="276.29" r="3.00372" fill="black"/>
<circle id="Ellipse 4709" cx="374.344" cy="275.289" r="3.00372" fill="black"/>
<circle id="Ellipse 4710" cx="388.363" cy="268.28" r="3.00372" fill="black"/>
<circle id="Ellipse 4711" cx="403.379" cy="258.268" r="3.00372" fill="black"/>
<circle id="Ellipse 4712" cx="417.398" cy="252.26" r="3.00372" fill="black"/>
<circle id="Ellipse 4713" cx="418.398" cy="265.276" r="3.00372" fill="black"/>
<circle id="Ellipse 4714" cx="401.379" cy="272.285" r="3.00372" fill="black"/>
<circle id="Ellipse 4715" cx="389.363" cy="283.299" r="3.00372" fill="black"/>
<circle id="Ellipse 4716" cx="401.379" cy="289.306" r="3.00372" fill="black"/>
<circle id="Ellipse 4717" cx="412.39" cy="280.295" r="3.00372" fill="black"/>
<circle id="Ellipse 4718" cx="423.406" cy="277.291" r="3.00372" fill="black"/>
<circle id="Ellipse 4719" cx="425.406" cy="290.307" r="3.00372" fill="black"/>
<circle id="Ellipse 4720" cx="414.394" cy="295.314" r="3.00372" fill="black"/>
<circle id="Ellipse 4721" cx="406.383" cy="305.326" r="3.00372" fill="black"/>
<circle id="Ellipse 4722" cx="393.367" cy="300.32" r="3.00372" fill="black"/>
<circle id="Ellipse 4723" cx="400.375" cy="316.339" r="3.00372" fill="black"/>
<circle id="Ellipse 4724" cx="420.402" cy="310.332" r="3.00372" fill="black"/>
<circle id="Ellipse 4725" cx="429.41" cy="302.322" r="3.00372" fill="black"/>
<circle id="Ellipse 4726" cx="434.418" cy="314.337" r="3.00372" fill="black"/>
<circle id="Ellipse 4727" cx="441.426" cy="326.352" r="3.00372" fill="black"/>
<circle id="Ellipse 4728" cx="426.406" cy="323.348" r="3.00372" fill="black"/>
<circle id="Ellipse 4729" cx="412.39" cy="321.346" r="3.00372" fill="black"/>
<circle id="Ellipse 4730" cx="406.383" cy="332.359" r="3.00372" fill="black"/>
<circle id="Ellipse 4731" cx="419.402" cy="335.363" r="3.00372" fill="black"/>
<circle id="Ellipse 4732" cx="433.414" cy="337.366" r="3.00372" fill="black"/>
<circle id="Ellipse 4733" cx="447.433" cy="338.367" r="3.00372" fill="black"/>
<circle id="Ellipse 4734" cx="454.441" cy="350.382" r="3.00372" fill="black"/>
<circle id="Ellipse 4735" cx="440.426" cy="349.38" r="3.00372" fill="black"/>
<circle id="Ellipse 4736" cx="426.406" cy="349.38" r="3.00372" fill="black"/>
<circle id="Ellipse 4737" cx="413.394" cy="347.378" r="3.00372" fill="black"/>
<circle id="Ellipse 4738" cx="420.402" cy="362.397" r="3.00372" fill="black"/>
<circle id="Ellipse 4739" cx="433.414" cy="362.397" r="3.00372" fill="black"/>
<circle id="Ellipse 4740" cx="446.433" cy="362.397" r="3.00372" fill="black"/>
<circle id="Ellipse 4741" cx="459.449" cy="362.397" r="3.00372" fill="black"/>
<circle id="Ellipse 4742" cx="461.453" cy="375.413" r="3.00372" fill="black"/>
<circle id="Ellipse 4743" cx="445.43" cy="375.413" r="3.00372" fill="black"/>
<circle id="Ellipse 4744" cx="429.41" cy="376.414" r="3.00372" fill="black"/>
<circle id="Ellipse 4745" cx="436.418" cy="387.428" r="3.00372" fill="black"/>
<circle id="Ellipse 4746" cx="451.437" cy="388.429" r="3.00372" fill="black"/>
<circle id="Ellipse 4747" cx="466.457" cy="387.428" r="3.00372" fill="black"/>
<circle id="Ellipse 4748" cx="471.465" cy="400.444" r="3.00372" fill="black"/>
<circle id="Ellipse 4749" cx="458.449" cy="401.445" r="3.00372" fill="black"/>
<circle id="Ellipse 4750" cx="444.43" cy="400.444" r="3.00372" fill="black"/>
<circle id="Ellipse 4751" cx="454.441" cy="413.46" r="3.00372" fill="black"/>
<circle id="Ellipse 4752" cx="472.465" cy="412.458" r="3.00372" fill="black"/>
<circle id="Ellipse 4753" cx="478.472" cy="424.473" r="3.00372" fill="black"/>
<circle id="Ellipse 4754" cx="461.453" cy="425.474" r="3.00372" fill="black"/>
<circle id="Ellipse 4755" cx="492.488" cy="427.477" r="3.00372" fill="black"/>
<circle id="Ellipse 4756" cx="506.508" cy="429.48" r="3.00372" fill="black"/>
<circle id="Ellipse 4757" cx="517.519" cy="437.49" r="3.00372" fill="black"/>
<circle id="Ellipse 4758" cx="498.496" cy="441.494" r="3.00372" fill="black"/>
<circle id="Ellipse 4759" cx="481.476" cy="439.492" r="3.00372" fill="black"/>
<circle id="Ellipse 4760" cx="465.457" cy="438.491" r="3.00372" fill="black"/>
<circle id="Ellipse 4761" cx="469.461" cy="451.507" r="3.00372" fill="black"/>
<circle id="Ellipse 4762" cx="486.484" cy="452.508" r="3.00372" fill="black"/>
<circle id="Ellipse 4763" cx="505.504" cy="454.511" r="3.00372" fill="black"/>
<circle id="Ellipse 4764" cx="514.515" cy="465.524" r="3.00372" fill="black"/>
<circle id="Ellipse 4765" cx="519.523" cy="478.54" r="3.00372" fill="black"/>
<circle id="Ellipse 4766" cx="503.504" cy="474.535" r="3.00372" fill="black"/>
<circle id="Ellipse 4767" cx="493.488" cy="465.524" r="3.00372" fill="black"/>
<circle id="Ellipse 4768" cx="475.469" cy="463.522" r="3.00372" fill="black"/>
<circle id="Ellipse 4769" cx="482.48" cy="475.536" r="3.00372" fill="black"/>
<circle id="Ellipse 4770" cx="492.488" cy="485.549" r="3.00372" fill="black"/>
<circle id="Ellipse 4771" cx="508.508" cy="487.551" r="3.00372" fill="black"/>
<circle id="Ellipse 4706" cx="346.312" cy="315.338" r="3.00372" fill="black"/>
<circle id="Ellipse 4691" cx="359.324" cy="412.458" r="3.00372" fill="black"/>
<circle id="Ellipse 4692" cx="362.328" cy="425.474" r="3.00372" fill="black"/>
<circle id="Ellipse 4599" cx="329.289" cy="622.719" r="3.00372" fill="black"/>
<circle id="Ellipse 4600" cx="342.305" cy="632.731" r="3.00372" fill="black"/>
<circle id="Ellipse 4601" cx="358.324" cy="632.731" r="3.00372" fill="black"/>
<circle id="Ellipse 4602" cx="372.34" cy="638.739" r="3.00372" fill="black"/>
<circle id="Ellipse 4603" cx="363.328" cy="649.752" r="3.00372" fill="black"/>
<circle id="Ellipse 4604" cx="373.344" cy="659.764" r="3.00372" fill="black"/>
<circle id="Ellipse 4605" cx="351.316" cy="648.751" r="3.00372" fill="black"/>
<circle id="Ellipse 4606" cx="338.301" cy="647.75" r="3.00372" fill="black"/>
<circle id="Ellipse 4607" cx="327.285" cy="637.737" r="3.00372" fill="black"/>
<circle id="Ellipse 4608" cx="328.289" cy="654.758" r="3.00372" fill="black"/>
<circle id="Ellipse 4609" cx="343.308" cy="664.771" r="3.00372" fill="black"/>
<circle id="Ellipse 4610" cx="358.324" cy="664.771" r="3.00372" fill="black"/>
<circle id="Ellipse 4611" cx="330.289" cy="669.777" r="3.00372" fill="black"/>
<circle id="Ellipse 4612" cx="333.293" cy="682.793" r="3.00372" fill="black"/>
<circle id="Ellipse 4613" cx="351.316" cy="680.791" r="3.00372" fill="black"/>
<circle id="Ellipse 4615" cx="342.305" cy="697.812" r="3.00372" fill="black"/>
<circle id="Ellipse 4616" cx="355.324" cy="698.813" r="3.00372" fill="black"/>
<circle id="Ellipse 4617" cx="368.336" cy="691.804" r="3.00372" fill="black"/>
<circle id="Ellipse 4618" cx="329.289" cy="696.81" r="3.00372" fill="black"/>
<circle id="Ellipse 4619" cx="332.293" cy="711.829" r="3.00372" fill="black"/>
<circle id="Ellipse 4620" cx="347.312" cy="715.834" r="3.00372" fill="black"/>
<circle id="Ellipse 4621" cx="364.332" cy="710.828" r="3.00372" fill="black"/>
<circle id="Ellipse 4622" cx="360.324" cy="727.849" r="3.00372" fill="black"/>
<circle id="Ellipse 4623" cx="345.308" cy="733.856" r="3.00372" fill="black"/>
<circle id="Ellipse 4624" cx="331.293" cy="726.847" r="3.00372" fill="black"/>
<circle id="Ellipse 4625" cx="331.293" cy="741.866" r="3.00372" fill="black"/>
<circle id="Ellipse 4626" cx="343.308" cy="753.881" r="3.00372" fill="black"/>
<circle id="Ellipse 4627" cx="357.32" cy="744.87" r="3.00372" fill="black"/>
<circle id="Ellipse 4628" cx="356.324" cy="760.89" r="3.00372" fill="black"/>
<circle id="Ellipse 4629" cx="329.289" cy="755.883" r="3.00372" fill="black"/>
<circle id="Ellipse 4630" cx="327.285" cy="769.901" r="3.00372" fill="black"/>
<circle id="Ellipse 4631" cx="340.305" cy="771.903" r="3.00372" fill="black"/>
<circle id="Ellipse 4632" cx="355.324" cy="774.907" r="3.00372" fill="black"/>
<circle id="Ellipse 4633" cx="358.324" cy="790.927" r="3.00372" fill="black"/>
<circle id="Ellipse 4634" cx="344.308" cy="785.921" r="3.00372" fill="black"/>
<circle id="Ellipse 4635" cx="326.285" cy="783.918" r="3.00372" fill="black"/>
<circle id="Ellipse 4636" cx="324.281" cy="798.937" r="3.00372" fill="black"/>
<circle id="Ellipse 4637" cx="337.301" cy="796.934" r="3.00372" fill="black"/>
<circle id="Ellipse 4638" cx="350.316" cy="802.942" r="3.00372" fill="black"/>
<circle id="Ellipse 4639" cx="364.332" cy="803.943" r="3.00372" fill="black"/>
<circle id="Ellipse 4640" cx="372.34" cy="815.958" r="3.00372" fill="black"/>
<circle id="Ellipse 4641" cx="359.324" cy="816.959" r="3.00372" fill="black"/>
<circle id="Ellipse 4642" cx="345.308" cy="814.957" r="3.00372" fill="black"/>
<circle id="Ellipse 4643" cx="332.293" cy="810.951" r="3.00372" fill="black"/>
<circle id="Ellipse 4644" cx="337.301" cy="824.969" r="3.00372" fill="black"/>
<circle id="Ellipse 4645" cx="353.32" cy="827.973" r="3.00372" fill="black"/>
<circle id="Ellipse 4646" cx="367.336" cy="831.978" r="3.00372" fill="black"/>
<circle id="Ellipse 4647" cx="379.351" cy="826.971" r="3.00372" fill="black"/>
<circle id="Ellipse 4648" cx="388.363" cy="832.979" r="3.00372" fill="black"/>
<circle id="Ellipse 4649" cx="390.363" cy="843.992" r="3.00372" fill="black"/>
<circle id="Ellipse 4650" cx="379.351" cy="844.994" r="3.00372" fill="black"/>
<circle id="Ellipse 4651" cx="367.336" cy="846.996" r="3.00372" fill="black"/>
<circle id="Ellipse 4652" cx="355.324" cy="842.991" r="3.00372" fill="black"/>
<circle id="Ellipse 4653" cx="343.308" cy="837.985" r="3.00372" fill="black"/>
<circle id="Ellipse 4614" cx="369.336" cy="675.784" r="3.00372" fill="black"/>
</g>
<g id="1_TEXT">
<path id="Metabolic disorders" d="M407.1 146H404.62V131.38H407.1L411.82 143.02L416.54 131.38H419.06V146H416.58V141.5C416.58 138.56 416.58 137.7 416.72 136.66L413 146H410.64L406.94 136.68C407.08 137.56 407.1 138.94 407.1 140.76V146ZM426.556 146.26C423.616 146.26 421.556 144.12 421.556 141.06C421.556 137.96 423.576 135.82 426.476 135.82C429.436 135.82 431.316 137.8 431.316 140.88V141.62L423.876 141.64C424.056 143.38 424.976 144.26 426.596 144.26C427.936 144.26 428.816 143.74 429.096 142.8H431.356C430.936 144.96 429.136 146.26 426.556 146.26ZM426.496 137.82C425.056 137.82 424.176 138.6 423.936 140.08H428.896C428.896 138.72 427.956 137.82 426.496 137.82ZM436.731 146H434.291V138.16H432.391V136.12H434.291V133.04H436.731V136.12H438.651V138.16H436.731V146ZM443.249 146.26C441.149 146.26 439.869 145.04 439.869 143.18C439.869 141.36 441.189 140.22 443.529 140.04L446.489 139.82V139.6C446.489 138.26 445.689 137.72 444.449 137.72C443.009 137.72 442.209 138.32 442.209 139.36H440.129C440.129 137.22 441.889 135.82 444.569 135.82C447.229 135.82 448.869 137.26 448.869 140V146H446.729L446.549 144.54C446.129 145.56 444.789 146.26 443.249 146.26ZM444.049 144.42C445.549 144.42 446.509 143.52 446.509 142V141.48L444.449 141.64C442.929 141.78 442.349 142.28 442.349 143.08C442.349 143.98 442.949 144.42 444.049 144.42ZM453.726 146H451.466V131.12H453.906V137.56C454.546 136.46 455.866 135.8 457.366 135.8C460.186 135.8 461.906 138 461.906 141.12C461.906 144.16 460.046 146.26 457.206 146.26C455.726 146.26 454.466 145.6 453.886 144.46L453.726 146ZM453.926 141.02C453.926 142.8 455.026 144.02 456.706 144.02C458.426 144.02 459.446 142.78 459.446 141.02C459.446 139.26 458.426 138 456.706 138C455.026 138 453.926 139.24 453.926 141.02ZM463.469 141.04C463.469 137.96 465.689 135.84 468.749 135.84C471.809 135.84 474.029 137.96 474.029 141.04C474.029 144.12 471.809 146.24 468.749 146.24C465.689 146.24 463.469 144.12 463.469 141.04ZM465.909 141.04C465.909 142.84 467.069 144.06 468.749 144.06C470.429 144.06 471.589 142.84 471.589 141.04C471.589 139.24 470.429 138.02 468.749 138.02C467.069 138.02 465.909 139.24 465.909 141.04ZM478.623 146H476.203V131.12H478.623V146ZM482.603 134.14C481.763 134.14 481.103 133.48 481.103 132.66C481.103 131.84 481.763 131.2 482.603 131.2C483.403 131.2 484.063 131.84 484.063 132.66C484.063 133.48 483.403 134.14 482.603 134.14ZM481.383 146V136.12H483.823V146H481.383ZM485.964 141.04C485.964 137.98 487.984 135.82 490.904 135.82C493.604 135.82 495.444 137.32 495.704 139.7H493.264C492.984 138.58 492.164 138 491.004 138C489.444 138 488.404 139.18 488.404 141.04C488.404 142.9 489.364 144.06 490.924 144.06C492.144 144.06 493.004 143.46 493.264 142.38H495.724C495.424 144.68 493.504 146.26 490.924 146.26C487.924 146.26 485.964 144.18 485.964 141.04ZM408.32 172.26C405.46 172.26 403.68 170.16 403.68 167.1C403.68 164.02 405.48 161.82 408.46 161.82C409.84 161.82 411.06 162.4 411.68 163.38V157.12H414.1V172H411.86L411.7 170.46C411.1 171.6 409.82 172.26 408.32 172.26ZM408.86 170.02C410.56 170.02 411.66 168.8 411.66 167.02C411.66 165.24 410.56 164 408.86 164C407.16 164 406.12 165.26 406.12 167.02C406.12 168.78 407.16 170.02 408.86 170.02ZM418.063 160.14C417.223 160.14 416.563 159.48 416.563 158.66C416.563 157.84 417.223 157.2 418.063 157.2C418.863 157.2 419.523 157.84 419.523 158.66C419.523 159.48 418.863 160.14 418.063 160.14ZM416.843 172V162.12H419.283V172H416.843ZM421.244 169H423.564C423.584 169.86 424.224 170.4 425.344 170.4C426.484 170.4 427.104 169.94 427.104 169.22C427.104 168.72 426.844 168.36 425.964 168.16L424.184 167.74C422.404 167.34 421.544 166.5 421.544 164.92C421.544 162.98 423.184 161.82 425.464 161.82C427.684 161.82 429.184 163.1 429.204 165.02H426.884C426.864 164.18 426.304 163.64 425.364 163.64C424.404 163.64 423.844 164.08 423.844 164.82C423.844 165.38 424.284 165.74 425.124 165.94L426.904 166.36C428.564 166.74 429.404 167.5 429.404 169.02C429.404 171.02 427.704 172.26 425.264 172.26C422.804 172.26 421.244 170.94 421.244 169ZM430.882 167.04C430.882 163.96 433.102 161.84 436.162 161.84C439.222 161.84 441.442 163.96 441.442 167.04C441.442 170.12 439.222 172.24 436.162 172.24C433.102 172.24 430.882 170.12 430.882 167.04ZM433.322 167.04C433.322 168.84 434.482 170.06 436.162 170.06C437.842 170.06 439.002 168.84 439.002 167.04C439.002 165.24 437.842 164.02 436.162 164.02C434.482 164.02 433.322 165.24 433.322 167.04ZM449.776 162.08V164.34H448.876C447.116 164.34 446.016 165.28 446.016 167.2V172H443.576V162.14H445.876L446.016 163.58C446.436 162.6 447.376 161.94 448.696 161.94C449.036 161.94 449.376 161.98 449.776 162.08ZM455.355 172.26C452.495 172.26 450.715 170.16 450.715 167.1C450.715 164.02 452.515 161.82 455.495 161.82C456.875 161.82 458.095 162.4 458.715 163.38V157.12H461.135V172H458.895L458.735 170.46C458.135 171.6 456.855 172.26 455.355 172.26ZM455.895 170.02C457.595 170.02 458.695 168.8 458.695 167.02C458.695 165.24 457.595 164 455.895 164C454.195 164 453.155 165.26 453.155 167.02C453.155 168.78 454.195 170.02 455.895 170.02ZM468.298 172.26C465.358 172.26 463.298 170.12 463.298 167.06C463.298 163.96 465.318 161.82 468.218 161.82C471.178 161.82 473.058 163.8 473.058 166.88V167.62L465.618 167.64C465.798 169.38 466.718 170.26 468.338 170.26C469.678 170.26 470.558 169.74 470.838 168.8H473.098C472.678 170.96 470.878 172.26 468.298 172.26ZM468.238 163.82C466.798 163.82 465.918 164.6 465.678 166.08H470.638C470.638 164.72 469.698 163.82 468.238 163.82ZM481.411 162.08V164.34H480.511C478.751 164.34 477.651 165.28 477.651 167.2V172H475.211V162.14H477.511L477.651 163.58C478.071 162.6 479.011 161.94 480.331 161.94C480.671 161.94 481.011 161.98 481.411 162.08ZM482.502 169H484.822C484.842 169.86 485.482 170.4 486.602 170.4C487.742 170.4 488.362 169.94 488.362 169.22C488.362 168.72 488.102 168.36 487.222 168.16L485.442 167.74C483.662 167.34 482.802 166.5 482.802 164.92C482.802 162.98 484.442 161.82 486.722 161.82C488.942 161.82 490.442 163.1 490.462 165.02H488.142C488.122 164.18 487.562 163.64 486.622 163.64C485.662 163.64 485.102 164.08 485.102 164.82C485.102 165.38 485.542 165.74 486.382 165.94L488.162 166.36C489.822 166.74 490.662 167.5 490.662 169.02C490.662 171.02 488.962 172.26 486.522 172.26C484.062 172.26 482.502 170.94 482.502 169Z" fill="white"/>
<path id="Vector 2245" d="M310 153L394 153" stroke="white" stroke-width="3" stroke-linecap="round"/>
</g>
<g id="3_TEXT">
<path id="Several types of cancer" d="M46.8987 246.46C46.8987 243.9 49.0187 242.12 52.0987 242.12C55.0587 242.12 56.9387 243.76 57.0187 246.4H54.4587C54.3987 245.14 53.4987 244.4 52.0587 244.4C50.4787 244.4 49.4587 245.16 49.4587 246.38C49.4587 247.42 50.0187 248 51.2387 248.28L53.5387 248.78C56.0387 249.32 57.2587 250.6 57.2587 252.78C57.2587 255.5 55.1387 257.26 51.9187 257.26C48.7987 257.26 46.7587 255.6 46.6987 252.98H49.2587C49.2787 254.22 50.2787 254.96 51.9187 254.96C53.6187 254.96 54.6987 254.22 54.6987 253C54.6987 252.02 54.1987 251.44 52.9987 251.18L50.6787 250.66C48.1987 250.12 46.8987 248.7 46.8987 246.46ZM63.8347 257.26C60.8947 257.26 58.8347 255.12 58.8347 252.06C58.8347 248.96 60.8547 246.82 63.7547 246.82C66.7147 246.82 68.5947 248.8 68.5947 251.88V252.62L61.1547 252.64C61.3347 254.38 62.2547 255.26 63.8747 255.26C65.2147 255.26 66.0947 254.74 66.3747 253.8H68.6347C68.2147 255.96 66.4147 257.26 63.8347 257.26ZM63.7747 248.82C62.3347 248.82 61.4547 249.6 61.2147 251.08H66.1747C66.1747 249.72 65.2347 248.82 63.7747 248.82ZM73.1178 257L69.1978 247.12H71.7978L73.5178 251.66C73.9378 252.84 74.2778 253.86 74.3978 254.4C74.5378 253.78 74.8978 252.74 75.3178 251.66L77.1178 247.12H79.6378L75.5178 257H73.1178ZM85.1722 257.26C82.2322 257.26 80.1722 255.12 80.1722 252.06C80.1722 248.96 82.1922 246.82 85.0922 246.82C88.0522 246.82 89.9322 248.8 89.9322 251.88V252.62L82.4922 252.64C82.6722 254.38 83.5922 255.26 85.2122 255.26C86.5522 255.26 87.4322 254.74 87.7122 253.8H89.9722C89.5522 255.96 87.7522 257.26 85.1722 257.26ZM85.1122 248.82C83.6722 248.82 82.7922 249.6 82.5522 251.08H87.5122C87.5122 249.72 86.5722 248.82 85.1122 248.82ZM98.285 247.08V249.34H97.385C95.625 249.34 94.525 250.28 94.525 252.2V257H92.085V247.14H94.385L94.525 248.58C94.945 247.6 95.885 246.94 97.205 246.94C97.545 246.94 97.885 246.98 98.285 247.08ZM102.686 257.26C100.586 257.26 99.3059 256.04 99.3059 254.18C99.3059 252.36 100.626 251.22 102.966 251.04L105.926 250.82V250.6C105.926 249.26 105.126 248.72 103.886 248.72C102.446 248.72 101.646 249.32 101.646 250.36H99.5659C99.5659 248.22 101.326 246.82 104.006 246.82C106.666 246.82 108.306 248.26 108.306 251V257H106.166L105.986 255.54C105.566 256.56 104.226 257.26 102.686 257.26ZM103.486 255.42C104.986 255.42 105.946 254.52 105.946 253V252.48L103.886 252.64C102.366 252.78 101.786 253.28 101.786 254.08C101.786 254.98 102.386 255.42 103.486 255.42ZM113.363 257H110.943V242.12H113.363V257ZM125.073 257H122.633V249.16H120.733V247.12H122.633V244.04H125.073V247.12H126.993V249.16H125.073V257ZM127.85 261.58V259.54H129.31C130.27 259.54 130.87 259.32 131.29 258.16L131.57 257.42L127.59 247.12H130.17L132.71 254.32L135.39 247.12H137.91L133.07 259.2C132.33 261.04 131.29 261.8 129.67 261.8C128.99 261.8 128.39 261.72 127.85 261.58ZM139.496 261.58V247.12H141.756L141.916 248.62C142.516 247.48 143.816 246.82 145.316 246.82C148.096 246.82 149.936 248.84 149.936 251.94C149.936 255.02 148.256 257.26 145.316 257.26C143.836 257.26 142.556 256.68 141.936 255.68V261.58H139.496ZM141.956 252.06C141.956 253.84 143.056 255.06 144.736 255.06C146.456 255.06 147.476 253.82 147.476 252.06C147.476 250.3 146.456 249.04 144.736 249.04C143.056 249.04 141.956 250.28 141.956 252.06ZM156.499 257.26C153.559 257.26 151.499 255.12 151.499 252.06C151.499 248.96 153.519 246.82 156.419 246.82C159.379 246.82 161.259 248.8 161.259 251.88V252.62L153.819 252.64C153.999 254.38 154.919 255.26 156.539 255.26C157.879 255.26 158.759 254.74 159.039 253.8H161.299C160.879 255.96 159.079 257.26 156.499 257.26ZM156.439 248.82C154.999 248.82 154.119 249.6 153.879 251.08H158.839C158.839 249.72 157.899 248.82 156.439 248.82ZM162.652 254H164.972C164.992 254.86 165.632 255.4 166.752 255.4C167.892 255.4 168.512 254.94 168.512 254.22C168.512 253.72 168.252 253.36 167.372 253.16L165.592 252.74C163.812 252.34 162.952 251.5 162.952 249.92C162.952 247.98 164.592 246.82 166.872 246.82C169.092 246.82 170.592 248.1 170.612 250.02H168.292C168.272 249.18 167.712 248.64 166.772 248.64C165.812 248.64 165.252 249.08 165.252 249.82C165.252 250.38 165.692 250.74 166.532 250.94L168.312 251.36C169.972 251.74 170.812 252.5 170.812 254.02C170.812 256.02 169.112 257.26 166.672 257.26C164.212 257.26 162.652 255.94 162.652 254ZM88.3261 278.04C88.3261 274.96 90.5461 272.84 93.6061 272.84C96.6661 272.84 98.8861 274.96 98.8861 278.04C98.8861 281.12 96.6661 283.24 93.6061 283.24C90.5461 283.24 88.3261 281.12 88.3261 278.04ZM90.7661 278.04C90.7661 279.84 91.9261 281.06 93.6061 281.06C95.2861 281.06 96.4461 279.84 96.4461 278.04C96.4461 276.24 95.2861 275.02 93.6061 275.02C91.9261 275.02 90.7661 276.24 90.7661 278.04ZM100.001 273.12H101.421V271.92C101.421 269.24 102.841 268.12 104.981 268.12C105.361 268.12 105.821 268.14 106.241 268.22V270.3H105.381C104.141 270.3 103.841 270.94 103.841 271.92V273.12H106.201V275.16H103.841V283H101.421V275.16H100.001V273.12ZM112.969 278.04C112.969 274.98 114.989 272.82 117.909 272.82C120.609 272.82 122.449 274.32 122.709 276.7H120.269C119.989 275.58 119.169 275 118.009 275C116.449 275 115.409 276.18 115.409 278.04C115.409 279.9 116.369 281.06 117.929 281.06C119.149 281.06 120.009 280.46 120.269 279.38H122.729C122.429 281.68 120.509 283.26 117.929 283.26C114.929 283.26 112.969 281.18 112.969 278.04ZM127.685 283.26C125.585 283.26 124.305 282.04 124.305 280.18C124.305 278.36 125.625 277.22 127.965 277.04L130.925 276.82V276.6C130.925 275.26 130.125 274.72 128.885 274.72C127.445 274.72 126.645 275.32 126.645 276.36H124.565C124.565 274.22 126.325 272.82 129.005 272.82C131.665 272.82 133.305 274.26 133.305 277V283H131.165L130.985 281.54C130.565 282.56 129.225 283.26 127.685 283.26ZM128.485 281.42C129.985 281.42 130.945 280.52 130.945 279V278.48L128.885 278.64C127.365 278.78 126.785 279.28 126.785 280.08C126.785 280.98 127.385 281.42 128.485 281.42ZM138.342 283H135.902V273.12H138.162L138.362 274.4C138.982 273.4 140.182 272.82 141.522 272.82C144.002 272.82 145.282 274.36 145.282 276.92V283H142.842V277.5C142.842 275.84 142.022 275.04 140.762 275.04C139.262 275.04 138.342 276.08 138.342 277.68V283ZM147.3 278.04C147.3 274.98 149.32 272.82 152.24 272.82C154.94 272.82 156.78 274.32 157.04 276.7H154.6C154.32 275.58 153.5 275 152.34 275C150.78 275 149.74 276.18 149.74 278.04C149.74 279.9 150.7 281.06 152.26 281.06C153.48 281.06 154.34 280.46 154.6 279.38H157.06C156.76 281.68 154.84 283.26 152.26 283.26C149.26 283.26 147.3 281.18 147.3 278.04ZM163.496 283.26C160.556 283.26 158.496 281.12 158.496 278.06C158.496 274.96 160.516 272.82 163.416 272.82C166.376 272.82 168.256 274.8 168.256 277.88V278.62L160.816 278.64C160.996 280.38 161.916 281.26 163.536 281.26C164.876 281.26 165.756 280.74 166.036 279.8H168.296C167.876 281.96 166.076 283.26 163.496 283.26ZM163.436 274.82C161.996 274.82 161.116 275.6 160.876 277.08H165.836C165.836 275.72 164.896 274.82 163.436 274.82ZM176.608 273.08V275.34H175.708C173.948 275.34 172.848 276.28 172.848 278.2V283H170.408V273.14H172.708L172.848 274.58C173.268 273.6 174.208 272.94 175.528 272.94C175.868 272.94 176.208 272.98 176.608 273.08Z" fill="white"/>
<path id="Vector 2248" d="M185 265L294 265" stroke="white" stroke-width="3" stroke-linecap="round"/>
</g>
<g id="4_TEXT">
<path id="Skin disorders" d="M47.78 529.46C47.78 526.9 49.9 525.12 52.98 525.12C55.94 525.12 57.82 526.76 57.9 529.4H55.34C55.28 528.14 54.38 527.4 52.94 527.4C51.36 527.4 50.34 528.16 50.34 529.38C50.34 530.42 50.9 531 52.12 531.28L54.42 531.78C56.92 532.32 58.14 533.6 58.14 535.78C58.14 538.5 56.02 540.26 52.8 540.26C49.68 540.26 47.64 538.6 47.58 535.98H50.14C50.16 537.22 51.16 537.96 52.8 537.96C54.5 537.96 55.58 537.22 55.58 536C55.58 535.02 55.08 534.44 53.88 534.18L51.56 533.66C49.08 533.12 47.78 531.7 47.78 529.46ZM62.7559 540H60.3359V525.12H62.7559V534.26L66.5959 530.12H69.6559L65.8959 534.04L69.5759 540H66.7759L64.1959 535.84L62.7559 537.34V540ZM72.4777 528.14C71.6377 528.14 70.9777 527.48 70.9777 526.66C70.9777 525.84 71.6377 525.2 72.4777 525.2C73.2777 525.2 73.9377 525.84 73.9377 526.66C73.9377 527.48 73.2777 528.14 72.4777 528.14ZM71.2577 540V530.12H73.6977V540H71.2577ZM78.8586 540H76.4186V530.12H78.6786L78.8786 531.4C79.4986 530.4 80.6986 529.82 82.0386 529.82C84.5186 529.82 85.7986 531.36 85.7986 533.92V540H83.3586V534.5C83.3586 532.84 82.5386 532.04 81.2786 532.04C79.7786 532.04 78.8586 533.08 78.8586 534.68V540ZM98.0466 540.26C95.1866 540.26 93.4066 538.16 93.4066 535.1C93.4066 532.02 95.2066 529.82 98.1866 529.82C99.5666 529.82 100.787 530.4 101.407 531.38V525.12H103.827V540H101.587L101.427 538.46C100.827 539.6 99.5466 540.26 98.0466 540.26ZM98.5866 538.02C100.287 538.02 101.387 536.8 101.387 535.02C101.387 533.24 100.287 532 98.5866 532C96.8866 532 95.8466 533.26 95.8466 535.02C95.8466 536.78 96.8866 538.02 98.5866 538.02ZM107.789 528.14C106.949 528.14 106.289 527.48 106.289 526.66C106.289 525.84 106.949 525.2 107.789 525.2C108.589 525.2 109.249 525.84 109.249 526.66C109.249 527.48 108.589 528.14 107.789 528.14ZM106.569 540V530.12H109.009V540H106.569ZM110.97 537H113.29C113.31 537.86 113.95 538.4 115.07 538.4C116.21 538.4 116.83 537.94 116.83 537.22C116.83 536.72 116.57 536.36 115.69 536.16L113.91 535.74C112.13 535.34 111.27 534.5 111.27 532.92C111.27 530.98 112.91 529.82 115.19 529.82C117.41 529.82 118.91 531.1 118.93 533.02H116.61C116.59 532.18 116.03 531.64 115.09 531.64C114.13 531.64 113.57 532.08 113.57 532.82C113.57 533.38 114.01 533.74 114.85 533.94L116.63 534.36C118.29 534.74 119.13 535.5 119.13 537.02C119.13 539.02 117.43 540.26 114.99 540.26C112.53 540.26 110.97 538.94 110.97 537ZM120.608 535.04C120.608 531.96 122.828 529.84 125.888 529.84C128.948 529.84 131.168 531.96 131.168 535.04C131.168 538.12 128.948 540.24 125.888 540.24C122.828 540.24 120.608 538.12 120.608 535.04ZM123.048 535.04C123.048 536.84 124.208 538.06 125.888 538.06C127.568 538.06 128.728 536.84 128.728 535.04C128.728 533.24 127.568 532.02 125.888 532.02C124.208 532.02 123.048 533.24 123.048 535.04ZM139.502 530.08V532.34H138.602C136.842 532.34 135.742 533.28 135.742 535.2V540H133.302V530.14H135.602L135.742 531.58C136.162 530.6 137.102 529.94 138.422 529.94C138.762 529.94 139.102 529.98 139.502 530.08ZM145.082 540.26C142.222 540.26 140.442 538.16 140.442 535.1C140.442 532.02 142.242 529.82 145.222 529.82C146.602 529.82 147.822 530.4 148.442 531.38V525.12H150.862V540H148.622L148.462 538.46C147.862 539.6 146.582 540.26 145.082 540.26ZM145.622 538.02C147.322 538.02 148.422 536.8 148.422 535.02C148.422 533.24 147.322 532 145.622 532C143.922 532 142.882 533.26 142.882 535.02C142.882 536.78 143.922 538.02 145.622 538.02ZM158.025 540.26C155.085 540.26 153.025 538.12 153.025 535.06C153.025 531.96 155.045 529.82 157.945 529.82C160.905 529.82 162.785 531.8 162.785 534.88V535.62L155.345 535.64C155.525 537.38 156.445 538.26 158.065 538.26C159.405 538.26 160.285 537.74 160.565 536.8H162.825C162.405 538.96 160.605 540.26 158.025 540.26ZM157.965 531.82C156.525 531.82 155.645 532.6 155.405 534.08H160.365C160.365 532.72 159.425 531.82 157.965 531.82ZM171.137 530.08V532.34H170.237C168.477 532.34 167.377 533.28 167.377 535.2V540H164.937V530.14H167.237L167.377 531.58C167.797 530.6 168.737 529.94 170.057 529.94C170.397 529.94 170.737 529.98 171.137 530.08ZM172.229 537H174.549C174.569 537.86 175.209 538.4 176.329 538.4C177.469 538.4 178.089 537.94 178.089 537.22C178.089 536.72 177.829 536.36 176.949 536.16L175.169 535.74C173.389 535.34 172.529 534.5 172.529 532.92C172.529 530.98 174.169 529.82 176.449 529.82C178.669 529.82 180.169 531.1 180.189 533.02H177.869C177.849 532.18 177.289 531.64 176.349 531.64C175.389 531.64 174.829 532.08 174.829 532.82C174.829 533.38 175.269 533.74 176.109 533.94L177.889 534.36C179.549 534.74 180.389 535.5 180.389 537.02C180.389 539.02 178.689 540.26 176.249 540.26C173.789 540.26 172.229 538.94 172.229 537Z" fill="white"/>
<path id="Vector 2249" d="M193 535L259 535" stroke="white" stroke-width="3" stroke-linecap="round"/>
</g>
<g id="5_TEXT">
<path id="Reproductive toxicity" d="M24.4573 426H21.8973V411.38H27.4773C30.7973 411.38 32.7373 413.06 32.7373 415.94C32.7373 417.9 31.8173 419.3 30.0973 420L32.8773 426H30.0773L27.5973 420.54H24.4573V426ZM24.4573 413.66V418.28H27.4773C29.0973 418.28 30.0573 417.42 30.0573 415.94C30.0573 414.48 29.0973 413.66 27.4773 413.66H24.4573ZM38.8527 426.26C35.9127 426.26 33.8527 424.12 33.8527 421.06C33.8527 417.96 35.8727 415.82 38.7727 415.82C41.7327 415.82 43.6127 417.8 43.6127 420.88V421.62L36.1727 421.64C36.3527 423.38 37.2727 424.26 38.8927 424.26C40.2327 424.26 41.1127 423.74 41.3927 422.8H43.6527C43.2327 424.96 41.4327 426.26 38.8527 426.26ZM38.7927 417.82C37.3527 417.82 36.4727 418.6 36.2327 420.08H41.1927C41.1927 418.72 40.2527 417.82 38.7927 417.82ZM45.7655 430.58V416.12H48.0255L48.1855 417.62C48.7855 416.48 50.0855 415.82 51.5855 415.82C54.3655 415.82 56.2055 417.84 56.2055 420.94C56.2055 424.02 54.5255 426.26 51.5855 426.26C50.1055 426.26 48.8255 425.68 48.2055 424.68V430.58H45.7655ZM48.2255 421.06C48.2255 422.84 49.3255 424.06 51.0055 424.06C52.7255 424.06 53.7455 422.82 53.7455 421.06C53.7455 419.3 52.7255 418.04 51.0055 418.04C49.3255 418.04 48.2255 419.28 48.2255 421.06ZM64.5483 416.08V418.34H63.6483C61.8883 418.34 60.7883 419.28 60.7883 421.2V426H58.3483V416.14H60.6483L60.7883 417.58C61.2083 416.6 62.1483 415.94 63.4683 415.94C63.8083 415.94 64.1483 415.98 64.5483 416.08ZM65.4878 421.04C65.4878 417.96 67.7078 415.84 70.7678 415.84C73.8278 415.84 76.0478 417.96 76.0478 421.04C76.0478 424.12 73.8278 426.24 70.7678 426.24C67.7078 426.24 65.4878 424.12 65.4878 421.04ZM67.9278 421.04C67.9278 422.84 69.0878 424.06 70.7678 424.06C72.4478 424.06 73.6078 422.84 73.6078 421.04C73.6078 419.24 72.4478 418.02 70.7678 418.02C69.0878 418.02 67.9278 419.24 67.9278 421.04ZM82.2419 426.26C79.3819 426.26 77.6019 424.16 77.6019 421.1C77.6019 418.02 79.4019 415.82 82.3819 415.82C83.7619 415.82 84.9819 416.4 85.6019 417.38V411.12H88.0219V426H85.7819L85.6219 424.46C85.0219 425.6 83.7419 426.26 82.2419 426.26ZM82.7819 424.02C84.4819 424.02 85.5819 422.8 85.5819 421.02C85.5819 419.24 84.4819 418 82.7819 418C81.0819 418 80.0419 419.26 80.0419 421.02C80.0419 422.78 81.0819 424.02 82.7819 424.02ZM97.4647 416.12H99.9047V426H97.6447L97.4647 424.68C96.8647 425.62 95.5847 426.26 94.2647 426.26C91.9847 426.26 90.6447 424.72 90.6447 422.3V416.12H93.0847V421.44C93.0847 423.32 93.8247 424.08 95.1847 424.08C96.7247 424.08 97.4647 423.18 97.4647 421.3V416.12ZM101.85 421.04C101.85 417.98 103.87 415.82 106.79 415.82C109.49 415.82 111.33 417.32 111.59 419.7H109.15C108.87 418.58 108.05 418 106.89 418C105.33 418 104.29 419.18 104.29 421.04C104.29 422.9 105.25 424.06 106.81 424.06C108.03 424.06 108.89 423.46 109.15 422.38H111.61C111.31 424.68 109.39 426.26 106.81 426.26C103.81 426.26 101.85 424.18 101.85 421.04ZM116.986 426H114.546V418.16H112.646V416.12H114.546V413.04H116.986V416.12H118.906V418.16H116.986V426ZM121.843 414.14C121.003 414.14 120.343 413.48 120.343 412.66C120.343 411.84 121.003 411.2 121.843 411.2C122.643 411.2 123.303 411.84 123.303 412.66C123.303 413.48 122.643 414.14 121.843 414.14ZM120.623 426V416.12H123.063V426H120.623ZM128.583 426L124.663 416.12H127.263L128.983 420.66C129.403 421.84 129.743 422.86 129.863 423.4C130.003 422.78 130.363 421.74 130.783 420.66L132.583 416.12H135.103L130.983 426H128.583ZM140.638 426.26C137.698 426.26 135.638 424.12 135.638 421.06C135.638 417.96 137.658 415.82 140.558 415.82C143.518 415.82 145.398 417.8 145.398 420.88V421.62L137.958 421.64C138.138 423.38 139.058 424.26 140.678 424.26C142.018 424.26 142.898 423.74 143.178 422.8H145.438C145.018 424.96 143.218 426.26 140.638 426.26ZM140.578 417.82C139.138 417.82 138.258 418.6 138.018 420.08H142.978C142.978 418.72 142.038 417.82 140.578 417.82ZM156.501 426H154.061V418.16H152.161V416.12H154.061V413.04H156.501V416.12H158.421V418.16H156.501V426ZM159.46 421.04C159.46 417.96 161.68 415.84 164.74 415.84C167.8 415.84 170.02 417.96 170.02 421.04C170.02 424.12 167.8 426.24 164.74 426.24C161.68 426.24 159.46 424.12 159.46 421.04ZM161.9 421.04C161.9 422.84 163.06 424.06 164.74 424.06C166.42 424.06 167.58 422.84 167.58 421.04C167.58 419.24 166.42 418.02 164.74 418.02C163.06 418.02 161.9 419.24 161.9 421.04ZM173.425 426H170.645L174.045 421.16L170.645 416.12H173.485L175.665 419.48L177.765 416.12H180.505L177.145 421.12L180.405 426H177.605L175.505 422.74L173.425 426ZM183.379 414.14C182.539 414.14 181.879 413.48 181.879 412.66C181.879 411.84 182.539 411.2 183.379 411.2C184.179 411.2 184.839 411.84 184.839 412.66C184.839 413.48 184.179 414.14 183.379 414.14ZM182.159 426V416.12H184.599V426H182.159ZM186.74 421.04C186.74 417.98 188.76 415.82 191.68 415.82C194.38 415.82 196.22 417.32 196.48 419.7H194.04C193.76 418.58 192.94 418 191.78 418C190.22 418 189.18 419.18 189.18 421.04C189.18 422.9 190.14 424.06 191.7 424.06C192.92 424.06 193.78 423.46 194.04 422.38H196.5C196.2 424.68 194.28 426.26 191.7 426.26C188.7 426.26 186.74 424.18 186.74 421.04ZM199.736 414.14C198.896 414.14 198.236 413.48 198.236 412.66C198.236 411.84 198.896 411.2 199.736 411.2C200.536 411.2 201.196 411.84 201.196 412.66C201.196 413.48 200.536 414.14 199.736 414.14ZM198.516 426V416.12H200.956V426H198.516ZM207.037 426H204.597V418.16H202.697V416.12H204.597V413.04H207.037V416.12H208.957V418.16H207.037V426ZM209.814 430.58V428.54H211.274C212.234 428.54 212.834 428.32 213.254 427.16L213.534 426.42L209.554 416.12H212.134L214.674 423.32L217.354 416.12H219.874L215.034 428.2C214.294 430.04 213.254 430.8 211.634 430.8C210.954 430.8 210.354 430.72 209.814 430.58Z" fill="white"/>
<path id="Vector 2250" d="M227 422L303 422" stroke="white" stroke-width="3" stroke-linecap="round"/>
</g>
<g id="6_TEXT">
<path id="Developmental anomalies and potential neurological damage for unborn children and infants" d="M405.88 407H400.62V392.38H405.74C410.06 392.38 413.04 395.36 413.04 399.72C413.04 404.02 410.12 407 405.88 407ZM405.5 394.74H403.18V404.64H405.64C408.56 404.64 410.34 402.76 410.34 399.72C410.34 396.62 408.52 394.74 405.5 394.74ZM419.685 407.26C416.745 407.26 414.685 405.12 414.685 402.06C414.685 398.96 416.705 396.82 419.605 396.82C422.565 396.82 424.445 398.8 424.445 401.88V402.62L417.005 402.64C417.185 404.38 418.105 405.26 419.725 405.26C421.065 405.26 421.945 404.74 422.225 403.8H424.485C424.065 405.96 422.265 407.26 419.685 407.26ZM419.625 398.82C418.185 398.82 417.305 399.6 417.065 401.08H422.025C422.025 399.72 421.085 398.82 419.625 398.82ZM428.968 407L425.048 397.12H427.648L429.368 401.66C429.788 402.84 430.128 403.86 430.248 404.4C430.388 403.78 430.748 402.74 431.168 401.66L432.968 397.12H435.488L431.368 407H428.968ZM441.022 407.26C438.082 407.26 436.022 405.12 436.022 402.06C436.022 398.96 438.042 396.82 440.942 396.82C443.902 396.82 445.782 398.8 445.782 401.88V402.62L438.342 402.64C438.522 404.38 439.442 405.26 441.062 405.26C442.402 405.26 443.282 404.74 443.562 403.8H445.822C445.402 405.96 443.602 407.26 441.022 407.26ZM440.962 398.82C439.522 398.82 438.642 399.6 438.402 401.08H443.362C443.362 399.72 442.422 398.82 440.962 398.82ZM450.395 407H447.975V392.12H450.395V407ZM452.575 402.04C452.575 398.96 454.795 396.84 457.855 396.84C460.915 396.84 463.135 398.96 463.135 402.04C463.135 405.12 460.915 407.24 457.855 407.24C454.795 407.24 452.575 405.12 452.575 402.04ZM455.015 402.04C455.015 403.84 456.175 405.06 457.855 405.06C459.535 405.06 460.695 403.84 460.695 402.04C460.695 400.24 459.535 399.02 457.855 399.02C456.175 399.02 455.015 400.24 455.015 402.04ZM465.269 411.58V397.12H467.529L467.689 398.62C468.289 397.48 469.589 396.82 471.089 396.82C473.869 396.82 475.709 398.84 475.709 401.94C475.709 405.02 474.029 407.26 471.089 407.26C469.609 407.26 468.329 406.68 467.709 405.68V411.58H465.269ZM467.729 402.06C467.729 403.84 468.829 405.06 470.509 405.06C472.229 405.06 473.249 403.82 473.249 402.06C473.249 400.3 472.229 399.04 470.509 399.04C468.829 399.04 467.729 400.28 467.729 402.06ZM480.291 407H477.851V397.12H480.091L480.291 398.28C480.791 397.46 481.791 396.82 483.211 396.82C484.711 396.82 485.751 397.56 486.271 398.7C486.771 397.56 487.931 396.82 489.431 396.82C491.831 396.82 493.151 398.26 493.151 400.54V407H490.731V401.18C490.731 399.76 489.971 399.02 488.811 399.02C487.631 399.02 486.731 399.78 486.731 401.4V407H484.291V401.16C484.291 399.78 483.551 399.04 482.391 399.04C481.231 399.04 480.291 399.8 480.291 401.4V407ZM500.167 407.26C497.227 407.26 495.167 405.12 495.167 402.06C495.167 398.96 497.187 396.82 500.087 396.82C503.047 396.82 504.927 398.8 504.927 401.88V402.62L497.487 402.64C497.667 404.38 498.587 405.26 500.207 405.26C501.547 405.26 502.427 404.74 502.707 403.8H504.967C504.547 405.96 502.747 407.26 500.167 407.26ZM500.107 398.82C498.667 398.82 497.787 399.6 497.547 401.08H502.507C502.507 399.72 501.567 398.82 500.107 398.82ZM509.52 407H507.08V397.12H509.34L509.54 398.4C510.16 397.4 511.36 396.82 512.7 396.82C515.18 396.82 516.46 398.36 516.46 400.92V407H514.02V401.5C514.02 399.84 513.2 399.04 511.94 399.04C510.44 399.04 509.52 400.08 509.52 401.68V407ZM522.417 407H519.977V399.16H518.077V397.12H519.977V394.04H522.417V397.12H524.337V399.16H522.417V407ZM528.935 407.26C526.835 407.26 525.555 406.04 525.555 404.18C525.555 402.36 526.875 401.22 529.215 401.04L532.175 400.82V400.6C532.175 399.26 531.375 398.72 530.135 398.72C528.695 398.72 527.895 399.32 527.895 400.36H525.815C525.815 398.22 527.575 396.82 530.255 396.82C532.915 396.82 534.555 398.26 534.555 401V407H532.415L532.235 405.54C531.815 406.56 530.475 407.26 528.935 407.26ZM529.735 405.42C531.235 405.42 532.195 404.52 532.195 403V402.48L530.135 402.64C528.615 402.78 528.035 403.28 528.035 404.08C528.035 404.98 528.635 405.42 529.735 405.42ZM539.612 407H537.192V392.12H539.612V407ZM403.2 433.26C401.1 433.26 399.82 432.04 399.82 430.18C399.82 428.36 401.14 427.22 403.48 427.04L406.44 426.82V426.6C406.44 425.26 405.64 424.72 404.4 424.72C402.96 424.72 402.16 425.32 402.16 426.36H400.08C400.08 424.22 401.84 422.82 404.52 422.82C407.18 422.82 408.82 424.26 408.82 427V433H406.68L406.5 431.54C406.08 432.56 404.74 433.26 403.2 433.26ZM404 431.42C405.5 431.42 406.46 430.52 406.46 429V428.48L404.4 428.64C402.88 428.78 402.3 429.28 402.3 430.08C402.3 430.98 402.9 431.42 404 431.42ZM413.857 433H411.417V423.12H413.677L413.877 424.4C414.497 423.4 415.697 422.82 417.037 422.82C419.517 422.82 420.797 424.36 420.797 426.92V433H418.357V427.5C418.357 425.84 417.537 425.04 416.277 425.04C414.777 425.04 413.857 426.08 413.857 427.68V433ZM422.814 428.04C422.814 424.96 425.034 422.84 428.094 422.84C431.154 422.84 433.374 424.96 433.374 428.04C433.374 431.12 431.154 433.24 428.094 433.24C425.034 433.24 422.814 431.12 422.814 428.04ZM425.254 428.04C425.254 429.84 426.414 431.06 428.094 431.06C429.774 431.06 430.934 429.84 430.934 428.04C430.934 426.24 429.774 425.02 428.094 425.02C426.414 425.02 425.254 426.24 425.254 428.04ZM437.948 433H435.508V423.12H437.748L437.948 424.28C438.448 423.46 439.448 422.82 440.868 422.82C442.368 422.82 443.408 423.56 443.928 424.7C444.428 423.56 445.588 422.82 447.088 422.82C449.488 422.82 450.808 424.26 450.808 426.54V433H448.388V427.18C448.388 425.76 447.628 425.02 446.468 425.02C445.288 425.02 444.388 425.78 444.388 427.4V433H441.948V427.16C441.948 425.78 441.208 425.04 440.048 425.04C438.888 425.04 437.948 425.8 437.948 427.4V433ZM456.344 433.26C454.244 433.26 452.964 432.04 452.964 430.18C452.964 428.36 454.284 427.22 456.624 427.04L459.584 426.82V426.6C459.584 425.26 458.784 424.72 457.544 424.72C456.104 424.72 455.304 425.32 455.304 426.36H453.224C453.224 424.22 454.984 422.82 457.664 422.82C460.324 422.82 461.964 424.26 461.964 427V433H459.824L459.644 431.54C459.224 432.56 457.884 433.26 456.344 433.26ZM457.144 431.42C458.644 431.42 459.604 430.52 459.604 429V428.48L457.544 428.64C456.024 428.78 455.444 429.28 455.444 430.08C455.444 430.98 456.044 431.42 457.144 431.42ZM467.021 433H464.601V418.12H467.021V433ZM471 421.14C470.16 421.14 469.5 420.48 469.5 419.66C469.5 418.84 470.16 418.2 471 418.2C471.8 418.2 472.46 418.84 472.46 419.66C472.46 420.48 471.8 421.14 471 421.14ZM469.78 433V423.12H472.22V433H469.78ZM479.361 433.26C476.421 433.26 474.361 431.12 474.361 428.06C474.361 424.96 476.381 422.82 479.281 422.82C482.241 422.82 484.121 424.8 484.121 427.88V428.62L476.681 428.64C476.861 430.38 477.781 431.26 479.401 431.26C480.741 431.26 481.621 430.74 481.901 429.8H484.161C483.741 431.96 481.941 433.26 479.361 433.26ZM479.301 424.82C477.861 424.82 476.981 425.6 476.741 427.08H481.701C481.701 425.72 480.761 424.82 479.301 424.82ZM485.514 430H487.834C487.854 430.86 488.494 431.4 489.614 431.4C490.754 431.4 491.374 430.94 491.374 430.22C491.374 429.72 491.114 429.36 490.234 429.16L488.454 428.74C486.674 428.34 485.814 427.5 485.814 425.92C485.814 423.98 487.454 422.82 489.734 422.82C491.954 422.82 493.454 424.1 493.474 426.02H491.154C491.134 425.18 490.574 424.64 489.634 424.64C488.674 424.64 488.114 425.08 488.114 425.82C488.114 426.38 488.554 426.74 489.394 426.94L491.174 427.36C492.834 427.74 493.674 428.5 493.674 430.02C493.674 432.02 491.974 433.26 489.534 433.26C487.074 433.26 485.514 431.94 485.514 430ZM504.263 433.26C502.163 433.26 500.883 432.04 500.883 430.18C500.883 428.36 502.203 427.22 504.543 427.04L507.503 426.82V426.6C507.503 425.26 506.703 424.72 505.463 424.72C504.023 424.72 503.223 425.32 503.223 426.36H501.143C501.143 424.22 502.903 422.82 505.583 422.82C508.243 422.82 509.883 424.26 509.883 427V433H507.743L507.563 431.54C507.143 432.56 505.803 433.26 504.263 433.26ZM505.062 431.42C506.563 431.42 507.523 430.52 507.523 429V428.48L505.463 428.64C503.943 428.78 503.363 429.28 503.363 430.08C503.363 430.98 503.963 431.42 505.062 431.42ZM514.92 433H512.48V423.12H514.74L514.94 424.4C515.56 423.4 516.76 422.82 518.1 422.82C520.58 422.82 521.86 424.36 521.86 426.92V433H519.42V427.5C519.42 425.84 518.6 425.04 517.34 425.04C515.84 425.04 514.92 426.08 514.92 427.68V433ZM528.517 433.26C525.657 433.26 523.877 431.16 523.877 428.1C523.877 425.02 525.677 422.82 528.657 422.82C530.037 422.82 531.257 423.4 531.877 424.38V418.12H534.297V433H532.057L531.897 431.46C531.297 432.6 530.017 433.26 528.517 433.26ZM529.057 431.02C530.757 431.02 531.857 429.8 531.857 428.02C531.857 426.24 530.757 425 529.057 425C527.357 425 526.317 426.26 526.317 428.02C526.317 429.78 527.357 431.02 529.057 431.02ZM400.26 463.58V449.12H402.52L402.68 450.62C403.28 449.48 404.58 448.82 406.08 448.82C408.86 448.82 410.7 450.84 410.7 453.94C410.7 457.02 409.02 459.26 406.08 459.26C404.6 459.26 403.32 458.68 402.7 457.68V463.58H400.26ZM402.72 454.06C402.72 455.84 403.82 457.06 405.5 457.06C407.22 457.06 408.24 455.82 408.24 454.06C408.24 452.3 407.22 451.04 405.5 451.04C403.82 451.04 402.72 452.28 402.72 454.06ZM412.263 454.04C412.263 450.96 414.483 448.84 417.543 448.84C420.603 448.84 422.823 450.96 422.823 454.04C422.823 457.12 420.603 459.24 417.543 459.24C414.483 459.24 412.263 457.12 412.263 454.04ZM414.703 454.04C414.703 455.84 415.863 457.06 417.543 457.06C419.223 457.06 420.383 455.84 420.383 454.04C420.383 452.24 419.223 451.02 417.543 451.02C415.863 451.02 414.703 452.24 414.703 454.04ZM428.219 459H425.779V451.16H423.879V449.12H425.779V446.04H428.219V449.12H430.139V451.16H428.219V459ZM436.178 459.26C433.238 459.26 431.178 457.12 431.178 454.06C431.178 450.96 433.198 448.82 436.098 448.82C439.058 448.82 440.938 450.8 440.938 453.88V454.62L433.498 454.64C433.678 456.38 434.598 457.26 436.218 457.26C437.558 457.26 438.438 456.74 438.718 455.8H440.978C440.558 457.96 438.758 459.26 436.178 459.26ZM436.118 450.82C434.678 450.82 433.798 451.6 433.558 453.08H438.518C438.518 451.72 437.578 450.82 436.118 450.82ZM445.531 459H443.091V449.12H445.351L445.551 450.4C446.171 449.4 447.371 448.82 448.711 448.82C451.191 448.82 452.471 450.36 452.471 452.92V459H450.031V453.5C450.031 451.84 449.211 451.04 447.951 451.04C446.451 451.04 445.531 452.08 445.531 453.68V459ZM458.429 459H455.989V451.16H454.089V449.12H455.989V446.04H458.429V449.12H460.349V451.16H458.429V459ZM463.285 447.14C462.445 447.14 461.785 446.48 461.785 445.66C461.785 444.84 462.445 444.2 463.285 444.2C464.085 444.2 464.745 444.84 464.745 445.66C464.745 446.48 464.085 447.14 463.285 447.14ZM462.065 459V449.12H464.505V459H462.065ZM470.166 459.26C468.066 459.26 466.786 458.04 466.786 456.18C466.786 454.36 468.106 453.22 470.446 453.04L473.406 452.82V452.6C473.406 451.26 472.606 450.72 471.366 450.72C469.926 450.72 469.126 451.32 469.126 452.36H467.046C467.046 450.22 468.806 448.82 471.486 448.82C474.146 448.82 475.786 450.26 475.786 453V459H473.646L473.466 457.54C473.046 458.56 471.706 459.26 470.166 459.26ZM470.966 457.42C472.466 457.42 473.426 456.52 473.426 455V454.48L471.366 454.64C469.846 454.78 469.266 455.28 469.266 456.08C469.266 456.98 469.866 457.42 470.966 457.42ZM480.843 459H478.423V444.12H480.843V459ZM491.634 459H489.194V449.12H491.454L491.654 450.4C492.274 449.4 493.474 448.82 494.814 448.82C497.294 448.82 498.574 450.36 498.574 452.92V459H496.134V453.5C496.134 451.84 495.314 451.04 494.054 451.04C492.554 451.04 491.634 452.08 491.634 453.68V459ZM505.591 459.26C502.651 459.26 500.591 457.12 500.591 454.06C500.591 450.96 502.611 448.82 505.511 448.82C508.471 448.82 510.351 450.8 510.351 453.88V454.62L502.911 454.64C503.091 456.38 504.011 457.26 505.631 457.26C506.971 457.26 507.851 456.74 508.131 455.8H510.391C509.971 457.96 508.171 459.26 505.591 459.26ZM505.531 450.82C504.091 450.82 503.211 451.6 502.971 453.08H507.931C507.931 451.72 506.991 450.82 505.531 450.82ZM519.204 449.12H521.644V459H519.384L519.204 457.68C518.604 458.62 517.324 459.26 516.004 459.26C513.724 459.26 512.384 457.72 512.384 455.3V449.12H514.824V454.44C514.824 456.32 515.564 457.08 516.924 457.08C518.464 457.08 519.204 456.18 519.204 454.3V449.12ZM530.564 449.08V451.34H529.664C527.904 451.34 526.804 452.28 526.804 454.2V459H524.364V449.14H526.664L526.804 450.58C527.224 449.6 528.164 448.94 529.484 448.94C529.824 448.94 530.164 448.98 530.564 449.08ZM531.503 454.04C531.503 450.96 533.723 448.84 536.783 448.84C539.843 448.84 542.063 450.96 542.063 454.04C542.063 457.12 539.843 459.24 536.783 459.24C533.723 459.24 531.503 457.12 531.503 454.04ZM533.943 454.04C533.943 455.84 535.103 457.06 536.783 457.06C538.463 457.06 539.623 455.84 539.623 454.04C539.623 452.24 538.463 451.02 536.783 451.02C535.103 451.02 533.943 452.24 533.943 454.04ZM546.658 459H544.238V444.12H546.658V459ZM548.837 454.04C548.837 450.96 551.057 448.84 554.117 448.84C557.177 448.84 559.397 450.96 559.397 454.04C559.397 457.12 557.177 459.24 554.117 459.24C551.057 459.24 548.837 457.12 548.837 454.04ZM551.277 454.04C551.277 455.84 552.437 457.06 554.117 457.06C555.797 457.06 556.957 455.84 556.957 454.04C556.957 452.24 555.797 451.02 554.117 451.02C552.437 451.02 551.277 452.24 551.277 454.04ZM560.971 453.84C560.971 450.96 562.851 448.8 565.671 448.8C567.151 448.8 568.311 449.42 568.891 450.48L569.031 449.12H571.291V458.5C571.291 461.8 569.311 463.86 566.111 463.86C563.271 463.86 561.331 462.24 561.031 459.6H563.471C563.631 460.88 564.611 461.64 566.111 461.64C567.791 461.64 568.871 460.58 568.871 458.94V457.3C568.251 458.22 567.031 458.8 565.611 458.8C562.811 458.8 560.971 456.7 560.971 453.84ZM563.431 453.78C563.431 455.44 564.491 456.68 566.091 456.68C567.771 456.68 568.811 455.5 568.811 453.78C568.811 452.1 567.791 450.94 566.091 450.94C564.471 450.94 563.431 452.16 563.431 453.78ZM575.236 447.14C574.396 447.14 573.736 446.48 573.736 445.66C573.736 444.84 574.396 444.2 575.236 444.2C576.036 444.2 576.696 444.84 576.696 445.66C576.696 446.48 576.036 447.14 575.236 447.14ZM574.016 459V449.12H576.456V459H574.016ZM578.597 454.04C578.597 450.98 580.617 448.82 583.537 448.82C586.237 448.82 588.077 450.32 588.337 452.7H585.897C585.617 451.58 584.797 451 583.637 451C582.077 451 581.037 452.18 581.037 454.04C581.037 455.9 581.997 457.06 583.557 457.06C584.777 457.06 585.637 456.46 585.897 455.38H588.357C588.057 457.68 586.137 459.26 583.557 459.26C580.557 459.26 578.597 457.18 578.597 454.04ZM593.313 459.26C591.213 459.26 589.933 458.04 589.933 456.18C589.933 454.36 591.253 453.22 593.593 453.04L596.553 452.82V452.6C596.553 451.26 595.753 450.72 594.513 450.72C593.073 450.72 592.273 451.32 592.273 452.36H590.193C590.193 450.22 591.953 448.82 594.633 448.82C597.293 448.82 598.933 450.26 598.933 453V459H596.793L596.613 457.54C596.193 458.56 594.853 459.26 593.313 459.26ZM594.113 457.42C595.613 457.42 596.573 456.52 596.573 455V454.48L594.513 454.64C592.993 454.78 592.413 455.28 592.413 456.08C592.413 456.98 593.013 457.42 594.113 457.42ZM603.99 459H601.57V444.12H603.99V459ZM404.32 485.26C401.46 485.26 399.68 483.16 399.68 480.1C399.68 477.02 401.48 474.82 404.46 474.82C405.84 474.82 407.06 475.4 407.68 476.38V470.12H410.1V485H407.86L407.7 483.46C407.1 484.6 405.82 485.26 404.32 485.26ZM404.86 483.02C406.56 483.02 407.66 481.8 407.66 480.02C407.66 478.24 406.56 477 404.86 477C403.16 477 402.12 478.26 402.12 480.02C402.12 481.78 403.16 483.02 404.86 483.02ZM415.783 485.26C413.683 485.26 412.403 484.04 412.403 482.18C412.403 480.36 413.723 479.22 416.063 479.04L419.023 478.82V478.6C419.023 477.26 418.223 476.72 416.983 476.72C415.543 476.72 414.743 477.32 414.743 478.36H412.663C412.663 476.22 414.423 474.82 417.103 474.82C419.763 474.82 421.403 476.26 421.403 479V485H419.263L419.083 483.54C418.663 484.56 417.323 485.26 415.783 485.26ZM416.583 483.42C418.083 483.42 419.043 482.52 419.043 481V480.48L416.983 480.64C415.463 480.78 414.883 481.28 414.883 482.08C414.883 482.98 415.483 483.42 416.583 483.42ZM426.44 485H424V475.12H426.24L426.44 476.28C426.94 475.46 427.94 474.82 429.36 474.82C430.86 474.82 431.9 475.56 432.42 476.7C432.92 475.56 434.08 474.82 435.58 474.82C437.98 474.82 439.3 476.26 439.3 478.54V485H436.88V479.18C436.88 477.76 436.12 477.02 434.96 477.02C433.78 477.02 432.88 477.78 432.88 479.4V485H430.44V479.16C430.44 477.78 429.7 477.04 428.54 477.04C427.38 477.04 426.44 477.8 426.44 479.4V485ZM444.835 485.26C442.735 485.26 441.455 484.04 441.455 482.18C441.455 480.36 442.775 479.22 445.115 479.04L448.075 478.82V478.6C448.075 477.26 447.275 476.72 446.035 476.72C444.595 476.72 443.795 477.32 443.795 478.36H441.715C441.715 476.22 443.475 474.82 446.155 474.82C448.815 474.82 450.455 476.26 450.455 479V485H448.315L448.135 483.54C447.715 484.56 446.375 485.26 444.835 485.26ZM445.635 483.42C447.135 483.42 448.095 482.52 448.095 481V480.48L446.035 480.64C444.515 480.78 443.935 481.28 443.935 482.08C443.935 482.98 444.535 483.42 445.635 483.42ZM452.492 479.84C452.492 476.96 454.372 474.8 457.192 474.8C458.672 474.8 459.832 475.42 460.412 476.48L460.552 475.12H462.812V484.5C462.812 487.8 460.832 489.86 457.632 489.86C454.792 489.86 452.852 488.24 452.552 485.6H454.992C455.152 486.88 456.132 487.64 457.632 487.64C459.312 487.64 460.392 486.58 460.392 484.94V483.3C459.772 484.22 458.552 484.8 457.132 484.8C454.332 484.8 452.492 482.7 452.492 479.84ZM454.952 479.78C454.952 481.44 456.012 482.68 457.612 482.68C459.292 482.68 460.332 481.5 460.332 479.78C460.332 478.1 459.312 476.94 457.612 476.94C455.992 476.94 454.952 478.16 454.952 479.78ZM469.957 485.26C467.017 485.26 464.957 483.12 464.957 480.06C464.957 476.96 466.977 474.82 469.877 474.82C472.837 474.82 474.717 476.8 474.717 479.88V480.62L467.277 480.64C467.457 482.38 468.377 483.26 469.997 483.26C471.337 483.26 472.217 482.74 472.497 481.8H474.757C474.337 483.96 472.537 485.26 469.957 485.26ZM469.897 476.82C468.457 476.82 467.577 477.6 467.337 479.08H472.297C472.297 477.72 471.357 476.82 469.897 476.82ZM481.481 475.12H482.901V473.92C482.901 471.24 484.321 470.12 486.461 470.12C486.841 470.12 487.301 470.14 487.721 470.22V472.3H486.861C485.621 472.3 485.321 472.94 485.321 473.92V475.12H487.681V477.16H485.321V485H482.901V477.16H481.481V475.12ZM488.565 480.04C488.565 476.96 490.785 474.84 493.845 474.84C496.905 474.84 499.125 476.96 499.125 480.04C499.125 483.12 496.905 485.24 493.845 485.24C490.785 485.24 488.565 483.12 488.565 480.04ZM491.005 480.04C491.005 481.84 492.165 483.06 493.845 483.06C495.525 483.06 496.685 481.84 496.685 480.04C496.685 478.24 495.525 477.02 493.845 477.02C492.165 477.02 491.005 478.24 491.005 480.04ZM507.459 475.08V477.34H506.559C504.799 477.34 503.699 478.28 503.699 480.2V485H501.259V475.14H503.559L503.699 476.58C504.119 475.6 505.059 474.94 506.379 474.94C506.719 474.94 507.059 474.98 507.459 475.08ZM521.601 475.12H524.041V485H521.781L521.601 483.68C521.001 484.62 519.721 485.26 518.401 485.26C516.121 485.26 514.781 483.72 514.781 481.3V475.12H517.221V480.44C517.221 482.32 517.961 483.08 519.321 483.08C520.861 483.08 521.601 482.18 521.601 480.3V475.12ZM529.202 485H526.762V475.12H529.022L529.222 476.4C529.842 475.4 531.042 474.82 532.382 474.82C534.862 474.82 536.142 476.36 536.142 478.92V485H533.702V479.5C533.702 477.84 532.882 477.04 531.622 477.04C530.122 477.04 529.202 478.08 529.202 479.68V485ZM540.999 485H538.739V470.12H541.179V476.56C541.819 475.46 543.139 474.8 544.639 474.8C547.459 474.8 549.179 477 549.179 480.12C549.179 483.16 547.319 485.26 544.479 485.26C542.999 485.26 541.739 484.6 541.159 483.46L540.999 485ZM541.199 480.02C541.199 481.8 542.299 483.02 543.979 483.02C545.699 483.02 546.719 481.78 546.719 480.02C546.719 478.26 545.699 477 543.979 477C542.299 477 541.199 478.24 541.199 480.02ZM550.742 480.04C550.742 476.96 552.962 474.84 556.022 474.84C559.082 474.84 561.302 476.96 561.302 480.04C561.302 483.12 559.082 485.24 556.022 485.24C552.962 485.24 550.742 483.12 550.742 480.04ZM553.182 480.04C553.182 481.84 554.342 483.06 556.022 483.06C557.702 483.06 558.862 481.84 558.862 480.04C558.862 478.24 557.702 477.02 556.022 477.02C554.342 477.02 553.182 478.24 553.182 480.04ZM569.636 475.08V477.34H568.736C566.976 477.34 565.876 478.28 565.876 480.2V485H563.436V475.14H565.736L565.876 476.58C566.296 475.6 567.236 474.94 568.556 474.94C568.896 474.94 569.236 474.98 569.636 475.08ZM573.927 485H571.487V475.12H573.747L573.947 476.4C574.567 475.4 575.767 474.82 577.107 474.82C579.587 474.82 580.867 476.36 580.867 478.92V485H578.427V479.5C578.427 477.84 577.607 477.04 576.347 477.04C574.847 477.04 573.927 478.08 573.927 479.68V485ZM399.68 506.04C399.68 502.98 401.7 500.82 404.62 500.82C407.32 500.82 409.16 502.32 409.42 504.7H406.98C406.7 503.58 405.88 503 404.72 503C403.16 503 402.12 504.18 402.12 506.04C402.12 507.9 403.08 509.06 404.64 509.06C405.86 509.06 406.72 508.46 406.98 507.38H409.44C409.14 509.68 407.22 511.26 404.64 511.26C401.64 511.26 399.68 509.18 399.68 506.04ZM413.896 511H411.456V496.12H413.916V502.4C414.536 501.44 415.696 500.82 417.116 500.82C419.556 500.82 420.836 502.36 420.836 504.92V511H418.396V505.5C418.396 503.84 417.576 503.04 416.336 503.04C414.796 503.04 413.896 504.12 413.896 505.6V511ZM424.653 499.14C423.813 499.14 423.153 498.48 423.153 497.66C423.153 496.84 423.813 496.2 424.653 496.2C425.453 496.2 426.113 496.84 426.113 497.66C426.113 498.48 425.453 499.14 424.653 499.14ZM423.433 511V501.12H425.873V511H423.433ZM431.054 511H428.634V496.12H431.054V511ZM437.874 511.26C435.014 511.26 433.234 509.16 433.234 506.1C433.234 503.02 435.034 500.82 438.014 500.82C439.394 500.82 440.614 501.4 441.234 502.38V496.12H443.654V511H441.414L441.254 509.46C440.654 510.6 439.374 511.26 437.874 511.26ZM438.414 509.02C440.114 509.02 441.214 507.8 441.214 506.02C441.214 504.24 440.114 503 438.414 503C436.714 503 435.674 504.26 435.674 506.02C435.674 507.78 436.714 509.02 438.414 509.02ZM452.597 501.08V503.34H451.697C449.937 503.34 448.837 504.28 448.837 506.2V511H446.397V501.14H448.697L448.837 502.58C449.257 501.6 450.197 500.94 451.517 500.94C451.857 500.94 452.197 500.98 452.597 501.08ZM458.536 511.26C455.596 511.26 453.536 509.12 453.536 506.06C453.536 502.96 455.556 500.82 458.456 500.82C461.416 500.82 463.296 502.8 463.296 505.88V506.62L455.856 506.64C456.036 508.38 456.956 509.26 458.576 509.26C459.916 509.26 460.796 508.74 461.076 507.8H463.336C462.916 509.96 461.116 511.26 458.536 511.26ZM458.476 502.82C457.036 502.82 456.156 503.6 455.916 505.08H460.876C460.876 503.72 459.936 502.82 458.476 502.82ZM467.889 511H465.449V501.12H467.709L467.909 502.4C468.529 501.4 469.729 500.82 471.069 500.82C473.549 500.82 474.829 502.36 474.829 504.92V511H472.389V505.5C472.389 503.84 471.569 503.04 470.309 503.04C468.809 503.04 467.889 504.08 467.889 505.68V511ZM485.957 511.26C483.857 511.26 482.577 510.04 482.577 508.18C482.577 506.36 483.897 505.22 486.237 505.04L489.197 504.82V504.6C489.197 503.26 488.397 502.72 487.157 502.72C485.717 502.72 484.917 503.32 484.917 504.36H482.837C482.837 502.22 484.597 500.82 487.277 500.82C489.937 500.82 491.577 502.26 491.577 505V511H489.437L489.257 509.54C488.837 510.56 487.497 511.26 485.957 511.26ZM486.757 509.42C488.257 509.42 489.217 508.52 489.217 507V506.48L487.157 506.64C485.637 506.78 485.057 507.28 485.057 508.08C485.057 508.98 485.657 509.42 486.757 509.42ZM496.614 511H494.174V501.12H496.434L496.634 502.4C497.254 501.4 498.454 500.82 499.794 500.82C502.274 500.82 503.554 502.36 503.554 504.92V511H501.114V505.5C501.114 503.84 500.294 503.04 499.034 503.04C497.534 503.04 496.614 504.08 496.614 505.68V511ZM510.211 511.26C507.351 511.26 505.571 509.16 505.571 506.1C505.571 503.02 507.371 500.82 510.351 500.82C511.731 500.82 512.951 501.4 513.571 502.38V496.12H515.991V511H513.751L513.591 509.46C512.991 510.6 511.711 511.26 510.211 511.26ZM510.751 509.02C512.451 509.02 513.551 507.8 513.551 506.02C513.551 504.24 512.451 503 510.751 503C509.051 503 508.011 504.26 508.011 506.02C508.011 507.78 509.051 509.02 510.751 509.02ZM525.545 499.14C524.705 499.14 524.045 498.48 524.045 497.66C524.045 496.84 524.705 496.2 525.545 496.2C526.345 496.2 527.005 496.84 527.005 497.66C527.005 498.48 526.345 499.14 525.545 499.14ZM524.325 511V501.12H526.765V511H524.325ZM531.926 511H529.486V501.12H531.746L531.946 502.4C532.566 501.4 533.766 500.82 535.106 500.82C537.586 500.82 538.866 502.36 538.866 504.92V511H536.426V505.5C536.426 503.84 535.606 503.04 534.346 503.04C532.846 503.04 531.926 504.08 531.926 505.68V511ZM540.483 501.12H541.903V499.92C541.903 497.24 543.323 496.12 545.463 496.12C545.843 496.12 546.303 496.14 546.723 496.22V498.3H545.863C544.623 498.3 544.323 498.94 544.323 499.92V501.12H546.683V503.16H544.323V511H541.903V503.16H540.483V501.12ZM551.127 511.26C549.027 511.26 547.747 510.04 547.747 508.18C547.747 506.36 549.067 505.22 551.407 505.04L554.367 504.82V504.6C554.367 503.26 553.567 502.72 552.327 502.72C550.887 502.72 550.087 503.32 550.087 504.36H548.007C548.007 502.22 549.767 500.82 552.447 500.82C555.107 500.82 556.747 502.26 556.747 505V511H554.607L554.427 509.54C554.007 510.56 552.667 511.26 551.127 511.26ZM551.927 509.42C553.427 509.42 554.387 508.52 554.387 507V506.48L552.327 506.64C550.807 506.78 550.227 507.28 550.227 508.08C550.227 508.98 550.827 509.42 551.927 509.42ZM561.784 511H559.344V501.12H561.604L561.804 502.4C562.424 501.4 563.624 500.82 564.964 500.82C567.444 500.82 568.724 502.36 568.724 504.92V511H566.284V505.5C566.284 503.84 565.464 503.04 564.204 503.04C562.704 503.04 561.784 504.08 561.784 505.68V511ZM574.681 511H572.241V503.16H570.341V501.12H572.241V498.04H574.681V501.12H576.601V503.16H574.681V511ZM577.558 508H579.878C579.898 508.86 580.538 509.4 581.658 509.4C582.798 509.4 583.418 508.94 583.418 508.22C583.418 507.72 583.158 507.36 582.278 507.16L580.498 506.74C578.718 506.34 577.858 505.5 577.858 503.92C577.858 501.98 579.498 500.82 581.778 500.82C583.998 500.82 585.498 502.1 585.518 504.02H583.198C583.178 503.18 582.618 502.64 581.678 502.64C580.718 502.64 580.158 503.08 580.158 503.82C580.158 504.38 580.598 504.74 581.438 504.94L583.218 505.36C584.878 505.74 585.718 506.5 585.718 508.02C585.718 510.02 584.018 511.26 581.578 511.26C579.118 511.26 577.558 509.94 577.558 508Z" fill="white"/>
<path id="Vector 2247" d="M323 452H385" stroke="white" stroke-width="3" stroke-linecap="round"/>
</g>
<path id="ARSENIC" d="M29.456 859H26.264L32.6 841.456H35.744L42.08 859H38.84L37.424 854.944H30.872L29.456 859ZM33.776 846.688L31.784 852.352H36.536L34.52 846.688C34.376 846.232 34.208 845.704 34.16 845.344C34.088 845.68 33.944 846.208 33.776 846.688ZM49.2719 859H46.1999V841.456H52.8959C56.8799 841.456 59.2079 843.472 59.2079 846.928C59.2079 849.28 58.1039 850.96 56.0399 851.8L59.3759 859H56.0159L53.0399 852.448H49.2719V859ZM49.2719 844.192V849.736H52.8959C54.8399 849.736 55.9919 848.704 55.9919 846.928C55.9919 845.176 54.8399 844.192 52.8959 844.192H49.2719ZM63.1901 846.352C63.1901 843.28 65.7341 841.144 69.4301 841.144C72.9821 841.144 75.2381 843.112 75.3341 846.28H72.2621C72.1901 844.768 71.1101 843.88 69.3821 843.88C67.4861 843.88 66.2621 844.792 66.2621 846.256C66.2621 847.504 66.9341 848.2 68.3981 848.536L71.1581 849.136C74.1581 849.784 75.6221 851.32 75.6221 853.936C75.6221 857.2 73.0781 859.312 69.2141 859.312C65.4701 859.312 63.0221 857.32 62.9501 854.176H66.0221C66.0461 855.664 67.2461 856.552 69.2141 856.552C71.2541 856.552 72.5501 855.664 72.5501 854.2C72.5501 853.024 71.9501 852.328 70.5101 852.016L67.7261 851.392C64.7501 850.744 63.1901 849.04 63.1901 846.352ZM91.2172 859H80.3212V841.456H91.2172V844.288H83.3932V848.8H90.4012V851.512H83.3932V856.168H91.2172V859ZM99.4918 859H96.4678V841.456H99.5158L107.748 853.888V841.456H110.772V859H107.748L99.4918 846.568V859ZM119.647 841.456V859H116.575V841.456H119.647ZM132.872 859.288C127.76 859.288 124.448 855.736 124.448 850.24C124.448 844.792 127.88 841.168 133.016 841.168C137.168 841.168 140.264 843.592 140.864 847.36H137.624C137.024 845.32 135.272 844.12 132.944 844.12C129.704 844.12 127.664 846.472 127.664 850.216C127.664 853.936 129.728 856.336 132.944 856.336C135.32 856.336 137.144 855.088 137.72 853.144H140.912C140.24 856.84 137.024 859.288 132.872 859.288Z" fill="white"/>
</g>
</svg>
