<svg xmlns="http://www.w3.org/2000/svg" width="275" height="66" viewBox="0 0 275 66" fill="none">
<path fill-rule="evenodd" clip-rule="evenodd" d="M79.7642 6.91064C81.2476 6.91064 82.4502 8.11322 82.4502 9.59668V29.8766C82.4502 31.3601 81.2476 32.5627 79.7642 32.5627C78.2807 32.5627 77.0781 31.3601 77.0781 29.8766V9.59668C77.0781 8.11322 78.2807 6.91064 79.7642 6.91064Z" fill="#010101"/>
<path fill-rule="evenodd" clip-rule="evenodd" d="M79.7642 41.4048C81.2476 41.4048 82.4502 42.6074 82.4502 44.0908V54.1855C82.4502 55.669 81.2476 56.8716 79.7642 56.8716C78.2807 56.8716 77.0781 55.669 77.0781 54.1855V44.0908C77.0781 42.6074 78.2807 41.4048 79.7642 41.4048Z" fill="#010101"/>
<path fill-rule="evenodd" clip-rule="evenodd" d="M84.3594 61.564C84.3594 60.0805 85.562 58.8779 87.0454 58.8779H118.461C119.945 58.8779 121.147 60.0805 121.147 61.564C121.147 63.0474 119.945 64.25 118.461 64.25H87.0454C85.562 64.25 84.3594 63.0474 84.3594 61.564Z" fill="#010101"/>
<path fill-rule="evenodd" clip-rule="evenodd" d="M84.3594 2.76098C84.3594 1.27753 85.562 0.0749512 87.0454 0.0749512H118.461C119.945 0.0749512 121.147 1.27753 121.147 2.76098C121.147 4.24444 119.945 5.44701 118.461 5.44701H87.0454C85.562 5.44701 84.3594 4.24444 84.3594 2.76098Z" fill="#010101"/>
<path fill-rule="evenodd" clip-rule="evenodd" d="M84.3594 33.4529C84.3594 31.9694 85.562 30.7668 87.0454 30.7668H111.897C113.381 30.7668 114.583 31.9694 114.583 33.4529C114.583 34.9363 113.381 36.1389 111.897 36.1389H87.0454C85.562 36.1389 84.3594 34.9363 84.3594 33.4529Z" fill="#010101"/>
<path d="M79.7613 39.9265C81.2864 39.9265 82.5227 38.6902 82.5227 37.1651C82.5227 35.6401 81.2864 34.4038 79.7613 34.4038C78.2363 34.4038 77 35.6401 77 37.1651C77 38.6902 78.2363 39.9265 79.7613 39.9265Z" fill="#010101"/>
<path d="M79.7613 5.52267C81.2864 5.52267 82.5227 4.28638 82.5227 2.76133C82.5227 1.23629 81.2864 0 79.7613 0C78.2363 0 77 1.23629 77 2.76133C77 4.28638 78.2363 5.52267 79.7613 5.52267Z" fill="#010101"/>
<path d="M79.7613 64.0537C81.2864 64.0537 82.5227 62.8174 82.5227 61.2923C82.5227 59.7673 81.2864 58.531 79.7613 58.531C78.2363 58.531 77 59.7673 77 61.2923C77 62.8174 78.2363 64.0537 79.7613 64.0537Z" fill="#010101"/>
<path d="M156.757 64.0519H142.845C141.354 64.0519 140.18 62.8323 140.18 61.3868C140.18 59.9413 141.399 58.7217 142.845 58.7217H156.757C167.96 58.7217 176.904 52.985 180.698 43.3183C181.24 41.9632 182.776 41.2405 184.176 41.8277C185.532 42.3697 186.209 43.9056 185.667 45.3059C181.105 57.0504 170.264 64.0519 156.757 64.0519ZM185.351 32.9742C183.951 32.9742 182.731 31.8449 182.686 30.4446C182.279 23.1269 179.569 16.8932 174.871 12.4665C170.128 7.99452 163.714 5.64562 156.261 5.64562H142.89C141.399 5.64562 140.225 4.426 140.225 2.98053C140.225 1.53505 141.444 0.31543 142.89 0.31543H156.261C174.329 0.31543 187.112 12.331 188.061 30.1735C188.151 31.6642 187.022 32.929 185.532 32.9742C185.441 32.9742 185.396 32.9742 185.351 32.9742Z" fill="#010101"/>
<path d="M135.767 32.749C134.276 32.749 133.102 31.5294 133.102 30.0839V9.89239C133.102 8.40174 134.321 7.22729 135.767 7.22729C137.212 7.22729 138.432 8.44692 138.432 9.89239V30.0839C138.432 31.5745 137.257 32.749 135.767 32.749Z" fill="#010101"/>
<path d="M135.767 57.0508C134.276 57.0508 133.102 55.8312 133.102 54.3857V44.2674C133.102 42.7767 134.321 41.6023 135.767 41.6023C137.212 41.6023 138.432 42.8219 138.432 44.2674V54.3406C138.432 55.8312 137.257 57.0508 135.767 57.0508Z" fill="#010101"/>
<path d="M135.755 40.1122C137.277 40.1122 138.511 38.8785 138.511 37.3568C138.511 35.835 137.277 34.6013 135.755 34.6013C134.234 34.6013 133 35.835 133 37.3568C133 38.8785 134.234 40.1122 135.755 40.1122Z" fill="#010101"/>
<path d="M184.99 40.1122C186.512 40.1122 187.745 38.8785 187.745 37.3568C187.745 35.835 186.512 34.6013 184.99 34.6013C183.468 34.6013 182.234 35.835 182.234 37.3568C182.234 38.8785 183.468 40.1122 184.99 40.1122Z" fill="#010101"/>
<path d="M135.755 64.0526C137.277 64.0526 138.511 62.819 138.511 61.2972C138.511 59.7754 137.277 58.5417 135.755 58.5417C134.234 58.5417 133 59.7754 133 61.2972C133 62.819 134.234 64.0526 135.755 64.0526Z" fill="#010101"/>
<path d="M135.755 5.51088C137.277 5.51088 138.511 4.27723 138.511 2.75544C138.511 1.23365 137.277 0 135.755 0C134.234 0 133 1.23365 133 2.75544C133 4.27723 134.234 5.51088 135.755 5.51088Z" fill="#010101"/>
<path d="M36.1448 45.1419C35.8253 45.1419 35.4602 45.0963 35.1407 44.9593C33.7713 44.4116 33.0867 42.814 33.6344 41.4447L49.6555 1.77982C50.2033 0.410488 51.8008 -0.274176 53.1701 0.273556C54.5395 0.821287 55.2241 2.41884 54.6764 3.78817L38.6553 43.4531C38.2445 44.5029 37.2403 45.1419 36.1448 45.1419Z" fill="#010101"/>
<path d="M26.2926 45.1421C25.2428 45.1421 24.2386 44.5031 23.7822 43.4533L7.30456 3.7884C6.71119 2.41907 7.39586 0.821523 8.76519 0.228147C10.1345 -0.365229 11.7321 0.319436 12.3254 1.68876L28.7574 41.3993C29.3508 42.7686 28.6661 44.3662 27.2968 44.9595C26.9772 45.0965 26.6121 45.1421 26.2926 45.1421Z" fill="#010101"/>
<path d="M2.79067 33.0925C1.28441 33.0925 0.0976562 31.8601 0.0976562 30.3995V10.1334C0.0976562 8.62718 1.33005 7.44043 2.79067 7.44043C4.25128 7.44043 5.48368 8.67283 5.48368 10.1334V30.3539C5.52932 31.8601 4.29693 33.0925 2.79067 33.0925Z" fill="#010101"/>
<path d="M2.79067 65.2716C1.28441 65.2716 0.0976562 64.0392 0.0976562 62.5786V45.2338C0.0976562 43.7275 1.33005 42.5408 2.79067 42.5408C4.25128 42.5408 5.48368 43.7732 5.48368 45.2338V62.5786C5.52932 64.0392 4.29693 65.2716 2.79067 65.2716Z" fill="#010101"/>
<path d="M59.1461 33.0923C57.6399 33.0923 56.4531 31.8599 56.4531 30.3993V10.1332C56.4531 8.62694 57.6855 7.44019 59.1461 7.44019C60.6067 7.44019 61.8391 8.67258 61.8391 10.1332V30.3536C61.8391 31.8599 60.6524 33.0923 59.1461 33.0923Z" fill="#010101"/>
<path d="M59.1461 65.2711C57.6399 65.2711 56.4531 64.0387 56.4531 62.5781V45.2333C56.4531 43.727 57.6855 42.5403 59.1461 42.5403C60.6067 42.5403 61.8391 43.7727 61.8391 45.2333V62.5781C61.8391 64.0387 60.6524 65.2711 59.1461 65.2711Z" fill="#010101"/>
<path d="M2.7843 40.6694C4.32203 40.6694 5.56861 39.4229 5.56861 37.8851C5.56861 36.3474 4.32203 35.1008 2.7843 35.1008C1.24658 35.1008 0 36.3474 0 37.8851C0 39.4229 1.24658 40.6694 2.7843 40.6694Z" fill="#010101"/>
<path d="M2.7843 5.5686C4.32203 5.5686 5.56861 4.32203 5.56861 2.7843C5.56861 1.24657 4.32203 0 2.7843 0C1.24658 0 0 1.24657 0 2.7843C0 4.32203 1.24658 5.5686 2.7843 5.5686Z" fill="#010101"/>
<path d="M59.1476 40.5776C60.6853 40.5776 61.9319 39.3311 61.9319 37.7933C61.9319 36.2556 60.6853 35.009 59.1476 35.009C57.6098 35.009 56.3633 36.2556 56.3633 37.7933C56.3633 39.3311 57.6098 40.5776 59.1476 40.5776Z" fill="#010101"/>
<path d="M59.1476 5.5686C60.6853 5.5686 61.9319 4.32203 61.9319 2.7843C61.9319 1.24657 60.6853 0 59.1476 0C57.6098 0 56.3633 1.24657 56.3633 2.7843C56.3633 4.32203 57.6098 5.5686 59.1476 5.5686Z" fill="#010101"/>
<path d="M31.2179 50.8025C32.7556 50.8025 34.0022 49.5559 34.0022 48.0182C34.0022 46.4805 32.7556 45.2339 31.2179 45.2339C29.6802 45.2339 28.4336 46.4805 28.4336 48.0182C28.4336 49.5559 29.6802 50.8025 31.2179 50.8025Z" fill="#010101"/>
<path d="M219.666 64.8271C219.305 64.8271 218.898 64.7367 218.582 64.6012C217.227 63.9688 216.64 62.3878 217.227 61.0327L224.725 44.5001C225.358 43.1449 226.939 42.5577 228.294 43.1449C229.649 43.7773 230.236 45.3583 229.649 46.7134L222.151 63.2461C221.654 64.2398 220.66 64.8271 219.666 64.8271ZM233.489 33.2073C233.172 33.2073 232.811 33.1621 232.495 33.0266C231.14 32.4845 230.462 30.9036 231.049 29.5484L239.225 9.53761C239.767 8.18247 241.348 7.50491 242.704 8.09213C244.059 8.63419 244.736 10.2152 244.149 11.5703L235.973 31.5811C235.566 32.5749 234.573 33.2073 233.489 33.2073Z" fill="#010101"/>
<path d="M272.064 64.8267C271.07 64.8267 270.076 64.2395 269.624 63.2457L262.036 46.7583C261.403 45.4031 261.991 43.8221 263.346 43.1897C264.701 42.5573 266.282 43.1446 266.914 44.4997L274.503 60.9872C275.135 62.3423 274.548 63.9233 273.193 64.5557C272.832 64.7364 272.425 64.8267 272.064 64.8267Z" fill="#010101"/>
<path d="M254.093 40.9313H237.153C235.663 40.9313 234.488 39.7116 234.488 38.2662C234.488 36.8207 235.708 35.6011 237.153 35.6011H254.093C255.583 35.6011 256.758 36.8207 256.758 38.2662C256.758 39.7116 255.538 40.9313 254.093 40.9313Z" fill="#010101"/>
<path d="M258.337 33.2072C257.298 33.2072 256.349 32.6199 255.897 31.6262L246.954 11.6154C246.366 10.2602 246.954 8.67923 248.309 8.092C249.664 7.50478 251.245 8.092 251.832 9.44714L260.776 29.4579C261.363 30.8131 260.776 32.3941 259.421 32.9813C259.059 33.162 258.698 33.2072 258.337 33.2072Z" fill="#010101"/>
<path d="M230.142 41.0665C231.664 41.0665 232.898 39.8329 232.898 38.3111C232.898 36.7893 231.664 35.5557 230.142 35.5557C228.62 35.5557 227.387 36.7893 227.387 38.3111C227.387 39.8329 228.62 41.0665 230.142 41.0665Z" fill="#010101"/>
<path d="M245.638 6.51088C247.16 6.51088 248.394 5.27723 248.394 3.75544C248.394 2.23365 247.16 1 245.638 1C244.116 1 242.883 2.23365 242.883 3.75544C242.883 5.27723 244.116 6.51088 245.638 6.51088Z" fill="#010101"/>
<path d="M261.134 41.0214C262.656 41.0214 263.89 39.7877 263.89 38.2659C263.89 36.7441 262.656 35.5105 261.134 35.5105C259.613 35.5105 258.379 36.7441 258.379 38.2659C258.379 39.7877 259.613 41.0214 261.134 41.0214Z" fill="#010101"/>
<path d="M203.787 65.1344C202.281 65.1344 201.094 63.902 201.094 62.4414V44.9596C201.094 43.4534 202.326 42.2666 203.787 42.2666C205.247 42.2666 206.48 43.499 206.48 44.9596V62.4414C206.48 63.9476 205.293 65.1344 203.787 65.1344Z" fill="#010101"/>
<path d="M203.787 33.366C202.281 33.366 201.094 32.1336 201.094 30.673V2.69301C201.094 1.18675 202.326 0 203.787 0C205.247 0 206.48 1.2324 206.48 2.69301V30.673C206.48 32.1792 205.293 33.366 203.787 33.366Z" fill="#010101"/>
<path d="M203.784 40.4409C205.322 40.4409 206.569 39.1943 206.569 37.6566C206.569 36.1189 205.322 34.8723 203.784 34.8723C202.247 34.8723 201 36.1189 201 37.6566C201 39.1943 202.247 40.4409 203.784 40.4409Z" fill="#010101"/>
</svg>
